<svg width="500" height="500" viewBox="0 0 500 500" fill="none" xmlns="http://www.w3.org/2000/svg">
<path d="M383.118 278.47C383.118 286.17 382.559 293.738 381.481 301.137C380.443 308.258 378.922 315.222 376.955 321.993C374.227 331.383 370.638 340.407 366.281 348.973C351.971 377.099 329.368 400.301 301.692 415.348C301.475 415.468 301.258 415.585 301.041 415.702C300.884 415.786 300.731 415.867 300.574 415.951C281.665 426.041 260.426 432.338 237.876 433.834C234.416 434.064 230.924 434.18 227.408 434.18C225.456 434.18 223.513 434.144 221.578 434.072C221.087 434.056 220.596 434.036 220.106 434.012C219.241 433.971 218.376 433.927 217.515 433.871C215.342 433.734 213.182 433.557 211.037 433.328C210.353 433.259 209.669 433.183 208.989 433.102C206.394 432.797 203.82 432.426 201.269 431.996C194.61 430.873 188.101 429.324 181.76 427.385C180.441 426.979 179.129 426.556 177.821 426.122C171.445 423.982 165.253 421.439 159.274 418.522C156.438 417.142 153.646 415.674 150.91 414.125C150.894 414.117 150.882 414.109 150.866 414.101C147.603 412.254 144.413 410.295 141.303 408.227C132.017 402.055 123.432 394.91 115.695 386.94C108.566 379.605 102.157 371.567 96.5765 362.941C93.4344 358.089 90.5578 353.048 87.9628 347.842C85.5569 343.022 83.3964 338.058 81.4975 332.968C75.1569 316.006 71.6929 297.64 71.6929 278.47C71.6929 192.469 141.407 122.755 227.408 122.755C290.822 122.755 345.381 160.662 369.657 215.052C371.363 218.866 372.92 222.76 374.316 226.727C375.796 230.927 377.1 235.208 378.218 239.561C381.417 251.997 383.118 265.036 383.118 278.47Z" fill="#EBF2FA"/>
<path d="M220.105 433.369C219.24 433.329 218.376 433.284 217.515 433.228C215.342 433.091 213.182 432.914 211.037 432.685C210.353 432.617 209.669 432.54 208.989 432.46C206.394 432.154 203.819 431.784 201.269 431.353C194.61 430.231 188.101 428.682 181.76 426.743C180.441 426.336 179.129 425.914 177.821 425.479C171.445 423.339 165.253 420.796 159.274 417.88C158.377 416.62 157.585 415.602 156.985 415.003C155.77 413.788 149.281 410.738 141.303 407.584C128.151 402.386 110.951 396.906 106.695 398.91C99.8554 402.129 90.1997 397.301 76.1184 395.691C66.0885 394.545 55.8574 402.583 49.0542 407.302C46.3023 409.209 44.1137 410.577 42.7256 410.577C37.8978 410.577 47.5535 396.094 54.7953 393.68C62.0371 391.266 70.8882 375.575 80.9463 367.931C85.4885 364.479 91.0244 362.749 96.5765 362.299C99.1433 362.089 101.718 362.158 104.2 362.456C108.224 362.934 112.01 364.017 115.144 365.517C124.397 369.943 136.064 367.931 142.099 367.529C147.426 367.175 159.021 384.68 173.838 392.944C175.81 394.046 177.838 394.983 179.918 395.691C185.695 397.663 192.546 403.106 199.157 409.543C203.127 413.418 207.014 417.646 210.522 421.698C213.479 425.113 216.171 428.396 218.424 431.237C219.015 431.981 219.574 432.693 220.105 433.369Z" fill="#FDBB61"/>
<path d="M211.037 432.685C210.353 432.616 209.669 432.54 208.989 432.459C206.394 432.154 203.82 431.783 201.269 431.353C194.61 430.23 188.101 428.681 181.76 426.742C180.441 426.336 179.129 425.913 177.821 425.479C171.445 423.339 165.253 420.796 159.274 417.879C158.377 416.62 157.585 415.602 156.985 415.003C155.77 413.788 149.281 410.738 141.303 407.584C128.151 402.386 110.951 396.906 106.695 398.91C99.8554 402.128 90.1997 397.3 76.1184 395.691C66.0885 394.544 55.8575 402.583 49.0542 407.302C56.1311 399.626 67.5449 389.733 80.544 388.047C102.269 385.231 103.372 392.991 115.695 386.297C118.326 384.865 124.453 384.953 132.504 386.498C144.747 388.848 161.435 394.573 177.057 403.472C184.999 407.994 192.667 413.333 199.33 419.472C202.955 422.808 206.278 426.376 209.191 430.174C209.826 430.999 210.442 431.836 211.037 432.685Z" fill="#F59059"/>
<path d="M398.781 218.268C391.165 223.981 381.545 229.943 378.218 238.919C377.325 241.321 376.886 243.944 377.055 246.833C377.86 260.512 372.63 270.167 367.4 274.995C363.839 278.282 347.058 305.407 333.778 328.75C327.542 339.709 322.078 349.835 319.121 356.264C318.365 357.91 317.584 359.575 316.78 361.249C307.743 380.034 295.71 399.973 281.303 407.359C271.599 412.336 252.05 423.927 237.876 433.192C234.416 433.422 230.924 433.538 227.408 433.538C225.456 433.538 223.513 433.502 221.578 433.43C221.349 433.752 221.115 434.069 220.89 434.383C220.637 434.057 220.375 433.719 220.106 433.369C219.241 433.329 218.376 433.285 217.515 433.229C215.342 433.092 213.182 432.915 211.037 432.685C210.353 432.617 209.669 432.541 208.989 432.46C206.394 432.154 203.82 431.784 201.269 431.354C200.508 428.24 199.728 424.172 199.33 419.473C199.072 416.399 198.98 413.06 199.157 409.544C199.808 396.939 204.005 382.065 216.931 369.139C246.301 339.769 257.566 295.916 278.084 285.053C298.603 274.191 314.696 274.593 319.121 256.891C323.547 239.189 338.03 241.603 344.467 235.165C349.42 230.213 358.183 220.975 369.657 214.41C373.097 212.442 376.778 210.716 380.676 209.417C392.895 205.345 401.959 208.005 402.39 212.527C402.555 214.257 401.456 216.264 398.781 218.268Z" fill="#373075"/>
<path d="M398.781 218.268C391.165 223.98 381.545 229.943 378.218 238.919C377.325 241.321 376.886 243.944 377.055 246.832C377.86 260.511 372.63 270.167 367.4 274.995C363.839 278.282 347.058 305.406 333.778 328.749C327.542 339.708 322.078 349.835 319.121 356.264C318.365 357.91 317.584 359.575 316.779 361.249C307.743 380.033 295.71 399.972 281.303 407.359C271.599 412.336 252.05 423.927 237.876 433.192C234.416 433.421 230.924 433.538 227.408 433.538C225.456 433.538 223.513 433.502 221.578 433.429C221.349 433.751 221.115 434.069 220.89 434.383C220.636 434.057 220.375 433.719 220.105 433.369C219.24 433.329 218.375 433.285 217.514 433.228C215.342 433.091 213.181 432.914 211.037 432.685C210.353 432.617 209.669 432.54 208.989 432.46C209.046 431.712 209.11 430.947 209.19 430.175C209.468 427.483 209.894 424.647 210.522 421.698C213.258 408.803 219.767 393.821 233.829 379.599C269.233 343.792 323.144 307.583 325.558 289.479C327.972 271.374 356.537 263.328 360.962 248.442C362.93 241.819 367.52 233.214 374.316 226.085C381.429 218.622 390.948 212.776 402.39 212.526C402.555 214.256 401.456 216.264 398.781 218.268Z" fill="#242259"/>
<path d="M181.76 426.744C180.441 426.337 179.129 425.915 177.821 425.48C169.007 416.002 149.574 400.343 132.504 386.499C120.257 376.566 109.225 367.57 104.2 362.457C102.756 360.988 101.807 359.841 101.465 359.081C99.1272 353.887 93.9413 350.037 87.9628 347.2C84.6758 345.639 81.1514 344.388 77.7277 343.391C68.0719 340.574 63.6464 340.977 71.6928 335.746C74.2315 334.097 77.6955 332.926 81.4974 332.327C89.741 331.023 99.5778 332.399 105.086 337.356C113.132 344.597 130.03 337.356 153.907 359.202C163.177 367.679 169.53 380.469 173.838 392.945C175.074 396.517 176.14 400.062 177.057 403.473C179.652 413.121 181.068 421.695 181.76 426.744Z" fill="#373075"/>
<path d="M431.771 313.618C428.553 314.825 406.023 316.434 383.09 335.746C379.506 338.763 375.752 341.632 371.938 344.371C371.487 344.697 371.033 345.023 370.574 345.345C369.882 345.836 369.19 346.323 368.494 346.806C367.758 347.316 367.018 347.827 366.281 348.33C365.481 348.873 364.68 349.417 363.879 349.952L362.745 350.712C361.204 351.738 359.663 352.748 358.138 353.742C357.756 353.991 357.378 354.236 357 354.482C353.013 357.069 349.118 359.551 345.445 361.961C344.709 362.444 343.985 362.923 343.269 363.397C342.484 363.916 341.712 364.431 340.955 364.95C340.264 365.417 339.588 365.881 338.92 366.344C338.797 366.429 338.674 366.515 338.552 366.6C337.878 367.069 337.214 367.538 336.566 368.004C336.332 368.169 336.099 368.338 335.87 368.507C335.407 368.841 334.953 369.175 334.506 369.509C334.059 369.842 333.621 370.172 333.19 370.506C332.977 370.671 332.764 370.836 332.551 371.001C331.151 372.095 329.839 373.182 328.632 374.264C328.443 374.429 328.258 374.598 328.077 374.767C327.658 375.149 327.252 375.531 326.866 375.914C326.701 376.074 326.536 376.235 326.379 376.4C326.218 376.561 326.057 376.722 325.904 376.887C325.747 377.048 325.595 377.209 325.446 377.374C325.232 377.599 325.031 377.825 324.834 378.05C324.685 378.219 324.536 378.388 324.396 378.557C324.384 378.569 324.371 378.585 324.363 378.597C324.19 378.798 324.029 378.995 323.873 379.196C323.651 379.466 323.442 379.74 323.241 380.013C323.136 380.154 323.032 380.295 322.935 380.436C322.911 380.468 322.891 380.5 322.867 380.532C322.754 380.697 322.641 380.858 322.533 381.019C322.505 381.067 322.472 381.116 322.44 381.164C322.316 381.357 322.191 381.554 322.074 381.747C319.133 386.615 315.689 392.952 311.811 399.449C311.646 399.731 311.477 400.017 311.304 400.298C308.54 404.897 305.563 409.548 302.389 413.784C302.159 414.094 301.926 414.4 301.693 414.705C301.475 414.826 301.258 414.943 301.041 415.059C282.015 425.295 260.611 431.683 237.876 433.192C234.416 433.421 230.924 433.538 227.408 433.538C225.456 433.538 223.513 433.502 221.578 433.43C221.349 433.751 221.115 434.069 220.89 434.383C220.637 434.057 220.375 433.719 220.106 433.369C219.241 433.329 218.376 433.285 217.515 433.228C217.808 432.581 218.11 431.917 218.424 431.237C230.751 404.422 257.055 354.957 288.545 341.378C314.555 330.161 326.693 329.562 333.778 328.749C338.638 328.19 341.12 327.53 344.065 323.274C351.307 312.813 360.963 317.641 366.997 309.192C369.331 305.926 374.734 302.779 381.481 300.494C392.187 296.877 406.276 295.433 416.885 299.134C421.11 300.607 424.349 302.152 426.787 303.665C434.338 308.344 434.205 312.705 431.771 313.618Z" fill="#EE5763"/>
<path opacity="0.79" d="M431.771 313.618C428.553 314.825 406.023 316.434 383.09 335.746C379.506 338.763 375.752 341.632 371.938 344.372C371.487 344.697 371.033 345.023 370.574 345.345C369.882 345.836 369.19 346.323 368.494 346.806C367.758 347.316 367.018 347.827 366.281 348.33C365.481 348.873 364.68 349.417 363.88 349.952L362.745 350.712C361.204 351.738 359.663 352.748 358.138 353.742C357.756 353.991 357.378 354.236 357 354.482C353.013 357.069 349.118 359.551 345.445 361.961C344.709 362.444 343.985 362.923 343.269 363.397C342.484 363.916 341.712 364.431 340.955 364.95C339.438 365.976 337.97 366.994 336.566 368.004C336.333 368.169 336.099 368.338 335.87 368.507C335.407 368.841 334.953 369.175 334.506 369.509C334.059 369.843 333.621 370.172 333.19 370.506C332.973 370.667 332.76 370.832 332.551 371.001C331.151 372.095 329.839 373.182 328.632 374.264C328.443 374.429 328.258 374.598 328.077 374.767C327.658 375.149 327.252 375.531 326.866 375.914C326.697 376.074 326.536 376.239 326.379 376.4C326.214 376.561 326.057 376.726 325.904 376.887C325.747 377.048 325.595 377.213 325.446 377.374C325.232 377.599 325.031 377.825 324.834 378.05C324.685 378.219 324.536 378.388 324.396 378.557C324.384 378.569 324.371 378.585 324.363 378.597C324.194 378.798 324.029 378.995 323.873 379.196C323.651 379.466 323.442 379.74 323.241 380.013C323.136 380.154 323.036 380.295 322.935 380.436C322.911 380.468 322.891 380.5 322.867 380.532C322.754 380.693 322.641 380.858 322.533 381.019C322.505 381.067 322.473 381.116 322.44 381.164C322.312 381.357 322.191 381.554 322.074 381.747C319.133 386.615 315.689 392.952 311.811 399.449C311.646 399.731 311.477 400.017 311.304 400.298C308.54 404.897 305.563 409.548 302.389 413.784C302.159 414.094 301.926 414.4 301.693 414.705C301.475 414.826 301.258 414.943 301.041 415.06C282.015 425.295 260.611 431.683 237.876 433.192C234.416 433.421 230.924 433.538 227.408 433.538C225.457 433.538 223.513 433.502 221.578 433.43C234.919 415.164 256.23 390.232 280.901 377.185C293.57 370.482 305.76 365.445 316.78 361.249C342.15 351.589 361.305 346.403 365.791 335.746C368.12 330.214 372.292 325.313 376.955 321.351C385.183 314.362 394.931 310.287 398.781 310.802C403.062 311.373 415.027 303.447 426.787 303.665C434.338 308.344 434.205 312.705 431.771 313.618Z" fill="#A53447"/>
<path d="M300.574 415.951C281.665 426.042 260.426 432.338 237.876 433.835C234.416 434.064 230.924 434.181 227.408 434.181C225.456 434.181 223.513 434.144 221.578 434.072C221.087 434.056 220.596 434.036 220.106 434.012C219.241 433.971 218.376 433.927 217.515 433.871C215.342 433.734 213.182 433.557 211.037 433.328C210.353 433.259 209.669 433.183 208.989 433.102C206.394 432.797 203.819 432.426 201.269 431.996C194.61 430.873 188.101 429.325 181.76 427.385C180.441 426.979 179.129 426.557 177.821 426.122C171.445 423.982 165.253 421.439 159.274 418.522C156.438 417.142 153.646 415.674 150.91 414.125C152.66 383.013 154.571 347.862 154.571 343.228C154.571 340.641 153.694 331.456 152.399 319.197C152.185 317.133 151.956 314.981 151.719 312.756C151.147 307.457 150.524 301.76 149.876 295.89C149.816 295.331 149.751 294.772 149.691 294.213C148.677 284.987 147.611 275.396 146.605 266.304C143.958 242.377 141.757 221.948 142.099 220.922C142.904 218.508 183.538 191.954 183.538 191.954V183.111L226.989 185.92L228.599 188.736C228.599 188.736 274.061 197.587 276.073 199.599C276.978 200.504 278.454 219.493 279.911 244.361C280.434 253.244 280.953 262.88 281.444 272.709C281.637 276.571 281.826 280.465 282.007 284.356C282.099 286.347 282.192 288.339 282.28 290.322C283.097 308.338 283.765 325.9 284.119 339.607C284.875 368.851 291.477 391.619 296.297 404.541C296.921 406.203 298.546 410.552 300.574 415.951Z" fill="#FEBC61"/>
<path d="M301.041 415.702C279.118 427.494 254.045 434.181 227.408 434.181C199.587 434.181 173.468 426.887 150.866 414.101C152.117 392.983 154.571 350.715 154.571 343.228C154.571 340.641 153.694 331.456 152.399 319.197C152.185 317.133 151.956 314.981 151.719 312.756C151.147 307.457 150.524 301.76 149.876 295.891C149.816 295.331 149.751 294.772 149.691 294.213C149.949 294.704 150.21 295.191 150.476 295.677C156.301 306.391 163.768 315.979 172.273 317.479C192.792 321.1 175.894 346.849 200.436 371.793C220.226 391.909 275.602 401.556 296.297 404.542C298.47 410.355 300.28 414.177 301.041 415.702Z" fill="#F59059"/>
<path d="M150.548 295.753C150.548 295.753 149.731 301.096 148.227 308.499C146.227 318.331 143.013 331.805 138.881 341.216C131.639 357.711 113.132 352.883 108.706 346.848C107.785 345.593 105.383 343.034 105.086 337.997C103.955 318.858 109.109 276.945 116.753 255.923C126.409 229.37 144.095 218.998 144.095 218.998C147.293 221.501 149.743 230.175 149.743 238.221C149.743 246.267 150.548 295.753 150.548 295.753Z" fill="#EE5763"/>
<path opacity="0.79" d="M148.227 308.499C146.227 318.332 143.013 331.806 138.881 341.216C131.639 357.711 113.132 352.883 108.707 346.848C107.785 345.593 107.178 342.065 106.88 337.028C114.806 317.571 139.086 310.511 148.227 308.499Z" fill="#A53447"/>
<path d="M183.136 346.044C183.136 346.044 180.899 347.387 177.592 349.737C176.466 350.537 175.214 351.459 173.883 352.481C168.653 356.504 128.42 362.539 115.948 358.516C111.169 356.975 108.276 352.947 106.703 348.337C104.168 340.922 105.029 331.998 106.88 329.468C109.881 325.36 128.018 321.1 136.064 321.502C144.111 321.904 187.562 319.893 187.562 319.893C182.331 326.33 183.136 346.044 183.136 346.044Z" fill="#EE5763"/>
<path opacity="0.79" d="M177.592 349.737C176.466 350.537 175.214 351.459 173.883 352.481C168.652 356.504 128.42 362.539 115.948 358.515C111.169 356.975 108.276 352.947 106.703 348.337C114.975 347.745 152.519 345.287 161.813 348.86C166.339 350.602 172.289 350.457 177.592 349.737Z" fill="#A53447"/>
<path d="M233.829 319.893L226.989 323.916L214.115 326.732C214.115 326.732 194.803 339.607 193.999 340.814C193.194 342.02 183.538 344.837 181.527 343.63C181.173 343.417 180.803 342.745 180.497 341.751C179.065 337.136 178.908 325.521 186.99 319.893L210.896 303.8C210.896 303.8 210.933 303.808 211.001 303.82C212.449 304.081 228.615 307.018 229.001 307.018C229.403 307.018 232.219 311.042 232.219 311.042L233.829 319.893Z" fill="#F69D80"/>
<path d="M207.678 321.904C204.186 323.811 187.413 336.489 180.497 341.751C179.065 337.136 178.908 325.521 186.99 319.893L210.896 303.8C210.896 303.8 210.933 303.808 211.001 303.82C211.154 308.841 211.093 320.042 207.678 321.904Z" fill="#CE7961"/>
<path d="M318.316 322.709C315.283 333.736 310.173 338.339 304.666 339.24C302.139 339.654 299.528 339.284 296.993 338.399C288.947 335.583 283.717 315.467 282.107 284.488C281.287 268.665 279.73 248.223 278.189 231.687C276.712 215.848 275.252 203.597 274.463 202.414C272.854 200 274.395 198.85 274.395 198.85C274.395 198.85 292.568 206.437 301.419 224.542C310.27 242.646 322.742 306.616 318.316 322.709Z" fill="#EE5763"/>
<path opacity="0.4" d="M304.666 339.24C302.139 339.655 299.528 339.285 296.993 338.399C288.947 335.583 283.717 315.467 282.107 284.488C281.287 268.665 279.73 248.223 278.189 231.688C283.186 242.2 293.244 264.931 297.396 285.695C301.672 307.083 303.861 329.629 304.666 339.24Z" fill="#662131"/>
<path d="M317.982 323.863C317.982 323.863 316.49 331.057 311.771 339.087C309.075 343.674 305.329 348.53 300.212 352.48C286.131 363.343 259.98 362.941 259.98 362.941C259.98 362.941 255.168 360.961 255.281 355.812C255.301 354.822 255.502 353.711 255.956 352.48C258.773 344.836 261.187 342.825 270.038 340.008C278.889 337.192 285.451 314.666 285.451 314.666C285.451 314.666 320.066 299.265 317.982 323.863Z" fill="#EE5763"/>
<path opacity="0.4" d="M311.771 339.087C309.075 343.673 305.329 348.529 300.212 352.48C286.131 363.343 259.98 362.941 259.98 362.941C259.98 362.941 255.168 360.961 255.281 355.811C260.31 356.069 275.368 356.431 288.544 352.48C296.547 350.078 305.148 344.297 311.771 339.087Z" fill="#662131"/>
<path d="M325.558 346.043L208.482 348.449L208.08 348.457L179.917 332.766V330.887C179.917 330.288 180.094 329.729 180.404 329.258C180.927 328.453 181.833 327.914 182.867 327.902L275.67 326.731L325.558 346.043Z" fill="#3F3C80"/>
<path d="M209.287 344.434L208.482 348.45L208.08 348.458L179.917 332.767V330.888C179.917 330.289 180.094 329.73 180.404 329.259L209.287 344.434Z" fill="#CEE0F2"/>
<path d="M218.943 329.146L187.964 329.95L214.92 344.031L218.943 329.146Z" fill="#1F184B"/>
<path d="M351.307 278.051C351.19 278.694 351.037 279.463 350.848 280.34C347.73 294.771 335.214 338.399 335.214 338.399C335.214 338.399 333.335 345.279 324.621 346.063C315.902 346.848 208.482 348.457 208.482 348.457L210.277 337.981L220.954 275.637C220.954 275.637 221.357 267.993 229.403 267.993C237.45 267.993 345.674 267.993 345.674 267.993C345.674 267.993 353.318 266.786 351.307 278.051Z" fill="#EBF2FA"/>
<path d="M350.848 280.34C347.73 294.771 335.214 338.399 335.214 338.399C335.214 338.399 333.335 345.279 324.621 346.063C315.902 346.848 208.482 348.457 208.482 348.457L210.277 337.981C218.347 329.186 231.66 318.854 249.519 319.087C280.498 319.49 301.821 320.294 323.144 299.776C335.878 287.521 345.312 282.444 350.848 280.34Z" fill="#CEE0F2"/>
<path d="M287.337 353.688C287.337 353.688 284.94 356.235 281.061 358.765C278.583 360.387 275.501 362 272.049 362.941C263.198 365.355 254.347 364.551 252.738 364.551C251.973 364.551 249.567 363.368 247.258 362.129C244.711 360.757 242.277 359.32 242.277 359.32C242.277 359.32 241.07 348.458 240.668 346.446C240.318 344.7 241.179 342.652 242.728 342.934C242.965 342.97 243.219 343.067 243.484 343.227C245.496 344.434 247.105 350.067 247.508 352.079C247.91 354.09 249.519 355.699 249.519 355.699C249.519 355.699 249.515 355.679 249.507 355.639C249.37 354.81 247.874 345.911 247.105 343.227C246.301 340.411 245.094 334.376 245.094 334.376C245.094 334.376 245.959 332.063 248.429 332.831C248.875 332.964 249.37 333.202 249.922 333.572C251.627 334.71 252.617 336.026 253.192 337.1C253.687 338.029 253.864 338.774 253.925 339.071L253.14 332.767C253.14 332.767 254.106 331.484 255.626 331.657C256.512 331.753 257.586 332.345 258.773 333.974C261.991 338.4 265.21 347.251 265.612 348.055C266.014 348.86 271.245 348.86 272.452 349.262C273.659 349.665 276.877 350.067 276.877 350.067C276.877 350.067 276.897 349.954 276.937 349.765C277.167 348.703 278.108 345.179 280.498 344.837C283.314 344.434 285.326 347.653 285.326 347.653C285.326 347.653 290.556 348.86 287.337 353.688Z" fill="#F69D80"/>
<path d="M257.964 354.074C257.775 353.531 252.396 337.82 248.429 332.831C248.876 332.964 249.37 333.201 249.922 333.571C251.627 334.71 252.617 336.025 253.192 337.1C254.005 339.691 255.212 343.557 255.956 346.043C257.119 349.926 257.912 353.808 257.964 354.074Z" fill="#CE7962"/>
<path d="M249.922 356.906C249.922 356.906 249.117 356.906 247.91 356.906C246.703 356.906 245.496 354.895 244.691 350.067C244.233 347.307 243.376 344.68 242.728 342.934C242.965 342.97 243.219 343.066 243.484 343.227C245.496 344.434 247.105 350.067 247.508 352.078C247.91 354.09 249.519 355.699 249.519 355.699C249.519 355.699 249.515 355.679 249.507 355.639C249.745 356.379 249.922 356.906 249.922 356.906Z" fill="#CE7962"/>
<path d="M279.291 354.09C279.291 354.09 269.635 352.883 267.221 352.078C264.807 351.273 262.796 345.641 260.382 339.606C258.748 335.527 256.749 332.916 255.626 331.656C256.512 331.753 257.586 332.344 258.773 333.974C261.991 338.399 265.21 347.25 265.612 348.055C266.014 348.86 271.245 348.86 272.452 349.262C273.659 349.664 276.877 350.066 276.877 350.066C276.877 350.066 276.897 349.954 276.937 349.765C277.638 352.07 279.291 354.09 279.291 354.09Z" fill="#CE7962"/>
<path d="M281.061 358.765C278.583 360.386 275.501 362 272.049 362.941C263.198 365.355 254.347 364.551 252.738 364.551C251.973 364.551 249.568 363.368 247.258 362.129C252.73 360.423 265.306 356.685 268.428 357.309C271.398 357.904 277.871 358.496 281.061 358.765Z" fill="#CE7961"/>
<path d="M287.338 308.225C289.782 308.225 291.763 306.244 291.763 303.8C291.763 301.355 289.782 299.374 287.338 299.374C284.893 299.374 282.912 301.355 282.912 303.8C282.912 306.244 284.893 308.225 287.338 308.225Z" fill="white"/>
<path d="M249.516 135.229C247.745 136.596 245.877 138.361 244.016 140.338C240.679 143.88 237.348 148.084 234.601 151.819C231.226 156.421 228.729 160.31 228.196 161.375C227.208 163.352 202.538 169.359 193.585 171.49C191.589 171.958 190.376 172.241 190.376 172.241L185.55 174.25C185.55 174.25 160.206 156.549 159.802 149.31C159.397 142.064 161.811 136.436 158.191 130.397C155.181 125.378 154.937 116.874 160.046 112.773C161.073 111.945 162.318 111.297 163.8 110.893C172.65 108.48 174.069 101.844 174.069 97.4155C174.069 92.9872 179.338 83.8547 188.188 85.8635C197.038 87.8723 209.29 84.535 211.703 80.1067C214.116 75.6849 232.22 66.8347 242.277 80.1067C252.334 93.3851 243.079 105.053 247.508 111.894C251.936 118.729 258.373 128.388 249.516 135.229Z" fill="#373075"/>
<path d="M237.45 123.157C237.45 123.157 236.243 153.734 235.438 158.561C234.633 163.389 226.989 174.252 226.989 174.252V185.919C226.989 185.919 222.564 192.357 206.873 191.954C205.216 191.91 203.651 191.801 202.174 191.636C189.654 190.264 183.539 185.115 183.539 185.115V167.815L179.113 154.136C179.113 154.136 169.86 147.699 169.055 140.457C168.25 133.215 174.687 129.594 178.711 134.02C182.734 138.445 183.539 143.273 183.539 143.273C183.539 143.273 190.78 129.192 190.378 127.18C189.976 125.169 188.769 119.938 188.769 119.938C188.769 119.938 199.229 122.352 204.862 118.329C210.494 114.306 216.127 110.283 222.161 115.111C228.196 119.938 235.036 123.157 237.45 123.157Z" fill="#F69D80"/>
<path d="M226.989 174.252V185.919C226.989 185.919 222.564 192.356 206.873 191.954C205.216 191.91 203.651 191.801 202.174 191.636C196.027 185.935 193.194 177.873 193.194 177.873C193.194 177.873 193.194 177.873 196.815 180.287C200.436 182.701 213.31 185.517 216.931 184.712C220.552 183.908 226.989 174.252 226.989 174.252Z" fill="#CE7961"/>
<path d="M180.32 146.09C180.32 146.09 179.515 140.055 177.101 137.641C174.687 135.227 172.273 136.032 172.273 139.25C172.273 139.25 176.297 135.629 180.32 146.09Z" fill="#CE7961"/>
<path d="M427.361 146.076C427.23 130.525 414.589 117.958 399.007 117.958C395.253 117.958 391.672 118.694 388.392 120.019C382.823 108.627 371.125 100.778 357.59 100.778C341.222 100.778 327.543 112.257 324.142 127.602C308.748 128.592 296.567 141.384 296.567 157.028C296.567 173.317 309.772 186.522 326.062 186.522H419.915C431.463 186.522 440.824 177.162 440.824 165.614C440.824 156.691 435.231 149.077 427.361 146.076Z" fill="#CEE0F2"/>
<path d="M405.082 149.159C404.998 139.794 396.835 132.227 386.773 132.227C384.348 132.227 382.036 132.67 379.918 133.468C376.322 126.608 368.768 121.882 360.027 121.882C349.457 121.882 340.624 128.794 338.428 138.034C328.487 138.63 320.621 146.333 320.621 155.753C320.621 165.563 329.149 173.514 339.668 173.514H400.274C407.731 173.514 413.776 167.877 413.776 160.924C413.776 155.55 410.164 150.966 405.082 149.159Z" fill="white"/>
<path d="M425.751 394.308C425.621 378.758 412.979 366.19 397.398 366.19C393.643 366.19 390.063 366.927 386.783 368.252C381.214 356.859 369.516 349.011 355.981 349.011C339.613 349.011 325.934 360.49 322.533 375.834C307.139 376.824 294.958 389.616 294.958 405.26C294.958 421.55 308.163 434.755 324.453 434.755H418.306C429.853 434.755 439.214 425.394 439.214 413.847C439.214 404.923 433.621 397.309 425.751 394.308Z" fill="#CEE0F2"/>
<path d="M403.473 397.391C403.389 388.027 395.225 380.459 385.163 380.459C382.739 380.459 380.427 380.903 378.309 381.701C374.713 374.84 367.158 370.114 358.418 370.114C347.848 370.114 339.015 377.026 336.819 386.266C326.878 386.863 319.012 394.566 319.012 403.986C319.012 413.795 327.539 421.747 338.058 421.747H398.665C406.122 421.747 412.167 416.11 412.167 409.156C412.167 403.783 408.555 399.198 403.473 397.391Z" fill="white"/>
<path d="M134.872 166.595C134.742 151.044 122.1 138.476 106.519 138.476C102.764 138.476 99.1836 139.213 95.9039 140.538C90.3351 129.146 78.6367 121.297 65.1019 121.297C48.7337 121.297 35.0547 132.776 31.6536 148.12C16.2598 149.11 4.07861 161.902 4.07861 177.546C4.07861 193.836 17.284 207.041 33.5736 207.041H127.427C138.974 207.041 148.335 197.68 148.335 186.133C148.335 177.209 142.742 169.596 134.872 166.595Z" fill="#CEE0F2"/>
<path d="M112.594 169.677C112.51 160.313 104.346 152.745 94.2845 152.745C91.86 152.745 89.5476 153.189 87.4298 153.987C83.8336 147.127 76.2793 142.4 67.5391 142.4C56.9692 142.4 48.1359 149.313 45.9396 158.552C35.9989 159.149 28.1328 166.852 28.1328 176.272C28.1328 186.081 36.6603 194.033 47.1795 194.033H107.786C115.243 194.033 121.288 188.396 121.288 181.443C121.288 176.069 117.676 171.484 112.594 169.677Z" fill="white"/>
<path d="M213.765 265.09L213.621 264.968L214.451 263.989L214.595 264.111L213.765 265.09ZM211.171 262.896L208.722 260.823L209.551 259.843L212.001 261.916L211.171 262.896ZM206.272 258.75L203.823 256.677L204.652 255.697L207.101 257.77L206.272 258.75ZM201.373 254.604L198.923 252.532L199.753 251.552L202.202 253.625L201.373 254.604ZM196.474 250.459L194.024 248.386L194.853 247.407L197.303 249.479L196.474 250.459ZM191.575 246.313L189.125 244.241L189.954 243.261L192.404 245.334L191.575 246.313ZM186.675 242.168L184.226 240.095L185.055 239.116L187.505 241.188L186.675 242.168ZM181.776 238.022L179.327 235.95L180.156 234.97L182.605 237.043L181.776 238.022ZM176.877 233.877L174.427 231.804L175.256 230.824L177.706 232.897L176.877 233.877ZM171.977 229.731L169.528 227.658L170.357 226.679L172.807 228.752L171.977 229.731ZM167.078 225.586L164.629 223.513L165.458 222.533L167.907 224.606L167.078 225.586ZM162.179 221.44L159.729 219.367L160.559 218.388L163.008 220.461L162.179 221.44ZM157.28 217.295L154.83 215.222L155.659 214.242L158.109 216.315L157.28 217.295ZM152.381 213.149L149.931 211.077L150.76 210.097L153.21 212.17L152.381 213.149ZM147.481 209.004L145.031 206.931L145.861 205.951L148.31 208.024L147.481 209.004ZM142.582 204.858L140.132 202.785L140.961 201.806L143.411 203.878L142.582 204.858ZM137.683 200.712L135.233 198.64L136.062 197.66L138.512 199.733L137.683 200.712ZM132.783 196.567L130.334 194.494L131.163 193.515L133.613 195.587L132.783 196.567Z" fill="#3F3C80"/>
<path d="M277.386 258.008L276.31 257.31L278.055 254.617L279.132 255.315L277.386 258.008ZM280.877 252.623L279.8 251.924L281.545 249.231L282.622 249.929L280.877 252.623ZM284.367 247.237L283.29 246.538L285.035 243.845L286.112 244.544L284.367 247.237ZM287.857 241.851L286.78 241.153L288.525 238.459L289.602 239.158L287.857 241.851ZM291.347 236.465L290.27 235.767L292.015 233.074L293.092 233.772L291.347 236.465ZM294.837 231.079L293.76 230.381L295.505 227.688L296.582 228.386L294.837 231.079ZM298.327 225.693L297.25 224.995L298.995 222.302L300.072 223L298.327 225.693ZM301.817 220.307L300.741 219.609L302.485 216.916L303.562 217.614L301.817 220.307ZM305.307 214.921L304.23 214.223L305.975 211.53L307.052 212.228L305.307 214.921ZM308.797 209.536L307.721 208.837L309.465 206.144L310.542 206.842L308.797 209.536ZM312.287 204.15L311.21 203.451L312.956 200.758L314.032 201.457L312.287 204.15ZM315.777 198.764L314.701 198.066L316.445 195.372L317.522 196.071L315.777 198.764ZM319.268 193.378L318.191 192.68L319.936 189.987L321.012 190.685L319.268 193.378ZM322.757 187.992L321.681 187.294L323.425 184.601L324.502 185.299L322.757 187.992ZM326.248 182.606L325.171 181.908L326.916 179.215L327.992 179.913L326.248 182.606Z" fill="#3F3C80"/>
<path d="M314.639 385.738L313.826 382.633L315.069 382.309L315.881 385.413L314.639 385.738ZM313.013 379.53L312.2 376.426L313.442 376.1L314.256 379.204L313.013 379.53ZM311.387 373.321L310.574 370.216L311.816 369.892L312.629 372.996L311.387 373.321ZM309.761 367.112L308.948 364.008L310.191 363.683L311.004 366.788L309.761 367.112ZM308.135 360.904L307.322 357.8L308.564 357.475L309.377 360.579L308.135 360.904ZM306.509 354.696L305.696 351.592L306.938 351.267L307.751 354.371L306.509 354.696ZM304.883 348.488L304.07 345.384L305.312 345.058L306.126 348.162L304.883 348.488ZM303.257 342.279L302.444 339.175L303.686 338.85L304.499 341.954L303.257 342.279ZM301.631 336.07L300.818 332.966L302.061 332.642L302.873 335.746L301.631 336.07Z" fill="#3F3C80"/>
<path d="M168.873 443.656C185.92 443.656 199.74 429.836 199.74 412.789C199.74 395.741 185.92 381.922 168.873 381.922C151.825 381.922 138.006 395.741 138.006 412.789C138.006 429.836 151.825 443.656 168.873 443.656Z" fill="#1251C3"/>
<path d="M166.888 434.165C166.574 433.961 166.405 433.667 166.273 433.318C161.725 421.295 157.17 409.274 152.614 397.254C152.456 396.838 152.274 396.42 152.673 396.043C153.087 395.653 153.499 395.871 153.913 396.073C164.81 401.385 175.709 406.695 186.608 412.005C186.686 412.043 186.764 412.083 186.841 412.123C187.186 412.299 187.384 412.569 187.326 412.966C187.269 413.363 186.999 413.566 186.622 413.639C185.84 413.793 185.056 413.942 184.273 414.093C180.003 414.918 175.733 415.745 171.462 416.562C171.225 416.607 171.175 416.729 171.136 416.933C170.223 421.643 169.304 426.352 168.387 431.061C168.234 431.844 168.076 432.626 167.935 433.41C167.869 433.777 167.654 434.006 167.337 434.165C167.188 434.165 167.038 434.165 166.888 434.165ZM184.101 412.525C174.886 408.036 165.779 403.6 156.672 399.164C156.865 399.512 157.108 399.789 157.354 400.064C161.756 404.981 166.16 409.897 170.559 414.817C170.718 414.995 170.858 415.101 171.129 415.048C174.858 414.318 178.59 413.602 182.322 412.881C182.878 412.773 183.433 412.659 184.101 412.525ZM155.556 400.401C155.536 400.413 155.515 400.424 155.495 400.435C159.277 410.416 163.058 420.398 166.879 430.484C166.929 430.307 166.952 430.242 166.965 430.175C167.842 425.662 168.715 421.148 169.604 416.638C169.67 416.306 169.609 416.09 169.387 415.842C165.419 411.424 161.461 406.997 157.501 402.572C156.853 401.848 156.204 401.125 155.556 400.401Z" fill="white"/>
<path d="M361.468 454.887H359.222V452.962H359.543V451.999H361.468V454.887ZM356.013 454.887H352.804V452.962H356.013V454.887ZM349.596 454.887H346.387V452.962H349.596V454.887ZM343.178 454.887H339.969V452.962H343.178V454.887ZM336.76 454.887H333.551V452.962H336.76V454.887ZM330.342 454.887H327.133V452.962H330.342V454.887ZM323.924 454.887H320.715V452.962H323.924V454.887ZM317.506 454.887H314.298V452.962H317.506V454.887ZM311.089 454.887H307.88V452.962H311.089V454.887ZM304.671 454.887H301.462V452.962H304.671V454.887ZM298.253 454.887H295.044V452.962H298.253V454.887ZM291.835 454.887H288.626V452.962H291.835V454.887ZM285.417 454.887H282.209V452.962H285.417V454.887ZM279 454.887H275.791V452.962H279V454.887ZM272.582 454.887H269.373V452.962H272.582V454.887ZM266.164 454.887H262.955V452.962H266.164V454.887ZM259.746 454.887H256.537V452.962H259.746V454.887ZM253.328 454.887H250.119V452.962H253.328V454.887ZM246.911 454.887H243.702V452.962H246.911V454.887ZM240.493 454.887H237.284V452.962H240.493V454.887ZM234.075 454.887H230.866V452.962H234.075V454.887ZM227.657 454.887H224.448V452.962H227.657V454.887ZM221.239 454.887H218.03V452.962H221.239V454.887ZM214.822 454.887H211.613V452.962H214.822V454.887ZM208.404 454.887H205.195V452.962H208.404V454.887ZM201.986 454.887H198.777V452.962H201.986V454.887ZM195.568 454.887H192.359V452.962H195.568V454.887ZM189.15 454.887H185.941V452.962H189.15V454.887ZM182.733 454.887H179.524V452.962H182.733V454.887ZM178.561 452.641H176.636V449.432H178.561V452.641ZM361.468 448.79H359.543V445.581H361.468V448.79ZM178.561 446.223H176.636V443.014H178.561V446.223ZM361.468 442.373H359.543V439.164H361.468V442.373ZM178.561 439.805H176.636V436.597H178.561V439.805ZM361.468 435.955H359.543V432.746H361.468V435.955ZM178.561 433.388H176.636V430.179H178.561V433.388Z" fill="#FDBB61"/>
<path d="M54.0556 293.675C73.9045 293.675 89.9953 277.585 89.9953 257.736C89.9953 237.887 73.9045 221.796 54.0556 221.796C34.2066 221.796 18.1158 237.887 18.1158 257.736C18.1158 277.585 34.2066 293.675 54.0556 293.675Z" fill="#FD835A"/>
<path d="M52.8354 266.897C53.6049 267.775 54.5067 267.775 55.2764 266.896C58.5234 263.19 61.7638 259.478 65.0118 255.773C65.4604 255.261 65.6887 254.707 65.3877 254.054C65.0887 253.406 64.5279 253.2 63.8429 253.205C62.1854 253.217 60.5278 253.209 58.8702 253.209C58.7112 253.209 58.5521 253.209 58.358 253.209C58.358 252.981 58.358 252.805 58.358 252.629C58.358 246.761 58.3464 240.892 58.3705 235.023C58.3741 234.135 58.1212 233.489 57.2824 233.131C55.1312 233.131 52.98 233.131 50.8288 233.131C49.9901 233.489 49.7372 234.135 49.7408 235.023C49.7649 240.907 49.7532 246.79 49.7532 252.674C49.7532 252.846 49.7532 253.018 49.7532 253.209C47.88 253.209 46.0741 253.216 44.2683 253.205C43.5832 253.201 43.0225 253.408 42.7234 254.055C42.4221 254.707 42.6516 255.262 43.1 255.773C46.3481 259.479 49.5884 263.191 52.8354 266.897Z" fill="white"/>
<path d="M69.8061 264.682C69.8061 267.588 69.8061 270.431 69.8061 273.264C59.279 273.264 48.8004 273.264 38.2734 273.264C38.2734 270.399 38.2734 267.556 38.2734 264.682C36.3313 264.682 34.4374 264.682 32.5436 264.682C32.5436 268.655 32.5436 272.629 32.5436 276.603C32.8024 277.53 33.2661 278.303 34.1734 278.729C34.4271 278.848 34.6997 278.926 34.9637 279.023C47.6916 279.023 60.4195 279.023 73.1475 279.023C74.0791 278.766 74.8511 278.295 75.278 277.386C75.3959 277.135 75.4722 276.865 75.5676 276.603C75.5676 272.629 75.5676 268.655 75.5676 264.682C73.663 264.682 71.7584 264.682 69.8061 264.682Z" fill="white"/>
<path d="M98.6694 254.614H95.4605V252.689H98.6694V254.614ZM92.2516 254.614H89.0426V252.689H92.2516V254.614ZM85.8337 254.614H82.6248V252.689H85.8337V254.614ZM79.4159 254.614H76.207V252.689H79.4159V254.614ZM100.906 251.716H98.9802V248.507H100.906V251.716ZM100.906 245.298H98.9802V242.089H100.906V245.298ZM100.906 238.88H98.9802V235.672H100.906V238.88ZM100.906 232.463H98.9802V229.254H100.906V232.463ZM100.906 226.045H98.9802V222.836H100.906V226.045ZM100.906 219.627H98.9802V216.418H100.906V219.627ZM100.906 213.209H98.9802V210H100.906V213.209ZM100.906 206.791H98.9802V203.583H100.906V206.791ZM100.906 200.374H98.9802V199.138H100.906V200.374Z" fill="#FDBB61"/>
<path d="M292.615 106.155C310.946 106.155 325.806 91.2943 325.806 72.9631C325.806 54.6319 310.946 39.7715 292.615 39.7715C274.284 39.7715 259.423 54.6319 259.423 72.9631C259.423 91.2943 274.284 106.155 292.615 106.155Z" fill="#FDBB61"/>
<path d="M309.443 62.6437C309.443 70.8376 309.443 79.0315 309.443 87.2255C309.426 87.2655 309.403 87.304 309.393 87.3457C309.014 88.9248 307.927 89.7884 306.309 89.7885C297.186 89.7892 288.062 89.789 278.939 89.7876C278.742 89.7876 278.542 89.7878 278.349 89.7563C276.79 89.5018 275.792 88.313 275.792 86.706C275.79 79.8058 275.791 72.9056 275.791 66.0054C275.791 63.7163 275.779 61.4271 275.796 59.1381C275.805 57.8565 276.415 56.9301 277.579 56.3874C277.823 56.2735 278.095 56.2187 278.354 56.1367C280.655 56.1367 282.955 56.1367 285.255 56.1367C285.306 56.1551 285.355 56.1823 285.407 56.1907C287.253 56.4874 288.539 57.5076 289.289 59.2092C289.41 59.4848 289.483 59.7816 289.583 60.0803C289.715 60.0803 289.834 60.0803 289.954 60.0803C291.958 60.0803 293.961 60.0803 295.965 60.0803C299.447 60.0803 302.928 60.0744 306.41 60.0835C307.721 60.0869 308.66 60.7058 309.206 61.8973C309.314 62.1327 309.366 62.3942 309.443 62.6437ZM277.763 69.9529C277.763 70.0657 277.763 70.1417 277.763 70.2176C277.763 75.7154 277.762 81.2131 277.763 86.7109C277.763 87.4373 278.164 87.8168 278.923 87.8168C288.046 87.8171 297.169 87.8171 306.292 87.8168C307.101 87.8168 307.471 87.4445 307.471 86.6308C307.471 81.1878 307.471 75.7448 307.471 70.3018C307.471 70.1864 307.471 70.071 307.471 69.9529C297.549 69.9529 287.674 69.9529 277.763 69.9529ZM307.471 67.9551C307.471 66.3555 307.472 64.7907 307.471 63.2258C307.471 62.4182 307.099 62.0524 306.28 62.0522C304.32 62.0519 302.36 62.0521 300.4 62.0521C296.534 62.0521 292.669 62.0526 288.803 62.0516C288.136 62.0514 287.721 61.6815 287.687 61.0658C287.588 59.2758 286.366 58.1108 284.58 58.109C282.696 58.107 280.813 58.1081 278.929 58.1087C278.138 58.1089 277.763 58.4835 277.763 59.2734C277.762 62.0548 277.763 64.8362 277.763 67.6177C277.763 67.724 277.763 67.8304 277.763 67.9471C278.434 67.9471 279.073 67.9471 279.734 67.9471C279.734 67.02 279.734 66.113 279.735 65.2061C279.735 64.393 280.104 64.0241 280.916 64.0241C284.07 64.0237 287.224 64.0239 290.378 64.0239C295.021 64.0239 299.664 64.0238 304.307 64.024C305.138 64.0241 305.499 64.3886 305.499 65.2286C305.5 66.039 305.499 66.8493 305.5 67.6596C305.5 67.7545 305.511 67.8494 305.517 67.9551C306.169 67.9551 306.8 67.9551 307.471 67.9551ZM303.511 66.0175C296.234 66.0175 288.98 66.0175 281.732 66.0175C281.732 66.6783 281.732 67.317 281.732 67.9516C289.004 67.9516 296.25 67.9516 303.511 67.9516C303.511 67.305 303.511 66.6742 303.511 66.0175Z" fill="white"/>
<path d="M293.603 78.4707C294.378 77.6949 295.089 76.9849 295.798 76.2729C296.071 75.9986 296.389 75.8574 296.777 75.9496C297.486 76.1181 297.773 76.9197 297.339 77.5055C297.281 77.5841 297.21 77.6541 297.14 77.7237C295.909 78.9554 294.679 80.1873 293.447 81.4171C292.886 81.9767 292.351 81.978 291.796 81.4235C290.54 80.1701 289.283 78.9186 288.034 77.659C287.437 77.0566 287.66 76.1495 288.446 75.9525C288.833 75.8554 289.155 75.9911 289.428 76.2657C290.138 76.9802 290.847 77.6952 291.631 78.4855C291.631 78.2804 291.631 78.1688 291.631 78.0573C291.631 76.3709 291.63 74.6846 291.632 72.9983C291.632 72.591 291.81 72.2812 292.172 72.0906C292.513 71.9113 292.851 71.9399 293.167 72.1526C293.483 72.3662 293.605 72.6785 293.604 73.0554C293.601 74.7088 293.603 76.3623 293.603 78.0158C293.603 78.1347 293.603 78.2535 293.603 78.4707Z" fill="white"/>
<path d="M287.687 83.796C290.988 83.796 294.247 83.796 297.547 83.796C297.547 83.4828 297.543 83.1801 297.547 82.8775C297.556 82.2715 297.977 81.8321 298.54 81.837C299.091 81.8417 299.51 82.2744 299.516 82.8611C299.524 83.4961 299.525 84.1313 299.516 84.7662C299.508 85.3622 299.094 85.7768 298.495 85.7774C294.576 85.7813 290.656 85.7813 286.736 85.7773C286.138 85.7767 285.725 85.3599 285.718 84.7641C285.71 84.1291 285.711 83.494 285.717 82.859C285.724 82.2737 286.145 81.8405 286.695 81.837C287.246 81.8334 287.673 82.2645 287.686 82.8468C287.693 83.1519 287.687 83.4573 287.687 83.796Z" fill="white"/>
<path d="M291.194 97.416H289.268V99.0205H291.194V97.416Z" fill="#FDBB61"/>
<path d="M291.194 144.544H289.268V141.293H291.194V144.544ZM291.194 138.041H289.268V134.789H291.194V138.041ZM291.194 131.538H289.268V128.286H291.194V131.538ZM291.194 125.034H289.268V121.783H291.194V125.034ZM291.194 118.531H289.268V115.279H291.194V118.531ZM291.194 112.028H289.268V108.776H291.194V112.028ZM291.194 105.524H289.268V102.272H291.194V105.524Z" fill="#FDBB61"/>
<path d="M291.835 150.363H289.268V147.796H291.194V148.438H291.835V150.363Z" fill="#FDBB61"/>
<path d="M306.725 150.363H303.002V148.438H306.725V150.363ZM299.28 150.363H295.557V148.438H299.28V150.363Z" fill="#FDBB61"/>
<path d="M312.051 148.438H310.447V150.363H312.051V148.438Z" fill="#FDBB61"/>
<path d="M455.227 295.091C478.114 295.091 496.667 276.538 496.667 253.652C496.667 230.766 478.114 212.213 455.227 212.213C432.341 212.213 413.788 230.766 413.788 253.652C413.788 276.538 432.341 295.091 455.227 295.091Z" fill="#EE5763"/>
<path d="M479.476 234.998C479.476 247.434 479.476 259.87 479.476 272.305C479.065 273.506 478.157 274.225 477.079 274.779C476.897 274.872 476.713 274.964 476.527 275.048C474.877 275.789 473.135 276.224 471.369 276.563C466.58 277.481 461.732 277.77 456.872 277.873C453.098 277.954 449.332 277.78 445.573 277.437C442.46 277.153 439.367 276.757 436.351 275.905C434.922 275.502 433.524 275.01 432.317 274.103C431.431 273.437 430.98 272.591 430.982 271.435C431.003 259.599 431.006 247.764 430.979 235.928C430.976 234.689 431.458 233.804 432.42 233.129C432.844 232.832 433.297 232.566 433.765 232.346C435.796 231.393 437.967 230.925 440.161 230.548C443.305 230.007 446.477 229.732 449.662 229.574C450.542 229.531 451.421 229.466 452.3 229.411C454.257 229.411 456.214 229.411 458.171 229.411C458.483 229.44 458.795 229.484 459.107 229.496C462.876 229.634 466.631 229.915 470.352 230.551C472.482 230.915 474.59 231.377 476.572 232.274C477.844 232.85 478.989 233.577 479.476 234.998ZM434.025 263.068C434.025 265.747 434.044 268.429 434.009 271.109C434.002 271.627 434.182 271.928 434.617 272.087C435.65 272.464 436.674 272.89 437.737 273.157C442.008 274.229 446.375 274.587 450.759 274.77C454.845 274.94 458.927 274.879 463.006 274.585C466.044 274.366 469.07 274.041 472.033 273.325C473.312 273.016 474.551 272.537 475.801 272.113C476.276 271.952 476.47 271.627 476.462 271.074C476.426 268.566 476.446 266.058 476.446 263.549C476.446 263.382 476.446 263.214 476.446 263.005C476.319 263.043 476.248 263.066 476.176 263.086C474.572 263.54 472.989 264.097 471.36 264.426C466.583 265.392 461.731 265.649 456.872 265.753C453.101 265.834 449.336 265.658 445.578 265.318C442.954 265.08 440.342 264.765 437.778 264.149C436.529 263.849 435.306 263.441 434.025 263.068ZM434.025 238.828C434.025 238.949 434.025 239.075 434.025 239.2C434.025 241.771 434.041 244.343 434.012 246.914C434.006 247.389 434.172 247.675 434.574 247.822C435.621 248.205 436.658 248.643 437.735 248.914C441.99 249.987 446.342 250.343 450.71 250.528C454.811 250.701 458.909 250.64 463.004 250.344C466.042 250.125 469.068 249.8 472.031 249.085C473.31 248.776 474.55 248.299 475.8 247.875C476.273 247.714 476.47 247.391 476.462 246.836C476.425 244.328 476.446 241.82 476.446 239.311C476.446 239.143 476.446 238.975 476.446 238.767C476.322 238.803 476.25 238.824 476.178 238.845C474.574 239.298 472.991 239.856 471.362 240.186C466.586 241.151 461.733 241.409 456.874 241.513C453.103 241.593 449.338 241.418 445.58 241.078C442.956 240.84 440.344 240.525 437.78 239.909C436.531 239.609 435.307 239.201 434.025 238.828ZM476.446 250.986C474.877 251.41 473.377 251.895 471.842 252.216C466.914 253.245 461.907 253.518 456.891 253.634C452.945 253.724 449.006 253.531 445.078 253.159C442.22 252.89 439.378 252.504 436.604 251.737C435.746 251.499 434.907 251.191 434.025 250.904C434.025 251.102 434.025 251.274 434.025 251.446C434.025 253.97 434.042 256.494 434.011 259.018C434.005 259.512 434.177 259.806 434.6 259.959C435.634 260.334 436.657 260.764 437.719 261.032C441.927 262.094 446.231 262.455 450.552 262.643C454.684 262.822 458.814 262.766 462.941 262.469C466.152 262.237 469.349 261.887 472.475 261.102C473.659 260.805 474.797 260.324 475.95 259.91C476.328 259.775 476.462 259.497 476.458 259.067C476.434 256.511 476.446 253.956 476.446 251.4C476.446 251.244 476.446 251.088 476.446 250.986ZM476.225 235.588C476.218 235.535 476.21 235.481 476.203 235.427C476.004 235.314 475.816 235.171 475.604 235.093C474.791 234.797 473.985 234.466 473.151 234.247C468.872 233.124 464.491 232.733 460.09 232.547C454.311 232.303 448.543 232.433 442.801 233.198C440.424 233.514 438.064 233.921 435.791 234.716C435.268 234.899 434.77 235.156 434.138 235.433C434.416 235.599 434.55 235.708 434.703 235.764C435.573 236.085 436.431 236.458 437.325 236.693C441.603 237.819 445.986 238.2 450.386 238.395C455.674 238.628 460.956 238.518 466.221 237.929C468.886 237.631 471.536 237.228 474.103 236.419C474.826 236.191 475.518 235.868 476.225 235.588Z" fill="white"/>
<path d="M441.086 271.83C439.986 271.826 439.074 270.914 439.071 269.814C439.068 268.72 439.981 267.798 441.081 267.786C442.194 267.774 443.124 268.71 443.114 269.832C443.104 270.937 442.193 271.835 441.086 271.83Z" fill="white"/>
<path d="M443.114 245.554C443.123 246.661 442.228 247.576 441.124 247.589C440.002 247.604 439.067 246.681 439.071 245.564C439.075 244.468 439.994 243.55 441.09 243.546C442.187 243.541 443.106 244.453 443.114 245.554Z" fill="white"/>
<path d="M443.114 257.671C443.124 258.779 442.231 259.694 441.127 259.71C440.004 259.725 439.069 258.805 439.071 257.687C439.073 256.592 439.99 255.673 441.087 255.666C442.183 255.659 443.105 256.571 443.114 257.671Z" fill="white"/>
<path d="M421.475 252.085H418.266V250.16H421.475V252.085ZM415.057 252.085H411.848V250.16H415.057V252.085ZM408.639 252.085H405.43V250.16H408.639V252.085ZM403.184 251.122H401.259V247.913H403.184V251.122ZM403.184 244.705H401.259V241.496H403.184V244.705ZM403.184 238.287H401.259V235.078H403.184V238.287ZM403.184 231.869H401.259V228.66H403.184V231.869ZM403.184 225.451H401.259V222.242H403.184V225.451ZM403.184 219.033H401.259V215.824H403.184V219.033ZM403.184 212.615H401.259V209.407H403.184V212.615ZM403.184 206.198H401.259V202.989H403.184V206.198ZM403.184 199.78H401.259V196.571H403.184V199.78ZM403.184 193.362H401.259V190.153H403.184V193.362ZM403.184 186.944H401.259V183.735H403.184V186.944Z" fill="#FDBB61"/>
</svg>
