<svg width="150" height="100" fill="none" xmlns="http://www.w3.org/2000/svg"><path d="M118.594 50c0 24.047-19.547 43.594-43.594 43.594S31.406 74.047 31.406 50 50.953 6.406 75 6.406 118.594 25.953 118.594 50z" fill="#1A1918"/><path d="M75.703 33.055l11.25 27.843-16.945-13.43 5.695-14.413zm20.04 34.242L78.444 25.53c-.492-1.195-1.476-1.828-2.672-1.828-1.195 0-2.25.633-2.742 1.828L53.906 71.305h6.54l7.523-18.844 22.5 18.21c.914.704 1.547 1.056 2.39 1.056 1.688 0 3.164-1.266 3.164-3.094.07-.352-.07-.844-.28-1.336z" fill="#fff"/></svg>