<svg xmlns="http://www.w3.org/2000/svg" xmlns:xlink="http://www.w3.org/1999/xlink" viewBox="0 0 66.959 65.959" fill="#fff" fill-rule="evenodd" stroke="#000" stroke-linecap="round" stroke-linejoin="round"><use xlink:href="#a" x=".479" y=".479"/><symbol id="a" overflow="visible"><path d="M53.375 57.902c-2.326-1.246-3.655-2.632-3.949-4.146-.284-1.466.371-3.098 2.001-4.988a24.61 24.61 0 006.045-16.179c0-13.594-11.061-24.655-24.654-24.655h-.22c-13.595 0-24.652 11.061-24.652 24.655a24.613 24.613 0 006.046 16.18c1.644 1.903 2.281 3.468 2.009 4.921-.283 1.512-1.614 2.927-3.96 4.21-3.598-3-6.779-7.004-8.741-11.022a33.14 33.14 0 01-2.436-6.844A32.69 32.69 0 010 32.591a32.428 32.428 0 012.559-12.687A32.48 32.48 0 019.554 9.546a32.42 32.42 0 0110.357-6.983A32.355 32.355 0 0132.598 0h.22a32.378 32.378 0 0112.688 2.562 32.51 32.51 0 0110.357 6.982 32.5 32.5 0 016.984 10.357 32.413 32.413 0 012.562 12.687 32.76 32.76 0 01-.855 7.443 32.34 32.34 0 01-2.437 6.843c-1.962 4.02-5.141 8.025-8.744 11.025M41.349 64c-.379-.24-1.672-1.201-2.933-2.948-1.21-1.67-2.634-4.44-2.559-8.149a17.878 17.878 0 011.342-6.46 18.4 18.4 0 013.546-5.54l.01-.012.335-.388c.575-.666 1.167-1.353 1.641-2.159.573-.962.997-2.004 1.26-3.092.389-1.655.41-3.375.063-5.039a11.408 11.408 0 00-1.869-4.263 11.61 11.61 0 00-3.295-3.104 11.5 11.5 0 00-4.434-1.615 11.34 11.34 0 00-1.623-.115H32.6a11.43 11.43 0 00-1.621.115 11.49 11.49 0 00-4.434 1.615 11.63 11.63 0 00-3.297 3.104 11.581 11.581 0 00-1.869 4.263 11.623 11.623 0 00.065 5.039 11.31 11.31 0 001.258 3.092c.475.805 1.068 1.492 1.642 2.159l.337.388.007.012a18.305 18.305 0 013.549 5.54 18.14 18.14 0 011.342 6.46c.077 3.709-1.349 6.479-2.557 8.149-1.265 1.747-2.556 2.71-2.936 2.948l-1.888-.568a32.594 32.594 0 01-5.43-2.393 9.27 9.27 0 004.873-8.143c0-2.257-.877-4.421-2.607-6.422-.026-.031-.053-.056-.072-.077l-.518-.567-1.388-1.626a19.46 19.46 0 01-3.325-7.106 19.58 19.58 0 01-.107-8.513 19.52 19.52 0 013.164-7.224 19.62 19.62 0 015.566-5.242 19.5 19.5 0 017.514-2.737c.906-.129 1.82-.193 2.735-.192h.245a19.26 19.26 0 012.736.192 19.509 19.509 0 017.515 2.737 19.62 19.62 0 015.567 5.243 19.597 19.597 0 013.166 7.224 19.65 19.65 0 01-.108 8.513 19.46 19.46 0 01-3.328 7.106c-.422.575-.891 1.08-1.39 1.626l-.501.553-.015.013c-.019.019-.048.046-.072.08-1.754 2.109-2.607 4.201-2.607 6.427 0 3.41 1.894 6.54 4.877 8.143a32.54 32.54 0 01-5.431 2.393l-1.891.568m-8.658-24.675c-3.546 0-6.434-2.887-6.434-6.434s2.887-6.435 6.434-6.435 6.433 2.887 6.433 6.435-2.882 6.43-6.433 6.434" stroke="none" fill="#f0424d" fill-rule="nonzero"/></symbol></svg>