<svg width="173" height="74" fill="none" xmlns="http://www.w3.org/2000/svg"><g clip-path="url(#clip0_219_2127)"><path d="M88.567 41.589c-.848-.585-2.19-1.55-3.488-2.484a244.3 244.3 0 00-3.096-2.207l-.1-.067c-1.58-1.054-2.056-1.373-2.056-3.288v-5.711c0-.993.628-2.1 1.53-2.1h7.29c.572 0 1.036-.465 1.036-1.039V23.15c0-.573-.464-1.038-1.036-1.038h-7.29c-3.147 0-5.707 2.566-5.707 5.72v6.226c0 2.43 1.087 4.194 3.634 5.9a325.672 325.672 0 016.238 4.51c1.622 1.181 2.09 1.588 2.09 3.07v7.255c0 .993-.63 2.1-1.532 2.1h-9.343c-.572 0-1.036.465-1.036 1.038v1.544c0 .573.464 1.038 1.036 1.038h9.343c3.148 0 5.708-2.566 5.708-5.72v-7.255c0-1.206 0-3.714-3.221-5.95zm21.025-19.632h-5.185c-3.093 0-5.707 2.691-5.707 5.875v26.807c0 3.184 2.614 5.874 5.707 5.874h5.185c3.094 0 5.708-2.69 5.708-5.874V27.832c0-3.184-2.614-5.875-5.708-5.875zm1.582 32.682c0 1.02-.705 2.254-1.582 2.254h-5.185c-.863 0-1.531-1.212-1.531-2.254V27.832c0-1.043.668-2.254 1.531-2.254h5.185c.877 0 1.582 1.233 1.582 2.254v26.807zm27.371-32.527h-2.053c-.572 0-1.036.465-1.036 1.038v26.64l-6.738-26.893a1.037 1.037 0 00-1.005-.785h-3.696c-.572 0-1.036.465-1.036 1.038v36.325c0 .573.464 1.038 1.036 1.038h2.105c.572 0 1.036-.465 1.036-1.038v-25.67l6.222 25.913c.112.466.528.795 1.007.795h4.158c.572 0 1.036-.465 1.036-1.038V23.15c0-.573-.464-1.038-1.036-1.038zm11.499 3.035h-2.105c-.572 0-1.036.465-1.036 1.039v4.167c0 .574.464 1.038 1.036 1.038h2.105c.572 0 1.036-.464 1.036-1.038v-4.168c0-.573-.464-1.038-1.036-1.038zm0 7.358h-2.105c-.572 0-1.036.465-1.036 1.038v25.932c0 .573.464 1.038 1.036 1.038h2.105c.572 0 1.036-.465 1.036-1.038V33.543c0-.573-.464-1.038-1.036-1.038zm21.92-10.393h-7.803c-3.147 0-5.708 2.566-5.708 5.72v26.96c0 3.155 2.561 5.721 5.708 5.721h7.29c.572 0 1.036-.465 1.036-1.038V57.93c0-.573-.464-1.038-1.036-1.038h-7.29c-.902 0-1.531-1.107-1.531-2.1v-26.96c0-.993.629-2.1 1.531-2.1h7.803c.572 0 1.036-.465 1.036-1.039V23.15c0-.573-.464-1.038-1.036-1.038z" fill="#444649"/><path d="M45.642 31.773s-.458.014-.918-.098a2.584 2.584 0 01-.212-.067c-.005 0-.01-.004-.014-.005a4.577 4.577 0 00-1.166-.17 4.24 4.24 0 00-.47.02 4.227 4.227 0 00-.699.12 4.562 4.562 0 00-.454.14 4.716 4.716 0 00-.652.304L15.542 46.55l-.025.014-2.081 1.186-.004.003c-.51.329-.84.908-.84 1.545 0 .087-.055 1.598-.055 1.598v12.176l-8.534-4.927C1.215 56.552.52 53.659.52 53.659c-.409-1.42-.543-2.912-.513-4.39a22.215 22.215 0 01.13-1.95 18.2 18.2 0 01.58-2.992 8.816 8.816 0 01.226-.699l.012-.033a6.803 6.803 0 01.327-.74 4.933 4.933 0 01.548-.839c.272-.347.633-.646.966-.876l.075-.05c.05-.035.1-.067.149-.1l.028-.017.028.003.586-.335.005-.002 26.49-15.113a4.526 4.526 0 014.504.003l8.774 5.194.589.156h-.026l1.091.59.552.304z" fill="url(#paint0_linear_219_2127)"/><path d="M45.464 6.845s-.459.015-.918-.097a2.615 2.615 0 01-.212-.067l-.015-.005a4.571 4.571 0 00-1.166-.17 4.245 4.245 0 00-.47.019 4.234 4.234 0 00-.698.12 4.567 4.567 0 00-.455.14 4.725 4.725 0 00-.651.305L15.364 21.62l-.001.002-.024.013-2.082 1.186.002.02c-.51.328-.846.89-.846 1.527 0 .388.124.746.335 1.042.11.154-.345.573-.345.573v11.854h-2.222l-6.184-3.583C1.21 32.663.516 29.771.516 29.771.09 28.295-.036 26.74.008 25.204a20.55 20.55 0 01.036-1.902c.088-1.347.295-2.698.668-3.999.068-.239.142-.473.226-.698l.012-.034c.216-.58.49-1.112.877-1.578h-.001c.271-.347.632-.646.966-.876.038-.027.077-.053.116-.078l.79-.43 1.604-.873L29.98.6a4.526 4.526 0 014.503 0l8.808 5.028.555.323h-.024l1.09.589.552.304z" fill="url(#paint1_linear_219_2127)"/><path d="M32.378 36.787v13.382h-.021a3.482 3.482 0 01-1.494-.347c-.009-.006-.02-.01-.029-.015l-.396-.23c-.005-.002-.009-.006-.014-.01L10.18 37.838l-6.184-3.582C1.21 32.663.516 29.771.516 29.771.09 28.295-.036 26.74.008 25.204a20.55 20.55 0 01.036-1.902c.088-1.347.295-2.698.668-3.999.068-.239.142-.473.226-.698l.012-.034c.216-.58.49-1.112.876-1.578.271-.347.632-.646.966-.876.038-.027.077-.054.116-.078.36-.24.67-.39.766-.428.028-.012.037-.012.024-.003l-.014.01a.911.911 0 00-.28.262c-.115.15-.22.306-.311.47a3.015 3.015 0 00-.208.463 2.723 2.723 0 00-.152.883 2.781 2.781 0 00.116.804 3.423 3.423 0 00.283.694 4.299 4.299 0 00.35.556 4.754 4.754 0 00.432.508c.03.03.061.06.096.085.03.023.065.039.097.058l.044.026.109.063.134.078.158.091.18.104.199.116.217.126.233.135.247.143.26.15.269.157.278.161.284.165.289.167.291.17.292.168.29.169.288.167.283.163.275.16.267.155.256.148.243.14.228.133.212.123.193.112.173.1.15.087.127.074.1.058.073.042.042.024.01.007 1.947 1.128 19.63 11.376z" fill="url(#paint2_linear_219_2127)"/><path d="M64.514 19.282a9.31 9.31 0 00-.229-.699l-.012-.033a5.345 5.345 0 00-.08-.202 5.17 5.17 0 00-.808-1.376c-.276-.348-.643-.647-.981-.876a5.409 5.409 0 00-.895-.507c-.036-.014-.042-.011-.011.007a.91.91 0 01.284.263c.188.29.376.552.494.882.11.308.167.634.166.962 0 .469-.119.937-.32 1.36-.124.26-.271.516-.477.72-.224.222-.534.352-.804.508l-1.035.6-1.397.81-1.698.984-1.936 1.123-2.115 1.225-2.231 1.294-2.287 1.325-2.282 1.323-2.215 1.284-2.088 1.21-1.898 1.1-1.65.956-1.337.775-.965.56-.532.308-.086.05-2.711 1.548v13.403h.009a3.454 3.454 0 001.496-.338l.496-.287 19.667-11.396V48.68L32.377 61.246l-.022.013V74h.03c.52 0 1.013-.113 1.457-.318l.585-.34 26.646-15.508c2.787-1.592 3.481-4.485 3.481-4.485.316-1.095.468-2.235.507-3.377V23.188c0-.653.007-1.278-.1-1.925-.11-.668-.257-1.33-.447-1.981z" fill="url(#paint3_linear_219_2127)"/><path d="M32.384 73.199V74h-.03a3.477 3.477 0 01-1.488-.344l-.005-.003-26.858-15.51C1.215 56.553.52 53.66.52 53.66c-.409-1.42-.543-2.913-.513-4.391a22.21 22.21 0 01.08-1.446c.014-.153.03-.305.045-.457a18.098 18.098 0 01.584-3.04 8.378 8.378 0 01.227-.698l.012-.033a6.803 6.803 0 01.327-.74 4.925 4.925 0 01.548-.838c.272-.348.633-.647.966-.877l.075-.05c.05-.035.1-.067.149-.099l.028-.017a7.35 7.35 0 01.433-.247c.08-.042.142-.07.18-.086l.006-.001.01-.006c.037-.014.042-.012.012.007a1 1 0 00-.286.265c.002 0 .004 0 .006-.002-.381.489-.574.971-.641 1.425l.001.01a2.46 2.46 0 00.478 1.642c.388.51 29.129 17.26 29.129 17.26v.802l.003 4.124.004 7.032z" fill="url(#paint4_linear_219_2127)"/></g><defs><linearGradient id="paint0_linear_219_2127" x1=".004" y1="43.999" x2="45.642" y2="43.999" gradientUnits="userSpaceOnUse"><stop stop-color="#00314E"/><stop offset="1" stop-color="#007F94"/></linearGradient><linearGradient id="paint1_linear_219_2127" x1="0" y1="18.919" x2="45.464" y2="18.919" gradientUnits="userSpaceOnUse"><stop offset=".062" stop-color="#29617A"/><stop offset=".559" stop-color="#7BD9EF"/></linearGradient><linearGradient id="paint2_linear_219_2127" x1="0" y1="32.885" x2="32.378" y2="32.885" gradientUnits="userSpaceOnUse"><stop stop-color="#34E4FF"/><stop offset="1" stop-color="#29617A"/></linearGradient><linearGradient id="paint3_linear_219_2127" x1="32.355" y1="44.79" x2="65.061" y2="44.79" gradientUnits="userSpaceOnUse"><stop stop-color="#349DFF"/><stop offset="1" stop-color="#29617A"/></linearGradient><linearGradient id="paint4_linear_219_2127" x1=".004" y1="57.313" x2="32.384" y2="57.313" gradientUnits="userSpaceOnUse"><stop stop-color="#34E4FF"/><stop offset="1" stop-color="#29617A"/></linearGradient><clipPath id="clip0_219_2127"><path fill="#fff" d="M0 0h173v74H0z"/></clipPath></defs></svg>