<svg width="150" height="100" fill="none" xmlns="http://www.w3.org/2000/svg"><g clip-path="url(#clip0_704_2043)"><mask id="a" style="mask-type:luminance" maskUnits="userSpaceOnUse" x="5" y="20" width="140" height="60"><path d="M145 20H5v59.884h140V20z" fill="#fff"/></mask><g mask="url(#a)"><path d="M76.673 53.656a205.655 205.655 0 01-2.823-2.01 197.347 197.347 0 00-2.505-1.786l-.08-.054c-1.28-.853-1.665-1.111-1.665-2.661v-4.622c0-.804.509-1.7 1.239-1.7h5.899a.84.84 0 00.838-.84v-1.249a.84.84 0 00-.838-.84h-5.9a4.63 4.63 0 00-4.618 4.63v5.037c0 1.967.88 3.395 2.94 4.775 1.41.989 3.107 2.215 5.05 3.65 1.311.956 1.69 1.285 1.69 2.484v5.871c0 .804-.51 1.7-1.24 1.7H67.1a.84.84 0 00-.839.84v1.25c0 .463.376.84.839.84h7.56a4.63 4.63 0 004.62-4.63v-5.87c0-.976 0-3.006-2.607-4.815zm17.014-15.887h-4.196c-2.503 0-4.618 2.178-4.618 4.754v21.693c0 2.577 2.115 4.755 4.618 4.755h4.196c2.504 0 4.62-2.178 4.62-4.755V42.523c0-2.576-2.116-4.754-4.62-4.754zm1.28 26.447c0 .826-.57 1.824-1.28 1.824h-4.196c-.698 0-1.239-.98-1.239-1.824V42.523c0-.844.54-1.824 1.24-1.824h4.195c.71 0 1.28.998 1.28 1.824v21.693zm22.15-26.322h-1.661a.84.84 0 00-.839.84v21.559l-5.452-21.763a.84.84 0 00-.814-.636h-2.991a.84.84 0 00-.838.84V68.13c0 .464.375.84.838.84h1.704a.839.839 0 00.838-.84V47.358l5.035 20.969a.84.84 0 00.815.643h3.365a.839.839 0 00.838-.84V38.734a.84.84 0 00-.838-.84zm9.306 2.456h-1.704a.839.839 0 00-.838.84v3.373c0 .465.375.84.838.84h1.704a.839.839 0 00.838-.84v-3.372a.839.839 0 00-.838-.84zm0 5.955h-1.704a.839.839 0 00-.838.84V68.13c0 .464.375.84.838.84h1.704a.839.839 0 00.838-.84V47.145a.839.839 0 00-.838-.84zm17.739-8.411h-6.315a4.63 4.63 0 00-4.619 4.63V64.34a4.63 4.63 0 004.619 4.63h5.9a.839.839 0 00.838-.84v-1.25a.84.84 0 00-.838-.84h-5.9c-.73 0-1.239-.896-1.239-1.7V42.523c0-.804.509-1.7 1.239-1.7h6.315a.839.839 0 00.838-.84v-1.249a.84.84 0 00-.838-.84z" fill="#444649"/><path d="M41.936 45.712s-.37.012-.743-.079a2.098 2.098 0 01-.171-.054l-.012-.004a3.689 3.689 0 00-1.324-.122 3.412 3.412 0 00-.565.097 3.67 3.67 0 00-.368.113c-.18.068-.357.15-.527.247L17.578 57.67h-.001l-.02.011-1.684.96-.003.002a1.49 1.49 0 00-.68 1.25c0 .07-.045 1.294-.045 1.294v9.853L8.24 67.053c-2.255-1.288-2.817-3.63-2.817-3.63-.331-1.148-.44-2.356-.415-3.552a17.987 17.987 0 01.105-1.578 14.74 14.74 0 01.468-2.422 7.141 7.141 0 01.184-.565l.01-.027a5.5 5.5 0 01.265-.599 3.99 3.99 0 01.443-.678 3.598 3.598 0 01.842-.75c.04-.028.082-.054.12-.08l.023-.014.023.002.474-.271.005-.002 21.437-12.23a3.662 3.662 0 013.644.002l7.1 4.204.477.126h-.02l.883.477.446.246z" fill="url(#paint0_linear_704_2043)"/><path d="M41.791 25.54s-.37.012-.742-.08a2.167 2.167 0 01-.172-.053l-.012-.005a3.712 3.712 0 00-.944-.137 3.424 3.424 0 00-.38.015 3.44 3.44 0 00-.565.098 3.466 3.466 0 00-.895.359l-20.648 11.76v.001l-.02.01-1.684.96v.017a1.47 1.47 0 00-.684 1.236c0 .313.1.603.272.843.088.124-.28.464-.28.464v9.592H13.24l-5.004-2.899c-2.256-1.288-2.818-3.629-2.818-3.629-.343-1.194-.446-2.453-.41-3.696a16.63 16.63 0 01.029-1.538 15.39 15.39 0 01.54-3.237c.055-.193.115-.383.183-.565l.01-.027c.175-.47.397-.9.71-1.278h-.002a3.608 3.608 0 01.876-.771l.64-.35 1.297-.705 19.971-11.44a3.662 3.662 0 013.645.002l7.127 4.068.45.262h-.02l.882.476.446.247z" fill="url(#paint1_linear_704_2043)"/><path d="M31.202 49.77V60.6h-.017a2.818 2.818 0 01-1.209-.282c-.007-.004-.016-.007-.023-.012l-.32-.186-.013-.007-16.38-9.493-5.004-2.899c-2.256-1.288-2.818-3.629-2.818-3.629-.343-1.194-.446-2.453-.41-3.696a16.627 16.627 0 01.029-1.538 15.39 15.39 0 01.54-3.237c.055-.193.115-.383.183-.565l.01-.027c.175-.47.397-.9.708-1.278a3.608 3.608 0 01.876-.771c.292-.194.542-.317.62-.347.023-.01.03-.01.02-.002l-.012.008a.738.738 0 00-.226.212 2.92 2.92 0 00-.252.381c-.066.12-.123.245-.168.374a2.204 2.204 0 00-.123.714 2.25 2.25 0 00.093.65 2.77 2.77 0 00.23.563 3.482 3.482 0 00.283.45 3.832 3.832 0 00.35.41.64.64 0 00.077.07c.025.018.052.031.079.047l.035.02.088.052.109.063.128.074.145.084.161.093.176.102.188.11.2.116.21.121.219.127.224.13.23.134.234.135.236.137.236.136.235.137.233.135.229.132.223.13.215.125.207.12.197.114.185.107.171.1.157.09.14.081.121.07.103.06.08.047.06.034.034.02.008.005 1.576.913 15.885 9.206z" fill="url(#paint2_linear_704_2043)"/><path d="M57.208 35.604a7.521 7.521 0 00-.185-.565l-.01-.027a4.285 4.285 0 00-.065-.163 4.181 4.181 0 00-.654-1.114 3.623 3.623 0 00-.794-.71 4.374 4.374 0 00-.724-.409c-.03-.012-.034-.01-.009.005.12.072.2.167.23.213.152.235.304.447.4.714.089.249.135.513.134.778 0 .38-.096.759-.259 1.1-.1.21-.22.418-.386.584-.18.18-.432.285-.65.411l-.838.486-1.131.655-1.373.796-1.567.909-1.712.991-1.806 1.047-1.85 1.073-1.847 1.07-1.793 1.04-1.689.978-1.536.891-1.335.773-1.082.628-.781.453-.43.25-.07.04-2.195 1.252v10.846h.008a2.796 2.796 0 001.21-.273l.402-.232 15.916-9.223v8.524L31.2 69.564l-.018.011v10.31h.024c.421 0 .82-.091 1.18-.258l.473-.275L54.423 66.8c2.256-1.288 2.817-3.629 2.817-3.629.256-.886.379-1.809.41-2.733V38.765c0-.529.007-1.034-.08-1.558-.09-.54-.208-1.077-.362-1.603z" fill="url(#paint3_linear_704_2043)"/><path d="M31.207 79.236v.649h-.024a2.815 2.815 0 01-1.204-.28l-.005-.001L8.24 67.054c-2.255-1.29-2.817-3.63-2.817-3.63-.331-1.148-.44-2.357-.415-3.553a17.987 17.987 0 01.065-1.17c.01-.123.023-.247.036-.37a14.646 14.646 0 01.472-2.46 7.16 7.16 0 01.154-.48l.03-.085.01-.027a5.503 5.503 0 01.265-.598 3.99 3.99 0 01.443-.679 3.616 3.616 0 01.842-.749c.04-.029.082-.055.12-.08l.023-.015c.137-.084.258-.151.35-.2.065-.033.116-.056.147-.069l.005-.001.008-.004c.03-.012.034-.01.009.005a.808.808 0 00-.23.214l.003-.001c-.308.395-.464.786-.518 1.153l.001.008a1.99 1.99 0 00.387 1.33c.314.412 23.572 13.967 23.572 13.967v.649l.002 3.337.004 5.69z" fill="url(#paint4_linear_704_2043)"/></g></g><defs><linearGradient id="paint0_linear_704_2043" x1="5.003" y1="55.606" x2="41.936" y2="55.606" gradientUnits="userSpaceOnUse"><stop stop-color="#00314E"/><stop offset="1" stop-color="#007F94"/></linearGradient><linearGradient id="paint1_linear_704_2043" x1="5" y1="35.31" x2="41.791" y2="35.31" gradientUnits="userSpaceOnUse"><stop offset=".062" stop-color="#29617A"/><stop offset=".559" stop-color="#7BD9EF"/></linearGradient><linearGradient id="paint2_linear_704_2043" x1="5" y1="46.612" x2="31.202" y2="46.612" gradientUnits="userSpaceOnUse"><stop stop-color="#34E4FF"/><stop offset="1" stop-color="#29617A"/></linearGradient><linearGradient id="paint3_linear_704_2043" x1="31.183" y1="56.246" x2="57.65" y2="56.246" gradientUnits="userSpaceOnUse"><stop stop-color="#349DFF"/><stop offset="1" stop-color="#29617A"/></linearGradient><linearGradient id="paint4_linear_704_2043" x1="5.003" y1="66.38" x2="31.207" y2="66.38" gradientUnits="userSpaceOnUse"><stop stop-color="#34E4FF"/><stop offset="1" stop-color="#29617A"/></linearGradient><clipPath id="clip0_704_2043"><path fill="#fff" transform="translate(5 20)" d="M0 0h140v59.884H0z"/></clipPath></defs></svg>