<svg width="704" height="500" viewBox="0 0 704 500" fill="none" xmlns="http://www.w3.org/2000/svg">
<path d="M361.963 468.544C487.571 468.544 589.397 464.768 589.397 460.112C589.397 455.455 487.571 451.68 361.963 451.68C236.354 451.68 134.529 455.455 134.529 460.112C134.529 464.768 236.354 468.544 361.963 468.544Z" fill="#C7CCD1"/>
<path d="M133.978 243.409C105.521 241.621 72.75 209.463 81.4003 189.636C90.0506 169.809 92.026 156.605 83.2822 143.172C75.3389 130.987 104.97 79.3764 93.6791 59.6013C97.8379 55.6193 103.691 53.3631 109.056 55.2242C115.866 57.5427 119.256 65.0493 121.397 71.9217C123.774 79.4774 125.584 87.1994 126.814 95.0238C127.958 102.51 128.769 110.567 133.604 116.39C138.927 122.784 147.889 124.967 153.805 130.81C156.251 133.272 158.082 136.276 159.148 139.578C160.214 142.881 160.485 146.389 159.939 149.816C158.899 155.846 155.448 161.117 152.973 166.701C150.499 172.284 149.064 179.031 152.1 184.375C154.782 189.044 160.189 191.352 163.942 195.209C168.735 200.137 170.513 207.488 169.66 214.308C168.808 221.129 165.553 227.46 161.457 233.023C159.317 235.9 156.938 238.592 154.346 241.07C147.752 243.067 140.852 243.86 133.978 243.409Z" fill="url(#paint0_linear_406_1371)"/>
<path d="M105.937 272.261C99.8862 259.161 78.0317 250.053 69.5478 242.827C60.6584 235.206 52.4968 224.986 50.8021 213.019C48.889 199.649 56.1981 192.496 62.3531 181.995C72.5421 164.59 51.9561 147.518 58.9117 130.01C62.5091 121.006 73.0932 116.982 78.7907 109.143C83.3446 102.905 84.3635 94.764 85.0289 87.039C85.6943 79.3141 86.1414 71.2668 89.8947 64.4776C90.9273 62.6335 92.235 60.9577 93.7728 59.5078C105.012 79.2621 75.3805 130.893 83.3758 143.079C92.1196 156.512 90.1442 169.674 81.4939 189.543C72.8436 209.411 105.646 241.528 134.071 243.368C140.949 243.802 147.849 242.991 154.439 240.977C150.338 244.907 145.73 248.271 140.736 250.979C128.655 257.591 113.704 260.887 105.937 272.261Z" fill="#F59059"/>
<path d="M105.937 116.44V427.705" stroke="#231F20" stroke-width="1.08" stroke-miterlimit="10" stroke-linecap="round"/>
<path d="M105.937 156.979L122.375 136.497" stroke="#231F20" stroke-width="1.08" stroke-miterlimit="10" stroke-linecap="round"/>
<path d="M105.937 199.097L122.375 178.615" stroke="#231F20" stroke-width="1.08" stroke-miterlimit="10" stroke-linecap="round"/>
<path d="M105.937 180.673L89.4995 160.191" stroke="#231F20" stroke-width="1.08" stroke-miterlimit="10" stroke-linecap="round"/>
<path d="M105.937 218.248L89.4995 197.776" stroke="#231F20" stroke-width="1.08" stroke-miterlimit="10" stroke-linecap="round"/>
<path d="M105.937 242.774L122.375 222.303" stroke="#231F20" stroke-width="1.08" stroke-miterlimit="10" stroke-linecap="round"/>
<path d="M584.396 237.95C555.971 236.13 523.168 204.004 531.819 184.125C540.469 164.246 542.444 151.093 533.701 137.66C525.757 125.475 555.399 73.8646 544.098 54.0896C548.256 50.1075 554.11 47.8514 559.485 49.7125C566.285 52.031 569.674 59.548 571.816 66.41C574.184 73.9998 575.977 81.757 577.181 89.6161C578.324 97.1019 579.135 105.149 583.98 110.971C589.293 117.366 598.266 119.549 604.171 125.392C606.619 127.855 608.45 130.861 609.516 134.165C610.582 137.47 610.852 140.979 610.306 144.408C609.266 150.428 605.814 155.699 603.34 161.282C600.865 166.866 599.43 173.613 602.477 178.957C605.149 183.625 610.565 185.934 614.308 189.791C619.101 194.719 620.879 202.07 620.027 208.89C619.174 215.711 615.92 222.042 611.823 227.605C609.681 230.483 607.302 233.179 604.712 235.662C598.131 237.631 591.25 238.405 584.396 237.95V237.95Z" fill="url(#paint1_linear_406_1371)"/>
<path d="M556.356 266.802C550.305 253.702 528.45 244.594 519.966 237.368C511.046 229.747 502.894 219.516 501.189 207.57C499.276 194.189 506.585 187.036 512.74 176.535C522.929 159.131 502.343 142.069 509.299 124.55C512.896 115.547 523.48 111.523 529.178 103.673C533.732 97.4351 534.751 89.2942 535.416 81.5693C536.081 73.8443 536.518 65.7971 540.272 59.0182C541.303 57.1705 542.611 55.4911 544.15 54.0381C555.399 73.7923 525.757 125.424 533.753 137.609C542.496 151.042 540.521 164.204 531.871 184.073C523.22 203.942 556.023 236.058 584.448 237.898C591.325 238.33 598.224 237.523 604.816 235.517C600.736 239.424 596.161 242.776 591.206 245.488C579.073 252.132 564.122 255.428 556.356 266.802Z" fill="#F59059"/>
<path d="M556.355 110.982V422.247" stroke="#231F20" stroke-width="1.08" stroke-miterlimit="10" stroke-linecap="round"/>
<path d="M556.355 151.519L572.793 131.037" stroke="#231F20" stroke-width="1.08" stroke-miterlimit="10" stroke-linecap="round"/>
<path d="M556.355 193.637L572.793 173.155" stroke="#231F20" stroke-width="1.08" stroke-miterlimit="10" stroke-linecap="round"/>
<path d="M556.355 175.214L539.917 154.742" stroke="#231F20" stroke-width="1.08" stroke-miterlimit="10" stroke-linecap="round"/>
<path d="M556.355 212.789L539.917 192.317" stroke="#231F20" stroke-width="1.08" stroke-miterlimit="10" stroke-linecap="round"/>
<path d="M556.355 237.315L572.793 216.844" stroke="#231F20" stroke-width="1.08" stroke-miterlimit="10" stroke-linecap="round"/>
<path d="M234.039 383.477L212.153 396.535C211.952 396.655 211.777 396.815 211.639 397.004C211.501 397.194 211.404 397.41 211.352 397.638C211.301 397.867 211.296 398.104 211.339 398.334C211.382 398.564 211.472 398.784 211.602 398.978L242.044 444.548C242.187 444.764 242.375 444.946 242.594 445.083C242.814 445.219 243.061 445.307 243.317 445.339C243.574 445.372 243.834 445.349 244.081 445.272C244.328 445.194 244.555 445.065 244.748 444.892C246.453 443.311 248.906 440.494 248.75 437.333C248.511 432.529 243.209 403.428 243.791 402.586C244.69 401.642 245.687 400.795 246.765 400.06L234.039 383.477Z" fill="#242358"/>
<path d="M235.837 396.536C233.758 397.399 229.474 386.201 229.474 386.201L234.038 383.467L246.764 400.102C245.687 400.837 244.69 401.684 243.791 402.628C243.791 402.628 237.937 395.683 235.837 396.536Z" fill="#F69D80"/>
<path d="M244.748 444.923C244.556 445.096 244.328 445.226 244.082 445.303C243.835 445.38 243.574 445.404 243.318 445.371C243.061 445.338 242.815 445.251 242.595 445.114C242.375 444.978 242.188 444.796 242.045 444.58L211.571 399.01C211.441 398.815 211.351 398.596 211.308 398.366C211.266 398.135 211.27 397.899 211.322 397.67C211.373 397.441 211.471 397.226 211.608 397.036C211.746 396.846 211.921 396.687 212.122 396.567L214.368 395.226L236.316 428.496C243.594 422.85 247.264 426.822 247.274 426.822C248.033 431.677 248.636 435.774 248.72 437.323C248.896 440.525 246.453 443.322 244.748 444.923Z" fill="#E1E7EF"/>
<path d="M259.282 433.561L260.561 459.023C260.574 459.257 260.539 459.492 260.458 459.712C260.377 459.932 260.251 460.134 260.09 460.304C259.928 460.474 259.734 460.61 259.518 460.702C259.302 460.795 259.07 460.843 258.835 460.842H204.033C203.772 460.846 203.513 460.792 203.275 460.685C203.037 460.577 202.825 460.418 202.656 460.22C202.486 460.021 202.362 459.788 202.293 459.536C202.223 459.284 202.21 459.02 202.255 458.763C202.608 456.465 203.596 452.857 206.31 451.235C210.468 448.761 237.573 437.002 237.948 436.045C238.237 434.776 238.387 433.479 238.395 432.178L259.282 433.561Z" fill="#373075"/>
<path d="M247.419 439.319C247.866 441.544 259.553 438.871 259.553 438.871L259.282 433.559L238.395 432.207C238.387 433.509 238.237 434.806 237.948 436.075C237.948 436.075 246.972 437.083 247.419 439.319Z" fill="#F69D80"/>
<path d="M202.213 458.792C202.169 459.05 202.182 459.314 202.251 459.566C202.32 459.818 202.444 460.051 202.614 460.25C202.784 460.448 202.995 460.607 203.233 460.714C203.471 460.822 203.73 460.876 203.991 460.872H258.794C259.028 460.872 259.261 460.825 259.476 460.732C259.692 460.64 259.887 460.504 260.048 460.334C260.21 460.163 260.335 459.962 260.416 459.742C260.497 459.521 260.532 459.287 260.52 459.052L260.395 456.443L220.502 456.703C221.136 447.491 215.802 446.67 215.802 446.659C211.342 448.739 207.599 450.496 206.268 451.296C203.596 452.887 202.608 456.495 202.213 458.792Z" fill="#E1E7EF"/>
<path d="M294.831 234.268C294.831 234.268 272.29 232.574 264.388 232.574L214.161 227.999C214.161 227.999 218.746 316.217 224.506 346.421C230.266 376.624 238.396 432.206 238.396 432.206C238.396 432.206 250.696 435.595 259.284 433.558C259.284 433.558 258.753 418.347 258.181 397.605C276.116 383.507 310.073 355.882 313.285 346.421C317.704 333.508 294.831 234.268 294.831 234.268ZM257.318 360.935C256.715 330.191 256.497 298.875 257.734 287.563L279.766 336.97C276.355 339.112 266.177 350.569 257.318 360.935Z" fill="#1251C3"/>
<path d="M257.714 287.563L258.754 269.14C258.754 269.14 279.548 325.616 279.766 336.969L257.714 287.563Z" fill="#094082"/>
<path d="M257.298 360.935L258.172 397.605L264.015 392.978L259.243 358.679L257.298 360.935Z" fill="#094082"/>
<path d="M327.362 139.375C321.259 131.578 291.69 114.547 291.69 114.547C275.845 108.704 241.535 101.333 232.427 103.953C223.319 106.573 199.885 153.609 199.885 153.609C200.144 149.71 188.531 110.233 188.198 107.685C187.866 105.138 188.874 104.213 179.132 103.703C169.39 103.194 169.972 104.556 169.972 104.556C174.214 158.693 180.369 188.012 193.886 190.04C207.402 192.067 219.296 173.27 219.296 173.27C213.879 193.429 214.212 227.999 214.212 227.999C224.801 232.295 235.823 235.432 247.087 237.357C264.886 240.237 294.913 234.3 294.913 234.3C293.873 226.169 297.45 209.565 297.45 209.565C297.45 209.565 344.735 213.963 348.281 205.833C351.826 197.702 333.465 147.173 327.362 139.375ZM301.182 192.629C303.345 180.807 308.938 165.94 308.938 165.94L320.25 189.447C317.828 189.073 301.182 192.629 301.182 192.629Z" fill="#373075"/>
<path d="M320.25 189.447L318.347 185.476C318.347 185.476 327.808 186.307 332.83 188.979C328.631 188.745 324.42 188.902 320.25 189.447V189.447Z" fill="#242358"/>
<path d="M219.244 173.269L226.366 140.217C226.366 140.217 215.356 159.711 212.133 170.046C208.909 180.38 209.793 187.045 198.845 189.904C198.845 189.904 207.724 189.935 219.244 173.269Z" fill="#242358"/>
<path d="M297.367 209.534C297.367 209.534 289.444 208.983 289.236 208.307C289.015 206.848 288.904 205.375 288.903 203.899C286.653 202.769 284.233 202.01 281.74 201.653C273.599 200.614 252.888 204.45 248.563 205.594C244.238 206.738 231.408 212.456 231.408 212.456C231.408 212.456 232.552 218.299 237.002 219.827C241.452 221.356 259.366 213.724 268.65 215.887C277.935 218.049 294.83 234.269 294.83 234.269C294.829 225.959 295.679 217.671 297.367 209.534V209.534Z" fill="#242358"/>
<path d="M250.912 206.789C250.649 206.787 250.392 206.707 250.174 206.56C250.022 206.458 249.896 206.323 249.806 206.164C249.716 206.005 249.664 205.828 249.654 205.645L249.155 192.545C249.147 192.267 249.238 191.996 249.411 191.779C249.585 191.562 249.829 191.414 250.101 191.36L260.332 188.916C260.66 188.835 261.006 188.884 261.299 189.052C261.438 189.132 261.559 189.24 261.656 189.369C261.752 189.497 261.822 189.644 261.86 189.8L264.782 201.892C264.85 202.192 264.797 202.508 264.633 202.769C264.469 203.03 264.209 203.216 263.909 203.285L251.266 206.737C251.151 206.77 251.032 206.788 250.912 206.789V206.789ZM251.703 193.408L252.108 204.054L262.079 201.33L259.698 191.495L251.703 193.408Z" fill="#EE5763"/>
<path d="M289.788 193.897C289.788 193.897 290.422 204.741 289.237 208.307C289.237 208.307 279.536 206.311 277.665 207.164C275.793 208.016 264.201 208.131 262.797 206.862C261.393 205.594 260.177 206.238 259.543 205.168C259.052 204.234 258.641 203.26 258.316 202.256C258.316 202.256 256.237 200.177 256.018 199.137C255.868 198.511 255.945 197.851 256.237 197.276C256.237 197.276 254.157 195.685 254.032 194.459C253.908 193.232 255.467 192.494 255.467 192.494C255.081 192.323 254.735 192.075 254.45 191.763C254.165 191.452 253.949 191.084 253.814 190.685C253.523 189.458 253.731 188.314 255.134 188.605C256.538 188.896 264.492 186.827 265.76 187.368C267.029 187.909 278.309 191.184 279.068 192.161C279.827 193.138 289.788 193.897 289.788 193.897Z" fill="#F69D80"/>
<path d="M255.03 202.007L251.079 185.912C250.632 184.571 244.332 184.935 236.887 186.744C229.443 188.553 223.683 191.132 223.912 192.525L227.832 208.619C228.59 211.723 230.548 214.401 233.276 216.065C236.004 217.729 239.28 218.244 242.387 217.498L246.109 216.583C247.652 216.212 249.107 215.541 250.391 214.608C251.674 213.674 252.761 212.497 253.59 211.143C254.418 209.79 254.972 208.286 255.219 206.718C255.466 205.151 255.402 203.55 255.03 202.007Z" fill="#EE5763"/>
<path d="M238.116 191.684C245.397 189.911 251.033 187.383 250.706 186.039C250.378 184.694 244.211 185.042 236.93 186.815C229.65 188.589 224.013 191.116 224.341 192.461C224.668 193.805 230.836 193.458 238.116 191.684Z" fill="#A53447"/>
<g style="mix-blend-mode:overlay" opacity="0.36">
<path d="M225.21 197.838L227.841 208.63C228.6 211.734 230.557 214.411 233.285 216.075C236.013 217.739 239.289 218.255 242.397 217.509C232.447 217.509 227.352 205.168 225.21 197.838Z" fill="white"/>
</g>
<path d="M255.467 192.441C256.356 192.234 257.268 192.14 258.181 192.16C259.22 192.264 262.547 192.16 262.547 192.16C260.492 191.701 258.408 191.381 256.309 191.204C255.385 191.188 254.488 190.887 253.741 190.341C253.806 190.816 254.002 191.265 254.306 191.636C254.611 192.007 255.013 192.285 255.467 192.441Z" fill="#CD7860"/>
<path d="M187.138 104.93L186.036 98.6189C187.32 96.8991 188.347 95.0006 189.082 92.9837C189.758 90.53 196.453 83.4913 197.129 82.9818C197.805 82.4724 198.782 81.3391 198.231 80.9024C197.527 80.3231 196.682 79.9394 195.782 79.7898C194.883 79.6401 193.96 79.7298 193.105 80.0499C190.569 81.0896 185.568 85.0924 185.443 85.0924C185.318 85.0924 182.771 77.3882 181.97 75.7351C181.17 74.082 176.772 63.6538 175.992 63.6122C175.556 63.6726 175.141 63.8349 174.779 64.086C174.418 64.3371 174.121 64.6699 173.913 65.0574C173.913 65.0574 173.237 61.9383 171.459 62.219C170.945 62.3222 170.482 62.5962 170.144 62.9964C169.806 63.3967 169.613 63.8996 169.598 64.4232C169.109 64.4451 168.641 64.6268 168.265 64.9405C167.89 65.2541 167.627 65.6824 167.519 66.1595C167.385 67.7509 167.385 69.3507 167.519 70.9421C167.284 70.9089 167.045 70.927 166.818 70.9954C166.592 71.0637 166.382 71.1806 166.205 71.3379C166.028 71.4952 165.888 71.6891 165.793 71.9062C165.698 72.1233 165.652 72.3585 165.657 72.5952C165.574 74.4667 165.949 80.4761 166.084 81.495C166.219 82.5139 169.203 95.7701 170.482 96.9969C171.76 98.2238 171.334 104.878 171.334 104.878C171.334 104.878 179.693 107.498 187.138 104.93Z" fill="#F69D80"/>
<path d="M300.434 56.1277C300.434 56.1277 302.95 87.5474 292.896 93.8376C282.842 100.128 265.24 93.8375 262.744 80.0096C260.249 66.1816 260.239 53.6116 262.744 51.106C265.25 48.6003 299.176 39.7941 300.434 56.1277Z" fill="#F69D80"/>
<path d="M300.434 68.6971C300.434 68.6971 302.95 63.665 306.672 66.1811C310.394 68.6971 305.362 79.7907 299.737 78.6574C294.113 77.5242 300.434 68.6971 300.434 68.6971Z" fill="#F69D80"/>
<path d="M262.765 70.8182C262.765 70.8182 260.249 65.7861 256.527 68.3022C252.805 70.8182 257.837 81.9118 263.462 80.7785C269.087 79.6453 262.765 70.8182 262.765 70.8182Z" fill="#F69D80"/>
<path d="M291.263 94.3887L291.689 114.548C291.689 114.548 284.495 120.568 275.512 118.104C266.529 115.64 267.88 108.113 267.88 108.113L270.76 97.0087L291.263 94.3887Z" fill="#F69D80"/>
<path d="M270.761 97.0087L269.107 103.413C271.613 106.969 278.101 112.334 291.43 102.186L291.263 94.3887L270.761 97.0087Z" fill="#CD7860"/>
<path d="M303.386 45.3251C300.839 44.7324 300.08 41.1663 297.959 41.2599C296.491 41.3582 295.041 41.6411 293.644 42.102C293.644 42.102 291.565 30.3326 283.559 32.1937C275.553 34.0547 259.407 42.4451 258.606 48.0387C257.806 53.6323 254.874 54.4744 256.828 55.7428C258.783 57.0113 259.792 67.8657 259.792 67.8657C259.792 67.8657 262.505 93.7958 265.042 95.6568C267.579 97.5179 273.183 104.64 280.211 104.557C287.24 104.473 296.441 99.6389 297.397 95.9064C298.354 92.1738 302.825 66.9508 302.721 62.2721C302.617 57.5935 305.923 45.9177 303.386 45.3251ZM295.672 81.7977C294.195 83.326 287.073 79.5103 285.379 80.5292C283.684 81.5481 279.234 82.016 276.437 81.205C273.64 80.3941 269.367 84.4697 266.612 84.4697C263.857 84.4697 262.796 66.6181 262.796 66.6181C264.25 64.8683 265.265 62.7977 265.759 60.5774C266.404 57.188 273.9 56.0859 278.984 56.2523C284.069 56.4186 292.241 48.8393 292.241 48.8393C292.241 48.8393 291.201 52.8629 290.847 54.0377C290.494 55.2126 297.793 57.6871 299.955 61.4924C302.118 65.2977 297.158 80.2797 295.672 81.7977Z" fill="#373075"/>
<path d="M267.808 95.0231C263.732 91.904 261.57 81.2575 260.592 74.3955C261.632 82.2036 263.368 94.4409 265.084 95.6989C267.631 97.56 273.225 104.682 280.253 104.599C284.157 104.403 287.969 103.337 291.409 101.48C278.714 105.597 273.952 99.7225 267.808 95.0231Z" fill="#1F1A4D"/>
<path d="M274.743 85.3018H287.292C287.292 85.3018 286.533 90.0948 280.492 90.0948C275.855 90.0948 274.743 85.3018 274.743 85.3018Z" fill="#F69D80"/>
<path d="M324.918 386.886L384.857 444.1" stroke="black" stroke-width="2.42" stroke-miterlimit="10"/>
<path d="M369.417 386.886L309.468 444.1" stroke="black" stroke-width="2.42" stroke-miterlimit="10"/>
<path d="M305.673 459.146L333.974 352.899" stroke="black" stroke-width="2.42" stroke-miterlimit="10" stroke-linecap="round"/>
<path d="M388.485 459.146L360.185 352.899" stroke="black" stroke-width="2.42" stroke-miterlimit="10" stroke-linecap="round"/>
<path d="M376.715 335.047H320.707C314.976 335.047 310.331 339.692 310.331 345.423V349.748C310.331 355.479 314.976 360.124 320.707 360.124H376.715C382.446 360.124 387.091 355.479 387.091 349.748V345.423C387.091 339.692 382.446 335.047 376.715 335.047Z" fill="#A53447"/>
<path d="M321.601 356.037H372.546C374.689 356.036 376.794 355.477 378.655 354.416C380.516 353.356 382.069 351.829 383.162 349.986C383.943 348.662 384.355 347.152 384.355 345.614C384.355 344.077 383.943 342.567 383.162 341.242C382.07 339.401 380.518 337.876 378.659 336.815C376.8 335.754 374.697 335.195 372.557 335.191H321.612C319.471 335.193 317.367 335.751 315.508 336.812C313.648 337.873 312.097 339.4 311.007 341.242C310.226 342.567 309.814 344.077 309.814 345.614C309.814 347.152 310.226 348.662 311.007 349.986C312.096 351.827 313.646 353.353 315.503 354.414C317.361 355.475 319.462 356.034 321.601 356.037V356.037Z" fill="#EE5763"/>
<path d="M366.766 445.547L362.389 460.685C362.325 460.924 362.315 461.175 362.361 461.418C362.407 461.662 362.507 461.892 362.654 462.092C362.8 462.291 362.99 462.455 363.209 462.572C363.428 462.688 363.67 462.754 363.917 462.764L402.958 464.313C403.24 464.324 403.521 464.268 403.777 464.149C404.034 464.031 404.258 463.853 404.433 463.631C404.607 463.409 404.726 463.149 404.781 462.871C404.835 462.594 404.823 462.308 404.746 462.036C404.081 459.572 402.667 455.985 400.192 455.247L381.311 449.654L381.634 446.16L366.766 445.547Z" fill="#373075"/>
<path d="M381.31 449.674C381.31 449.674 375.446 449.674 375.145 451.265C374.843 452.856 365.684 449.269 365.684 449.269L366.723 445.547L381.591 446.181L381.31 449.674Z" fill="#F69E80"/>
<path d="M363.916 462.785L402.957 464.334C403.241 464.346 403.525 464.289 403.783 464.17C404.042 464.05 404.268 463.87 404.443 463.645C404.618 463.421 404.736 463.157 404.789 462.877C404.842 462.598 404.827 462.309 404.745 462.036C404.08 459.572 402.666 455.985 400.191 455.247L396.968 454.301C394.255 455.34 393.579 461.672 393.579 461.672L362.388 460.633C362.311 460.876 362.291 461.135 362.33 461.388C362.37 461.641 362.468 461.881 362.616 462.089C362.764 462.298 362.959 462.469 363.184 462.59C363.41 462.711 363.66 462.777 363.916 462.785V462.785Z" fill="#E1E7EF"/>
<path d="M453.819 441.18L460.057 457.378C460.141 457.596 460.268 457.795 460.432 457.961C460.596 458.127 460.792 458.258 461.009 458.345C461.226 458.432 461.458 458.473 461.691 458.466C461.925 458.459 462.154 458.403 462.365 458.304L494.19 443.166C494.422 443.057 494.626 442.897 494.787 442.698C494.948 442.499 495.061 442.265 495.118 442.016C495.176 441.766 495.175 441.507 495.117 441.257C495.059 441.008 494.945 440.775 494.783 440.577C493.567 439.1 491.497 437.239 488.867 437.354C484.542 437.541 470.444 438.747 469.04 438.393C467.78 437.955 466.59 437.339 465.505 436.563L453.819 441.18Z" fill="#242358"/>
<path d="M467.814 437.988C467.814 437.988 463.988 440.151 464.819 441.513C465.651 442.875 454.984 444.299 454.984 444.299L453.778 441.18L465.474 436.605C465.474 436.605 467.335 437.76 467.814 437.988Z" fill="#F69E80"/>
<path d="M462.334 458.303L494.159 443.165C494.391 443.056 494.595 442.896 494.756 442.697C494.916 442.498 495.03 442.264 495.087 442.015C495.144 441.765 495.143 441.506 495.085 441.257C495.027 441.007 494.913 440.774 494.751 440.576C493.535 439.099 491.466 437.238 488.835 437.353C488.024 437.353 486.881 437.457 485.54 437.55L488.711 443.445L459.849 456.961L460.025 457.408C460.112 457.624 460.242 457.819 460.407 457.982C460.572 458.145 460.769 458.272 460.985 458.356C461.202 458.44 461.433 458.479 461.665 458.469C461.897 458.46 462.124 458.403 462.334 458.303Z" fill="#E1E7EF"/>
<path d="M329.399 295.685C329.399 295.685 312.369 334.829 324.564 342.201C336.76 349.572 390.273 359.231 390.273 359.231C390.273 359.231 383.713 378.299 378.098 398.74C372.484 419.18 366.766 445.526 366.766 445.526C366.766 445.526 377.163 447.813 381.633 446.16L416.588 364.024C416.588 364.024 424.802 387.75 430.738 397.295C436.675 406.839 453.82 441.18 453.82 441.18C453.82 441.18 462.803 439.153 465.516 436.605C465.516 436.605 440.771 342.388 435.365 336.628C429.959 330.868 381.477 309.513 380.261 306.633C379.045 303.753 376.705 294.812 376.705 294.812L329.399 295.685Z" fill="#373075"/>
<path d="M380.23 306.633C380.23 306.633 366.714 303.67 361.682 303.056C356.65 302.443 335.014 303.545 328.204 298.606L329.399 295.706L376.674 294.812L380.23 306.633Z" fill="#242259"/>
<path d="M428.273 347.472C431.58 332.054 419.883 331.378 412.262 326.117C404.641 320.856 365.829 310.022 365.829 310.022C365.829 310.022 388.193 317.987 395.149 320.866C402.104 323.746 418.531 332.386 420.923 339.508C423.314 346.63 416.587 364.076 416.587 364.076C416.587 364.076 424.801 387.802 430.737 397.347C432.432 400.071 435.063 404.853 437.932 410.28C433.274 401.298 424.967 362.891 428.273 347.472Z" fill="#242259"/>
<path d="M332.445 285.538L329.398 295.686C329.398 295.686 349.09 298.857 356.846 297.463C364.603 296.07 376.673 294.791 376.673 294.791L375.405 286.193L332.445 285.538Z" fill="#094082"/>
<path d="M373.877 215.889C373.877 215.889 389.296 221.482 391.843 225.974C394.39 230.465 407.854 256.302 407.854 256.302C407.854 256.302 417.347 224.196 418.189 223.686C419.031 223.177 428.191 225.204 428.274 225.766C428.357 226.327 422.68 283.136 417.773 285.507C412.866 287.877 401.419 285.507 401.419 285.507L387.102 261.375L382.08 273.925L393.517 277.574V285.964C393.517 285.964 331.905 287.825 330.043 285.029C328.182 282.232 321.487 230.548 327.756 225.298C334.025 220.047 354.871 213.477 354.871 213.477L373.877 215.889Z" fill="#1251C3"/>
<path d="M345.025 239.906L344.391 266.73L382.08 273.925C382.08 273.925 357.335 265.077 353.27 263.736C349.205 262.395 345.025 239.906 345.025 239.906Z" fill="#094082"/>
<path d="M387.102 261.375C387.102 261.375 390.148 254.097 390.315 251.882C390.481 249.668 388.703 240.362 388.703 240.362C388.703 240.362 391.583 253.577 391.822 257.985C392.061 262.394 401.398 285.527 401.398 285.527L387.102 261.375Z" fill="#094082"/>
<path d="M407.854 256.301L406.502 260.46L406.648 253.993L407.854 256.301Z" fill="#094082"/>
<path d="M393.517 277.573L405.993 280.152C406.752 280.328 419.977 283.458 419.977 284.092C419.977 284.726 419.468 286.172 419.083 286.172C418.698 286.172 393.465 285.922 393.465 285.922L393.517 277.573Z" fill="#F69E80"/>
<path d="M418.189 223.811L419.978 218.363C419.978 218.363 418.075 213.352 418.636 211.283C419.319 208.615 419.713 205.883 419.811 203.131C419.655 202.092 417.992 197.33 418.772 196.571C419.551 195.812 422.535 197.611 423.066 199.16C423.596 200.709 424.355 204.847 424.355 204.847C424.355 204.847 428.607 199.274 429.096 198.442C429.585 197.611 436.259 190.291 437.559 190.405C438.278 190.447 438.963 190.729 439.503 191.206C439.503 191.206 441.687 189.688 443.194 190.405C444.702 191.123 442.986 192.672 442.986 192.672C442.986 192.672 444.889 194.024 444.327 194.866C443.766 195.708 441.323 199.638 441.323 199.638C441.323 199.638 442.092 200.189 441.77 201.665C441.447 203.142 437.278 209.692 436.873 210.492C436.467 211.293 431.674 218.321 430.551 219.6C429.429 220.879 428.243 225.838 428.243 225.838C428.243 225.838 418.075 225.36 418.189 223.811Z" fill="#F69E80"/>
<path d="M347.126 143.702C336.895 142.236 331.531 151.957 329.015 162.572C326.498 173.188 340.347 171.93 340.347 171.93L356.982 153.381C356.982 153.381 357.357 145.157 347.126 143.702Z" fill="#403981"/>
<path d="M372.776 148.693C364.302 149.972 336.261 166.919 341.262 182.587C346.263 198.256 355.381 198.776 357.107 195.812C358.833 192.849 368.71 164.798 374.304 161.918C379.897 159.038 389.359 156.793 389.359 156.793C389.359 156.793 381.249 147.425 372.776 148.693Z" fill="#403981"/>
<path d="M340.348 171.961L345.66 166.035C328.797 167.553 334.224 150.533 334.598 149.399C331.91 153.399 330.028 157.884 329.056 162.604C326.478 173.188 340.348 171.961 340.348 171.961Z" fill="#242358"/>
<path d="M346.264 165.963C341.949 171.161 339.464 176.942 341.263 182.598C346.253 198.277 355.382 198.786 357.108 195.823C357.253 195.553 357.482 195.074 357.753 194.451C339.776 185.208 346.118 166.379 346.264 165.963Z" fill="#242358"/>
<path d="M359.342 154.806C359.342 154.806 358.5 151.562 353.291 154.806C348.082 158.05 336.884 168.176 341.334 174.56C343.611 166.939 351.669 159.693 359.342 154.806Z" fill="#EE5763"/>
<path d="M393.456 167.719C379.409 158.216 371.684 165.525 367.463 175.787L358.023 187.483C358.023 187.483 355.569 182.846 352.939 184.115C350.308 185.383 348.582 194.875 357.098 195.811L354.81 213.486C354.81 213.486 360.684 223.155 370.406 222.251C375.864 221.741 373.837 215.898 373.837 215.898L374.325 208.693C377.095 209.225 379.954 209.057 382.643 208.204C394.215 204.576 393.456 167.719 393.456 167.719Z" fill="#F69E80"/>
<path d="M374.366 208.683C374.366 208.683 368.419 206.905 366.049 205.127C368.426 207.544 371.166 209.575 374.169 211.147L374.366 208.683Z" fill="#CE7961"/>
<path d="M357.991 187.483C357.991 187.483 359.395 192.63 358.563 194.855C360.898 192.437 362.411 189.344 362.888 186.017C362.888 186.017 367.65 185.83 368.794 181.318C368.794 181.318 383.225 181.131 388.496 168.353C388.643 169.802 389.168 171.186 390.018 172.369C390.868 173.551 392.014 174.489 393.341 175.09C393.341 175.09 392.977 181.848 392.634 184.562C392.634 184.562 402.729 160.856 389.39 156.791C389.359 156.791 356.723 153.859 357.991 187.483Z" fill="#403981"/>
<path d="M544.294 293.667L575.308 460.84" stroke="black" stroke-width="2.42" stroke-miterlimit="10" stroke-linecap="round"/>
<path d="M378.098 293.667L347.084 460.84" stroke="black" stroke-width="2.42" stroke-miterlimit="10" stroke-linecap="round"/>
<path d="M586.381 285.786H336.001V293.667H586.381V285.786Z" fill="url(#paint2_linear_406_1371)"/>
<path d="M482.152 268.32H426.944C426.125 268.32 425.314 268.152 424.561 267.828C423.809 267.504 423.131 267.029 422.568 266.433C422.006 265.838 421.57 265.133 421.29 264.364C421.009 263.594 420.888 262.775 420.935 261.957L423.087 226.108C423.172 224.572 423.842 223.126 424.96 222.068C426.077 221.011 427.557 220.421 429.096 220.421H484.315C485.133 220.421 485.943 220.588 486.695 220.912C487.446 221.236 488.124 221.709 488.686 222.304C489.249 222.898 489.684 223.601 489.966 224.37C490.247 225.138 490.369 225.956 490.324 226.773L488.13 262.633C488.043 264.163 487.377 265.602 486.266 266.659C485.156 267.715 483.685 268.309 482.152 268.32V268.32Z" fill="#094082"/>
<path d="M485.614 268.32H430.396C429.577 268.318 428.767 268.15 428.015 267.825C427.263 267.5 426.585 267.025 426.023 266.43C425.461 265.835 425.026 265.131 424.744 264.362C424.463 263.593 424.341 262.775 424.386 261.957L426.549 226.108C426.634 224.572 427.304 223.126 428.422 222.068C429.539 221.011 431.019 220.421 432.558 220.421H487.766C488.585 220.42 489.396 220.586 490.148 220.909C490.9 221.232 491.579 221.706 492.142 222.301C492.704 222.895 493.14 223.599 493.421 224.368C493.702 225.137 493.822 225.956 493.776 226.773L491.623 262.633C491.538 264.169 490.868 265.615 489.751 266.672C488.633 267.73 487.153 268.319 485.614 268.32V268.32Z" fill="url(#paint3_linear_406_1371)"/>
<path d="M473.439 280.432L466.442 254.762H467.607V248.649C467.604 247.519 467.154 246.436 466.355 245.637C465.556 244.838 464.474 244.388 463.344 244.386H453.477C452.347 244.386 451.262 244.835 450.463 245.634C449.664 246.434 449.214 247.518 449.214 248.649V254.762L456.492 281.212C456.546 281.415 456.553 281.627 456.512 281.833C456.471 282.039 456.384 282.233 456.256 282.399C456.129 282.566 455.965 282.701 455.777 282.795C455.589 282.888 455.382 282.937 455.172 282.938H438.318V285.953H469.218C469.89 285.952 470.553 285.797 471.155 285.499C471.758 285.201 472.283 284.768 472.691 284.234C473.1 283.7 473.379 283.08 473.509 282.42C473.639 281.761 473.615 281.081 473.439 280.432V280.432ZM465.122 276.46C464.351 276.46 463.597 276.232 462.956 275.803C462.315 275.375 461.815 274.766 461.52 274.054C461.225 273.341 461.147 272.557 461.298 271.801C461.448 271.045 461.82 270.35 462.365 269.805C462.91 269.259 463.605 268.888 464.361 268.738C465.117 268.587 465.901 268.664 466.614 268.959C467.326 269.255 467.935 269.754 468.364 270.395C468.792 271.037 469.021 271.79 469.021 272.562C469.021 273.596 468.61 274.587 467.879 275.318C467.147 276.05 466.156 276.46 465.122 276.46Z" fill="#094082"/>
<path d="M466.172 244.386H456.305C455.175 244.389 454.092 244.838 453.294 245.637C452.495 246.436 452.045 247.519 452.042 248.649V254.762H470.455V248.649C470.454 248.087 470.342 247.532 470.126 247.014C469.91 246.496 469.594 246.026 469.196 245.63C468.798 245.234 468.327 244.921 467.808 244.707C467.289 244.494 466.733 244.384 466.172 244.386V244.386Z" fill="#E3E3E3"/>
<path d="M477.421 280.194L470.455 254.763H452.042L453.082 258.568L459.59 282.481C459.697 282.877 459.715 283.292 459.643 283.696C459.571 284.1 459.41 284.483 459.173 284.818C458.935 285.153 458.627 285.431 458.269 285.633C457.912 285.834 457.515 285.955 457.105 285.985H473.023C473.727 285.985 474.422 285.822 475.053 285.509C475.684 285.197 476.234 284.742 476.66 284.181C477.086 283.62 477.376 282.968 477.508 282.277C477.64 281.585 477.61 280.872 477.421 280.194V280.194ZM466.535 276.461C465.764 276.461 465.01 276.233 464.369 275.804C463.728 275.376 463.228 274.767 462.933 274.054C462.638 273.342 462.561 272.558 462.711 271.802C462.862 271.045 463.233 270.351 463.778 269.805C464.324 269.26 465.018 268.889 465.775 268.738C466.531 268.588 467.315 268.665 468.027 268.96C468.74 269.255 469.349 269.755 469.777 270.396C470.206 271.037 470.434 271.791 470.434 272.562C470.434 273.596 470.023 274.588 469.292 275.319C468.561 276.05 467.569 276.461 466.535 276.461V276.461Z" fill="#E3E3E3"/>
<path d="M477.421 280.193L470.455 254.762V248.649C470.452 247.519 470.002 246.436 469.204 245.637C468.405 244.838 467.322 244.388 466.192 244.386H456.326C455.196 244.388 454.113 244.838 453.315 245.637C452.516 246.436 452.066 247.519 452.063 248.649V254.762L453.103 258.567L459.611 282.48C459.718 282.876 459.736 283.291 459.664 283.695C459.592 284.099 459.431 284.482 459.194 284.817C458.956 285.152 458.648 285.43 458.29 285.632C457.933 285.833 457.536 285.954 457.126 285.984H473.044C473.747 285.981 474.439 285.816 475.067 285.502C475.695 285.187 476.242 284.732 476.666 284.172C477.09 283.612 477.378 282.961 477.509 282.271C477.64 281.581 477.61 280.87 477.421 280.193V280.193ZM466.536 276.46C465.764 276.46 465.011 276.232 464.369 275.803C463.728 275.375 463.229 274.766 462.933 274.054C462.638 273.341 462.561 272.557 462.712 271.801C462.862 271.045 463.233 270.35 463.779 269.805C464.324 269.259 465.019 268.888 465.775 268.738C466.531 268.587 467.315 268.664 468.028 268.959C468.74 269.255 469.349 269.754 469.777 270.395C470.206 271.037 470.434 271.79 470.434 272.562C470.434 273.596 470.024 274.587 469.292 275.318C468.561 276.05 467.57 276.46 466.536 276.46V276.46Z" fill="url(#paint4_linear_406_1371)"/>
<path d="M477.422 280.453C477.363 280.455 477.305 280.436 477.257 280.4C477.21 280.364 477.176 280.313 477.162 280.256L470.279 254.97C470.247 254.946 470.221 254.914 470.203 254.878C470.185 254.842 470.175 254.802 470.175 254.762V248.649C470.173 247.589 469.75 246.573 468.999 245.825C468.249 245.077 467.232 244.656 466.173 244.656H456.306C456.236 244.654 456.17 244.624 456.121 244.573C456.073 244.523 456.046 244.456 456.046 244.386C456.046 244.317 456.073 244.251 456.122 244.202C456.171 244.153 456.237 244.126 456.306 244.126H466.173C467.372 244.126 468.522 244.602 469.371 245.451C470.219 246.299 470.695 247.449 470.695 248.649V254.606C470.7 254.634 470.7 254.662 470.695 254.689L477.672 280.089C477.681 280.123 477.684 280.158 477.679 280.192C477.675 280.227 477.664 280.26 477.646 280.29C477.629 280.32 477.605 280.346 477.578 280.367C477.55 280.388 477.518 280.403 477.484 280.411L477.422 280.453Z" fill="#FFD788"/>
<path d="M473.013 286.212C472.944 286.212 472.878 286.184 472.829 286.136C472.78 286.087 472.753 286.021 472.753 285.952C472.753 285.883 472.78 285.817 472.829 285.768C472.878 285.719 472.944 285.692 473.013 285.692C473.675 285.693 474.329 285.541 474.923 285.248C475.517 284.955 476.036 284.529 476.438 284.002C476.841 283.476 477.116 282.864 477.243 282.214C477.371 281.564 477.346 280.893 477.172 280.254L470.247 254.834C470.236 254.8 470.233 254.765 470.236 254.73C470.24 254.695 470.251 254.661 470.269 254.631C470.286 254.6 470.31 254.574 470.339 254.553C470.367 254.533 470.4 254.518 470.434 254.511C470.467 254.502 470.502 254.499 470.535 254.503C470.569 254.506 470.602 254.517 470.632 254.533C470.662 254.549 470.689 254.572 470.71 254.598C470.731 254.625 470.747 254.655 470.757 254.688L477.671 280.088C477.866 280.804 477.893 281.555 477.751 282.283C477.608 283.011 477.299 283.697 476.849 284.286C476.398 284.876 475.818 285.353 475.152 285.682C474.487 286.01 473.755 286.181 473.013 286.181V286.212Z" fill="#FFD788"/>
<path d="M475.81 252.402C475.696 252.394 475.59 252.341 475.514 252.256C475.438 252.17 475.399 252.059 475.405 251.944L476.59 230.745C476.585 230.683 476.593 230.62 476.614 230.561C476.636 230.502 476.669 230.449 476.713 230.404C476.757 230.359 476.81 230.324 476.868 230.302C476.927 230.279 476.989 230.269 477.052 230.273C477.114 230.277 477.175 230.294 477.23 230.324C477.285 230.353 477.334 230.394 477.372 230.443C477.41 230.493 477.437 230.55 477.451 230.611C477.465 230.672 477.466 230.736 477.453 230.797L476.247 252.017C476.232 252.123 476.18 252.22 476.1 252.29C476.02 252.361 475.917 252.4 475.81 252.402V252.402Z" fill="#1251C3"/>
<path d="M478.637 252.402C478.58 252.4 478.524 252.386 478.473 252.361C478.422 252.337 478.376 252.302 478.338 252.259C478.3 252.217 478.271 252.167 478.253 252.113C478.235 252.059 478.227 252.002 478.232 251.945L479.417 230.746C479.42 230.689 479.434 230.633 479.458 230.581C479.483 230.53 479.517 230.484 479.56 230.446C479.603 230.408 479.652 230.379 479.706 230.361C479.76 230.343 479.818 230.336 479.874 230.34C479.988 230.348 480.095 230.4 480.17 230.486C480.246 230.572 480.286 230.683 480.28 230.798L479.074 252.018C479.059 252.123 479.007 252.22 478.927 252.291C478.847 252.361 478.744 252.401 478.637 252.402V252.402Z" fill="#1251C3"/>
<path d="M481.465 252.402C481.35 252.394 481.243 252.342 481.166 252.257C481.088 252.172 481.047 252.06 481.049 251.945L482.245 230.745C482.246 230.688 482.259 230.631 482.283 230.579C482.307 230.527 482.342 230.481 482.385 230.443C482.428 230.404 482.478 230.376 482.533 230.358C482.588 230.34 482.645 230.334 482.703 230.34C482.817 230.348 482.923 230.4 482.999 230.486C483.075 230.571 483.114 230.683 483.108 230.797L481.892 252.018C481.877 252.122 481.826 252.217 481.748 252.288C481.67 252.358 481.57 252.399 481.465 252.402V252.402Z" fill="#1251C3"/>
<path d="M484.294 252.402C484.18 252.394 484.073 252.342 483.998 252.256C483.922 252.171 483.883 252.059 483.888 251.945L485.011 230.746C485.014 230.689 485.028 230.633 485.052 230.581C485.077 230.53 485.111 230.484 485.154 230.446C485.197 230.408 485.247 230.379 485.301 230.361C485.355 230.343 485.412 230.336 485.469 230.34C485.526 230.343 485.582 230.357 485.634 230.381C485.686 230.406 485.733 230.44 485.771 230.483C485.81 230.525 485.84 230.575 485.859 230.629C485.879 230.683 485.887 230.74 485.884 230.798L484.72 252.018C484.707 252.123 484.657 252.219 484.579 252.29C484.501 252.361 484.399 252.401 484.294 252.402Z" fill="#1251C3"/>
<path d="M487.091 252.402C487.034 252.399 486.978 252.385 486.927 252.361C486.875 252.336 486.829 252.301 486.791 252.259C486.754 252.216 486.725 252.166 486.706 252.112C486.688 252.058 486.681 252.001 486.685 251.944L487.871 230.745C487.865 230.683 487.874 230.62 487.895 230.561C487.916 230.502 487.95 230.449 487.994 230.404C488.037 230.359 488.09 230.324 488.149 230.302C488.207 230.279 488.27 230.269 488.332 230.273C488.395 230.277 488.455 230.294 488.511 230.324C488.566 230.353 488.614 230.394 488.652 230.443C488.69 230.493 488.717 230.55 488.731 230.611C488.745 230.672 488.746 230.736 488.734 230.797L487.548 252.017C487.533 252.127 487.478 252.226 487.393 252.297C487.309 252.368 487.201 252.406 487.091 252.402V252.402Z" fill="#1251C3"/>
<path d="M431.737 252.402C431.623 252.394 431.517 252.342 431.441 252.256C431.365 252.171 431.326 252.059 431.332 251.945L432.527 230.746C432.529 230.689 432.541 230.633 432.565 230.582C432.588 230.531 432.622 230.485 432.664 230.447C432.705 230.409 432.755 230.38 432.808 230.361C432.861 230.343 432.918 230.336 432.974 230.34C433.032 230.343 433.088 230.357 433.14 230.381C433.192 230.406 433.239 230.44 433.277 230.483C433.316 230.525 433.346 230.575 433.365 230.629C433.384 230.683 433.393 230.74 433.39 230.798L432.163 252.018C432.151 252.123 432.101 252.219 432.022 252.29C431.944 252.361 431.843 252.401 431.737 252.402V252.402Z" fill="#1251C3"/>
<path d="M434.565 252.402C434.451 252.394 434.344 252.342 434.269 252.256C434.193 252.171 434.154 252.059 434.159 251.945L435.345 230.746C435.347 230.689 435.361 230.633 435.386 230.581C435.41 230.53 435.445 230.484 435.488 230.446C435.53 230.408 435.58 230.379 435.634 230.361C435.688 230.343 435.745 230.336 435.802 230.34C435.859 230.343 435.916 230.357 435.968 230.381C436.02 230.406 436.066 230.44 436.105 230.483C436.143 230.525 436.173 230.575 436.193 230.629C436.212 230.683 436.221 230.74 436.218 230.798L434.991 252.018C434.978 252.123 434.928 252.219 434.85 252.29C434.772 252.361 434.67 252.401 434.565 252.402V252.402Z" fill="#1251C3"/>
<path d="M437.383 252.402C437.326 252.4 437.27 252.386 437.219 252.361C437.167 252.337 437.121 252.302 437.083 252.259C437.046 252.217 437.017 252.167 436.998 252.113C436.98 252.059 436.973 252.002 436.977 251.945L438.163 230.745C438.164 230.688 438.177 230.631 438.201 230.579C438.225 230.527 438.259 230.481 438.302 230.443C438.345 230.404 438.396 230.376 438.451 230.358C438.505 230.34 438.563 230.334 438.62 230.34C438.677 230.343 438.733 230.357 438.784 230.381C438.836 230.406 438.882 230.44 438.919 230.483C438.957 230.526 438.986 230.576 439.004 230.63C439.023 230.684 439.03 230.741 439.025 230.797L437.819 252.018C437.805 252.123 437.752 252.22 437.672 252.291C437.592 252.361 437.489 252.401 437.383 252.402V252.402Z" fill="#1251C3"/>
<path d="M440.21 252.402C440.096 252.394 439.988 252.342 439.911 252.257C439.833 252.172 439.792 252.06 439.795 251.945L440.99 230.746C440.993 230.689 441.007 230.633 441.031 230.581C441.056 230.53 441.091 230.484 441.133 230.446C441.176 230.408 441.226 230.379 441.28 230.361C441.334 230.343 441.391 230.336 441.448 230.34C441.562 230.348 441.668 230.4 441.744 230.486C441.82 230.572 441.859 230.683 441.853 230.798L440.647 252.018C440.632 252.123 440.58 252.22 440.5 252.291C440.42 252.361 440.317 252.401 440.21 252.402V252.402Z" fill="#1251C3"/>
<path d="M443.038 252.402C442.924 252.394 442.818 252.342 442.742 252.256C442.666 252.171 442.627 252.059 442.632 251.945L443.818 230.746C443.82 230.689 443.834 230.633 443.859 230.581C443.883 230.53 443.918 230.484 443.961 230.446C444.003 230.408 444.053 230.379 444.107 230.361C444.161 230.343 444.218 230.336 444.275 230.34C444.333 230.343 444.389 230.357 444.441 230.381C444.493 230.406 444.539 230.44 444.578 230.483C444.617 230.525 444.646 230.575 444.666 230.629C444.685 230.683 444.694 230.74 444.691 230.798L443.423 252.018C443.411 252.116 443.367 252.207 443.297 252.277C443.228 252.347 443.136 252.391 443.038 252.402V252.402Z" fill="#1251C3"/>
<path d="M537.257 260.502C531.33 260.502 526.527 261.24 526.527 262.155V278.707C526.527 280.585 527.273 282.386 528.601 283.714C529.928 285.041 531.729 285.787 533.607 285.787H540.885C542.763 285.787 544.564 285.041 545.892 283.714C547.219 282.386 547.965 280.585 547.965 278.707V262.155C547.997 261.24 543.235 260.502 537.257 260.502Z" fill="url(#paint5_linear_406_1371)"/>
<g style="mix-blend-mode:multiply" opacity="0.24">
<path d="M526.527 262.154V278.706C526.527 280.584 527.273 282.385 528.601 283.713C529.928 285.041 531.729 285.787 533.607 285.787H540.885C541.931 285.789 542.964 285.558 543.91 285.112C544.855 284.667 545.69 284.016 546.354 283.208C533.337 285.059 534.792 278.571 532.38 274.288C530.53 271.013 530.54 263.943 530.654 260.771C528.138 261.156 526.527 261.624 526.527 262.154Z" fill="black"/>
</g>
<path d="M537.257 263.695C542.793 263.695 547.28 263.006 547.28 262.156C547.28 261.306 542.793 260.617 537.257 260.617C531.722 260.617 527.234 261.306 527.234 262.156C527.234 263.006 531.722 263.695 537.257 263.695Z" fill="#242358"/>
<path d="M503.766 285.786H494.752L499.254 262.871L503.766 285.786Z" fill="#242358"/>
<path d="M499.254 262.871H527.409L531.922 285.786H503.767L499.254 262.871Z" fill="white"/>
<path d="M499.254 262.871H527.409L528.449 268.153H500.294L499.254 262.871Z" fill="#3C88FD"/>
<path d="M436.467 124.374C419.416 126.391 406.731 137.63 408.135 149.472C408.738 154.588 411.888 158.986 416.64 162.157L411.264 175.891L424.365 165.796C429.928 167.481 435.784 167.974 441.551 167.241C458.602 165.224 471.286 153.985 469.883 142.143C468.479 130.3 453.518 122.347 436.467 124.374Z" fill="url(#paint6_linear_406_1371)"/>
<path d="M433.649 147.486C433.499 147.48 433.35 147.463 433.202 147.434L432.631 147.351L432.048 147.268C431.92 147.257 431.792 147.257 431.664 147.268C431.382 147.261 431.101 147.299 430.832 147.382C430.581 148.303 430.401 149.241 430.291 150.189C430.146 151.312 430.062 152.622 430.021 154.13C429.778 154.209 429.527 154.258 429.272 154.275C429.094 154.275 428.916 154.254 428.742 154.213C428.555 154.171 428.381 154.085 428.233 153.963C428.069 153.827 427.938 153.657 427.848 153.464C427.724 153.202 427.667 152.912 427.682 152.622C427.687 152.427 427.705 152.233 427.734 152.04C427.734 151.801 427.734 151.624 427.734 151.53C427.741 151.158 427.769 150.787 427.817 150.418C427.869 149.888 427.941 149.274 428.014 148.557C428.087 147.84 428.191 147.081 428.295 146.238C428.399 145.396 428.493 144.575 428.565 143.743C428.638 142.911 428.711 142.142 428.773 141.414C428.836 140.686 428.856 140.063 428.856 139.564V139.22C428.845 139.125 428.871 139.03 428.929 138.954C428.987 138.878 429.073 138.828 429.168 138.815C429.322 138.783 429.479 138.765 429.636 138.763L430.499 138.992C430.667 139.044 430.813 139.15 430.915 139.293C431.027 139.451 431.111 139.627 431.165 139.813C431.22 140.024 431.259 140.24 431.279 140.458C431.279 140.686 431.279 140.915 431.279 141.123C431.272 141.356 431.251 141.589 431.217 141.82C431.217 142.121 431.144 142.454 431.102 142.807C431.061 143.161 431.019 143.525 430.988 143.847C430.95 144.147 430.929 144.449 430.925 144.752C430.908 144.891 430.939 145.032 431.013 145.151C431.086 145.27 431.199 145.36 431.331 145.407C431.718 145.503 432.117 145.545 432.516 145.531H432.859C433.07 145.544 433.282 145.544 433.493 145.531C433.618 145.524 433.743 145.524 433.868 145.531H434.065C434.315 144.492 434.544 143.327 434.741 142.048C434.939 140.77 435.147 139.314 435.334 137.682C435.427 137.027 435.635 136.694 435.937 136.642H436.145C436.457 136.631 436.768 136.684 437.06 136.798C437.165 136.84 437.259 136.904 437.337 136.987C437.414 137.07 437.472 137.169 437.507 137.276C437.507 137.744 437.434 138.378 437.34 139.2C437.247 140.021 437.153 140.926 437.039 141.934C436.924 142.943 436.81 144.013 436.685 145.116C436.561 146.218 436.436 147.32 436.321 148.359C436.207 149.399 436.114 150.387 436.051 151.291C435.989 152.196 435.947 152.934 435.947 153.506C435.947 153.818 435.947 154.109 435.947 154.39C435.947 154.67 435.947 154.941 435.999 155.211C435.994 155.35 435.947 155.484 435.864 155.596C435.83 155.654 435.782 155.703 435.723 155.738C435.665 155.773 435.599 155.792 435.531 155.793C435.231 155.826 434.927 155.784 434.647 155.67C434.368 155.555 434.121 155.372 433.93 155.138C433.598 154.565 433.443 153.907 433.483 153.246C433.483 153.132 433.483 152.986 433.483 152.789C433.483 152.591 433.483 152.393 433.483 152.165C433.483 151.936 433.483 151.738 433.483 151.551C433.483 151.364 433.483 151.208 433.483 151.083C433.483 150.959 433.483 150.699 433.483 150.366C433.483 150.033 433.545 149.69 433.577 149.326C433.608 148.962 433.649 148.609 433.681 148.287C433.712 147.964 433.681 147.694 433.681 147.528L433.649 147.486Z" fill="#201851"/>
<path d="M442.768 152.674C442.765 152.833 442.726 152.989 442.653 153.131C442.535 153.335 442.388 153.52 442.217 153.682C441.913 153.683 441.61 153.655 441.312 153.599C441.029 153.546 440.767 153.415 440.555 153.22C440.344 153.025 440.192 152.775 440.116 152.497C439.981 152.071 439.921 151.624 439.94 151.176C439.941 150.844 439.906 150.513 439.836 150.189C439.773 149.867 439.742 149.539 439.742 149.211C439.743 148.276 439.684 147.342 439.565 146.415C439.447 145.487 439.388 144.553 439.389 143.618C439.381 143.434 439.422 143.252 439.508 143.089C439.594 142.927 439.721 142.79 439.877 142.693L440.428 142.568L441 142.464C441.23 142.52 441.441 142.635 441.614 142.797L441.988 143.212C441.978 143.406 441.978 143.601 441.988 143.795C441.988 143.982 441.988 144.19 441.988 144.398C441.988 145.125 441.988 145.905 442.102 146.737C442.217 147.569 442.269 148.349 442.362 149.097C442.456 149.846 442.549 150.532 442.643 151.176C442.736 151.821 442.788 152.216 442.83 152.59L442.768 152.674ZM440.231 136.444C440.303 136.385 440.386 136.342 440.475 136.317C440.565 136.292 440.659 136.286 440.751 136.298C440.948 136.3 441.145 136.331 441.333 136.392C441.534 136.46 441.723 136.558 441.894 136.683C442.058 136.797 442.202 136.938 442.321 137.099C442.42 137.243 442.475 137.413 442.476 137.588C442.495 137.723 442.48 137.862 442.433 137.99C442.386 138.119 442.308 138.234 442.206 138.326C441.974 138.463 441.706 138.528 441.437 138.513C441.219 138.512 441.002 138.48 440.792 138.419C440.587 138.357 440.388 138.273 440.2 138.17C440.047 138.091 439.906 137.989 439.784 137.868C439.737 137.832 439.697 137.787 439.669 137.735C439.64 137.683 439.623 137.626 439.617 137.567C439.617 137.36 439.642 137.154 439.69 136.953C439.801 136.723 439.994 136.541 440.231 136.444V136.444Z" fill="#201851"/>
<path d="M445.306 153.766C445.306 153.516 445.482 153.277 445.846 153.048C446.014 152.938 446.188 152.838 446.366 152.747C446.48 152.681 446.609 152.646 446.74 152.643C447.076 152.695 447.391 152.835 447.655 153.048C447.797 153.153 447.915 153.288 448.001 153.442C448.087 153.596 448.139 153.766 448.154 153.942C448.149 153.977 448.149 154.012 448.154 154.046C448.161 154.077 448.161 154.109 448.154 154.14C448.162 154.377 448.1 154.612 447.978 154.816C447.863 155.024 447.728 155.128 447.583 155.128C447.475 155.14 447.374 155.183 447.291 155.252C447.206 155.314 447.105 155.35 447 155.356C446.605 155.259 446.242 155.062 445.945 154.783C445.648 154.504 445.428 154.154 445.306 153.766ZM447.583 151.686C446.605 151.499 446.085 151.021 446.023 150.251C446.023 150.033 446.023 149.836 446.023 149.638V149.087C446.03 148.071 446.102 147.057 446.241 146.051C446.387 144.939 446.616 143.743 446.917 142.454C447.364 140.499 447.697 138.981 447.957 137.9C448.217 136.818 448.321 136.153 448.362 135.883C448.379 135.793 448.415 135.708 448.467 135.632C448.519 135.557 448.586 135.494 448.664 135.446C448.828 135.353 449.015 135.306 449.205 135.311C449.31 135.315 449.415 135.333 449.516 135.363L450.494 135.654C450.64 135.696 450.769 135.783 450.862 135.902C450.955 136.022 451.008 136.168 451.014 136.319C450.691 138.776 450.202 141.208 449.548 143.597C448.927 145.895 448.578 148.257 448.508 150.636V151.062C448.502 151.149 448.477 151.234 448.434 151.31C448.391 151.385 448.331 151.45 448.258 151.499C448.122 151.623 447.944 151.694 447.759 151.697L447.583 151.686Z" fill="#201851"/>
<path d="M147.961 291.868C147.13 295.766 148.336 300.403 147.66 304.406C146.797 309.428 143.615 310.863 141.422 314.023C138.864 317.777 137.699 324.795 138.625 330.783C139.207 334.485 140.475 337.593 141.411 341.004C142.347 344.414 142.981 348.573 142.181 352.108C140.964 357.431 134.487 361.579 134.487 384.172C134.487 404.789 149.209 412.805 153.389 417.858V284.143L151.496 285.972C149.713 287.505 148.473 289.573 147.961 291.868V291.868Z" fill="url(#paint7_linear_406_1371)"/>
<path d="M165.148 341.004C166.094 337.593 167.352 334.485 167.934 330.783C168.87 324.795 167.705 317.777 165.148 314.023C162.996 310.904 159.804 309.428 158.909 304.406C158.223 300.403 159.44 295.766 158.608 291.868C158.08 289.569 156.826 287.502 155.031 285.972L153.139 284.143V417.858C157.298 412.805 172.03 404.789 172.03 384.172C172.03 361.579 165.553 357.431 164.347 352.108C163.588 348.573 164.212 344.403 165.148 341.004Z" fill="url(#paint8_linear_406_1371)"/>
<path d="M172.582 366.382C171.469 367.859 171.958 370.063 170.96 371.581C169.692 373.504 166.905 373.431 164.722 374.294C163.462 374.834 162.393 375.738 161.652 376.891C160.91 378.043 160.531 379.391 160.563 380.761C160.795 382.432 161.192 384.076 161.748 385.669C162.021 386.468 162.11 387.319 162.009 388.157C161.908 388.996 161.62 389.801 161.166 390.514C159.575 392.499 153.753 392.853 151.279 402.376C149.012 411.068 160.324 417.629 163.225 420.654L177.957 364.303L176.2 364.667C174.829 364.792 173.547 365.4 172.582 366.382V366.382Z" fill="url(#paint9_linear_406_1371)"/>
<path d="M180.306 374.034C180.182 372.194 181.7 370.499 181.44 368.68C181.079 367.354 180.257 366.2 179.121 365.426L177.759 364.303L163.079 420.675C167.081 419.448 180.161 419.24 182.427 410.548C184.902 401.025 179.995 397.875 179.579 395.369C179.526 394.526 179.665 393.682 179.985 392.9C180.306 392.118 180.8 391.42 181.429 390.857C182.69 389.733 183.839 388.49 184.86 387.145C185.556 385.967 185.884 384.608 185.8 383.242C185.717 381.876 185.227 380.567 184.392 379.482C182.947 377.621 180.473 376.332 180.306 374.034Z" fill="url(#paint10_linear_406_1371)"/>
<path d="M161.301 426.248C156.913 419.667 129.07 414.479 129.07 414.479C129.07 414.479 138.251 424.314 138.251 430.927C138.069 433.485 137.552 436.009 136.712 438.433C136.005 440.665 135.832 443.032 136.207 445.342C136.583 447.653 137.497 449.843 138.876 451.735C140.254 453.628 142.058 455.17 144.142 456.236C146.226 457.303 148.532 457.864 150.873 457.875H151.736C153.524 454.07 155.26 449.558 155.26 446.512C155.26 440.201 165.688 432.84 161.301 426.248Z" fill="#373075"/>
<path d="M189.321 438.433C188.47 436.011 187.942 433.487 187.751 430.927C187.751 424.314 196.931 414.479 196.931 414.479H129.07C129.07 414.479 156.913 419.677 161.301 426.248C165.688 432.819 155.26 440.149 155.26 446.501C155.26 449.62 153.524 454.06 151.736 457.865H175.181C177.519 457.85 179.821 457.286 181.901 456.219C183.982 455.152 185.782 453.61 187.158 451.72C188.534 449.829 189.446 447.642 189.822 445.334C190.198 443.026 190.026 440.662 189.321 438.433Z" fill="#232059"/>
<path d="M606.583 420.259C608.662 417.91 618.019 414.333 621.96 408.552C625.9 402.772 639.634 382.56 650.031 386.552C660.428 390.545 641.007 404.601 635.226 411.661C629.445 418.72 628.988 439.161 613.694 439.161C598.4 439.161 602.07 425.479 606.583 420.259Z" fill="#3D86FA"/>
<path d="M605.699 367.652C605.699 367.652 612.977 367.871 612.322 378.164C611.667 388.457 608.87 396.14 609.432 401.651C609.993 407.161 615.005 428.225 605.699 429.639C596.394 431.053 585.664 427.882 590.322 412.713C594.98 397.544 590.749 364.7 605.699 367.652Z" fill="#1351BE"/>
<path d="M603.442 379.899C603.442 379.899 596.664 442.136 596.664 463.481" stroke="#231F20" stroke-width="1.08" stroke-miterlimit="10" stroke-linecap="round"/>
<path d="M598.733 463.512C598.733 463.512 602.653 425.241 645.187 392.147" stroke="#231F20" stroke-width="1.08" stroke-miterlimit="10" stroke-linecap="round"/>
<path d="M528.772 413.075C528.356 415.352 529.916 421.632 528.772 423.607C527.629 425.583 525.518 429.928 527.369 433.755C529.219 437.581 531.528 448.238 518.874 448.56C506.221 448.882 508.415 434.836 509.819 432.101C511.222 429.367 513.135 426.737 513.769 421.06C514.404 415.383 514.986 413.397 521.942 408.168C528.897 402.938 529.916 401.929 531.517 403.884C533.118 405.839 529.594 408.48 528.772 413.075Z" fill="#423981"/>
<path d="M523.979 415.125C523.979 415.125 513.727 436.823 520.319 461.454" stroke="#231F20" stroke-width="0.52" stroke-miterlimit="10" stroke-linecap="round"/>
<path d="M519.872 428.12L525.642 421.955" stroke="#231F20" stroke-width="0.52" stroke-miterlimit="10" stroke-linecap="round"/>
<path d="M518.697 435.024L515.11 429.098" stroke="#231F20" stroke-width="0.52" stroke-miterlimit="10" stroke-linecap="round"/>
<path d="M518.114 443.559L525.382 437.113" stroke="#231F20" stroke-width="0.52" stroke-miterlimit="10" stroke-linecap="round"/>
<defs>
<linearGradient id="paint0_linear_406_1371" x1="64.7028" y1="270.889" x2="151.757" y2="99.5361" gradientUnits="userSpaceOnUse">
<stop stop-color="#F69A5E"/>
<stop offset="0.29" stop-color="#FAAC60"/>
<stop offset="0.71" stop-color="#FEC062"/>
<stop offset="1" stop-color="#FFC763"/>
</linearGradient>
<linearGradient id="paint1_linear_406_1371" x1="515.121" y1="265.439" x2="602.175" y2="94.0867" gradientUnits="userSpaceOnUse">
<stop stop-color="#F69A5E"/>
<stop offset="0.29" stop-color="#FAAC60"/>
<stop offset="0.71" stop-color="#FEC062"/>
<stop offset="1" stop-color="#FFC763"/>
</linearGradient>
<linearGradient id="paint2_linear_406_1371" x1="529.53" y1="256.56" x2="408.031" y2="315.532" gradientUnits="userSpaceOnUse">
<stop offset="0.05" stop-color="#FBD15B"/>
<stop offset="1" stop-color="#F9A45A"/>
</linearGradient>
<linearGradient id="paint3_linear_406_1371" x1="490.573" y1="209.743" x2="438.464" y2="267.041" gradientUnits="userSpaceOnUse">
<stop offset="0.05" stop-color="#FAD05A"/>
<stop offset="0.33" stop-color="#FAC85A"/>
<stop offset="0.77" stop-color="#F9B159"/>
<stop offset="1" stop-color="#F8A359"/>
</linearGradient>
<linearGradient id="paint4_linear_406_1371" x1="504.017" y1="221.97" x2="451.907" y2="279.268" gradientUnits="userSpaceOnUse">
<stop offset="0.05" stop-color="#FAD05A"/>
<stop offset="0.33" stop-color="#FAC85A"/>
<stop offset="0.77" stop-color="#F9B159"/>
<stop offset="1" stop-color="#F8A359"/>
</linearGradient>
<linearGradient id="paint5_linear_406_1371" x1="521.848" y1="282.003" x2="553.029" y2="262.342" gradientUnits="userSpaceOnUse">
<stop stop-color="#232059"/>
<stop offset="0.2" stop-color="#28255B"/>
<stop offset="0.44" stop-color="#373362"/>
<stop offset="0.71" stop-color="#504A6D"/>
<stop offset="0.88" stop-color="#635B75"/>
</linearGradient>
<linearGradient id="paint6_linear_406_1371" x1="408.301" y1="174.394" x2="457.448" y2="128.647" gradientUnits="userSpaceOnUse">
<stop stop-color="#F4AA2E"/>
<stop offset="1" stop-color="#FFCA5A"/>
</linearGradient>
<linearGradient id="paint7_linear_406_1371" x1="143.979" y1="417.858" x2="143.979" y2="284.143" gradientUnits="userSpaceOnUse">
<stop stop-color="#232059"/>
<stop offset="1" stop-color="#AD69DA"/>
</linearGradient>
<linearGradient id="paint8_linear_406_1371" x1="162.632" y1="417.858" x2="162.632" y2="284.143" gradientUnits="userSpaceOnUse">
<stop stop-color="#232059"/>
<stop offset="1" stop-color="#AD69DA"/>
</linearGradient>
<linearGradient id="paint9_linear_406_1371" x1="173.778" y1="354.072" x2="159.513" y2="403.811" gradientUnits="userSpaceOnUse">
<stop stop-color="#FFF5B7"/>
<stop offset="1" stop-color="#D17E2C"/>
</linearGradient>
<linearGradient id="paint10_linear_406_1371" x1="188.437" y1="358.272" x2="174.172" y2="408.012" gradientUnits="userSpaceOnUse">
<stop stop-color="#FFF5B7"/>
<stop offset="1" stop-color="#D17E2C"/>
</linearGradient>
</defs>
</svg>
