<svg width="704" height="500" fill="none" xmlns="http://www.w3.org/2000/svg"><path d="M361.963 468.544c125.608 0 227.434-3.776 227.434-8.432 0-4.657-101.826-8.432-227.434-8.432-125.609 0-227.434 3.775-227.434 8.432 0 4.656 101.825 8.432 227.434 8.432z" fill="#C7CCD1"/><path d="M133.978 243.409c-28.457-1.788-61.228-33.946-52.578-53.773 8.65-19.827 10.626-33.031 1.882-46.464-7.943-12.185 21.688-63.796 10.397-83.57 4.159-3.983 10.012-6.239 15.377-4.378 6.81 2.319 10.2 9.825 12.341 16.698a159.538 159.538 0 015.417 23.102c1.144 7.486 1.955 15.543 6.79 21.366 5.323 6.394 14.285 8.577 20.201 14.42a22.043 22.043 0 016.134 19.006c-1.04 6.03-4.491 11.301-6.966 16.885-2.474 5.583-3.909 12.33-.873 17.674 2.682 4.669 8.089 6.977 11.842 10.834 4.793 4.928 6.571 12.279 5.718 19.099-.852 6.821-4.107 13.152-8.203 18.715a63.87 63.87 0 01-7.111 8.047 57.325 57.325 0 01-20.368 2.339z" fill="url(#paint0_linear_406_1371)"/><path d="M105.937 272.261c-6.05-13.1-27.905-22.208-36.39-29.434-8.889-7.621-17.05-17.841-18.745-29.808-1.913-13.37 5.396-20.523 11.551-31.024 10.19-17.405-10.397-34.477-3.441-51.985 3.597-9.004 14.181-13.028 19.879-20.867 4.554-6.238 5.573-14.379 6.238-22.104s1.112-15.772 4.866-22.561a20.792 20.792 0 013.878-4.97c11.239 19.754-18.392 71.385-10.397 83.571 8.744 13.433 6.768 26.595-1.882 46.464-8.65 19.868 24.152 51.985 52.577 53.825a57.337 57.337 0 0020.368-2.391 63.67 63.67 0 01-13.703 10.002c-12.081 6.612-27.032 9.908-34.799 21.282z" fill="#F59059"/><path d="M105.937 116.44v311.265m0-270.726l16.438-20.482m-16.438 62.6l16.438-20.482m-16.438 2.058l-16.438-20.482m16.438 58.057l-16.438-20.472m16.438 44.998l16.438-20.471" stroke="#231F20" stroke-width="1.08" stroke-miterlimit="10" stroke-linecap="round"/><path d="M584.396 237.95c-28.425-1.82-61.228-33.946-52.577-53.825 8.65-19.879 10.625-33.032 1.882-46.465-7.944-12.185 21.698-63.795 10.397-83.57 4.158-3.983 10.012-6.239 15.387-4.378 6.8 2.319 10.189 9.836 12.331 16.698a158.502 158.502 0 015.365 23.206c1.143 7.486 1.954 15.533 6.799 21.355 5.313 6.395 14.286 8.578 20.191 14.421a22.048 22.048 0 016.135 19.016c-1.04 6.02-4.492 11.291-6.966 16.874-2.475 5.584-3.91 12.331-.863 17.675 2.672 4.668 8.088 6.977 11.831 10.834 4.793 4.928 6.571 12.279 5.719 19.099-.853 6.821-4.107 13.152-8.204 18.715a64.562 64.562 0 01-7.111 8.057 57.574 57.574 0 01-20.316 2.288z" fill="url(#paint1_linear_406_1371)"/><path d="M556.356 266.802c-6.051-13.1-27.906-22.208-36.39-29.434-8.92-7.621-17.072-17.852-18.777-29.798-1.913-13.381 5.396-20.534 11.551-31.035 10.189-17.404-10.397-34.466-3.441-51.985 3.597-9.003 14.181-13.027 19.879-20.877 4.554-6.238 5.573-14.379 6.238-22.104s1.102-15.772 4.856-22.55a20.764 20.764 0 013.878-4.98c11.249 19.753-18.393 71.385-10.397 83.57 8.743 13.433 6.768 26.595-1.882 46.464-8.651 19.869 24.152 51.985 52.577 53.825a57.567 57.567 0 0020.368-2.381 64.341 64.341 0 01-13.61 9.971c-12.133 6.644-27.084 9.94-34.85 21.314z" fill="#F59059"/><path d="M556.355 110.982v311.265m0-270.728l16.438-20.482m-16.438 62.6l16.438-20.482m-16.438 2.059l-16.438-20.472m16.438 58.047l-16.438-20.472m16.438 44.998l16.438-20.471" stroke="#231F20" stroke-width="1.08" stroke-miterlimit="10" stroke-linecap="round"/><path d="M234.039 383.477l-21.886 13.058a1.735 1.735 0 00-.814 1.799c.043.23.133.45.263.644l30.442 45.57a1.802 1.802 0 002.704.344c1.705-1.581 4.158-4.398 4.002-7.559-.239-4.804-5.541-33.905-4.959-34.747a18.495 18.495 0 012.974-2.526l-12.726-16.583z" fill="#242358"/><path d="M235.837 396.536c-2.079.863-6.363-10.335-6.363-10.335l4.564-2.734 12.726 16.635a18.531 18.531 0 00-2.973 2.526s-5.854-6.945-7.954-6.092z" fill="#F69D80"/><path d="M244.748 444.923a1.8 1.8 0 01-2.703-.343l-30.474-45.57a1.738 1.738 0 01-.263-.644 1.736 1.736 0 01.3-1.33c.138-.19.313-.349.514-.469l2.246-1.341 21.948 33.27c7.278-5.646 10.948-1.674 10.958-1.674.759 4.855 1.362 8.952 1.446 10.501.176 3.202-2.267 5.999-3.972 7.6z" fill="#E1E7EF"/><path d="M259.282 433.561l1.279 25.462a1.72 1.72 0 01-1.043 1.679 1.708 1.708 0 01-.683.14h-54.802a1.783 1.783 0 01-1.377-.622 1.774 1.774 0 01-.401-1.457c.353-2.298 1.341-5.906 4.055-7.528 4.158-2.474 31.263-14.233 31.638-15.19.289-1.269.439-2.566.447-3.867l20.887 1.383z" fill="#373075"/><path d="M247.419 439.319c.447 2.225 12.134-.448 12.134-.448l-.271-5.312-20.887-1.352a17.915 17.915 0 01-.447 3.868s9.024 1.008 9.471 3.244z" fill="#F69D80"/><path d="M202.213 458.792a1.79 1.79 0 00.401 1.458 1.777 1.777 0 001.377.622h54.803a1.72 1.72 0 001.254-.538 1.729 1.729 0 00.472-1.282l-.125-2.609-39.893.26c.634-9.212-4.7-10.033-4.7-10.044-4.46 2.08-8.203 3.837-9.534 4.637-2.672 1.591-3.66 5.199-4.055 7.496z" fill="#E1E7EF"/><path d="M294.831 234.268s-22.541-1.694-30.443-1.694l-50.227-4.575s4.585 88.218 10.345 118.422c5.76 30.203 13.89 85.785 13.89 85.785s12.3 3.389 20.888 1.352c0 0-.531-15.211-1.103-35.953 17.935-14.098 51.892-41.723 55.104-51.184 4.419-12.913-18.454-112.153-18.454-112.153zm-37.513 126.667c-.603-30.744-.821-62.06.416-73.372l22.032 49.407c-3.411 2.142-13.589 13.599-22.448 23.965z" fill="#1251C3"/><path d="M257.714 287.563l1.04-18.423s20.794 56.476 21.012 67.829l-22.052-49.406zm-.416 73.372l.874 36.67 5.843-4.627-4.772-34.299-1.945 2.256z" fill="#094082"/><path d="M327.362 139.375c-6.103-7.797-35.672-24.828-35.672-24.828-15.845-5.843-50.155-13.214-59.263-10.594-9.108 2.62-32.542 49.656-32.542 49.656.259-3.899-11.354-43.376-11.687-45.924-.332-2.547.676-3.472-9.066-3.982-9.742-.509-9.16.853-9.16.853 4.242 54.137 10.397 83.456 23.914 85.484 13.516 2.027 25.41-16.77 25.41-16.77-5.417 20.159-5.084 54.729-5.084 54.729a158.439 158.439 0 0032.875 9.358c17.799 2.88 47.826-3.057 47.826-3.057-1.04-8.131 2.537-24.735 2.537-24.735s47.285 4.398 50.831-3.732c3.545-8.131-14.816-58.66-20.919-66.458zm-26.18 53.254c2.163-11.822 7.756-26.689 7.756-26.689l11.312 23.507c-2.422-.374-19.068 3.182-19.068 3.182z" fill="#373075"/><path d="M320.25 189.447l-1.903-3.971s9.461.831 14.483 3.503a67.91 67.91 0 00-12.58.468zm-101.006-16.178l7.122-33.052s-11.01 19.494-14.233 29.829c-3.224 10.334-2.34 16.999-13.288 19.858 0 0 8.879.031 20.399-16.635zm78.123 36.265s-7.923-.551-8.131-1.227a29.562 29.562 0 01-.333-4.408 23.334 23.334 0 00-7.163-2.246c-8.141-1.039-28.852 2.797-33.177 3.941-4.325 1.144-17.155 6.862-17.155 6.862s1.144 5.843 5.594 7.371c4.45 1.529 22.364-6.103 31.648-3.94 9.285 2.162 26.18 18.382 26.18 18.382a121.7 121.7 0 012.537-24.735z" fill="#242358"/><path d="M250.912 206.789a1.34 1.34 0 01-.738-.229 1.172 1.172 0 01-.52-.915l-.499-13.1a1.174 1.174 0 01.946-1.185l10.231-2.444c.328-.081.674-.032.967.136a1.19 1.19 0 01.561.748l2.922 12.092a1.165 1.165 0 01-.873 1.393l-12.643 3.452a1.324 1.324 0 01-.354.052zm.791-13.381l.405 10.646 9.971-2.724-2.381-9.835-7.995 1.913z" fill="#EE5763"/><path d="M289.788 193.897s.634 10.844-.551 14.41c0 0-9.701-1.996-11.572-1.143-1.872.852-13.464.967-14.868-.302-1.404-1.268-2.62-.624-3.254-1.694a18.51 18.51 0 01-1.227-2.912s-2.079-2.079-2.298-3.119a2.714 2.714 0 01.219-1.861s-2.08-1.591-2.205-2.817c-.124-1.227 1.435-1.965 1.435-1.965a3.047 3.047 0 01-1.653-1.809c-.291-1.227-.083-2.371 1.32-2.08 1.404.291 9.358-1.778 10.626-1.237 1.269.541 12.549 3.816 13.308 4.793.759.977 10.72 1.736 10.72 1.736z" fill="#F69D80"/><path d="M255.03 202.007l-3.951-16.095c-.447-1.341-6.747-.977-14.192.832-7.444 1.809-13.204 4.388-12.975 5.781l3.92 16.094a12.08 12.08 0 0014.555 8.879l3.722-.915a12.094 12.094 0 004.282-1.975 12.08 12.08 0 004.639-12.601z" fill="#EE5763"/><path d="M238.116 191.684c7.281-1.773 12.917-4.301 12.59-5.645-.328-1.345-6.495-.997-13.776.776-7.28 1.774-12.917 4.301-12.589 5.646.327 1.344 6.495.997 13.775-.777z" fill="#A53447"/><path d="M225.21 197.838l2.631 10.792a12.081 12.081 0 0014.556 8.879c-9.95 0-15.045-12.341-17.187-19.671z" fill="#fff" opacity=".36"/><path d="M255.467 192.441a10.914 10.914 0 012.714-.281c1.039.104 4.366 0 4.366 0a46.567 46.567 0 00-6.238-.956 4.483 4.483 0 01-2.568-.863 2.592 2.592 0 001.726 2.1z" fill="#CD7860"/><path d="M187.138 104.93l-1.102-6.311a22.028 22.028 0 003.046-5.635c.676-2.454 7.371-9.493 8.047-10.002.676-.51 1.653-1.643 1.102-2.08a5.195 5.195 0 00-5.126-.852c-2.536 1.04-7.537 5.042-7.662 5.042s-2.672-7.704-3.473-9.357c-.8-1.653-5.198-12.081-5.978-12.123a2.802 2.802 0 00-2.079 1.445s-.676-3.119-2.454-2.838a2.318 2.318 0 00-1.861 2.204 2.237 2.237 0 00-2.079 1.736 28.5 28.5 0 000 4.783 1.636 1.636 0 00-1.726.964 1.632 1.632 0 00-.136.69c-.083 1.87.292 7.88.427 8.899.135 1.019 3.119 14.275 4.398 15.502 1.278 1.227.852 7.881.852 7.881s8.359 2.62 15.804.052zm113.296-48.802s2.516 31.42-7.538 37.71c-10.054 6.29-27.656 0-30.152-13.828-2.495-13.828-2.505-26.398 0-28.904 2.506-2.506 36.432-11.312 37.69 5.022z" fill="#F69D80"/><path d="M300.434 68.697s2.516-5.032 6.238-2.516c3.722 2.516-1.31 13.61-6.935 12.476-5.624-1.133.697-9.96.697-9.96zm-37.669 2.121s-2.516-5.032-6.238-2.516c-3.722 2.516 1.31 13.61 6.935 12.476 5.625-1.133-.697-9.96-.697-9.96zm28.498 23.571l.426 20.159s-7.194 6.02-16.177 3.556c-8.983-2.464-7.632-9.991-7.632-9.991l2.88-11.104 20.503-2.62z" fill="#F69D80"/><path d="M270.761 97.009l-1.654 6.404c2.506 3.556 8.994 8.921 22.323-1.227l-.167-7.797-20.502 2.62z" fill="#CD7860"/><path d="M303.386 45.325c-2.547-.593-3.306-4.159-5.427-4.065a17.506 17.506 0 00-4.315.842s-2.079-11.77-10.085-9.908c-8.006 1.86-24.152 10.251-24.953 15.845-.8 5.593-3.732 6.435-1.778 7.704 1.955 1.268 2.964 12.123 2.964 12.123s2.713 25.93 5.25 27.79c2.537 1.862 8.141 8.984 15.169 8.901 7.029-.084 16.23-4.918 17.186-8.65.957-3.733 5.428-28.956 5.324-33.635-.104-4.678 3.202-16.354.665-16.947zm-7.714 36.473c-1.477 1.528-8.599-2.288-10.293-1.269-1.695 1.02-6.145 1.487-8.942.676-2.797-.81-7.07 3.265-9.825 3.265-2.755 0-3.816-17.852-3.816-17.852a14.315 14.315 0 002.963-6.04c.645-3.39 8.141-4.492 13.225-4.326 5.085.167 13.257-7.413 13.257-7.413s-1.04 4.024-1.394 5.199c-.353 1.175 6.946 3.65 9.108 7.454 2.163 3.806-2.797 18.788-4.283 20.306z" fill="#373075"/><path d="M267.808 95.023c-4.076-3.119-6.238-13.766-7.216-20.627 1.04 7.808 2.776 20.045 4.492 21.303 2.547 1.861 8.141 8.983 15.169 8.9a26.259 26.259 0 0011.156-3.119c-12.695 4.117-17.457-1.758-23.601-6.457z" fill="#1F1A4D"/><path d="M274.743 85.302h12.549s-.759 4.793-6.8 4.793c-4.637 0-5.749-4.793-5.749-4.793z" fill="#F69D80"/><path d="M324.918 386.886l59.939 57.214m-15.44-57.214L309.468 444.1" stroke="#000" stroke-width="2.42" stroke-miterlimit="10"/><path d="M305.673 459.146l28.301-106.247m54.511 106.247l-28.3-106.247" stroke="#000" stroke-width="2.42" stroke-miterlimit="10" stroke-linecap="round"/><path d="M376.715 335.047h-56.008c-5.731 0-10.376 4.645-10.376 10.376v4.325c0 5.731 4.645 10.376 10.376 10.376h56.008c5.731 0 10.376-4.645 10.376-10.376v-4.325c0-5.731-4.645-10.376-10.376-10.376z" fill="#A53447"/><path d="M321.601 356.037h50.945a12.346 12.346 0 0010.616-6.051 8.606 8.606 0 000-8.744 12.356 12.356 0 00-10.605-6.051h-50.945a12.337 12.337 0 00-10.605 6.051 8.611 8.611 0 000 8.744 12.331 12.331 0 0010.594 6.051z" fill="#EE5763"/><path d="M366.766 445.547l-4.377 15.138a1.65 1.65 0 001.528 2.079l39.041 1.549a1.783 1.783 0 001.788-2.277c-.665-2.464-2.079-6.051-4.554-6.789l-18.881-5.593.323-3.494-14.868-.613z" fill="#373075"/><path d="M381.31 449.674s-5.864 0-6.165 1.591c-.302 1.591-9.461-1.996-9.461-1.996l1.039-3.722 14.868.634-.281 3.493z" fill="#F69E80"/><path d="M363.916 462.785l39.041 1.549a1.795 1.795 0 001.486-.689 1.787 1.787 0 00.302-1.609c-.665-2.464-2.079-6.051-4.554-6.789l-3.223-.946c-2.713 1.039-3.389 7.371-3.389 7.371l-31.191-1.039a1.655 1.655 0 001.528 2.152z" fill="#E1E7EF"/><path d="M453.819 441.18l6.238 16.198a1.697 1.697 0 002.308.926l31.825-15.138a1.695 1.695 0 00.928-1.15 1.677 1.677 0 00-.335-1.439c-1.216-1.477-3.286-3.338-5.916-3.223-4.325.187-18.423 1.393-19.827 1.039a13.948 13.948 0 01-3.535-1.83l-11.686 4.617z" fill="#242358"/><path d="M467.814 437.988s-3.826 2.163-2.995 3.525c.832 1.362-9.835 2.786-9.835 2.786l-1.206-3.119 11.696-4.575s1.861 1.155 2.34 1.383z" fill="#F69E80"/><path d="M462.334 458.303l31.825-15.138a1.695 1.695 0 00.928-1.15 1.687 1.687 0 00-.336-1.439c-1.216-1.477-3.285-3.338-5.916-3.223-.811 0-1.954.104-3.295.197l3.171 5.895-28.862 13.516.176.447a1.698 1.698 0 002.309.895z" fill="#E1E7EF"/><path d="M329.399 295.685s-17.03 39.144-4.835 46.516c12.196 7.371 65.709 17.03 65.709 17.03s-6.56 19.068-12.175 39.509c-5.614 20.44-11.332 46.786-11.332 46.786s10.397 2.287 14.867.634l34.955-82.136s8.214 23.726 14.15 33.271c5.937 9.544 23.082 43.885 23.082 43.885s8.983-2.027 11.696-4.575c0 0-24.745-94.217-30.151-99.977-5.406-5.76-53.888-27.115-55.104-29.995-1.216-2.88-3.556-11.821-3.556-11.821l-47.306.873z" fill="#373075"/><path d="M380.23 306.633s-13.516-2.963-18.548-3.577c-5.032-.613-26.668.489-33.478-4.45l1.195-2.9 47.275-.894 3.556 11.821zm48.043 40.839c3.307-15.418-8.39-16.094-16.011-21.355-7.621-5.261-46.433-16.095-46.433-16.095s22.364 7.965 29.32 10.844c6.955 2.88 23.382 11.52 25.774 18.642 2.391 7.122-4.336 24.568-4.336 24.568s8.214 23.726 14.15 33.271c1.695 2.724 4.326 7.506 7.195 12.933-4.658-8.982-12.965-47.389-9.659-62.808z" fill="#242259"/><path d="M332.445 285.538l-3.047 10.148s19.692 3.171 27.448 1.777c7.757-1.393 19.827-2.672 19.827-2.672l-1.268-8.598-42.96-.655z" fill="#094082"/><path d="M373.877 215.889s15.419 5.593 17.966 10.085c2.547 4.491 16.011 30.328 16.011 30.328s9.493-32.106 10.335-32.616c.842-.509 10.002 1.518 10.085 2.08.083.561-5.594 57.37-10.501 59.741-4.907 2.37-16.354 0-16.354 0l-14.317-24.132-5.022 12.55 11.437 3.649v8.39s-61.612 1.861-63.474-.935c-1.861-2.797-8.556-54.481-2.287-59.731 6.269-5.251 27.115-11.821 27.115-11.821l19.006 2.412z" fill="#1251C3"/><path d="M345.025 239.906l-.634 26.824 37.689 7.195s-24.745-8.848-28.81-10.189c-4.065-1.341-8.245-23.83-8.245-23.83zm42.077 21.469s3.046-7.278 3.213-9.493c.166-2.214-1.612-11.52-1.612-11.52s2.88 13.215 3.119 17.623c.239 4.409 9.576 27.542 9.576 27.542l-14.296-24.152zm20.752-5.074l-1.352 4.159.146-6.467 1.206 2.308z" fill="#094082"/><path d="M393.517 277.573l12.476 2.579c.759.176 13.984 3.306 13.984 3.94 0 .634-.509 2.08-.894 2.08s-25.618-.25-25.618-.25l.052-8.349zm24.672-53.762l1.789-5.448s-1.903-5.011-1.342-7.08a38.371 38.371 0 001.175-8.152c-.156-1.039-1.819-5.801-1.039-6.56.779-.759 3.763 1.04 4.294 2.589.53 1.549 1.289 5.687 1.289 5.687s4.252-5.573 4.741-6.405c.489-.831 7.163-8.151 8.463-8.037a3.22 3.22 0 011.944.801s2.184-1.518 3.691-.801c1.508.718-.208 2.267-.208 2.267s1.903 1.352 1.341 2.194c-.561.842-3.004 4.772-3.004 4.772s.769.551.447 2.027c-.323 1.477-4.492 8.027-4.897 8.827-.406.801-5.199 7.829-6.322 9.108-1.122 1.279-2.308 6.238-2.308 6.238s-10.168-.478-10.054-2.027z" fill="#F69E80"/><path d="M347.126 143.702c-10.231-1.466-15.595 8.255-18.111 18.87-2.517 10.616 11.332 9.358 11.332 9.358l16.635-18.549s.375-8.224-9.856-9.679z" fill="#403981"/><path d="M372.776 148.693c-8.474 1.279-36.515 18.226-31.514 33.894 5.001 15.669 14.119 16.189 15.845 13.225 1.726-2.963 11.603-31.014 17.197-33.894 5.593-2.88 15.055-5.125 15.055-5.125s-8.11-9.368-16.583-8.1z" fill="#403981"/><path d="M340.348 171.961l5.312-5.926c-16.863 1.518-11.436-15.502-11.062-16.636-2.688 4-4.57 8.485-5.542 13.205-2.578 10.584 11.292 9.357 11.292 9.357zm5.916-5.998c-4.315 5.198-6.8 10.979-5.001 16.635 4.99 15.679 14.119 16.188 15.845 13.225.145-.27.374-.749.645-1.372-17.977-9.243-11.635-28.072-11.489-28.488z" fill="#242358"/><path d="M359.342 154.806s-.842-3.244-6.051 0c-5.209 3.244-16.407 13.37-11.957 19.754 2.277-7.621 10.335-14.867 18.008-19.754z" fill="#EE5763"/><path d="M393.456 167.719c-14.047-9.503-21.772-2.194-25.993 8.068l-9.44 11.696s-2.454-4.637-5.084-3.368c-2.631 1.268-4.357 10.76 4.159 11.696l-2.288 17.675s5.874 9.669 15.596 8.765c5.458-.51 3.431-6.353 3.431-6.353l.488-7.205c2.77.532 5.629.364 8.318-.489 11.572-3.628 10.813-40.485 10.813-40.485z" fill="#F69E80"/><path d="M374.366 208.683s-5.947-1.778-8.317-3.556a32.584 32.584 0 008.12 6.02l.197-2.464z" fill="#CE7961"/><path d="M357.991 187.483s1.404 5.147.572 7.372a15.99 15.99 0 004.325-8.838s4.762-.187 5.906-4.699c0 0 14.431-.187 19.702-12.965a8.32 8.32 0 004.845 6.737s-.364 6.758-.707 9.472c0 0 10.095-23.706-3.244-27.771-.031 0-32.667-2.932-31.399 30.692z" fill="#403981"/><path d="M544.294 293.667l31.014 167.173m-197.21-167.173L347.084 460.84" stroke="#000" stroke-width="2.42" stroke-miterlimit="10" stroke-linecap="round"/><path d="M586.381 285.786h-250.38v7.881h250.38v-7.881z" fill="url(#paint2_linear_406_1371)"/><path d="M482.152 268.32h-55.208a6.03 6.03 0 01-4.376-1.887 6.011 6.011 0 01-1.633-4.476l2.152-35.849a6.02 6.02 0 016.009-5.687h55.219a6.015 6.015 0 015.651 3.949 6.03 6.03 0 01.358 2.403l-2.194 35.86a6.028 6.028 0 01-5.978 5.687z" fill="#094082"/><path d="M485.614 268.32h-55.218a6.038 6.038 0 01-4.373-1.89 6.04 6.04 0 01-1.637-4.473l2.163-35.849a6.02 6.02 0 016.009-5.687h55.208a6.018 6.018 0 014.376 1.88 6.011 6.011 0 011.634 4.472l-2.153 35.86a6.02 6.02 0 01-6.009 5.687z" fill="url(#paint3_linear_406_1371)"/><path d="M473.439 280.432l-6.997-25.67h1.165v-6.113a4.276 4.276 0 00-4.263-4.263h-9.867a4.264 4.264 0 00-4.263 4.263v6.113l7.278 26.45a1.372 1.372 0 01-1.32 1.726h-16.854v3.015h30.9a4.381 4.381 0 004.291-3.533 4.366 4.366 0 00-.07-1.988zm-8.317-3.972a3.894 3.894 0 01-3.602-2.406 3.897 3.897 0 012.841-5.316 3.897 3.897 0 014.66 3.824 3.897 3.897 0 01-3.899 3.898z" fill="#094082"/><path d="M466.172 244.386h-9.867a4.27 4.27 0 00-4.263 4.263v6.113h18.413v-6.113a4.266 4.266 0 00-1.259-3.019 4.279 4.279 0 00-3.024-1.244zm11.249 35.808l-6.966-25.431h-18.413l1.04 3.805 6.508 23.913a2.785 2.785 0 01-2.485 3.504h15.918a4.57 4.57 0 004.485-3.708 4.57 4.57 0 00-.087-2.083zm-10.886-3.733a3.894 3.894 0 01-3.602-2.407 3.901 3.901 0 012.842-5.316 3.901 3.901 0 014.659 3.824 3.9 3.9 0 01-3.899 3.899z" fill="#E3E3E3"/><path d="M477.421 280.193l-6.966-25.431v-6.113a4.27 4.27 0 00-4.263-4.263h-9.866a4.276 4.276 0 00-4.263 4.263v6.113l1.04 3.805 6.508 23.913a2.785 2.785 0 01-2.485 3.504h15.918a4.566 4.566 0 004.465-3.713 4.562 4.562 0 00-.088-2.078zm-10.885-3.733a3.897 3.897 0 01-2.757-6.655 3.897 3.897 0 115.513 5.513 3.893 3.893 0 01-2.756 1.142z" fill="url(#paint4_linear_406_1371)"/><path d="M477.422 280.453a.26.26 0 01-.26-.197l-6.883-25.286a.26.26 0 01-.104-.208v-6.113a4.004 4.004 0 00-4.002-3.993h-9.867a.27.27 0 01-.26-.27.26.26 0 01.26-.26h9.867a4.522 4.522 0 014.522 4.523v5.957a.231.231 0 010 .083l6.977 25.4a.257.257 0 01-.026.201.253.253 0 01-.162.121l-.062.042z" fill="#FFD788"/><path d="M473.013 286.212a.26.26 0 110-.52 4.304 4.304 0 004.159-5.438l-6.925-25.42a.247.247 0 01.022-.203.254.254 0 01.165-.12.266.266 0 01.276.087.277.277 0 01.047.09l6.914 25.4a4.832 4.832 0 01-.822 4.198 4.823 4.823 0 01-3.836 1.895v.031z" fill="#FFD788"/><path d="M475.81 252.402a.439.439 0 01-.405-.458l1.185-21.199a.443.443 0 01.123-.341.432.432 0 01.339-.131.44.44 0 01.399.338.432.432 0 01.002.186l-1.206 21.22a.445.445 0 01-.437.385zm2.827 0a.42.42 0 01-.384-.289.416.416 0 01-.021-.168l1.185-21.199a.434.434 0 01.289-.385.437.437 0 01.574.437l-1.206 21.22a.448.448 0 01-.437.384zm2.828 0a.445.445 0 01-.416-.457l1.196-21.2a.415.415 0 01.458-.405.435.435 0 01.405.457l-1.216 21.221a.443.443 0 01-.427.384zm2.829 0a.438.438 0 01-.406-.457l1.123-21.199a.434.434 0 01.29-.385.45.45 0 01.333.02.43.43 0 01.225.248c.02.054.028.111.025.169l-1.164 21.22a.44.44 0 01-.426.384zm2.797 0a.44.44 0 01-.3-.143.435.435 0 01-.106-.315l1.186-21.199a.428.428 0 01.123-.341.415.415 0 01.155-.102.424.424 0 01.362.022.437.437 0 01.223.473l-1.186 21.22a.444.444 0 01-.457.385zm-55.354 0a.435.435 0 01-.405-.457l1.195-21.199a.419.419 0 01.447-.406.43.43 0 01.391.289.44.44 0 01.025.169l-1.227 21.22a.43.43 0 01-.141.272.429.429 0 01-.285.112zm2.828 0a.438.438 0 01-.406-.457l1.186-21.199a.414.414 0 01.143-.3.412.412 0 01.314-.106.442.442 0 01.416.458l-1.227 21.22a.44.44 0 01-.426.384zm2.818 0a.405.405 0 01-.164-.041.413.413 0 01-.136-.102.435.435 0 01-.106-.314l1.186-21.2a.415.415 0 01.457-.405.412.412 0 01.299.143.425.425 0 01.106.314l-1.206 21.221a.446.446 0 01-.436.384zm2.827 0a.447.447 0 01-.415-.457l1.195-21.199a.45.45 0 01.041-.165.425.425 0 01.417-.241.435.435 0 01.405.458l-1.206 21.22a.448.448 0 01-.437.384zm2.828 0a.435.435 0 01-.406-.457l1.186-21.199a.414.414 0 01.143-.3.412.412 0 01.314-.106.442.442 0 01.416.458l-1.268 21.22a.441.441 0 01-.385.384z" fill="#1251C3"/><path d="M537.257 260.502c-5.927 0-10.73.738-10.73 1.653v16.552a7.08 7.08 0 007.08 7.08h7.278a7.084 7.084 0 005.007-2.073 7.084 7.084 0 002.073-5.007v-16.552c.032-.915-4.73-1.653-10.708-1.653z" fill="url(#paint5_linear_406_1371)"/><path d="M526.527 262.154v16.552a7.08 7.08 0 007.08 7.081h7.278a7.062 7.062 0 005.469-2.579c-13.017 1.851-11.562-4.637-13.974-8.92-1.85-3.275-1.84-10.345-1.726-13.517-2.516.385-4.127.853-4.127 1.383z" fill="#000" opacity=".24"/><path d="M537.257 263.695c5.536 0 10.023-.689 10.023-1.539s-4.487-1.539-10.023-1.539c-5.535 0-10.023.689-10.023 1.539s4.488 1.539 10.023 1.539zm-33.491 22.091h-9.014l4.502-22.915 4.512 22.915z" fill="#242358"/><path d="M499.254 262.871h28.155l4.513 22.915h-28.155l-4.513-22.915z" fill="#fff"/><path d="M499.254 262.871h28.155l1.04 5.282h-28.155l-1.04-5.282z" fill="#3C88FD"/><path d="M436.467 124.374c-17.051 2.017-29.736 13.256-28.332 25.098.603 5.116 3.753 9.514 8.505 12.685l-5.376 13.734 13.101-10.095a41.314 41.314 0 0017.186 1.445c17.051-2.017 29.735-13.256 28.332-25.098-1.404-11.843-16.365-19.796-33.416-17.769z" fill="url(#paint6_linear_406_1371)"/><path d="M433.649 147.486a2.93 2.93 0 01-.447-.052l-.571-.083-.583-.083a2.238 2.238 0 00-.384 0 2.602 2.602 0 00-.832.114 19.001 19.001 0 00-.541 2.807c-.145 1.123-.229 2.433-.27 3.941a3.084 3.084 0 01-.749.145c-.178 0-.356-.021-.53-.062a1.221 1.221 0 01-.509-.25 1.435 1.435 0 01-.385-.499 1.758 1.758 0 01-.166-.842 4.73 4.73 0 01.052-.582v-.51c.007-.372.035-.743.083-1.112.052-.53.124-1.144.197-1.861.073-.717.177-1.476.281-2.319a68.3 68.3 0 00.27-2.495c.073-.832.146-1.601.208-2.329.063-.728.083-1.351.083-1.85v-.344a.368.368 0 01.312-.405c.154-.032.311-.05.468-.052l.863.229a.803.803 0 01.416.301c.112.158.196.334.25.52.055.211.094.427.114.645v.665a6.034 6.034 0 01-.062.697c0 .301-.073.634-.115.987-.041.354-.083.718-.114 1.04-.038.3-.059.602-.063.905a.615.615 0 00.406.655c.387.096.786.138 1.185.124h.343c.211.013.423.013.634 0a3.35 3.35 0 01.375 0h.197c.25-1.039.479-2.204.676-3.483.198-1.278.406-2.734.593-4.366.093-.655.301-.988.603-1.04h.208c.312-.011.623.042.915.156a.773.773 0 01.447.478c0 .468-.073 1.102-.167 1.924-.093.821-.187 1.726-.301 2.734-.115 1.009-.229 2.079-.354 3.182-.124 1.102-.249 2.204-.364 3.243a75.336 75.336 0 00-.27 2.932c-.062.905-.104 1.643-.104 2.215v.884c0 .28 0 .551.052.821a.688.688 0 01-.135.385.4.4 0 01-.333.197c-.3.033-.604-.009-.884-.123a1.823 1.823 0 01-.717-.532 3.367 3.367 0 01-.447-1.892v-2.88c0-.333.062-.676.094-1.04.031-.364.072-.717.104-1.039.031-.323 0-.593 0-.759l-.032-.042zm9.119 5.188a1.041 1.041 0 01-.115.457 2.446 2.446 0 01-.436.551 4.815 4.815 0 01-.905-.083 1.535 1.535 0 01-1.196-1.102 3.835 3.835 0 01-.176-1.321 4.609 4.609 0 00-.104-.987 5.096 5.096 0 01-.094-.978 21.777 21.777 0 00-.177-2.796 21.985 21.985 0 01-.176-2.797 1.036 1.036 0 01.488-.925l.551-.125.572-.104c.23.056.441.171.614.333l.374.415c-.01.194-.01.389 0 .583v.603c0 .727 0 1.507.114 2.339.115.832.167 1.612.26 2.36.094.749.187 1.435.281 2.079.093.645.145 1.04.187 1.414l-.062.084zm-2.537-16.23a.67.67 0 01.52-.146c.197.002.394.033.582.094.201.068.39.166.561.291.164.114.308.255.427.416a.873.873 0 01.155.489.833.833 0 01-.27.738c-.232.137-.5.202-.769.187a2.351 2.351 0 01-.645-.094 3.106 3.106 0 01-.592-.249 1.697 1.697 0 01-.416-.302.42.42 0 01-.167-.301c0-.207.025-.413.073-.614.111-.23.304-.412.541-.509zm5.075 17.322c0-.25.176-.489.54-.718.168-.11.342-.21.52-.301a.782.782 0 01.374-.104c.336.052.651.192.915.405a1.246 1.246 0 01.499.894.362.362 0 000 .104.213.213 0 010 .094c.008.237-.054.472-.176.676-.115.208-.25.312-.395.312a.55.55 0 00-.292.124.546.546 0 01-.291.104 2.363 2.363 0 01-1.694-1.59zm2.277-2.08c-.978-.187-1.498-.665-1.56-1.435v-1.164c.007-1.016.079-2.03.218-3.036a37.28 37.28 0 01.676-3.597c.447-1.955.78-3.473 1.04-4.554a23.32 23.32 0 00.405-2.017.662.662 0 01.302-.437c.164-.093.351-.14.541-.135.105.004.21.022.311.052l.978.291a.72.72 0 01.52.665 54.435 54.435 0 01-1.466 7.278 30.407 30.407 0 00-1.04 7.039v.426a.568.568 0 01-.25.437.76.76 0 01-.499.198l-.176-.011z" fill="#201851"/><path d="M147.961 291.868c-.831 3.898.375 8.535-.301 12.538-.863 5.022-4.045 6.457-6.238 9.617-2.558 3.754-3.723 10.772-2.797 16.76.582 3.702 1.85 6.81 2.786 10.221.936 3.41 1.57 7.569.77 11.104-1.217 5.323-7.694 9.471-7.694 32.064 0 20.617 14.722 28.633 18.902 33.686V284.143l-1.893 1.829a10.908 10.908 0 00-3.535 5.896z" fill="url(#paint7_linear_406_1371)"/><path d="M165.148 341.004c.946-3.411 2.204-6.519 2.786-10.221.936-5.988-.229-13.006-2.786-16.76-2.152-3.119-5.344-4.595-6.239-9.617-.686-4.003.531-8.64-.301-12.538a10.974 10.974 0 00-3.577-5.896l-1.892-1.829v133.715c4.159-5.053 18.891-13.069 18.891-33.686 0-22.593-6.477-26.741-7.683-32.064-.759-3.535-.135-7.705.801-11.104z" fill="url(#paint8_linear_406_1371)"/><path d="M172.582 366.382c-1.113 1.477-.624 3.681-1.622 5.199-1.268 1.923-4.055 1.85-6.238 2.713a6.861 6.861 0 00-4.159 6.467 25.561 25.561 0 001.185 4.908 5.643 5.643 0 01-.582 4.845c-1.591 1.985-7.413 2.339-9.887 11.862-2.267 8.692 9.045 15.253 11.946 18.278l14.732-56.351-1.757.364a5.813 5.813 0 00-3.618 1.715z" fill="url(#paint9_linear_406_1371)"/><path d="M180.306 374.034c-.124-1.84 1.394-3.535 1.134-5.354a5.772 5.772 0 00-2.319-3.254l-1.362-1.123-14.68 56.372c4.002-1.227 17.082-1.435 19.348-10.127 2.475-9.523-2.432-12.673-2.848-15.179a5.591 5.591 0 011.85-4.512 26.166 26.166 0 003.431-3.712 6.846 6.846 0 00-.468-7.663c-1.445-1.861-3.919-3.15-4.086-5.448z" fill="url(#paint10_linear_406_1371)"/><path d="M161.301 426.248c-4.388-6.581-32.231-11.769-32.231-11.769s9.181 9.835 9.181 16.448a29.269 29.269 0 01-1.539 7.506 14.921 14.921 0 002.164 13.302 14.915 14.915 0 0011.997 6.14h.863c1.788-3.805 3.524-8.317 3.524-11.363 0-6.311 10.428-13.672 6.041-20.264z" fill="#373075"/><path d="M189.321 438.433a29.197 29.197 0 01-1.57-7.506c0-6.613 9.18-16.448 9.18-16.448H129.07s27.843 5.198 32.231 11.769c4.387 6.571-6.041 13.901-6.041 20.253 0 3.119-1.736 7.559-3.524 11.364h23.445a14.934 14.934 0 0014.641-12.531 14.926 14.926 0 00-.501-6.901z" fill="#232059"/><path d="M606.583 420.259c2.079-2.349 11.436-5.926 15.377-11.707 3.94-5.78 17.674-25.992 28.071-22 10.397 3.993-9.024 18.049-14.805 25.109-5.781 7.059-6.238 27.5-21.532 27.5s-11.624-13.682-7.111-18.902z" fill="#3D86FA"/><path d="M605.699 367.652s7.278.219 6.623 10.512c-.655 10.293-3.452 17.976-2.89 23.487.561 5.51 5.573 26.574-3.733 27.988-9.305 1.414-20.035-1.757-15.377-16.926 4.658-15.169.427-48.013 15.377-45.061z" fill="#1351BE"/><path d="M603.442 379.899s-6.778 62.237-6.778 83.582m2.069.031s3.92-38.271 46.454-71.365" stroke="#231F20" stroke-width="1.08" stroke-miterlimit="10" stroke-linecap="round"/><path d="M528.772 413.075c-.416 2.277 1.144 8.557 0 10.532-1.143 1.976-3.254 6.321-1.403 10.148 1.85 3.826 4.159 14.483-8.495 14.805-12.653.322-10.459-13.724-9.055-16.459 1.403-2.734 3.316-5.364 3.95-11.041.635-5.677 1.217-7.663 8.173-12.892 6.955-5.23 7.974-6.239 9.575-4.284 1.601 1.955-1.923 4.596-2.745 9.191z" fill="#423981"/><path d="M523.979 415.125s-10.252 21.698-3.66 46.329m-.447-33.334l5.77-6.165m-6.945 13.069l-3.587-5.926m3.004 14.461l7.268-6.446" stroke="#231F20" stroke-width=".52" stroke-miterlimit="10" stroke-linecap="round"/><defs><linearGradient id="paint0_linear_406_1371" x1="64.703" y1="270.889" x2="151.757" y2="99.536" gradientUnits="userSpaceOnUse"><stop stop-color="#F69A5E"/><stop offset=".29" stop-color="#FAAC60"/><stop offset=".71" stop-color="#FEC062"/><stop offset="1" stop-color="#FFC763"/></linearGradient><linearGradient id="paint1_linear_406_1371" x1="515.121" y1="265.439" x2="602.175" y2="94.087" gradientUnits="userSpaceOnUse"><stop stop-color="#F69A5E"/><stop offset=".29" stop-color="#FAAC60"/><stop offset=".71" stop-color="#FEC062"/><stop offset="1" stop-color="#FFC763"/></linearGradient><linearGradient id="paint2_linear_406_1371" x1="529.53" y1="256.56" x2="408.031" y2="315.532" gradientUnits="userSpaceOnUse"><stop offset=".05" stop-color="#FBD15B"/><stop offset="1" stop-color="#F9A45A"/></linearGradient><linearGradient id="paint3_linear_406_1371" x1="490.573" y1="209.743" x2="438.464" y2="267.041" gradientUnits="userSpaceOnUse"><stop offset=".05" stop-color="#FAD05A"/><stop offset=".33" stop-color="#FAC85A"/><stop offset=".77" stop-color="#F9B159"/><stop offset="1" stop-color="#F8A359"/></linearGradient><linearGradient id="paint4_linear_406_1371" x1="504.017" y1="221.97" x2="451.907" y2="279.268" gradientUnits="userSpaceOnUse"><stop offset=".05" stop-color="#FAD05A"/><stop offset=".33" stop-color="#FAC85A"/><stop offset=".77" stop-color="#F9B159"/><stop offset="1" stop-color="#F8A359"/></linearGradient><linearGradient id="paint5_linear_406_1371" x1="521.848" y1="282.003" x2="553.029" y2="262.342" gradientUnits="userSpaceOnUse"><stop stop-color="#232059"/><stop offset=".2" stop-color="#28255B"/><stop offset=".44" stop-color="#373362"/><stop offset=".71" stop-color="#504A6D"/><stop offset=".88" stop-color="#635B75"/></linearGradient><linearGradient id="paint6_linear_406_1371" x1="408.301" y1="174.394" x2="457.448" y2="128.647" gradientUnits="userSpaceOnUse"><stop stop-color="#F4AA2E"/><stop offset="1" stop-color="#FFCA5A"/></linearGradient><linearGradient id="paint7_linear_406_1371" x1="143.979" y1="417.858" x2="143.979" y2="284.143" gradientUnits="userSpaceOnUse"><stop stop-color="#232059"/><stop offset="1" stop-color="#AD69DA"/></linearGradient><linearGradient id="paint8_linear_406_1371" x1="162.632" y1="417.858" x2="162.632" y2="284.143" gradientUnits="userSpaceOnUse"><stop stop-color="#232059"/><stop offset="1" stop-color="#AD69DA"/></linearGradient><linearGradient id="paint9_linear_406_1371" x1="173.778" y1="354.072" x2="159.513" y2="403.811" gradientUnits="userSpaceOnUse"><stop stop-color="#FFF5B7"/><stop offset="1" stop-color="#D17E2C"/></linearGradient><linearGradient id="paint10_linear_406_1371" x1="188.437" y1="358.272" x2="174.172" y2="408.012" gradientUnits="userSpaceOnUse"><stop stop-color="#FFF5B7"/><stop offset="1" stop-color="#D17E2C"/></linearGradient></defs></svg>