<svg width="500" height="500" fill="none" xmlns="http://www.w3.org/2000/svg"><path d="M383.118 278.47c0 7.7-.559 15.268-1.637 22.667a154.702 154.702 0 01-15.2 47.836c-14.31 28.126-36.913 51.328-64.589 66.375-.217.12-.434.237-.651.354l-.467.249c-18.909 10.09-40.148 16.387-62.698 17.883a157.842 157.842 0 01-16.298.238 147.706 147.706 0 01-4.063-.201 149.845 149.845 0 01-6.478-.543 156.004 156.004 0 01-9.768-1.332 154.615 154.615 0 01-23.448-5.874 154.176 154.176 0 01-18.547-7.6 151.797 151.797 0 01-8.364-4.397l-.044-.024a156.221 156.221 0 01-35.171-27.161 156.077 156.077 0 01-27.732-39.098 153.229 153.229 0 01-6.465-14.874c-6.341-16.962-9.805-35.328-9.805-54.498 0-86.001 69.714-155.715 155.715-155.715 63.414 0 117.973 37.907 142.249 92.297a153.53 153.53 0 018.561 24.509c3.199 12.436 4.9 25.475 4.9 38.909z" fill="#EBF2FA"/><path d="M220.105 433.369c-.865-.04-1.729-.085-2.59-.141a149.845 149.845 0 01-6.478-.543c-.684-.068-1.368-.145-2.048-.225-2.595-.306-5.17-.676-7.72-1.107a154.44 154.44 0 01-19.509-4.61 190.016 190.016 0 01-3.939-1.264 154.335 154.335 0 01-18.547-7.599c-.897-1.26-1.689-2.278-2.289-2.877-1.215-1.215-7.704-4.265-15.682-7.419-13.152-5.198-30.352-10.678-34.608-8.674-6.84 3.219-16.495-1.609-30.577-3.219-10.03-1.146-20.26 6.892-27.064 11.611-2.752 1.907-4.94 3.275-6.328 3.275-4.828 0 4.828-14.483 12.07-16.897 7.241-2.414 16.092-18.105 26.15-25.749 4.543-3.452 10.078-5.182 15.63-5.632a38.122 38.122 0 017.624.157c4.024.478 7.81 1.561 10.944 3.061 9.253 4.426 20.92 2.414 26.955 2.012 5.327-.354 16.922 17.151 31.739 25.415 1.972 1.102 4 2.039 6.08 2.747 5.777 1.972 12.628 7.415 19.239 13.852 3.97 3.875 7.857 8.103 11.365 12.155a289.832 289.832 0 017.902 9.539c.591.744 1.15 1.456 1.681 2.132z" fill="#FDBB61"/><path d="M211.037 432.685a156.004 156.004 0 01-9.768-1.332 154.615 154.615 0 01-23.448-5.874 154.176 154.176 0 01-18.547-7.6c-.897-1.259-1.689-2.277-2.289-2.876-1.215-1.215-7.704-4.265-15.682-7.419-13.152-5.198-30.352-10.678-34.608-8.674-6.84 3.218-16.495-1.61-30.577-3.219-10.03-1.147-20.26 6.892-27.064 11.611 7.077-7.676 18.49-17.569 31.49-19.255 21.725-2.816 22.828 4.944 35.151-1.75 2.631-1.432 8.758-1.344 16.809.201 12.243 2.35 28.931 8.075 44.553 16.974 7.942 4.522 15.61 9.861 22.273 16 3.625 3.336 6.948 6.904 9.861 10.702a69.719 69.719 0 011.846 2.511z" fill="#F59059"/><path d="M398.781 218.268c-7.616 5.713-17.236 11.675-20.563 20.651-.893 2.402-1.332 5.025-1.163 7.914.805 13.679-4.425 23.334-9.655 28.162-3.561 3.287-20.342 30.412-33.622 53.755-6.236 10.959-11.7 21.085-14.657 27.514a320.486 320.486 0 01-2.341 4.985c-9.037 18.785-21.07 38.724-35.477 46.11-9.704 4.977-29.253 16.568-43.427 25.833a157.842 157.842 0 01-16.298.238c-.229.322-.463.639-.688.953a270.72 270.72 0 01-.784-1.014 148.273 148.273 0 01-9.069-.684c-.684-.068-1.368-.144-2.048-.225a157.201 157.201 0 01-7.72-1.106 78.155 78.155 0 01-1.939-11.881 74.267 74.267 0 01-.173-9.929c.651-12.605 4.848-27.479 17.774-40.405 29.37-29.37 40.635-73.223 61.153-84.086 20.519-10.862 36.612-10.46 41.037-28.162 4.426-17.702 18.909-15.288 25.346-21.726 4.953-4.952 13.716-14.19 25.19-20.755 3.44-1.968 7.121-3.694 11.019-4.993 12.219-4.072 21.283-1.412 21.714 3.11.165 1.73-.934 3.737-3.609 5.741z" fill="#373075"/><path d="M398.781 218.268c-7.616 5.712-17.236 11.675-20.563 20.651-.893 2.402-1.332 5.025-1.163 7.913.805 13.679-4.425 23.335-9.655 28.163-3.561 3.287-20.342 30.411-33.622 53.754-6.236 10.959-11.7 21.086-14.657 27.515a311.668 311.668 0 01-2.342 4.985c-9.036 18.784-21.069 38.723-35.476 46.11-9.704 4.977-29.253 16.568-43.427 25.833a158.525 158.525 0 01-16.298.237c-.229.322-.463.64-.688.954a268.62 268.62 0 01-.785-1.014c-.865-.04-1.73-.084-2.591-.141a149.799 149.799 0 01-6.477-.543c-.684-.068-1.368-.145-2.048-.225a80.246 80.246 0 011.533-10.762c2.736-12.895 9.245-27.877 23.307-42.099 35.404-35.807 89.315-72.016 91.729-90.12 2.414-18.105 30.979-26.151 35.404-41.037 1.968-6.623 6.558-15.228 13.354-22.357 7.113-7.463 16.632-13.309 28.074-13.559.165 1.73-.934 3.738-3.609 5.742z" fill="#242259"/><path d="M181.76 426.744a190.016 190.016 0 01-3.939-1.264c-8.814-9.478-28.247-25.137-45.317-38.981-12.247-9.933-23.279-18.929-28.304-24.042-1.444-1.469-2.393-2.616-2.735-3.376-2.338-5.194-7.524-9.044-13.502-11.881-3.287-1.561-6.812-2.812-10.235-3.809-9.656-2.817-14.082-2.414-6.035-7.645 2.538-1.649 6.002-2.82 9.804-3.419 8.244-1.304 18.08.072 23.589 5.029 8.046 7.241 24.944 0 48.821 21.846 9.27 8.477 15.623 21.267 19.931 33.743a156.604 156.604 0 013.219 10.528 192.39 192.39 0 014.703 23.271z" fill="#373075"/><path d="M431.771 313.618c-3.218 1.207-25.748 2.816-48.681 22.128-3.584 3.017-7.338 5.886-11.152 8.625a243.472 243.472 0 01-3.444 2.435c-.736.51-1.476 1.021-2.213 1.524-.8.543-1.601 1.087-2.402 1.622l-1.134.76a564.819 564.819 0 01-4.607 3.03l-1.138.74c-3.987 2.587-7.882 5.069-11.555 7.479-.736.483-1.46.962-2.176 1.436-.785.519-1.557 1.034-2.314 1.553-.691.467-1.367.931-2.035 1.394l-.368.256a156.995 156.995 0 00-4.046 2.909c-.447.333-.885.663-1.316.997l-.639.495a75.842 75.842 0 00-3.919 3.263c-.189.165-.374.334-.555.503a39.6 39.6 0 00-1.211 1.147c-.165.16-.33.321-.487.486-.161.161-.322.322-.475.487a17.39 17.39 0 00-.458.487c-.214.225-.415.451-.612.676a21.971 21.971 0 00-.471.547c-.173.201-.334.398-.49.599-.222.27-.431.544-.632.817-.105.141-.209.282-.306.423-.024.032-.044.064-.068.096-.113.165-.226.326-.334.487-.028.048-.061.097-.093.145-.124.193-.249.39-.366.583-2.941 4.868-6.385 11.205-10.263 17.702a44.16 44.16 0 01-.507.849c-2.764 4.599-5.741 9.25-8.915 13.486-.23.31-.463.616-.696.921-.218.121-.435.238-.652.354-19.026 10.236-40.43 16.624-63.165 18.133a158.525 158.525 0 01-16.298.238c-.229.321-.463.639-.688.953a270.72 270.72 0 01-.784-1.014c-.865-.04-1.73-.084-2.591-.141.293-.647.595-1.311.909-1.991 12.327-26.815 38.631-76.28 70.121-89.859 26.01-11.217 38.148-11.816 45.233-12.629 4.86-.559 7.342-1.219 10.287-5.475 7.242-10.461 16.898-5.633 22.932-14.082 2.334-3.266 7.737-6.413 14.484-8.698 10.706-3.617 24.795-5.061 35.404-1.36 4.225 1.473 7.464 3.018 9.902 4.531 7.551 4.679 7.418 9.04 4.984 9.953z" fill="#EE5763"/><path opacity=".79" d="M431.771 313.618c-3.218 1.207-25.748 2.816-48.681 22.128-3.584 3.017-7.338 5.886-11.152 8.626a243.472 243.472 0 01-3.444 2.434c-.736.51-1.476 1.021-2.213 1.524-.8.543-1.601 1.087-2.401 1.622l-1.135.76a564.819 564.819 0 01-4.607 3.03l-1.138.74c-3.987 2.587-7.882 5.069-11.555 7.479-.736.483-1.46.962-2.176 1.436-.785.519-1.557 1.034-2.314 1.553a185.353 185.353 0 00-5.085 3.557 100.8 100.8 0 00-1.364 1.002 94.04 94.04 0 00-1.316.997c-.217.161-.43.326-.639.495a75.842 75.842 0 00-3.919 3.263c-.189.165-.374.334-.555.503a39.6 39.6 0 00-1.211 1.147c-.169.16-.33.325-.487.486-.165.161-.322.326-.475.487-.157.161-.309.326-.458.487-.214.225-.415.451-.612.676a21.971 21.971 0 00-.471.547 19.84 19.84 0 00-.49.599c-.222.27-.431.544-.632.817-.105.141-.205.282-.306.423-.024.032-.044.064-.068.096-.113.161-.226.326-.334.487a2.35 2.35 0 01-.093.145c-.128.193-.249.39-.366.583-2.941 4.868-6.385 11.205-10.263 17.702a44.16 44.16 0 01-.507.849c-2.764 4.599-5.741 9.25-8.915 13.486-.23.31-.463.616-.696.921-.218.121-.435.238-.652.355-19.026 10.235-40.43 16.623-63.165 18.132a158.525 158.525 0 01-16.298.238c13.341-18.266 34.652-43.198 59.323-56.245 12.669-6.703 24.859-11.74 35.879-15.936 25.37-9.66 44.525-14.846 49.011-25.503 2.329-5.532 6.501-10.433 11.164-14.395 8.228-6.989 17.976-11.064 21.826-10.549 4.281.571 16.246-7.355 28.006-7.137 7.551 4.679 7.418 9.04 4.984 9.953z" fill="#A53447"/><path d="M300.574 415.951c-18.909 10.091-40.148 16.387-62.698 17.884a158.525 158.525 0 01-20.361.036 149.845 149.845 0 01-6.478-.543 155.834 155.834 0 01-9.768-1.332 154.442 154.442 0 01-50.359-17.871c1.75-31.112 3.661-66.263 3.661-70.897 0-2.587-.877-11.772-2.172-24.031-.214-2.064-.443-4.216-.68-6.441a7090.119 7090.119 0 00-1.843-16.866c-.06-.559-.125-1.118-.185-1.677-1.014-9.226-2.08-18.817-3.086-27.909-2.647-23.927-4.848-44.356-4.506-45.382.805-2.414 41.439-28.968 41.439-28.968v-8.843l43.451 2.809 1.61 2.816s45.462 8.851 47.474 10.863c.905.905 2.381 19.894 3.838 44.762.523 8.883 1.042 18.519 1.533 28.348.193 3.862.382 7.756.563 11.647.092 1.991.185 3.983.273 5.966.817 18.016 1.485 35.578 1.839 49.285.756 29.244 7.358 52.012 12.178 64.934.624 1.662 2.249 6.011 4.277 11.41z" fill="#FEBC61"/><path d="M301.041 415.702c-21.923 11.792-46.996 18.479-73.633 18.479-27.821 0-53.94-7.294-76.542-20.08 1.251-21.118 3.705-63.386 3.705-70.873 0-2.587-.877-11.772-2.172-24.031-.214-2.064-.443-4.216-.68-6.441a7034.717 7034.717 0 00-1.843-16.865c-.06-.56-.125-1.119-.185-1.678.258.491.519.978.785 1.464 5.825 10.714 13.292 20.302 21.797 21.802 20.519 3.621 3.621 29.37 28.163 54.314 19.79 20.116 75.166 29.763 95.861 32.749 2.173 5.813 3.983 9.635 4.744 11.16z" fill="#F59059"/><path d="M150.548 295.753s-.817 5.343-2.321 12.746c-2 9.832-5.214 23.306-9.346 32.717-7.242 16.495-25.749 11.667-30.175 5.632-.921-1.255-3.323-3.814-3.62-8.851-1.131-19.139 4.023-61.052 11.667-82.074 9.656-26.553 27.342-36.925 27.342-36.925 3.198 2.503 5.648 11.177 5.648 19.223s.805 57.532.805 57.532z" fill="#EE5763"/><path opacity=".79" d="M148.227 308.499c-2 9.833-5.214 23.307-9.346 32.717-7.242 16.495-25.749 11.667-30.174 5.632-.922-1.255-1.529-4.783-1.827-9.82 7.926-19.457 32.206-26.517 41.347-28.529z" fill="#A53447"/><path d="M183.136 346.044s-2.237 1.343-5.544 3.693c-1.126.8-2.378 1.722-3.709 2.744-5.23 4.023-45.463 10.058-57.935 6.035-4.779-1.541-7.672-5.569-9.245-10.179-2.535-7.415-1.674-16.339.177-18.869 3.001-4.108 21.138-8.368 29.184-7.966 8.047.402 51.498-1.609 51.498-1.609-5.231 6.437-4.426 26.151-4.426 26.151z" fill="#EE5763"/><path opacity=".79" d="M177.592 349.737c-1.126.8-2.378 1.722-3.709 2.744-5.231 4.023-45.463 10.058-57.935 6.034-4.779-1.54-7.672-5.568-9.245-10.178 8.272-.592 45.816-3.05 55.11.523 4.526 1.742 10.476 1.597 15.779.877z" fill="#A53447"/><path d="M233.829 319.893l-6.84 4.023-12.874 2.816s-19.312 12.875-20.116 14.082c-.805 1.206-10.461 4.023-12.472 2.816-.354-.213-.724-.885-1.03-1.879-1.432-4.615-1.589-16.23 6.493-21.858l23.906-16.093.105.02c1.448.261 17.614 3.198 18 3.198.402 0 3.218 4.024 3.218 4.024l1.61 8.851z" fill="#F69D80"/><path d="M207.678 321.904c-3.492 1.907-20.265 14.585-27.181 19.847-1.432-4.615-1.589-16.23 6.493-21.858l23.906-16.093.105.02c.153 5.021.092 16.222-3.323 18.084z" fill="#CE7961"/><path d="M318.316 322.709c-3.033 11.027-8.143 15.63-13.65 16.531-2.527.414-5.138.044-7.673-.841-8.046-2.816-13.276-22.932-14.886-53.911-.82-15.823-2.377-36.265-3.918-52.801-1.477-15.839-2.937-28.09-3.726-29.273-1.609-2.414-.068-3.564-.068-3.564s18.173 7.587 27.024 25.692c8.851 18.104 21.323 82.074 16.897 98.167z" fill="#EE5763"/><path opacity=".4" d="M304.666 339.24c-2.527.415-5.138.045-7.673-.841-8.046-2.816-13.276-22.932-14.886-53.911-.82-15.823-2.377-36.265-3.918-52.8 4.997 10.512 15.055 33.243 19.207 54.007 4.276 21.388 6.465 43.934 7.27 53.545z" fill="#662131"/><path d="M317.982 323.863s-1.492 7.194-6.211 15.224c-2.696 4.587-6.442 9.443-11.559 13.393-14.081 10.863-40.232 10.461-40.232 10.461s-4.812-1.98-4.699-7.129c.02-.99.221-2.101.675-3.332 2.817-7.644 5.231-9.655 14.082-12.472 8.851-2.816 15.413-25.342 15.413-25.342s34.615-15.401 32.531 9.197z" fill="#EE5763"/><path opacity=".4" d="M311.771 339.087c-2.696 4.586-6.442 9.442-11.559 13.393-14.081 10.863-40.232 10.461-40.232 10.461s-4.812-1.98-4.699-7.13c5.029.258 20.087.62 33.263-3.331 8.003-2.402 16.604-8.183 23.227-13.393z" fill="#662131"/><path d="M325.558 346.043l-117.076 2.406-.402.008-28.163-15.691v-1.879c0-.599.177-1.158.487-1.629a2.976 2.976 0 012.463-1.356l92.803-1.171 49.888 19.312z" fill="#3F3C80"/><path d="M209.287 344.434l-.805 4.016-.402.008-28.163-15.691v-1.879c0-.599.177-1.158.487-1.629l28.883 15.175z" fill="#CEE0F2"/><path d="M218.943 329.146l-30.979.804 26.956 14.081 4.023-14.885z" fill="#1F184B"/><path d="M351.307 278.051a73.44 73.44 0 01-.459 2.289c-3.118 14.431-15.634 58.059-15.634 58.059s-1.879 6.88-10.593 7.664c-8.719.785-116.139 2.394-116.139 2.394l1.795-10.476 10.677-62.344s.403-7.644 8.449-7.644h116.271s7.644-1.207 5.633 10.058z" fill="#EBF2FA"/><path d="M350.848 280.34c-3.118 14.431-15.634 58.059-15.634 58.059s-1.879 6.88-10.593 7.664c-8.719.785-116.139 2.394-116.139 2.394l1.795-10.476c8.07-8.795 21.383-19.127 39.242-18.894 30.979.403 52.302 1.207 73.625-19.311 12.734-12.255 22.168-17.332 27.704-19.436z" fill="#CEE0F2"/><path d="M287.337 353.688s-2.397 2.547-6.276 5.077c-2.478 1.622-5.56 3.235-9.012 4.176-8.851 2.414-17.702 1.61-19.311 1.61-.765 0-3.171-1.183-5.48-2.422-2.547-1.372-4.981-2.809-4.981-2.809s-1.207-10.862-1.609-12.874c-.35-1.746.511-3.794 2.06-3.512.237.036.491.133.756.293 2.012 1.207 3.621 6.84 4.024 8.852.402 2.011 2.011 3.62 2.011 3.62l-.012-.06c-.137-.829-1.633-9.728-2.402-12.412-.804-2.816-2.011-8.851-2.011-8.851s.865-2.313 3.335-1.545c.446.133.941.371 1.493.741 1.705 1.138 2.695 2.454 3.27 3.528.495.929.672 1.674.733 1.971l-.785-6.304s.966-1.283 2.486-1.11c.886.096 1.96.688 3.147 2.317 3.218 4.426 6.437 13.277 6.839 14.081.402.805 5.633.805 6.84 1.207 1.207.403 4.425.805 4.425.805s.02-.113.06-.302c.23-1.062 1.171-4.586 3.561-4.928 2.816-.403 4.828 2.816 4.828 2.816s5.23 1.207 2.011 6.035z" fill="#F69D80"/><path d="M257.964 354.074c-.189-.543-5.568-16.254-9.535-21.243.447.133.941.37 1.493.74 1.705 1.139 2.695 2.454 3.27 3.529.813 2.591 2.02 6.457 2.764 8.943a100.644 100.644 0 012.008 8.031zm-8.042 2.832h-2.012c-1.207 0-2.414-2.011-3.219-6.839-.458-2.76-1.315-5.387-1.963-7.133.237.036.491.132.756.293 2.012 1.207 3.621 6.84 4.024 8.851.402 2.012 2.011 3.621 2.011 3.621l-.012-.06c.238.74.415 1.267.415 1.267zm29.369-2.816s-9.656-1.207-12.07-2.012c-2.414-.805-4.425-6.437-6.839-12.472-1.634-4.079-3.633-6.69-4.756-7.95.886.097 1.96.688 3.147 2.318 3.218 4.425 6.437 13.276 6.839 14.081.402.805 5.633.805 6.84 1.207 1.207.402 4.425.804 4.425.804s.02-.112.06-.301c.701 2.305 2.354 4.325 2.354 4.325z" fill="#CE7962"/><path d="M281.061 358.765c-2.478 1.621-5.56 3.235-9.012 4.176-8.851 2.414-17.702 1.61-19.311 1.61-.765 0-3.17-1.183-5.48-2.422 5.472-1.706 18.048-5.444 21.17-4.82 2.97.595 9.443 1.187 12.633 1.456z" fill="#CE7961"/><path d="M287.338 308.225a4.425 4.425 0 100-8.851 4.425 4.425 0 100 8.851z" fill="#fff"/><path d="M249.516 135.229c-1.771 1.367-3.639 3.132-5.5 5.109-3.337 3.542-6.668 7.746-9.415 11.481-3.375 4.602-5.872 8.491-6.405 9.556-.988 1.977-25.658 7.984-34.611 10.115l-3.209.751-4.826 2.009s-25.344-17.701-25.748-24.94c-.405-7.246 2.009-12.874-1.611-18.913-3.01-5.019-3.254-13.523 1.855-17.624 1.027-.828 2.272-1.476 3.754-1.88 8.85-2.413 10.269-9.049 10.269-13.478 0-4.428 5.269-13.56 14.119-11.552 8.85 2.01 21.102-1.328 23.515-5.756 2.413-4.422 20.517-13.272 30.574 0 10.057 13.278.802 24.946 5.231 31.787 4.428 6.835 10.865 16.494 2.008 23.335z" fill="#373075"/><path d="M237.45 123.157s-1.207 30.577-2.012 35.404c-.805 4.828-8.449 15.691-8.449 15.691v11.667s-4.425 6.438-20.116 6.035a55.628 55.628 0 01-4.699-.318c-12.52-1.372-18.635-6.521-18.635-6.521v-17.3l-4.426-13.679s-9.253-6.437-10.058-13.679c-.805-7.242 5.632-10.863 9.656-6.437 4.023 4.425 4.828 9.253 4.828 9.253s7.241-14.081 6.839-16.093c-.402-2.011-1.609-7.242-1.609-7.242s10.46 2.414 16.093-1.609c5.632-4.023 11.265-8.046 17.299-3.218 6.035 4.827 12.875 8.046 15.289 8.046z" fill="#F69D80"/><path d="M226.989 174.252v11.667s-4.425 6.437-20.116 6.035a55.628 55.628 0 01-4.699-.318c-6.147-5.701-8.98-13.763-8.98-13.763l3.621 2.414c3.621 2.414 16.495 5.23 20.116 4.425 3.621-.804 10.058-10.46 10.058-10.46zM180.32 146.09s-.805-6.035-3.219-8.449c-2.414-2.414-4.828-1.609-4.828 1.609 0 0 4.024-3.621 8.047 6.84z" fill="#CE7961"/><path d="M427.361 146.076c-.131-15.551-12.772-28.118-28.354-28.118-3.754 0-7.335.736-10.615 2.061-5.569-11.392-17.267-19.241-30.802-19.241-16.368 0-30.047 11.479-33.448 26.824-15.394.99-27.575 13.782-27.575 29.426 0 16.289 13.205 29.494 29.495 29.494h93.853c11.548 0 20.909-9.36 20.909-20.908 0-8.923-5.593-16.537-13.463-19.538z" fill="#CEE0F2"/><path d="M405.082 149.159c-.084-9.365-8.247-16.932-18.309-16.932-2.425 0-4.737.443-6.855 1.241-3.596-6.86-11.15-11.586-19.891-11.586-10.57 0-19.403 6.912-21.599 16.152-9.941.596-17.807 8.299-17.807 17.719 0 9.81 8.528 17.761 19.047 17.761h60.606c7.457 0 13.502-5.637 13.502-12.59 0-5.374-3.612-9.958-8.694-11.765z" fill="#fff"/><path d="M425.751 394.308c-.13-15.55-12.772-28.118-28.353-28.118a28.27 28.27 0 00-10.615 2.062c-5.569-11.393-17.267-19.241-30.802-19.241-16.368 0-30.047 11.479-33.448 26.823-15.394.99-27.575 13.782-27.575 29.426 0 16.29 13.205 29.495 29.495 29.495h93.853c11.547 0 20.908-9.361 20.908-20.908 0-8.924-5.593-16.538-13.463-19.539z" fill="#CEE0F2"/><path d="M403.473 397.391c-.084-9.364-8.248-16.932-18.31-16.932-2.424 0-4.736.444-6.854 1.242-3.596-6.861-11.151-11.587-19.891-11.587-10.57 0-19.403 6.912-21.599 16.152-9.941.597-17.807 8.3-17.807 17.72 0 9.809 8.527 17.761 19.046 17.761h60.607c7.457 0 13.502-5.637 13.502-12.591 0-5.373-3.612-9.958-8.694-11.765z" fill="#fff"/><path d="M134.872 166.595c-.13-15.551-12.772-28.119-28.353-28.119a28.27 28.27 0 00-10.615 2.062c-5.569-11.392-17.267-19.241-30.802-19.241-16.368 0-30.047 11.479-33.448 26.823-15.394.99-27.575 13.782-27.575 29.426 0 16.29 13.205 29.495 29.495 29.495h93.853c11.547 0 20.908-9.361 20.908-20.908 0-8.924-5.593-16.537-13.463-19.538z" fill="#CEE0F2"/><path d="M112.594 169.677c-.084-9.364-8.248-16.932-18.31-16.932-2.424 0-4.736.444-6.854 1.242-3.596-6.86-11.15-11.587-19.89-11.587-10.57 0-19.404 6.913-21.6 16.152-9.941.597-17.807 8.3-17.807 17.72 0 9.809 8.527 17.761 19.046 17.761h60.607c7.457 0 13.502-5.637 13.502-12.59 0-5.374-3.612-9.959-8.694-11.766z" fill="#fff"/><path d="M213.765 265.09l-.144-.122.83-.979.144.122-.83.979zm-2.594-2.194l-2.449-2.073.829-.98 2.45 2.073-.83.98zm-4.899-4.146l-2.449-2.073.829-.98 2.449 2.073-.829.98zm-4.899-4.146l-2.45-2.072.83-.98 2.449 2.073-.829.979zm-4.899-4.145l-2.45-2.073.829-.979 2.45 2.072-.829.98zm-4.899-4.146l-2.45-2.072.829-.98 2.45 2.073-.829.979zm-4.9-4.145l-2.449-2.073.829-.979 2.45 2.072-.83.98zm-4.899-4.146l-2.449-2.072.829-.98 2.449 2.073-.829.979zm-4.899-4.145l-2.45-2.073.829-.98 2.45 2.073-.829.98zm-4.9-4.146l-2.449-2.073.829-.979 2.45 2.073-.83.979zm-4.899-4.145l-2.449-2.073.829-.98 2.449 2.073-.829.98zm-4.899-4.146l-2.45-2.073.83-.979 2.449 2.073-.829.979zm-4.899-4.145l-2.45-2.073.829-.98 2.45 2.073-.829.98zm-4.899-4.146l-2.45-2.072.829-.98 2.45 2.073-.829.979zm-4.9-4.145l-2.45-2.073.83-.98 2.449 2.073-.829.98zm-4.899-4.146l-2.45-2.073.829-.979 2.45 2.072-.829.98zm-4.899-4.146l-2.45-2.072.829-.98 2.45 2.073-.829.979zm-4.9-4.145l-2.449-2.073.829-.979 2.45 2.072-.83.98zm144.603 61.441l-1.076-.698 1.745-2.693 1.077.698-1.746 2.693zm3.491-5.385l-1.077-.699 1.745-2.693 1.077.698-1.745 2.694zm3.49-5.386l-1.077-.699 1.745-2.693 1.077.699-1.745 2.693zm3.49-5.386l-1.077-.698 1.745-2.694 1.077.699-1.745 2.693zm3.49-5.386l-1.077-.698 1.745-2.693 1.077.698-1.745 2.693zm3.49-5.386l-1.077-.698 1.745-2.693 1.077.698-1.745 2.693zm3.49-5.386l-1.077-.698 1.745-2.693 1.077.698-1.745 2.693zm3.49-5.386l-1.076-.698 1.744-2.693 1.077.698-1.745 2.693zm3.49-5.386l-1.077-.698 1.745-2.693 1.077.698-1.745 2.693zm3.49-5.385l-1.076-.699 1.744-2.693 1.077.698-1.745 2.694zm3.49-5.386l-1.077-.699 1.746-2.693 1.076.699-1.745 2.693zm3.49-5.386l-1.076-.698 1.744-2.694 1.077.699-1.745 2.693zm3.491-5.386l-1.077-.698 1.745-2.693 1.076.698-1.744 2.693zm3.489-5.386l-1.076-.698 1.744-2.693 1.077.698-1.745 2.693zm3.491-5.386l-1.077-.698 1.745-2.693 1.076.698-1.744 2.693zm-11.609 203.132l-.813-3.105 1.243-.324.812 3.104-1.242.325zm-1.626-6.208l-.813-3.104 1.242-.326.814 3.104-1.243.326zm-1.626-6.209l-.813-3.105 1.242-.324.813 3.104-1.242.325zm-1.626-6.209l-.813-3.104 1.243-.325.813 3.105-1.243.324zm-1.626-6.208l-.813-3.104 1.242-.325.813 3.104-1.242.325zm-1.626-6.208l-.813-3.104 1.242-.325.813 3.104-1.242.325zm-1.626-6.208l-.813-3.104 1.242-.326.814 3.104-1.243.326zm-1.626-6.209l-.813-3.104 1.242-.325.813 3.104-1.242.325zm-1.626-6.209l-.813-3.104 1.243-.324.812 3.104-1.242.324z" fill="#3F3C80"/><path d="M168.873 443.656c17.047 0 30.867-13.82 30.867-30.867 0-17.048-13.82-30.867-30.867-30.867-17.048 0-30.867 13.819-30.867 30.867 0 17.047 13.819 30.867 30.867 30.867z" fill="#1251C3"/><path d="M166.888 434.165c-.314-.204-.483-.498-.615-.847a58020.746 58020.746 0 00-13.659-36.064c-.158-.416-.34-.834.059-1.211.414-.39.826-.172 1.24.03 10.897 5.312 21.796 10.622 32.695 15.932.078.038.156.078.233.118.345.176.543.446.485.843-.057.397-.327.6-.704.673-.782.154-1.566.303-2.349.454-4.27.825-8.54 1.652-12.811 2.469-.237.045-.287.167-.326.371-.913 4.71-1.832 9.419-2.749 14.128-.153.783-.311 1.565-.452 2.349-.066.367-.281.596-.598.755h-.449zm17.213-21.64l-27.429-13.361c.193.348.436.625.682.9 4.402 4.917 8.806 9.833 13.205 14.753.159.178.299.284.57.231 3.729-.73 7.461-1.446 11.193-2.167.556-.108 1.111-.222 1.779-.356zm-28.545-12.124l-.061.034 11.384 30.049c.05-.177.073-.242.086-.309.877-4.513 1.75-9.027 2.639-13.537.066-.332.005-.548-.217-.796-3.968-4.418-7.926-8.845-11.886-13.27l-1.945-2.171z" fill="#fff"/><path d="M361.468 454.887h-2.246v-1.925h.321v-.963h1.925v2.888zm-5.455 0h-3.209v-1.925h3.209v1.925zm-6.417 0h-3.209v-1.925h3.209v1.925zm-6.418 0h-3.209v-1.925h3.209v1.925zm-6.418 0h-3.209v-1.925h3.209v1.925zm-6.418 0h-3.209v-1.925h3.209v1.925zm-6.418 0h-3.209v-1.925h3.209v1.925zm-6.418 0h-3.208v-1.925h3.208v1.925zm-6.417 0h-3.209v-1.925h3.209v1.925zm-6.418 0h-3.209v-1.925h3.209v1.925zm-6.418 0h-3.209v-1.925h3.209v1.925zm-6.418 0h-3.209v-1.925h3.209v1.925zm-6.418 0h-3.208v-1.925h3.208v1.925zm-6.417 0h-3.209v-1.925H279v1.925zm-6.418 0h-3.209v-1.925h3.209v1.925zm-6.418 0h-3.209v-1.925h3.209v1.925zm-6.418 0h-3.209v-1.925h3.209v1.925zm-6.418 0h-3.209v-1.925h3.209v1.925zm-6.417 0h-3.209v-1.925h3.209v1.925zm-6.418 0h-3.209v-1.925h3.209v1.925zm-6.418 0h-3.209v-1.925h3.209v1.925zm-6.418 0h-3.209v-1.925h3.209v1.925zm-6.418 0h-3.209v-1.925h3.209v1.925zm-6.417 0h-3.209v-1.925h3.209v1.925zm-6.418 0h-3.209v-1.925h3.209v1.925zm-6.418 0h-3.209v-1.925h3.209v1.925zm-6.418 0h-3.209v-1.925h3.209v1.925zm-6.418 0h-3.209v-1.925h3.209v1.925zm-6.417 0h-3.209v-1.925h3.209v1.925zm-4.172-2.246h-1.925v-3.209h1.925v3.209zm182.907-3.851h-1.925v-3.209h1.925v3.209zm-182.907-2.567h-1.925v-3.209h1.925v3.209zm182.907-3.85h-1.925v-3.209h1.925v3.209zm-182.907-2.568h-1.925v-3.208h1.925v3.208zm182.907-3.85h-1.925v-3.209h1.925v3.209zm-182.907-2.567h-1.925v-3.209h1.925v3.209z" fill="#FDBB61"/><path d="M54.056 293.675c19.849 0 35.94-16.09 35.94-35.939s-16.091-35.94-35.94-35.94c-19.85 0-35.94 16.091-35.94 35.94 0 19.849 16.09 35.939 35.94 35.939z" fill="#FD835A"/><path d="M52.835 266.897c.77.878 1.672.878 2.441-.001 3.247-3.706 6.488-7.418 9.736-11.123.448-.512.677-1.066.376-1.719-.3-.648-.86-.854-1.545-.849-1.658.012-3.315.004-4.973.004h-.512v-.58c0-5.868-.012-11.737.013-17.606.003-.888-.25-1.534-1.089-1.892H50.83c-.839.358-1.092 1.004-1.088 1.892.024 5.884.012 11.767.012 17.651v.535c-1.873 0-3.679.007-5.485-.004-.685-.004-1.245.203-1.545.85-.3.652-.071 1.207.377 1.718 3.248 3.706 6.488 7.418 9.735 11.124z" fill="#fff"/><path d="M69.806 264.682v8.582H38.273v-8.582h-5.73v11.921c.26.927.723 1.7 1.63 2.126.254.119.527.197.79.294h38.184c.932-.257 1.704-.728 2.131-1.637.118-.251.194-.521.29-.783v-11.921h-5.762z" fill="#fff"/><path d="M98.67 254.614h-3.21v-1.925h3.21v1.925zm-6.418 0h-3.21v-1.925h3.21v1.925zm-6.418 0h-3.21v-1.925h3.21v1.925zm-6.418 0h-3.209v-1.925h3.209v1.925zm21.49-2.898H98.98v-3.209h1.926v3.209zm0-6.418H98.98v-3.209h1.926v3.209zm0-6.418H98.98v-3.208h1.926v3.208zm0-6.417H98.98v-3.209h1.926v3.209zm0-6.418H98.98v-3.209h1.926v3.209zm0-6.418H98.98v-3.209h1.926v3.209zm0-6.418H98.98V210h1.926v3.209zm0-6.418H98.98v-3.208h1.926v3.208zm0-6.417H98.98v-1.236h1.926v1.236zm191.709-94.219c18.331 0 33.191-14.86 33.191-33.192 0-18.331-14.86-33.191-33.191-33.191-18.331 0-33.192 14.86-33.192 33.191 0 18.331 14.861 33.192 33.192 33.192z" fill="#FDBB61"/><path d="M309.443 62.644v24.581c-.017.04-.04.079-.05.12-.379 1.58-1.466 2.443-3.084 2.444l-27.37-.001c-.197 0-.397 0-.59-.032-1.559-.254-2.557-1.443-2.557-3.05-.002-6.9-.001-13.8-.001-20.7 0-2.29-.012-4.579.005-6.868.009-1.282.619-2.208 1.783-2.75.244-.114.516-.17.775-.251h6.901c.051.018.1.045.152.054 1.846.296 3.132 1.317 3.882 3.018.121.276.194.573.294.871h6.382c3.482 0 6.963-.006 10.445.004 1.311.003 2.25.622 2.796 1.813.108.236.16.497.237.747zm-31.68 7.309V86.71c0 .726.401 1.106 1.16 1.106h27.369c.809 0 1.179-.372 1.179-1.186V69.952h-29.708zm29.708-1.998v-4.73c0-.807-.372-1.173-1.191-1.173h-17.477c-.667 0-1.082-.37-1.116-.986-.099-1.79-1.321-2.955-3.107-2.957-1.884-.002-3.767 0-5.651 0-.791 0-1.166.374-1.166 1.164v8.675h1.971l.001-2.742c0-.813.369-1.182 1.181-1.182h23.391c.831 0 1.192.365 1.192 1.205l.001 2.43c0 .095.011.19.017.296h1.954zm-3.96-1.938h-21.779v1.935h21.779v-1.934z" fill="#fff"/><path d="M293.603 78.47c.775-.775 1.486-1.485 2.195-2.197.273-.274.591-.416.979-.323.709.168.996.97.562 1.555-.058.08-.129.15-.199.219-1.231 1.231-2.461 2.463-3.693 3.693-.561.56-1.096.561-1.651.007-1.256-1.254-2.513-2.505-3.762-3.765-.597-.602-.374-1.51.412-1.707.387-.097.709.04.982.314.71.714 1.419 1.43 2.203 2.22v-.429c0-1.686-.001-3.372.001-5.059 0-.407.178-.717.54-.907.341-.18.679-.151.995.062.316.213.438.525.437.902-.003 1.654-.001 3.307-.001 4.96v.456z" fill="#fff"/><path d="M287.687 83.796h9.86c0-.313-.004-.616 0-.919.009-.605.43-1.045.993-1.04.551.005.97.437.976 1.024.008.635.009 1.27 0 1.905-.008.596-.422 1.01-1.021 1.011-3.919.004-7.839.004-11.759 0-.598 0-1.011-.417-1.018-1.013a86.417 86.417 0 01-.001-1.905c.007-.585.428-1.018.978-1.022.551-.004.978.427.991 1.01.007.305.001.61.001.949z" fill="#fff"/><path d="M291.194 97.416h-1.926v1.605h1.926v-1.605zm0 47.128h-1.926v-3.251h1.926v3.251zm0-6.503h-1.926v-3.252h1.926v3.252zm0-6.503h-1.926v-3.252h1.926v3.252zm0-6.504h-1.926v-3.251h1.926v3.251zm0-6.503h-1.926v-3.252h1.926v3.252zm0-6.503h-1.926v-3.252h1.926v3.252zm0-6.504h-1.926v-3.252h1.926v3.252zm.641 44.839h-2.567v-2.567h1.926v.642h.641v1.925zm14.89 0h-3.723v-1.925h3.723v1.925zm-7.445 0h-3.723v-1.925h3.723v1.925zm12.771-1.925h-1.604v1.925h1.604v-1.925z" fill="#FDBB61"/><path d="M455.227 295.091c22.887 0 41.44-18.553 41.44-41.439s-18.553-41.439-41.44-41.439c-22.886 0-41.439 18.553-41.439 41.439s18.553 41.439 41.439 41.439z" fill="#EE5763"/><path d="M479.476 234.998v37.307c-.411 1.201-1.319 1.92-2.397 2.474-.182.093-.366.185-.552.269-1.65.741-3.392 1.176-5.158 1.515-4.789.918-9.637 1.207-14.497 1.31-3.774.081-7.54-.093-11.299-.436-3.113-.284-6.206-.68-9.222-1.532-1.429-.403-2.827-.895-4.034-1.802-.886-.666-1.337-1.512-1.335-2.668.021-11.836.024-23.671-.003-35.507-.003-1.239.479-2.124 1.441-2.799a9.12 9.12 0 011.345-.783c2.031-.953 4.202-1.421 6.396-1.798 3.144-.541 6.316-.816 9.501-.974.88-.043 1.759-.108 2.638-.163h5.871c.312.029.624.073.936.085 3.769.138 7.524.419 11.245 1.055 2.13.364 4.238.826 6.22 1.723 1.272.576 2.417 1.303 2.904 2.724zm-45.451 28.07c0 2.679.019 5.361-.016 8.041-.007.518.173.819.608.978 1.033.377 2.057.803 3.12 1.07 4.271 1.072 8.638 1.43 13.022 1.613 4.086.17 8.168.109 12.247-.185 3.038-.219 6.064-.544 9.027-1.26 1.279-.309 2.518-.788 3.768-1.212.475-.161.669-.486.661-1.039-.036-2.508-.016-5.016-.016-7.525v-.544c-.127.038-.198.061-.27.081-1.604.454-3.187 1.011-4.816 1.34-4.777.966-9.629 1.223-14.488 1.327-3.771.081-7.536-.095-11.294-.435-2.624-.238-5.236-.553-7.8-1.169-1.249-.3-2.472-.708-3.753-1.081zm0-24.24v.372c0 2.571.016 5.143-.013 7.714-.006.475.16.761.562.908 1.047.383 2.084.821 3.161 1.092 4.255 1.073 8.607 1.429 12.975 1.614 4.101.173 8.199.112 12.294-.184 3.038-.219 6.064-.544 9.027-1.259 1.279-.309 2.519-.786 3.769-1.21.473-.161.67-.484.662-1.039-.037-2.508-.016-5.016-.016-7.525v-.544l-.268.078c-1.604.453-3.187 1.011-4.816 1.341-4.776.965-9.629 1.223-14.488 1.327-3.771.08-7.536-.095-11.294-.435-2.624-.238-5.236-.553-7.8-1.169-1.249-.3-2.473-.708-3.755-1.081zm42.421 12.158c-1.569.424-3.069.909-4.604 1.23-4.928 1.029-9.935 1.302-14.951 1.418-3.946.09-7.885-.103-11.813-.475-2.858-.269-5.7-.655-8.474-1.422-.858-.238-1.697-.546-2.579-.833v.542c0 2.524.017 5.048-.014 7.572-.006.494.166.788.589.941 1.034.375 2.057.805 3.119 1.073 4.208 1.062 8.512 1.423 12.833 1.611 4.132.179 8.262.123 12.389-.174 3.211-.232 6.408-.582 9.534-1.367 1.184-.297 2.322-.778 3.475-1.192.378-.135.512-.413.508-.843-.024-2.556-.012-5.111-.012-7.667v-.414zm-.221-15.398l-.022-.161c-.199-.113-.387-.256-.599-.334-.813-.296-1.619-.627-2.453-.846-4.279-1.123-8.66-1.514-13.061-1.7-5.779-.244-11.547-.114-17.289.651-2.377.316-4.737.723-7.01 1.518-.523.183-1.021.44-1.653.717.278.166.412.275.565.331.87.321 1.728.694 2.622.929 4.278 1.126 8.661 1.507 13.061 1.702 5.288.233 10.57.123 15.835-.466 2.665-.298 5.315-.701 7.882-1.51.723-.228 1.415-.551 2.122-.831z" fill="#fff"/><path d="M441.086 271.83a2.037 2.037 0 01-2.015-2.016c-.003-1.094.91-2.016 2.01-2.028 1.113-.012 2.043.924 2.033 2.046a2.024 2.024 0 01-2.028 1.998zm2.028-26.276a2.023 2.023 0 01-1.99 2.035 2.035 2.035 0 01-2.053-2.025 2.048 2.048 0 012.019-2.018c1.097-.005 2.016.907 2.024 2.008zm0 12.117a2.025 2.025 0 01-1.987 2.039 2.036 2.036 0 01-2.056-2.023c.002-1.095.919-2.014 2.016-2.021 1.096-.007 2.018.905 2.027 2.005z" fill="#fff"/><path d="M421.475 252.085h-3.209v-1.925h3.209v1.925zm-6.418 0h-3.209v-1.925h3.209v1.925zm-6.418 0h-3.209v-1.925h3.209v1.925zm-5.455-.963h-1.925v-3.209h1.925v3.209zm0-6.417h-1.925v-3.209h1.925v3.209zm0-6.418h-1.925v-3.209h1.925v3.209zm0-6.418h-1.925v-3.209h1.925v3.209zm0-6.418h-1.925v-3.209h1.925v3.209zm0-6.418h-1.925v-3.209h1.925v3.209zm0-6.418h-1.925v-3.208h1.925v3.208zm0-6.417h-1.925v-3.209h1.925v3.209zm0-6.418h-1.925v-3.209h1.925v3.209zm0-6.418h-1.925v-3.209h1.925v3.209zm0-6.418h-1.925v-3.209h1.925v3.209z" fill="#FDBB61"/></svg>