<svg width="600" height="420" fill="none" xmlns="http://www.w3.org/2000/svg"><path d="M239.808 390.9l-29.383-83.216h8.092c1.916 0 3.483-.975 3.483-2.175V302.7c0-1.2-1.567-2.175-3.483-2.175H115.933c-1.916 0-3.483.975-3.483 2.175v2.809c0 1.2 1.567 2.175 3.483 2.175h10.417L96.967 390.9c-.392 1.117.75 2.234 2.5 2.5 1.75.267 3.575-.466 3.966-1.583l29.734-84.133h70.441l29.725 84.116c.392 1.117 2.175 1.834 3.967 1.584 1.758-.25 2.9-1.367 2.508-2.484z" fill="#F55662"/><path d="M210.425 307.684h-6.817l8.067 22.841 6.875.159-8.125-23zm-84.075 0l-7.325 20.741 6.767.159 7.375-20.9h-6.817z" fill="#000" opacity=".3"/><path d="M493.833 207.017c19.551 0 35.4-33.027 35.4-73.767 0-40.74-15.849-73.767-35.4-73.767s-35.4 33.027-35.4 73.767c0 40.74 15.849 73.767 35.4 73.767z" fill="url(#paint0_linear_406_3597)"/><path d="M512.933 71.125c5.55 13.033 8.925 30.183 8.925 48.975 0 40.742-15.833 73.767-35.4 73.767-7.033 0-13.583-4.267-19.091-11.667 6.483 15.208 15.933 24.792 26.466 24.792 19.55 0 35.4-33.025 35.4-73.767 0-26.058-6.5-48.983-16.3-62.1z" fill="#FE845A"/><path d="M494.317 89.15v301.034m0-267.701l13.8-16.841m-13.8 51.467l13.8-16.834m-13.8 1.692l-13.792-16.833m13.792 47.733l-13.792-16.842m13.792 37.009l13.8-16.842" stroke="#231F20" stroke-width="1.23" stroke-miterlimit="10" stroke-linecap="round"/><path d="M558.133 270.225c-6.666-11.442 6.85-22.675 2.259-34.167-2.367-5.925-9.325-8.574-13.067-13.733-3-4.125-3.667-9.45-4.083-14.533-.417-5.084-.725-10.375-3.2-14.834a13.422 13.422 0 00-2.55-3.275c-2.759-2.616-6.584-4.083-10.109-2.883-4.483 1.533-6.708 6.467-8.116 10.983a104.295 104.295 0 00-3.525 15.259c-.759 4.925-1.292 10.225-4.475 14.05-3.492 4.208-9.392 5.65-13.284 9.491a14.499 14.499 0 00-4.033 12.5c.667 3.959 2.95 7.434 4.583 11.101 1.634 3.666 2.567 8.108.567 11.591-1.758 3.067-5.317 4.583-7.783 7.125-3.15 3.242-4.325 8.075-3.759 12.567.567 4.492 2.7 8.65 5.392 12.283a42.532 42.532 0 0013.633 11.85c7.942 4.334 17.775 6.508 22.884 13.983 3.983-8.616 18.333-14.6 23.916-19.358 5.834-5 11.225-11.742 12.35-19.6 1.259-8.792-3.55-13.492-7.6-20.4z" fill="url(#paint1_linear_406_3597)"/><path d="M530.092 257.992v131.325m0-88.592l18.916-18.916m-18.916-4.826l-16.259-16.258" stroke="#231F20" stroke-width="1.17" stroke-miterlimit="10" stroke-linecap="round"/><path d="M88.225 207.017c19.551 0 35.4-33.027 35.4-73.767 0-40.74-15.849-73.767-35.4-73.767-19.55 0-35.4 33.027-35.4 73.767 0 40.74 15.85 73.767 35.4 73.767z" fill="url(#paint2_linear_406_3597)"/><path d="M107.317 71.125c5.558 13.033 8.933 30.183 8.933 48.975 0 40.742-15.833 73.767-35.4 73.767-7.033 0-13.583-4.267-19.092-11.667 6.484 15.208 15.934 24.792 26.467 24.792 19.55 0 35.4-33.025 35.4-73.767 0-26.058-6.5-48.983-16.308-62.1z" fill="#FE845A"/><path d="M88.708 89.15v301.034m0-267.701l13.8-16.841m-13.8 51.467l13.8-16.834m-13.8 1.692l-13.8-16.833m13.8 47.733l-13.8-16.842m13.8 37.009l13.8-16.842" stroke="#231F20" stroke-width="1.23" stroke-miterlimit="10" stroke-linecap="round"/><path d="M463.592 395.767c29.561 0 53.525-1.25 53.525-2.792 0-1.542-23.964-2.791-53.525-2.791s-53.525 1.249-53.525 2.791c0 1.542 23.964 2.792 53.525 2.792z" fill="#C7CCD1"/><path d="M438.258 379.616c0-.725-3.483-1.033-3.483-1.033s-14.25 4.75-17.275 6.417c-2.008 1.1-2.667 4.166-2.883 6.066a1.458 1.458 0 00.356 1.112 1.447 1.447 0 001.06.488c6.609.1 32.5.467 32.775 0 .275-.466-.458-12.025-.458-12.025s-10.092-.291-10.092-1.025z" fill="#403881"/><path d="M435.05 372.342l-.275 6.241s3.483.309 3.483 1.034c0 .725 10.125.983 10.125.983l.459-6.667-13.792-1.591z" fill="#FCA080"/><path d="M414.65 391.05c-.021.2 0 .402.062.593a1.435 1.435 0 00.773.874c.183.084.381.13.582.133 6.608.1 32.5.467 32.775 0 .069-.745.069-1.496 0-2.241l-26.334.166-.316-7.5A48.577 48.577 0 00417.5 385c-1.975 1.084-2.633 4.167-2.85 6.05z" fill="#E0E6EE"/><path d="M510.108 370.575s-7.5 2.909-7.875 2.617c-.375-.292-2.15.667-2.15.667s-.258 3.8-.833 4.725c-.575.925-4.892 5.558-8.85 7.141-2.8 1.125-3.667 4.225-3.925 5.95a1.05 1.05 0 001.042 1.2h10.716c2.025 0 18.625-11.341 18.875-12.775.25-1.433-7-9.525-7-9.525z" fill="#403881"/><path d="M502.233 373.192c.375.291 7.875-2.617 7.875-2.617l-2.441-5.983-10.609 4.733 3.025 4.533s1.767-.966 2.15-.666z" fill="#FCA080"/><path d="M486.467 391.667a1.051 1.051 0 00.604 1.106c.138.062.287.094.437.094h10.717c2.025 0 18.625-11.342 18.875-12.775a2.5 2.5 0 00-.492-1.317c-3.616 2.967-16.816 11.334-17.5 11.667-.683.333-3.766 0-3.766 0 .116-3.483-2.884-5.833-2.884-5.833-.652.414-1.341.769-2.058 1.058-2.808 1.183-3.675 4.283-3.933 6z" fill="#E0E6EE"/><path d="M467.933 236.842s4.759 11.541 1.892 24.016c0 0 11.125 42.725 12.642 44.742 1.516 2.017 7.758 8.683 9.358 13.908 1.6 5.225 15.833 45.084 15.833 45.084l-10.833 5.65s-26.4-45.242-28.892-49.467c-2.491-4.225-14.283-25.117-14.283-25.117s-2.275 13.567-2.025 14.584c.25 1.016-.967 4.166 0 5.141.967.975 1.667 8.334 1.283 15.834-.383 7.5-4.05 42.725-4.05 42.725s-12.05 1.433-14.575-.833c0 0-4.666-58.617-5-62.55-.333-3.934 0-8.434-.116-10.117-.117-1.684-4.659-58.034-4.659-58.034l43.425-5.566z" fill="#403881"/><path d="M445 245c.067-1.841.1-3.583.1-5.241l-20.583 2.633s4.55 56.35 4.658 58.033c.108 1.684-.217 6.184.117 10.117.333 3.933 5 62.55 5 62.55-2.025-29.067 7.25-46.092 8.933-56.542 1.683-10.45 10.45-20.9 10.45-20.9s-15.508-29.941-17.758-37.133C433.667 251.325 445 245 445 245z" fill="#232059"/><path d="M389.492 117.5l-88.775-14.109a6.921 6.921 0 00-5.153 1.235 6.917 6.917 0 00-2.772 4.515l-3.925 24.742a28.816 28.816 0 00.108 4.367l3.2.483c.175 0 .367.067.55.083a4.356 4.356 0 001.792-.25 18.327 18.327 0 019.625-.795 18.328 18.328 0 0114.045 12.248 18.336 18.336 0 01-12.125 23.333 18.336 18.336 0 01-18.095-4.452 2.876 2.876 0 00-1.734-.834l-3.333-.508-4.167 30.183a6.834 6.834 0 005.675 7.817l25.359 4.025a3.178 3.178 0 011.468.642 3.184 3.184 0 011.202 2.86 3.2 3.2 0 01-.57 1.498 18.332 18.332 0 0016.466 28.917c6.192-.442 13.192-5.642 15.434-11.434a18.484 18.484 0 00.416-12.5 3.097 3.097 0 01.597-2.961 3.096 3.096 0 012.837-1.039l25.516 4.05a6.814 6.814 0 007.809-5.666L395 125.125a6.665 6.665 0 00-5.508-7.625z" fill="#201851"/><path d="M340.45 231.575a18.483 18.483 0 00.417-12.458 3.09 3.09 0 013.433-4l25.525 4.05a6.828 6.828 0 007.808-5.667l14.109-88.875a6.668 6.668 0 00-5.534-7.625l-88.775-14.1a6.926 6.926 0 00-7.925 5.75l-3.925 24.742a4.275 4.275 0 001.492 3.95 4.261 4.261 0 004.158.733 18.293 18.293 0 0124.079 21.071 18.288 18.288 0 01-12.589 13.648 18.29 18.29 0 01-18.04-4.394 2.924 2.924 0 00-4.925 1.667l-4.325 27.233a6.833 6.833 0 001.22 5.08 6.827 6.827 0 004.455 2.729l25.359 4.025a3.197 3.197 0 012.1 5 18.335 18.335 0 006.387 26.808A18.338 18.338 0 00325 243.008c6.208-.449 13.208-5.641 15.45-11.433z" fill="#F55662"/><path d="M365.833 197.359c3.167 1.667 12.425 3.333 17.067 4.05l1.133-7.117-25.45-5.833s2.959 6.625 7.25 8.9z" fill="#000" opacity=".5"/><path d="M466.667 215.1c.508-6.408 1.858-38.483 1.066-43.65-.791-5.167-10.25-11.167-10.25-11.167s-15.366 3.709-21.233 6.834c0 0-19.167 5.566-23.008 5.341-2.85-.166-17.592-3.433-24.884-5.083l-2.05 12.908c7.875 2.5 23.334 7.15 28.842 7.234 1.358 0 3.275-.109 5.492-.317l-3.134 1.667a84.042 84.042 0 00-19.658 0 84.8 84.8 0 01-12.983.475 33.712 33.712 0 01-4.659-.475l-1.575 9.216 4.734.742c9.441 1.45 30.283 4.483 36.725 4.117a32.076 32.076 0 004.916-.834c.092 6.234.542 11.825.367 13.984-.333 4.166-.833 26.3-.833 26.3s5.058 2.866 14.833 3.183c9.775.317 28.608-8.742 28.608-8.742s-1.866-15.333-1.316-21.733z" fill="#1150BF"/><path d="M426.667 184.167l14.833-7.583s-4.833-3.15-3.883-5.675c.95-2.525 5.65-4.592 5.65-4.592l2.458-2.841a61.065 61.065 0 00-9.533 3.608c-2.025 1.833-7.859 11.25-9.525 17.083zm13.275 49.475c2.133-.833-3.825-1.858-7.959-2.7-4.133-.842-4.066-15.558-2.941-19.383 1.125-3.825 25.833-18.625 25.833-18.625-1.667.758-29.942 9.166-29.942 9.166.092 6.234.542 11.825.367 13.984-.333 4.166-.833 26.3-.833 26.3s5.058 2.866 14.833 3.183A26.305 26.305 0 00445 245c-5.9 0-7.192-10.516-5.058-11.358z" fill="#094081"/><path d="M428.933 169.167c-6.55 3.017-15.491 6.984-20.283 6.442-6.108-.683-15.5-3.008-20.933-4.433l-1.45 9.166c7.875 2.5 23.333 7.15 28.841 7.234 1.359 0 3.275-.109 5.492-.317l6.067-3.092s4.383-11.666 9.525-17.083c.008.033-3.2.967-7.259 2.083z" fill="#073868"/><path d="M380.167 188.9a16.564 16.564 0 01-2.009-.267c-.6-.166-2.55-2.775-3.583-3.333-1.033-.559-4.342-1.742-5.05-2.175-.708-.434-.375 1.2 0 1.791a13.793 13.793 0 001.667 1.742l-4.942-1.033s-3.425-2.934-4.833-3.259c-1.409-.325-1.409.759-1.409.759s-1.25-.834-1.791-.375c-.542.458.758 1.575.758 1.575s-.833-.55-1.208 0 1.708 3.125 1.708 3.125-1.625-.1-.608 1.475a40.1 40.1 0 003.741 4.633 24.424 24.424 0 006.35 3.334c1.917.533 9.667 1.166 9.667 1.166l1.542-9.158zm57.383-55.25s-3.033 22.583 0 23.641c3.033 1.059 6.742 0 6.742 0s-1.05 8.334-1.009 9.059c.042.725 13.442-3.25 14.167-6.067l-1.308-15.467s4.55-7.5.591-10.066c-3.958-2.567-14.083-6.7-19.183-1.1z" fill="#F59D80"/><path d="M444.292 157.292l4.641-1.941-4.95 4.458.309-2.517zm8.05-11.167a2.61 2.61 0 002.201.23 2.61 2.61 0 001.59-1.539s-.233 5.5-3.791 1.309zm-11.65-10.392c1.391-1.725 2.5-1.483 2.658-.633.158.85.775 1.567 2.733 1.017a4.317 4.317 0 013.634.891 11.334 11.334 0 001.75-4.816c-4.609-1.667-10.434-2.367-13.917 1.458 0 0-.175 1.308-.392 3.333a3.97 3.97 0 003.534-1.25z" fill="#D07A62"/><path d="M463.792 136.308c-.284-2.133-1.667-2.108-1.667-2.108s1.992-5.225-.642-6.667a18.396 18.396 0 00-6.575-1.566s-7.925-4.1-9.666-3.15c0 0-3.334-3.334-6.967-2.134-3.633 1.2-8.667 3.584-5.108 11.85 3.558 8.267 7.641-.108 9.716 1.467 2.075 1.575.509 2.3 3.15 1.85 2.642-.45 3.65 1.125 3.65 1.125s-1.325 6.667.642 6.35c1.967-.317 3.433-4.05 5.45-4.242 2.017-.191.325 5.7.325 5.7s-1.583 3.4-1.108 4.042c.407.445.938.758 1.525.9l5.15-9.517s2.4-1.766 2.125-3.9z" fill="#403881"/><path d="M450.358 143.334c1.967-.342 3.434-4.05 5.45-4.242 2.017-.192.325 5.7.325 5.7s-1.583 3.4-1.108 4.042c.408.445.938.758 1.525.9l5.117-9.525s2.441-1.767 2.166-3.9c-.275-2.134-1.666-2.109-1.666-2.109s2.083.45.566 2.809c-1.516 2.358-5.058 0-5.058 0a1.218 1.218 0 01-1.667 0s-3.708 2.5-6.316 0c.025 0-1.3 6.683.666 6.325z" fill="#1E194F"/><path d="M372.375 290h-25.058a4.272 4.272 0 00-4.258 4.197c-.012.74.169 1.471.524 2.12 1.517 2.741-3.816 26.483-15 27.1a18.334 18.334 0 01-15.95-28.809 2.919 2.919 0 00.217-3.027 2.91 2.91 0 00-2.592-1.581h-27.583a6.825 6.825 0 00-6.817 6.825s-2.5 29.6-4.625 28.542a18.123 18.123 0 00-7.216-1.9h-.925l-4.859-.075L257.5 360h3.942c3.75-.108 7-.458 9.891-1.933a3.092 3.092 0 013.024.125 3.096 3.096 0 011.476 2.641v25.834a6.82 6.82 0 006.817 6.816h90a6.667 6.667 0 006.667-6.666v-89.859a6.924 6.924 0 00-4.278-6.435 6.935 6.935 0 00-2.664-.523z" fill="#201851"/><path d="M254.108 359.55a18.45 18.45 0 0012.367-1.542 3.097 3.097 0 013.021.125 3.089 3.089 0 011.471 2.642v25.833a6.825 6.825 0 006.825 6.825h90a6.668 6.668 0 006.666-6.666v-89.892A6.925 6.925 0 00367.5 290h-25a4.262 4.262 0 00-3.671 2.092 4.25 4.25 0 00-.062 4.225 18.33 18.33 0 01-.466 18.631 18.336 18.336 0 01-25.704 5.555 18.328 18.328 0 01-8.118-16.776 18.33 18.33 0 013.304-9.077 2.92 2.92 0 00.215-3.031 2.91 2.91 0 00-2.598-1.577h-27.608a6.825 6.825 0 00-6.825 6.825V322.5a3.193 3.193 0 01-4.625 2.858 18.344 18.344 0 00-19.596 2.123 18.335 18.335 0 00-6.346 18.661c1.408 6.008 7.633 12.1 13.708 13.408z" fill="url(#paint3_linear_406_3597)"/><path d="M205.375 367.149c1.167-1.341 6.55-3.4 8.817-6.716 2.266-3.317 10.116-14.884 16.108-12.625 5.992 2.258-5.183 10.358-8.5 14.408-3.317 4.05-3.592 15.783-12.358 15.783-8.767 0-6.659-7.85-4.067-10.85z" fill="#3D86FA"/><path d="M204.858 336.966s4.167.125 3.809 6.033c-.359 5.909-1.984 10.317-1.667 13.467.317 3.15 3.2 15.258-2.142 16.067-5.341.808-11.491-1.009-8.816-9.709 2.675-8.7.241-27.558 8.816-25.858z" fill="#1351BE"/><path d="M203.567 344.008s-3.884 35.716-3.884 47.958m1.15 0s2.25-21.958 26.667-40.942" stroke="#231F20" stroke-width="1.1" stroke-miterlimit="10" stroke-linecap="round"/><path d="M46.283 313.333c1.242 31.583 21.117 82.283 40.292 76.35 5.05-1.567-1.442-25.1-20-45.833-13.409-14.942-16.925-25.9-20.292-30.517z" fill="#FE845A"/><path d="M102.908 385.758c-.116 1.992 27.5 4.525 40.25-16.308 10-16.225 16.15-17.683 21.484-20.558-36.309-.659-61.425 31.658-61.734 36.866z" fill="#201851"/><path d="M112.775 342.891c-.175-1.667 1.55-13.9-.292-23.475-3.775 3.7-17.791 51.417-17.35 59.167.167 2.858-1.508 10.716 4.475 12.133 6.309 1.5 17.959-13.742 22.084-24.25 13.65-34.75 3.833-33.283 15.208-53.05-4.525 3.25-21.742 23.25-24.125 29.475z" fill="#413B8A"/><path d="M120.067 329.441c-2.292 3.334-3.334 7.259-5.584 10.509-1.808 2.625-1.625 5.916-2.908 8.441-1.383 2.709-3.8 4.1-3.942 7.909-.066 1.775.384 3.25.225 4.858-.2 2-1.041 3.85-1.066 5.992 0 1.491.441 2.916.483 4.341.108 4-6.233 10.55-1.15 14.167-.275 3.375.342 4.575 2.083 4.625 3.717.108 3.575-3.683 4.309-5.767.833-2.408 3.566-3.975 3.825-7.283.133-1.667-.834-3.708-.667-5.258.142-1.167 1.217-1.809 1.833-2.792 1.592-2.5 1.667-5.442 1.492-8.333-.1-1.667-1.433-4.384-1.225-5.909.4-2.925 3.333-3.666 2.5-7.883-.275-1.275-1.367-2.817-1.333-4.125.033-1.308.891-2.192 1.333-3.383 1.2-3.275-.167-6.717-.208-10.109z" fill="#FE845A"/><path d="M105.925 377.808c-3.558-.142-8.05 3.217-10.417 6.925.05-2.325.167-4.658.325-7 2.5-2.308 6.834-1.667 9.342-4.625 2.65-3.133 0-6.667-3.75-4.775-1.825.917-3.95 3.975-5.367 6.5.133-1.667.308-3.975.45-5.633.117-1.45.209-2.892.292-4.325 2.883-1.8 9.058-1.667 9.708-6.434.459-3.333-2.858-5.658-5.533-2.933a24.435 24.435 0 00-4.042 6.025c.083-2.683.075-5.358 0-8.017 3.167-2.5 10.4-1.766 11.809-6.441 1.15-3.817-3.709-4.7-6.475-2.817-2.767 1.883-4.1 5.183-5.384 8.242a95.146 95.146 0 00-.508-5.942c2.383-2.425 7.358-4.067 8.333-8.017.975-3.95-2.133-8.075-5.833-4.166-1.933 2.066-2.709 5.275-3.075 8.333-.358-2.175-.834-4.342-1.317-6.483a27.121 27.121 0 012.342-4.217c1.183-1.667 2.925-3.333 2.733-5.508-.342-3.742-3.217-1.834-4.517.616a14.398 14.398 0 00-1.3 6.184c-.65-2.392-1.725-6.009-2.558-8.334 1.258-3.833 10.759-11.216 3.892-11.666-3.25-.225-4.559 6.183-4.642 10-.492-1.267-1.725-4.167-1.817-4.392 1.134-3.142 6.667-12.8 1.967-13.333-3.733-.425-3.7 5.833-3.4 8.875.042.383.067.95.117 1.558a104.146 104.146 0 00-2.867-5.7 17.651 17.651 0 002.133-4.333c.359-1.142 1.425-6.134-1.666-4.4-1.192.658-1.667 4.225-1.55 6.75a79.92 79.92 0 00-2.383-3.867c-4.534-9.667-.067-21.892-7.5-20.708-8.792 1.4-6.292 8.65-4.167 11.358a34.504 34.504 0 009.767 8.333c.833 1.409 4.008 7.634 4.408 8.45-3.5-4.333-10.542-12.883-13.4-8.2-2.5 4.167 9.808 7.367 14.066 9.592 1.159 2.458 3.734 8.783 3.975 9.442-1.591-1.8-2.916-4.517-5.05-5.767-1.9-1.108-6.374-2.033-6.416.783-.059 4.009 5.725 4.525 8.566 5.25 2.05.525 2.884 1.45 3.459 1.275 1.111 3.228 2.089 6.5 2.933 9.817-2.166-3.983-8.558-12.5-11.666-7.942-4.042 5.909 7.891 6.075 11.908 8.834.816 3.395 1.455 6.83 1.916 10.291v.117c-1.391-3.158-2.5-6.367-5.266-8.783-2.542-2.2-7.133-3.334-7.183 1.875 0 3.783 6.6 4.508 9.633 6.35 1.341.833 2.325 1.883 3.025 2.325.341 3.236.516 6.487.525 9.741-5.334-4.6-9.317-18.025-14.058-11.891-4.167 5.375 8.575 6.583 14.025 13.125 0 2.966-.142 5.941-.342 8.925a33.813 33.813 0 00-2.933-6.884c-.834-1.666-5.45-6.575-7.625-2.933-2.175 3.642 4.525 6.667 6.533 7.825a9.743 9.743 0 013.867 4.092c-.042.55-.65 7.341-.834 10.2-1.308-4.934-12.5-23.175-17.133-13.259-2.975 6.359 10.833 7.942 13.891 10.217 2.092 1.55 2.809 2.9 3.159 4.317a99.363 99.363 0 00-.175 5c-2.625-4.617-9.167-13.517-12.692-6.884-4.167 7.842 6.958 5.834 9.025 7.034 1.8 1.033 3.825 1.666 3.758 4.225.106 1.955.326 3.903.659 5.833.25 1.367 2.425.9 2.275-.475a78.894 78.894 0 01-.417-8.05c3.183-1.858 10.209-1.833 12.35-3.558 3-2.492 1.992-5.784-1.908-5.942z" fill="url(#paint4_linear_406_3597)"/><path d="M51.375 398.333s3.983-11.783 13.208-7.991c0 0 4.609-14.917 15.934-3.25 11.325 11.666 7.841-13.384 19.116-11.134 11.275 2.25 7.925 10.834 7.925 10.834s10.775-5.559 8.409 4.041c0 0 25.341-12.641 25.758-1.95 0 0 16.983-3.141 14.05 5.659 0 0 9.85-2.5 9.85 3.775l-114.25.016z" fill="url(#paint5_linear_406_3597)"/><path d="M385 388.1s-.65-22.651-8.617-24.326c-7.966-1.675-9.108 14.167 0 29.734L385 388.1z" fill="url(#paint6_linear_406_3597)"/><path d="M380.833 390.832a.138.138 0 01-.133-.1c-3.8-15.283-5.433-20.9-5.45-20.958a.151.151 0 01.092-.167.142.142 0 01.101.014c.03.017.054.045.065.078 0 .058 1.667 5.683 5.459 20.967a.155.155 0 01-.02.101.146.146 0 01-.08.065h-.034z" fill="#231F20"/><path d="M387.733 393.508s12.142-11.517 7.592-17.101c-4.55-5.583-15.934 4.092-18.967 17.101h11.375z" fill="url(#paint7_linear_406_3597)"/><path d="M382.992 391.966h-.05a.139.139 0 01-.075-.175c3.016-6.825 8.891-12.25 8.95-12.308a.128.128 0 01.043-.03.131.131 0 01.104 0 .123.123 0 01.044.03.125.125 0 010 .183c-.058.059-5.891 5.45-8.883 12.225a.128.128 0 01-.054.061.128.128 0 01-.079.014z" fill="#231F20"/><path d="M377.5 393.508s-3.092-13.1-9.35-11.983c-6.258 1.116 0 11.891 0 11.891l9.35.092z" fill="url(#paint8_linear_406_3597)"/><path d="M371.325 391.875a.132.132 0 01-.125-.1l-2.092-7.609a.132.132 0 01.018-.099.133.133 0 01.082-.059.137.137 0 01.053-.008.156.156 0 01.052.015.125.125 0 01.04.036.121.121 0 01.022.049l2.083 7.616a.14.14 0 01-.091.167l-.042-.008z" fill="#231F20"/><path d="M531 385.833s.525-18.15 6.908-19.492c6.383-1.341 7.292 11.317 0 23.825L531 385.833z" fill="url(#paint9_linear_406_3597)"/><path d="M534.3 388.025a.097.097 0 00.065-.024.095.095 0 00.035-.06c3.042-12.241 4.358-16.741 4.367-16.783a.13.13 0 00.005-.044.106.106 0 00-.012-.042.099.099 0 00-.028-.033.097.097 0 00-.039-.02.105.105 0 00-.043-.003.104.104 0 00-.042.014.13.13 0 00-.032.03.132.132 0 00-.018.04c0 .041-1.325 4.55-4.367 16.791a.13.13 0 00-.002.044.127.127 0 00.015.041.114.114 0 00.031.031.097.097 0 00.04.018h.025z" fill="#231F20"/><path d="M528.783 390.183s-9.725-9.234-6.075-13.7c3.65-4.467 12.767 3.275 15.2 13.7h-9.125z" fill="url(#paint10_linear_406_3597)"/><path d="M532.583 388.949a.108.108 0 00.059-.058.108.108 0 000-.083 34.07 34.07 0 00-7.201-9.892.125.125 0 00-.046-.015.094.094 0 00-.047.006.104.104 0 00-.04.025.107.107 0 00.017.167 33.894 33.894 0 017.175 9.784.109.109 0 00.034.043c.014.012.031.02.049.023z" fill="#231F20"/><path d="M537.016 390.183s2.5-10.5 7.5-9.609c5 .892 0 9.534 0 9.534l-7.5.075z" fill="url(#paint11_linear_406_3597)"/><path d="M541.933 388.875a.107.107 0 00.1-.084l1.667-6.1a.112.112 0 00-.01-.082.11.11 0 00-.065-.051.12.12 0 00-.134.075l-1.666 6.108a.108.108 0 00.075.125l.033.009z" fill="#231F20"/><path d="M182.225 289.467s8.467 4.775 11.017 5.358c2.55.584 3.675 2.034 3.75 3.292.075 1.258-.184 1.825-.4 1.908-.217.084-24.8.992-25.059-.216-.258-1.209 1.35-10.001 1.35-10.001l9.342-.341z" fill="#232059"/><path d="M182.225 289.467s-4.058.675-4.05 1.391c.008.717-5.292-1.041-5.292-1.041l-.6-8.1 10.409.333-.467 7.417z" fill="#FDA181"/><path d="M171.533 299.808c.259 1.209 24.842.309 25.059.217.216-.092.475-.658.4-1.908-.075-1.25-1.2-2.7-3.75-3.292a7.182 7.182 0 01-1.059-.342c-.716.459-1.833 4.592-1.833 4.592-1.825.108-15.667-.167-18.825-.233-.038.321-.035.646.008.966z" fill="#E1E7EF"/><path d="M134.708 276.908l-.883 7.817-3.008 7.917a1.248 1.248 0 00.675 1.6c3.433 1.475 13.85 5.833 16.958 6.283 2.36.267 4.741.306 7.108.117a1.465 1.465 0 001.359-1.542c-.109-1.817-.709-4.792-3.484-5.55-4.066-1.108-10-7.383-10-7.383l1.784-6.209-10.509-3.05z" fill="#403882"/><path d="M143.458 286.167s-3.508-.075-4.216.583c-.709.658-5.417-2.025-5.417-2.025l.883-7.817L145.242 280l-1.784 6.167z" fill="#FDA181"/><path d="M131.492 294.241c3.433 1.475 13.85 5.834 16.958 6.284 2.36.267 4.741.306 7.108.116a1.462 1.462 0 001.359-1.541c-.109-1.817-.709-4.792-3.484-5.55a8.997 8.997 0 01-.708-.242c-4.3.692-4.567 5.358-4.567 5.358-3.716-.791-14.108-5.166-17.166-6.475l-.167.45c-.117.302-.113.636.011.935.124.298.359.537.656.665z" fill="#E1E7EF"/><path d="M184.092 132.15s5.466 32.3 4.483 61.25c-.983 28.95-5.517 89.417-5.517 89.417s-8.616.541-11.35-.792c0 0-5.166-41.208-3.983-53.842 1.183-12.633 1.442-13.883 1.442-15.283 0-1.4-2.217-22.383-2.217-22.383s-4.8 23.416-6.942 33.333c-2.141 9.917-14.766 56.15-14.766 56.15s-8.334-.392-10.534-3.05c0 0 2.859-43.033 5.834-53.575 2.975-10.542 4.333-16.15 4.166-20.875-.166-4.725-3.058-34.758.684-50.617 3.741-15.858 7.166-21.741 7.166-21.741l31.534 2.008z" fill="#403882"/><path d="M171.567 162.967l-4.659 27.55s2.259 20.975 2.259 22.383c0 1.408-.217 2.658-1.4 15.283-.117 1.234-.175 2.734-.175 4.434l.058 3.9s2.058-15.175 3.958-22.65c1.9-7.475-.041-50.9-.041-50.9z" fill="#232059"/><path d="M177.15 36.983s4.408-1.167 4.825 2.208c.417 3.375-1.142 10.259 2.617 11.567 3.758 1.308 8.675 2.958 6.608 7.5-2.067 4.542-8.4 7.092-5.167 11.433 3.234 4.342 5.992 4.334 1.242 9.567-4.75 5.233-39.567 4.833-39.567 4.833s-6.566-2.766-8.216-8.066c-1.65-5.3-5-9.017-.067-10.834 4.933-1.816 8.908-1.35 9.292-8.583.383-7.233.466-16.092 5.708-19.817 5.242-3.725 17.083-8.2 19.633-5.791a11.663 11.663 0 013.092 5.983z" fill="#403882"/><path d="M183.558 62.5c.892-4.892-.416-6.609-2.408-11.709a35.664 35.664 0 01-2.183-10.441s-10.175 15.191-15.742 15.883c-5.567.692-7.558-3.008-7.558-3.008s-3.025 2.666-3.917 8.65c-.892 5.983-15.908.533-14.5 8.333.558 1.667 1.55 3.575 2.242 5.833a18.4 18.4 0 005.9 8.459s37.133 0 41.883-5.225c4.617-5.084 2.15-5.225-.967-9.167a7.75 7.75 0 01-2.448-3.416 7.752 7.752 0 01-.302-4.192z" fill="#232059"/><path d="M271.967 151.374c-2.642-5.6-10-10.233-16.192-10.233a18.418 18.418 0 00-11.733 4.1 3.086 3.086 0 01-2.998.535 3.092 3.092 0 01-2.002-2.293l-5.384-25.15a6.801 6.801 0 00-8.083-5.217l-87.742 18.842a6.667 6.667 0 00-5.1 7.9l18.867 87.641a6.905 6.905 0 004.658 5.125l-1.158.325h3.433a6.584 6.584 0 001.267-.15l1.908-.408 22.5-4.85a4.249 4.249 0 002.317-6.942 18.248 18.248 0 01-4.164-8.644 18.245 18.245 0 0115.089-21.333 18.245 18.245 0 0120.935 15.637 18.248 18.248 0 01-1.293 9.507 2.914 2.914 0 00-.159 1.849c.151.617.499 1.167.992 1.568l-1.317.641h3.042c.238.007.476-.016.708-.066l26.884-5.784a6.816 6.816 0 005.225-8.091l-5.392-25a3.184 3.184 0 013.908-3.759c3.378.864 6.933.743 10.245-.348a18.273 18.273 0 0012.427-15.257c.4-3.463-.201-6.969-1.73-10.103l.042-.042z" fill="#201851"/><path d="M212.567 114.024a2407.47 2407.47 0 00-10.292-16.733C193.842 83.724 190.3 79.858 190.3 79.858c-1.283-1.234-12.5-3.334-12.5-3.334l-14.467-.633s-4.333-.517-10.833-.717c-4.7-.141-7.417 1.759-10.975 5.084 3.983-3.192 6.583 20.058 6.583 20.058s1.617 10.65 2.884 19.225l1.508 1.292c4.55 3.958 10.283 9.3 10.283 9.3l-3.1 3.958.834.258c3.033.884 23.116-1.775 23.608-2.166.492-.392 3.2-19.209 3.692-20.784.491-1.575 3.333-5.758 3.333-5.758l13.075 18.983 12.725-3.333s-1.65-2.792-4.383-7.267z" fill="#1150BE"/><path d="M170.733 110.6c-.95-.759-8.233-1.342-12.283-2.275-4.05-.934-5.833-13.65-5.833-13.65l-4.492 5.641s1.617 10.65 2.883 19.225l1.492 1.292c4.55 3.958 10.283 9.3 10.283 9.3l-3.1 3.958.834.259c1.73.232 3.481.254 5.216.066-.575-3.133-2.45-13.458-2.95-16.45-.625-3.566 8.884-6.608 7.95-7.366zm20.4-4.992s1.667-3.541 1.559-5.833a53.665 53.665 0 00-1.292-7.025s5.617 13.483 6.967 16.125c1.35 2.642 18.566 12.308 18.566 12.308l-12.725 3.334-13.075-18.909z" fill="#094082"/><path d="M252.675 141.141a18.418 18.418 0 00-11.733 4.1 3.084 3.084 0 01-4.959-1.758l-5.425-25.15a6.801 6.801 0 00-8.083-5.217l-87.742 18.842a6.667 6.667 0 00-5.1 7.9l18.867 87.641a6.889 6.889 0 003.004 4.345 6.89 6.89 0 005.196.947l24.425-5.292a4.258 4.258 0 002.325-6.941 18.055 18.055 0 01-4.167-8.567 18.262 18.262 0 014.508-15.789 18.26 18.26 0 0115.37-5.776 18.248 18.248 0 0116.262 16.981 18.243 18.243 0 01-1.423 8.317 2.917 2.917 0 003.292 3.992l26.875-5.75a6.816 6.816 0 005.225-8.092l-5.392-25a3.192 3.192 0 013.917-3.758 18.269 18.269 0 0018.68-6.166 18.264 18.264 0 002.253-19.542c-2.625-5.634-9.983-10.267-16.175-10.267z" fill="url(#paint12_linear_406_3597)"/><path d="M160.117 82.391c5.091 3.25 11.591 2.875 11.591 2.875-.225-4.317-.883-6.791-3.491-9.166l-4.884-.209s-4.333-.517-10.833-.717a13.55 13.55 0 00-2.992.234c4.55-.9 5.592 3.758 10.609 6.983z" fill="#094082"/><path d="M169.658 145.658c3.425.9 4.85.433 5.142-.334 0 0 2.133.409 2.625.109s1.233-.884 1.575-.834c.342.05 1.05-.625 1.25-.941.2-.317-14.95-9.409-25.75-15.975l-14.65 3.15c4 2.308 12.217 6.933 15.6 8.058 4.55 1.542 10.775 5.867 14.208 6.767z" fill="#000" opacity=".3"/><path d="M152.5 120.833l-1.442-1.259c-4.45-3.85-10.1-8.683-10.1-8.683l7.217-10.542s-2.6-23.25-6.583-20.058c-.225.2-.45.417-.675.625-4.417 4.6-14.342 22.775-15.384 25.258-1.041 2.484-.766 6.292.534 10.484l.141.466c1.434 4.384 30.834 20.309 30.834 20.309l2.633-3.334 3.1-3.958s-5.758-5.383-10.275-9.308z" fill="#1150BE"/><path d="M178.967 40.383c-11.2-12.342-20.567 12.9-20.567 12.9-2.658-2.017-5.417 2.383-3.117 4.867 2.3 2.483 4.409 1.416 4.409 1.416a19.474 19.474 0 003.758 4.359V75.89s2.55 9.775 8.817 9.359c6.266-.417 4.608-8.742 4.608-8.742-.9-.375-1.833-6.867-2.225-9.858a10.371 10.371 0 002.433-1.117c5.142-3.208 1.884-25.15 1.884-25.15z" fill="#FDA181"/><path d="M174.65 66.666a11.665 11.665 0 01-8.158-.783S169.083 68.966 175 69l-.35-2.334z" fill="#D17A62"/><path d="M158.4 53.283s1.567 3.9 2.067 3.9c.5 0 .508-4.592.508-4.592s5.967-.183 7.208-6.1c1.242-5.916 3.959-7.35 6.792-5.833 0 0 2.067-2.067 3.992-.275a8.689 8.689 0 00-7.734-5.083c-5.85-.242-15.708 11.283-12.833 17.983z" fill="#403882"/><path d="M162.75 130.1l2.233 1.616s3.725-.041 4.734.35c1.008.392 3.766 1.992 4.8 2.192 1.033.2 1.858.45 1.433 1.15-.425.7-4.167.142-4.167.142s3.175 2.583 3.65 2.891c.475.309 4.75 1.825 5 2.25.25.425 0 1.175 0 1.484 0 0 .225 1.516-.45 1.8a3.224 3.224 0 01-1.716 0s-.25.833-.759.783c-.508-.05-2.691-.583-2.691-.583s.191 1.15-.734 1.008c-.925-.142-5.475-1.6-6.183-1.825-.708-.225-4.067-3.175-4.575-3.742-.508-.566-5.892-2.691-5.892-2.691l5.317-6.825z" fill="#FDA181"/><path d="M230.492 142.441a2.21 2.21 0 001.75 1.666c1.508.292 4.383 1.042 5.35.784l1.841-.5a3.187 3.187 0 01-.358-.917l-.833-3.883-10.275.733s.05 1.442 2.525 2.117z" fill="#000" opacity=".3"/><path d="M237.183 134.691s-2.075 1-3.141.883c-1.067-.116-4.467-.766-5-.433-.534.333-1.067 1.025-.417 1.667 0 0-1.433 0-1.433.5a2.291 2.291 0 001.291 1.941.98.98 0 00-.476.478.98.98 0 00-.057.672c.142.9 2.7 1.15 2.7 1.15a.84.84 0 00-.409.327.84.84 0 00-.133.507c.092.675 1.1.833 1.775.983 1.638.241 3.288.391 4.942.45a5.368 5.368 0 002.808-1.858c.084-.359-.375-.892-.35-1.3.025-.409.184-1.667-.183-1.884-.367-.216.142-1.45-.142-1.741-.283-.292-.316-2.092-.6-2.267-.283-.175-1.316-.708-1.316-.708l.141.633z" fill="#FDA181"/><defs><linearGradient id="paint0_linear_406_3597" x1="461.342" y1="53.775" x2="512.292" y2="178.392" gradientUnits="userSpaceOnUse"><stop offset=".05" stop-color="#FBD15B"/><stop offset="1" stop-color="#F9A45A"/></linearGradient><linearGradient id="paint1_linear_406_3597" x1="501.7" y1="182" x2="546.092" y2="345.367" gradientUnits="userSpaceOnUse"><stop stop-color="#FF9D5D"/><stop offset=".08" stop-color="#FF985D"/><stop offset=".18" stop-color="#FF8A5C"/><stop offset=".28" stop-color="#FF725B"/><stop offset=".37" stop-color="#FF825B"/><stop offset=".49" stop-color="#FF8F5C"/><stop offset=".64" stop-color="#FF965C"/><stop offset="1" stop-color="#FF985C"/></linearGradient><linearGradient id="paint2_linear_406_3597" x1="55.733" y1="53.775" x2="106.683" y2="178.392" gradientUnits="userSpaceOnUse"><stop offset=".05" stop-color="#FBD15B"/><stop offset="1" stop-color="#F9A45A"/></linearGradient><linearGradient id="paint3_linear_406_3597" x1="378.742" y1="418.267" x2="307.283" y2="321.183" gradientUnits="userSpaceOnUse"><stop stop-color="#1252C4"/><stop offset="1" stop-color="#3F87FE"/></linearGradient><linearGradient id="paint4_linear_406_3597" x1="102.35" y1="403.7" x2="74.4" y2="274.558" gradientUnits="userSpaceOnUse"><stop stop-color="#1252C4"/><stop offset="1" stop-color="#3F87FE"/></linearGradient><linearGradient id="paint5_linear_406_3597" x1="165.625" y1="387.042" x2="51.375" y2="387.042" gradientUnits="userSpaceOnUse"><stop stop-color="#FF9D5C"/><stop offset="1" stop-color="#FFC961"/></linearGradient><linearGradient id="paint6_linear_406_3597" x1="381.5" y1="393.158" x2="375.175" y2="370.658" gradientUnits="userSpaceOnUse"><stop stop-color="#F8A034"/><stop offset="1" stop-color="#FFC546"/></linearGradient><linearGradient id="paint7_linear_406_3597" x1="382.766" y1="393.983" x2="390.617" y2="377.716" gradientUnits="userSpaceOnUse"><stop stop-color="#FCB72C"/><stop offset="1" stop-color="#FFCF44"/></linearGradient><linearGradient id="paint8_linear_406_3597" x1="372.767" y1="395.008" x2="369.967" y2="384.558" gradientUnits="userSpaceOnUse"><stop stop-color="#FCB72C"/><stop offset="1" stop-color="#FFCF44"/></linearGradient><linearGradient id="paint9_linear_406_3597" x1="533.792" y1="389.9" x2="538.85" y2="371.875" gradientUnits="userSpaceOnUse"><stop stop-color="#F8A034"/><stop offset="1" stop-color="#FFC546"/></linearGradient><linearGradient id="paint10_linear_406_3597" x1="532.775" y1="390.558" x2="526.483" y2="377.524" gradientUnits="userSpaceOnUse"><stop stop-color="#FCB72C"/><stop offset="1" stop-color="#FFCF44"/></linearGradient><linearGradient id="paint11_linear_406_3597" x1="540.783" y1="391.383" x2="543.025" y2="383.008" gradientUnits="userSpaceOnUse"><stop stop-color="#FCB72C"/><stop offset="1" stop-color="#FFCF44"/></linearGradient><linearGradient id="paint12_linear_406_3597" x1="237.817" y1="230.941" x2="171.075" y2="136.558" gradientUnits="userSpaceOnUse"><stop stop-color="#F8A034"/><stop offset="1" stop-color="#FFC546"/></linearGradient></defs></svg>