<svg width="600" height="420" viewBox="0 0 600 420" fill="none" xmlns="http://www.w3.org/2000/svg">
<path d="M239.808 390.9L210.425 307.684H218.517C220.433 307.684 222 306.709 222 305.509V302.7C222 301.5 220.433 300.525 218.517 300.525H115.933C114.017 300.525 112.45 301.5 112.45 302.7V305.509C112.45 306.709 114.017 307.684 115.933 307.684H126.35L96.9666 390.9C96.5749 392.017 97.7166 393.134 99.4666 393.4C101.217 393.667 103.042 392.934 103.433 391.817L133.167 307.684H203.608L233.333 391.8C233.725 392.917 235.508 393.634 237.3 393.384C239.058 393.134 240.2 392.017 239.808 390.9Z" fill="#F55662"/>
<g style="mix-blend-mode:multiply" opacity="0.3">
<g style="mix-blend-mode:multiply" opacity="0.3">
<path d="M210.425 307.684H203.608L211.675 330.525L218.55 330.684L210.425 307.684Z" fill="black"/>
</g>
<g style="mix-blend-mode:multiply" opacity="0.3">
<path d="M126.35 307.684L119.025 328.425L125.792 328.584L133.167 307.684H126.35Z" fill="black"/>
</g>
</g>
<path d="M493.833 207.017C513.384 207.017 529.233 173.99 529.233 133.25C529.233 92.5098 513.384 59.4834 493.833 59.4834C474.282 59.4834 458.433 92.5098 458.433 133.25C458.433 173.99 474.282 207.017 493.833 207.017Z" fill="url(#paint0_linear_406_3597)"/>
<path d="M512.933 71.125C518.483 84.1583 521.858 101.308 521.858 120.1C521.858 160.842 506.025 193.867 486.458 193.867C479.425 193.867 472.875 189.6 467.367 182.2C473.85 197.408 483.3 206.992 493.833 206.992C513.383 206.992 529.233 173.967 529.233 133.225C529.233 107.167 522.733 84.2417 512.933 71.125Z" fill="#FE845A"/>
<path d="M494.317 89.1504V390.184" stroke="#231F20" stroke-width="1.23" stroke-miterlimit="10" stroke-linecap="round"/>
<path d="M494.317 122.483L508.117 105.642" stroke="#231F20" stroke-width="1.23" stroke-miterlimit="10" stroke-linecap="round"/>
<path d="M494.317 157.109L508.117 140.275" stroke="#231F20" stroke-width="1.23" stroke-miterlimit="10" stroke-linecap="round"/>
<path d="M494.317 141.967L480.525 125.134" stroke="#231F20" stroke-width="1.23" stroke-miterlimit="10" stroke-linecap="round"/>
<path d="M494.317 172.867L480.525 156.025" stroke="#231F20" stroke-width="1.23" stroke-miterlimit="10" stroke-linecap="round"/>
<path d="M494.317 193.034L508.117 176.192" stroke="#231F20" stroke-width="1.23" stroke-miterlimit="10" stroke-linecap="round"/>
<path d="M558.133 270.225C551.467 258.783 564.983 247.55 560.392 236.058C558.025 230.133 551.067 227.484 547.325 222.325C544.325 218.2 543.658 212.875 543.242 207.792C542.825 202.708 542.517 197.417 540.042 192.958C539.367 191.741 538.507 190.636 537.492 189.683C534.733 187.067 530.908 185.6 527.383 186.8C522.9 188.333 520.675 193.267 519.267 197.783C517.711 202.774 516.533 207.875 515.742 213.042C514.983 217.967 514.45 223.267 511.267 227.092C507.775 231.3 501.875 232.742 497.983 236.583C496.374 238.202 495.17 240.178 494.469 242.35C493.768 244.523 493.59 246.83 493.95 249.083C494.617 253.042 496.9 256.517 498.533 260.184C500.167 263.85 501.1 268.292 499.1 271.775C497.342 274.842 493.783 276.358 491.317 278.9C488.167 282.142 486.992 286.975 487.558 291.467C488.125 295.959 490.258 300.117 492.95 303.75C496.594 308.631 501.243 312.672 506.583 315.6C514.525 319.934 524.358 322.108 529.467 329.583C533.45 320.967 547.8 314.983 553.383 310.225C559.217 305.225 564.608 298.483 565.733 290.625C566.992 281.833 562.183 277.133 558.133 270.225Z" fill="url(#paint1_linear_406_3597)"/>
<path d="M530.092 257.992V389.317" stroke="#231F20" stroke-width="1.17" stroke-miterlimit="10" stroke-linecap="round"/>
<path d="M530.092 300.725L549.008 281.809" stroke="#231F20" stroke-width="1.17" stroke-miterlimit="10" stroke-linecap="round"/>
<path d="M530.092 276.983L513.833 260.725" stroke="#231F20" stroke-width="1.17" stroke-miterlimit="10" stroke-linecap="round"/>
<path d="M88.225 207.017C107.776 207.017 123.625 173.99 123.625 133.25C123.625 92.5098 107.776 59.4834 88.225 59.4834C68.6741 59.4834 52.825 92.5098 52.825 133.25C52.825 173.99 68.6741 207.017 88.225 207.017Z" fill="url(#paint2_linear_406_3597)"/>
<path d="M107.317 71.125C112.875 84.1583 116.25 101.308 116.25 120.1C116.25 160.842 100.417 193.867 80.85 193.867C73.8166 193.867 67.2666 189.6 61.7583 182.2C68.2416 197.408 77.6916 206.992 88.225 206.992C107.775 206.992 123.625 173.967 123.625 133.225C123.625 107.167 117.125 84.2417 107.317 71.125Z" fill="#FE845A"/>
<path d="M88.7083 89.1504V390.184" stroke="#231F20" stroke-width="1.23" stroke-miterlimit="10" stroke-linecap="round"/>
<path d="M88.7083 122.483L102.508 105.642" stroke="#231F20" stroke-width="1.23" stroke-miterlimit="10" stroke-linecap="round"/>
<path d="M88.7083 157.109L102.508 140.275" stroke="#231F20" stroke-width="1.23" stroke-miterlimit="10" stroke-linecap="round"/>
<path d="M88.7082 141.967L74.9082 125.134" stroke="#231F20" stroke-width="1.23" stroke-miterlimit="10" stroke-linecap="round"/>
<path d="M88.7082 172.867L74.9082 156.025" stroke="#231F20" stroke-width="1.23" stroke-miterlimit="10" stroke-linecap="round"/>
<path d="M88.7083 193.034L102.508 176.192" stroke="#231F20" stroke-width="1.23" stroke-miterlimit="10" stroke-linecap="round"/>
<path d="M463.592 395.767C493.153 395.767 517.117 394.517 517.117 392.975C517.117 391.433 493.153 390.184 463.592 390.184C434.031 390.184 410.067 391.433 410.067 392.975C410.067 394.517 434.031 395.767 463.592 395.767Z" fill="#C7CCD1"/>
<path d="M438.258 379.616C438.258 378.891 434.775 378.583 434.775 378.583C434.775 378.583 420.525 383.333 417.5 385C415.492 386.1 414.833 389.166 414.617 391.066C414.596 391.266 414.617 391.468 414.678 391.66C414.74 391.851 414.84 392.027 414.973 392.178C415.106 392.328 415.269 392.449 415.452 392.533C415.634 392.618 415.832 392.663 416.033 392.666C422.642 392.766 448.533 393.133 448.808 392.666C449.083 392.2 448.35 380.641 448.35 380.641C448.35 380.641 438.258 380.35 438.258 379.616Z" fill="#403881"/>
<path d="M435.05 372.342L434.775 378.583C434.775 378.583 438.258 378.892 438.258 379.617C438.258 380.342 448.383 380.6 448.383 380.6L448.842 373.933L435.05 372.342Z" fill="#FCA080"/>
<path d="M414.65 391.05C414.629 391.25 414.65 391.452 414.712 391.643C414.773 391.835 414.873 392.011 415.007 392.162C415.14 392.312 415.303 392.433 415.485 392.517C415.668 392.601 415.866 392.647 416.067 392.65C422.675 392.75 448.567 393.117 448.842 392.65C448.911 391.905 448.911 391.154 448.842 390.409L422.508 390.575L422.192 383.075C420.595 383.635 419.029 384.277 417.5 385C415.525 386.084 414.867 389.167 414.65 391.05Z" fill="#E0E6EE"/>
<path d="M510.108 370.575C510.108 370.575 502.608 373.484 502.233 373.192C501.858 372.9 500.083 373.859 500.083 373.859C500.083 373.859 499.825 377.659 499.25 378.584C498.675 379.509 494.358 384.142 490.4 385.725C487.6 386.85 486.733 389.95 486.475 391.675C486.454 391.824 486.464 391.977 486.507 392.121C486.549 392.266 486.623 392.4 486.721 392.514C486.82 392.627 486.942 392.719 487.08 392.781C487.217 392.843 487.366 392.876 487.517 392.875H498.233C500.258 392.875 516.858 381.534 517.108 380.1C517.358 378.667 510.108 370.575 510.108 370.575Z" fill="#403881"/>
<path d="M502.233 373.192C502.608 373.483 510.108 370.575 510.108 370.575L507.667 364.592L497.058 369.325L500.083 373.858C500.083 373.858 501.85 372.892 502.233 373.192Z" fill="#FCA080"/>
<path d="M486.467 391.667C486.445 391.816 486.456 391.968 486.498 392.113C486.541 392.258 486.614 392.392 486.713 392.505C486.812 392.619 486.934 392.71 487.071 392.773C487.209 392.835 487.358 392.867 487.508 392.867H498.225C500.25 392.867 516.85 381.525 517.1 380.092C517.065 379.615 516.895 379.158 516.608 378.775C512.992 381.742 499.792 390.109 499.108 390.442C498.425 390.775 495.342 390.442 495.342 390.442C495.458 386.959 492.458 384.609 492.458 384.609C491.806 385.023 491.117 385.378 490.4 385.667C487.592 386.85 486.725 389.95 486.467 391.667Z" fill="#E0E6EE"/>
<path d="M467.933 236.842C467.933 236.842 472.692 248.383 469.825 260.858C469.825 260.858 480.95 303.583 482.467 305.6C483.983 307.617 490.225 314.283 491.825 319.508C493.425 324.733 507.658 364.592 507.658 364.592L496.825 370.242C496.825 370.242 470.425 325 467.933 320.775C465.442 316.55 453.65 295.658 453.65 295.658C453.65 295.658 451.375 309.225 451.625 310.242C451.875 311.258 450.658 314.408 451.625 315.383C452.592 316.358 453.292 323.717 452.908 331.217C452.525 338.717 448.858 373.942 448.858 373.942C448.858 373.942 436.808 375.375 434.283 373.109C434.283 373.109 429.617 314.492 429.283 310.559C428.95 306.625 429.283 302.125 429.167 300.442C429.05 298.758 424.508 242.408 424.508 242.408L467.933 236.842Z" fill="#403881"/>
<path d="M445 245C445.067 243.159 445.1 241.417 445.1 239.759L424.517 242.392C424.517 242.392 429.067 298.742 429.175 300.425C429.283 302.109 428.958 306.609 429.292 310.542C429.625 314.475 434.292 373.092 434.292 373.092C432.267 344.025 441.542 327 443.225 316.55C444.908 306.1 453.675 295.65 453.675 295.65C453.675 295.65 438.167 265.709 435.917 258.517C433.667 251.325 445 245 445 245Z" fill="#232059"/>
<path d="M389.492 117.5L300.717 103.391C298.903 103.103 297.05 103.547 295.564 104.626C294.077 105.704 293.08 107.328 292.792 109.141L288.867 133.883C288.792 135.339 288.829 136.799 288.975 138.25L292.175 138.733C292.35 138.733 292.542 138.8 292.725 138.816C293.333 138.859 293.943 138.774 294.517 138.566C297.596 137.445 300.92 137.171 304.142 137.771C307.364 138.37 310.367 139.823 312.837 141.977C315.307 144.132 317.154 146.909 318.187 150.019C319.219 153.13 319.399 156.46 318.707 159.664C318.015 162.867 316.477 165.827 314.253 168.234C312.029 170.642 309.201 172.409 306.062 173.352C302.923 174.295 299.589 174.38 296.406 173.597C293.224 172.813 290.309 171.192 287.967 168.9C287.502 168.431 286.89 168.137 286.233 168.066L282.9 167.558L278.733 197.741C278.45 199.53 278.889 201.359 279.953 202.824C281.017 204.29 282.619 205.273 284.408 205.558L309.767 209.583C310.303 209.668 310.808 209.889 311.235 210.225C311.662 210.56 311.997 210.998 312.207 211.499C312.417 212 312.496 212.546 312.437 213.085C312.377 213.625 312.181 214.14 311.867 214.583C309.834 217.431 308.66 220.802 308.481 224.296C308.303 227.791 309.128 231.263 310.859 234.304C312.591 237.344 315.156 239.826 318.252 241.455C321.349 243.085 324.847 243.794 328.333 243.5C334.525 243.058 341.525 237.858 343.767 232.066C345.354 228.075 345.501 223.655 344.183 219.566C344.021 219.063 343.991 218.526 344.095 218.008C344.2 217.49 344.436 217.007 344.78 216.605C345.125 216.204 345.566 215.898 346.063 215.716C346.559 215.534 347.094 215.482 347.617 215.566L373.133 219.616C374.018 219.758 374.922 219.723 375.794 219.515C376.665 219.307 377.487 218.928 378.212 218.402C378.938 217.876 379.552 217.212 380.02 216.448C380.489 215.684 380.802 214.835 380.942 213.95L395 125.125C395.276 123.384 394.852 121.604 393.82 120.175C392.788 118.746 391.231 117.784 389.492 117.5Z" fill="#201851"/>
<path d="M340.45 231.575C342.027 227.596 342.175 223.193 340.867 219.117C340.705 218.613 340.674 218.077 340.779 217.558C340.883 217.04 341.119 216.557 341.464 216.156C341.808 215.754 342.25 215.448 342.746 215.266C343.243 215.084 343.778 215.033 344.3 215.117L369.825 219.167C371.612 219.45 373.438 219.012 374.902 217.95C376.366 216.887 377.349 215.287 377.633 213.5L391.742 124.625C392.018 122.88 391.59 121.098 390.553 119.668C389.515 118.238 387.953 117.279 386.208 117L297.433 102.9C295.62 102.612 293.766 103.056 292.28 104.134C290.794 105.213 289.797 106.837 289.508 108.65L285.583 133.392C285.468 134.123 285.545 134.872 285.806 135.564C286.068 136.257 286.505 136.87 287.075 137.342C287.645 137.815 288.328 138.131 289.057 138.259C289.786 138.388 290.536 138.324 291.233 138.075C294.305 136.969 297.617 136.704 300.825 137.31C304.034 137.915 307.022 139.369 309.479 141.519C311.936 143.669 313.773 146.437 314.798 149.537C315.824 152.637 316.002 155.955 315.312 159.146C314.623 162.337 313.092 165.286 310.878 167.686C308.665 170.086 305.849 171.85 302.723 172.794C299.598 173.738 296.277 173.829 293.104 173.056C289.932 172.284 287.024 170.676 284.683 168.4C284.297 168.027 283.816 167.767 283.292 167.65C282.768 167.532 282.222 167.561 281.713 167.733C281.204 167.905 280.753 168.214 280.408 168.625C280.063 169.037 279.838 169.536 279.758 170.067L275.433 197.3C275.293 198.186 275.329 199.09 275.538 199.961C275.747 200.833 276.126 201.655 276.653 202.38C277.18 203.105 277.845 203.719 278.609 204.187C279.374 204.655 280.223 204.969 281.108 205.109L306.467 209.134C307.002 209.221 307.506 209.443 307.931 209.779C308.357 210.114 308.69 210.553 308.9 211.052C309.11 211.552 309.19 212.097 309.131 212.636C309.073 213.175 308.879 213.69 308.567 214.134C306.55 216.98 305.386 220.342 305.213 223.826C305.04 227.31 305.865 230.771 307.591 233.803C309.316 236.835 311.87 239.311 314.954 240.942C318.038 242.572 321.523 243.289 325 243.008C331.208 242.559 338.208 237.367 340.45 231.575Z" fill="#F55662"/>
<g style="mix-blend-mode:multiply" opacity="0.5">
<path d="M365.833 197.359C369 199.026 378.258 200.692 382.9 201.409L384.033 194.292L358.583 188.459C358.583 188.459 361.542 195.084 365.833 197.359Z" fill="black"/>
</g>
<path d="M466.667 215.1C467.175 208.692 468.525 176.617 467.733 171.45C466.942 166.283 457.483 160.283 457.483 160.283C457.483 160.283 442.117 163.992 436.25 167.117C436.25 167.117 417.083 172.683 413.242 172.458C410.392 172.292 395.65 169.025 388.358 167.375L386.308 180.283C394.183 182.783 409.642 187.433 415.15 187.517C416.508 187.517 418.425 187.408 420.642 187.2L417.508 188.867C410.978 188.098 404.38 188.098 397.85 188.867C393.541 189.357 389.2 189.516 384.867 189.342C383.305 189.292 381.748 189.133 380.208 188.867L378.633 198.083L383.367 198.825C392.808 200.275 413.65 203.308 420.092 202.942C421.75 202.792 423.394 202.513 425.008 202.108C425.1 208.342 425.55 213.933 425.375 216.092C425.042 220.258 424.542 242.392 424.542 242.392C424.542 242.392 429.6 245.258 439.375 245.575C449.15 245.892 467.983 236.833 467.983 236.833C467.983 236.833 466.117 221.5 466.667 215.1Z" fill="#1150BF"/>
<path d="M426.667 184.167L441.5 176.584C441.5 176.584 436.667 173.434 437.617 170.909C438.567 168.384 443.267 166.317 443.267 166.317L445.725 163.476C442.452 164.411 439.263 165.618 436.192 167.084C434.167 168.917 428.333 178.334 426.667 184.167Z" fill="#094081"/>
<path d="M439.942 233.642C442.075 232.809 436.117 231.784 431.983 230.942C427.85 230.1 427.917 215.384 429.042 211.559C430.167 207.734 454.875 192.934 454.875 192.934C453.208 193.692 424.933 202.1 424.933 202.1C425.025 208.334 425.475 213.925 425.3 216.084C424.967 220.25 424.467 242.384 424.467 242.384C424.467 242.384 429.525 245.25 439.3 245.567C441.215 245.586 443.126 245.396 445 245C439.1 245 437.808 234.484 439.942 233.642Z" fill="#094081"/>
<path d="M428.933 169.167C422.383 172.184 413.442 176.151 408.65 175.609C402.542 174.926 393.15 172.601 387.717 171.176L386.267 180.342C394.142 182.842 409.6 187.492 415.108 187.576C416.467 187.576 418.383 187.467 420.6 187.259L426.667 184.167C426.667 184.167 431.05 172.501 436.192 167.084C436.2 167.117 432.992 168.051 428.933 169.167Z" fill="#073868"/>
<path d="M380.167 188.9C379.492 188.852 378.822 188.763 378.158 188.633C377.558 188.467 375.608 185.858 374.575 185.3C373.542 184.741 370.233 183.558 369.525 183.125C368.817 182.691 369.15 184.325 369.525 184.916C370.029 185.544 370.586 186.127 371.192 186.658L366.25 185.625C366.25 185.625 362.825 182.691 361.417 182.366C360.008 182.041 360.008 183.125 360.008 183.125C360.008 183.125 358.758 182.291 358.217 182.75C357.675 183.208 358.975 184.325 358.975 184.325C358.975 184.325 358.142 183.775 357.767 184.325C357.392 184.875 359.475 187.45 359.475 187.45C359.475 187.45 357.85 187.35 358.867 188.925C359.997 190.56 361.248 192.108 362.608 193.558C364.549 194.976 366.689 196.099 368.958 196.892C370.875 197.425 378.625 198.058 378.625 198.058L380.167 188.9Z" fill="#F59D80"/>
<path d="M437.55 133.65C437.55 133.65 434.517 156.233 437.55 157.291C440.583 158.35 444.292 157.291 444.292 157.291C444.292 157.291 443.242 165.625 443.283 166.35C443.325 167.075 456.725 163.1 457.45 160.283L456.142 144.816C456.142 144.816 460.692 137.316 456.733 134.75C452.775 132.183 442.65 128.05 437.55 133.65Z" fill="#F59D80"/>
<path d="M444.292 157.292L448.933 155.351L443.983 159.809L444.292 157.292Z" fill="#D07A62"/>
<path d="M452.342 146.125C452.669 146.322 453.036 146.444 453.417 146.484C453.797 146.524 454.181 146.48 454.543 146.355C454.904 146.231 455.234 146.028 455.509 145.762C455.784 145.496 455.997 145.174 456.133 144.816C456.133 144.816 455.9 150.316 452.342 146.125Z" fill="#D07A62"/>
<path d="M440.692 135.733C442.083 134.008 443.192 134.25 443.35 135.1C443.508 135.95 444.125 136.667 446.083 136.117C446.717 135.983 447.373 135.994 448.002 136.148C448.631 136.303 449.217 136.597 449.717 137.008C450.66 135.558 451.259 133.91 451.467 132.192C446.858 130.525 441.033 129.825 437.55 133.65C437.55 133.65 437.375 134.958 437.158 136.983C437.805 137.082 438.465 137.02 439.082 136.802C439.698 136.584 440.251 136.217 440.692 135.733Z" fill="#D07A62"/>
<path d="M463.792 136.308C463.508 134.175 462.125 134.2 462.125 134.2C462.125 134.2 464.117 128.975 461.483 127.533C459.407 126.61 457.178 126.078 454.908 125.967C454.908 125.967 446.983 121.867 445.242 122.817C445.242 122.817 441.908 119.483 438.275 120.683C434.642 121.883 429.608 124.267 433.167 132.533C436.725 140.8 440.808 132.425 442.883 134C444.958 135.575 443.392 136.3 446.033 135.85C448.675 135.4 449.683 136.975 449.683 136.975C449.683 136.975 448.358 143.642 450.325 143.325C452.292 143.008 453.758 139.275 455.775 139.083C457.792 138.892 456.1 144.783 456.1 144.783C456.1 144.783 454.517 148.183 454.992 148.825C455.399 149.27 455.93 149.583 456.517 149.725L461.667 140.208C461.667 140.208 464.067 138.442 463.792 136.308Z" fill="#403881"/>
<path d="M450.358 143.334C452.325 142.992 453.792 139.284 455.808 139.092C457.825 138.9 456.133 144.792 456.133 144.792C456.133 144.792 454.55 148.192 455.025 148.834C455.433 149.279 455.963 149.592 456.55 149.734L461.667 140.209C461.667 140.209 464.108 138.442 463.833 136.309C463.558 134.175 462.167 134.2 462.167 134.2C462.167 134.2 464.25 134.65 462.733 137.009C461.217 139.367 457.675 137.009 457.675 137.009C457.449 137.221 457.151 137.339 456.842 137.339C456.532 137.339 456.234 137.221 456.008 137.009C456.008 137.009 452.3 139.509 449.692 137.009C449.717 137.009 448.392 143.692 450.358 143.334Z" fill="#1E194F"/>
<path d="M372.375 290H347.317C346.577 290.002 345.85 290.196 345.207 290.563C344.565 290.93 344.029 291.459 343.652 292.096C343.276 292.733 343.071 293.457 343.059 294.197C343.047 294.937 343.228 295.668 343.583 296.317C345.1 299.058 339.767 322.8 328.583 323.417C325.157 323.589 321.752 322.796 318.754 321.129C315.756 319.462 313.286 316.988 311.624 313.987C309.963 310.986 309.176 307.579 309.355 304.153C309.533 300.727 310.669 297.421 312.633 294.608C312.944 294.172 313.128 293.659 313.167 293.125C313.205 292.591 313.095 292.057 312.85 291.581C312.605 291.105 312.233 290.705 311.776 290.427C311.319 290.148 310.794 290 310.258 290H282.675C280.866 290.002 279.133 290.722 277.854 292.002C276.576 293.282 275.858 295.016 275.858 296.825C275.858 296.825 273.358 326.425 271.233 325.367C268.986 324.24 266.528 323.593 264.017 323.467H263.092L258.233 323.392L257.5 360H261.442C265.192 359.892 268.442 359.542 271.333 358.067C271.806 357.827 272.332 357.713 272.861 357.735C273.391 357.757 273.906 357.914 274.357 358.192C274.808 358.469 275.181 358.858 275.439 359.32C275.698 359.783 275.833 360.304 275.833 360.833V386.667C275.833 388.475 276.552 390.208 277.83 391.487C279.108 392.765 280.842 393.483 282.65 393.483H372.65C374.418 393.483 376.114 392.781 377.364 391.531C378.614 390.281 379.317 388.585 379.317 386.817V296.958C379.322 296.044 379.146 295.139 378.8 294.293C378.453 293.447 377.942 292.679 377.297 292.032C376.651 291.385 375.884 290.872 375.039 290.523C374.194 290.175 373.289 289.997 372.375 290Z" fill="#201851"/>
<path d="M254.108 359.55C258.285 360.486 262.656 359.941 266.475 358.008C266.947 357.769 267.473 357.654 268.002 357.676C268.531 357.698 269.046 357.855 269.496 358.133C269.947 358.41 270.319 358.799 270.577 359.262C270.834 359.724 270.968 360.246 270.967 360.775V386.608C270.967 388.418 271.686 390.154 272.966 391.434C274.246 392.714 275.982 393.433 277.792 393.433H367.792C369.56 393.433 371.255 392.731 372.506 391.481C373.756 390.23 374.458 388.535 374.458 386.767V296.875C374.445 295.041 373.705 293.288 372.401 291.999C371.096 290.71 369.334 289.991 367.5 290H342.5C341.759 289.999 341.03 290.192 340.387 290.558C339.743 290.925 339.206 291.454 338.829 292.092C338.451 292.73 338.247 293.455 338.237 294.196C338.226 294.937 338.408 295.668 338.767 296.317C340.362 299.18 341.16 302.419 341.078 305.696C340.996 308.973 340.037 312.167 338.301 314.948C336.565 317.728 334.115 319.992 331.207 321.504C328.299 323.016 325.039 323.721 321.766 323.545C318.492 323.369 315.326 322.318 312.597 320.503C309.868 318.688 307.675 316.174 306.248 313.224C304.82 310.273 304.209 306.994 304.479 303.727C304.749 300.46 305.89 297.326 307.783 294.65C308.094 294.213 308.279 293.699 308.317 293.164C308.355 292.63 308.244 292.095 307.998 291.619C307.752 291.142 307.379 290.743 306.921 290.465C306.462 290.187 305.936 290.04 305.4 290.042H277.792C275.982 290.042 274.246 290.761 272.966 292.041C271.686 293.321 270.967 295.057 270.967 296.867V322.5C270.968 323.045 270.829 323.582 270.564 324.058C270.299 324.534 269.917 324.935 269.453 325.222C268.989 325.508 268.46 325.671 267.915 325.695C267.37 325.719 266.829 325.603 266.342 325.358C263.212 323.81 259.706 323.187 256.234 323.563C252.763 323.939 249.471 325.298 246.746 327.481C244.021 329.665 241.976 332.58 240.852 335.886C239.728 339.192 239.571 342.75 240.4 346.142C241.808 352.15 248.033 358.242 254.108 359.55Z" fill="url(#paint3_linear_406_3597)"/>
<path d="M205.375 367.149C206.542 365.808 211.925 363.749 214.192 360.433C216.458 357.116 224.308 345.549 230.3 347.808C236.292 350.066 225.117 358.166 221.8 362.216C218.483 366.266 218.208 377.999 209.442 377.999C200.675 377.999 202.783 370.149 205.375 367.149Z" fill="#3D86FA"/>
<path d="M204.858 336.966C204.858 336.966 209.025 337.091 208.667 342.999C208.308 348.908 206.683 353.316 207 356.466C207.317 359.616 210.2 371.724 204.858 372.533C199.517 373.341 193.367 371.524 196.042 362.824C198.717 354.124 196.283 335.266 204.858 336.966Z" fill="#1351BE"/>
<path d="M203.567 344.008C203.567 344.008 199.683 379.724 199.683 391.966" stroke="#231F20" stroke-width="1.1" stroke-miterlimit="10" stroke-linecap="round"/>
<path d="M200.833 391.966C200.833 391.966 203.083 370.008 227.5 351.024" stroke="#231F20" stroke-width="1.1" stroke-miterlimit="10" stroke-linecap="round"/>
<path d="M46.2832 313.333C47.5249 344.916 67.3999 395.616 86.5749 389.683C91.6249 388.116 85.1332 364.583 66.5749 343.85C53.1665 328.908 49.6499 317.95 46.2832 313.333Z" fill="#FE845A"/>
<path d="M102.908 385.758C102.792 387.75 130.408 390.283 143.158 369.45C153.158 353.225 159.308 351.767 164.642 348.892C128.333 348.233 103.217 380.55 102.908 385.758Z" fill="#201851"/>
<path d="M112.775 342.891C112.6 341.224 114.325 328.991 112.483 319.416C108.708 323.116 94.6916 370.833 95.1332 378.583C95.2999 381.441 93.6249 389.299 99.6082 390.716C105.917 392.216 117.567 376.974 121.692 366.466C135.342 331.716 125.525 333.183 136.9 313.416C132.375 316.666 115.158 336.666 112.775 342.891Z" fill="#413B8A"/>
<path d="M120.067 329.441C117.775 332.775 116.733 336.7 114.483 339.95C112.675 342.575 112.858 345.866 111.575 348.391C110.192 351.1 107.775 352.491 107.633 356.3C107.567 358.075 108.017 359.55 107.858 361.158C107.658 363.158 106.817 365.008 106.792 367.15C106.792 368.641 107.233 370.066 107.275 371.491C107.383 375.491 101.042 382.041 106.125 385.658C105.85 389.033 106.467 390.233 108.208 390.283C111.925 390.391 111.783 386.6 112.517 384.516C113.35 382.108 116.083 380.541 116.342 377.233C116.475 375.566 115.508 373.525 115.675 371.975C115.817 370.808 116.892 370.166 117.508 369.183C119.1 366.683 119.175 363.741 119 360.85C118.9 359.183 117.567 356.466 117.775 354.941C118.175 352.016 121.108 351.275 120.275 347.058C120 345.783 118.908 344.241 118.942 342.933C118.975 341.625 119.833 340.741 120.275 339.55C121.475 336.275 120.108 332.833 120.067 329.441Z" fill="#FE845A"/>
<path d="M105.925 377.808C102.367 377.666 97.8749 381.025 95.5082 384.733C95.5582 382.408 95.6749 380.075 95.8332 377.733C98.3332 375.425 102.667 376.066 105.175 373.108C107.825 369.975 105.175 366.441 101.425 368.333C99.5999 369.25 97.4749 372.308 96.0582 374.833C96.1915 373.166 96.3665 370.858 96.5082 369.2C96.6249 367.75 96.7165 366.308 96.7999 364.875C99.6832 363.075 105.858 363.208 106.508 358.441C106.967 355.108 103.65 352.783 100.975 355.508C99.3353 357.304 97.9731 359.335 96.9332 361.533C97.0165 358.85 97.0082 356.175 96.9332 353.516C100.1 351.016 107.333 351.75 108.742 347.075C109.892 343.258 105.033 342.375 102.267 344.258C99.4999 346.141 98.1665 349.441 96.8832 352.5C96.7749 350.516 96.6082 348.541 96.3749 346.558C98.7582 344.133 103.733 342.491 104.708 338.541C105.683 334.591 102.575 330.466 98.8749 334.375C96.9415 336.441 96.1665 339.65 95.7999 342.708C95.4415 340.533 94.9665 338.366 94.4832 336.225C95.1372 334.752 95.9209 333.341 96.8249 332.008C98.0082 330.341 99.7499 328.675 99.5582 326.5C99.2165 322.758 96.3415 324.666 95.0415 327.116C94.1555 329.056 93.7115 331.168 93.7415 333.3C93.0915 330.908 92.0165 327.291 91.1832 324.966C92.4415 321.133 101.942 313.75 95.0749 313.3C91.8249 313.075 90.5165 319.483 90.4332 323.3C89.9415 322.033 88.7082 319.133 88.6165 318.908C89.7499 315.766 95.2832 306.108 90.5832 305.575C86.8499 305.15 86.8832 311.408 87.1832 314.45C87.2249 314.833 87.2499 315.4 87.2999 316.008C86.4082 314.1 85.4582 312.191 84.4332 310.308C85.3396 308.968 86.0574 307.51 86.5665 305.975C86.9249 304.833 87.9915 299.841 84.8999 301.575C83.7082 302.233 83.2332 305.8 83.3499 308.325C82.5887 307.008 81.7943 305.719 80.9665 304.458C76.4332 294.791 80.8999 282.566 73.4665 283.75C64.6749 285.15 67.1749 292.4 69.2999 295.108C72.0055 298.472 75.3183 301.299 79.0665 303.441C79.8999 304.85 83.0749 311.075 83.4749 311.891C79.9749 307.558 72.9332 299.008 70.0749 303.691C67.5749 307.858 79.8832 311.058 84.1415 313.283C85.2999 315.741 87.8749 322.066 88.1165 322.725C86.5249 320.925 85.1999 318.208 83.0665 316.958C81.1665 315.85 76.6915 314.925 76.6499 317.741C76.5915 321.75 82.3749 322.266 85.2165 322.991C87.2665 323.516 88.0999 324.441 88.6749 324.266C89.786 327.494 90.7637 330.766 91.6082 334.083C89.4415 330.1 83.0499 321.583 79.9415 326.141C75.8999 332.05 87.8332 332.216 91.8499 334.975C92.6657 338.37 93.3054 341.805 93.7665 345.266V345.383C92.3749 342.225 91.2665 339.016 88.4999 336.6C85.9582 334.4 81.3665 333.266 81.3165 338.475C81.3165 342.258 87.9165 342.983 90.9499 344.825C92.2915 345.658 93.2749 346.708 93.9749 347.15C94.3161 350.386 94.4914 353.637 94.4999 356.891C89.1665 352.291 85.1832 338.866 80.4415 345C76.2749 350.375 89.0165 351.583 94.4665 358.125C94.4665 361.091 94.3249 364.066 94.1249 367.05C93.4048 364.654 92.421 362.345 91.1915 360.166C90.3582 358.5 85.7415 353.591 83.5665 357.233C81.3915 360.875 88.0915 363.9 90.0999 365.058C91.7633 366.012 93.1084 367.435 93.9665 369.15C93.9249 369.7 93.3165 376.491 93.1332 379.35C91.8249 374.416 80.6332 356.175 75.9999 366.091C73.0249 372.45 86.8332 374.033 89.8915 376.308C91.9832 377.858 92.6999 379.208 93.0499 380.625C92.9499 382.291 92.8915 383.958 92.8749 385.625C90.2499 381.008 83.7082 372.108 80.1832 378.741C76.0165 386.583 87.1415 384.575 89.2082 385.775C91.0082 386.808 93.0332 387.441 92.9665 390C93.0717 391.955 93.2915 393.903 93.6249 395.833C93.8749 397.2 96.0499 396.733 95.8999 395.358C95.6239 392.684 95.4849 389.997 95.4832 387.308C98.6665 385.45 105.692 385.475 107.833 383.75C110.833 381.258 109.825 377.966 105.925 377.808Z" fill="url(#paint4_linear_406_3597)"/>
<path d="M51.375 398.333C51.375 398.333 55.3583 386.55 64.5833 390.342C64.5833 390.342 69.1917 375.425 80.5167 387.092C91.8417 398.758 88.3583 373.708 99.6333 375.958C110.908 378.208 107.558 386.792 107.558 386.792C107.558 386.792 118.333 381.233 115.967 390.833C115.967 390.833 141.308 378.192 141.725 388.883C141.725 388.883 158.708 385.742 155.775 394.542C155.775 394.542 165.625 392.042 165.625 398.317L51.375 398.333Z" fill="url(#paint5_linear_406_3597)"/>
<path d="M385 388.1C385 388.1 384.35 365.449 376.383 363.774C368.417 362.099 367.275 377.941 376.383 393.508L385 388.1Z" fill="url(#paint6_linear_406_3597)"/>
<path d="M380.833 390.832C380.803 390.832 380.774 390.822 380.75 390.804C380.726 390.786 380.709 390.761 380.7 390.732C376.9 375.449 375.267 369.832 375.25 369.774C375.244 369.74 375.249 369.705 375.266 369.674C375.283 369.644 375.309 369.62 375.342 369.607C375.376 369.599 375.412 369.604 375.443 369.621C375.473 369.638 375.497 369.666 375.508 369.699C375.508 369.757 377.175 375.382 380.967 390.666C380.972 390.701 380.965 390.737 380.947 390.767C380.929 390.798 380.9 390.821 380.867 390.832H380.833Z" fill="#231F20"/>
<path d="M387.733 393.508C387.733 393.508 399.875 381.991 395.325 376.407C390.775 370.824 379.391 380.499 376.358 393.508H387.733Z" fill="url(#paint7_linear_406_3597)"/>
<path d="M382.992 391.966H382.942C382.91 391.952 382.884 391.926 382.87 391.893C382.856 391.861 382.855 391.825 382.867 391.791C385.883 384.966 391.758 379.541 391.817 379.483C391.829 379.47 391.844 379.46 391.86 379.453C391.877 379.446 391.895 379.442 391.912 379.442C391.93 379.442 391.948 379.446 391.964 379.453C391.981 379.46 391.996 379.47 392.008 379.483C392.021 379.495 392.031 379.509 392.038 379.525C392.045 379.54 392.048 379.557 392.048 379.575C392.048 379.592 392.045 379.609 392.038 379.625C392.031 379.64 392.021 379.655 392.008 379.666C391.95 379.725 386.117 385.116 383.125 391.891C383.114 391.917 383.095 391.938 383.071 391.952C383.047 391.965 383.019 391.97 382.992 391.966Z" fill="#231F20"/>
<path d="M377.5 393.508C377.5 393.508 374.408 380.408 368.15 381.525C361.892 382.641 368.15 393.416 368.15 393.416L377.5 393.508Z" fill="url(#paint8_linear_406_3597)"/>
<path d="M371.325 391.875C371.296 391.874 371.268 391.864 371.246 391.846C371.223 391.828 371.207 391.803 371.2 391.775L369.108 384.166C369.101 384.132 369.107 384.096 369.126 384.067C369.145 384.037 369.174 384.016 369.208 384.008C369.225 384.002 369.243 383.999 369.261 384C369.279 384.002 369.297 384.007 369.313 384.015C369.329 384.024 369.342 384.036 369.353 384.051C369.364 384.065 369.371 384.082 369.375 384.1L371.458 391.716C371.466 391.751 371.461 391.787 371.445 391.817C371.428 391.848 371.4 391.872 371.367 391.883L371.325 391.875Z" fill="#231F20"/>
<path d="M531 385.833C531 385.833 531.525 367.683 537.908 366.341C544.291 365 545.2 377.658 537.908 390.166L531 385.833Z" fill="url(#paint9_linear_406_3597)"/>
<path d="M534.3 388.025C534.324 388.025 534.347 388.017 534.365 388.001C534.384 387.986 534.396 387.965 534.4 387.941C537.442 375.7 538.758 371.2 538.767 371.158C538.771 371.144 538.773 371.129 538.772 371.114C538.771 371.1 538.767 371.085 538.76 371.072C538.753 371.059 538.744 371.048 538.732 371.039C538.721 371.029 538.707 371.023 538.693 371.019C538.679 371.015 538.664 371.014 538.65 371.016C538.635 371.018 538.621 371.022 538.608 371.03C538.596 371.038 538.585 371.048 538.576 371.06C538.568 371.072 538.562 371.085 538.558 371.1C538.558 371.141 537.233 375.65 534.191 387.891C534.188 387.905 534.187 387.92 534.189 387.935C534.191 387.949 534.197 387.963 534.204 387.976C534.212 387.988 534.223 387.999 534.235 388.007C534.247 388.016 534.26 388.022 534.275 388.025H534.3Z" fill="#231F20"/>
<path d="M528.783 390.183C528.783 390.183 519.058 380.949 522.708 376.483C526.358 372.016 535.475 379.758 537.908 390.183H528.783Z" fill="url(#paint10_linear_406_3597)"/>
<path d="M532.583 388.949C532.61 388.938 532.631 388.917 532.642 388.891C532.653 388.864 532.653 388.834 532.642 388.808C530.865 385.117 528.437 381.778 525.475 378.949C525.466 378.936 525.454 378.925 525.441 378.916C525.427 378.908 525.411 378.903 525.395 378.901C525.379 378.899 525.363 378.901 525.348 378.907C525.333 378.912 525.319 378.921 525.308 378.932C525.296 378.943 525.288 378.957 525.282 378.972C525.277 378.988 525.275 379.004 525.276 379.02C525.278 379.036 525.283 379.051 525.292 379.065C525.3 379.079 525.311 379.09 525.325 379.099C528.286 381.902 530.716 385.217 532.5 388.883C532.507 388.9 532.519 388.914 532.534 388.926C532.548 388.938 532.565 388.946 532.583 388.949Z" fill="#231F20"/>
<path d="M537.016 390.183C537.016 390.183 539.516 379.683 544.516 380.574C549.516 381.466 544.516 390.108 544.516 390.108L537.016 390.183Z" fill="url(#paint11_linear_406_3597)"/>
<path d="M541.933 388.875C541.957 388.874 541.979 388.865 541.997 388.85C542.015 388.835 542.028 388.814 542.033 388.791L543.7 382.691C543.707 382.664 543.704 382.634 543.69 382.609C543.676 382.584 543.652 382.566 543.625 382.558C543.597 382.552 543.569 382.557 543.544 382.571C543.52 382.584 543.501 382.607 543.491 382.633L541.825 388.741C541.82 388.768 541.824 388.795 541.838 388.818C541.852 388.841 541.874 388.859 541.9 388.866L541.933 388.875Z" fill="#231F20"/>
<path d="M182.225 289.467C182.225 289.467 190.692 294.242 193.242 294.825C195.792 295.409 196.917 296.859 196.992 298.117C197.067 299.375 196.808 299.942 196.592 300.025C196.375 300.109 171.792 301.017 171.533 299.809C171.275 298.6 172.883 289.808 172.883 289.808L182.225 289.467Z" fill="#232059"/>
<path d="M182.225 289.467C182.225 289.467 178.167 290.142 178.175 290.858C178.183 291.575 172.883 289.817 172.883 289.817L172.283 281.717L182.692 282.05L182.225 289.467Z" fill="#FDA181"/>
<path d="M171.533 299.808C171.792 301.017 196.375 300.117 196.592 300.025C196.808 299.933 197.067 299.367 196.992 298.117C196.917 296.867 195.792 295.417 193.242 294.825C192.881 294.739 192.527 294.624 192.183 294.483C191.467 294.942 190.35 299.075 190.35 299.075C188.525 299.183 174.683 298.908 171.525 298.842C171.487 299.163 171.49 299.488 171.533 299.808Z" fill="#E1E7EF"/>
<path d="M134.708 276.908L133.825 284.725L130.817 292.642C130.7 292.944 130.705 293.279 130.831 293.578C130.957 293.876 131.194 294.114 131.492 294.242C134.925 295.717 145.342 300.075 148.45 300.525C150.81 300.792 153.191 300.831 155.558 300.642C155.942 300.614 156.299 300.437 156.553 300.148C156.807 299.86 156.937 299.484 156.917 299.1C156.808 297.283 156.208 294.308 153.433 293.55C149.367 292.442 143.433 286.167 143.433 286.167L145.217 279.958L134.708 276.908Z" fill="#403882"/>
<path d="M143.458 286.167C143.458 286.167 139.95 286.092 139.242 286.75C138.533 287.408 133.825 284.725 133.825 284.725L134.708 276.908L145.242 280L143.458 286.167Z" fill="#FDA181"/>
<path d="M131.492 294.241C134.925 295.716 145.342 300.075 148.45 300.525C150.81 300.792 153.191 300.831 155.558 300.641C155.941 300.614 156.299 300.437 156.553 300.148C156.807 299.86 156.937 299.483 156.917 299.1C156.808 297.283 156.208 294.308 153.433 293.55C153.2 293.483 152.967 293.4 152.725 293.308C148.425 294 148.158 298.666 148.158 298.666C144.442 297.875 134.05 293.5 130.992 292.191L130.825 292.641C130.708 292.943 130.712 293.277 130.836 293.576C130.96 293.874 131.195 294.113 131.492 294.241Z" fill="#E1E7EF"/>
<path d="M184.092 132.15C184.092 132.15 189.558 164.45 188.575 193.4C187.592 222.35 183.058 282.817 183.058 282.817C183.058 282.817 174.442 283.358 171.708 282.025C171.708 282.025 166.542 240.817 167.725 228.183C168.908 215.55 169.167 214.3 169.167 212.9C169.167 211.5 166.95 190.517 166.95 190.517C166.95 190.517 162.15 213.933 160.008 223.85C157.867 233.767 145.242 280 145.242 280C145.242 280 136.908 279.608 134.708 276.95C134.708 276.95 137.567 233.917 140.542 223.375C143.517 212.833 144.875 207.225 144.708 202.5C144.542 197.775 141.65 167.742 145.392 151.883C149.133 136.025 152.558 130.142 152.558 130.142L184.092 132.15Z" fill="#403882"/>
<path d="M171.567 162.967L166.908 190.517C166.908 190.517 169.167 211.492 169.167 212.9C169.167 214.308 168.95 215.558 167.767 228.183C167.65 229.417 167.592 230.917 167.592 232.617L167.65 236.517C167.65 236.517 169.708 221.342 171.608 213.867C173.508 206.392 171.567 162.967 171.567 162.967Z" fill="#232059"/>
<path d="M177.15 36.983C177.15 36.983 181.558 35.8163 181.975 39.1913C182.392 42.5663 180.833 49.4496 184.592 50.758C188.35 52.0663 193.267 53.7163 191.2 58.258C189.133 62.7996 182.8 65.3496 186.033 69.6913C189.267 74.033 192.025 74.0246 187.275 79.258C182.525 84.4913 147.708 84.0913 147.708 84.0913C147.708 84.0913 141.142 81.3246 139.492 76.0246C137.842 70.7246 134.492 67.008 139.425 65.1913C144.358 63.3746 148.333 63.8413 148.717 56.608C149.1 49.3746 149.183 40.5163 154.425 36.7913C159.667 33.0663 171.508 28.5913 174.058 30.9996C175.655 32.6468 176.73 34.728 177.15 36.983Z" fill="#403882"/>
<path d="M183.558 62.4996C184.45 57.608 183.142 55.8913 181.15 50.7913C179.903 47.4397 179.167 43.9199 178.967 40.3496C178.967 40.3496 168.792 55.5413 163.225 56.233C157.658 56.9246 155.667 53.2246 155.667 53.2246C155.667 53.2246 152.642 55.8913 151.75 61.8746C150.858 67.858 135.842 62.408 137.25 70.208C137.808 71.8746 138.8 73.783 139.492 76.0413C140.612 79.3653 142.659 82.2999 145.392 84.4996C145.392 84.4996 182.525 84.4996 187.275 79.2746C191.892 74.1913 189.425 74.0496 186.308 70.108C185.193 69.2167 184.346 68.0343 183.86 66.6916C183.375 65.3489 183.271 63.8981 183.558 62.4996Z" fill="#232059"/>
<path d="M271.967 151.374C269.325 145.774 261.967 141.141 255.775 141.141C251.507 141.107 247.36 142.556 244.042 145.241C243.631 145.581 243.139 145.81 242.613 145.903C242.088 145.997 241.548 145.953 241.044 145.776C240.541 145.599 240.092 145.295 239.741 144.893C239.39 144.491 239.149 144.005 239.042 143.483L233.658 118.333C233.47 117.459 233.112 116.631 232.604 115.896C232.096 115.162 231.448 114.534 230.698 114.049C229.947 113.565 229.108 113.233 228.229 113.073C227.35 112.913 226.448 112.928 225.575 113.116L137.833 131.958C136.112 132.333 134.609 133.375 133.653 134.855C132.698 136.336 132.367 138.134 132.733 139.858L151.6 227.499C151.856 228.688 152.422 229.789 153.24 230.689C154.058 231.589 155.099 232.257 156.258 232.624L155.1 232.949H158.533C158.959 232.94 159.384 232.89 159.8 232.799L161.708 232.391L184.208 227.541C184.931 227.386 185.6 227.045 186.15 226.553C186.701 226.06 187.113 225.432 187.347 224.731C187.581 224.031 187.628 223.281 187.484 222.556C187.34 221.832 187.009 221.157 186.525 220.599C184.391 218.141 182.953 215.156 182.361 211.955C181.77 208.754 182.046 205.453 183.161 202.394C184.275 199.335 186.188 196.63 188.701 194.56C191.214 192.491 194.235 191.131 197.45 190.622C200.666 190.114 203.959 190.475 206.988 191.669C210.017 192.863 212.671 194.845 214.675 197.411C216.679 199.976 217.96 203.031 218.385 206.259C218.81 209.487 218.363 212.769 217.092 215.766C216.839 216.349 216.783 216.998 216.933 217.615C217.084 218.232 217.432 218.782 217.925 219.183L216.608 219.824H219.65C219.888 219.831 220.126 219.808 220.358 219.758L247.242 213.974C249.007 213.593 250.548 212.527 251.528 211.009C252.508 209.492 252.845 207.649 252.467 205.883L247.075 180.883C246.959 180.352 246.982 179.8 247.14 179.279C247.298 178.759 247.587 178.288 247.979 177.912C248.371 177.535 248.853 177.265 249.379 177.127C249.905 176.989 250.457 176.988 250.983 177.124C254.361 177.988 257.916 177.867 261.228 176.776C264.539 175.684 267.469 173.667 269.671 170.964C271.873 168.26 273.256 164.983 273.655 161.519C274.055 158.056 273.454 154.55 271.925 151.416L271.967 151.374Z" fill="#201851"/>
<path d="M212.567 114.024C209.967 109.758 206.383 103.908 202.275 97.2911C193.842 83.7244 190.3 79.8577 190.3 79.8577C189.017 78.6244 177.8 76.5244 177.8 76.5244L163.333 75.8911C163.333 75.8911 159 75.3744 152.5 75.1744C147.8 75.0327 145.083 76.9327 141.525 80.2577C145.508 77.0661 148.108 100.316 148.108 100.316C148.108 100.316 149.725 110.966 150.992 119.541L152.5 120.833C157.05 124.791 162.783 130.133 162.783 130.133L159.683 134.091L160.517 134.349C163.55 135.233 183.633 132.574 184.125 132.183C184.617 131.791 187.325 112.974 187.817 111.399C188.308 109.824 191.15 105.641 191.15 105.641L204.225 124.624L216.95 121.291C216.95 121.291 215.3 118.499 212.567 114.024Z" fill="#1150BE"/>
<path d="M170.733 110.6C169.783 109.841 162.5 109.258 158.45 108.325C154.4 107.391 152.617 94.6748 152.617 94.6748L148.125 100.316C148.125 100.316 149.742 110.966 151.008 119.541L152.5 120.833C157.05 124.791 162.783 130.133 162.783 130.133L159.683 134.091L160.517 134.35C162.247 134.582 163.998 134.604 165.733 134.416C165.158 131.283 163.283 120.958 162.783 117.966C162.158 114.4 171.667 111.358 170.733 110.6Z" fill="#094082"/>
<path d="M191.133 105.608C191.133 105.608 192.8 102.067 192.692 99.775C192.418 97.4072 191.986 95.0603 191.4 92.75C191.4 92.75 197.017 106.233 198.367 108.875C199.717 111.517 216.933 121.183 216.933 121.183L204.208 124.517L191.133 105.608Z" fill="#094082"/>
<path d="M252.675 141.141C248.407 141.107 244.26 142.556 240.942 145.241C240.532 145.574 240.043 145.795 239.522 145.885C239.002 145.974 238.467 145.928 237.97 145.752C237.472 145.575 237.028 145.274 236.68 144.877C236.332 144.479 236.092 143.999 235.983 143.483L230.558 118.333C230.37 117.459 230.012 116.631 229.504 115.896C228.996 115.162 228.348 114.534 227.598 114.049C226.847 113.565 226.008 113.233 225.129 113.073C224.25 112.913 223.348 112.928 222.475 113.116L134.733 131.958C133.012 132.333 131.509 133.375 130.553 134.855C129.598 136.336 129.267 138.134 129.633 139.858L148.5 227.499C148.691 228.385 149.054 229.225 149.57 229.97C150.085 230.716 150.742 231.352 151.504 231.844C152.265 232.335 153.116 232.672 154.008 232.834C154.899 232.997 155.814 232.982 156.7 232.791L181.125 227.499C181.847 227.343 182.515 227.002 183.065 226.51C183.615 226.017 184.028 225.39 184.262 224.69C184.496 223.99 184.545 223.241 184.403 222.516C184.26 221.792 183.932 221.117 183.45 220.558C181.319 218.127 179.88 215.168 179.283 211.991C178.749 209.19 178.879 206.303 179.661 203.561C180.444 200.819 181.859 198.299 183.791 196.202C185.724 194.106 188.121 192.491 190.79 191.488C193.459 190.485 196.326 190.121 199.161 190.426C201.997 190.731 204.721 191.696 207.116 193.244C209.511 194.791 211.509 196.879 212.952 199.338C214.395 201.798 215.241 204.561 215.423 207.407C215.605 210.252 215.118 213.101 214 215.724C213.792 216.216 213.722 216.754 213.799 217.282C213.876 217.81 214.096 218.307 214.435 218.719C214.774 219.13 215.22 219.441 215.724 219.617C216.228 219.793 216.77 219.827 217.292 219.716L244.167 213.966C245.932 213.585 247.473 212.518 248.453 211.001C249.433 209.484 249.77 207.64 249.392 205.874L244 180.874C243.886 180.343 243.91 179.791 244.07 179.271C244.229 178.751 244.519 178.281 244.911 177.904C245.304 177.528 245.786 177.258 246.312 177.12C246.838 176.982 247.39 176.981 247.917 177.116C251.294 177.978 254.848 177.855 258.158 176.763C261.468 175.67 264.396 173.653 266.597 170.95C268.798 168.247 270.18 164.971 270.579 161.508C270.978 158.045 270.378 154.541 268.85 151.408C266.225 145.774 258.867 141.141 252.675 141.141Z" fill="url(#paint12_linear_406_3597)"/>
<path d="M160.117 82.3911C165.208 85.6411 171.708 85.2661 171.708 85.2661C171.483 80.9495 170.825 78.4745 168.217 76.0995L163.333 75.8911C163.333 75.8911 159 75.3744 152.5 75.1744C151.497 75.1412 150.494 75.2194 149.508 75.4078C154.058 74.5078 155.1 79.1661 160.117 82.3911Z" fill="#094082"/>
<g style="mix-blend-mode:multiply" opacity="0.3">
<path d="M169.658 145.658C173.083 146.558 174.508 146.091 174.8 145.324C174.8 145.324 176.933 145.733 177.425 145.433C177.917 145.133 178.658 144.549 179 144.599C179.342 144.649 180.05 143.974 180.25 143.658C180.45 143.341 165.3 134.249 154.5 127.683L139.85 130.833C143.85 133.141 152.067 137.766 155.45 138.891C160 140.433 166.225 144.758 169.658 145.658Z" fill="black"/>
</g>
<path d="M152.5 120.833L151.058 119.574C146.608 115.724 140.958 110.891 140.958 110.891L148.175 100.349C148.175 100.349 145.575 77.0995 141.592 80.2911C141.367 80.4911 141.142 80.7078 140.917 80.9161C136.5 85.5161 126.575 103.691 125.533 106.174C124.492 108.658 124.767 112.466 126.067 116.658L126.208 117.124C127.642 121.508 157.042 137.433 157.042 137.433L159.675 134.099L162.775 130.141C162.775 130.141 157.017 124.758 152.5 120.833Z" fill="#1150BE"/>
<path d="M178.967 40.3829C167.767 28.0413 158.4 53.2829 158.4 53.2829C155.742 51.2663 152.983 55.6663 155.283 58.1496C157.583 60.6329 159.692 59.5663 159.692 59.5663C160.722 61.1972 161.988 62.666 163.45 63.9246V75.8913C163.45 75.8913 166 85.6663 172.267 85.2496C178.533 84.8329 176.875 76.5079 176.875 76.5079C175.975 76.1329 175.042 69.6413 174.65 66.6496C175.506 66.3842 176.324 66.0089 177.083 65.5329C182.225 62.3246 178.967 40.3829 178.967 40.3829Z" fill="#FDA181"/>
<path d="M174.65 66.6661C171.925 67.4003 169.027 67.122 166.492 65.8828C166.492 65.8828 169.083 68.9661 175 68.9995L174.65 66.6661Z" fill="#D17A62"/>
<path d="M158.4 53.283C158.4 53.283 159.967 57.183 160.467 57.183C160.967 57.183 160.975 52.5913 160.975 52.5913C160.975 52.5913 166.942 52.408 168.183 46.4913C169.425 40.5746 172.142 39.1413 174.975 40.658C174.975 40.658 177.042 38.5913 178.967 40.383C178.288 38.8927 177.202 37.6247 175.834 36.7252C174.465 35.8258 172.87 35.3316 171.233 35.2996C165.383 35.058 155.525 46.583 158.4 53.283Z" fill="#403882"/>
<path d="M162.75 130.1L164.983 131.716C164.983 131.716 168.708 131.675 169.717 132.066C170.725 132.458 173.483 134.058 174.517 134.258C175.55 134.458 176.375 134.708 175.95 135.408C175.525 136.108 171.783 135.55 171.783 135.55C171.783 135.55 174.958 138.133 175.433 138.441C175.908 138.75 180.183 140.266 180.433 140.691C180.683 141.116 180.433 141.866 180.433 142.175C180.433 142.175 180.658 143.691 179.983 143.975C179.422 144.13 178.828 144.13 178.267 143.975C178.267 143.975 178.017 144.808 177.508 144.758C177 144.708 174.817 144.175 174.817 144.175C174.817 144.175 175.008 145.325 174.083 145.183C173.158 145.041 168.608 143.583 167.9 143.358C167.192 143.133 163.833 140.183 163.325 139.616C162.817 139.05 157.433 136.925 157.433 136.925L162.75 130.1Z" fill="#FDA181"/>
<g style="mix-blend-mode:multiply" opacity="0.3">
<path d="M230.492 142.441C230.59 142.859 230.808 143.239 231.118 143.535C231.429 143.831 231.819 144.03 232.242 144.107C233.75 144.399 236.625 145.149 237.592 144.891L239.433 144.391C239.267 144.106 239.146 143.796 239.075 143.474L238.242 139.591L227.967 140.324C227.967 140.324 228.017 141.766 230.492 142.441Z" fill="black"/>
</g>
<path d="M237.183 134.691C237.183 134.691 235.108 135.691 234.042 135.574C232.975 135.458 229.575 134.808 229.042 135.141C228.508 135.474 227.975 136.166 228.625 136.808C228.625 136.808 227.192 136.808 227.192 137.308C227.214 137.717 227.346 138.113 227.573 138.454C227.8 138.796 228.114 139.07 228.483 139.249C228.273 139.347 228.104 139.516 228.007 139.727C227.909 139.937 227.889 140.175 227.95 140.399C228.092 141.299 230.65 141.549 230.65 141.549C230.482 141.612 230.339 141.726 230.241 141.876C230.144 142.026 230.097 142.204 230.108 142.383C230.2 143.058 231.208 143.216 231.883 143.366C233.521 143.607 235.171 143.757 236.825 143.816C237.936 143.514 238.921 142.862 239.633 141.958C239.717 141.599 239.258 141.066 239.283 140.658C239.308 140.249 239.467 138.991 239.1 138.774C238.733 138.558 239.242 137.324 238.958 137.033C238.675 136.741 238.642 134.941 238.358 134.766C238.075 134.591 237.042 134.058 237.042 134.058L237.183 134.691Z" fill="#FDA181"/>
<defs>
<linearGradient id="paint0_linear_406_3597" x1="461.342" y1="53.7751" x2="512.292" y2="178.392" gradientUnits="userSpaceOnUse">
<stop offset="0.05" stop-color="#FBD15B"/>
<stop offset="1" stop-color="#F9A45A"/>
</linearGradient>
<linearGradient id="paint1_linear_406_3597" x1="501.7" y1="182" x2="546.092" y2="345.367" gradientUnits="userSpaceOnUse">
<stop stop-color="#FF9D5D"/>
<stop offset="0.08" stop-color="#FF985D"/>
<stop offset="0.18" stop-color="#FF8A5C"/>
<stop offset="0.28" stop-color="#FF725B"/>
<stop offset="0.37" stop-color="#FF825B"/>
<stop offset="0.49" stop-color="#FF8F5C"/>
<stop offset="0.64" stop-color="#FF965C"/>
<stop offset="1" stop-color="#FF985C"/>
</linearGradient>
<linearGradient id="paint2_linear_406_3597" x1="55.7333" y1="53.7751" x2="106.683" y2="178.392" gradientUnits="userSpaceOnUse">
<stop offset="0.05" stop-color="#FBD15B"/>
<stop offset="1" stop-color="#F9A45A"/>
</linearGradient>
<linearGradient id="paint3_linear_406_3597" x1="378.742" y1="418.267" x2="307.283" y2="321.183" gradientUnits="userSpaceOnUse">
<stop stop-color="#1252C4"/>
<stop offset="1" stop-color="#3F87FE"/>
</linearGradient>
<linearGradient id="paint4_linear_406_3597" x1="102.35" y1="403.7" x2="74.3999" y2="274.558" gradientUnits="userSpaceOnUse">
<stop stop-color="#1252C4"/>
<stop offset="1" stop-color="#3F87FE"/>
</linearGradient>
<linearGradient id="paint5_linear_406_3597" x1="165.625" y1="387.042" x2="51.375" y2="387.042" gradientUnits="userSpaceOnUse">
<stop stop-color="#FF9D5C"/>
<stop offset="1" stop-color="#FFC961"/>
</linearGradient>
<linearGradient id="paint6_linear_406_3597" x1="381.5" y1="393.158" x2="375.175" y2="370.658" gradientUnits="userSpaceOnUse">
<stop stop-color="#F8A034"/>
<stop offset="1" stop-color="#FFC546"/>
</linearGradient>
<linearGradient id="paint7_linear_406_3597" x1="382.766" y1="393.983" x2="390.617" y2="377.716" gradientUnits="userSpaceOnUse">
<stop stop-color="#FCB72C"/>
<stop offset="1" stop-color="#FFCF44"/>
</linearGradient>
<linearGradient id="paint8_linear_406_3597" x1="372.767" y1="395.008" x2="369.967" y2="384.558" gradientUnits="userSpaceOnUse">
<stop stop-color="#FCB72C"/>
<stop offset="1" stop-color="#FFCF44"/>
</linearGradient>
<linearGradient id="paint9_linear_406_3597" x1="533.792" y1="389.9" x2="538.85" y2="371.875" gradientUnits="userSpaceOnUse">
<stop stop-color="#F8A034"/>
<stop offset="1" stop-color="#FFC546"/>
</linearGradient>
<linearGradient id="paint10_linear_406_3597" x1="532.775" y1="390.558" x2="526.483" y2="377.524" gradientUnits="userSpaceOnUse">
<stop stop-color="#FCB72C"/>
<stop offset="1" stop-color="#FFCF44"/>
</linearGradient>
<linearGradient id="paint11_linear_406_3597" x1="540.783" y1="391.383" x2="543.025" y2="383.008" gradientUnits="userSpaceOnUse">
<stop stop-color="#FCB72C"/>
<stop offset="1" stop-color="#FFCF44"/>
</linearGradient>
<linearGradient id="paint12_linear_406_3597" x1="237.817" y1="230.941" x2="171.075" y2="136.558" gradientUnits="userSpaceOnUse">
<stop stop-color="#F8A034"/>
<stop offset="1" stop-color="#FFC546"/>
</linearGradient>
</defs>
</svg>
