<svg width="572" height="400" viewBox="0 0 572 400" fill="none" xmlns="http://www.w3.org/2000/svg">
<path d="M208.254 355.872C208.254 355.872 209.127 374.602 208.254 375.396C207.381 376.19 182.619 376.19 182.619 375.396C182.619 374.602 191.508 355.872 191.508 355.872H208.254Z" fill="#403880"/>
<path d="M208.254 375.395C208.492 375.237 208.572 373.729 208.572 371.665C208.572 369.602 205.159 363.57 197.698 363.729C188.492 363.887 184.762 372.538 184.762 372.538H183.81C183.354 373.465 182.956 374.419 182.619 375.395C182.619 376.189 207.381 376.189 208.254 375.395Z" fill="#E0E6EE"/>
<path d="M201.429 203.016C201.429 203.016 198.73 266.27 196.905 276.032C195.079 285.793 192.698 292.539 191.905 304.762C191.111 316.984 191.508 355.873 191.508 355.873C191.508 355.873 201.587 360.159 208.254 355.873C208.254 355.873 217.54 289.524 218.968 280.317C220.397 271.111 226.905 245.714 226.905 245.714V200.952L201.429 203.016Z" fill="#403882"/>
<path d="M208.254 355.873C208.254 355.873 217.54 289.524 218.968 280.317C220.397 271.111 226.905 245.714 226.905 245.714V200.952L201.428 203.016C201.428 203.016 201.349 205.317 201.111 209.047C205.238 219.841 217.54 253.492 216.349 263.492C214.841 275.555 215.079 290.873 211.111 292.301C207.143 293.73 205.635 295.159 209.127 300.555C212.619 305.952 204.682 357.539 191.508 355.873C191.508 355.873 201.587 360.159 208.254 355.873Z" fill="#232059"/>
<path d="M190.397 121.824C190.397 121.824 173.175 139.682 175.476 149.047C177.778 158.412 191.905 187.856 199.365 190.396L201.429 203.015C201.429 203.015 222.143 208.65 238.016 200.951C253.889 193.253 224.603 117.936 224.603 117.936L206.746 117.062L190.397 121.824Z" fill="#FFC861"/>
<path d="M220.794 126.348C225.476 130.237 218.334 149.443 213.492 153.094C208.651 156.745 197.857 149.84 197.857 149.84L205 177.142L239.842 166.666C234.683 143.729 224.603 117.936 224.603 117.936L206.746 117.062L205.635 117.38L206.984 119.443C206.984 119.443 216.191 122.459 220.794 126.348Z" fill="#D17E2C"/>
<path d="M199.365 190.395L201.429 203.015C201.429 203.015 216.984 207.221 231.508 203.332V158.649L199.365 190.395Z" fill="#D17E2C"/>
<path d="M208.889 88.9679C208.889 88.9679 212.302 85.8726 210.238 85.3964C208.175 84.9203 208.095 86.9838 208.889 88.9679Z" fill="#1E194F"/>
<path d="M208.572 85.3965C208.572 85.3965 212.143 102.857 212.143 109.762C212.222 113.016 206.032 113.174 206.032 113.174C206.032 113.174 206.588 116.111 206.905 117.936C207.223 119.762 207.223 124.285 202.143 125.079C197.064 125.873 190.397 121.825 190.397 121.825C190.397 121.825 189.286 108.254 188.81 106.746C188.334 105.238 183.413 92.6187 189.683 89.2854C195.953 85.952 208.572 85.3965 208.572 85.3965Z" fill="#F49C80"/>
<path d="M192.857 102.46C193.071 102.674 193.344 102.819 193.642 102.875C193.939 102.932 194.246 102.898 194.524 102.777C194.334 103.074 194.055 103.303 193.727 103.431C193.399 103.56 193.039 103.581 192.698 103.492C191.587 103.016 192.698 102.46 192.698 102.46" fill="#CF7A62"/>
<path d="M197.937 106.904C197.937 106.904 198.968 115.317 199.365 115.873C199.762 116.428 204.286 119.127 206.984 119.444C207.002 118.94 206.975 118.435 206.905 117.936C206.587 116.111 206.032 113.174 206.032 113.174H206.667C204.683 109.841 201.349 106.507 197.937 106.904Z" fill="#CF7A62"/>
<path d="M197.222 94.9994C197.222 94.9994 200.714 105.952 202.46 105.317C204.206 104.682 208.016 100.317 211.27 101.031C212.778 101.349 215.635 111.745 214.762 113.015C213.889 114.285 205.079 117.301 199.683 113.73L195.397 96.9041C195.397 96.9041 193.016 94.047 190.952 95.3962C188.889 96.7454 191.27 101.269 192.857 102.46C192.857 102.46 193.016 107.46 189.127 108.571C189.127 108.571 182.143 96.9041 181.984 94.4438C181.984 94.4438 180.952 95.3962 180.794 93.6502C180.676 92.5065 180.957 91.3573 181.587 90.3962C181.587 90.3962 181.984 86.4279 182.619 86.3486C183.254 86.2692 183.413 87.0629 183.413 87.0629C183.413 87.0629 190.159 79.4438 193.968 78.8089C197.778 78.174 195 79.9994 195 79.9994C195 79.9994 202.778 75.3168 210.952 76.666C215.635 77.4597 210.476 86.666 208.016 87.3803C205.556 88.0946 198.095 89.8406 198.095 89.8406C198.095 89.8406 200.476 90.9517 197.222 94.9994Z" fill="#403880"/>
<path d="M187.143 96.8243C183.572 99.9196 181.984 94.4434 181.984 94.4434C182.143 96.9037 189.127 108.57 189.127 108.57C193.016 107.459 192.857 102.459 192.857 102.459C192.857 102.459 190.08 98.9672 190.159 97.0624C187.857 99.5227 187.143 96.8243 187.143 96.8243Z" fill="#1E194F"/>
<path d="M464.365 292.143C463.174 322.222 444.286 370.476 426.032 364.841C421.19 363.333 427.381 340.952 445 321.27C457.778 306.984 461.19 296.508 464.365 292.143Z" fill="#FD835A"/>
<path d="M410.397 361.111C410.555 363.015 384.286 365.396 372.143 345.555C362.619 330.079 356.746 328.73 351.667 325.952C386.19 325.396 410.159 356.111 410.397 361.111Z" fill="#201851"/>
<path d="M401.032 320.238C401.19 318.65 399.524 307.063 401.349 297.936C404.921 301.428 418.254 346.904 417.857 354.285C417.698 356.984 419.286 364.444 413.571 365.793C407.857 367.142 396.508 352.698 392.54 342.698C379.524 309.603 388.889 311.031 378.095 292.222C382.381 295.317 398.81 314.365 401.032 320.238Z" fill="#413B89"/>
<path d="M394.127 307.46C396.27 310.635 397.302 314.365 399.445 317.46C401.588 320.555 400.953 323.095 402.222 325.476C403.492 327.857 405.794 329.444 405.953 333.016C406.032 334.762 405.556 336.111 405.715 337.698C405.873 339.285 406.746 341.349 406.746 343.333C406.746 345.317 406.349 346.19 406.27 347.539C406.191 351.349 412.222 357.539 407.381 361.031C407.619 364.206 407.064 365.397 405.397 365.397C401.826 365.555 401.984 361.904 401.27 359.92C400.556 357.936 397.857 356.111 397.619 353.016C397.54 351.349 398.492 349.444 398.254 348.016C398.016 346.587 397.143 346.27 396.508 345.317C395 342.936 394.921 340.158 395.08 337.381C395.238 335.793 396.508 333.254 396.27 331.746C395.873 328.968 393.095 328.254 393.889 324.285C394.207 323.016 395.238 321.587 395.238 320.317C395.238 319.047 394.365 318.254 393.889 317.143C392.778 313.968 394.048 310.714 394.127 307.46Z" fill="#FD835A"/>
<path d="M407.54 353.492C410.952 353.412 415.238 356.587 417.46 360.158C417.46 357.936 417.301 355.714 417.143 353.492C414.762 351.269 410.635 351.904 408.254 349.047C405.873 346.19 408.254 342.698 411.825 344.523C413.571 345.396 415.635 348.253 416.984 350.714C416.825 349.127 416.667 346.904 416.508 345.317L416.27 341.19C413.492 339.523 407.619 339.603 406.984 335.079C406.587 331.904 409.762 329.682 412.301 332.301C413.867 333.991 415.153 335.92 416.111 338.015C416.032 335.476 416.032 332.936 416.19 330.396C413.174 328.015 406.27 328.73 404.92 324.285C403.571 319.841 408.492 319.761 411.111 321.587C413.73 323.412 415 326.507 416.19 329.444L416.667 323.73C414.444 321.428 409.682 319.92 408.73 316.111C407.778 312.301 410.794 308.412 414.286 312.222C416.111 314.127 416.905 317.222 417.222 320.158C417.54 318.095 418.016 316.031 418.492 313.968C417.836 312.599 417.094 311.274 416.27 310C415.159 308.333 413.492 306.746 413.651 304.682C413.968 301.19 416.746 303.015 417.936 305.317C418.776 307.161 419.209 309.164 419.206 311.19C419.841 308.888 420.794 305.476 421.587 303.253C420.397 299.603 411.349 292.619 417.936 292.142C421.032 291.904 422.222 298.015 422.301 301.666L424.048 297.46C423.016 294.523 417.698 285.317 422.222 284.761C426.746 284.206 425.714 290.317 425.397 293.253C425.404 293.757 425.377 294.261 425.317 294.761C426.19 292.936 427.063 291.111 428.016 289.285C427.168 288.007 426.5 286.619 426.032 285.158C425.714 284.126 424.682 279.365 427.619 281.031C428.73 281.587 429.206 285 429.127 287.46C429.841 286.19 430.555 284.92 431.349 283.73C435.714 274.523 431.428 262.857 438.492 264.047C446.825 265.317 444.444 272.222 442.46 274.841C439.879 278.034 436.731 280.725 433.174 282.777C432.381 284.047 429.365 290 428.968 290.793C432.301 286.666 439.048 278.492 441.746 283.015C444.444 287.539 432.381 290 428.333 292.142C427.222 294.444 424.762 300.476 424.524 301.111C426.032 299.365 427.301 296.825 429.365 295.634C431.428 294.444 435.476 293.65 435.476 296.349C435.476 299.047 430 300.634 427.301 301.349C424.603 302.063 424.603 302.777 424.048 302.619C422.928 305.66 421.975 308.76 421.19 311.904C423.333 308.095 429.365 300 432.381 304.365C436.19 310 424.841 310.158 421.032 312.777C420.232 315.993 419.622 319.252 419.206 322.539V322.698C420.476 319.682 421.508 316.666 424.206 314.285C426.905 311.904 430.952 311.19 431.032 316.111C431.111 319.682 424.762 320.396 421.905 322.142C420.555 322.936 419.682 323.968 418.968 324.365C418.651 327.45 418.492 330.549 418.492 333.65C423.571 329.206 427.301 316.428 431.825 322.222C436.349 328.015 423.651 328.492 418.492 334.761C418.492 337.539 418.651 340.396 418.809 343.253C419.502 340.967 420.433 338.759 421.587 336.666C422.381 335.079 426.825 330.396 428.889 333.888C430.952 337.38 424.524 340.238 422.619 341.349C421.036 342.245 419.762 343.601 418.968 345.238C418.968 345.793 419.603 352.222 419.762 354.92C421.032 350.238 431.667 332.857 436.032 342.301C438.889 348.412 425.794 349.92 422.857 352.063C421.355 352.996 420.274 354.476 419.841 356.19C419.921 357.777 420 359.285 420 360.873C422.54 356.507 428.73 348.015 432.063 354.365C435.397 360.714 425.476 359.92 423.492 361.031C421.508 362.142 419.841 362.698 419.921 365.079C419.827 366.942 419.614 368.798 419.286 370.634C419.047 371.904 416.984 371.428 417.143 370.158C417.381 367.619 417.54 365 417.54 362.46C414.444 360.714 407.778 360.714 405.714 359.127C403.651 357.539 403.809 353.65 407.54 353.492Z" fill="url(#paint0_linear_406_2270)"/>
<path d="M459.524 373.016C459.524 373.016 455.714 361.825 446.905 365.397C446.905 365.397 442.54 351.19 431.746 362.301C420.952 373.412 424.286 349.603 413.571 351.746C402.857 353.889 406.032 362.063 406.032 362.063C406.032 362.063 395.794 356.746 398.016 365.873C398.016 365.873 373.889 353.889 373.492 364.047C373.492 364.047 357.302 361.031 360.079 369.444C360.079 369.444 350.714 367.063 350.714 373.016H459.524Z" fill="url(#paint1_linear_406_2270)"/>
<path d="M402.857 44.7617H240.952C231.905 44.7617 224.603 51.4284 224.603 59.7617V358.413C224.603 366.666 231.905 373.333 240.952 373.333H402.857C411.825 373.333 419.206 366.666 419.206 358.413V59.7617C419.206 51.4284 411.825 44.7617 402.857 44.7617ZM408.968 349.127C408.968 356.984 402.381 363.333 394.286 363.333H249.524C241.349 363.333 234.841 356.984 234.841 349.127V71.0316C234.841 54.9998 241.349 54.2855 249.524 54.2855H278.492C280.159 54.2855 281.587 55.9522 281.587 58.095V59.0474C281.587 63.9681 284.603 64.0474 288.333 64.0474H355.397C359.206 64.0474 362.222 63.9681 362.222 59.0474V58.095C362.222 55.9522 363.571 54.2855 365.317 54.2855H394.286C402.381 54.2855 408.968 56.349 408.968 71.0316V349.127Z" fill="#201851"/>
<path d="M408.968 71.0312V349.126C408.968 356.984 402.381 363.333 394.286 363.333H249.524C241.349 363.333 234.841 356.984 234.841 349.126V71.0312C234.841 54.9994 241.349 54.2852 249.524 54.2852H278.492C280.159 54.2852 281.587 55.9518 281.587 58.0947V59.0471C281.587 63.9677 284.603 64.0471 288.333 64.0471H355.397C359.206 64.0471 362.222 63.9677 362.222 59.0471V58.0947C362.222 55.9518 363.571 54.2852 365.318 54.2852H394.286C402.381 54.2852 408.968 56.3486 408.968 71.0312Z" fill="#E3E3E3"/>
<path d="M332.857 57.7775H316.508C316.234 57.7775 315.972 57.6688 315.778 57.4753C315.585 57.2818 315.476 57.0194 315.476 56.7457C315.476 56.6137 315.503 56.483 315.555 56.362C315.608 56.2409 315.685 56.1322 315.782 56.0426C315.88 55.953 315.994 55.8846 316.119 55.8417C316.244 55.7988 316.376 55.7823 316.508 55.7934H332.857C332.989 55.7823 333.121 55.7988 333.246 55.8417C333.371 55.8846 333.485 55.953 333.582 56.0426C333.679 56.1322 333.757 56.2409 333.809 56.362C333.862 56.483 333.889 56.6137 333.889 56.7457V56.7457C333.889 57.0194 333.78 57.2818 333.587 57.4753C333.393 57.6688 333.131 57.7775 332.857 57.7775V57.7775Z" fill="white"/>
<path d="M377.46 96.9043L271.984 96.6662C269.451 96.6453 267.028 95.6243 265.245 93.8256C263.461 92.0269 262.46 89.5962 262.46 87.063V83.4916C262.481 80.9584 263.502 78.5362 265.301 76.7524C267.099 74.9685 269.53 73.9677 272.063 73.9678L377.539 74.2059C380.066 74.2472 382.476 75.2747 384.256 77.069C386.035 78.8633 387.043 81.2821 387.063 83.809V87.3805C387.042 89.9136 386.021 92.3359 384.223 94.1197C382.424 95.9035 379.993 96.9044 377.46 96.9043V96.9043Z" fill="#F5F5F5"/>
<path d="M377.46 96.9044H378.174C378.875 96.8527 379.568 96.7195 380.238 96.5075C381.324 96.1852 382.344 95.6748 383.254 94.9996C384.467 94.0113 385.443 92.7638 386.111 91.3488C386.478 90.5163 386.719 89.6335 386.825 88.7298C386.932 87.7282 386.959 86.7197 386.905 85.7139C386.957 84.6023 386.931 83.4884 386.825 82.3806C386.605 81.2023 386.175 80.0733 385.555 79.0472C384.888 77.9098 383.982 76.9307 382.899 76.1771C381.817 75.4236 380.584 74.9135 379.286 74.6821C377.866 74.482 376.433 74.4023 375 74.4441H370.397L272.063 74.2853C269.71 74.2639 267.438 75.1442 265.714 76.7456C264.013 78.3255 262.941 80.4683 262.698 82.7774C262.619 83.9679 262.698 85.1583 262.698 86.2694C262.604 87.4168 262.711 88.5719 263.016 89.6821C263.629 91.8443 265.012 93.7074 266.905 94.9202C267.823 95.5437 268.844 96.0004 269.921 96.2695C270.993 96.4701 272.084 96.55 273.175 96.5075H292.54L336.746 96.7456H273.175C272.032 96.7847 270.888 96.7049 269.762 96.5075C268.634 96.2436 267.56 95.7872 266.587 95.1583C264.618 93.8661 263.203 91.8847 262.619 89.6028C262.291 88.4694 262.157 87.2888 262.222 86.1107C262.222 84.9202 262.222 83.8091 262.301 82.6187C262.481 80.1837 263.589 77.9109 265.397 76.2694C267.207 74.5833 269.59 73.6472 272.063 73.6504L370.397 73.9679H375C376.459 73.9283 377.919 74.008 379.365 74.206C380.693 74.4686 381.952 75.0069 383.059 75.7861C384.166 76.5654 385.098 77.5681 385.794 78.7298C386.389 79.7955 386.818 80.9465 387.063 82.1425C387.168 83.2768 387.195 84.4171 387.143 85.5552C387.197 86.561 387.17 87.5695 387.063 88.571C386.905 89.4984 386.639 90.404 386.27 91.2695C385.619 92.7174 384.608 93.9743 383.333 94.9202C382.405 95.6131 381.355 96.1247 380.238 96.4282C379.568 96.6402 378.875 96.7733 378.174 96.825L377.46 96.9044Z" fill="#201851"/>
<path d="M379.444 85.0003C379.365 85.0003 379.365 84.6828 379.206 84.0479C378.993 83.1684 378.454 82.4025 377.698 81.9051C377.122 81.4587 376.431 81.1833 375.706 81.1104C374.981 81.0375 374.249 81.17 373.596 81.4927C372.942 81.8154 372.392 82.3154 372.009 82.9356C371.626 83.5558 371.424 84.2713 371.428 85.0003C371.439 85.7929 371.686 86.5642 372.139 87.2149C372.591 87.8656 373.228 88.3658 373.968 88.6511C374.581 88.8863 375.242 88.966 375.893 88.8829C376.544 88.7998 377.164 88.5565 377.698 88.1749C378.398 87.6218 378.922 86.8773 379.206 86.032C379.365 85.3971 379.365 85.0003 379.444 85.0003V85.3178C379.45 85.5583 379.423 85.7985 379.365 86.032C379.288 86.5104 379.115 86.9682 378.856 87.3776C378.596 87.7869 378.257 88.1392 377.857 88.413C377.296 88.8621 376.627 89.1568 375.917 89.2682C375.208 89.3796 374.481 89.3036 373.809 89.0479C372.972 88.7473 372.248 88.1933 371.74 87.463C371.231 86.7326 370.963 85.862 370.971 84.9721C370.98 84.0821 371.266 83.217 371.788 82.4967C372.311 81.7765 373.045 81.2368 373.889 80.9527C374.568 80.7156 375.297 80.6567 376.006 80.7818C376.714 80.9068 377.379 81.2116 377.936 81.667C378.325 81.945 378.652 82.2998 378.897 82.7093C379.143 83.1189 379.302 83.5745 379.365 84.0479C379.423 84.2814 379.45 84.5216 379.444 84.7622V85.0003Z" fill="#201851"/>
<path d="M381.667 92.1423C380.918 91.6355 380.25 91.0203 379.682 90.3169C378.651 89.2058 377.936 88.2535 378.016 88.0947C378.757 88.6404 379.424 89.2808 380 89.9995C380.687 90.6007 381.253 91.3281 381.667 92.1423V92.1423Z" fill="#201851"/>
<path d="M273.571 60.3965L273.254 60.714L273.095 60.8727C272.758 60.5179 272.351 60.2363 271.901 60.0451C271.45 59.854 270.965 59.7575 270.476 59.7616C269.494 59.7879 268.558 60.1848 267.857 60.8727C267.857 60.8306 267.84 60.7902 267.81 60.7605C267.781 60.7307 267.74 60.714 267.698 60.714L267.46 60.3965L267.857 60.0791L268.65 59.6029L269.682 59.2061H271.031C271.363 59.2107 271.689 59.2922 271.984 59.4442C272.217 59.5007 272.434 59.6092 272.619 59.7616L273.254 60.1584L273.571 60.3965Z" fill="#201851"/>
<path d="M268.73 61.6665L268.333 61.2696C268.794 60.7827 269.413 60.4736 270.079 60.3966C270.554 60.3163 271.041 60.3539 271.498 60.5062C271.954 60.6584 272.367 60.9206 272.698 61.2696L272.222 61.6665C271.998 61.4308 271.726 61.2453 271.425 61.1222C271.124 60.9991 270.801 60.9411 270.476 60.9522C270.152 60.9505 269.831 61.0128 269.532 61.1353C269.232 61.2579 268.96 61.4384 268.73 61.6665V61.6665Z" fill="#201851"/>
<path d="M271.825 62.1426L271.428 62.5394C271.299 62.4245 271.149 62.3371 270.985 62.2826C270.821 62.228 270.648 62.2073 270.476 62.2219C270.317 62.2136 270.157 62.2375 270.007 62.292C269.857 62.3465 269.72 62.4307 269.603 62.5394C269.444 62.3807 269.285 62.3013 269.206 62.1426C269.376 61.9674 269.58 61.8281 269.805 61.733C270.03 61.6379 270.271 61.5889 270.516 61.5889C270.76 61.5889 271.002 61.6379 271.226 61.733C271.451 61.8281 271.655 61.9674 271.825 62.1426V62.1426Z" fill="#201851"/>
<path d="M270.873 62.9359C270.873 63.0411 270.831 63.1421 270.757 63.2165C270.682 63.2909 270.581 63.3327 270.476 63.3327C270.371 63.3327 270.27 63.2909 270.195 63.2165C270.121 63.1421 270.079 63.0411 270.079 62.9359C270.079 62.8306 270.121 62.7297 270.195 62.6553C270.27 62.5809 270.371 62.5391 270.476 62.5391C270.581 62.5391 270.682 62.5809 270.757 62.6553C270.831 62.7297 270.873 62.8306 270.873 62.9359Z" fill="#201851"/>
<path d="M247.063 61.2693C247.063 60.9746 247.181 60.692 247.389 60.4836C247.597 60.2753 247.88 60.1582 248.175 60.1582C248.469 60.1582 248.752 60.2753 248.96 60.4836C249.169 60.692 249.286 60.9746 249.286 61.2693C249.286 61.564 249.169 61.8466 248.96 62.055C248.752 62.2634 248.469 62.3804 248.175 62.3804C247.88 62.3804 247.597 62.2634 247.389 62.055C247.181 61.8466 247.063 61.564 247.063 61.2693V61.2693Z" fill="#201851"/>
<path d="M250.555 61.2693C250.555 60.9746 250.672 60.692 250.881 60.4836C251.089 60.2753 251.372 60.1582 251.666 60.1582C251.961 60.1582 252.244 60.2753 252.452 60.4836C252.66 60.692 252.777 60.9746 252.777 61.2693C252.777 61.564 252.66 61.8466 252.452 62.055C252.244 62.2634 251.961 62.3804 251.666 62.3804C251.372 62.3804 251.089 62.2634 250.881 62.055C250.672 61.8466 250.555 61.564 250.555 61.2693V61.2693Z" fill="#201851"/>
<path d="M254.127 61.2693C254.127 61.1234 254.156 60.9789 254.212 60.8441C254.267 60.7093 254.349 60.5868 254.452 60.4836C254.556 60.3805 254.678 60.2986 254.813 60.2428C254.948 60.1869 255.092 60.1582 255.238 60.1582C255.384 60.1582 255.528 60.1869 255.663 60.2428C255.798 60.2986 255.921 60.3805 256.024 60.4836C256.127 60.5868 256.209 60.7093 256.265 60.8441C256.32 60.9789 256.349 61.1234 256.349 61.2693C256.33 61.5579 256.207 61.8298 256.003 62.0342C255.798 62.2387 255.527 62.3617 255.238 62.3804C255.092 62.3804 254.948 62.3517 254.813 62.2958C254.678 62.24 254.556 62.1582 254.452 62.055C254.349 61.9518 254.267 61.8293 254.212 61.6945C254.156 61.5597 254.127 61.4152 254.127 61.2693V61.2693Z" fill="#201851"/>
<path d="M257.619 61.2693C257.619 60.9746 257.736 60.692 257.944 60.4836C258.152 60.2753 258.435 60.1582 258.73 60.1582C259.024 60.1582 259.307 60.2753 259.515 60.4836C259.724 60.692 259.841 60.9746 259.841 61.2693C259.841 61.564 259.724 61.8466 259.515 62.055C259.307 62.2634 259.024 62.3804 258.73 62.3804C258.435 62.3804 258.152 62.2634 257.944 62.055C257.736 61.8466 257.619 61.564 257.619 61.2693V61.2693Z" fill="#201851"/>
<path d="M261.111 61.2693C261.131 60.9675 261.265 60.6847 261.486 60.4784C261.708 60.272 261.999 60.1575 262.301 60.1582C262.447 60.1582 262.592 60.1869 262.727 60.2428C262.861 60.2986 262.984 60.3805 263.087 60.4836C263.19 60.5868 263.272 60.7093 263.328 60.8441C263.384 60.9789 263.412 61.1234 263.412 61.2693C263.394 61.5579 263.271 61.8298 263.066 62.0342C262.862 62.2387 262.59 62.3617 262.301 62.3804C261.999 62.3811 261.708 62.2666 261.486 62.0603C261.265 61.8539 261.131 61.5711 261.111 61.2693V61.2693Z" fill="#201851"/>
<path d="M396.825 63.6507H387.778V59.4443H396.825V63.6507ZM388.254 63.2539H396.429V59.9205H388.254V63.2539Z" fill="#201851"/>
<path d="M394.365 60.1582H388.492V62.9439H394.365V60.1582Z" fill="#201851"/>
<path d="M397.698 60.4756H396.905V62.7375H397.698V60.4756Z" fill="#201851"/>
<path d="M409.047 345.793H234.603L234.841 108.968H409.047V345.793Z" fill="#BDC2C6"/>
<path d="M342.302 131.269C342.892 131.265 343.48 131.345 344.048 131.507V131.507C345.794 131.666 347.222 133.333 349.127 133.015C351.032 132.698 350.794 130.476 350.873 129.206V108.968H292.778V128.333C292.778 128.333 292.698 132.698 294.524 133.015C296.349 133.333 297.936 131.666 299.603 131.507H299.682C300.222 131.339 300.784 131.258 301.349 131.269C302.245 131.28 303.131 131.467 303.955 131.819C304.779 132.172 305.526 132.683 306.152 133.324C306.779 133.966 307.273 134.724 307.606 135.556C307.939 136.388 308.106 137.278 308.095 138.174C308.106 139.067 307.939 139.952 307.605 140.78C307.27 141.608 306.775 142.361 306.148 142.996C305.52 143.631 304.773 144.135 303.949 144.479C303.125 144.822 302.242 145 301.349 145L299.682 144.841H299.603C297.936 144.603 296.428 142.936 294.524 143.253C292.619 143.571 292.778 147.936 292.778 147.936V168.174H350.873V147.063C350.794 145.793 350.476 143.492 349.127 143.253C347.778 143.015 345.794 144.603 344.048 144.841L342.302 145C341.409 145 340.525 144.822 339.701 144.479C338.878 144.135 338.131 143.631 337.503 142.996C336.876 142.361 336.38 141.608 336.046 140.78C335.712 139.952 335.545 139.067 335.555 138.174C335.545 137.278 335.711 136.388 336.045 135.556C336.378 134.724 336.872 133.966 337.498 133.324C338.125 132.683 338.871 132.172 339.696 131.819C340.52 131.467 341.405 131.28 342.302 131.269V131.269Z" fill="url(#paint2_linear_406_2270)"/>
<path d="M342.381 191.349C342.945 191.35 343.506 191.431 344.048 191.587V191.587C345.794 191.746 347.222 193.413 349.127 193.095C351.032 192.778 350.873 189.524 350.873 188.651V168.175H409.048V227.381H389.841C388.571 227.302 386.349 226.984 386.111 225.556C385.873 224.127 387.46 222.143 387.698 220.397C387.791 219.846 387.844 219.289 387.857 218.73C387.857 216.941 387.146 215.225 385.881 213.96C384.616 212.695 382.9 211.984 381.111 211.984C379.322 211.984 377.606 212.695 376.341 213.96C375.076 215.225 374.365 216.941 374.365 218.73C374.366 219.294 374.446 219.855 374.603 220.397V220.397C374.841 222.143 376.428 223.651 376.111 225.556C375.794 227.46 373.651 227.302 372.381 227.381H350.873V207.857C350.873 206.905 350.714 203.651 349.127 203.333C347.54 203.016 345.794 204.683 344.048 204.921L342.381 205.08C340.687 204.897 339.121 204.095 337.983 202.828C336.845 201.561 336.215 199.918 336.215 198.214C336.215 196.511 336.845 194.868 337.983 193.601C339.121 192.334 340.687 191.532 342.381 191.349V191.349Z" fill="#F45662"/>
<path d="M359.444 250.317C358.88 250.306 358.317 250.386 357.778 250.555H357.698C356.032 250.793 354.524 252.38 352.698 252.063C350.873 251.745 350.952 249.603 350.873 248.333V227.38H371.746C372.619 227.38 375.873 227.222 376.111 225.555C376.349 223.888 374.841 222.142 374.603 220.396C374.441 219.829 374.361 219.241 374.365 218.65C374.262 217.697 374.361 216.734 374.654 215.821C374.948 214.909 375.431 214.069 376.071 213.356C376.711 212.643 377.495 212.073 378.37 211.682C379.245 211.292 380.192 211.09 381.151 211.09C382.109 211.09 383.057 211.292 383.932 211.682C384.807 212.073 385.59 212.643 386.23 213.356C386.87 214.069 387.353 214.909 387.647 215.821C387.941 216.734 388.04 217.697 387.937 218.65C387.941 219.241 387.861 219.829 387.698 220.396V220.396C387.46 222.142 385.794 223.65 386.191 225.555C386.587 227.46 389.683 227.38 390.556 227.38H409.048V286.587H390.317C389.048 286.666 386.825 287.063 386.587 288.412C386.349 289.761 387.937 291.825 388.095 293.571C388.257 294.138 388.338 294.726 388.333 295.317C388.333 297.106 387.623 298.822 386.358 300.087C385.092 301.352 383.376 302.063 381.587 302.063C379.798 302.063 378.082 301.352 376.817 300.087C375.552 298.822 374.841 297.106 374.841 295.317C374.837 294.726 374.917 294.138 375.079 293.571V293.571C375.238 291.825 376.905 290.317 376.587 288.412C376.27 286.507 374.127 286.666 372.857 286.587H350.873V267.063C350.952 265.793 351.349 262.539 352.698 262.301C354.048 262.063 356.032 263.65 357.698 263.888H357.778L359.444 264.047C360.337 264.047 361.221 263.87 362.045 263.526C362.868 263.182 363.615 262.678 364.243 262.043C364.87 261.408 365.366 260.655 365.7 259.828C366.034 259 366.201 258.114 366.19 257.222C366.201 256.325 366.035 255.436 365.701 254.604C365.368 253.771 364.874 253.013 364.248 252.372C363.621 251.731 362.875 251.219 362.05 250.867C361.226 250.514 360.341 250.327 359.444 250.317V250.317Z" fill="url(#paint3_linear_406_2270)"/>
<path d="M284.206 250.317C284.771 250.306 285.334 250.386 285.873 250.555H285.952C287.619 250.793 289.127 252.38 290.952 252.063C292.778 251.746 292.698 249.603 292.778 248.333V227.38H271.984C271.111 227.38 267.857 227.222 267.54 225.555C267.222 223.888 268.889 222.142 269.047 220.396C269.21 219.829 269.29 219.241 269.286 218.65C269.286 216.861 268.575 215.145 267.31 213.88C266.045 212.615 264.329 211.904 262.54 211.904C260.75 211.904 259.035 212.615 257.769 213.88C256.504 215.145 255.794 216.861 255.794 218.65C255.789 219.241 255.869 219.829 256.032 220.396C256.19 222.142 257.857 223.65 257.54 225.555C257.222 227.46 253.968 227.38 253.095 227.38H234.603V286.587H253.333C254.603 286.666 256.825 287.063 257.063 288.412C257.301 289.761 255.794 291.825 255.555 293.571C255.393 294.139 255.313 294.727 255.317 295.317C255.317 297.106 256.028 298.822 257.293 300.087C258.558 301.352 260.274 302.063 262.063 302.063C263.853 302.063 265.568 301.352 266.834 300.087C268.099 298.822 268.809 297.106 268.809 295.317C268.799 294.732 268.746 294.148 268.651 293.571C268.413 291.825 266.746 290.317 267.063 288.412C267.381 286.507 269.524 286.666 270.873 286.587H292.778V267.063C292.698 265.793 292.301 262.539 290.952 262.301C289.603 262.063 287.619 263.65 285.952 263.888H285.873L284.206 264.047C283.314 264.047 282.43 263.87 281.606 263.526C280.782 263.182 280.035 262.678 279.408 262.043C278.78 261.408 278.285 260.655 277.951 259.828C277.616 259 277.45 258.114 277.46 257.222C277.45 256.325 277.616 255.436 277.949 254.604C278.283 253.772 278.777 253.013 279.403 252.372C280.029 251.731 280.776 251.219 281.6 250.867C282.424 250.514 283.31 250.327 284.206 250.317V250.317Z" fill="#403880"/>
<path d="M284.206 250.317C284.796 250.313 285.384 250.393 285.952 250.555C287.619 250.714 289.127 252.38 291.031 252.063C292.936 251.745 292.698 249.603 292.778 248.253V227.38H313.651C314.603 227.38 317.698 227.142 317.936 225.555C318.174 223.968 316.666 222.142 316.428 220.396C316.266 219.829 316.186 219.241 316.19 218.65C316.087 217.697 316.186 216.734 316.48 215.821C316.774 214.909 317.256 214.069 317.896 213.356C318.537 212.643 319.32 212.073 320.195 211.682C321.07 211.292 322.018 211.09 322.976 211.09C323.934 211.09 324.882 211.292 325.757 211.682C326.632 212.073 327.415 212.643 328.055 213.356C328.696 214.069 329.178 214.909 329.472 215.821C329.766 216.734 329.865 217.697 329.762 218.65C329.766 219.241 329.686 219.829 329.524 220.396V220.396C329.285 222.142 327.698 223.65 328.016 225.555C328.333 227.46 330.714 227.301 331.984 227.38H350.873V247.936C350.952 249.126 351.27 251.666 352.698 251.984C354.127 252.301 356.032 250.634 357.698 250.396H357.778C358.319 250.239 358.88 250.159 359.444 250.158C361.275 250.158 363.032 250.886 364.327 252.18C365.622 253.475 366.349 255.232 366.349 257.063C366.349 258.894 365.622 260.65 364.327 261.945C363.032 263.24 361.275 263.968 359.444 263.968C358.88 263.967 358.319 263.886 357.778 263.73H357.698C356.032 263.491 354.603 261.825 352.698 262.142C350.793 262.46 350.952 265.952 350.873 267.222V286.587H332.143C330.873 286.666 328.651 287.063 328.412 288.412C328.174 289.761 329.762 291.825 330 293.571C330.096 294.148 330.149 294.732 330.158 295.317C330.158 297.106 329.448 298.822 328.183 300.087C326.917 301.352 325.202 302.063 323.412 302.063C321.623 302.063 319.907 301.352 318.642 300.087C317.377 298.822 316.666 297.106 316.666 295.317C316.662 294.726 316.742 294.138 316.905 293.571V293.571C317.143 291.825 318.73 290.317 318.412 288.412C318.095 286.507 315.952 286.666 314.682 286.587H292.778V267.063C292.698 265.793 292.301 262.539 291.031 262.301C289.762 262.063 287.619 263.65 285.952 263.888L284.206 264.047C282.513 263.865 280.946 263.063 279.808 261.796C278.67 260.528 278.041 258.885 278.041 257.182C278.041 255.479 278.67 253.835 279.808 252.568C280.946 251.301 282.513 250.499 284.206 250.317Z" fill="#FD835A"/>
<path d="M294.523 203.254C296.428 202.937 297.857 204.603 299.603 204.841C300.144 204.998 300.705 205.078 301.269 205.08C303.101 205.08 304.857 204.352 306.152 203.057C307.447 201.762 308.174 200.006 308.174 198.175C308.174 196.344 307.447 194.587 306.152 193.292C304.857 191.997 303.101 191.27 301.269 191.27L299.603 191.508C297.857 191.746 296.428 193.413 294.523 193.095C292.619 192.778 292.857 190.476 292.777 189.207V168.175H350.873V188.413C350.873 188.413 350.952 192.778 349.047 193.175C347.143 193.572 345.714 191.826 344.047 191.587H343.968C343.429 191.419 342.866 191.338 342.301 191.349C340.47 191.349 338.714 192.077 337.419 193.372C336.124 194.667 335.396 196.423 335.396 198.254C335.396 200.085 336.124 201.842 337.419 203.137C338.714 204.431 340.47 205.159 342.301 205.159C342.866 205.17 343.429 205.09 343.968 204.921H344.047C345.714 204.683 347.222 203.016 349.047 203.334C350.873 203.651 350.873 208.095 350.873 208.095V227.54H331.746C330.476 227.46 328.254 227.143 328.016 225.714C327.777 224.286 329.365 222.302 329.523 220.556C329.68 220.014 329.76 219.453 329.762 218.889C329.762 217.1 329.051 215.384 327.786 214.119C326.521 212.854 324.805 212.143 323.015 212.143C321.226 212.143 319.51 212.854 318.245 214.119C316.98 215.384 316.269 217.1 316.269 218.889C316.271 219.453 316.351 220.014 316.508 220.556C316.666 222.302 318.333 223.81 318.015 225.714C317.698 227.619 315.555 227.46 314.285 227.54H292.777V207.143C292.857 205.873 293.174 203.492 294.523 203.254Z" fill="#403880"/>
<path d="M301.27 322.619C300.706 322.618 300.145 322.537 299.603 322.381V322.381C297.857 322.222 296.428 320.555 294.524 320.873C292.619 321.19 292.778 324.444 292.778 325.317V345.793H234.603V286.587H253.333C254.603 286.666 256.825 287.063 257.063 288.412C257.301 289.762 255.714 291.825 255.476 293.571C255.38 294.148 255.327 294.732 255.317 295.317C255.317 297.106 256.028 298.822 257.293 300.087C258.558 301.352 260.274 302.063 262.063 302.063C263.853 302.063 265.568 301.352 266.834 300.087C268.099 298.822 268.809 297.106 268.809 295.317C268.814 294.727 268.733 294.139 268.571 293.571V293.571C268.413 291.825 266.746 290.317 267.063 288.412C267.381 286.508 269.524 286.666 270.794 286.587H292.778V306.19C292.778 307.063 292.936 310.396 294.524 310.635C296.111 310.873 297.857 309.285 299.603 309.127C300.145 308.97 300.706 308.89 301.27 308.889C302.963 309.071 304.53 309.873 305.668 311.14C306.806 312.407 307.435 314.05 307.435 315.754C307.435 317.457 306.806 319.1 305.668 320.367C304.53 321.634 302.963 322.436 301.27 322.619V322.619Z" fill="#F45662"/>
<path d="M342.381 322.619C342.945 322.618 343.506 322.537 344.048 322.381C345.794 322.222 347.222 320.555 349.127 320.873C351.032 321.19 350.873 324.444 350.873 325.317V345.793H409.048V286.587H390.317C389.048 286.666 386.825 287.063 386.667 288.412C386.508 289.762 387.936 291.825 388.175 293.571C388.337 294.139 388.417 294.727 388.413 295.317C388.516 296.27 388.417 297.234 388.123 298.146C387.829 299.058 387.347 299.898 386.706 300.611C386.066 301.324 385.283 301.895 384.408 302.285C383.533 302.676 382.585 302.877 381.627 302.877C380.669 302.877 379.721 302.676 378.846 302.285C377.971 301.895 377.188 301.324 376.547 300.611C375.907 299.898 375.425 299.058 375.131 298.146C374.837 297.234 374.738 296.27 374.841 295.317C374.837 294.727 374.917 294.139 375.079 293.571V293.571C375.317 291.825 376.905 290.317 376.587 288.412C376.27 286.508 374.127 286.666 372.857 286.587H350.873V306.19C350.873 307.063 350.714 310.396 349.127 310.635C347.54 310.873 345.794 309.285 344.048 309.127C343.506 308.97 342.945 308.89 342.381 308.889C340.687 309.071 339.121 309.873 337.983 311.14C336.845 312.407 336.215 314.05 336.215 315.754C336.215 317.457 336.845 319.1 337.983 320.367C339.121 321.634 340.687 322.436 342.381 322.619V322.619Z" fill="url(#paint4_linear_406_2270)"/>
<path d="M349.127 310.714C347.222 311.031 345.794 309.365 344.048 309.127C343.48 308.964 342.892 308.884 342.302 308.889C340.47 308.889 338.714 309.616 337.419 310.911C336.124 312.206 335.397 313.962 335.397 315.793C335.397 317.625 336.124 319.381 337.419 320.676C338.714 321.971 340.47 322.698 342.302 322.698C342.892 322.702 343.48 322.622 344.048 322.46V322.46C345.794 322.222 347.222 320.555 349.127 320.873C351.032 321.19 350.794 323.492 350.873 324.762V345.793H292.778V325.555C292.778 325.555 292.698 321.19 294.524 320.793C296.349 320.396 297.936 322.142 299.603 322.381H299.682C300.222 322.549 300.784 322.63 301.349 322.619C303.18 322.619 304.937 321.891 306.232 320.596C307.526 319.301 308.254 317.545 308.254 315.714C308.254 313.883 307.526 312.126 306.232 310.831C304.937 309.537 303.18 308.809 301.349 308.809C300.784 308.798 300.222 308.879 299.682 309.047H299.603C297.936 309.285 296.428 310.952 294.524 310.635C292.619 310.317 292.778 305.873 292.778 305.873V286.587H314.682C315.952 286.666 318.175 287.063 318.413 288.412C318.651 289.762 317.143 291.825 316.905 293.571C316.742 294.139 316.662 294.727 316.667 295.317C316.667 297.106 317.377 298.822 318.642 300.087C319.908 301.352 321.623 302.063 323.413 302.063C325.202 302.063 326.918 301.352 328.183 300.087C329.448 298.822 330.159 297.106 330.159 295.317C330.149 294.732 330.096 294.148 330 293.571C329.762 291.825 328.095 290.317 328.413 288.412C328.73 286.508 330.873 286.666 332.143 286.587H350.873V306.825C350.794 308.174 350.476 310.476 349.127 310.714Z" fill="url(#paint5_linear_406_2270)"/>
<path opacity="0.15" d="M350.873 108.968L256.508 345.793L276.508 345.873L372.301 108.968H350.873Z" fill="white"/>
<path opacity="0.15" d="M292.778 345.793L387.937 108.968H409.048L314.286 345.873L292.778 345.793Z" fill="white"/>
<g style="mix-blend-mode:multiply" opacity="0.2">
<g style="mix-blend-mode:multiply" opacity="0.2">
<path d="M387.619 145.476V165.079C387.619 165.952 387.46 169.206 385.793 169.523C384.127 169.841 382.46 168.174 380.793 167.936H380.714L379.047 167.777C378.155 167.777 377.271 167.954 376.447 168.298C375.624 168.642 374.876 169.146 374.249 169.781C373.621 170.416 373.126 171.169 372.792 171.997C372.457 172.824 372.291 173.71 372.301 174.603C372.291 175.499 372.457 176.389 372.79 177.221C373.124 178.053 373.618 178.811 374.244 179.452C374.871 180.093 375.617 180.605 376.441 180.958C377.265 181.31 378.151 181.497 379.047 181.507C379.612 181.512 380.173 181.432 380.714 181.269H380.793C382.46 181.11 383.889 179.444 385.793 179.761C387.698 180.079 387.619 183.333 387.619 184.206V204.682H419.206V145.476H387.619Z" fill="black"/>
</g>
<g style="mix-blend-mode:multiply" opacity="0.2">
<path d="M246.905 157.063L296.032 126.032L285.079 108.73C284.603 107.936 282.936 105.079 284.206 103.968C285.476 102.857 287.778 103.333 289.286 102.539H289.365C289.896 102.367 290.403 102.127 290.873 101.825C292.215 100.765 293.115 99.2446 293.4 97.5584C293.685 95.8722 293.335 94.1403 292.416 92.6979C291.497 91.2556 290.076 90.2055 288.427 89.751C286.779 89.2966 285.02 89.47 283.492 90.2379C283.016 90.512 282.588 90.8603 282.222 91.2696H282.143C280.873 92.3807 280.555 94.6029 278.73 95.3172C276.905 96.0315 275.317 93.2537 274.841 92.4601L264.365 75.9521L245.794 87.6982L231.032 97.0633L224.603 101.111V121.746L236.349 140.317L224.603 148.73V232.778H236.587V213.254C236.587 212.301 236.746 209.047 238.333 208.73C239.92 208.412 241.746 210.079 243.413 210.317C243.988 210.441 244.571 210.52 245.159 210.555C246.99 210.555 248.746 209.828 250.041 208.533C251.336 207.238 252.063 205.482 252.063 203.651C252.063 201.819 251.336 200.063 250.041 198.768C248.746 197.473 246.99 196.746 245.159 196.746C244.568 196.742 243.98 196.822 243.413 196.984V196.984C241.746 197.222 240.238 198.889 238.333 198.492C236.428 198.095 236.587 194.92 236.587 194.047V173.571H227.619L242.222 149.682L246.905 157.063Z" fill="black"/>
</g>
</g>
<path d="M285.08 86.2701C284.604 86.5443 284.176 86.8926 283.81 87.3018H283.73C282.461 88.4129 282.143 90.6352 280.318 91.3495C278.492 92.0637 276.905 89.286 276.429 88.4923L265.953 71.9844L247.381 83.7304L232.619 93.0955L216.826 103.016L248.492 153.095L297.619 122.064L286.667 104.762C286.191 103.969 284.524 101.111 285.794 100C287.064 98.8891 289.365 99.3653 290.873 98.5717H290.953C291.484 98.3993 291.991 98.1592 292.461 97.8574C293.802 96.7972 294.703 95.2768 294.988 93.5906C295.273 91.9044 294.922 90.1725 294.004 88.7301C293.085 87.2878 291.663 86.2377 290.015 85.7832C288.366 85.3288 286.608 85.5023 285.08 86.2701V86.2701Z" fill="#F45662"/>
<path d="M197.857 149.841L206.984 165.159L227.698 144.127C227.698 144.127 235.159 148.809 236.349 153.095C236.349 153.095 211.746 195.079 199.365 190.397C186.984 185.714 197.857 149.841 197.857 149.841Z" fill="#FFC861"/>
<g style="mix-blend-mode:multiply" opacity="0.2">
<path d="M248.572 131.826C248.595 131.746 248.6 131.661 248.586 131.579C248.573 131.496 248.541 131.418 248.492 131.35C248.318 131.076 248.071 130.856 247.778 130.715L248.572 128.016C248.599 127.942 248.598 127.861 248.569 127.787C248.54 127.714 248.484 127.654 248.413 127.619C248.063 127.299 247.616 127.103 247.143 127.064L247.381 126.111C247.408 126.071 247.426 126.025 247.432 125.977C247.439 125.929 247.434 125.88 247.419 125.834C247.403 125.789 247.378 125.747 247.344 125.712C247.31 125.678 247.268 125.651 247.223 125.635C245.715 124.762 245 125.556 245 125.556C244.284 125.288 243.495 125.288 242.778 125.556C241.746 126.111 239.842 132.223 239.842 132.223L236.826 134.683L243.016 144.445C244.365 142.858 245.556 141.35 245.953 140.794C246.349 140.238 248.254 133.175 248.572 131.826Z" fill="black"/>
</g>
<path d="M227.699 144.127L230.477 140.873C230.477 140.873 231.191 133.968 231.984 132.857C232.778 131.746 234.127 130.397 234.127 130.397L235.953 133.333L239.842 130.159C239.842 130.159 241.746 124.048 242.778 123.572C243.127 123.414 243.506 123.332 243.889 123.332C244.272 123.332 244.651 123.414 245 123.572C245 123.572 245.715 122.699 247.223 123.572C247.3 123.621 247.358 123.695 247.387 123.781C247.416 123.868 247.414 123.962 247.381 124.048L247.143 125.08C247.376 125.07 247.608 125.108 247.826 125.189C248.044 125.271 248.244 125.396 248.413 125.556C248.49 125.605 248.548 125.679 248.577 125.766C248.606 125.852 248.604 125.946 248.572 126.032L247.778 128.73C248.071 128.871 248.318 129.091 248.492 129.365C248.541 129.434 248.573 129.512 248.587 129.594C248.6 129.677 248.595 129.761 248.572 129.841C248.254 131.191 246.508 137.778 245.953 138.73C245.397 139.683 240.715 145.08 239.842 146.746L236.35 153.095L227.699 144.127Z" fill="#F49C80"/>
<path d="M387.619 138.413V157.937C387.619 158.889 387.461 162.143 385.794 162.461C384.127 162.778 382.461 161.112 380.794 160.873H380.715C380.174 160.711 379.612 160.631 379.048 160.635C377.217 160.635 375.46 161.363 374.165 162.658C372.871 163.953 372.143 165.709 372.143 167.54C372.143 169.371 372.871 171.128 374.165 172.422C375.46 173.717 377.217 174.445 379.048 174.445C379.612 174.449 380.174 174.369 380.715 174.207H380.794C382.461 173.969 383.889 172.302 385.794 172.699C387.699 173.096 387.619 176.27 387.619 177.143V197.619H445.715V138.413H387.619Z" fill="url(#paint6_linear_406_2270)"/>
<g style="mix-blend-mode:multiply" opacity="0.2">
<path d="M413.889 194.286C413.889 194.286 412.54 195.873 418.254 195.794C422.005 195.818 425.728 196.434 429.286 197.62H432.937L445.715 189.048V181.032L413.889 194.286Z" fill="black"/>
</g>
<path d="M468.492 91.27C468.492 91.27 475.159 114.762 477.54 115C479.413 114.994 481.269 114.644 483.016 113.968L485.318 121.587L503.413 119.365L496.905 103.334C496.905 103.334 497.46 83.8097 485.952 83.5716C482.655 83.4942 479.382 84.1439 476.364 85.4744C473.346 86.8049 470.659 88.7836 468.492 91.27Z" fill="#F49C80"/>
<path d="M477.54 115C479.413 114.994 481.269 114.644 483.016 113.968L482.381 110.873C481.985 113.254 477.54 115 477.54 115Z" fill="#CF7A62"/>
<path d="M483.413 101.587C483.413 101.587 484.762 101.746 485.397 99.4443L485.953 101.111C485.953 101.111 484.286 102.063 483.413 101.587Z" fill="#CF7A62"/>
<path d="M480.873 96.1114C480.873 96.1114 482.461 93.5717 484.048 93.8891C485.635 94.2066 486.111 96.9844 485.397 99.4447C484.683 101.905 485.318 102.064 485.794 102.619C486.877 103.66 488.016 104.64 489.207 105.556C489.207 105.556 495 105.476 496.905 103.334C496.905 103.334 499.048 89.5241 498.73 88.8098C498.413 88.0955 497.381 86.3495 497.381 86.3495C497.381 86.3495 498.969 85.8733 498.413 85.3177C497.745 84.7751 497.028 84.2967 496.27 83.8891C496.27 83.8891 495.08 80.9526 494.603 80.9526C494.127 80.9526 493.81 81.5082 493.81 81.5082C493.346 80.8012 492.725 80.2112 491.995 79.7844C491.266 79.3575 490.447 79.1054 489.603 79.0479C486.746 78.8098 479.683 79.3653 476.667 78.8098C473.651 78.2542 470.476 77.778 470.238 78.3336C470.107 78.8546 470.107 79.3999 470.238 79.9209C470.238 79.9209 465.08 79.286 464.683 80.4764C464.286 81.6669 465 84.6828 465 84.6828C465 84.6828 462.302 84.286 462.778 87.0637C463.254 89.8415 466.984 93.0955 470.635 92.6987L474.683 92.1431C474.683 92.1431 476.111 94.6828 478.016 94.4447C478.016 94.4447 479.524 98.4129 480.08 98.0161C480.635 97.6193 480.873 96.1114 480.873 96.1114Z" fill="#403880"/>
<path d="M482.461 96.9052C482.461 96.9052 482.937 95.9529 483.572 96.1116C484.207 96.2703 484.127 98.3338 483.175 98.81C482.223 99.2862 483.81 96.9052 483.096 97.064C482.381 97.2227 482.461 96.9052 482.461 96.9052Z" fill="#CF7A62"/>
<path d="M485.794 102.619C486.877 103.659 488.016 104.64 489.207 105.556C489.207 105.556 495 105.476 496.905 103.333C496.905 103.333 499.048 89.5239 498.731 88.8096C498.492 98.254 494.921 100.873 492.223 101.746C489.524 102.619 485.318 102.064 485.794 102.619Z" fill="#1E194F"/>
<path d="M515.397 356.27C515.397 356.27 509.048 356.508 507.857 357.936C506.667 359.365 501.032 359.444 499.921 358.333C499.683 360.317 489.365 365.476 485.635 366.746C481.905 368.016 481.191 374.603 481.349 375.159C481.508 375.714 511.111 374.682 516.429 374.524C516.53 374.524 516.629 374.504 516.722 374.463C516.814 374.422 516.897 374.362 516.964 374.287C517.032 374.212 517.082 374.124 517.113 374.028C517.144 373.932 517.154 373.83 517.143 373.73C517.13 373.094 517.156 372.458 517.222 371.825C517.222 370.635 515.397 356.27 515.397 356.27Z" fill="#403880"/>
<path d="M507.858 357.937C509.048 356.508 515.397 356.27 515.397 356.27V350.873L499.842 353.81V358.333C501.032 359.444 506.746 359.444 507.858 357.937Z" fill="#F49C80"/>
<path d="M481.349 375.159C481.508 375.635 511.111 374.683 516.429 374.524C516.53 374.525 516.629 374.504 516.722 374.463C516.814 374.422 516.897 374.363 516.964 374.288C517.032 374.213 517.082 374.124 517.113 374.028C517.144 373.932 517.154 373.831 517.143 373.73C517.13 373.094 517.156 372.458 517.222 371.826L492.302 372.54C492.064 366.191 493.492 363.175 493.492 363.175C490.939 364.504 488.316 365.696 485.635 366.746C481.905 367.937 481.191 374.603 481.349 375.159Z" fill="#DFE5ED"/>
<path d="M436.588 358.809C436.746 358.254 434.445 357.46 434.445 357.46C432.699 360.158 422.222 364.127 417.064 365.793C413.095 367.063 411.826 371.984 411.429 374.206C411.391 374.339 411.385 374.478 411.412 374.613C411.439 374.749 411.497 374.876 411.582 374.984C411.667 375.092 411.777 375.179 411.902 375.237C412.027 375.295 412.164 375.322 412.302 375.317H450.794C450.919 375.317 451.043 375.292 451.158 375.245C451.274 375.197 451.379 375.127 451.467 375.038C451.556 374.95 451.626 374.845 451.674 374.729C451.722 374.614 451.746 374.49 451.746 374.365V359.603C446.032 359.603 447.619 361.111 445.318 361.508C443.016 361.904 436.508 359.285 436.588 358.809Z" fill="#403880"/>
<path d="M435.873 353.65L434.445 357.46C434.445 357.46 436.746 358.254 436.588 358.809C436.429 359.365 442.937 361.904 445.318 361.507C447.699 361.111 446.032 359.603 451.746 359.603L453.096 354.603L435.873 353.65Z" fill="#F49C80"/>
<path d="M411.429 374.207C411.391 374.339 411.385 374.479 411.412 374.614C411.439 374.749 411.497 374.876 411.582 374.985C411.667 375.093 411.777 375.18 411.902 375.238C412.027 375.296 412.164 375.323 412.302 375.318H450.794C450.919 375.318 451.043 375.293 451.158 375.245C451.274 375.197 451.379 375.127 451.467 375.039C451.556 374.95 451.626 374.845 451.674 374.73C451.722 374.614 451.746 374.491 451.746 374.365V372.619H423.73L424.445 363.096C421.746 364.207 419.048 365.159 417.064 365.794C413.095 367.064 411.826 371.985 411.429 374.207Z" fill="#DFE5ED"/>
<path d="M512.302 195.794C512.302 195.794 516.27 211.588 513.81 221.905C511.349 232.223 512.778 270.873 513.413 274.921C514.048 278.969 517.857 288.889 517.064 302.143C516.27 315.397 515.397 350.873 515.397 350.873C515.397 350.873 505.794 358.492 499.841 353.81C499.841 353.81 492.222 276.984 491.746 271.191C491.27 265.397 488.016 244.683 488.016 244.683C488.016 244.683 476.111 273.254 474.841 281.905C473.571 290.556 469.921 311.27 463.651 325.08C459.497 334.682 455.971 344.544 453.095 354.604C453.095 354.604 441.508 360.08 435.873 353.651C435.873 353.651 450.952 278.969 453.73 268.73C456.508 258.492 470.476 200.08 470.476 200.08L512.302 195.794Z" fill="#403880"/>
<path d="M488.016 244.682L493.651 229.603L501.588 226.19C501.588 226.19 496.111 231.905 496.111 236.27C496.111 240.635 492.302 276.825 492.302 276.825L488.016 244.682Z" fill="#232059"/>
<path d="M433.413 181.032L427.937 185.873C427.937 185.873 421.111 186.667 419.921 186.985C418.73 187.302 414.921 193.016 413.968 193.81C413.016 194.604 416.032 195.715 417.222 194.366L413.81 197.62H411.746C411.746 197.62 413.968 199.762 414.683 199.683C415.397 199.604 418.254 198.731 418.254 198.731C418.254 198.731 419.762 200 420.635 199.683C421.508 199.366 422.302 198.175 423.175 198.572C424.048 198.969 425.714 197.937 426.27 198.175C426.776 198.361 427.323 198.407 427.854 198.309C428.384 198.211 428.879 197.973 429.286 197.62C430.318 196.588 439.286 190.397 439.286 190.397L433.413 181.032Z" fill="#F49C80"/>
<path d="M453.333 152.699L447.937 147.937C447.937 147.937 444.127 148.016 442.699 146.508C441.27 145 436.905 141.667 436.746 141.032C436.587 140.397 438.413 139.603 438.81 139.683C440.119 140.173 441.392 140.757 442.619 141.429L439.286 138.413H433.651C433.651 138.413 438.492 135.397 439.365 135.556L440.714 135.794C440.714 135.794 446.667 135.318 447.857 136.111C449.048 136.905 452.699 141.111 452.699 141.111L459.603 144.127L453.333 152.699Z" fill="#F49C80"/>
<path d="M453.333 152.698C453.333 152.698 452.461 145 457.54 143.254L475 150.635L468.492 165.159L453.333 152.698Z" fill="#094080"/>
<path d="M492.222 117.619C497.222 116.667 504.365 115.318 506.667 117.619C508.968 119.921 517.381 134.762 516.587 141.588C515.794 148.413 511.349 187.223 511.349 189.207C511.525 191.421 511.843 193.621 512.302 195.794C512.302 195.794 501.111 202.778 490.873 202.778C483.994 202.652 477.151 201.747 470.476 200.08L468.492 171.985L439.286 190.397C439.286 190.397 433.095 185.318 433.413 181.032L453.81 161.112C453.81 161.112 473.571 129.207 476.667 125.556C479.762 121.905 488.651 118.334 492.222 117.619Z" fill="#1150BE"/>
<path d="M468.492 171.984L490.556 145L469.365 183.413L468.492 171.984Z" fill="#094080"/>
<path d="M119.365 169.365C119.365 169.365 121.984 162.143 113.73 162.301C105.476 162.46 103.81 169.524 102.54 172.698C101.27 175.873 106.508 180.952 111.905 178.254C117.302 175.555 119.365 169.365 119.365 169.365Z" fill="#403880"/>
<path d="M109.603 163.016C104.842 165 103.572 170.158 102.54 172.698C101.508 175.238 106.508 180.952 111.905 178.254C112.631 177.896 113.322 177.47 113.968 176.984L112.699 176.825C98.5717 175.635 109.445 163.254 109.603 163.016Z" fill="#1E194F"/>
<path d="M120.794 170.079C120.794 170.079 118.572 167.936 115.397 170.793C112.222 173.65 110.635 177.777 111.984 179.127C113.333 180.476 120.794 170.079 120.794 170.079Z" fill="#F45662"/>
<path d="M137.619 174.524C137.619 174.524 140.317 174.921 137.302 179.286C134.286 183.651 135.952 174.445 137.619 174.524Z" fill="#1E194F"/>
<path d="M136.587 175C136.587 175 140.238 194.762 138.254 200.238C137.46 202.619 131.032 201.825 131.032 201.825L131.508 209.841L115.397 209.127C115.397 209.127 116.984 196.587 116.905 194.683C116.826 192.778 114.206 180.873 118.968 177.937C123.73 175 136.587 175 136.587 175Z" fill="#F49C80"/>
<path d="M123.413 191.111C123.413 191.111 124.842 191.905 125.556 191.588C125.19 191.903 124.742 192.109 124.265 192.179C123.787 192.249 123.298 192.182 122.858 191.984C121.429 191.27 123.413 191.111 123.413 191.111Z" fill="#CF7A62"/>
<path d="M125.556 185C125.556 185 123.016 183.016 121.27 184.682C119.524 186.349 121.032 190.238 124.127 191.429C124.127 191.429 121.587 196.667 116.905 195.635C116.905 195.635 110.159 186.984 110.635 182.381C111.111 177.778 116.27 171.032 120.397 169.603C124.524 168.175 126.032 168.254 128.889 168.73C131.746 169.206 138.492 171.032 138.095 172.936C137.837 174.078 137.409 175.175 136.825 176.19C136.825 176.19 136.032 176.27 135.635 178.095C135.238 179.921 134.444 184.127 128.175 185.079C128.175 185.079 127.619 187.619 127.143 187.698C126.667 187.778 125.556 185 125.556 185Z" fill="#403880"/>
<path d="M203.73 359.523C203.651 358.968 205.318 358.333 205.318 358.333C207.064 361.111 217.46 364.841 222.381 366.508C227.302 368.174 227.46 372.698 227.778 374.92C227.816 375.053 227.821 375.193 227.795 375.328C227.768 375.463 227.71 375.59 227.625 375.698C227.54 375.807 227.43 375.894 227.305 375.951C227.18 376.009 227.043 376.037 226.905 376.031H190.159C190.037 376.032 189.917 376.007 189.805 375.958C189.694 375.91 189.594 375.838 189.512 375.748C189.429 375.659 189.367 375.553 189.328 375.438C189.289 375.322 189.275 375.2 189.286 375.079L190.238 360.317C195.714 360.397 193.254 361.825 195.476 362.222C197.699 362.619 203.81 360 203.73 359.523Z" fill="#403880"/>
<path d="M205.397 357.142V358.333C205.397 358.333 203.73 358.968 203.809 359.523C203.889 360.079 197.778 362.619 195.555 362.222C193.333 361.825 195.794 360.396 190.317 360.317L190.714 355.158L205.397 357.142Z" fill="#F49C80"/>
<path d="M227.778 374.921C227.816 375.053 227.821 375.193 227.795 375.328C227.768 375.463 227.71 375.59 227.625 375.699C227.54 375.807 227.43 375.894 227.305 375.952C227.18 376.01 227.043 376.037 226.905 376.032H190.159C190.037 376.032 189.917 376.007 189.805 375.959C189.694 375.91 189.594 375.838 189.512 375.749C189.429 375.659 189.367 375.553 189.328 375.438C189.289 375.323 189.275 375.201 189.286 375.079V373.333H216.032L215.397 363.81C217.937 364.921 220.556 365.873 222.381 366.508C226.191 367.698 227.46 372.698 227.778 374.921Z" fill="#DFE5ED"/>
<path d="M89.5238 375.079H55.1588C55.1588 375.079 53.0159 373.809 53.3334 373.333C53.6508 372.857 77.9365 354.286 78.8095 354.762C79.6826 355.238 87.7778 361.111 91.6667 360.952C91.6667 360.952 94.0476 372.778 89.5238 375.079Z" fill="#403880"/>
<path d="M91.6667 360.953L90.5556 360.794C90.5556 360.794 90.1587 364.445 89.5238 364.921C88.8889 365.397 84.6032 371.588 85 372.143C85.3968 372.699 86.4286 373.969 86.2699 375.08H89.5238C94.0476 372.778 91.6667 360.953 91.6667 360.953Z" fill="#F49C80"/>
<path d="M80.4762 355.873L78.8095 354.762C77.9365 354.286 53.6508 372.857 53.3334 373.333C53.0159 373.809 55.1588 375.079 55.1588 375.079H69.6032L65.5556 367.381L80.4762 355.873Z" fill="#DFE5ED"/>
<path d="M146.111 266.032C146.111 266.032 203.572 275.794 207.143 277.46C210.714 279.127 215.397 288.651 215.238 294.206C215.08 299.762 205.397 357.143 205.397 357.143C205.397 357.143 193.413 357.857 190.635 355.159C190.635 355.159 188.73 318.016 189.603 312.936C190.476 307.857 192.064 302.143 192.064 302.143L148.254 301.508C148.254 301.508 155.159 354.444 153.651 357.302C152.143 360.159 145.794 366.032 141.667 366.984C137.54 367.937 89.5239 375.079 89.5239 375.079L91.6668 360.952C91.6668 360.952 121.191 350.238 124.365 349.762C126.893 349.229 129.364 348.459 131.746 347.46L116.191 305.238C116.191 305.238 105.953 295.476 109.365 277.46C112.778 259.444 146.111 266.032 146.111 266.032Z" fill="#1150BE"/>
<path d="M146.111 266.032C146.111 266.032 112.778 259.444 109.365 277.46C109.206 278.333 109.127 279.127 108.968 280C114.081 277.344 118.896 274.151 123.333 270.476C130 264.682 146.111 266.032 146.111 266.032Z" fill="#094080"/>
<path d="M148.254 301.508C148.254 301.508 140.556 301.27 139.127 300.794C137.699 300.318 133.175 297.302 133.175 297.302C133.175 297.302 137.54 304.207 139.365 306.508C141.191 308.81 151.905 332.143 151.905 332.143L148.254 301.508Z" fill="#094080"/>
<path d="M211.984 227.381L215.397 227.619L220.873 224.921C220.873 224.921 224.682 221.429 226.19 221.825C227.698 222.222 227.063 222.778 226.905 222.936C226.746 223.095 223.492 227.222 223.492 227.222H233.889C233.544 227.931 233.118 228.597 232.619 229.206C232.301 229.444 224.047 233.492 223.095 233.73L211.984 237.143V227.381Z" fill="#F49C80"/>
<path d="M114.444 207.619C117.301 207.064 128.413 205.953 135.635 208.81C142.857 211.667 174.206 225.953 174.206 225.953L211.984 227.381C211.984 227.381 213.651 234.921 211.984 237.143C211.984 237.143 179.682 240.953 170.555 240.08C161.428 239.207 146.428 234.603 146.428 234.603C146.428 234.603 142.063 245 142.54 246.826C143.016 248.651 146.111 266.032 146.111 266.032C146.111 266.032 132.143 264.048 123.254 269.683C114.365 275.318 109.365 277.461 109.365 277.461C109.365 277.461 111.984 257.222 111.27 254.207C110.555 251.191 107.301 228.492 107.619 221.27C107.936 214.048 111.667 208.175 114.444 207.619Z" fill="#403880"/>
<path d="M146.428 234.604L136.27 231.35L143.809 241.588L146.428 234.604Z" fill="#232059"/>
<path d="M243.571 191.19C242.981 191.186 242.393 191.266 241.825 191.428V191.428C240.159 191.666 238.651 193.333 236.746 192.936C234.841 192.539 235 189.365 235 188.492V168.016H176.825V227.222H196.032C197.301 227.143 199.524 226.825 199.762 225.397C200 223.968 198.413 221.984 198.174 220.317C198.082 219.766 198.029 219.209 198.016 218.651C198.016 216.861 198.726 215.146 199.992 213.88C201.257 212.615 202.973 211.905 204.762 211.905C206.551 211.905 208.267 212.615 209.532 213.88C210.797 215.146 211.508 216.861 211.508 218.651C211.507 219.214 211.427 219.776 211.27 220.317V220.317C211.111 221.984 209.444 223.492 209.762 225.397C210.079 227.301 212.222 227.143 213.492 227.222H235V207.698C235 206.746 235.159 203.492 236.746 203.174C238.333 202.857 240.159 204.524 241.825 204.762C242.4 204.885 242.984 204.965 243.571 205C245.402 205 247.159 204.272 248.454 202.977C249.749 201.682 250.476 199.926 250.476 198.095C250.476 196.264 249.749 194.507 248.454 193.213C247.159 191.918 245.402 191.19 243.571 191.19V191.19Z" fill="url(#paint7_linear_406_2270)"/>
<path d="M250.556 367.699C250.556 367.699 249.762 340.397 240.159 338.413C230.556 336.429 229.207 355.397 240.159 374.206L250.556 367.699Z" fill="url(#paint8_linear_406_2270)"/>
<path d="M245.556 370.953H245.397C240.873 352.54 238.889 345.794 238.889 345.715C238.889 345.635 238.889 345.556 238.969 345.477L239.207 345.635C239.207 345.635 241.191 352.461 245.715 370.873C245.794 370.953 245.715 371.032 245.635 371.032L245.556 370.953Z" fill="#231F20"/>
<path d="M253.889 374.207C253.889 374.207 268.492 360.318 263.016 353.651C257.54 346.984 243.809 358.572 240.159 374.207H253.889Z" fill="url(#paint9_linear_406_2270)"/>
<path d="M248.175 372.381H248.095C248.016 372.381 247.936 372.302 248.016 372.222C251.587 363.968 258.73 357.46 258.73 357.381H258.968C258.985 357.396 258.999 357.414 259.008 357.435C259.017 357.455 259.022 357.477 259.022 357.5C259.022 357.522 259.017 357.545 259.008 357.565C258.999 357.586 258.985 357.604 258.968 357.619C258.889 357.698 251.905 364.206 248.333 372.302L248.175 372.381Z" fill="#231F20"/>
<path d="M241.508 374.207C241.508 374.207 237.778 358.413 230.238 359.762C222.698 361.112 230.238 374.128 230.238 374.128L241.508 374.207Z" fill="url(#paint10_linear_406_2270)"/>
<path d="M234.127 372.223C234.048 372.223 233.968 372.223 233.968 372.143L231.429 362.937C231.429 362.858 231.429 362.778 231.587 362.778C231.746 362.778 231.746 362.778 231.746 362.858L234.286 372.064C234.286 372.106 234.269 372.147 234.239 372.176C234.21 372.206 234.169 372.223 234.127 372.223V372.223Z" fill="#231F20"/>
<defs>
<linearGradient id="paint0_linear_406_2270" x1="410.976" y1="378.182" x2="437.603" y2="255.19" gradientUnits="userSpaceOnUse">
<stop stop-color="#1252C3"/>
<stop offset="1" stop-color="#3F86FD"/>
</linearGradient>
<linearGradient id="paint1_linear_406_2270" x1="350.714" y1="362.317" x2="459.532" y2="362.317" gradientUnits="userSpaceOnUse">
<stop stop-color="#FF9C5C"/>
<stop offset="1" stop-color="#FFC861"/>
</linearGradient>
<linearGradient id="paint2_linear_406_2270" x1="433.492" y1="292.777" x2="316.103" y2="130.666" gradientUnits="userSpaceOnUse">
<stop stop-color="#F5995E"/>
<stop offset="0.29" stop-color="#F9AB60"/>
<stop offset="0.71" stop-color="#FDBF62"/>
<stop offset="1" stop-color="#FFC663"/>
</linearGradient>
<linearGradient id="paint3_linear_406_2270" x1="415.373" y1="305.896" x2="297.984" y2="143.785" gradientUnits="userSpaceOnUse">
<stop stop-color="#F5995E"/>
<stop offset="0.29" stop-color="#F9AB60"/>
<stop offset="0.71" stop-color="#FDBF62"/>
<stop offset="1" stop-color="#FFC663"/>
</linearGradient>
<linearGradient id="paint4_linear_406_2270" x1="428.143" y1="379.968" x2="367.587" y2="299.841" gradientUnits="userSpaceOnUse">
<stop stop-color="#1252C3"/>
<stop offset="1" stop-color="#3F86FD"/>
</linearGradient>
<linearGradient id="paint5_linear_406_2270" x1="349.095" y1="353.889" x2="231.706" y2="191.777" gradientUnits="userSpaceOnUse">
<stop stop-color="#F5995E"/>
<stop offset="0.29" stop-color="#F9AB60"/>
<stop offset="0.71" stop-color="#FDBF62"/>
<stop offset="1" stop-color="#FFC663"/>
</linearGradient>
<linearGradient id="paint6_linear_406_2270" x1="466.786" y1="226.112" x2="402.5" y2="151.58" gradientUnits="userSpaceOnUse">
<stop stop-color="#1252C3"/>
<stop offset="1" stop-color="#3F86FD"/>
</linearGradient>
<linearGradient id="paint7_linear_406_2270" x1="180.778" y1="273.492" x2="219.905" y2="166.349" gradientUnits="userSpaceOnUse">
<stop stop-color="#1252C3"/>
<stop offset="1" stop-color="#3F86FD"/>
</linearGradient>
<linearGradient id="paint8_linear_406_2270" x1="246.349" y1="373.786" x2="238.738" y2="346.699" gradientUnits="userSpaceOnUse">
<stop stop-color="#F79F34"/>
<stop offset="1" stop-color="#FFC446"/>
</linearGradient>
<linearGradient id="paint9_linear_406_2270" x1="247.873" y1="374.778" x2="257.325" y2="355.191" gradientUnits="userSpaceOnUse">
<stop stop-color="#FBB62C"/>
<stop offset="1" stop-color="#FFCE44"/>
</linearGradient>
<linearGradient id="paint10_linear_406_2270" x1="235.833" y1="376.009" x2="232.468" y2="363.437" gradientUnits="userSpaceOnUse">
<stop stop-color="#FBB62C"/>
<stop offset="1" stop-color="#FFCE44"/>
</linearGradient>
</defs>
</svg>
