<svg width="572" height="400" fill="none" xmlns="http://www.w3.org/2000/svg"><path d="M208.254 355.872s.873 18.73 0 19.524c-.873.794-25.635.794-25.635 0s8.889-19.524 8.889-19.524h16.746z" fill="#403880"/><path d="M208.254 375.395c.238-.158.318-1.666.318-3.73 0-2.063-3.413-8.095-10.874-7.936-9.206.158-12.936 8.809-12.936 8.809h-.952a24.84 24.84 0 00-1.191 2.857c0 .794 24.762.794 25.635 0z" fill="#E0E6EE"/><path d="M201.429 203.016s-2.699 63.254-4.524 73.016c-1.826 9.761-4.207 16.507-5 28.73-.794 12.222-.397 51.111-.397 51.111s10.079 4.286 16.746 0c0 0 9.286-66.349 10.714-75.556 1.429-9.206 7.937-34.603 7.937-34.603v-44.762l-25.476 2.064z" fill="#403882"/><path d="M208.254 355.873s9.286-66.349 10.714-75.556c1.429-9.206 7.937-34.603 7.937-34.603v-44.762l-25.477 2.064s-.079 2.301-.317 6.031c4.127 10.794 16.429 44.445 15.238 54.445-1.508 12.063-1.27 27.381-5.238 28.809-3.968 1.429-5.476 2.858-1.984 8.254 3.492 5.397-4.445 56.984-17.619 55.318 0 0 10.079 4.286 16.746 0z" fill="#232059"/><path d="M190.397 121.824s-17.222 17.858-14.921 27.223c2.302 9.365 16.429 38.809 23.889 41.349l2.064 12.619s20.714 5.635 36.587-2.064c15.873-7.698-13.413-83.015-13.413-83.015l-17.857-.874-16.349 4.762z" fill="#FFC861"/><path d="M220.794 126.348c4.682 3.889-2.46 23.095-7.302 26.746-4.841 3.651-15.635-3.254-15.635-3.254L205 177.142l34.842-10.476c-5.159-22.937-15.239-48.73-15.239-48.73l-17.857-.874-1.111.318 1.349 2.063s9.207 3.016 13.81 6.905z" fill="#D17E2C"/><path d="M199.365 190.395l2.064 12.62s15.555 4.206 30.079.317v-44.683l-32.143 31.746z" fill="#D17E2C"/><path d="M208.889 88.968s3.413-3.095 1.349-3.572c-2.063-.476-2.143 1.588-1.349 3.572z" fill="#1E194F"/><path d="M208.572 85.397s3.571 17.46 3.571 24.365c.079 3.254-6.111 3.412-6.111 3.412s.556 2.937.873 4.762c.318 1.826.318 6.349-4.762 7.143-5.079.794-11.746-3.254-11.746-3.254s-1.111-13.571-1.587-15.079c-.476-1.508-5.397-14.127.873-17.46 6.27-3.334 18.889-3.89 18.889-3.89z" fill="#F49C80"/><path d="M192.857 102.46a1.502 1.502 0 001.667.317 1.665 1.665 0 01-1.826.715c-1.111-.476 0-1.032 0-1.032m5.239 4.444s1.031 8.413 1.428 8.969c.397.555 4.921 3.254 7.619 3.571a8.64 8.64 0 00-.079-1.508 439.88 439.88 0 00-.873-4.762h.635c-1.984-3.333-5.318-6.667-8.73-6.27z" fill="#CF7A62"/><path d="M197.222 95s3.492 10.952 5.238 10.317c1.746-.635 5.556-5 8.81-4.286 1.508.318 4.365 10.714 3.492 11.984-.873 1.27-9.683 4.286-15.079.715l-4.286-16.826s-2.381-2.857-4.445-1.508c-2.063 1.35.318 5.873 1.905 7.064 0 0 .159 5-3.73 6.111 0 0-6.984-11.667-7.143-14.127 0 0-1.032.952-1.19-.794a5 5 0 01.793-3.254s.397-3.968 1.032-4.047c.635-.08.794.714.794.714s6.746-7.62 10.555-8.254c3.81-.635 1.032 1.19 1.032 1.19s7.778-4.682 15.952-3.333c4.683.794-.476 10-2.936 10.714-2.46.715-9.921 2.46-9.921 2.46s2.381 1.112-.873 5.16z" fill="#403880"/><path d="M187.143 96.824c-3.571 3.096-5.159-2.38-5.159-2.38.159 2.46 7.143 14.126 7.143 14.126 3.889-1.111 3.73-6.111 3.73-6.111s-2.777-3.492-2.698-5.397c-2.302 2.46-3.016-.238-3.016-.238z" fill="#1E194F"/><path d="M464.365 292.143c-1.191 30.079-20.079 78.333-38.333 72.698-4.842-1.508 1.349-23.889 18.968-43.571 12.778-14.286 16.19-24.762 19.365-29.127z" fill="#FD835A"/><path d="M410.397 361.111c.158 1.904-26.111 4.285-38.254-15.556-9.524-15.476-15.397-16.825-20.476-19.603 34.523-.556 58.492 30.159 58.73 35.159z" fill="#201851"/><path d="M401.032 320.238c.158-1.588-1.508-13.175.317-22.302 3.572 3.492 16.905 48.968 16.508 56.349-.159 2.699 1.429 10.159-4.286 11.508-5.714 1.349-17.063-13.095-21.031-23.095-13.016-33.095-3.651-31.667-14.445-50.476 4.286 3.095 20.715 22.143 22.937 28.016z" fill="#413B89"/><path d="M394.127 307.46c2.143 3.175 3.175 6.905 5.318 10 2.143 3.095 1.508 5.635 2.777 8.016 1.27 2.381 3.572 3.968 3.731 7.54.079 1.746-.397 3.095-.238 4.682.158 1.587 1.031 3.651 1.031 5.635s-.397 2.857-.476 4.206c-.079 3.81 5.952 10 1.111 13.492.238 3.175-.317 4.366-1.984 4.366-3.571.158-3.413-3.493-4.127-5.477-.714-1.984-3.413-3.809-3.651-6.904-.079-1.667.873-3.572.635-5-.238-1.429-1.111-1.746-1.746-2.699-1.508-2.381-1.587-5.159-1.428-7.936.158-1.588 1.428-4.127 1.19-5.635-.397-2.778-3.175-3.492-2.381-7.461.318-1.269 1.349-2.698 1.349-3.968s-.873-2.063-1.349-3.174c-1.111-3.175.159-6.429.238-9.683z" fill="#FD835A"/><path d="M407.54 353.492c3.412-.08 7.698 3.095 9.92 6.666 0-2.222-.159-4.444-.317-6.666-2.381-2.223-6.508-1.588-8.889-4.445-2.381-2.857 0-6.349 3.571-4.524 1.746.873 3.81 3.73 5.159 6.191-.159-1.587-.317-3.81-.476-5.397l-.238-4.127c-2.778-1.667-8.651-1.587-9.286-6.111-.397-3.175 2.778-5.397 5.317-2.778a21.658 21.658 0 013.81 5.714c-.079-2.539-.079-5.079.079-7.619-3.016-2.381-9.92-1.666-11.27-6.111-1.349-4.444 3.572-4.524 6.191-2.698 2.619 1.825 3.889 4.92 5.079 7.857l.477-5.714c-2.223-2.302-6.985-3.81-7.937-7.619-.952-3.81 2.064-7.699 5.556-3.889 1.825 1.905 2.619 5 2.936 7.936.318-2.063.794-4.127 1.27-6.19A35.757 35.757 0 00416.27 310c-1.111-1.667-2.778-3.254-2.619-5.318.317-3.492 3.095-1.667 4.285.635a14.117 14.117 0 011.27 5.873c.635-2.302 1.588-5.714 2.381-7.937-1.19-3.65-10.238-10.634-3.651-11.111 3.096-.238 4.286 5.873 4.365 9.524l1.747-4.206c-1.032-2.937-6.35-12.143-1.826-12.699 4.524-.555 3.492 5.556 3.175 8.492.007.504-.02 1.008-.08 1.508.873-1.825 1.746-3.65 2.699-5.476a16.65 16.65 0 01-1.984-4.127c-.318-1.032-1.35-5.793 1.587-4.127 1.111.556 1.587 3.969 1.508 6.429.714-1.27 1.428-2.54 2.222-3.73 4.365-9.207.079-20.873 7.143-19.683 8.333 1.27 5.952 8.175 3.968 10.794a33.406 33.406 0 01-9.286 7.936c-.793 1.27-3.809 7.223-4.206 8.016 3.333-4.127 10.08-12.301 12.778-7.778 2.698 4.524-9.365 6.985-13.413 9.127-1.111 2.302-3.571 8.334-3.809 8.969 1.508-1.746 2.777-4.286 4.841-5.477 2.063-1.19 6.111-1.984 6.111.715 0 2.698-5.476 4.285-8.175 5-2.698.714-2.698 1.428-3.253 1.27a89.829 89.829 0 00-2.858 9.285c2.143-3.809 8.175-11.904 11.191-7.539 3.809 5.635-7.54 5.793-11.349 8.412a84.264 84.264 0 00-1.826 9.762v.159c1.27-3.016 2.302-6.032 5-8.413 2.699-2.381 6.746-3.095 6.826 1.826.079 3.571-6.27 4.285-9.127 6.031-1.35.794-2.223 1.826-2.937 2.223a90.835 90.835 0 00-.476 9.285c5.079-4.444 8.809-17.222 13.333-11.428 4.524 5.793-8.174 6.27-13.333 12.539 0 2.778.159 5.635.317 8.492a34.18 34.18 0 012.778-6.587c.794-1.587 5.238-6.27 7.302-2.778 2.063 3.492-4.365 6.35-6.27 7.461a8.966 8.966 0 00-3.651 3.889c0 .555.635 6.984.794 9.682 1.27-4.682 11.905-22.063 16.27-12.619 2.857 6.111-10.238 7.619-13.175 9.762a6.827 6.827 0 00-3.016 4.127c.08 1.587.159 3.095.159 4.683 2.54-4.366 8.73-12.858 12.063-6.508 3.334 6.349-6.587 5.555-8.571 6.666-1.984 1.111-3.651 1.667-3.571 4.048a44.282 44.282 0 01-.635 5.555c-.239 1.27-2.302.794-2.143-.476.238-2.539.397-5.158.397-7.698-3.096-1.746-9.762-1.746-11.826-3.333-2.063-1.588-1.905-5.477 1.826-5.635z" fill="url(#paint0_linear_406_2270)"/><path d="M459.524 373.016s-3.81-11.191-12.619-7.619c0 0-4.365-14.207-15.159-3.096s-7.46-12.698-18.175-10.555c-10.714 2.143-7.539 10.317-7.539 10.317s-10.238-5.317-8.016 3.81c0 0-24.127-11.984-24.524-1.826 0 0-16.19-3.016-13.413 5.397 0 0-9.365-2.381-9.365 3.572h108.81z" fill="url(#paint1_linear_406_2270)"/><path d="M402.857 44.762H240.952c-9.047 0-16.349 6.666-16.349 15v298.651c0 8.253 7.302 14.92 16.349 14.92h161.905c8.968 0 16.349-6.667 16.349-14.92V59.762c0-8.334-7.381-15-16.349-15zm6.111 304.365c0 7.857-6.587 14.206-14.682 14.206H249.524c-8.175 0-14.683-6.349-14.683-14.206V71.032c0-16.032 6.508-16.746 14.683-16.746h28.968c1.667 0 3.095 1.666 3.095 3.809v.952c0 4.921 3.016 5 6.746 5h67.064c3.809 0 6.825-.079 6.825-5v-.952c0-2.143 1.349-3.81 3.095-3.81h28.969c8.095 0 14.682 2.064 14.682 16.747v278.095z" fill="#201851"/><path d="M408.968 71.031v278.095c0 7.858-6.587 14.207-14.682 14.207H249.524c-8.175 0-14.683-6.349-14.683-14.207V71.031c0-16.032 6.508-16.746 14.683-16.746h28.968c1.667 0 3.095 1.667 3.095 3.81v.952c0 4.92 3.016 5 6.746 5h67.064c3.809 0 6.825-.08 6.825-5v-.952c0-2.143 1.349-3.81 3.096-3.81h28.968c8.095 0 14.682 2.064 14.682 16.746z" fill="#E3E3E3"/><path d="M332.857 57.778h-16.349a1.033 1.033 0 01-1.032-1.032.956.956 0 011.032-.952h16.349a.95.95 0 011.032.952 1.034 1.034 0 01-1.032 1.032z" fill="#fff"/><path d="M377.46 96.904l-105.476-.238a9.601 9.601 0 01-9.524-9.603v-3.571a9.602 9.602 0 019.603-9.524l105.476.238a9.684 9.684 0 019.524 9.603v3.572a9.606 9.606 0 01-9.603 9.523z" fill="#F5F5F5"/><path d="M377.46 96.904h.714a9.05 9.05 0 002.064-.397A9.685 9.685 0 00383.254 95a10.48 10.48 0 002.857-3.651 9.13 9.13 0 00.714-2.62c.107-1 .134-2.01.08-3.015a23.477 23.477 0 00-.08-3.333 9.99 9.99 0 00-1.27-3.334 9.126 9.126 0 00-6.269-4.365 25.4 25.4 0 00-4.286-.238h-4.603l-98.334-.159a9.206 9.206 0 00-6.349 2.46 9.605 9.605 0 00-3.016 6.032c-.079 1.19 0 2.381 0 3.492a9.847 9.847 0 00.318 3.413 9.201 9.201 0 003.889 5.238 9.441 9.441 0 003.016 1.35c1.072.2 2.163.28 3.254.237h19.365l44.206.239h-63.571a16.5 16.5 0 01-3.413-.239 10.078 10.078 0 01-3.175-1.349 9.446 9.446 0 01-3.968-5.555 10.484 10.484 0 01-.397-3.492c0-1.19 0-2.302.079-3.492a9.524 9.524 0 013.096-6.35 9.762 9.762 0 016.666-2.619l98.334.318H375a26.77 26.77 0 014.365.238 9.682 9.682 0 016.429 4.524 11.902 11.902 0 011.269 3.412 24.77 24.77 0 01.08 3.413 18.867 18.867 0 01-.08 3.016 12.033 12.033 0 01-.793 2.698 9.288 9.288 0 01-2.937 3.651 9.21 9.21 0 01-3.095 1.508 9.05 9.05 0 01-2.064.397l-.714.08z" fill="#201851"/><path d="M379.444 85c-.079 0-.079-.317-.238-.952a3.571 3.571 0 00-1.508-2.143 3.888 3.888 0 00-6.27 3.095 3.972 3.972 0 002.54 3.651 3.97 3.97 0 003.73-.476 4.597 4.597 0 001.508-2.143c.159-.635.159-1.032.238-1.032v.318c.006.24-.021.48-.079.714a3.581 3.581 0 01-1.508 2.381 4.128 4.128 0 01-4.048.635 4.285 4.285 0 01.08-8.095 4.205 4.205 0 014.047.714 3.495 3.495 0 011.429 2.38c.058.234.085.475.079.715V85z" fill="#201851"/><path d="M381.667 92.142a9.121 9.121 0 01-1.985-1.825c-1.031-1.111-1.746-2.063-1.666-2.222A10.592 10.592 0 01380 89.999a7.16 7.16 0 011.667 2.143zM273.571 60.397l-.317.317-.159.159a3.576 3.576 0 00-2.619-1.111 3.888 3.888 0 00-2.619 1.11.158.158 0 00-.047-.111.157.157 0 00-.112-.047l-.238-.317.397-.318.793-.476 1.032-.397h1.349c.332.005.658.086.953.238.233.057.45.165.635.318l.635.396.317.239z" fill="#201851"/><path d="M268.73 61.666l-.397-.396a2.857 2.857 0 011.746-.873 2.938 2.938 0 012.619.873l-.476.396a2.302 2.302 0 00-1.746-.714 2.457 2.457 0 00-1.746.715z" fill="#201851"/><path d="M271.825 62.143l-.397.396a1.265 1.265 0 00-.952-.317 1.193 1.193 0 00-.873.317c-.159-.158-.318-.238-.397-.396a1.825 1.825 0 012.619 0z" fill="#201851"/><path d="M270.873 62.936a.398.398 0 01-.397.397.4.4 0 01-.397-.397.398.398 0 01.678-.28.398.398 0 01.116.28zm-23.81-1.666a1.113 1.113 0 011.112-1.112 1.11 1.11 0 11-1.112 1.111zm3.492 0a1.11 1.11 0 011.111-1.112 1.11 1.11 0 11-1.111 1.111zm3.572 0a1.109 1.109 0 01.686-1.027 1.11 1.11 0 011.536 1.026 1.194 1.194 0 01-1.111 1.111 1.11 1.11 0 01-1.111-1.11zm3.492 0a1.112 1.112 0 011.111-1.112 1.11 1.11 0 11-1.111 1.111zm3.492 0a1.19 1.19 0 011.19-1.112 1.114 1.114 0 011.027.686c.056.135.084.28.084.425a1.189 1.189 0 01-1.111 1.111 1.193 1.193 0 01-1.19-1.11zm135.714 2.38h-9.047v-4.206h9.047v4.207zm-8.571-.396h8.175V59.92h-8.175v3.334z" fill="#201851"/><path d="M394.365 60.158h-5.873v2.786h5.873v-2.786zm3.333.318h-.793v2.261h.793v-2.261z" fill="#201851"/><path d="M409.047 345.793H234.603l.238-236.825h174.206v236.825z" fill="#BDC2C6"/><path d="M342.302 131.269a6.213 6.213 0 011.746.238c1.746.159 3.174 1.826 5.079 1.508 1.905-.317 1.667-2.539 1.746-3.809v-20.238h-58.095v19.365s-.08 4.365 1.746 4.682c1.825.318 3.412-1.349 5.079-1.508h.079a5.263 5.263 0 011.667-.238 6.83 6.83 0 016.746 6.905 6.742 6.742 0 01-4.146 6.305 6.765 6.765 0 01-2.6.521l-1.667-.159h-.079c-1.667-.238-3.175-1.905-5.079-1.588-1.905.318-1.746 4.683-1.746 4.683v20.238h58.095v-21.111c-.079-1.27-.397-3.571-1.746-3.81-1.349-.238-3.333 1.35-5.079 1.588l-1.746.159a6.756 6.756 0 01-6.256-4.22 6.761 6.761 0 01-.491-2.606 6.824 6.824 0 011.943-4.85 6.834 6.834 0 014.804-2.055z" fill="url(#paint2_linear_406_2270)"/><path d="M342.381 191.349a6.067 6.067 0 011.667.238c1.746.159 3.174 1.826 5.079 1.508 1.905-.317 1.746-3.571 1.746-4.444v-20.476h58.175v59.206h-19.207c-1.27-.079-3.492-.397-3.73-1.825-.238-1.429 1.349-3.413 1.587-5.159.093-.551.146-1.108.159-1.667a6.746 6.746 0 00-13.492 0c.001.564.081 1.125.238 1.667.238 1.746 1.825 3.254 1.508 5.159-.317 1.904-2.46 1.746-3.73 1.825h-21.508v-19.524c0-.952-.159-4.206-1.746-4.524-1.587-.317-3.333 1.35-5.079 1.588l-1.667.159a6.908 6.908 0 01-6.166-6.866 6.904 6.904 0 016.166-6.865z" fill="#F45662"/><path d="M359.444 250.317a5.23 5.23 0 00-1.666.238h-.08c-1.666.238-3.174 1.825-5 1.508-1.825-.318-1.746-2.46-1.825-3.73V227.38h20.873c.873 0 4.127-.158 4.365-1.825.238-1.667-1.27-3.413-1.508-5.159a6.203 6.203 0 01-.238-1.746 6.826 6.826 0 1113.572 0 6.168 6.168 0 01-.239 1.746c-.238 1.746-1.904 3.254-1.507 5.159.396 1.905 3.492 1.825 4.365 1.825h18.492v59.207h-18.731c-1.269.079-3.492.476-3.73 1.825s1.35 3.413 1.508 5.159c.162.567.243 1.155.238 1.746a6.745 6.745 0 11-13.492 0 6.203 6.203 0 01.238-1.746c.159-1.746 1.826-3.254 1.508-5.159-.317-1.905-2.46-1.746-3.73-1.825h-21.984v-19.524c.079-1.27.476-4.524 1.825-4.762 1.35-.238 3.334 1.349 5 1.587h.08l1.666.159a6.751 6.751 0 006.256-4.219 6.745 6.745 0 00.49-2.606 6.815 6.815 0 00-4.14-6.355 6.809 6.809 0 00-2.606-.55z" fill="url(#paint3_linear_406_2270)"/><path d="M284.206 250.317a5.231 5.231 0 011.667.238h.079c1.667.238 3.175 1.825 5 1.508 1.826-.317 1.746-2.46 1.826-3.73V227.38h-20.794c-.873 0-4.127-.158-4.444-1.825-.318-1.667 1.349-3.413 1.507-5.159a6.168 6.168 0 00.239-1.746 6.746 6.746 0 00-13.492 0 6.131 6.131 0 00.238 1.746c.158 1.746 1.825 3.254 1.508 5.159-.318 1.905-3.572 1.825-4.445 1.825h-18.492v59.207h18.73c1.27.079 3.492.476 3.73 1.825s-1.269 3.413-1.508 5.159a6.213 6.213 0 00-.238 1.746 6.746 6.746 0 0013.492 0 12.016 12.016 0 00-.158-1.746c-.238-1.746-1.905-3.254-1.588-5.159.318-1.905 2.461-1.746 3.81-1.825h21.905v-19.524c-.08-1.27-.477-4.524-1.826-4.762-1.349-.238-3.333 1.349-5 1.587h-.079l-1.667.159a6.75 6.75 0 01-6.255-4.219 6.746 6.746 0 01-.491-2.606 6.838 6.838 0 011.943-4.85 6.814 6.814 0 014.803-2.055z" fill="#403880"/><path d="M284.206 250.317a6.213 6.213 0 011.746.238c1.667.159 3.175 1.825 5.079 1.508 1.905-.318 1.667-2.46 1.747-3.81V227.38h20.873c.952 0 4.047-.238 4.285-1.825.238-1.587-1.27-3.413-1.508-5.159a6.203 6.203 0 01-.238-1.746 6.831 6.831 0 014.005-6.968 6.833 6.833 0 015.562 0 6.834 6.834 0 013.715 4.139c.294.913.393 1.876.29 2.829a6.203 6.203 0 01-.238 1.746c-.239 1.746-1.826 3.254-1.508 5.159.317 1.905 2.698 1.746 3.968 1.825h18.889v20.556c.079 1.19.397 3.73 1.825 4.048 1.429.317 3.334-1.35 5-1.588h.08a6.017 6.017 0 011.666-.238 6.906 6.906 0 010 13.81 6.054 6.054 0 01-1.666-.238h-.08c-1.666-.239-3.095-1.905-5-1.588-1.905.318-1.746 3.81-1.825 5.08v19.365h-18.73c-1.27.079-3.492.476-3.731 1.825-.238 1.349 1.35 3.413 1.588 5.159.096.577.149 1.161.158 1.746a6.745 6.745 0 11-13.492 0 6.168 6.168 0 01.239-1.746c.238-1.746 1.825-3.254 1.507-5.159-.317-1.905-2.46-1.746-3.73-1.825h-21.904v-19.524c-.08-1.27-.477-4.524-1.747-4.762-1.269-.238-3.412 1.349-5.079 1.587l-1.746.159a6.905 6.905 0 010-13.73z" fill="#FD835A"/><path d="M294.523 203.254c1.905-.317 3.334 1.349 5.08 1.587a6.055 6.055 0 001.666.239 6.905 6.905 0 000-13.81l-1.666.238c-1.746.238-3.175 1.905-5.08 1.587-1.904-.317-1.666-2.619-1.746-3.888v-21.032h58.096v20.238s.079 4.365-1.826 4.762c-1.904.397-3.333-1.349-5-1.588h-.079a5.26 5.26 0 00-1.667-.238 6.905 6.905 0 000 13.81 5.231 5.231 0 001.667-.238h.079c1.667-.238 3.175-1.905 5-1.587 1.826.317 1.826 4.761 1.826 4.761v19.445h-19.127c-1.27-.08-3.492-.397-3.73-1.826-.239-1.428 1.349-3.412 1.507-5.158a6.068 6.068 0 00.239-1.667 6.746 6.746 0 00-13.493 0c.002.564.082 1.125.239 1.667.158 1.746 1.825 3.254 1.507 5.158-.317 1.905-2.46 1.746-3.73 1.826h-21.508v-20.397c.08-1.27.397-3.651 1.746-3.889z" fill="#403880"/><path d="M301.27 322.619a6.067 6.067 0 01-1.667-.238c-1.746-.159-3.175-1.826-5.079-1.508-1.905.317-1.746 3.571-1.746 4.444v20.476h-58.175v-59.206h18.73c1.27.079 3.492.476 3.73 1.825.238 1.35-1.349 3.413-1.587 5.159a11.879 11.879 0 00-.159 1.746 6.746 6.746 0 0013.492 0 6.176 6.176 0 00-.238-1.746c-.158-1.746-1.825-3.254-1.508-5.159.318-1.904 2.461-1.746 3.731-1.825h21.984v19.603c0 .873.158 4.206 1.746 4.445 1.587.238 3.333-1.35 5.079-1.508a6.029 6.029 0 011.667-.238 6.905 6.905 0 010 13.73z" fill="#F45662"/><path d="M342.381 322.619a6.067 6.067 0 001.667-.238c1.746-.159 3.174-1.826 5.079-1.508 1.905.317 1.746 3.571 1.746 4.444v20.476h58.175v-59.206h-18.731c-1.269.079-3.492.476-3.65 1.825-.159 1.35 1.269 3.413 1.508 5.159.162.568.242 1.156.238 1.746a6.83 6.83 0 01-4.005 6.968 6.817 6.817 0 01-5.562 0 6.834 6.834 0 01-3.715-4.139 6.83 6.83 0 01-.29-2.829 6.213 6.213 0 01.238-1.746c.238-1.746 1.826-3.254 1.508-5.159-.317-1.904-2.46-1.746-3.73-1.825h-21.984v19.603c0 .873-.159 4.206-1.746 4.445-1.587.238-3.333-1.35-5.079-1.508a6.029 6.029 0 00-1.667-.238 6.902 6.902 0 00-4.398 11.478 6.908 6.908 0 004.398 2.252z" fill="url(#paint4_linear_406_2270)"/><path d="M349.127 310.714c-1.905.317-3.333-1.349-5.079-1.587a6.14 6.14 0 00-1.746-.238 6.904 6.904 0 100 13.809 6.213 6.213 0 001.746-.238c1.746-.238 3.174-1.905 5.079-1.587 1.905.317 1.667 2.619 1.746 3.889v21.031h-58.095v-20.238s-.08-4.365 1.746-4.762c1.825-.397 3.412 1.349 5.079 1.588h.079c.54.168 1.102.249 1.667.238a6.907 6.907 0 004.883-11.788 6.91 6.91 0 00-4.883-2.022 5.263 5.263 0 00-1.667.238h-.079c-1.667.238-3.175 1.905-5.079 1.588-1.905-.318-1.746-4.762-1.746-4.762v-19.286h21.904c1.27.079 3.493.476 3.731 1.825.238 1.35-1.27 3.413-1.508 5.159a6.14 6.14 0 00-.238 1.746 6.745 6.745 0 1013.492 0 11.879 11.879 0 00-.159-1.746c-.238-1.746-1.905-3.254-1.587-5.159.317-1.904 2.46-1.746 3.73-1.825h18.73v20.238c-.079 1.349-.397 3.651-1.746 3.889z" fill="url(#paint5_linear_406_2270)"/><path opacity=".15" d="M350.873 108.968l-94.365 236.825 20 .08 95.793-236.905h-21.428zm-58.095 236.825l95.159-236.825h21.111l-94.762 236.905-21.508-.08z" fill="#fff"/><path d="M387.619 145.476v19.603c0 .873-.159 4.127-1.826 4.444-1.666.318-3.333-1.349-5-1.587h-.079l-1.667-.159a6.75 6.75 0 00-6.255 4.22 6.74 6.74 0 00-.491 2.606c-.01.896.156 1.786.489 2.618a6.84 6.84 0 003.651 3.737 6.83 6.83 0 002.606.549 5.601 5.601 0 001.667-.238h.079c1.667-.159 3.096-1.825 5-1.508 1.905.318 1.826 3.572 1.826 4.445v20.476h31.587v-59.206h-31.587zm-140.714 11.587l49.127-31.031-10.953-17.302c-.476-.794-2.143-3.651-.873-4.762 1.27-1.111 3.572-.635 5.08-1.429h.079a6.489 6.489 0 001.508-.714 6.902 6.902 0 001.543-9.127 6.905 6.905 0 00-8.924-2.46 5.153 5.153 0 00-1.27 1.032h-.079c-1.27 1.11-1.588 3.333-3.413 4.047-1.825.715-3.413-2.063-3.889-2.857l-10.476-16.508-18.571 11.746-14.762 9.365-6.429 4.048v20.635l11.746 18.571-11.746 8.413v84.048h11.984v-19.524c0-.953.159-4.207 1.746-4.524 1.587-.318 3.413 1.349 5.08 1.587.575.124 1.158.203 1.746.238a6.904 6.904 0 100-13.809 6.203 6.203 0 00-1.746.238c-1.667.238-3.175 1.905-5.08 1.508-1.905-.397-1.746-3.572-1.746-4.445v-20.476h-8.968l14.603-23.889 4.683 7.381z" fill="#000" opacity=".2"/><path d="M285.08 86.27a5.157 5.157 0 00-1.27 1.032h-.08c-1.269 1.11-1.587 3.333-3.412 4.047-1.826.715-3.413-2.063-3.889-2.857l-10.476-16.508-18.572 11.746-14.762 9.365-15.793 9.921 31.666 50.079 49.127-31.031-10.952-17.302c-.476-.793-2.143-3.651-.873-4.762 1.27-1.11 3.571-.635 5.079-1.428h.08a6.514 6.514 0 001.508-.715 6.907 6.907 0 001.543-9.127 6.908 6.908 0 00-8.924-2.46z" fill="#F45662"/><path d="M197.857 149.841l9.127 15.318 20.714-21.032s7.461 4.682 8.651 8.968c0 0-24.603 41.984-36.984 37.302-12.381-4.683-1.508-40.556-1.508-40.556z" fill="#FFC861"/><path d="M248.572 131.826a.558.558 0 00-.08-.476 1.739 1.739 0 00-.714-.635l.794-2.699a.32.32 0 00-.159-.397 2.145 2.145 0 00-1.27-.555l.238-.953a.315.315 0 00-.158-.476c-1.508-.873-2.223-.079-2.223-.079a3.17 3.17 0 00-2.222 0c-1.032.555-2.936 6.667-2.936 6.667l-3.016 2.46 6.19 9.762c1.349-1.587 2.54-3.095 2.937-3.651.396-.556 2.301-7.619 2.619-8.968z" fill="#000" opacity=".2"/><path d="M227.699 144.127l2.778-3.254s.714-6.905 1.507-8.016c.794-1.111 2.143-2.46 2.143-2.46l1.826 2.936 3.889-3.174s1.904-6.111 2.936-6.587a2.695 2.695 0 012.222 0s.715-.873 2.223 0a.395.395 0 01.158.476l-.238 1.032a1.746 1.746 0 011.27.476.398.398 0 01.159.476l-.794 2.698c.293.141.54.361.714.635a.556.556 0 01.08.476c-.318 1.35-2.064 7.937-2.619 8.889-.556.953-5.238 6.35-6.111 8.016l-3.492 6.349-8.651-8.968z" fill="#F49C80"/><path d="M387.619 138.413v19.524c0 .952-.158 4.206-1.825 4.524-1.667.317-3.333-1.349-5-1.588h-.079a5.671 5.671 0 00-1.667-.238 6.907 6.907 0 00-6.905 6.905 6.906 6.906 0 006.905 6.905 5.671 5.671 0 001.667-.238h.079c1.667-.238 3.095-1.905 5-1.508 1.905.397 1.825 3.571 1.825 4.444v20.476h58.096v-59.206h-58.096z" fill="url(#paint6_linear_406_2270)"/><path d="M413.889 194.286s-1.349 1.587 4.365 1.508c3.751.024 7.474.64 11.032 1.826h3.651l12.778-8.572v-8.016l-31.826 13.254z" fill="#000" opacity=".2"/><path d="M468.492 91.27s6.667 23.492 9.048 23.73a15.31 15.31 0 005.476-1.032l2.302 7.619 18.095-2.222-6.508-16.031s.555-19.524-10.953-19.762a22.46 22.46 0 00-17.46 7.698z" fill="#F49C80"/><path d="M477.54 115a15.31 15.31 0 005.476-1.032l-.635-3.095c-.396 2.381-4.841 4.127-4.841 4.127zm5.873-13.413s1.349.159 1.984-2.143l.556 1.667s-1.667.952-2.54.476z" fill="#CF7A62"/><path d="M480.873 96.111s1.588-2.54 3.175-2.222c1.587.318 2.063 3.095 1.349 5.556-.714 2.46-.079 2.619.397 3.174a40.942 40.942 0 003.413 2.937s5.793-.08 7.698-2.222c0 0 2.143-13.81 1.825-14.524-.317-.715-1.349-2.46-1.349-2.46s1.588-.477 1.032-1.032a13.658 13.658 0 00-2.143-1.429s-1.19-2.936-1.667-2.936c-.476 0-.793.555-.793.555a5.478 5.478 0 00-4.207-2.46c-2.857-.238-9.92.317-12.936-.238-3.016-.556-6.191-1.032-6.429-.476a3.255 3.255 0 000 1.587s-5.158-.635-5.555.555c-.397 1.19.317 4.207.317 4.207s-2.698-.397-2.222 2.38c.476 2.778 4.206 6.032 7.857 5.636l4.048-.556s1.428 2.54 3.333 2.302c0 0 1.508 3.968 2.064 3.571.555-.397.793-1.905.793-1.905z" fill="#403880"/><path d="M482.461 96.905s.476-.952 1.111-.793c.635.158.555 2.222-.397 2.698-.952.476.635-1.905-.079-1.746-.715.159-.635-.159-.635-.159z" fill="#CF7A62"/><path d="M485.794 102.619a41.13 41.13 0 003.413 2.937s5.793-.08 7.698-2.223c0 0 2.143-13.81 1.826-14.523-.239 9.444-3.81 12.063-6.508 12.936-2.699.873-6.905.318-6.429.873z" fill="#1E194F"/><path d="M515.397 356.27s-6.349.238-7.54 1.666c-1.19 1.429-6.825 1.508-7.936.397-.238 1.984-10.556 7.143-14.286 8.413-3.73 1.27-4.444 7.857-4.286 8.413.159.555 29.762-.477 35.08-.635a.723.723 0 00.535-.237.708.708 0 00.179-.557c-.013-.636.013-1.272.079-1.905 0-1.19-1.825-15.555-1.825-15.555z" fill="#403880"/><path d="M507.858 357.937c1.19-1.429 7.539-1.667 7.539-1.667v-5.397l-15.555 2.937v4.523c1.19 1.111 6.904 1.111 8.016-.396z" fill="#F49C80"/><path d="M481.349 375.159c.159.476 29.762-.476 35.08-.635a.706.706 0 00.535-.236.712.712 0 00.179-.558c-.013-.636.013-1.272.079-1.904l-24.92.714c-.238-6.349 1.19-9.365 1.19-9.365a80.942 80.942 0 01-7.857 3.571c-3.73 1.191-4.444 7.857-4.286 8.413z" fill="#DFE5ED"/><path d="M436.588 358.809c.158-.555-2.143-1.349-2.143-1.349-1.746 2.698-12.223 6.667-17.381 8.333-3.969 1.27-5.238 6.191-5.635 8.413a.863.863 0 00.153.778.878.878 0 00.72.333h38.492a.938.938 0 00.673-.279.938.938 0 00.279-.673v-14.762c-5.714 0-4.127 1.508-6.428 1.905-2.302.396-8.81-2.223-8.73-2.699z" fill="#403880"/><path d="M435.873 353.65l-1.428 3.81s2.301.794 2.143 1.349c-.159.556 6.349 3.095 8.73 2.698 2.381-.396.714-1.904 6.428-1.904l1.35-5-17.223-.953z" fill="#F49C80"/><path d="M411.429 374.207a.862.862 0 00.153.778.878.878 0 00.72.333h38.492a.946.946 0 00.673-.279.96.96 0 00.279-.674v-1.746H423.73l.715-9.523a101.505 101.505 0 01-7.381 2.698c-3.969 1.27-5.238 6.191-5.635 8.413z" fill="#DFE5ED"/><path d="M512.302 195.794s3.968 15.794 1.508 26.111c-2.461 10.318-1.032 48.968-.397 53.016.635 4.048 4.444 13.968 3.651 27.222-.794 13.254-1.667 48.73-1.667 48.73s-9.603 7.619-15.556 2.937c0 0-7.619-76.826-8.095-82.619-.476-5.794-3.73-26.508-3.73-26.508s-11.905 28.571-13.175 37.222c-1.27 8.651-4.92 29.365-11.19 43.175a241.637 241.637 0 00-10.556 29.524s-11.587 5.476-17.222-.953c0 0 15.079-74.682 17.857-84.921 2.778-10.238 16.746-68.65 16.746-68.65l41.826-4.286z" fill="#403880"/><path d="M488.016 244.682l5.635-15.079 7.937-3.413s-5.477 5.715-5.477 10.08-3.809 40.555-3.809 40.555l-4.286-32.143z" fill="#232059"/><path d="M433.413 181.032l-5.476 4.841s-6.826.794-8.016 1.112c-1.191.317-5 6.031-5.953 6.825-.952.794 2.064 1.905 3.254.556l-3.412 3.254h-2.064s2.222 2.142 2.937 2.063c.714-.079 3.571-.952 3.571-.952s1.508 1.269 2.381.952c.873-.317 1.667-1.508 2.54-1.111s2.539-.635 3.095-.397a3.026 3.026 0 003.016-.555c1.032-1.032 10-7.223 10-7.223l-5.873-9.365zm19.92-28.333l-5.396-4.762s-3.81.079-5.238-1.429c-1.429-1.508-5.794-4.841-5.953-5.476-.159-.635 1.667-1.429 2.064-1.349a29.355 29.355 0 013.809 1.746l-3.333-3.016h-5.635s4.841-3.016 5.714-2.857l1.349.238s5.953-.476 7.143.317c1.191.794 4.842 5 4.842 5l6.904 3.016-6.27 8.572z" fill="#F49C80"/><path d="M453.333 152.698s-.872-7.698 4.207-9.444l17.46 7.381-6.508 14.524-15.159-12.461z" fill="#094080"/><path d="M492.222 117.619c5-.952 12.143-2.301 14.445 0 2.301 2.302 10.714 17.143 9.92 23.969-.793 6.825-5.238 45.635-5.238 47.619a51.69 51.69 0 00.953 6.587s-11.191 6.984-21.429 6.984a91.067 91.067 0 01-20.397-2.698l-1.984-28.095-29.206 18.412s-6.191-5.079-5.873-9.365l20.397-19.92s19.761-31.905 22.857-35.556c3.095-3.651 11.984-7.222 15.555-7.937z" fill="#1150BE"/><path d="M468.492 171.984L490.556 145l-21.191 38.413-.873-11.429z" fill="#094080"/><path d="M119.365 169.365s2.619-7.222-5.635-7.064c-8.254.159-9.92 7.223-11.19 10.397-1.27 3.175 3.968 8.254 9.365 5.556 5.397-2.699 7.46-8.889 7.46-8.889z" fill="#403880"/><path d="M109.603 163.016c-4.761 1.984-6.031 7.142-7.063 9.682s3.968 8.254 9.365 5.556a12.989 12.989 0 002.063-1.27l-1.269-.159c-14.127-1.19-3.254-13.571-3.096-13.809z" fill="#1E194F"/><path d="M120.794 170.079s-2.222-2.143-5.397.714c-3.175 2.857-4.762 6.984-3.413 8.334 1.349 1.349 8.81-9.048 8.81-9.048z" fill="#F45662"/><path d="M137.619 174.524s2.698.397-.317 4.762c-3.016 4.365-1.35-4.841.317-4.762z" fill="#1E194F"/><path d="M136.587 175s3.651 19.762 1.667 25.238c-.794 2.381-7.222 1.587-7.222 1.587l.476 8.016-16.111-.714s1.587-12.54 1.508-14.444c-.079-1.905-2.699-13.81 2.063-16.746C123.73 175 136.587 175 136.587 175z" fill="#F49C80"/><path d="M123.413 191.111s1.429.794 2.143.477a2.535 2.535 0 01-2.698.396c-1.429-.714.555-.873.555-.873z" fill="#CF7A62"/><path d="M125.556 185s-2.54-1.984-4.286-.318c-1.746 1.667-.238 5.556 2.857 6.747 0 0-2.54 5.238-7.222 4.206 0 0-6.746-8.651-6.27-13.254.476-4.603 5.635-11.349 9.762-12.778 4.127-1.428 5.635-1.349 8.492-.873 2.857.476 9.603 2.302 9.206 4.206a11.69 11.69 0 01-1.27 3.254s-.793.08-1.19 1.905c-.397 1.826-1.191 6.032-7.46 6.984 0 0-.556 2.54-1.032 2.619-.476.08-1.587-2.698-1.587-2.698zm78.174 174.523c-.079-.555 1.588-1.19 1.588-1.19 1.746 2.778 12.142 6.508 17.063 8.175 4.921 1.666 5.079 6.19 5.397 8.412a.88.88 0 01-.153.778.858.858 0 01-.32.253.862.862 0 01-.4.08h-36.746a.864.864 0 01-.647-.283.857.857 0 01-.226-.669l.952-14.762c5.476.08 3.016 1.508 5.238 1.905 2.223.397 8.334-2.222 8.254-2.699z" fill="#403880"/><path d="M205.397 357.142v1.191s-1.667.635-1.588 1.19c.08.556-6.031 3.096-8.254 2.699-2.222-.397.239-1.826-5.238-1.905l.397-5.159 14.683 1.984z" fill="#F49C80"/><path d="M227.778 374.921a.875.875 0 01-.473 1.031.874.874 0 01-.4.08h-36.746a.897.897 0 01-.354-.073.886.886 0 01-.477-.521.872.872 0 01-.042-.359v-1.746h26.746l-.635-9.523c2.54 1.111 5.159 2.063 6.984 2.698 3.81 1.19 5.079 6.19 5.397 8.413z" fill="#DFE5ED"/><path d="M89.524 375.079H55.159s-2.143-1.27-1.826-1.746c.318-.476 24.603-19.047 25.477-18.571.873.476 8.968 6.349 12.857 6.19 0 0 2.38 11.826-2.143 14.127z" fill="#403880"/><path d="M91.667 360.953l-1.111-.159s-.397 3.651-1.032 4.127-4.92 6.667-4.524 7.222c.397.556 1.429 1.826 1.27 2.937h3.254c4.524-2.302 2.143-14.127 2.143-14.127z" fill="#F49C80"/><path d="M80.476 355.873l-1.666-1.111c-.874-.476-25.16 18.095-25.477 18.571-.317.476 1.826 1.746 1.826 1.746h14.444l-4.047-7.698 14.92-11.508z" fill="#DFE5ED"/><path d="M146.111 266.032s57.461 9.762 61.032 11.428c3.571 1.667 8.254 11.191 8.095 16.746-.158 5.556-9.841 62.937-9.841 62.937s-11.984.714-14.762-1.984c0 0-1.905-37.143-1.032-42.223.873-5.079 2.461-10.793 2.461-10.793l-43.81-.635s6.905 52.936 5.397 55.794c-1.508 2.857-7.857 8.73-11.984 9.682-4.127.953-52.143 8.095-52.143 8.095l2.143-14.127s29.524-10.714 32.698-11.19a40.896 40.896 0 007.381-2.302l-15.555-42.222s-10.238-9.762-6.826-27.778c3.413-18.016 36.746-11.428 36.746-11.428z" fill="#1150BE"/><path d="M146.111 266.032s-33.333-6.588-36.746 11.428c-.159.873-.238 1.667-.397 2.54a81.205 81.205 0 0014.365-9.524c6.667-5.794 22.778-4.444 22.778-4.444zm2.143 35.476s-7.698-.238-9.127-.714c-1.428-.476-5.952-3.492-5.952-3.492s4.365 6.905 6.19 9.206c1.826 2.302 12.54 25.635 12.54 25.635l-3.651-30.635z" fill="#094080"/><path d="M211.984 227.381l3.413.238 5.476-2.698s3.809-3.492 5.317-3.096c1.508.397.873.953.715 1.111-.159.159-3.413 4.286-3.413 4.286h10.397a10.108 10.108 0 01-1.27 1.984c-.318.238-8.572 4.286-9.524 4.524l-11.111 3.413v-9.762z" fill="#F49C80"/><path d="M114.444 207.619c2.857-.555 13.969-1.666 21.191 1.191 7.222 2.857 38.571 17.143 38.571 17.143l37.778 1.428s1.667 7.54 0 9.762c0 0-32.302 3.81-41.429 2.937-9.127-.873-24.127-5.477-24.127-5.477s-4.365 10.397-3.888 12.223c.476 1.825 3.571 19.206 3.571 19.206s-13.968-1.984-22.857 3.651-13.889 7.778-13.889 7.778 2.619-20.239 1.905-23.254c-.715-3.016-3.969-25.715-3.651-32.937.317-7.222 4.048-13.095 6.825-13.651z" fill="#403880"/><path d="M146.428 234.604l-10.158-3.254 7.539 10.238 2.619-6.984z" fill="#232059"/><path d="M243.571 191.19a6.213 6.213 0 00-1.746.238c-1.666.238-3.174 1.905-5.079 1.508-1.905-.397-1.746-3.571-1.746-4.444v-20.476h-58.175v59.206h19.207c1.269-.079 3.492-.397 3.73-1.825.238-1.429-1.349-3.413-1.588-5.08a11.786 11.786 0 01-.158-1.666 6.744 6.744 0 0111.516-4.771 6.749 6.749 0 011.976 4.771 6.022 6.022 0 01-.238 1.666c-.159 1.667-1.826 3.175-1.508 5.08.317 1.904 2.46 1.746 3.73 1.825H235v-19.524c0-.952.159-4.206 1.746-4.524 1.587-.317 3.413 1.35 5.079 1.588a11.67 11.67 0 001.746.238 6.907 6.907 0 006.905-6.905 6.902 6.902 0 00-6.905-6.905z" fill="url(#paint7_linear_406_2270)"/><path d="M250.556 367.699s-.794-27.302-10.397-29.286c-9.603-1.984-10.952 16.984 0 35.793l10.397-6.507z" fill="url(#paint8_linear_406_2270)"/><path d="M245.556 370.953h-.159c-4.524-18.413-6.508-25.159-6.508-25.238 0-.08 0-.159.08-.238l.238.158s1.984 6.826 6.508 25.238c.079.08 0 .159-.08.159l-.079-.079z" fill="#231F20"/><path d="M253.889 374.207s14.603-13.889 9.127-20.556c-5.476-6.667-19.207 4.921-22.857 20.556h13.73z" fill="url(#paint9_linear_406_2270)"/><path d="M248.175 372.381h-.08c-.079 0-.159-.079-.079-.159 3.571-8.254 10.714-14.762 10.714-14.841h.238a.158.158 0 010 .238c-.079.079-7.063 6.587-10.635 14.683l-.158.079z" fill="#231F20"/><path d="M241.508 374.207s-3.73-15.794-11.27-14.445c-7.54 1.35 0 14.366 0 14.366l11.27.079z" fill="url(#paint10_linear_406_2270)"/><path d="M234.127 372.223c-.079 0-.159 0-.159-.08l-2.539-9.206c0-.079 0-.159.158-.159.159 0 .159 0 .159.08l2.54 9.206a.157.157 0 01-.047.112.157.157 0 01-.112.047z" fill="#231F20"/><defs><linearGradient id="paint0_linear_406_2270" x1="410.976" y1="378.182" x2="437.603" y2="255.19" gradientUnits="userSpaceOnUse"><stop stop-color="#1252C3"/><stop offset="1" stop-color="#3F86FD"/></linearGradient><linearGradient id="paint1_linear_406_2270" x1="350.714" y1="362.317" x2="459.532" y2="362.317" gradientUnits="userSpaceOnUse"><stop stop-color="#FF9C5C"/><stop offset="1" stop-color="#FFC861"/></linearGradient><linearGradient id="paint2_linear_406_2270" x1="433.492" y1="292.777" x2="316.103" y2="130.666" gradientUnits="userSpaceOnUse"><stop stop-color="#F5995E"/><stop offset=".29" stop-color="#F9AB60"/><stop offset=".71" stop-color="#FDBF62"/><stop offset="1" stop-color="#FFC663"/></linearGradient><linearGradient id="paint3_linear_406_2270" x1="415.373" y1="305.896" x2="297.984" y2="143.785" gradientUnits="userSpaceOnUse"><stop stop-color="#F5995E"/><stop offset=".29" stop-color="#F9AB60"/><stop offset=".71" stop-color="#FDBF62"/><stop offset="1" stop-color="#FFC663"/></linearGradient><linearGradient id="paint4_linear_406_2270" x1="428.143" y1="379.968" x2="367.587" y2="299.841" gradientUnits="userSpaceOnUse"><stop stop-color="#1252C3"/><stop offset="1" stop-color="#3F86FD"/></linearGradient><linearGradient id="paint5_linear_406_2270" x1="349.095" y1="353.889" x2="231.706" y2="191.777" gradientUnits="userSpaceOnUse"><stop stop-color="#F5995E"/><stop offset=".29" stop-color="#F9AB60"/><stop offset=".71" stop-color="#FDBF62"/><stop offset="1" stop-color="#FFC663"/></linearGradient><linearGradient id="paint6_linear_406_2270" x1="466.786" y1="226.112" x2="402.5" y2="151.58" gradientUnits="userSpaceOnUse"><stop stop-color="#1252C3"/><stop offset="1" stop-color="#3F86FD"/></linearGradient><linearGradient id="paint7_linear_406_2270" x1="180.778" y1="273.492" x2="219.905" y2="166.349" gradientUnits="userSpaceOnUse"><stop stop-color="#1252C3"/><stop offset="1" stop-color="#3F86FD"/></linearGradient><linearGradient id="paint8_linear_406_2270" x1="246.349" y1="373.786" x2="238.738" y2="346.699" gradientUnits="userSpaceOnUse"><stop stop-color="#F79F34"/><stop offset="1" stop-color="#FFC446"/></linearGradient><linearGradient id="paint9_linear_406_2270" x1="247.873" y1="374.778" x2="257.325" y2="355.191" gradientUnits="userSpaceOnUse"><stop stop-color="#FBB62C"/><stop offset="1" stop-color="#FFCE44"/></linearGradient><linearGradient id="paint10_linear_406_2270" x1="235.833" y1="376.009" x2="232.468" y2="363.437" gradientUnits="userSpaceOnUse"><stop stop-color="#FBB62C"/><stop offset="1" stop-color="#FFCE44"/></linearGradient></defs></svg>