<svg width="572" height="400" viewBox="0 0 572 400" fill="none" xmlns="http://www.w3.org/2000/svg">
<path d="M140.242 167.029C119.091 165.682 94.6811 141.77 101.116 127.013C107.552 112.256 109.022 102.424 102.513 92.428C96.6084 83.3632 118.658 44.9479 110.295 30.2319C113.423 27.2674 117.743 25.6096 121.729 26.9653C126.8 28.6966 129.315 34.3151 130.916 39.3947C132.676 45.0412 134.008 50.8122 134.901 56.6587C135.718 62.2283 136.355 68.2225 139.964 72.5589C143.917 77.3118 150.581 78.9451 154.991 83.2897C156.812 85.1208 158.175 87.3566 158.969 89.8147C159.762 92.2727 159.963 94.8835 159.556 97.4341C158.805 101.917 156.216 105.846 154.37 110.002C152.525 114.159 151.463 119.173 153.725 123.118C155.718 126.588 159.744 128.303 162.537 131.178C166.105 134.845 167.437 140.316 166.791 145.388C166.146 150.459 163.737 155.188 160.691 159.271C159.097 161.415 157.324 163.42 155.391 165.265C150.488 166.757 145.357 167.354 140.242 167.029V167.029Z" fill="url(#paint0_linear_406_1950)"/>
<path d="M119.377 188.491C114.869 178.74 98.6093 171.97 92.3211 166.588C85.6899 160.929 79.614 153.31 78.34 144.392C76.9191 134.437 82.358 129.112 86.9394 121.297C94.5179 108.353 79.1894 95.646 84.3833 82.6449C87.0619 75.9483 94.9344 72.9512 99.1728 67.1285C102.562 62.4573 103.321 56.4304 103.787 50.6812C104.252 44.932 104.604 38.9459 107.405 33.8908C108.173 32.5168 109.148 31.2691 110.296 30.1914C118.658 44.8911 96.6085 83.3227 102.513 92.3875C109.046 102.383 107.552 112.175 101.116 126.973C94.6812 141.77 119.083 165.674 140.242 166.989C145.36 167.312 150.494 166.712 155.399 165.216C152.363 168.123 148.958 170.619 145.273 172.64C136.322 177.589 125.159 180.039 119.377 188.491Z" fill="#F48F59"/>
<path d="M119.376 72.543V372.58" stroke="#231F20" stroke-width="1.02" stroke-miterlimit="10" stroke-linecap="round"/>
<path d="M119.376 102.709L131.61 87.4707" stroke="#231F20" stroke-width="1.02" stroke-miterlimit="10" stroke-linecap="round"/>
<path d="M119.376 134.053L131.61 118.814" stroke="#231F20" stroke-width="1.02" stroke-miterlimit="10" stroke-linecap="round"/>
<path d="M119.377 120.342L107.144 105.104" stroke="#231F20" stroke-width="1.02" stroke-miterlimit="10" stroke-linecap="round"/>
<path d="M119.377 148.312L107.144 133.073" stroke="#231F20" stroke-width="1.02" stroke-miterlimit="10" stroke-linecap="round"/>
<path d="M119.376 166.564L131.61 151.325" stroke="#231F20" stroke-width="1.02" stroke-miterlimit="10" stroke-linecap="round"/>
<path d="M491.908 45.0314C495.681 48.1183 519.013 74.341 510.879 110.576C502.745 146.811 482.762 164.712 456.678 156.978C430.594 149.244 404.183 125.61 410.945 88.5915C417.707 51.5727 447.196 8.39641 491.908 45.0314Z" fill="url(#paint1_linear_406_1950)"/>
<path d="M464.215 80.5957V372.581" stroke="#231F20" stroke-width="1.22" stroke-miterlimit="10"/>
<path d="M464.215 118.529L480.802 101.942" stroke="#231F20" stroke-width="1.2" stroke-miterlimit="10"/>
<path d="M464.215 98.35L450.193 84.3281" stroke="#231F20" stroke-width="1.2" stroke-miterlimit="10"/>
<path d="M163.353 267.349H157.881V367.674H163.353V267.349Z" fill="#201851"/>
<path d="M189.404 262.987C189.404 267.136 176.142 273.604 160.233 273.604C144.325 273.604 131.781 267.144 131.781 262.987C131.781 258.83 144.684 255.466 160.593 255.466C176.501 255.466 189.404 258.83 189.404 262.987Z" fill="#D93357"/>
<path d="M160.617 269.618C176.529 269.618 189.429 266.452 189.429 262.546C189.429 258.64 176.529 255.474 160.617 255.474C144.705 255.474 131.806 258.64 131.806 262.546C131.806 266.452 144.705 269.618 160.617 269.618Z" fill="#F35662"/>
<path d="M160.617 362.765L139.009 372.581H182.234L160.617 362.765Z" fill="#201851"/>
<path d="M175.448 328.67H145.787C145.686 328.67 145.587 328.65 145.493 328.612C145.4 328.573 145.316 328.517 145.244 328.445C145.173 328.374 145.117 328.289 145.078 328.196C145.039 328.103 145.02 328.003 145.02 327.902C145.02 327.802 145.039 327.702 145.078 327.609C145.117 327.516 145.173 327.431 145.244 327.36C145.316 327.288 145.4 327.232 145.493 327.193C145.587 327.155 145.686 327.135 145.787 327.135H175.448C175.549 327.135 175.649 327.155 175.742 327.193C175.835 327.232 175.919 327.288 175.991 327.36C176.062 327.431 176.119 327.516 176.157 327.609C176.196 327.702 176.216 327.802 176.216 327.902C176.216 328.003 176.196 328.103 176.157 328.196C176.119 328.289 176.062 328.374 175.991 328.445C175.919 328.517 175.835 328.573 175.742 328.612C175.649 328.65 175.549 328.67 175.448 328.67V328.67Z" fill="#201851"/>
<path d="M178.331 211.178L213.472 371.454" stroke="#231F20" stroke-width="2.86" stroke-miterlimit="10" stroke-linecap="round"/>
<path d="M213.472 211.178L178.331 371.454" stroke="#231F20" stroke-width="2.86" stroke-miterlimit="10" stroke-linecap="round"/>
<path d="M183.231 349.095H208.71" stroke="#231F20" stroke-width="2.86" stroke-miterlimit="10"/>
<path d="M379.317 211.178L414.466 371.454" stroke="#231F20" stroke-width="2.86" stroke-miterlimit="10" stroke-linecap="round"/>
<path d="M414.466 211.178L379.317 371.454" stroke="#231F20" stroke-width="2.86" stroke-miterlimit="10" stroke-linecap="round"/>
<path d="M384.217 349.095H409.696" stroke="#231F20" stroke-width="2.86" stroke-miterlimit="10"/>
<path d="M427.744 209.431H167.633C165.269 209.431 163.354 211.347 163.354 213.71V214.29C163.354 216.653 165.269 218.569 167.633 218.569H427.744C430.108 218.569 432.023 216.653 432.023 214.29V213.71C432.023 211.347 430.108 209.431 427.744 209.431Z" fill="#201851"/>
<path d="M361.889 367.429C361.889 367.429 361.154 341.443 352.196 339.524C343.237 337.605 341.963 355.726 352.196 373.635L361.889 367.429Z" fill="url(#paint2_linear_406_1950)"/>
<path d="M357.259 370.548C357.224 370.549 357.189 370.537 357.162 370.514C357.135 370.492 357.117 370.46 357.112 370.426C352.84 352.9 351.003 346.449 350.987 346.384C350.982 346.365 350.981 346.345 350.983 346.326C350.986 346.307 350.993 346.288 351.002 346.272C351.012 346.255 351.025 346.24 351.041 346.229C351.056 346.217 351.074 346.209 351.093 346.204C351.112 346.198 351.131 346.195 351.151 346.197C351.171 346.198 351.19 346.204 351.208 346.213C351.225 346.222 351.241 346.235 351.253 346.25C351.266 346.265 351.275 346.283 351.281 346.302C351.281 346.367 353.135 352.835 357.406 370.36C357.41 370.38 357.411 370.4 357.408 370.42C357.405 370.439 357.398 370.458 357.387 370.475C357.376 370.492 357.362 370.506 357.346 370.517C357.329 370.529 357.311 370.536 357.291 370.54L357.259 370.548Z" fill="#231F20"/>
<path d="M364.984 373.635C364.984 373.635 378.623 360.413 373.51 354.035C368.398 347.657 355.601 358.731 352.188 373.635H364.984Z" fill="url(#paint3_linear_406_1950)"/>
<path d="M359.66 371.863H359.603C359.584 371.856 359.567 371.845 359.553 371.831C359.539 371.817 359.528 371.801 359.52 371.783C359.512 371.764 359.509 371.745 359.509 371.725C359.509 371.705 359.513 371.685 359.521 371.667C362.902 363.835 369.509 357.604 369.574 357.539C369.603 357.512 369.641 357.497 369.68 357.497C369.72 357.497 369.758 357.512 369.786 357.539C369.801 357.553 369.813 357.571 369.82 357.59C369.828 357.609 369.832 357.629 369.832 357.649C369.832 357.67 369.828 357.69 369.82 357.709C369.813 357.728 369.801 357.745 369.786 357.76C369.721 357.817 363.163 364.007 359.807 371.773C359.795 371.802 359.774 371.826 359.748 371.842C359.722 371.858 359.691 371.866 359.66 371.863Z" fill="#231F20"/>
<path d="M353.437 373.636C353.437 373.636 349.958 358.601 342.935 359.883C335.912 361.165 342.935 373.529 342.935 373.529L353.437 373.636Z" fill="url(#paint4_linear_406_1950)"/>
<path d="M346.545 371.757C346.512 371.757 346.48 371.747 346.454 371.728C346.428 371.709 346.408 371.682 346.398 371.651L344.054 362.905C344.053 362.869 344.064 362.835 344.085 362.807C344.107 362.778 344.137 362.758 344.171 362.75C344.206 362.741 344.242 362.745 344.274 362.759C344.306 362.774 344.332 362.799 344.348 362.831L346.692 371.569C346.702 371.608 346.696 371.65 346.676 371.685C346.657 371.72 346.624 371.746 346.585 371.757H346.545Z" fill="#231F20"/>
<path d="M116.838 278.038C116.364 280.284 117.058 282.938 116.666 285.257C116.176 288.14 114.339 288.973 113.098 290.786C111.628 292.95 110.958 296.985 111.464 300.431C111.891 302.422 112.437 304.385 113.098 306.311C113.74 308.376 113.891 310.563 113.539 312.697C112.836 315.768 109.112 318.144 109.112 331.145C109.112 343.003 117.581 347.617 119.982 350.524V273.596L118.896 274.657C117.862 275.532 117.14 276.718 116.838 278.038V278.038Z" fill="url(#paint5_linear_406_1950)"/>
<path d="M126.727 306.311C127.396 304.387 127.941 302.423 128.36 300.431C128.899 296.985 128.23 292.95 126.727 290.786C125.486 288.973 123.657 288.14 123.167 285.257C122.766 282.955 123.469 280.284 122.987 278.038C122.687 276.717 121.965 275.53 120.929 274.657L119.843 273.596V350.524C122.244 347.617 130.712 343.003 130.712 331.145C130.712 318.144 126.988 315.768 126.294 312.697C125.934 310.564 126.082 308.376 126.727 306.311V306.311Z" fill="url(#paint6_linear_406_1950)"/>
<path d="M131.007 320.904C130.362 321.721 130.647 323.028 130.068 323.91C129.349 325.02 127.74 324.979 126.507 325.477C125.784 325.787 125.17 326.307 124.745 326.97C124.32 327.632 124.103 328.406 124.122 329.193C124.255 330.155 124.482 331.101 124.8 332.019C124.956 332.48 125.007 332.97 124.949 333.453C124.891 333.936 124.726 334.401 124.465 334.812C123.551 335.947 120.202 336.151 118.749 341.631C117.442 346.637 123.951 350.41 125.617 352.149L134.069 319.712L133.057 319.924C132.28 320.003 131.555 320.349 131.007 320.904Z" fill="url(#paint7_linear_406_1950)"/>
<path d="M135.449 325.314C135.375 324.261 136.265 323.281 136.102 322.235C135.897 321.47 135.421 320.806 134.763 320.365L133.946 319.688L125.502 352.117C127.813 351.414 135.302 351.3 136.633 346.286C138.062 340.814 135.236 339.001 135 337.556C134.973 337.071 135.054 336.587 135.237 336.138C135.421 335.688 135.702 335.286 136.061 334.959C136.787 334.313 137.448 333.599 138.038 332.827C138.439 332.15 138.628 331.367 138.58 330.581C138.532 329.795 138.249 329.041 137.768 328.417C136.968 327.38 135.547 326.637 135.449 325.314Z" fill="url(#paint8_linear_406_1950)"/>
<path d="M124.514 355.359C121.991 351.57 105.976 348.581 105.976 348.581C105.976 348.581 111.252 354.24 111.252 358.046C111.144 359.519 110.842 360.972 110.353 362.366C109.947 363.651 109.849 365.014 110.067 366.344C110.285 367.674 110.813 368.934 111.608 370.022C112.403 371.111 113.443 371.997 114.643 372.609C115.844 373.221 117.172 373.542 118.52 373.546H119.01C120.047 371.357 121.043 368.777 121.043 367.013C121.043 363.354 127.038 359.173 124.514 355.359Z" fill="#373075"/>
<path d="M140.635 362.366C140.144 360.972 139.84 359.52 139.728 358.046C139.728 354.24 145.012 348.581 145.012 348.581H105.976C105.976 348.581 121.991 351.57 124.514 355.359C127.037 359.149 121.043 363.354 121.043 367.005C121.043 368.777 120.047 371.357 119.01 373.538H132.468C133.815 373.534 135.142 373.213 136.342 372.601C137.542 371.989 138.581 371.104 139.376 370.017C140.171 368.929 140.699 367.67 140.918 366.341C141.136 365.013 141.039 363.651 140.635 362.366V362.366Z" fill="#232059"/>
<path d="M308.799 187.055H295.218H281.637L275.512 207.299H314.924L308.799 187.055Z" fill="#E1E7EF"/>
<g style="mix-blend-mode:multiply">
<path d="M308.799 187.055H295.218H281.637L278.525 197.328H311.91L308.799 187.055Z" fill="#E1E7EF"/>
</g>
<path d="M348.937 117.288H241.507C237.565 117.288 234.369 120.484 234.369 124.426V186.712C234.369 190.654 237.565 193.849 241.507 193.849H348.937C352.879 193.849 356.075 190.654 356.075 186.712V124.426C356.075 120.484 352.879 117.288 348.937 117.288Z" fill="#201851"/>
<path opacity="0.7" d="M349.256 119.812H241.188C238.893 119.812 237.032 121.673 237.032 123.968V172.926C237.032 175.222 238.893 177.083 241.188 177.083H349.256C351.552 177.083 353.413 175.222 353.413 172.926V123.968C353.413 121.673 351.552 119.812 349.256 119.812Z" fill="#3D86FA"/>
<path d="M238.828 193.848H351.607C352.791 193.848 353.926 193.379 354.763 192.543C355.601 191.707 356.072 190.573 356.074 189.39V180.268H234.394V189.39C234.394 190.568 234.86 191.698 235.691 192.534C236.522 193.369 237.65 193.842 238.828 193.848V193.848Z" fill="#E1E7EF"/>
<path d="M317.194 205.936H273.25V209.431H317.194V205.936Z" fill="#E1E7EF"/>
<path d="M349.174 124.205H313.625V157.761H349.174V124.205Z" fill="white"/>
<path d="M313.625 161.493H349.174" stroke="#201851" stroke-width="1.25" stroke-miterlimit="10"/>
<path d="M313.625 165.217H349.174" stroke="#201851" stroke-width="1.25" stroke-miterlimit="10"/>
<path d="M313.625 169.015H349.174" stroke="#201851" stroke-width="1.25" stroke-miterlimit="10"/>
<path d="M305.434 152.306H241.719V169.014H305.434V152.306Z" fill="url(#paint9_linear_406_1950)"/>
<path opacity="0.3" d="M353.412 122.408C353.41 121.72 353.136 121.061 352.649 120.575C352.163 120.088 351.504 119.814 350.815 119.812H321.612L264.487 177.059H311.036L353.421 136.545L353.412 122.408Z" fill="#E1E7EF"/>
<path opacity="0.3" d="M259.498 177.091L314.924 119.812H299.44L241.719 177.091H259.498Z" fill="#E1E7EF"/>
<path d="M277.635 49.3438V157.762" stroke="#201851" stroke-miterlimit="10" stroke-linecap="round"/>
<path d="M356.842 21.6504H247.983C244.524 21.6504 241.719 24.4547 241.719 27.9141V63.0709C241.719 66.5303 244.524 69.3346 247.983 69.3346H356.842C360.302 69.3346 363.106 66.5303 363.106 63.0709V27.9141C363.106 24.4547 360.302 21.6504 356.842 21.6504Z" fill="url(#paint10_linear_406_1950)"/>
<path d="M290.587 25.4561H251.225C248.667 25.4561 246.594 27.5292 246.594 30.0865V60.8905C246.594 63.4478 248.667 65.5209 251.225 65.5209H290.587C293.144 65.5209 295.218 63.4478 295.218 60.8905V30.0865C295.218 27.5292 293.144 25.4561 290.587 25.4561Z" fill="white"/>
<path d="M356.646 26.2727C357.125 26.2727 357.584 26.4629 357.923 26.8013C358.261 27.1398 358.451 27.5988 358.451 28.0775V36.0643C358.451 36.5438 358.261 37.0037 357.923 37.3434C357.585 37.6832 357.126 37.8752 356.646 37.8773H303.254C302.774 37.8752 302.315 37.6832 301.977 37.3434C301.639 37.0037 301.449 36.5438 301.449 36.0643V28.0775C301.449 27.5988 301.639 27.1398 301.978 26.8013C302.316 26.4629 302.775 26.2727 303.254 26.2727H356.646ZM356.646 25.4561H303.254C302.559 25.4561 301.892 25.7322 301.4 26.2239C300.909 26.7155 300.632 27.3823 300.632 28.0775V36.0643C300.631 36.4093 300.698 36.751 300.83 37.07C300.961 37.389 301.154 37.679 301.397 37.9233C301.641 38.1676 301.93 38.3614 302.249 38.4936C302.567 38.6259 302.909 38.694 303.254 38.694H356.646C357.342 38.6918 358.009 38.4138 358.501 37.9209C358.992 37.428 359.268 36.7604 359.268 36.0643V28.0775C359.268 27.3823 358.992 26.7155 358.5 26.2239C358.008 25.7322 357.342 25.4561 356.646 25.4561V25.4561Z" fill="white"/>
<path d="M300.632 43.6426H359.268" stroke="white" stroke-miterlimit="10"/>
<path d="M300.632 49.376H359.268" stroke="white" stroke-miterlimit="10"/>
<path d="M300.632 55.1084H359.268" stroke="white" stroke-miterlimit="10"/>
<path d="M300.632 60.8506H359.268" stroke="white" stroke-miterlimit="10"/>
<path d="M303.67 78.8652H194.811C191.351 78.8652 188.547 81.6696 188.547 85.1289V120.286C188.547 123.745 191.351 126.549 194.811 126.549H303.67C307.129 126.549 309.934 123.745 309.934 120.286V85.1289C309.934 81.6696 307.129 78.8652 303.67 78.8652Z" fill="url(#paint11_linear_406_1950)"/>
<path d="M237.424 82.6787H198.061C195.504 82.6787 193.431 84.7518 193.431 87.3091V118.113C193.431 120.67 195.504 122.744 198.061 122.744H237.424C239.981 122.744 242.054 120.67 242.054 118.113V87.3091C242.054 84.7518 239.981 82.6787 237.424 82.6787Z" fill="white"/>
<path d="M303.474 83.4954C303.953 83.4954 304.412 83.6855 304.75 84.024C305.089 84.3624 305.279 84.8215 305.279 85.3002V93.287C305.279 93.524 305.232 93.7587 305.141 93.9777C305.051 94.1966 304.918 94.3956 304.75 94.5632C304.583 94.7308 304.384 94.8637 304.165 94.9544C303.946 95.0451 303.711 95.0918 303.474 95.0918H250.081C249.844 95.0918 249.61 95.0451 249.391 94.9544C249.172 94.8637 248.973 94.7308 248.805 94.5632C248.638 94.3956 248.505 94.1966 248.414 93.9777C248.323 93.7587 248.277 93.524 248.277 93.287V85.3002C248.277 84.8215 248.467 84.3624 248.805 84.024C249.144 83.6855 249.603 83.4954 250.081 83.4954H303.474V83.4954ZM303.474 82.6787H250.081C249.386 82.6787 248.719 82.9549 248.228 83.4465C247.736 83.9381 247.46 84.6049 247.46 85.3002V93.287C247.46 93.9823 247.736 94.649 248.228 95.1407C248.719 95.6323 249.386 95.9085 250.081 95.9085H303.474C304.169 95.9085 304.836 95.6323 305.328 95.1407C305.819 94.649 306.095 93.9823 306.095 93.287V85.3002C306.095 84.6049 305.819 83.9381 305.328 83.4465C304.836 82.9549 304.169 82.6787 303.474 82.6787V82.6787Z" fill="white"/>
<path d="M247.46 100.866H306.095" stroke="white" stroke-miterlimit="10"/>
<path d="M247.46 106.599H306.095" stroke="white" stroke-miterlimit="10"/>
<path d="M247.46 112.331H306.095" stroke="white" stroke-miterlimit="10"/>
<path d="M247.46 118.064H306.095" stroke="white" stroke-miterlimit="10"/>
<path d="M198.502 339.327L195.938 347.061C195.938 347.061 190.058 354.966 190.058 355.93C190.058 356.893 199.784 372.401 201.205 372.581C202.626 372.761 213.21 372.883 213.504 372.581C213.798 372.279 215.023 367.681 213.504 366.505C212.279 365.558 210.131 366.105 209.421 364.055C208.71 362.006 207.208 353.766 207.208 353.766L212.214 343.868L198.502 339.327Z" fill="#403880"/>
<path d="M198.617 351.953C200.749 353.774 203.272 352.263 204.783 352.377C205.251 352.434 205.703 352.587 206.11 352.827C206.516 353.068 206.868 353.39 207.143 353.774L212.149 343.876L198.503 339.327L195.938 347.061C196.324 348.922 197.257 350.625 198.617 351.953V351.953Z" fill="#FB9F80"/>
<path d="M201.173 372.581C202.594 372.761 213.178 372.883 213.472 372.581C213.766 372.279 214.991 367.681 213.472 366.505C212.598 365.827 211.242 365.909 210.27 365.264C204.554 364.741 204.023 370.981 204.023 370.981C203.154 371.016 202.287 370.886 201.467 370.597C199.907 370.148 192.671 357.473 190.85 354.264C190.49 354.76 190.214 355.311 190.034 355.897C190.026 356.901 199.752 372.402 201.173 372.581Z" fill="#DFE5ED"/>
<path d="M246.571 349.095L248.735 356.902C248.735 356.902 255.129 364.57 260.805 366.155C266.48 367.739 266.962 371.291 266.783 374.37C266.779 374.425 266.761 374.478 266.729 374.522C266.697 374.567 266.654 374.602 266.603 374.623C262.317 376.227 257.728 376.858 253.169 376.469C245.705 375.742 235.627 373.929 235.546 373.643C235.464 373.357 234.206 360.283 234.353 359.964C234.5 359.646 231.618 352.124 231.618 352.124L246.571 349.095Z" fill="#FB9F80"/>
<path d="M235.57 373.643C235.652 373.929 245.729 375.742 253.193 376.469C257.753 376.858 262.342 376.227 266.627 374.623C266.678 374.602 266.721 374.567 266.753 374.522C266.785 374.478 266.804 374.425 266.807 374.37C266.987 371.291 266.382 367.698 260.829 366.154C255.276 364.611 248.759 356.902 248.759 356.902C242.732 356.755 242.536 360.34 241.197 360.936C239.857 361.532 234.378 359.964 234.378 359.964C234.231 360.283 235.48 373.357 235.57 373.643Z" fill="#403880"/>
<path d="M253.193 376.468C257.753 376.857 262.342 376.227 266.627 374.622C266.678 374.601 266.721 374.566 266.753 374.521C266.785 374.477 266.803 374.424 266.807 374.369C266.857 373.64 266.838 372.907 266.75 372.181C263.088 373.403 259.272 374.101 255.415 374.255C250.098 374.328 238.665 371.976 235.309 371.258C235.447 372.622 235.545 373.569 235.57 373.642C235.652 373.928 245.754 375.741 253.193 376.468Z" fill="#DFE5ED"/>
<path d="M266.628 374.623C266.678 374.601 266.722 374.566 266.754 374.522C266.785 374.477 266.804 374.424 266.807 374.369C266.987 371.291 266.383 367.697 260.829 366.154C259.978 365.9 259.157 365.555 258.38 365.125V365.125C258.38 365.125 251.765 366.334 252.663 374.108C252.741 375.002 253.124 375.841 253.749 376.485C258.126 376.787 262.516 376.152 266.628 374.623V374.623Z" fill="#DFE5ED"/>
<path d="M219.621 330.59L212.745 345.91C212.745 345.91 196.6 344.628 197.792 338.25L208.098 303.804L219.621 330.59Z" fill="#232059"/>
<path d="M140.847 234.886C140.847 234.886 137.213 255.58 141.59 260.472C145.967 265.364 204.733 291.317 204.733 291.317C204.733 291.317 207.935 305.731 212.369 315.62C216.803 325.51 230.793 352.574 230.793 352.574C230.793 352.574 241.826 354.714 246.595 349.095L231.593 302.432C231.593 302.432 244.21 273.661 243.982 271.505C243.753 269.349 238.984 257.973 235.57 256.495C232.156 255.017 179.221 230.256 179.221 230.256L167.911 226.875L140.847 234.886Z" fill="#403880"/>
<path d="M235.57 256.495C233.994 255.809 221.85 250.158 209.249 244.245L182.692 245.658L185.281 247.357L149.046 249.872C149.046 249.872 154.011 251.374 155.375 251.799C156.608 252.183 186.301 251.873 192.051 251.799C201.442 258.006 214.917 267.013 218.061 269.578C222.961 273.612 231.593 302.391 231.593 302.391C231.593 302.391 244.21 273.62 243.982 271.464C243.753 269.308 238.984 257.973 235.57 256.495Z" fill="#232059"/>
<path d="M171.961 238.439C172.598 238.357 182.692 245.691 182.692 245.691L198.592 239.296L179.254 230.256L167.911 226.875L141.835 234.592C145.102 236.805 150.001 239.672 154.183 240.235C161.173 241.175 171.324 238.529 171.961 238.439Z" fill="#232059"/>
<path d="M215.587 137.297L206.285 160.326C206.285 160.326 163.305 166.468 149.936 168.166C149.936 168.166 132.533 176.333 130.149 178.57C127.764 180.808 113.685 209.187 114.028 216.438C114.371 223.69 122.472 229.66 126.392 232.135C130.312 234.609 141.574 241.175 141.574 241.175L146.604 236.822C151.568 237.901 156.72 237.756 161.614 236.397C169.209 234.094 173.815 228.892 179.27 230.256C179.27 230.256 180.471 210.534 184.17 204.671C186.392 201.118 187.584 192.649 183.492 185.398C183.492 185.398 215.129 178.048 217.514 171.58C219.899 165.112 225.109 142.67 225.109 142.67C225.109 142.67 217.122 140.114 215.587 137.297ZM141.59 226.875L129.34 213.286L136.731 201.118C136.731 201.118 143.893 213.458 143.779 216.128C143.664 218.799 141.59 226.875 141.59 226.875Z" fill="#1150BE"/>
<path d="M146.588 236.821L148.752 234.886L141.59 226.875L142.88 221.321L153.921 237.54C151.458 237.564 148.999 237.323 146.588 236.821V236.821Z" fill="#094080"/>
<path d="M136.698 201.118L139.597 196.169L141.427 209.921L136.698 201.118Z" fill="#094080"/>
<path d="M183.435 185.397L181.639 181.387L199.662 180.881C199.662 180.881 187.445 184.629 183.435 185.397Z" fill="#094080"/>
<path d="M141.557 241.174L148.752 234.886L154.183 240.235C154.183 240.235 170.687 246.115 171.618 246.115C172.549 246.115 171.324 247.397 170.728 247.568C170.132 247.74 161.132 247.397 160.446 247.568C159.76 247.74 152.345 249.275 151.153 248.72C149.96 248.164 141.557 241.174 141.557 241.174Z" fill="#FB9F80"/>
<path d="M215.587 137.296L218.486 129.71C218.486 129.71 219.139 123.797 220.732 121.404C222.324 119.011 230.221 108.158 231.422 108.501C232.622 108.844 230.736 111.915 230.115 112.878C229.495 113.842 227.379 118.595 227.379 118.595C228.083 118.301 228.866 118.252 229.601 118.456C230.507 118.848 230.197 120.163 230.197 120.163C230.885 120.194 231.547 120.43 232.1 120.841C232.982 121.527 232.1 122.629 232.1 122.629C232.1 122.629 233.325 122.376 233.733 124.107C234.141 125.839 230.875 131.457 230.066 132.339C229.258 133.221 228.016 133.834 226.702 137.076C225.951 138.885 225.403 140.772 225.068 142.702C225.068 142.702 218.355 140.881 215.587 137.296Z" fill="#FB9F80"/>
<path d="M221.81 121.748C221.81 121.748 226.758 118.963 227.208 119.135C227.657 119.306 227.265 122.001 226.391 122.63C225.517 123.259 224.317 124.108 224.317 124.108C224.317 124.108 225.583 127.236 224.578 129.539C224.578 129.539 225.934 126.37 225.395 124.328C225.395 124.328 228.522 121.323 227.64 119.363C227.044 117.967 221.81 121.748 221.81 121.748Z" fill="#CF7A62"/>
<path d="M225.476 126.378C225.476 126.378 225.378 127.693 225.844 128.117C226.309 128.542 227.755 128.46 227.755 128.46C227.755 128.46 227.853 130.094 229.331 130.175C229.331 130.175 227.64 130.175 227.085 129.114C227.085 129.114 225.272 128.983 225.125 128.028C225.043 127.453 225.168 126.869 225.476 126.378V126.378Z" fill="#CF7A62"/>
<path d="M176.918 247.316H148.964C148.296 247.316 147.755 247.858 147.755 248.525V248.697C147.755 249.364 148.296 249.905 148.964 249.905H176.918C177.585 249.905 178.127 249.364 178.127 248.697V248.525C178.127 247.858 177.585 247.316 176.918 247.316Z" fill="#F35662"/>
<path d="M216.15 249.905H177.318C177.046 249.904 176.777 249.843 176.531 249.726C176.285 249.609 176.068 249.439 175.895 249.228C175.723 249.017 175.599 248.771 175.533 248.507C175.467 248.242 175.46 247.967 175.513 247.7L181.998 215.442C182.082 215.025 182.308 214.651 182.637 214.382C182.966 214.112 183.377 213.965 183.802 213.964H223.475C223.753 213.963 224.027 214.025 224.277 214.145C224.527 214.265 224.747 214.439 224.921 214.656C225.094 214.873 225.217 215.125 225.279 215.396C225.341 215.666 225.341 215.947 225.28 216.218L217.93 248.435C217.845 248.846 217.622 249.215 217.298 249.482C216.975 249.75 216.57 249.899 216.15 249.905V249.905Z" fill="#F35662"/>
<path d="M200.772 228.443C200.4 228.445 200.03 228.494 199.67 228.59C200.171 228.938 200.529 229.455 200.679 230.046C200.829 230.637 200.761 231.262 200.487 231.807C200.107 232.376 199.519 232.772 198.849 232.91C198.179 233.047 197.483 232.915 196.91 232.542V232.542C197.119 233.409 197.623 234.175 198.335 234.712C199.047 235.248 199.923 235.52 200.813 235.482C201.311 235.546 201.818 235.503 202.298 235.356C202.778 235.208 203.221 234.961 203.598 234.629C203.975 234.297 204.277 233.889 204.484 233.431C204.691 232.973 204.798 232.477 204.798 231.975C204.798 231.472 204.691 230.976 204.484 230.518C204.277 230.06 203.975 229.652 203.598 229.32C203.221 228.988 202.778 228.741 202.298 228.594C201.818 228.446 201.311 228.403 200.813 228.467L200.772 228.443Z" fill="#201851"/>
<path d="M175.759 136.358C175.759 136.358 174.052 153.508 171.071 159.813C169.658 162.793 165.697 162.116 165.697 162.116C165.697 162.116 165.526 166.893 165.697 169.106C165.869 171.319 163.648 177.403 158.103 176.113C152.557 174.823 149.936 168.167 149.936 168.167C149.936 168.167 151.569 153.247 151.569 151.458C151.569 149.67 147.225 142.246 153.276 134.913C159.328 127.579 175.84 131.075 175.759 136.358Z" fill="#FB9F80"/>
<path d="M152.28 127.416C152.28 127.416 154.035 122.769 149.92 120.727C145.804 118.686 136.036 121.854 133.742 130.731C131.447 139.608 141.32 139.788 144.693 139.012C148.066 138.236 152.28 127.416 152.28 127.416Z" fill="#403880"/>
<path d="M144.693 139.011C147.543 138.358 150.989 130.534 151.994 128.117C148.641 130.871 144.388 132.287 140.054 132.094C136.6 132.004 135.073 130.461 134.476 128.64C134.175 129.316 133.93 130.015 133.741 130.73C131.471 139.599 141.32 139.787 144.693 139.011Z" fill="#232059"/>
<path d="M153.072 127.669C153.072 127.669 152.133 126.812 149.691 128.2C147.249 129.588 143.501 136.317 144.375 138.408C144.643 139.022 145.058 139.561 145.583 139.977C146.109 140.393 146.729 140.673 147.388 140.793L153.072 127.669Z" fill="#F35662"/>
<path d="M155.84 143.185C155.84 143.185 156.657 145.569 157.163 145.488C157.67 145.406 158.364 142.221 158.364 142.221C158.364 142.221 167.02 144.353 168.89 141.788C170.761 139.224 172.345 135.01 175.758 136.374L175.301 140.245C175.301 140.245 177.972 136.978 178.233 135.263C178.314 134.796 178.241 134.316 178.026 133.893C177.811 133.471 177.466 133.129 177.041 132.919C177.041 132.919 178.739 124.753 170.597 123.838C162.455 122.924 153.799 126.06 149.92 130.233C146.041 134.406 144.489 141.6 145.224 144.393C145.959 147.186 151.512 152.062 151.512 152.062L153.668 150.151C153.668 150.151 150.254 148.191 151.324 144.393C152.394 140.596 155.84 143.185 155.84 143.185Z" fill="#403880"/>
<path d="M153.668 150.11C153.668 150.11 155.13 150.845 156.175 150.11C155.754 150.604 155.19 150.954 154.561 151.114C153.932 151.273 153.269 151.234 152.664 151.001L153.668 150.11Z" fill="#CF7A62"/>
<path d="M165.722 162.116C162.411 161.326 159.308 159.833 156.625 157.738C156.625 157.738 160.406 163.365 165.608 165.325L165.722 162.116Z" fill="#CF7A62"/>
<path d="M145.706 138.342C145.092 140.291 144.927 142.355 145.224 144.377C145.951 147.145 151.512 152.045 151.512 152.045L153.668 150.134C152.913 149.67 152.285 149.025 151.841 148.259C151.396 147.492 151.148 146.627 151.12 145.741C149.503 145.047 145.837 142.972 145.706 138.342Z" fill="#232059"/>
<path d="M429.875 352.549L430.447 360.332C430.447 360.332 429.238 371.912 429.557 373.308C429.826 374.492 442.288 374.631 446.943 373.847C447.405 373.759 447.821 373.513 448.119 373.15C448.417 372.788 448.579 372.332 448.577 371.863V369.535C448.577 369.17 448.511 368.807 448.381 368.465L444.91 359.172V352.549H429.875Z" fill="#403882"/>
<path d="M444.91 359.172C444.91 359.172 431.918 358.6 431.468 359.776C431.019 360.952 430.448 360.331 430.448 360.331L429.876 352.549H444.91V359.172Z" fill="#FDA181"/>
<path d="M448.609 369.536V371.863C448.612 372.332 448.45 372.788 448.151 373.151C447.853 373.513 447.437 373.76 446.976 373.847C442.321 374.664 429.826 374.493 429.589 373.308C429.525 372.591 429.525 371.87 429.589 371.152L431.223 371.463C431.223 367.135 433.517 365.542 438.809 364.456C440.378 364.155 441.994 364.197 443.545 364.581C445.095 364.964 446.545 365.68 447.792 366.677L448.47 368.466C448.581 368.811 448.628 369.173 448.609 369.536V369.536Z" fill="#E1E7EF"/>
<path d="M354.123 371.83C354.94 369.307 356.418 365.681 358.533 365.028C361.799 364.015 378.786 359.679 379.3 357.898C379.3 357.898 384.445 359.115 384.804 360.283C385.164 361.451 392.432 360.381 392.432 360.381V360.495L393.445 372.745C393.462 372.947 393.436 373.15 393.371 373.342C393.305 373.534 393.2 373.71 393.062 373.859C392.925 374.008 392.758 374.127 392.572 374.208C392.386 374.289 392.185 374.33 391.983 374.329H355.952C355.651 374.329 355.353 374.258 355.084 374.122C354.815 373.985 354.582 373.787 354.404 373.544C354.226 373.3 354.107 373.018 354.058 372.721C354.01 372.423 354.032 372.118 354.123 371.83V371.83Z" fill="#403882"/>
<path d="M384.805 360.283C384.446 359.115 379.301 357.898 379.301 357.898C379.807 356.11 379.913 349.585 379.913 349.585L393.568 351.757L392.432 360.381C392.432 360.381 385.156 361.459 384.805 360.283Z" fill="#FDA181"/>
<path d="M391.975 374.338H355.952C355.65 374.339 355.351 374.267 355.081 374.13C354.812 373.994 354.578 373.795 354.4 373.55C354.221 373.306 354.103 373.023 354.055 372.724C354.007 372.425 354.03 372.119 354.123 371.831C354.94 369.308 356.418 365.682 358.533 365.028C359.039 364.873 359.864 364.645 360.901 364.351C361.301 366.572 361.555 372.035 361.555 372.035L393.347 371.668L393.437 372.754C393.454 372.956 393.428 373.159 393.363 373.351C393.297 373.543 393.192 373.719 393.054 373.868C392.917 374.017 392.75 374.135 392.564 374.216C392.378 374.297 392.178 374.339 391.975 374.338V374.338Z" fill="#E1E7EF"/>
<path d="M444.199 189.309C444.199 189.309 447.997 215.164 448.029 235.417C448.029 253.898 448.029 273.163 447.923 279.288C447.637 292.125 445.343 352.557 445.343 352.557H429.826C429.826 352.557 426.2 299.434 426.004 287.781C425.808 276.127 427.156 275.343 424.477 263.69C421.799 252.036 417.021 233.669 417.021 233.669C417.021 233.669 404.224 270.598 404.412 275.539C404.6 280.48 405.817 296.29 402.362 308.311C398.908 320.332 393.567 351.757 393.567 351.757C393.567 351.757 383.931 353.341 379.913 349.585C379.913 349.585 382.804 276.691 383.563 267.013C384.323 257.336 395.323 186.483 395.323 186.483L444.199 189.309Z" fill="#403882"/>
<path d="M417.071 233.661L414.841 218.006C414.841 218.006 404.633 266.482 404.666 273.71L417.071 233.661Z" fill="#232059"/>
<path d="M349.893 74.8635L345.597 67.1543C345.597 67.1543 343.964 60.8825 341.898 58.555C339.832 56.2276 329.648 45.7663 328.39 46.3053C327.133 46.8442 329.656 49.874 330.481 50.8213C331.306 51.7686 334.295 56.5379 334.295 56.5379C333.494 56.3265 332.644 56.3927 331.886 56.7257C330.971 57.2974 331.51 58.653 331.51 58.653C330.773 58.791 330.095 59.1499 329.566 59.682C328.75 60.5558 329.844 61.6093 329.844 61.6093C329.844 61.6093 328.488 61.5276 328.292 63.4549C328.096 65.3822 332.506 70.9109 333.519 71.7521C334.532 72.5932 335.969 73.0424 337.872 76.3253C338.973 78.1527 339.866 80.0975 340.534 82.1235C340.534 82.1235 347.467 79.1509 349.893 74.8635Z" fill="#FB9F80"/>
<path d="M340.787 59.0948C340.787 59.0948 335.03 56.8571 334.564 57.1103C334.099 57.3635 334.948 60.2136 335.969 60.7526C336.99 61.2916 338.419 62.0265 338.419 62.0265C338.419 62.0265 337.537 65.5871 338.974 67.9064C338.974 67.9064 337.031 64.7133 337.292 62.4349C337.292 62.4349 333.462 59.6746 334.107 57.4288C334.572 55.8282 340.787 59.0948 340.787 59.0948Z" fill="#CF7A62"/>
<path d="M337.553 64.6475C337.553 64.6475 337.863 66.0358 337.43 66.5748C336.998 67.1138 335.43 67.2362 335.43 67.2362C335.43 67.2362 335.585 69.0574 334 69.3269C334 69.3269 335.813 69.0492 336.246 67.8324C336.246 67.8324 338.182 67.4159 338.19 66.3706C338.192 65.7382 337.966 65.1262 337.553 64.6475V64.6475Z" fill="#CF7A62"/>
<path d="M428.928 106.917C428.928 106.917 448.266 108.86 453.215 114.838C458.164 120.816 473.191 168.272 470.153 173.065C467.115 177.859 458.654 178.978 456.572 179.133C454.489 179.288 444.747 175.303 444.747 175.303L444.543 191.636C444.543 191.636 429.083 197.222 413.992 194.666C398.9 192.11 395.323 186.499 395.323 186.499L391.705 128.517C391.705 128.517 362.461 120.718 357.349 114.871C352.237 109.024 340.256 81.3882 340.256 81.3882C340.256 81.3882 346.324 73.8995 350.162 74.6835L367.573 101.519L412.154 108.052L428.928 106.917Z" fill="#1150BE"/>
<path d="M444.747 175.303C444.747 175.303 420.999 160.726 418.443 159.59C415.886 158.455 406.299 154.372 406.299 154.372L393.331 154.584L394.147 167.781C394.147 167.781 412.571 168.435 413.984 167.577C415.396 166.72 444.673 180.897 444.673 180.897L444.747 175.303Z" fill="#094080"/>
<path d="M443.709 138.153L447.384 157.41L441.717 155.646L443.709 138.153Z" fill="#094080"/>
<path d="M408.749 143.577L406.544 125.61C406.51 125.389 406.4 125.187 406.233 125.038C406.066 124.889 405.853 124.802 405.629 124.794L379.341 123.977C379.202 123.973 379.063 124 378.935 124.055C378.807 124.111 378.693 124.193 378.6 124.298C378.508 124.402 378.439 124.525 378.399 124.659C378.359 124.792 378.349 124.933 378.37 125.071L383.359 158.799C383.392 159.022 383.503 159.226 383.671 159.376C383.84 159.525 384.057 159.61 384.282 159.616L409.247 160.032C409.382 160.035 409.516 160.009 409.64 159.957C409.764 159.904 409.876 159.826 409.967 159.727C410.059 159.629 410.129 159.512 410.172 159.384C410.216 159.256 410.232 159.121 410.219 158.987L408.749 143.577Z" fill="#201851"/>
<path d="M407.932 143.576L405.744 125.765C405.712 125.505 405.589 125.265 405.396 125.088C405.202 124.911 404.952 124.81 404.69 124.802L378.696 123.985C378.536 123.98 378.376 124.01 378.228 124.073C378.08 124.136 377.948 124.231 377.842 124.351C377.735 124.471 377.656 124.613 377.61 124.768C377.564 124.922 377.553 125.084 377.577 125.243L382.518 158.676C382.557 158.934 382.685 159.17 382.881 159.342C383.077 159.514 383.327 159.611 383.588 159.615L408.275 160.032C408.429 160.034 408.582 160.003 408.724 159.942C408.865 159.881 408.992 159.791 409.097 159.678C409.202 159.565 409.281 159.431 409.331 159.285C409.381 159.14 409.4 158.985 409.386 158.831L407.932 143.576Z" fill="#F35662"/>
<path d="M381.479 129.083C381.946 129.001 382.244 128.484 382.147 127.929C382.049 127.374 381.592 126.99 381.125 127.072C380.659 127.154 380.36 127.671 380.458 128.226C380.555 128.781 381.013 129.165 381.479 129.083Z" fill="#201851"/>
<path d="M418.443 159.591C418.443 159.591 418.916 153.196 421.579 148.566L416.899 147.129C416.899 147.129 413.273 142.065 412.212 141.641C411.15 141.216 408.373 140.203 408.373 140.203L408.749 143.56C408.749 143.56 404.323 142.441 402.73 141.926C401.138 141.412 397.348 137.843 396.075 138.121C395.906 138.15 395.745 138.213 395.602 138.306C395.459 138.399 395.336 138.52 395.242 138.663C395.147 138.805 395.082 138.965 395.051 139.133C395.02 139.301 395.024 139.473 395.062 139.64L399.055 143.151C399.055 143.151 393.396 139.46 392.391 139.468C391.387 139.476 391.06 140.914 391.493 141.102C392.098 141.529 392.647 142.031 393.126 142.596C393.028 142.896 392.999 143.214 393.041 143.527C393.084 143.839 393.197 144.138 393.371 144.401C393.984 145.152 397.071 150.305 401.383 152.339C405.695 154.372 418.443 159.591 418.443 159.591Z" fill="#FB9F80"/>
<path d="M401.529 74.8789C401.529 74.8789 404.404 101.485 407.442 102.204C409.086 102.624 410.776 102.838 412.472 102.841C412.522 104.578 412.416 106.317 412.154 108.035C411.754 109.791 413.787 115.148 418.548 114.821C423.309 114.495 428.928 106.916 428.928 106.916C428.928 106.916 427.491 93.0984 427.654 89.5786C427.817 86.0588 432.366 71.0488 420.304 69.2848C408.242 67.5209 401.529 74.8789 401.529 74.8789Z" fill="#FB9F80"/>
<path d="M419.986 82.7352C419.986 82.7352 421.154 86.8185 421.954 86.8185C422.754 86.8185 423.073 82.7352 423.073 82.7352C423.073 82.7352 424.461 80.1301 426.805 80.4486C429.149 80.7671 428.291 87.4228 425.947 87.3656L427.654 89.5788C427.654 89.5788 432.285 72.4291 432.072 71.2286C431.767 70.2755 431.201 69.4267 430.439 68.7787C430.439 68.7787 430.757 63.0621 426.445 61.8045C422.134 60.5468 402.852 59.8853 401.129 59.7302C399.406 59.575 400.647 62.711 400.647 62.711C400.647 62.711 397.381 61.8943 396.817 63.5276C396.254 65.1609 396.654 73.0661 399.961 75.4099C399.961 75.4099 399.21 75.8835 399.48 77.9088C399.749 79.9341 402.46 82.2779 402.46 82.2779L401.717 76.79C401.717 76.79 411.272 77.6067 414.351 75.2465C414.351 75.2465 413.003 78.2273 416.205 78.5132C416.205 78.5295 416.735 83.0047 419.986 82.7352Z" fill="#403880"/>
<path d="M412.473 102.841C412.473 102.841 420.46 102.024 422.754 99.1416C422.754 99.1416 418.5 105.43 412.448 105.209L412.473 102.841Z" fill="#CF7A62"/>
<path d="M399.479 77.9417C399.749 79.967 402.46 82.3108 402.46 82.3108L401.717 76.8229H401.815C401.684 76.7004 401.227 76.3492 399.961 75.4346C399.961 75.4427 399.21 75.9164 399.479 77.9417Z" fill="#232059"/>
<defs>
<linearGradient id="paint0_linear_406_1950" x1="88.6869" y1="187.486" x2="153.48" y2="59.958" gradientUnits="userSpaceOnUse">
<stop stop-color="#F5995E"/>
<stop offset="0.29" stop-color="#F9AB60"/>
<stop offset="0.71" stop-color="#FDBF62"/>
<stop offset="1" stop-color="#FFC663"/>
</linearGradient>
<linearGradient id="paint1_linear_406_1950" x1="409.761" y1="190.175" x2="488.372" y2="49.2453" gradientUnits="userSpaceOnUse">
<stop offset="0.2" stop-color="#F5995E"/>
<stop offset="0.43" stop-color="#F9AB60"/>
<stop offset="0.77" stop-color="#FDBF62"/>
<stop offset="1" stop-color="#FFC663"/>
</linearGradient>
<linearGradient id="paint2_linear_406_1950" x1="358.084" y1="373.235" x2="350.832" y2="347.437" gradientUnits="userSpaceOnUse">
<stop stop-color="#F69E34"/>
<stop offset="1" stop-color="#FFC346"/>
</linearGradient>
<linearGradient id="paint3_linear_406_1950" x1="359.341" y1="374.1" x2="368.3" y2="355.554" gradientUnits="userSpaceOnUse">
<stop stop-color="#FAB52C"/>
<stop offset="1" stop-color="#FFCD44"/>
</linearGradient>
<linearGradient id="paint4_linear_406_1950" x1="348.178" y1="375.318" x2="344.985" y2="363.378" gradientUnits="userSpaceOnUse">
<stop stop-color="#FAB52C"/>
<stop offset="1" stop-color="#FFCD44"/>
</linearGradient>
<linearGradient id="paint5_linear_406_1950" x1="114.551" y1="350.524" x2="114.551" y2="273.596" gradientUnits="userSpaceOnUse">
<stop stop-color="#232059"/>
<stop offset="1" stop-color="#AC69D9"/>
</linearGradient>
<linearGradient id="paint6_linear_406_1950" x1="125.282" y1="350.524" x2="125.282" y2="273.596" gradientUnits="userSpaceOnUse">
<stop stop-color="#232059"/>
<stop offset="1" stop-color="#AC69D9"/>
</linearGradient>
<linearGradient id="paint7_linear_406_1950" x1="131.693" y1="313.824" x2="123.485" y2="342.447" gradientUnits="userSpaceOnUse">
<stop stop-color="#FFF4B6"/>
<stop offset="1" stop-color="#D07E2C"/>
</linearGradient>
<linearGradient id="paint8_linear_406_1950" x1="140.128" y1="316.241" x2="131.921" y2="344.865" gradientUnits="userSpaceOnUse">
<stop stop-color="#FFF4B6"/>
<stop offset="1" stop-color="#D07E2C"/>
</linearGradient>
<linearGradient id="paint9_linear_406_1950" x1="232.034" y1="134.356" x2="299.538" y2="177.099" gradientUnits="userSpaceOnUse">
<stop stop-color="#F8A034"/>
<stop offset="1" stop-color="#FFC546"/>
</linearGradient>
<linearGradient id="paint10_linear_406_1950" x1="389.68" y1="-0.578848" x2="179.131" y2="110.567" gradientUnits="userSpaceOnUse">
<stop offset="0.05" stop-color="#FBD15B"/>
<stop offset="1" stop-color="#F9A45A"/>
</linearGradient>
<linearGradient id="paint11_linear_406_1950" x1="336.508" y1="56.6442" x2="125.959" y2="167.782" gradientUnits="userSpaceOnUse">
<stop offset="0.05" stop-color="#FBD15B"/>
<stop offset="1" stop-color="#F9A45A"/>
</linearGradient>
</defs>
</svg>
