<svg width="572" height="400" fill="none" xmlns="http://www.w3.org/2000/svg"><path d="M267.431 375.3c99.985 0 181.038-2.547 181.038-5.689 0-3.141-81.053-5.688-181.038-5.688-99.984 0-181.038 2.547-181.038 5.688 0 3.142 81.054 5.689 181.038 5.689z" fill="#C7CCD1"/><path d="M487.187 54.358h-77.249v184.606h77.249V54.358z" fill="#ECECEC"/><path opacity=".3" d="M465.763 54.358h-24.631l-26.936 184.606h24.622l26.945-184.606z" fill="#FAFAFA"/><path d="M487.986 52.009H409.45v2.507h78.536V52.01zm0 186.786H409.45v3.231h78.536v-3.231z" fill="#000" opacity=".4"/><path d="M491.041 246.023h-85.15V47.432h85.15v198.591zm-78.654-4.578h72.166V52.001h-72.166v189.444z" fill="#C8C8C8"/><path d="M398.283 54.358h-77.248v184.606h77.248V54.358z" fill="#ECECEC"/><path opacity=".3" d="M386.781 54.358h-4.519l-26.936 184.606h4.51l26.945-184.606z" fill="#FAFAFA"/><path d="M399.074 52.009h-78.536v2.507h78.536V52.01zm0 186.786h-78.536v3.231h78.536v-3.231z" fill="#000" opacity=".4"/><path d="M402.138 246.023h-85.109V47.432h85.109v198.591zm-78.663-4.578h72.166V52.001h-72.166v189.444z" fill="#C8C8C8"/><path opacity=".3" d="M324.25 238.794l35.308-184.277h18.917l-30.437 184.277H324.25z" fill="#FAFAFA"/><path d="M308.699 54.358H231.45v184.606h77.249V54.358z" fill="#ECECEC"/><path opacity=".3" d="M297.187 54.358h-4.51l-26.945 184.606h4.519l26.936-184.606z" fill="#FAFAFA"/><path d="M309.49 52.009h-78.536v2.507h78.536V52.01zm0 186.786h-78.536v3.231h78.536v-3.231z" fill="#000" opacity=".4"/><path d="M312.544 246.023h-85.142V47.432h85.142v198.591zm-78.654-4.578h72.2V52.001h-72.2v189.444z" fill="#C8C8C8"/><path opacity=".3" d="M234.665 238.794l35.308-184.277h18.917l-30.437 184.277h-23.788z" fill="#FAFAFA"/><path d="M179.64 92.197h-48.007V156h48.007V92.197z" fill="#000" opacity=".4"/><path d="M180.953 90.893h-48.007v63.801h48.007V90.893z" fill="#C8C8C8"/><path d="M177.788 93.123h-42.007v58.189h42.007V93.123z" fill="#fff"/><path d="M170.434 103.439l-27.878-1.069v39.685h27.878v-38.616z" fill="#C8C8C8"/><path d="M142.556 142.055l27.879-20.39-27.879-19.295v39.685z" fill="#000" opacity=".4"/><path d="M94.034 255.279s11.268-15.626 12.959-23.259c1.692-7.632.362-9.256.362-9.256s6.816-18.016 6.463-19.169c-.353-1.153-1.75-2.457-2.979-2.171-1.228.286-35.157 20.111-34.501 29.587.656 9.475 8.39 23.696 17.697 24.268z" fill="#413B89"/><path d="M107.372 222.823s6.816-18.017 6.463-19.17c-.354-1.152-1.751-2.457-2.979-2.171 0 0-.951.463-4.056 15.147-3.105 14.684-12.749 38.709-12.749 38.709s11.268-15.627 12.959-23.259c1.692-7.632.362-9.256.362-9.256z" fill="#201851"/><path d="M104.974 223.992s-7.086 20.979-10.898 31.287c-3.812 10.308-14.465 59.628-11.284 69.364" stroke="#000" stroke-width=".67" stroke-miterlimit="10" stroke-linecap="round"/><path d="M92.015 192.175s-4.83 21.146-6.118 38.229c-1.287 17.082-5.133 81.969-5.133 81.969" stroke="#000" stroke-width=".53" stroke-miterlimit="10" stroke-linecap="round"/><path d="M92.352 193.446s4.905 11.47 7.968 10.595c3.063-.875 5.436-6.396 7.448-11.865 2.011-5.47 7.792-37.354 8.061-38.709.269-1.355-7.885-17.957-7.885-17.957s-20.642 43.311-15.593 57.936z" fill="#201851"/><path d="M108.23 135.813s.959 6.135.522 7.793c-.438 1.657-12.782 21.996-14.095 33.02-1.313 11.023-2.382 15.811-2.382 15.811s-7.573 5.731-10.493 5.049c-2.92-.681-8.415-11.149-7.068-14.213 1.346-3.063 23.62-42.074 24.319-41.923.698.152 1.573 4.553 1.573 4.553l.438-6.564 7.186-3.526zm-36.436 95.029a7.953 7.953 0 017.354-2.365c4.645.842 10.654-4.207 10.494-8.583-.16-4.376-5.849-18.134-12.328-21.197-6.48-3.063-22.77-15.677-22.77-15.677v2.364l-2.458-3.593-6.959-2.322s2.844 24.916 9.677 34.206c6.833 9.29 16.99 17.167 16.99 17.167z" fill="#413B89"/><path d="M54.543 213.415c6.833 9.256 16.99 17.166 16.99 17.166s-23.26-31.909-26.364-49.067c.9 6.378 3.811 24.336 9.374 31.901z" fill="#201851"/><path d="M65.92 222.469s3.282 4.434 5.613 8.112c2.331 3.677 9.34 71.526 8.062 84.014" stroke="#000" stroke-width=".53" stroke-miterlimit="10" stroke-linecap="round"/><path d="M93.976 273.733H72.02s-17.78 48.95-14.709 65.216c3.072 16.266 6.37 21.736 6.37 21.736h38.633s3.29-5.487 6.362-21.736c3.071-16.249-14.701-65.216-14.701-65.216z" fill="url(#paint0_linear_406_1782)"/><path d="M63.984 298.557c-1.48 5.116-2.937 10.543-4.132 15.803h46.282c-1.194-5.26-2.65-10.687-4.131-15.803H63.984zm-4.56 49.917a129.971 129.971 0 001.683 5.932h43.707a94.457 94.457 0 001.725-5.932H59.424z" fill="#201851"/><path d="M420.541 258.291h-55.084a8.145 8.145 0 00-8.145 8.146v.008a8.145 8.145 0 008.145 8.146h55.084a8.146 8.146 0 008.146-8.146v-.008a8.146 8.146 0 00-8.146-8.146z" fill="#F25662"/><path d="M420.187 258.291h-54.352a8.448 8.448 0 00-.926.059c-2.432.841-3.938 1.885-4.207 2.962l-.842-.353a8.102 8.102 0 00-2.129 5.486 8.15 8.15 0 008.146 8.146h7.994l-2.238-7.851a121.727 121.727 0 0021.037 1.683c17.671 0 31.977-2.996 31.977-6.69-.017-1.279-1.641-2.441-4.46-3.442z" fill="#A43447"/><path d="M392.999 370.361a1.843 1.843 0 01-1.835-1.809l-1.136-93.961h5.941l-1.144 93.961a1.829 1.829 0 01-1.826 1.809zm47.089 0a1.828 1.828 0 01-1.75-1.321l-27.559-94.449h6.244l24.833 93.473a1.833 1.833 0 01-.962 2.106 1.83 1.83 0 01-.806.191zm-94.178 0a1.828 1.828 0 001.75-1.321l27.559-94.449h-6.253l-24.824 93.473a1.828 1.828 0 001.768 2.297z" fill="#000"/><path d="M114.92 274.591h55.084a8.146 8.146 0 008.145-8.146v-.008a8.146 8.146 0 00-8.145-8.146H114.92a8.146 8.146 0 00-8.146 8.146v.008a8.146 8.146 0 008.146 8.146z" fill="#F25662"/><path d="M115.274 258.291h54.335c.309.003.618.022.925.059 2.432.841 3.938 1.885 4.208 2.962l.841-.353a8.102 8.102 0 012.129 5.486 8.15 8.15 0 01-8.145 8.146h-7.995l2.239-7.851c-5.63 1.026-12.976.555-21.038.555-17.671 0-31.53.412-31.976-5.596-.059-1.245 1.658-2.407 4.477-3.408z" fill="#A43447"/><path d="M142.462 370.361a1.843 1.843 0 001.835-1.809l1.136-93.961h-5.958l1.145 93.961a1.82 1.82 0 001.142 1.676c.223.09.461.135.7.133zm-47.09 0a1.828 1.828 0 001.75-1.321l27.559-94.449h-6.243l-24.833 93.473a1.83 1.83 0 00.321 1.581 1.84 1.84 0 001.446.716zm94.18 0a1.83 1.83 0 01-1.751-1.321l-27.558-94.449h6.252l24.824 93.473a1.828 1.828 0 01-1.767 2.297z" fill="#000"/><path d="M192.387 132.228a14.401 14.401 0 00-13.615-1.473c-7.96 3.012-9.879 18.715-13.615 20.961-3.736 2.247-8.339 2.912-8.836 7.077-.496 4.166 4.83 9.661 4.83 9.661s19.759 5.158 23.983-3.459 7.253-32.767 7.253-32.767z" fill="#403881"/><path d="M185.134 164.995c4.207-8.617 7.253-32.768 7.253-32.768-6.075-.967-11.781.724-14.743 9.526-2.962 8.802-7.657 10.098-15.643 14.735-3.257 1.884-4.426 4.342-4.679 6.588a24.407 24.407 0 003.829 5.378s19.758 5.158 23.983-3.459z" fill="#1E194F"/><path d="M208.072 143.596s-2.305 22.989-5.595 24.917c-3.291 1.927-8.895-.497-8.895-.497a68.338 68.338 0 00-5.209 8.524c-2.087 4.208-2.137 12.126-4.443 12.841-2.306.716-13.464-19.11-7.683-24.588a599.66 599.66 0 007.793-7.514s-1.953-.842-1.784-3.939c.168-3.096 5.461-14.044 25.816-9.744z" fill="#F49C80"/><path d="M193.809 132.674s-3.021-1.683-7.464.606c-4.443 2.289-6.42 8.23-5.545 10.039.875 1.809 13.009-10.645 13.009-10.645z" fill="#F25662"/><path d="M208.073 143.597s-6.396-.842-8.575 3.012c-2.18 3.854-3.804 7.776-10.098 5.891 0 0-1.102 1.632-1.414 1.153a4.402 4.402 0 01-.21-1.885s-1.178-3.005-3.955-1.599c-2.306 1.178-1.237 6.504.244 7.051 0 0-7.245-1.977-5.714-9.054 1.532-7.077 7.633-13.178 15.484-15.534s16.829 5.217 15.256 9.442c0 0 1.59 1.043 1.262 1.943a41.425 41.425 0 01-2.81 4.343l.53-4.763z" fill="#403881"/><path d="M208.072 143.597s1.507.395 1.162 1.615a14.991 14.991 0 01-1.683 3.19l.521-4.805z" fill="#1E194F"/><path d="M185.757 152.348s-1.204-.564-1.523 1.085c-.32 1.65.925 1.902.925 1.902s-1.043-.925-.185-1.683c.859-.757.783-.589.783-1.304zm7.825 15.669a20.566 20.566 0 01-6.732-5.049s3.964 5.638 5.647 6.563l1.085-1.514zm-10.644 94.96s-2.524 14.591-.437 26.288c2.086 11.697 10.83 46.316 11.191 48.739.362 2.424-.488 4.822 0 5.747.488.926 1.212 17.285 5.655 19.902 4.443 2.617 10.813-.354 11.2-2.87.387-2.516-7.851-15.088-9.256-25.859-1.405-10.771-9.349-73.874-9.349-73.874l-9.004 1.927z" fill="#D07A62"/><path d="M193.044 233.112s14.483.463 16.048 7.077c1.565 6.614.9 86.135.9 86.135s6.261 18.311 8.979 23.318c2.718 5.007-8.726 5.772-14.306 0-5.579-5.773-7.91-14.853-7.91-14.853.641-2.983.946-6.028.909-9.079-.168-4.317-9.576-54.1-9.795-58.719a25.116 25.116 0 010-4.031l-7.573.05s3.315-29.208 12.748-29.898z" fill="#F59D80"/><path d="M122.082 223.419s-7.826 8.768-9.257 13.388c-1.43 4.62-5.091 24.285 2.356 26.187 7.448 1.902 65.064 0 65.064 0s5.613-29.267 12.766-29.881l-33.046-4.494s-23.401-4.115-37.883-5.2z" fill="#403880"/><path d="M193.044 233.113l-33.045-4.494s-23.435-4.148-37.917-5.2c0 0 39.179 22.442 44.287 22.03 4.09-.328 11.672 3.955 17.023 4.797 2.365-7.969 5.731-16.796 9.652-17.133z" fill="#1E194F"/><path d="M192.43 233.214c-8.962 1.885-12.151 29.78-12.151 29.78h2.659s3.972-27.937 9.492-29.78z" fill="#D07A62"/><path d="M179.622 161.552a28.371 28.371 0 00-3.004-.698c-.496 0-3.753 3.458-3.753 3.458s-20.196.194-23.839 2.609c-3.644 2.415-12.842 16.627-12.842 16.627s-7.194 30.075-9.5 33.281c-2.306 3.206-4.603 6.589-4.603 6.589s23.873 1.683 37.371 8.642c0 0 2.305-10.939 4.527-14.246a41.938 41.938 0 016.252-6.732s12.622-.841 14.305-3.366a100.316 100.316 0 012.306-3.206l18.244-5.133s-6.421-18.168-8.777-20.852c-2.356-2.685-3.518-3.189-3.518-3.189.127-1.45.164-2.906.11-4.359a2.955 2.955 0 00-.707-.968s-3.408 3.736-4.207 5.327c-.8 1.59-3.955 13.118-5.327 12.622-1.372-.497-4.544-10.477-4.603-16.3-.059-5.823.126-8.684 1.565-10.106z" fill="#F25662"/><path d="M148.588 204.486c.379-1.953 5.444-6.345 8.895-4.587 3.45 1.759-3.409-3.18-2.584-6.53.825-3.349 1.389-6.142 1.389-6.142-.186 0-5.95 6.252-5.95 6.252s-11.831 10.762-22.35 20.347a14.103 14.103 0 01-1.304 3.004c-2.297 3.215-4.603 6.589-4.603 6.589s20.389 1.405 34.131 7.144l1.271-7.085s-9.282-17.049-8.895-18.992z" fill="#CD3650"/><path d="M136.185 183.549l14.153 9.929-9.18 11.857s25.791 29.082 27.878 29.856c2.087.774 13.388 1.683 14.306 2.137.917.455 8.558 4.94 8.591 5.184.034.244-1.38 1.187-2.449 1.077a22.965 22.965 0 01-4.056-1.515s5.84 6.396 5.84 6.48a3.364 3.364 0 01-2.053.841 2.048 2.048 0 01-.934-.328 3.685 3.685 0 01-1.43.337c-.598-.042-3.678-2.095-3.678-2.095l2.449 2.103s-1.212 1.187-2.415.581c-1.203-.606-5.823-4.309-6.202-4.359-.378-.051-6.345.412-9.029-.581-2.684-.993-41.233-26.927-43.278-30.622-2.045-3.694-2.381-6.033-1.683-8.557.699-2.525 13.17-22.325 13.17-22.325z" fill="#F59D80"/><path d="M199.38 184.449c-1.22 4.536-3.728 15.787-4.78 15.921-1.312.16-4.359-7.868-4.359-7.868-.622 3.257-2.936 11.857-3.366 11.983l18.244-5.133s-3.071-8.659-5.739-14.903z" fill="#CD3650"/><path d="M188.34 204.064s6.176 29.149 7.994 30.294c1.818 1.144 7.405 2.137 8.415 1.565 1.01-.572 6.092-7.91 5.89-12.925-.202-5.015-3.214-35.343-2.962-38.532.253-3.189.842-11.974.379-12.799-.463-.825-5.596-3.164-5.596-3.164a9.036 9.036 0 01-5.167.564s-.841.446-.841.622c0 .177-.699 4.654-.202 4.94.297.177.639.265.984.252a3.25 3.25 0 001.422 1.683s-.454 3.408.842 4.974c1.296 1.565.505 5.486.395 6.833-.109 1.346-2.145 13.043-2.145 13.043l-9.408 2.65z" fill="#F59D80"/><path d="M197.748 201.422l-1.582 14.305s-2.676-9.054-3.913-9.593c-1.237-.538-3.408.261-3.408.261l-.505-2.322 9.408-2.651zm-61.563-17.873l13.346 10.973.807-1.044-14.153-9.929z" fill="#D07A62"/><path d="M188.508 176.742s1.582-.724 2.39 1.212c.808 1.935 1.397 4.039 1.397 4.039s-1.868-4.342-3.787-5.251zm4.309-1.431l-.194 2.743 4.881 2.339s-.934-2.743-4.687-5.082zm-15.644 2.415l-6.058 3.542s3.366.766 3.484.572c.117-.193 2.574-4.114 2.574-4.114z" fill="#CD3650"/><path d="M194.028 345.764s.446 6.782 1.153 11.52c.707 4.737 1.725 11.385 3.248 11.999 1.523.615 13.38 1.237 14.819 0s.412-4.502-.328-5.89c-.741-1.389-6.126-12.042-6.126-12.042s3.366 10.544-1.633 11.2c-4.998.657-7.077-1.885-7.943-4.847-.867-2.962-3.19-11.94-3.19-11.94z" fill="#403881"/><path d="M218.97 349.626s3.096 4.948 3.206 6.387c.109 1.439-.227 3.24-.766 3.821-.539.58-10.182 2.221-13.683-.589-3.5-2.811-5.797-8.163-5.797-8.163a45.714 45.714 0 01-.186 4.965c-.185.135-1.009.328-1.363-.194-.353-.521-1.456-8.734-2.524-10.889-1.069-2.154-2.483-7.514-.951-10.989 0 0 7.329 16.224 12.883 17.671 5.554 1.447 8.785-.564 9.181-2.02z" fill="#403881"/><path d="M200.382 355.853c.353.522 1.178.328 1.363.193a45.95 45.95 0 00.185-4.964s2.306 5.352 5.798 8.162c3.492 2.811 13.144 1.17 13.682.589.315-.438.52-.946.598-1.481-2.222.547-9.071 2.02-12.395.278-4.006-2.104-7.027-8.003-7.464-8.365-.438-.361-4.628-5.444-5.529-9.096a16.67 16.67 0 001.237 3.795c1.069 2.154 2.205 10.376 2.525 10.889zm-1.953 13.43c1.523.614 13.38 1.237 14.819 0a2.436 2.436 0 00.715-1.902c-2.21.514-4.464.815-6.732.9a45.264 45.264 0 01-9.921-.732c.32.926.698 1.565 1.119 1.734z" fill="#1E194F"/><path d="M351.833 117.878s5.512 26.701 6.034 27.332c.522.631 3.896.841 5.268.547a35.933 35.933 0 004.207-1.397s2.945 9.256 3.854 9.787c.909.53 6.093 2.676 10.536-.497 4.443-3.172 7.405-13.051 7.405-13.051s-5.1-.741-5.386-1.111c-.286-.37-2.524-4.073-2.524-4.073s1.809-17.671-3.248-20.196c-5.058-2.524-23.554-4.99-26.146 2.659z" fill="#F59D80"/><path d="M367.267 123.971s1.464 4.797 2.078 4.671c.614-.127 1.506-4.115 1.506-4.115s1.683-2.525 3.905-1.599c2.221.926 2.188 6.791.21 8.474a11.368 11.368 0 007.372 5.798s5.469-18.909 5.225-20.802c-.244-1.893-4.283-4.729-4.283-4.729s-1.111-5.394-1.481-5.478c-.37-.084-.951.993-.951.993s-1.851-4.41-5.84-4.982c-3.988-.572-25.766 2.878-28.156 6.665 0 0-.328 10.35 5.394 10.998l-.353-1.447a4.82 4.82 0 013.727-2.205c2.449-.059 4.713.042 5.049 1.178.337 1.136.985 4.788 2.306 5.352 1.404.497 2.837.907 4.292 1.228z" fill="#403881"/><path d="M367.359 144.361l3.779-1.641-3.173 3.475-.606-1.834zm7.608-12.959s-1.305 1.136-2.373.396a2.395 2.395 0 002.768.336l-.395-.732zm-2.399-5.353s.564-.732 1.178-.631c.615.101 1.094 1.918-.067 3.139 0 0 .589-1.759 0-2.087-.589-.329-1.818.648-1.111-.421z" fill="#D07A62"/><path d="M374.966 131.402a11.37 11.37 0 007.372 5.798s5.47-18.908 5.226-20.802c0 0-.211 5.411-4.41 6.421a17.006 17.006 0 01-8.415.109c2.264.943 2.205 6.791.227 8.474z" fill="#1E194F"/><path d="M343.957 333.057l1.077 9.214s-12.858 9.972-14.608-1.641l-1.616-5.89 15.147-1.683z" fill="#FCA080"/><path d="M345.034 342.245s2.045 15.417 1.733 15.568c-.311.151-35.553-.051-39.381-.067a.381.381 0 01-.371-.345c-.101-1.515-.319-7.473 2.92-8.777 3.711-1.498 15.046-5.15 17.108-7.321 2.061-2.171 2.524-2.752 2.886-2.575.362.177 3.013 1.961 2.962 3.509-.05 1.548-.126 2.44.412 2.339.539-.101 5.824.261 6.547-.841.724-1.103 5.184-1.49 5.184-1.49z" fill="#1E194F"/><path d="M346.767 357.814c-.286.143-35.553-.051-39.381-.068a.385.385 0 01-.252-.101.386.386 0 01-.119-.244c-.101-1.515-.319-7.472 2.92-8.777 1.81-.732 5.436-1.977 8.912-3.307 1.876 3.013 1.75 9.888 1.75 9.888l26.019-.042c.162.873.213 1.764.151 2.651z" fill="#DFE5ED"/><path d="M351.53 341.472l.572 6.53s3.03 5.377 8.979 5.478c5.95.101 7.203-2.92 7.203-2.92v-6.219l-16.754-2.869z" fill="#FCA080"/><path d="M352.035 347.219s.429-1.01 2.39-.463c1.961.547 5.049 2.44 5.116 3.408.068.968-.421 2.197 0 2.171.421-.025 3.888 0 4.671-.757.782-.757 1.228-1.515 4.072-1.826 0 0 1.17 9.534 1.17 11.259 0 0 .236 2.777 0 2.895-.236.118-16.123 5.983-19.96 6.378-3.837.396-15.812-.841-16.047-1.413-.236-.573-.236-8.087 1.96-9.181 2.197-1.094 11.781-5.588 13.935-7.935a11.85 11.85 0 002.693-4.536z" fill="#403880"/><path d="M369.454 363.906c-.236.118-16.123 5.983-19.96 6.379-3.837.395-15.812-.842-16.047-1.414-.236-.572-.236-8.086 1.96-9.18.707-.354 2.197-1.069 3.947-1.944 12.479-2.045 14.995 8.23 14.995 8.23 2.525-.623 15.105-4.965 15.105-4.965s.236 2.777 0 2.894z" fill="#DFE5ED"/><path d="M420.734 223.939s9.821 32.263 1.044 38.086-52.248 2.415-52.248 2.415 3.845 21.038 3.627 27.105c-.219 6.067-4.797 52.795-4.797 52.795s-13.464 4.611-17.671-2.415l-9.551-82.534-10.754.11s7.018 18.109 7.127 21.567c.11 3.459 6.538 52.349 6.538 52.349s-8.154 5.764-15.23 1.321c0 0-26.76-69.313-26.869-76.668-.11-7.354-.657-14.928 1.212-16.678 1.868-1.75 12.95-7.573 20.086-9.332 7.136-1.759 53.014-7.06 53.014-7.06l44.472-1.061z" fill="#403880"/><path d="M341.601 251.323c1.093-1.759 11.881-9.055 16.981-11.445 5.099-2.389 30.563-7.489 30.563-7.489s2.448 17.209 4.207 17.865c1.439.547 24.26-2.524 31.926-3.61-.841-10.687-4.51-22.72-4.51-22.72l-44.523 1.06s-45.862 5.301-53.014 7.06c-7.153 1.759-18.218 7.574-20.087 9.332-1.868 1.759-1.321 9.324-1.211 16.679.109 7.354 26.877 76.685 26.877 76.685 7.077 4.443 15.231-1.322 15.231-1.322s-6.429-48.89-6.539-52.349c-.109-3.458-7.127-21.567-7.127-21.567l10.754-.109s-.631-6.278.472-8.07z" fill="#232059"/><path d="M377.356 231.85l-16.712-.336 5.671 7.346 11.041-7.01z" fill="#A43447"/><path d="M370.253 152.456s4.275 2.659 8.769 1.506c4.493-1.152 10.14-13.362 10.14-13.362l8.246 90.14s-15.306.278-21.567-2.684l-5.588-75.6z" fill="#FFC761"/><path d="M397.408 230.74l-.967-10.603-17.142 2.264s-2.305-25.245-2.962-38.633c-.656-13.388-6.084-31.312-6.084-31.312l5.588 75.599c6.261 2.963 21.567 2.685 21.567 2.685z" fill="#D07E2C"/><path d="M317.753 185.964s-3.812-1.734-4.283-2.415c-.472-.682-2.441-7.961-2.685-8.415-.244-.454-7.464-7.195-7.792-7.304-.328-.11-1.262 1.733-1.102 2.583a40.417 40.417 0 002.137 4.578s.253.841.059.841c-.193 0-8.558-3.012-9.113-3.265a97.652 97.652 0 00-9.989-.353 2.717 2.717 0 001.103 2.524c.984.438 7.682 1.894 7.682 1.894s-2.061 1.86-1.43 3.046a6.559 6.559 0 001.43 1.834s-.841 1.683-.58 2.138a8.904 8.904 0 001.817 1.565 2.788 2.788 0 000 2.171c.547.842 5.319 2.962 5.891 2.853 0 0 3.728 2.087 6.614 2.087 1.506 0 5.512 4.392 5.512 4.392l4.729-10.754z" fill="#F59D80"/><path d="M386.78 140.221s-2.97 29.452-2.945 46.635c.025 17.183 7.574 59.359 9.736 60.024 2.163.664 37.371-1.683 39.676-5.605 0 0-10.788-23.62-11.032-25.842-.244-2.221-1.068-7.902-1.068-7.902s1.355-1.607 1.27-2.103c-.084-.497-3.727-57.331-11.141-60.966-6.075-2.954-24.496-4.241-24.496-4.241zm-18.639 6.504s5.579 9.82 7.22 37.589.699 42.983.48 43.757c-.219.775-7.792-2.095-7.792-2.095s2.204-2.524 2.204-8.061-2.617-15.888-2.617-15.888-10.039 20.238-11.898 20.482a20.236 20.236 0 01-8.154-.412c-2.962-.901-36.134-24.403-36.134-24.403l6.337-11.689 30.293 13.001s6.665-43.875 8.558-45.852c1.894-1.978 11.503-6.429 11.503-6.429z" fill="#1150BD"/><path d="M367.636 202.012l-6.992-26.591 1.632 36.933 5.36-10.342zm22.308-58.61s4.443 17.369 4.443 18.277c0 .909-8.145 21.98-8.145 21.98s9.298-19.741 9.298-20.583c0-.841-5.596-19.674-5.596-19.674zm-22.577 6.504c.11.244-.505 19.834-.16 20.827.345.993 6.732 12.925 6.732 12.925s-7.733-10.619-7.649-12.184l1.077-21.568zm54.848 65.527c-.244-2.222-1.068-7.902-1.068-7.902s-4.115 4.856-4.696 5.428c-.581.572-27.895 13.985-27.895 13.994a314.132 314.132 0 001.683 8.709c6.959-2.448 27.306-9.643 34.938-12.487a61.918 61.918 0 01-2.962-7.742zm-36.31-5.418l16.552-11.983 4.443-1.372-4.771-.765-3.475-23.764s.134 24.041 0 24.403c-.135.362-12.749 13.481-12.749 13.481z" fill="#094080"/><path d="M371.566 220.676l-12.984 3.559 5.806 11.697s4.039-2.718 5.891-4.081a16.252 16.252 0 014.83-2.096l-3.543-9.079z" fill="#F59D80"/><path d="M388.556 226.953l-12.984 5.124s-4.351-10.939-4.275-12.967l14.608-9.08s4.856 13.826 2.651 16.923z" fill="#1150BD"/><path d="M304.086 177.727s-.74 5.394 1.355 7.245l-2.634-1.809a13.028 13.028 0 00-.479 1.683c0 .269.328 1.262.168 1.59 0 0 1.187 1.952.135 3.046 0 0 .58-1.918-.631-2.331 0 0 0-1.683-.791-2.255a9.165 9.165 0 00.387-2.365c-.169-.269-5.184-3.971-5.184-3.971s4.898 2.389 5.268 2.179a30.297 30.297 0 002.406-3.012z" fill="#D07A62"/><path d="M311.416 239.963l-13.119-36.327 54.664.984 13.354 34.24 11.04-7.009.202 1.733-10.99 7.633-55.151-1.254z" fill="#F25662"/><path d="M367.299 238.238l-13.413-34.231-54.461-1.061-1.128.69 54.664.985 13.354 34.24.984-.623z" fill="#201851"/><path d="M366.315 238.86l.252 2.356-55.151-1.254-1.026-2.844 55.925 1.742z" fill="#A43447"/><path d="M332.025 220.054a4.464 4.464 0 00-1.145-.126 2.464 2.464 0 01.732 2.263 2.822 2.822 0 01-2.844 1.877 4.082 4.082 0 002.003 1.119c1.859.454 3.643-.328 3.988-1.75.345-1.423-.9-2.929-2.734-3.383z" fill="#201851"/><path d="M327.699 240.188H192.615v6.8h135.084v-6.8z" fill="url(#paint1_linear_406_1782)"/><path d="M262.324 246.988h-4.325v123.371h4.325V246.988z" fill="#201851"/><path d="M260.161 365.747l-25.244 4.611h50.48l-25.236-4.611z" fill="#201851"/><path d="M225.257 235.359h-4.275a3.746 3.746 0 01-3.736-3.744v-5.891a3.745 3.745 0 013.736-3.745h1.338v1.683h-1.338a2.056 2.056 0 00-1.449.602 2.048 2.048 0 00-.596 1.452v5.89a2.052 2.052 0 00.596 1.451 2.043 2.043 0 001.449.602h4.275v1.7z" fill="url(#paint2_linear_406_1782)"/><path d="M220.982 223.662h1.338v-1.683h-1.338a3.929 3.929 0 00-.53.051l.211 1.683c.105-.025.212-.042.319-.051zm4.275 10.007h-3.341l.21 1.691h3.131v-1.691z" fill="#1351BD"/><path d="M220.957 219.119l2.642 21.071h9.441l2.651-21.071h-14.734z" fill="url(#paint3_linear_406_1782)"/><path d="M221.748 225.405l.446 3.568h12.26l.446-3.568h-13.152z" fill="#201851"/><path d="M229.7 214.003a5.562 5.562 0 001.018-6.858 8.653 8.653 0 010-7.851s-5.89 6.092-3.366 9.256c2.525 3.164 2.348 5.453 2.348 5.453z" fill="#C7CCD1"/><path d="M225.938 205.419s-.631 2.634.522 4.249c1.153 1.616 1.834 3.955 1.237 5.268a5.458 5.458 0 00-2.255-3.921c-2.222-1.658.496-5.596.496-5.596z" fill="#C7CCD1"/><path d="M284.312 235.359h4.275a3.746 3.746 0 003.736-3.744v-5.891a3.741 3.741 0 00-3.736-3.745h-1.329v1.683h1.329a2.052 2.052 0 011.892 1.269c.102.249.154.515.153.785v5.89a2.052 2.052 0 01-.596 1.451 2.043 2.043 0 01-1.449.602h-4.275v1.7z" fill="url(#paint4_linear_406_1782)"/><path d="M288.587 223.662h-1.33v-1.683h1.33c.178.004.355.021.53.051l-.21 1.683a1.921 1.921 0 00-.32-.051zm-4.275 10.007h3.341l-.21 1.691h-3.131v-1.691z" fill="#1351BD"/><path d="M288.612 219.119l-2.642 21.071h-9.442l-2.642-21.071h14.726z" fill="url(#paint5_linear_406_1782)"/><path d="M287.821 225.405l-.446 3.568h-12.252l-.454-3.568h13.152z" fill="#201851"/><path d="M283.243 214.003a5.575 5.575 0 001.027-6.858 8.653 8.653 0 010-7.851s-5.891 6.092-3.366 9.256c2.524 3.164 2.339 5.453 2.339 5.453z" fill="#C7CCD1"/><path d="M279.482 205.419s-.631 2.634.522 4.249c1.153 1.616 1.843 3.955 1.237 5.268a5.424 5.424 0 00-2.247-3.896c-2.221-1.683.488-5.621.488-5.621z" fill="#C7CCD1"/><path d="M259.808 80.61a8.99 8.99 0 003.15 6.85 9.004 9.004 0 007.256 2.047 8.994 8.994 0 007.139-11.681l-3.08-10.469h-10.939l-3.088 10.469a8.96 8.96 0 00-.438 2.785z" fill="url(#paint6_linear_406_1782)"/><path d="M263.258 67.349h11.385a.614.614 0 00.614-.615v-.378a.614.614 0 00-.614-.615h-11.385a.614.614 0 00-.615.615v.378c0 .34.275.615.615.615z" fill="#403882"/><path d="M263.553 65.75h10.804v-4.342h-10.804v4.342z" fill="#403882"/><path d="M263.553 65.75h10.804v-.698h-10.804v.698z" fill="#201851"/><path d="M270.689 67.357s.067 16.182 1.313 16.207c1.245.026 3.795-3.997-1.608-5.478-5.402-1.48-7.75 1.927-6.462 2.054 1.287.126 2.524-1.406 2.684-4.94.16-3.534.168-7.834.168-7.834" stroke="#F59059" stroke-width=".98" stroke-miterlimit="10"/><path opacity=".5" d="M282.848 61.406h-28.19l-40.551 21.896h109.284l-40.543-21.896z" fill="#201851"/><path d="M283.631 59.799h-29.756v1.607h29.756V59.8z" fill="#201851"/><path d="M269.174 23.54h-.841v37.068h.841V23.54z" fill="#201851"/><path d="M512.936 225.591c-2.423-8.861-20.069-.429-29.797 16.956l-.168.294c-1.683 3.072-4.267 7.801-5.234 11.293-11.554 41.729 1.699 41.898 1.969 41.898 6.058-.968 10.013-8.895 14.793-24.244a26.858 26.858 0 001.759-4.098l-7.069-.589-2.869-.244 2.238-.488 8.583-1.859a36.83 36.83 0 00.791-5.849c.362-6.328 4.275-11.688 8.045-16.653l-5.638-4.157 7.271 1.986c3.66-4.83 6.647-9.399 5.326-14.246z" fill="#413B89"/><path d="M478.662 326.578c-.421-59.653 21.711-98.707 32.944-103.167" stroke="#000" stroke-width=".66" stroke-miterlimit="10"/><path d="M479.571 259.527l-3.997 3.602 4.089-1.237c.312 12.513-1.952 24.403-8.027 25.514-8.053 1.464-12.564-20.028-12.842-35.158l5.756 1.498-5.705-3.77c0-.942.084-3.669.151-4.51.8-8.903 3.796-17.974 9.164-23.629a87.021 87.021 0 018.222 18.21 79.914 79.914 0 013.189 19.48z" fill="#201851"/><path d="M458.997 245.466l17.385-5.428a87.15 87.15 0 00-8.222-18.201c-5.368 5.646-8.372 14.734-9.163 23.629z" fill="#042942" opacity=".35"/><path d="M469.145 224.884c2.381 25.11 3.038 83.728 1.599 100.979" stroke="#000" stroke-width=".66" stroke-miterlimit="10"/><path d="M458.988 245.466c2.794-5.351 7.321-7.859 12.176-9.601l-1.498-8.146 3.509 7.464c7.237-2.272 14.819-3.45 18.513-9.971.842-1.54.177-3.467-1.094-4.713a13.68 13.68 0 00-4.779-2.92l-8.609 2.601 4.754-3.518c-8.919-1.077-20.582 4.679-22.972 28.804z" fill="#413B89"/><path d="M463.726 296.098c-4.595 1.877-12.32-8.111-18.252-21.205-.337-.766-.673-1.523-1.01-2.314a116.044 116.044 0 01-1.834-4.603l3.702-.606-4.822-2.524c-2.6-7.734-4.308-15.753-4.291-22.603l17.764 3.551c4.207 6.934 7.674 16.569 9.719 25.573l-1.826 5.259 2.524-1.758c2.062 10.687 1.868 19.783-1.674 21.23z" fill="url(#paint7_linear_406_1782)"/><path d="M463.726 296.098c-4.595 1.877-12.32-8.111-18.252-21.205-.337-.766-.673-1.523-1.01-2.314a116.044 116.044 0 01-1.834-4.603l3.702-.606-4.822-2.524c-2.6-7.734-4.308-15.753-4.291-22.603l17.764 3.551c4.207 6.934 7.674 16.569 9.719 25.573l-1.826 5.259 2.524-1.758c2.062 10.687 1.868 19.783-1.674 21.23z" fill="#201851"/><path d="M442.47 246.207c13.043 27.315 25.96 58.677 24.26 80.371" stroke="#000" stroke-width=".66" stroke-miterlimit="10"/><path d="M454.983 245.786a12.454 12.454 0 00-7.868 1.683l-6.202-3.366 4.796 4.384a15.165 15.165 0 00-3.231 3.559l-.345.505a156.215 156.215 0 00-3.551-2.592l2.23 4.418c-7.102 9.021-16.325 10.999-14.137 2.222.454-1.793.841-3.854 1.573-6.185l4.376-3.038-3.593.598c.135-.468.333-.916.589-1.33a11.257 11.257 0 0110.216-5.31c5.158.244 12.673 1.17 15.147 4.452z" fill="#413B89"/><path d="M487.22 360.658h-31.362l-8.836-42.26h49.85l-9.652 42.26z" fill="url(#paint8_linear_406_1782)"/><path d="M448.73 326.578l1.927 9.223H492.9l2.104-9.223H448.73z" fill="#201851"/><defs><linearGradient id="paint0_linear_406_1782" x1="128.199" y1="266.875" x2="58.389" y2="352.488" gradientUnits="userSpaceOnUse"><stop offset=".05" stop-color="#FAD05B"/><stop offset="1" stop-color="#F8A35A"/></linearGradient><linearGradient id="paint1_linear_406_1782" x1="217.809" y1="200.613" x2="307.377" y2="291.494" gradientUnits="userSpaceOnUse"><stop offset=".05" stop-color="#FAD05B"/><stop offset="1" stop-color="#F8A35A"/></linearGradient><linearGradient id="paint2_linear_406_1782" x1="200.98" y1="249.858" x2="227.327" y2="223.73" gradientUnits="userSpaceOnUse"><stop stop-color="#1252C3"/><stop offset="1" stop-color="#3F86FD"/></linearGradient><linearGradient id="paint3_linear_406_1782" x1="203.782" y1="252.678" x2="230.12" y2="226.558" gradientUnits="userSpaceOnUse"><stop stop-color="#1252C3"/><stop offset="1" stop-color="#3F86FD"/></linearGradient><linearGradient id="paint4_linear_406_1782" x1="308.59" y1="249.858" x2="282.251" y2="223.73" gradientUnits="userSpaceOnUse"><stop stop-color="#1252C3"/><stop offset="1" stop-color="#3F86FD"/></linearGradient><linearGradient id="paint5_linear_406_1782" x1="305.796" y1="252.678" x2="279.448" y2="226.558" gradientUnits="userSpaceOnUse"><stop stop-color="#1252C3"/><stop offset="1" stop-color="#3F86FD"/></linearGradient><linearGradient id="paint6_linear_406_1782" x1="281.064" y1="62.418" x2="262.636" y2="85.534" gradientUnits="userSpaceOnUse"><stop stop-color="#F5995E"/><stop offset=".29" stop-color="#F9AB60"/><stop offset=".71" stop-color="#FDBF62"/><stop offset="1" stop-color="#FFC663"/></linearGradient><linearGradient id="paint7_linear_406_1782" x1="437.219" y1="269.28" x2="466.73" y2="269.28" gradientUnits="userSpaceOnUse"><stop stop-color="#117233"/><stop offset="1" stop-color="#17A350"/></linearGradient><linearGradient id="paint8_linear_406_1782" x1="451.145" y1="300.702" x2="488.381" y2="358.041" gradientUnits="userSpaceOnUse"><stop offset=".05" stop-color="#FAD05B"/><stop offset="1" stop-color="#F8A35A"/></linearGradient></defs></svg>