<svg width="571" height="400" fill="none" xmlns="http://www.w3.org/2000/svg"><path d="M329.707 370.67s1.649-4.881 6.273-6.238c4.623-1.357 13.967-5.524 15.937-8.003 1.971-2.48 1.606-5.995 2.571-6.199.966-.204 2.906 1.305 3.65 1.357.744.052.374 2.001.374 2.001s7.312.235 9.491-.174c0 0 1.897 13.815 1.649 17.017 0 0-5.529.722-10.005.8-4.476.078-24.742.483-29.94-.561z" fill="#403882"/><path d="M369.487 373.871c-.826.161-39.514.501-40.019 0-.504-.5-.33-3.044.248-3.201 5.22 1.044 25.503.644 29.958.561 4.454-.083 10.004-.8 10.004-.8s.636 3.279-.191 3.44z" fill="#E0E6EE"/><path d="M335.98 364.43a32.492 32.492 0 002.209-.735c.949.409 3.128 1.984 3.337 7.647-5.055-.061-9.696-.248-11.819-.674 0 0 1.649-4.88 6.273-6.238z" fill="#E0E6EE"/><path d="M344.066 373.022c.078 0 7.93-.187 11.919-.026 3.989.16 12.614-.435 12.715-.435a.305.305 0 00.287-.318.29.29 0 00-.104-.208.285.285 0 00-.223-.066c-.087 0-8.699.574-12.649.435-3.95-.139-11.88.026-11.958.03a.298.298 0 00-.296.296c0 .079.031.154.087.209a.294.294 0 00.209.087l.013-.004zm77.55-20.034c-.305-.039-9.548.235-10.275.078-.726-.156-1.305-.517-1.179.827.127 1.344-2.061 9.37-2.762 11.745a28.767 28.767 0 00-.918 5.676l21.415-.078s-.374-2.993-1.462-4.946c-1.087-1.953-4.145-10.796-4.445-11.723-.3-.926-.07-1.54-.374-1.579z" fill="#403882"/><path d="M426.435 366.303c-.052-.091-.108-.204-.169-.326-1.027-1.275-2.684-2.301-5.385-2.427-6.96-.274-12.18.435-14.307 6.707a32.97 32.97 0 00-.092 1.07l21.415-.078s-.379-2.993-1.462-4.946z" fill="#E0E6EE"/><path d="M427.897 371.249s.77 2.432.47 2.723c-.301.291-21.228.148-21.706-.065-.479-.213-.435-2.254-.179-2.58.257-.326 18.74-.552 21.415-.078z" fill="#E0E6EE"/><path d="M427.897 371.248v-.135c-3.162-.435-18.905-.435-21.397.192v.021l21.397-.078z" fill="#010117" opacity=".5"/><path d="M385.716 56.128l2.728-6.12-3.145-.948.417 7.068z" fill="#1E194F"/><path d="M378.595 66.113l-.665 20.183s0 12.354-7.621 12.88c-7.621.527-11.702-14.863-11.702-14.863l3.915-19.949 16.073 1.749z" fill="#F69E80"/><path d="M364.597 69.097s4.167 9.86 13.546 10.387l.435-13.376-13.981 2.989z" fill="#D17A62"/><path d="M386.352 49.814s-1.832 25.038-6.991 26.76c-5.159 1.723-15.785-4.332-16.842-12.201-3.454 1.653-10.362-11.897-.283-9.818 0-.008 10.618-23.833 24.116-4.741z" fill="#F69E80"/><path d="M369.765 46.878s6.525 7.595 16.308 6.038l.296-3.532-16.604-2.506z" fill="#D17A62"/><path d="M362.234 54.545s.831 2.353 1.162 2.331c.33-.021 3.162-2.888 3.971-5.911l-.587 3.15s2.923-3.45 2.984-7.24c3.741 4.407 18.217 8.983 22.928-1.526l-2.905-.613 2.122-.653s-7.734-7.569-14.789-9.221c-8.665-1.21-13.128 2.9-14.407 5.22 0 0-4.072 2.24-4.646 2.91-.574.67.635 11.527.635 11.527a11.693 11.693 0 013.532.026z" fill="#403882"/><path d="M342.283 176.597s3.28 76.836 5.442 94.975c2.162 18.139 4.097 81.025 6.442 82.996 2.345 1.97 13.88 1.74 14.189-.301.309-2.04 4.181-61.768 3.48-66.226-.7-4.459-3.554-22.124-3.832-25.06a24.362 24.362 0 01.291-5.951l2.776-47.687s16.964 68.784 19.404 76.714c2.441 7.93 13.589 62.129 17.4 72.151 0 0 10.279 2.232 16.721-2.04 0 0-8.187-58.658-11.149-69.054-2.962-10.396-21.601-110.226-21.601-110.226s-46.37-4.236-49.563-.291z" fill="#1150BE"/><path d="M371.075 209.36l-.888-4.185-7.582-5.511 6.112 50.263 2.358-40.567zm-28.696-30.522s22.345 10.209 50.632 4.154l-1.139-6.09s-45.322-5.176-49.589-.291l.096 2.227z" fill="#094080"/><path d="M342.113 92.003s-4.015 6.773-9.7 20.483c-5.685 13.711-8.112 24.168-8.112 24.168s-24.081 31.606-23.925 31.276c.157-.331 8.365 8.108 8.613 7.943.248-.166 31.776-26.926 31.776-26.926l1.348-56.944z" fill="#F55662"/><path d="M338.394 115.496s-3.389 23.924-6.064 30.106c-2.675 6.181-23.333 30.27-23.333 30.27l31.776-26.925s-.165-30.771-2.379-33.451z" fill="#CE3650"/><path d="M301.781 166.155s-6.62 3.667-7.664 4.21c-1.044.544-6.481 6.02-6.355 6.438.126.418 1.418 1.005 2.257.835.815-.246 1.6-.581 2.341-1 0 0-3.794 7.469-4.376 8.265-.583.796-4.072 6.911-4.072 7.081 0 .17 1.479.944 2.232.47.752-.474 4.597-5.35 4.597-5.35s-4.906 8.725-4.932 8.891c-.026.165 1.618.67 2.479 0 .516-.398.993-.846 1.422-1.336a6.349 6.349 0 00-.556 1.336c.026.226 1.505.556 2.257-.248.753-.805 4.907-7.334 4.907-7.334s-2.775 5.185-2.775 5.52c0 .335 1.927.083 2.51-.557.582-.639 4.071-6.594 5.324-8.221 1.253-1.627 6.481-6.86 7.608-9.283 1.126-2.423-.653-9.97-7.204-9.717z" fill="#F69E80"/><path d="M292.36 176.626s2.175-1.305 3.067-1.305c.892 0 4.933-.783 6.046-2.149 0 0-1.531 2.566-3.371 3.045-1.84.478-6.864 2.61-6.864 2.61l1.122-2.201z" fill="#D17A62"/><path d="M378.064 81.769L403.35 96.04s-10.396 43.543-11.401 50.977c-1.005 7.434-.078 29.879-.078 29.879s-12.406 7.608-25.251 6.586c-12.846-1.023-25.082-5.22-24.329-6.869.752-1.649 1.166-5.342 1.166-5.342s-6.686-41.323-4.681-57.527c2.005-16.203 2.258-20.153 3.345-21.749 1.088-1.596 16.795-9.335 16.795-9.335a10.288 10.288 0 008.961 5.612c6.594.26 10.187-6.503 10.187-6.503z" fill="#F55662"/><path d="M376.312 143.428c-1.336 0-31.941-4.515-31.941-4.515l47.204 28.113c-.143-6.995-.187-15.829.374-20.01.435-3.349 2.806-14.002 5.255-24.711l-2.893-4.137s-16.66 25.26-17.999 25.26z" fill="#CE3650"/><path d="M357.582 85.616s3.345 6.133 9.308 6.469c5.964.334 11.706-5.02 11.706-5.02" stroke="#1E194F" stroke-miterlimit="10" stroke-linecap="round"/><path d="M403.351 96.046s1.896.778 3.232 4.959c1.335 4.18 14.55 44.682 12.545 50.954-2.006 6.273-10.536 9.848-13.633 9.365-3.097-.482-41.807-14.05-41.807-14.05l2.676-11.205s29.096 2.345 31.941 1.34c0 0-4.598-9.031-3.915-22.245.683-13.215 8.961-19.118 8.961-19.118z" fill="#F55662"/><path d="M354.128 128.31s-5.324-2.845-6.09-2.423c-.765.422-.526 1.893-.304 2.145.221.252 2.731 1.505 2.731 1.505l3.663-1.227z" fill="#D17A62"/><path d="M366.363 136.068s-.587 7.525-2.675 11.205c0 0-12.18-3.51-12.85-3.732-.67-.222-5.855-.727-6.133-1.305-.278-.579-2.288-4.785-2.288-6.19 0-1.405.226-3.915.948-4.459.722-.543 9.644-3.51 10.762-3.288 1.118.222 12.236 7.769 12.236 7.769z" fill="#F69E80"/><path d="M354.127 128.312c-1.118-.222-10.035 2.731-10.762 3.288-.726.557-.948 3.045-.948 4.459 0 1.414 2.01 5.633 2.288 6.19.278.556 5.385 1.061 6.116 1.287.043-.774.239-3.949.531-8.012.335-4.681 2.775-7.212 2.775-7.212z" fill="#D17A62"/><path d="M160.865 226.612h41.811l21.179 66.027h-44.416l-18.574-66.027z" fill="#CE3650"/><path d="M208.061 365.899v-64.804h-3.715v64.804h3.715z" fill="#C7CCD1"/><path d="M208.061 365.899v-64.804h-1.358v64.804h1.358z" fill="#A5A7A8"/><path d="M204.171 314.81l-2.954-13.715h9.97l-2.953 13.715h-4.063z" fill="#A5A7A8"/><path d="M227.072 374.094h-41.741v-1.126l16.768-2.758h8.204l16.769 2.758v1.126z" fill="#C7CCD1"/><path d="M211.283 370.523h-10.161l1.888-11.693h6.385l1.888 11.693z" fill="#C7CCD1"/><path d="M203.009 358.83h6.386l1.888 11.693 15.79 2.444h-27.826l4.924-2.101 1.326-11.001-2.488-1.035z" fill="#A5A7A8"/><path d="M225.312 301.095h-38.213v5.676h38.213v-5.676z" fill="#F55662"/><path d="M225.312 301.095h-38.213v1.44h38.213v-1.44z" fill="#CE3650"/><path d="M240.48 292.638h-66.749v8.46h66.749v-8.46z" fill="#F55662"/><path d="M240.475 292.638h-61.037l61.037 2.483v-2.483z" fill="#CE3650"/><path d="M173.731 301.095l-19.005-69.867 6.138-4.616 18.574 66.027-5.707 8.456z" fill="#F55662"/><path d="M271.637 351.193l2.022 6.447s-1.922 16.881-1.009 17.351c.914.47 37.735.048 41.994 0a.437.437 0 00.435-.409c.126-1.305.33-5.354-1.74-6.329-2.453-1.17-17.426-10.374-18.039-12.092-.613-1.719-2.336-12.271-2.336-12.271l-21.327 7.303z" fill="#F79F81"/><path d="M288.493 357.331c.983 4.132 11.679 10.004 11.679 10.004 3.624 1.601 7.717.914 11.044-.274-4.898-2.845-15.381-9.478-15.89-10.909-.617-1.74-2.336-12.271-2.336-12.271l-6.59 2.253.209 1.122s.901 5.947 1.884 10.075z" fill="#CF7961"/><path d="M272.662 374.989c.87.435 37.735.048 41.994 0a.437.437 0 00.435-.409c.126-1.305.33-5.355-1.74-6.329-.709-.339-2.48-1.357-4.646-2.671 1.305 2.793-8.547 1.74-8.547 1.74.983 1.792-8.348 3.18-17.491 1.827-9.144-1.353-9.879-2.888-9.879-2.888-.348 4.254-.591 8.499-.126 8.73z" fill="#403882"/><path d="M315.087 374.586c.126-1.305.33-5.355-1.74-6.329-.709-.34-2.48-1.357-4.646-2.671 1.305 2.793-8.547 1.74-8.547 1.74s5.955 1.949 6.994 3.393c.701.965.696 3.045.618 4.319l6.86-.065a.437.437 0 00.461-.387z" fill="#232059"/><path d="M180.358 254.597s-18.466 38.04 8.969 38.04h58.454s3.358 15.69 8.756 26.812c5.398 11.123 14.355 32.559 14.355 32.559s9.939-.691 15.707-4.741c0 0 6.259-.922 7.06-2.701 0 0-15.66-71.434-21.789-75.118-6.129-3.685-51.672-21.641-51.672-21.641s-22.245-8.917-39.84 6.79z" fill="#1150BE"/><path d="M293.667 344.564s-15.659-71.433-21.788-75.118c-2.206-1.305-9.5-4.489-17.939-8.004-19.383-3.48-43.986-6.846-43.986-6.846s56.648 13.258 60.328 19.026c3.68 5.768 16.325 73.643 16.325 73.643s6.26-.922 7.06-2.701z" fill="#094080"/><path d="M230.109 184.4c-2.536-5.241 3.915-31.262 4.42-33.389.504-2.127-3.437-3.685-3.437-3.685.575-6.216-11.375-9.408-22.258-8.834-10.883.574-16.208 13.989-18 24.872-1.648 9.983-4.254 11.906-4.676 12.154l-.061.035c-6.838 4.123-13.245 3.793-12.223 10.091 1.022 6.299-10.466 7.508-.339 16.739 14.189 12.936 56.548-1.975 60.254-7.761 3.706-5.785-3.68-10.222-3.68-10.222z" fill="#403882"/><path d="M230.109 184.399s-26.748-1.239-44.008-8.847c-6.838 4.123-13.245 3.793-12.223 10.091 1.022 6.299-10.466 7.508-.339 16.739 14.189 12.936 56.548-1.975 60.254-7.76 3.706-5.786-3.684-10.223-3.684-10.223z" fill="#1E194F"/><path d="M228.679 147.207s-9.452 16.16-13.215 18.704c-3.762 2.545-15.016-3.914-15.016-3.914-1.339 6.05 2.95 8.599 2.95 8.599-2.371-.831-3.915-2.105-4.816-3.654-4.528 8.787-12.479 8.613-12.479 8.613 17.264 7.608 44.011 8.848 44.011 8.848a4.043 4.043 0 01-.213-.561c-2.175-6.06-.069-11.519 1.279-23.49 1.388-12.366-2.501-13.145-2.501-13.145z" fill="#1E194F"/><path d="M228.677 147.204s.309 16.446-6.259 29.17c-.496.965-4.08.5-4.08.5s-.627 5.516-.544 7.521c.083 2.005-2.697 3.68-10.514.161-2.044-.922-5.889-4.011-5.889-4.011s1.84-7.608 2.005-10.004c0 0-6.138-2.61-4.35-10.105 1.788-7.495 19.405-16.899 29.631-13.232z" fill="#FDA181"/><path d="M205.067 170.657c-.601.435-1.671-.092-1.671-.092 0 .187-.039.409-.069.653a2.003 2.003 0 001.74-.561z" fill="#CF7961"/><path d="M203.397 170.562s-4.289-2.549-2.949-8.599c0 0 11.845 2.209 15.59-2.702 3.745-4.911 6.934-13.593 12.641-12.057 0 0-6.138-7.674-16.508-3.254-10.37 4.419-21.719 22.054-8.774 26.612z" fill="#403882"/><path d="M203.396 170.566s-4.289-2.55-2.949-8.6a24.16 24.16 0 01-1.866 4.946c.896 1.548 2.444 2.823 4.815 3.654z" fill="#1E194F"/><path d="M218.339 176.872s-4.419-.613-7.734-2.301c0 0 4.063 3.345 7.495 4.637l.239-2.336z" fill="#CF7961"/><path d="M201.39 180.545s-14.82 4.011-18.169 7.938c-3.349 3.928-22.741 46.596-15.39 56.623 2.645 3.601 15.381 0 15.381 0l-2.862 9.491s17.887-2.779 24.329-5.22c6.442-2.44 15.52-1.553 15.52-1.553s1.884-10.152 3.193-12.523c1.309-2.371 2.727-4.515 2.727-4.515s4.154 10.622 7.83 11.057c3.676.435 15.303-6.551 15.303-6.551s-10.635-40.519-16.53-45.238c-5.894-4.72-14.933-6.556-14.933-6.556s-.169 2.824-3.915 2.723c-6.424-.195-12.484-5.676-12.484-5.676z" fill="#FFC861"/><path d="M183.22 245.107s12.932-7.038 14.977-10.392c2.044-3.354 26.182-1.57 26.182-1.57s-20.375 3.145-22.259 5.654c-1.883 2.51-20.287 10.875-20.287 10.875l1.387-4.567zm50.729-3.636c3.684.409 15.303-6.525 15.303-6.525s-7.282-5.972-9.901-12.915c-2.618-6.942-8.591-23.902-8.591-23.902s3.52 11.618 2.21 16.608c-1.309 4.989-6.851 15.69-6.851 15.69s4.154 10.635 7.83 11.044zm-42.827-34.887l-6.995 23.054s13.071-6.011 16.447-6.381c0 0-10.066-.631-9.983-2.801l.531-13.872z" fill="#D17E2C"/><path d="M200.573 223.236s-4.832 6.138-2.375 11.475l18.083-7.551s-4.785-3.31-7.238-3.371c-2.454-.061-8.47-.553-8.47-.553z" fill="#F79F81"/><path d="M338.297 235.468l25.112 132.375c.6 3.223-1.575 6.238-4.546 6.238-1.97 0-3.723-1.384-4.38-3.48l-42.737-135.133m-154.642-.001l-25.117 132.375c-.609 3.224 1.597 6.251 4.546 6.251 1.975 0 3.728-1.383 4.385-3.48l42.737-135.168" stroke="#000" stroke-width="2" stroke-miterlimit="10"/><path d="M45.144 226.612h41.815l21.176 66.027H63.722l-18.578-66.027z" fill="#CE3650"/><path d="M92.345 365.899v-64.804H88.63v64.804h3.715z" fill="#C7CCD1"/><path d="M92.345 365.903v-64.804h-1.357v64.804h1.357z" fill="#A5A7A8"/><path d="M88.455 314.81l-2.954-13.715h9.97l-2.953 13.715h-4.063z" fill="#A5A7A8"/><path d="M111.357 374.094H69.615v-1.126l16.769-2.758h8.204l16.769 2.758v1.126z" fill="#C7CCD1"/><path d="M95.567 370.523h-10.16l1.887-11.693h6.386l1.887 11.693z" fill="#C7CCD1"/><path d="M87.293 358.83h6.386l1.888 11.693 15.79 2.444H83.531l4.924-2.101 1.326-11.001-2.488-1.035z" fill="#A5A7A8"/><path d="M109.596 301.095H71.383v5.676h38.213v-5.676z" fill="#F55662"/><path d="M109.596 301.095H71.383v1.44h38.213v-1.44z" fill="#CE3650"/><path d="M124.76 292.638H58.011v8.46h66.749v-8.46z" fill="#F55662"/><path d="M124.759 292.638H63.722l61.037 2.483v-2.483z" fill="#CE3650"/><path d="M58.01 301.095l-19-69.867 6.134-4.616 18.578 66.027-5.712 8.456z" fill="#F55662"/><path d="M525.704 227.355h-41.815l-21.175 66.023h44.416l18.574-66.023z" fill="#CE3650"/><path d="M482.219 366.642v-64.804h-3.715v64.804h3.715z" fill="#C7CCD1"/><path d="M479.861 366.642v-64.804h-1.357v64.804h1.357z" fill="#A5A7A8"/><path d="M482.393 315.549l2.953-13.711h-9.97l2.954 13.711h4.063z" fill="#A5A7A8"/><path d="M459.49 374.838h41.742v-1.127l-16.769-2.758h-8.204l-16.769 2.758v1.127z" fill="#C7CCD1"/><path d="M475.28 371.266h10.162l-1.888-11.693h-6.386l-1.888 11.693z" fill="#C7CCD1"/><path d="M483.554 359.573h-6.386l-1.888 11.693-15.79 2.444h27.826l-4.924-2.101-1.326-11 2.488-1.036z" fill="#A5A7A8"/><path d="M461.252 307.515h38.213v-5.677h-38.213v5.677z" fill="#F55662"/><path d="M461.252 303.278h38.213v-1.439h-38.213v1.439z" fill="#CE3650"/><path d="M446.084 301.838h66.749v-8.461h-66.749v8.461z" fill="#F55662"/><path d="M446.089 293.376h61.042l-61.042 2.488v-2.488z" fill="#CE3650"/><path d="M512.837 301.838l19.004-69.872-6.137-4.611-18.574 66.023 5.707 8.46z" fill="#F55662"/><path d="M174.183 350.405l1.505 6.647s15.563 9.269 18.756-1.305l-5.481-12.55-14.78 7.208z" fill="#FDA181"/><path d="M175.663 356.914s-1.149 17.834-.792 17.995c.357.161 40.523 0 44.947 0a.435.435 0 00.435-.404c.122-1.74.37-8.639-3.371-10.144-4.289-1.74-17.399-5.959-19.783-8.461-2.384-2.501-3.654-2.718-4.041-2.509-.387.208-2.78 1.792-2.719 3.58.061 1.787.148 2.831-.478 2.714-.627-.118-6.734.296-7.565-.957-.831-1.253-6.633-1.814-6.633-1.814z" fill="#1E194F"/><path d="M174.888 374.909c.339.169 40.523 0 44.947 0a.436.436 0 00.435-.405c.122-1.74.37-8.639-3.371-10.144-2.092-.844-6.286-2.284-10.309-3.828-2.175 3.48-2.023 11.436-2.023 11.436h-29.705c-.07 1.727-.07 2.897.026 2.941z" fill="#E0E6EE"/><path d="M144.852 354.453l-.179 2.61s12.911 12.336 16.095 1.779l1.079-5.277-16.995.888z" fill="#FDA181"/><path d="M144.665 356.914s-1.149 17.834-.792 17.995c.357.161 40.523 0 44.947 0a.435.435 0 00.435-.405c.122-1.739.37-8.638-3.371-10.143-4.289-1.74-18.796-3.533-21.18-6.038-2.383-2.506-2.153-3.215-2.779-3.215-.627 0-2.645.074-2.584 1.862.061 1.788.148 2.832-.478 2.714-.627-.117-6.734.296-7.565-.957-.831-1.252-6.633-1.813-6.633-1.813z" fill="#403882"/><path d="M143.824 374.672a.69.69 0 010-.091v-2.601h29.701s-.117-6.416 1.436-10.249c4.35.944 8.817 1.801 10.896 2.641.231.091.451.206.657.343a4.66 4.66 0 011.466 1.632c.252.457.459.938.618 1.435.257.776.44 1.574.548 2.384.069.526.113 1.048.139 1.54.026.491.03.957.03 1.37v.578c0 .357-.03.657-.043.87a.436.436 0 01-.27.37.385.385 0 01-.161.035h-43.525l-1.139-.026h-.305s-.021-.026-.026-.065a.31.31 0 010-.061.337.337 0 01-.022-.105z" fill="#E0E6EE"/><path d="M174.971 289.649l14.863 54.004s-10.37 6.259-15.659 6.751l-10.188-19.209 10.984-41.546z" fill="#1E194F"/><path d="M111.966 261.132s48.832 1.423 54.269 2.654c5.438 1.231 10.831 7.699 11.897 16.699 1.066 9-16.281 73.078-16.281 73.078s-15.094 2.209-17 .9c0 0 .061-45.495.631-47.374.57-1.879 2.701-11.949 2.701-11.949l-71.981-1.88s23.08-32.863 35.764-32.128z" fill="#403882"/><path d="M148.183 295.128l1.636-4.006s-55.935 3.597-73.617 2.127l71.981 1.879zm-57.778-16.995s17.399 1.619 18.495 1.984a15.902 15.902 0 0011.171 0c5.655-2.084 18.704-1.74 18.704-1.74s-18.269-1.44-28.043-3.958c-9.774-2.519-16.86.3-16.86.3l-3.467 3.414z" fill="#1E194F"/><path d="M101.397 275.881s5.655.765 6.386 1.013c.73.248 6.594 3.772 9.156 3.663 2.562-.109 9.544-2.514 10.77-2.484 1.227.031 10.157.644 11.045.305.251-.086.482-.223.678-.402.195-.18.351-.399.457-.642 0 0 1.161 0 1.914-1.462a.342.342 0 00-.067-.415.332.332 0 00-.129-.076l-2.118-.653a1.31 1.31 0 00.617-.961.242.242 0 00-.156-.257c-1.431-.57-11.31-4.498-12.058-4.611-.748-.113-11.745-1.353-13.102-1.783-1.357-.431-7.83-3.223-7.83-3.223l-5.563 11.988z" fill="#FDA181"/><path d="M146.988 215.964l-29.866 1.953s-23.611-26.786-30.175-29.305c-6.564-2.518-22.902-4.223-22.902-4.223s-12.885 7.599-18.879 13.554c0 0-.635.283-1.265 2.271l-.053.165c-.74 2.436-1.444 7.255-1.096 16.751.653 17.835 6.055 44.347 9.326 46.722.618.435 2.38 1.114 4.911 1.91l8.36 26.873 10.875.614s8.526-9.762 17.66-18.544c3.107.579 5.73 1 7.531 1.174 0 0 5.124-4.75 5.589-12.275 1.91-1.27 3.61-2.149 4.981-2.475 0 0-7.365-4.907-8.104-7.116-.74-2.21-4.006-27.404-4.006-27.404s12.11 8.991 15.463 9.4c3.354.408 32.855-8.848 32.855-8.848l-1.205-11.197z" fill="#1150BE"/><path d="M114.764 231.833c6.96 2.989 33.394-4.676 33.394-4.676s-29.479 9.261-32.837 8.848c-3.358-.413-15.464-9.391-15.464-9.391s-3.506-18.583-5.15-24.229c0-.009 13.097 26.46 20.057 29.448z" fill="#094080"/><path d="M170.668 227.163l1.562-20.579h-13.85l1.566 20.579h10.722z" fill="#F4F1EE"/><path d="M158.516 206.302h13.667l-.774-3.319a1.924 1.924 0 00-1.832-1.74h-8.46a1.917 1.917 0 00-1.827 1.74l-.774 3.319z" fill="#1150BE"/><path d="M165.341 206.302h-6.825l.774-3.319a1.915 1.915 0 011.827-1.74h4.224v5.059z" fill="#094080"/><path d="M171.943 207.589h-13.276a.871.871 0 01-.87-.87v-.787c0-.242.096-.473.267-.643a.905.905 0 01.642-.267h13.207c.241 0 .472.096.642.267.171.17.267.401.267.643v.787a.87.87 0 01-.87.87h-.009z" fill="#1150BE"/><path d="M165.305 207.585h-6.655a.897.897 0 01-.87-.939v-.648a.942.942 0 01.891-.983h6.617l.017 2.57z" fill="#094080"/><path d="M171.922 210.453h-13.233l.953 11.919h11.345l.935-11.919z" fill="#1150BE"/><path d="M165.306 222.372h-5.664l-.953-11.919h6.617v11.919z" fill="#094080"/><path d="M165.306 220.433c2.887 0 5.228-2.58 5.228-5.763s-2.341-5.764-5.228-5.764c-2.888 0-5.229 2.581-5.229 5.764 0 3.183 2.341 5.763 5.229 5.763z" fill="#403882"/><path d="M165.301 220.433c-2.888 0-5.219-2.579-5.219-5.763 0-3.184 2.34-5.764 5.219-5.764v11.527z" fill="#1E194F"/><path d="M148.176 227.161s-1.74-2.279-1.188-11.196l6.96-.266s2.884-3.776 4.293-3.958c1.41-.183 9.27-.922 9.696-.4.426.522-.522 3.045-2.144 3.649-1.623.605-6.416 1.305-6.416 1.305l.569 10.875-11.77-.009z" fill="#FDA181"/><path d="M59.337 273.382c5.29.809 24.96 3.828 31.05 4.746a236.37 236.37 0 013.48-3.423c-5.95-.992-36.9-8.939-36.9-8.939l2.37 7.616zm5.364-52.946l3.989 28.274 38.279 14.911c1.909-1.27 3.61-2.149 4.98-2.475 0 0-7.364-4.907-8.103-7.116 0 0-29.223-4.646-31.185-6.447-1.961-1.801-7.96-27.147-7.96-27.147z" fill="#094080"/><path d="M91.087 148.842s4.011-.409 4.42.287c.409.696-3.48 4.707-3.48 4.707l-.94-4.994z" fill="#1E194F"/><path d="M64.045 184.399l.778-15.138s-7.938-10.874-1.226-19.065c6.711-8.191 29.104-1.336 29.104-1.336s1.258 31.011-1.283 32.842c-2.049 1.47-7.938.244-7.938.244s-.327 5.972-.166 9.082c.161 3.11-19.27-6.629-19.27-6.629z" fill="#FDA181"/><path d="M83.372 184.4l-10.9-3.484 11.009 1.031-.109 2.453z" fill="#CF7A62"/><path d="M68.338 156.779s3.645 8.304 3.915 10.635c.27 2.332-.244 13.259.204 13.485.448.226 18.579 4.193 20.845 2.558 2.266-1.636-.287-15.125-.287-15.125a11.054 11.054 0 00-3.689 1.148c-1.583.779-13.05-2.131-13.05-2.131l-4.502-11.575s3.915-2.867 4.054-5.442c0 0 13.42 1.305 16.856-.043 3.437-1.349 4.498-6.79 4.006-7.608-.491-.818-10.187-4.828-18.491-4.828s-19.187 4.993-19.14 6.524c.049 1.532 0 3.393 0 3.393s-2.696 3.232-2.983 4.42c-.288 1.187 6.233 15.916 8.7 17.799l2.405-3.045s-3.52.81-5.481-6.089c-1.962-6.899 6.638-4.076 6.638-4.076zm440.959 110.453s3.01 26.099-3.854 26.099-63.356 1.218-63.356 1.218l-12.18-40.71 36.574-.805s35.099-3.95 42.816 14.198z" fill="#403882"/><path d="M466.489 253.022s7.708.239 17.104 9.313c7.621 7.364 21.219 8.265 26.077 8.361-.204-2.106-.382-3.48-.382-3.48-7.708-18.131-42.799-14.194-42.799-14.194zm-28.096 34.226s1.74 7.29 3.671 7.29c1.931 0 1.448-7.29 1.448-7.29h-5.119z" fill="#232059"/><path d="M429.917 253.827s-14.172-.5-16.504 7.639c-2.331 8.138.318 86.062-2.327 92.739-2.645 6.677-8.265 13.015-8.265 13.015s7.304 4.036 12.767.939c5.464-3.097 11.001-16.064 11.001-16.064s-2.814-3.123-2.249-6.407c.566-3.284 11.423-37.409 11.814-43.742.392-6.334-1.135-14.699-1.135-14.699h8.508s1.044-17.999-13.61-33.42z" fill="#F79F81"/><path d="M429.916 253.827s-14.171-.5-16.503 7.639c-1.266 4.419-1.061 29.418-1.035 52.416 1.166-9 4.424-29.893 9.809-32.751 6.894-3.658 17.173-1.278 17.173-1.278s1.279 2.175 1.379 7.394h2.788s1.044-17.999-13.611-33.42z" fill="#CF7961"/><path d="M404.67 364.944a14.617 14.617 0 01-4.35 3.223c-2.397 1.109-4.72 2.301-5.146 5.22a.666.666 0 00.161.519.65.65 0 00.496.22h20.771s2.114.031 4.219-5.976c2.105-6.007 3.854-8.117 3.854-8.117l-.239 14.093h.844l3.34-14.789a8.11 8.11 0 00-2.992-8.561 18.6 18.6 0 00-4.785 4.868c-1.866 2.932-5.059 8.465-9.135 10.005a7.572 7.572 0 01-7.038-.705z" fill="#F55662"/><path d="M429.918 253.827a28.764 28.764 0 00-3.398.135l-2.388.095a16.38 16.38 0 00-14.559 10.296c-8.23 20.614-26.678 66.74-28.918 71.417-2.892 6.042-19.405 12.849-19.405 12.849 1.706 10.64 24.769 2.297 26.809 1.618 2.04-.678 3.236-4.428 5.276-10.383 2.04-5.955 19.04-27.065 19.044-27.065 0 0 1.809-26.534 7.138-32.68 4.045-4.65 16.817-4.059 22.741-3.502a49.354 49.354 0 00-12.34-22.78z" fill="#F79F81"/><path d="M391.303 345.589a11.903 11.903 0 01-2.423 5.842c-2.127 2.579-7.26 8.195-7.26 8.195l-.87-.479 2.071-4.911s-.822-.365-4.737 1.336c-3.915 1.7-7.151 3.175-12.88 2.609-5.729-.565-10.205-1.439-11.201-5.289-.713-2.766 6.734-3.915 9.918-5.446 0 0-.248 4.785 6.472 3.815 6.721-.97 18.083-6.577 20.91-5.672z" fill="#F55662"/><path d="M493.351 186.604s20.674 6.142 23.645 11.68c2.971 5.537 14.694 43.364 13.733 50.893-.961 7.53-10.762 11.484-13.894 11.001-3.131-.483-7.468-2.009-7.468-2.009l-.079 9.073s-15.737 1.366-23.924-4.815c-8.186-6.181-14.533-9.478-18.87-9.396l-3.044-10.679s-6.347 6.343-12.045 6.525c-5.699.183-13.25-4.659-14.133-7.395-.883-2.736 15.577-23.289 20.075-33.324 4.497-10.035 7.547-15.416 9.474-16.299 1.927-.883 8.391-2.492 8.391-2.492l18.139-2.763z" fill="#1150BE"/><path d="M461.353 207.334s-3.48 3.258-7.938 7.895c-6.49 10.483-16.86 24.05-16.151 26.234.87 2.727 8.43 7.547 14.132 7.395 5.703-.152 12.045-6.525 12.045-6.525s-6.381-18.556-6.412-21.823c-.03-3.267 4.324-13.176 4.324-13.176z" fill="#094080"/><path d="M479.118 217.394l-17.03 13.093" stroke="#232059" stroke-width="2" stroke-miterlimit="10" stroke-linecap="round"/><path d="M509.368 258.165l-25.734-11.096-12.344-7.395s9.935 8.673 12.466 11.309c2.532 2.637 25.564 12.789 25.564 12.789l.048-5.607z" fill="#094080"/><path d="M483.633 247.068s.966-6.025 3.976-10.358l-6.203-1.927s-7.799-10.03-9.274-10.539c-1.474-.509-13.432 2.049-13.432 2.049l6.146 11.218s8.83 5.141 9.635 5.342c.805.2 9.152 4.215 9.152 4.215z" fill="#F79F81"/><path d="M472.132 224.263c-1.474-.513-13.432 2.049-13.432 2.049l6.146 11.218s1.075.627 2.506 1.449c-1.179-5.855 4.78-14.716 4.78-14.716z" fill="#CF7961"/><path d="M468.179 239.256l-15.499-30.515-31.958-7.786-1.205.844 2.888 2.327 13.815 26.056 28.487 8.091 2.267 1.827 1.205-.844z" fill="#232059"/><path d="M451.475 209.584l15.499 30.514-31.959-9.073-15.498-29.227 31.958 7.786z" fill="#F55662"/><path d="M445.621 234.018s.617-3.659.435-4.959c-.183-1.301-1.366 4.693-1.366 4.693l.931.266z" fill="#CE3650"/><path d="M423.483 206.082c.342-.159.421-.712.178-1.235-.244-.522-.719-.817-1.061-.657-.341.159-.421.712-.177 1.235.244.522.718.816 1.06.657z" fill="#232059"/><path d="M439.069 220.969s6.986 6.56 6.986 8.13c0 1.57-1.366 4.693-1.366 4.693s.87 1.932.583 2.958c-.288 1.027-3.185 6.168-8.009 4.737-2.174-.643-4.097-9.134-3.975-9.878.122-.744 3.854-11.201 5.781-10.64z" fill="#F79F81"/><path d="M445.273 236.726c.3-1.026-.583-2.957-.583-2.957l-.561 1.509s1.174 3.554-2.901 5.911c2.422-1.131 3.84-3.762 4.045-4.463z" fill="#CF7961"/><path d="M487.61 236.73l21.197 3.793-4.698-21.741 1.144 18.309-17.643-.361z" fill="#094080"/><path d="M433.288 231.587s-1.084-2.945-.844-5.407c.239-2.462 2.37 3.602 2.37 3.602l-1.526 1.805z" fill="#CF7961"/><path d="M460.308 154.26s-2.41 6.181 0 13.972c2.41 7.791 7.947 16.782 9.313 16.86 1.366.078 5.581-2.288 5.581-2.288.37 2.159.37 4.366 0 6.525-.605 3.858-.605 9.278 3.371 9.639 3.976.361 10.24-4.98 14.79-12.406 0 0-4.35-14.015-3.654-17.147.696-3.132 6.063-7.225 2.127-15.377-3.937-8.151-29.44-9.856-31.528.222z" fill="#F79F81"/><path d="M483.993 138.136s-1.988-6.62 7.286-10.235c9.274-3.615 17.165 10.005 15.72 15.96-1.444 5.955-10.239 5.22-10.239 5.22l-12.767-10.945z" fill="#403882"/><path d="M506.96 143.863c.614-2.541-.47-6.464-2.61-9.857 1.618 6.586-2.84 10.979-7.856 6.925-5.015-4.054-12.527-2.793-12.527-2.793l12.767 10.966s8.778.722 10.226-5.241z" fill="#232059"/><path d="M481.184 139.131s2.088-2.145 7.447-.122 8.373 7.804 8.434 9.853c.061 2.048-2.049 5.541-2.049 5.541l-13.832-15.272z" fill="#F55662"/><path d="M484.276 160.503s1.605-3.35 3.993-2.95c2.388.401 3.893 2.65 2.992 6.604-.9 3.954-3.754 4.819-3.754 4.819l2.175 2.353s9.135-8.599 8.226-14.68c-.909-6.081-6.203-15.416-15.355-17.282-9.152-1.866-20.175 4.215-25.112 13.188 0 0-4.65 2.902 1.862 10.323 0 0-.396-5.829 1.57-7.112 0 0 10.396 8.551 14.79 8.151 4.393-.4 5.655-1.527 5.655-1.527s1.444 3.011 2.175 2.893c.73-.117.783-4.78.783-4.78z" fill="#403882"/><path d="M459.299 162.858s-.396-5.829 1.57-7.112c0 0-7.921-1.031-1.57 7.112zm31.963 1.277c-.905 3.954-3.754 4.82-3.754 4.82l2.175 2.353s9.134-8.6 8.225-14.681a20.252 20.252 0 00-1.5-5.02c0 .027 2.936 9.135-4.35 9.718l-.561.061a9.146 9.146 0 01-.235 2.749z" fill="#232059"/><path d="M475.202 182.807s4.92-2.91 7.147-5.22c0 0-3.576 5.685-6.895 7.551a20.501 20.501 0 00-.252-2.331z" fill="#CF7961"/><path d="M291.185 196.56l-20.235 28.148h-37.37l20.592-28.657a1.752 1.752 0 011.405-.743h35.052a.786.786 0 01.648.462.78.78 0 01-.092.79zm-19.022 30.449h-71.86v-1.04a1.262 1.262 0 011.262-1.261h70.598v2.301z" fill="#0B0D09"/><path d="M234.785 227.009h37.378v-2.301h-37.378v2.301z" fill="#094080"/><path d="M292.433 196.5l-20.27 28.209h-37.374l20.744-28.861a1.248 1.248 0 011.035-.548h35.356a.736.736 0 01.61.45c.052.122.07.257.052.389a.737.737 0 01-.153.361z" fill="url(#paint0_linear_406_1555)"/><path d="M264.398 208.672a2.567 2.567 0 011.779-.196c-.905.604-1.4 1.514-1.131 2.175.235.596.996.839 1.871.674a2.969 2.969 0 01-1.101.896c-1.196.574-2.484.239-2.875-.744-.392-.983.239-2.231 1.457-2.805z" fill="#0B0D09"/><path d="M412.703 235.468L437.82 369.57c.609 3.262-1.597 6.333-4.55 6.333-1.971 0-3.724-1.405-4.381-3.506l-42.737-136.929m-154.642 0L206.398 369.57c-.613 3.262 1.592 6.333 4.546 6.333 1.97 0 3.723-1.405 4.38-3.506l42.738-136.929" stroke="#000" stroke-width="2" stroke-miterlimit="10"/><path d="M444.61 226.287H199.604v11.127H444.61v-11.127z" fill="url(#paint1_linear_406_1555)"/><path d="M127.4 237.414h72.581v-11.127H127.4v11.127z" fill="#201851"/><path d="M276.779 26.613H148.318v100.008h128.461V26.613z" fill="#000" opacity=".4"/><path d="M278.857 24.533h-128.46v100.008h128.46V24.533z" fill="#094080"/><path d="M280.623 24.533h-128.46v100.008h128.46V24.533z" fill="url(#paint2_linear_406_1555)"/><path d="M278.128 26.617H154.609v95.845h123.519V26.617z" fill="#EAF1F7"/><path d="M194.674 77.41h-31.341V38.275l5.316-4.79h26.025V77.41z" fill="#fff"/><path d="M163.333 38.275h5.142l.174-4.79-5.316 4.79zm20.689-.98h-10.035v.478h10.035v-.478zm2.363 1.431h-14.76v.478h14.76v-.478zm5.166 9.209h-24.507v.613h24.507v-.613zm0 1.868h-24.507v.613h24.507v-.613zm0 1.865h-24.507v.613h24.507v-.613zm0 1.866h-24.507v.614h24.507v-.614zm0 19.968h-24.507v.613h24.507v-.613zm52.756-38.337h-14.946v13.176h14.946V35.165z" fill="#1150BE"/><path d="M236.177 36.732a.657.657 0 111.315-.002.657.657 0 01-1.315.002z" fill="#FDA214"/><path d="M219.393 69.744l-16.62 1.16 1.022 14.649 16.62-1.16-1.022-14.649z" fill="#fff"/><path d="M210.548 73.013a.735.735 0 01.822-.775.732.732 0 01-.044 1.453.733.733 0 01-.778-.678z" fill="#1150BE"/><path d="M219.543 53.331h-17.895V41.308l4.954-4.554h12.941V53.33z" fill="#fff"/><path d="M201.551 41.308h4.89l.16-4.554-5.05 4.554zm9.11-3.039a.588.588 0 01.363-.55.592.592 0 11-.363.55z" fill="#1150BE"/><path d="M274.068 112.213h-20.927V98.15l5.794-5.32h15.133v19.383z" fill="#A6CDF5"/><path d="M253.029 98.15h5.716l.191-5.32-5.907 5.32zm10.653-3.528a.69.69 0 01.424-.635.688.688 0 11-.424.635z" fill="#1150BE"/><path d="M246.451 112.213h-20.927V98.15l5.794-5.32h15.133v19.383z" fill="#F55662"/><path d="M225.411 98.15h5.716l.191-5.32-5.907 5.32z" fill="#CE3650"/><path d="M236.063 94.622a.692.692 0 01.425-.635.687.687 0 11-.425.635z" fill="#201851"/><path d="M273.003 45.041h-14.224v-9.56l3.937-3.62h10.287v13.18z" fill="#F55662"/><path d="M258.701 35.48h3.888l.127-3.619-4.015 3.62z" fill="#CE3650"/><path d="M265.942 33.086c0-.093.026-.184.077-.262a.472.472 0 01.828.437.476.476 0 01-.435.29.474.474 0 01-.47-.466v.001z" fill="#201851"/><path d="M194.675 87.476h-27.648v17.364h27.648V87.476z" fill="#042942" opacity=".4"/><path d="M167.275 81.677s-2.136 18.617 6.09 24.72h28.587s-8.326-10.274-7.003-24.72h-27.674z" fill="#FFC861"/><path d="M181.478 84.084a.626.626 0 100-1.252.626.626 0 000 1.252z" fill="#273280"/><path d="M172.291 94.622l18.213-1.792m-15.569 5.321l17.704-.604m-18.247 2.477l18.926-.953" stroke="#273280" stroke-width=".5" stroke-miterlimit="10" stroke-linecap="round"/><path d="M261.689 64.592h-27.648v17.365h27.648V64.592z" fill="#042942" opacity=".4"/><path d="M234.289 58.79s-2.136 18.62 6.089 24.724h28.592s-8.343-10.275-7.021-24.725h-27.66z" fill="#FFC861"/><path d="M248.492 61.197a.626.626 0 100-1.252.626.626 0 000 1.252z" fill="#273280"/><path d="M239.305 71.732l18.208-1.793m-15.563 5.327l17.704-.605m-18.248 2.476l18.926-.948" stroke="#273280" stroke-width=".5" stroke-miterlimit="10" stroke-linecap="round"/><defs><linearGradient id="paint0_linear_406_1555" x1="224.24" y1="246.241" x2="274.316" y2="200.746" gradientUnits="userSpaceOnUse"><stop stop-color="#1252C4"/><stop offset="1" stop-color="#3F87FE"/></linearGradient><linearGradient id="paint1_linear_406_1555" x1="453.75" y1="192.723" x2="183.188" y2="273.144" gradientUnits="userSpaceOnUse"><stop offset=".05" stop-color="#FAD05B"/><stop offset="1" stop-color="#F8A35A"/></linearGradient><linearGradient id="paint2_linear_406_1555" x1="152.163" y1="74.539" x2="280.623" y2="74.539" gradientUnits="userSpaceOnUse"><stop stop-color="#1252C4"/><stop offset="1" stop-color="#3F87FE"/></linearGradient></defs></svg>