<svg width="550" height="480" viewBox="0 0 550 480" fill="none" xmlns="http://www.w3.org/2000/svg">
<path d="M294.962 438.495C294.962 438.495 364.296 437.13 364.516 445.878C364.736 454.626 292.818 455.497 277.218 456.092C261.618 456.688 199.979 454.187 189.719 459.756C179.459 465.326 86.6106 465.152 94.8916 456.092C103.172 447.033 153.893 454.791 168.055 450.752C182.217 446.712 255.38 437.863 294.962 438.495Z" fill="#CCCBCB"/>
<path d="M429.618 407.048C429.618 407.048 469.768 410.071 461.524 416.117C453.279 422.162 413.359 423.188 396.485 424.736C379.612 426.285 291.573 424.223 279.371 424.736C267.169 425.249 52.9557 428.62 72.8153 419.24C92.6748 409.86 110.116 409.045 151.493 408.065C192.87 407.085 429.618 407.048 429.618 407.048Z" fill="#CCCBCB"/>
<path d="M432.779 405.417C433.951 405.94 476.345 351.711 462.165 348.156C447.985 344.602 447.133 339.069 454.489 329.204C461.844 319.338 448.287 317.497 441.664 322.141C435.041 326.785 448.763 305.442 441.967 303.014C435.17 300.587 429.142 309.427 430.379 322.104C431.615 334.782 421.218 319.933 419.102 326.987C416.986 334.04 431.863 349.017 422.217 349.127C412.571 349.237 405.728 350.657 411.582 364.911C417.435 379.164 432.779 405.417 432.779 405.417Z" fill="url(#paint0_linear_406_2092)"/>
<path d="M450.202 356.409C450.166 356.353 450.109 356.313 450.044 356.298C449.979 356.282 449.911 356.293 449.854 356.327C442.838 361.248 437.023 367.689 432.843 375.17C432.889 366.01 433.054 355.933 433.438 346.562C436.466 340.639 440.435 335.246 445.191 330.596C445.215 330.573 445.234 330.545 445.247 330.514C445.26 330.484 445.267 330.451 445.267 330.417C445.267 330.384 445.26 330.351 445.247 330.32C445.234 330.289 445.215 330.262 445.191 330.239C445.147 330.208 445.094 330.191 445.04 330.191C444.986 330.191 444.933 330.208 444.889 330.239C440.342 334.665 436.496 339.759 433.484 345.344C434.052 332.355 435.06 321.005 436.8 316.031C436.812 316 436.817 315.968 436.816 315.935C436.815 315.902 436.808 315.87 436.794 315.84C436.78 315.81 436.761 315.783 436.737 315.761C436.713 315.739 436.684 315.721 436.654 315.71V315.71C436.624 315.699 436.591 315.693 436.559 315.694C436.527 315.696 436.496 315.703 436.467 315.717C436.437 315.731 436.411 315.75 436.39 315.774C436.369 315.798 436.352 315.826 436.342 315.857V315.857C434.996 319.732 434.079 327.39 433.475 336.669C430.809 333.921 427.616 331.739 424.086 330.257C424.024 330.232 423.954 330.233 423.893 330.259C423.831 330.284 423.782 330.333 423.756 330.394C423.731 330.455 423.73 330.523 423.754 330.585C423.778 330.646 423.824 330.696 423.884 330.724C427.502 332.246 430.753 334.523 433.42 337.402C433.237 340.287 433.081 343.319 432.953 346.443C432.944 346.498 432.944 346.553 432.953 346.608C432.696 352.864 432.541 359.432 432.449 365.89C430.956 363.674 425.789 356.73 418.709 354.898C418.642 354.887 418.573 354.904 418.519 354.943C418.464 354.983 418.427 355.042 418.415 355.109C418.409 355.168 418.421 355.227 418.451 355.278C418.48 355.329 418.526 355.369 418.58 355.393C426.568 357.472 432.073 366.165 432.476 366.806C432.431 369.985 432.403 373.118 432.385 376.132C432.376 376.174 432.376 376.218 432.385 376.26C432.312 392.281 432.568 405.142 432.577 405.454C432.582 405.519 432.61 405.581 432.658 405.627C432.705 405.673 432.768 405.699 432.834 405.701C432.9 405.699 432.963 405.671 433.009 405.623C433.055 405.575 433.081 405.511 433.081 405.445C433.081 405.133 432.815 392.263 432.889 376.242C437.056 368.495 442.975 361.83 450.174 356.776C450.231 356.75 450.275 356.703 450.297 356.645C450.32 356.586 450.318 356.522 450.293 356.464C450.268 356.439 450.236 356.42 450.202 356.409V356.409Z" fill="#231F20"/>
<path d="M429.508 409.182L428.941 408.614C428.876 409.063 429.087 409.237 429.508 409.182Z" fill="url(#paint1_linear_406_2092)"/>
<path d="M487.053 321.042C482.83 305.9 468.733 314.41 462.861 327.454C461.084 331.393 458.629 338.776 455.743 347.524C449.056 367.778 440.061 395.387 431.789 404.648C429.957 406.654 429.124 407.936 428.977 408.605L429.545 409.173C430.733 408.87 431.858 408.362 432.87 407.671C443.13 401.57 457.53 385.924 468.989 369.051C481.182 351.124 490.076 331.787 487.053 321.042Z" fill="url(#paint2_linear_406_2092)"/>
<path fill-rule="evenodd" clip-rule="evenodd" d="M428.968 408.651C428.831 409.328 429.472 409.356 430.681 408.843C462.742 381.151 479.231 319.851 479.231 319.658C479.253 319.578 479.259 319.495 479.249 319.412C479.239 319.33 479.213 319.25 479.172 319.178C479.131 319.106 479.077 319.042 479.011 318.991C478.946 318.94 478.871 318.902 478.791 318.88C478.711 318.857 478.627 318.851 478.545 318.861C478.462 318.871 478.383 318.897 478.311 318.938C478.238 318.979 478.175 319.034 478.123 319.099C478.072 319.164 478.035 319.239 478.012 319.319V319.319C477.966 319.521 461.249 381.701 428.968 408.651Z" fill="#231F20"/>
<path d="M503.459 367.044C495.737 364.718 482.079 370.214 468.806 378.366C454.287 387.289 440.235 399.389 434.913 407.918C432.87 411.197 433.172 412.314 437.258 408.834C447.811 399.801 487.74 390.238 498.037 385.841C499.242 385.326 500.403 384.713 501.508 384.009C509.698 378.953 513.829 370.159 503.459 367.044Z" fill="#598AC7"/>
<path fill-rule="evenodd" clip-rule="evenodd" d="M434.089 410.941C433.558 411.042 433.548 410.538 433.97 409.604C456.119 385.054 504.257 373.201 504.403 373.155C504.467 373.139 504.534 373.135 504.599 373.145C504.664 373.155 504.726 373.177 504.783 373.211C504.839 373.245 504.888 373.29 504.927 373.344C504.965 373.397 504.993 373.457 505.008 373.522C505.024 373.584 505.028 373.649 505.019 373.713C505.01 373.777 504.988 373.839 504.955 373.894C504.921 373.95 504.877 373.998 504.825 374.036C504.773 374.075 504.714 374.102 504.651 374.117C504.504 374.154 455.716 386.181 434.089 410.941Z" fill="#231F20"/>
<path d="M81.5267 338.409C102.595 337.099 126.751 313.282 120.357 298.626C113.963 283.969 112.507 274.195 118.974 264.266C124.846 255.261 102.925 217.09 111.243 202.47C108.137 199.53 103.841 197.89 99.8656 199.237C94.8366 200.95 92.3359 206.501 90.7053 211.585C88.9736 217.195 87.6631 222.927 86.7847 228.733C85.9328 234.275 85.3374 240.229 81.7557 244.534C77.8626 249.252 71.1939 250.864 66.8702 255.188C65.0553 257.005 63.6946 259.224 62.8987 261.666C62.1029 264.107 61.8944 266.702 62.2901 269.24C63.0412 273.701 65.6061 277.594 67.4382 281.725C69.2702 285.856 70.3328 290.84 68.0794 294.751C66.1008 298.205 62.0977 299.908 59.3221 302.766C55.7863 306.43 54.4672 311.844 55.0992 316.892C55.7313 321.939 58.1313 326.611 61.1633 330.696C62.7476 332.823 64.5064 334.815 66.4214 336.65C71.3099 338.14 76.4268 338.735 81.5267 338.409V338.409Z" fill="url(#paint3_linear_406_2092)"/>
<path d="M102.22 359.715C106.699 350.033 122.849 343.3 129.105 337.96C135.692 332.317 141.728 324.75 142.992 315.92C144.403 306.027 138.999 300.741 134.446 292.973C126.916 280.103 142.15 267.48 136.983 254.564C134.327 247.914 126.504 244.937 122.327 239.138C118.956 234.494 118.205 228.503 117.747 222.787C117.289 217.071 116.931 211.126 114.156 206.115C113.391 204.756 112.424 203.52 111.289 202.451C102.971 217.108 124.892 255.242 119.02 264.247C112.553 274.176 114.009 283.914 120.403 298.607C126.797 313.3 102.596 337.099 81.5268 338.399C76.4421 338.72 71.3412 338.124 66.4673 336.64C69.488 339.53 72.8758 342.009 76.5436 344.015C85.42 348.897 96.4764 351.334 102.22 359.715Z" fill="#1251C3"/>
<path d="M123.572 304.296L123.151 303.902L102.504 326.4V271.804L115.969 254.748L115.52 254.391L102.504 270.888V215.908H101.936V244.745L92.7662 231.407L92.299 231.728L101.936 245.752V289.85L77.5967 265.301L77.1936 265.704L101.936 290.665V343.356L70.6257 312.165L70.2227 312.568L101.936 344.162V401.78H102.504V327.243L123.572 304.296Z" fill="#231F20"/>
<path d="M439.96 383.47H410.547C408.447 383.47 406.745 385.172 406.745 387.271V409.998C406.745 412.097 408.447 413.799 410.547 413.799H439.96C442.06 413.799 443.762 412.097 443.762 409.998V387.271C443.762 385.172 442.06 383.47 439.96 383.47Z" fill="url(#paint4_linear_406_2092)"/>
<path d="M407.13 383.727H335.845C333.523 383.727 331.64 385.609 331.64 387.931V413.452C331.64 415.774 333.523 417.656 335.845 417.656H407.13C409.452 417.656 411.335 415.774 411.335 413.452V387.931C411.335 385.609 409.452 383.727 407.13 383.727Z" fill="url(#paint5_linear_406_2092)"/>
<path d="M196.947 374.585H119.726C119.154 374.589 118.591 374.721 118.077 374.97L95.3408 386.173L196.947 385.257V374.585Z" fill="#C6583E"/>
<path d="M190.754 385.274H98.8033C95.3884 385.274 92.6201 388.043 92.6201 391.458V413.021C92.6201 416.436 95.3884 419.204 98.8033 419.204H190.754C194.169 419.204 196.938 416.436 196.938 413.021V391.458C196.938 388.043 194.169 385.274 190.754 385.274Z" fill="url(#paint6_linear_406_2092)"/>
<path d="M430.681 352.875H336.971C334.027 352.875 331.64 355.262 331.64 358.206V378.57C331.64 381.514 334.027 383.901 336.971 383.901H430.681C433.626 383.901 436.013 381.514 436.013 378.57V358.206C436.013 355.262 433.626 352.875 430.681 352.875Z" fill="url(#paint7_linear_406_2092)"/>
<path d="M409.787 284.145H331.64V292.545L433.741 292.847L409.787 284.145Z" fill="url(#paint8_linear_406_2092)"/>
<path d="M432.935 292.545H334.718C333.018 292.545 331.64 293.923 331.64 295.623V321.519C331.64 323.219 333.018 324.597 334.718 324.597H432.935C434.635 324.597 436.013 323.219 436.013 321.519V295.623C436.013 293.923 434.635 292.545 432.935 292.545Z" fill="#2E89FF"/>
<path d="M422.574 324.523H333.765C332.592 324.523 331.64 325.475 331.64 326.649V350.749C331.64 351.923 332.592 352.875 333.765 352.875H422.574C423.748 352.875 424.7 351.923 424.7 350.749V326.649C424.7 325.475 423.748 324.523 422.574 324.523Z" fill="#413B8A"/>
<path d="M321.729 99.2061H206.703L193.704 107.936L336.495 108.009L324.816 100.15C323.904 99.5332 322.829 99.2045 321.729 99.2061V99.2061Z" fill="#CB8B3C"/>
<path d="M333.463 106.892H196.653C193.684 106.892 191.276 109.299 191.276 112.269V139.53C191.276 142.499 193.684 144.907 196.653 144.907H333.463C336.432 144.907 338.84 142.499 338.84 139.53V112.269C338.84 109.299 336.432 106.892 333.463 106.892Z" fill="#FFB953"/>
<path d="M333.774 140.299C334.427 140.299 334.956 139.795 334.956 139.173C334.956 138.55 334.427 138.046 333.774 138.046C333.122 138.046 332.593 138.55 332.593 139.173C332.593 139.795 333.122 140.299 333.774 140.299Z" fill="#DDDDDD"/>
<path d="M333.38 113.524C334.033 113.524 334.562 113.019 334.562 112.397C334.562 111.775 334.033 111.271 333.38 111.271C332.728 111.271 332.199 111.775 332.199 112.397C332.199 113.019 332.728 113.524 333.38 113.524Z" fill="#DDDDDD"/>
<path d="M197.35 140.538C198.003 140.538 198.532 140.033 198.532 139.411C198.532 138.789 198.003 138.284 197.35 138.284C196.698 138.284 196.168 138.789 196.168 139.411C196.168 140.033 196.698 140.538 197.35 140.538Z" fill="#DDDDDD"/>
<path d="M196.956 113.761C197.609 113.761 198.138 113.257 198.138 112.635C198.138 112.012 197.609 111.508 196.956 111.508C196.303 111.508 195.774 112.012 195.774 112.635C195.774 113.257 196.303 113.761 196.956 113.761Z" fill="#DDDDDD"/>
<path d="M332.95 325.146H201.124C196.778 325.146 193.255 328.668 193.255 333.014V358.223C193.255 362.569 196.778 366.092 201.124 366.092H332.95C337.296 366.092 340.819 362.569 340.819 358.223V333.014C340.819 328.668 337.296 325.146 332.95 325.146Z" fill="url(#paint9_linear_406_2092)"/>
<path d="M325.393 313.933H208.681L195.408 327.151L334.746 325.145L325.393 313.933Z" fill="url(#paint10_linear_406_2092)"/>
<path d="M198.815 332.19C199.468 332.19 199.997 331.66 199.997 331.008C199.997 330.355 199.468 329.826 198.815 329.826C198.163 329.826 197.634 330.355 197.634 331.008C197.634 331.66 198.163 332.19 198.815 332.19Z" fill="#DDDDDD"/>
<path d="M198.815 361.521C199.468 361.521 199.997 360.992 199.997 360.339C199.997 359.686 199.468 359.157 198.815 359.157C198.163 359.157 197.634 359.686 197.634 360.339C197.634 360.992 198.163 361.521 198.815 361.521Z" fill="#DDDDDD"/>
<path d="M334.745 332.135C335.398 332.135 335.927 331.606 335.927 330.953C335.927 330.301 335.398 329.771 334.745 329.771C334.093 329.771 333.563 330.301 333.563 330.953C333.563 331.606 334.093 332.135 334.745 332.135Z" fill="#DDDDDD"/>
<path d="M334.745 361.465C335.398 361.465 335.927 360.936 335.927 360.283C335.927 359.631 335.398 359.102 334.745 359.102C334.093 359.102 333.563 359.631 333.563 360.283C333.563 360.936 334.093 361.465 334.745 361.465Z" fill="#DDDDDD"/>
<path d="M324.953 171.7H208.242L195.252 180.338H337.943L324.953 171.7Z" fill="url(#paint11_linear_406_2092)"/>
<path d="M335.313 179.396H197.881C195.083 179.396 192.815 181.663 192.815 184.461V211.795C192.815 214.593 195.083 216.861 197.881 216.861H335.313C338.111 216.861 340.379 214.593 340.379 211.795V184.461C340.379 181.663 338.111 179.396 335.313 179.396Z" fill="url(#paint12_linear_406_2092)"/>
<path d="M198.825 185.093C199.477 185.093 200.006 184.58 200.006 183.948C200.006 183.315 199.477 182.803 198.825 182.803C198.172 182.803 197.643 183.315 197.643 183.948C197.643 184.58 198.172 185.093 198.825 185.093Z" fill="#DDDDDD"/>
<path d="M198.825 213.49C199.477 213.49 200.006 212.978 200.006 212.345C200.006 211.713 199.477 211.2 198.825 211.2C198.172 211.2 197.643 211.713 197.643 212.345C197.643 212.978 198.172 213.49 198.825 213.49Z" fill="#DDDDDD"/>
<path d="M334.764 185.047C335.416 185.047 335.945 184.534 335.945 183.902C335.945 183.269 335.416 182.757 334.764 182.757C334.111 182.757 333.582 183.269 333.582 183.902C333.582 184.534 334.111 185.047 334.764 185.047Z" fill="#DDDDDD"/>
<path d="M334.764 213.444C335.416 213.444 335.945 212.932 335.945 212.299C335.945 211.667 335.416 211.154 334.764 211.154C334.111 211.154 333.582 211.667 333.582 212.299C333.582 212.932 334.111 213.444 334.764 213.444Z" fill="#DDDDDD"/>
<path d="M332.51 407.047H200.684C196.338 407.047 192.815 410.57 192.815 414.916V440.125C192.815 444.471 196.338 447.993 200.684 447.993H332.51C336.856 447.993 340.379 444.471 340.379 440.125V414.916C340.379 410.57 336.856 407.047 332.51 407.047Z" fill="url(#paint13_linear_406_2092)"/>
<path d="M324.953 395.835H208.242L199.146 407.047H334.306L324.953 395.835Z" fill="#D17E2C"/>
<path d="M198.376 414.092C199.028 414.092 199.557 413.563 199.557 412.91C199.557 412.258 199.028 411.729 198.376 411.729C197.723 411.729 197.194 412.258 197.194 412.91C197.194 413.563 197.723 414.092 198.376 414.092Z" fill="#DDDDDD"/>
<path d="M198.376 443.423C199.028 443.423 199.557 442.894 199.557 442.241C199.557 441.589 199.028 441.06 198.376 441.06C197.723 441.06 197.194 441.589 197.194 442.241C197.194 442.894 197.723 443.423 198.376 443.423Z" fill="#DDDDDD"/>
<path d="M334.306 414.037C334.958 414.037 335.487 413.508 335.487 412.856C335.487 412.203 334.958 411.674 334.306 411.674C333.653 411.674 333.124 412.203 333.124 412.856C333.124 413.508 333.653 414.037 334.306 414.037Z" fill="#DDDDDD"/>
<path d="M334.306 443.368C334.958 443.368 335.487 442.839 335.487 442.187C335.487 441.534 334.958 441.005 334.306 441.005C333.653 441.005 333.124 441.534 333.124 442.187C333.124 442.839 333.653 443.368 334.306 443.368Z" fill="#DDDDDD"/>
<path d="M324.953 243.325H208.241L194.611 252.715H338.592L324.953 243.325Z" fill="#232059"/>
<path d="M334.544 251.011H198.651C195.428 251.011 192.815 253.623 192.815 256.846V282.733C192.815 285.956 195.428 288.568 198.651 288.568H334.544C337.766 288.568 340.379 285.956 340.379 282.733V256.846C340.379 253.623 337.766 251.011 334.544 251.011Z" fill="#373075"/>
<path d="M199.072 256.846C199.725 256.846 200.254 256.333 200.254 255.701C200.254 255.068 199.725 254.556 199.072 254.556C198.42 254.556 197.891 255.068 197.891 255.701C197.891 256.333 198.42 256.846 199.072 256.846Z" fill="#DDDDDD"/>
<path d="M199.072 285.242C199.725 285.242 200.254 284.73 200.254 284.097C200.254 283.465 199.725 282.952 199.072 282.952C198.42 282.952 197.891 283.465 197.891 284.097C197.891 284.73 198.42 285.242 199.072 285.242Z" fill="#DDDDDD"/>
<path d="M335.002 256.791C335.655 256.791 336.184 256.278 336.184 255.646C336.184 255.014 335.655 254.501 335.002 254.501C334.349 254.501 333.82 255.014 333.82 255.646C333.82 256.278 334.349 256.791 335.002 256.791Z" fill="#DDDDDD"/>
<path d="M335.002 285.188C335.655 285.188 336.184 284.675 336.184 284.043C336.184 283.41 335.655 282.897 335.002 282.897C334.349 282.897 333.82 283.41 333.82 284.043C333.82 284.675 334.349 285.188 335.002 285.188Z" fill="#DDDDDD"/>
<path d="M302.51 178.288L293.469 172.672C292.626 172.153 291.934 171.42 291.463 170.549C290.992 169.677 290.758 168.698 290.785 167.707V144.807H307.063L302.51 178.288Z" fill="#D17E2C"/>
<path d="M345.829 144.77H305.423C302.191 144.77 299.57 147.39 299.57 150.623V173.542C299.57 176.775 302.191 179.395 305.423 179.395H345.829C349.062 179.395 351.683 176.775 351.683 173.542V150.623C351.683 147.39 349.062 144.77 345.829 144.77Z" fill="url(#paint14_linear_406_2092)"/>
<path d="M347.89 177.215C348.543 177.215 349.072 176.711 349.072 176.089C349.072 175.466 348.543 174.962 347.89 174.962C347.238 174.962 346.708 175.466 346.708 176.089C346.708 176.711 347.238 177.215 347.89 177.215Z" fill="#DDDDDD"/>
<path d="M347.496 150.439C348.149 150.439 348.678 149.935 348.678 149.312C348.678 148.69 348.149 148.186 347.496 148.186C346.844 148.186 346.314 148.69 346.314 149.312C346.314 149.935 346.844 150.439 347.496 150.439Z" fill="#DDDDDD"/>
<path d="M306.019 177.454C306.671 177.454 307.2 176.949 307.2 176.327C307.2 175.705 306.671 175.2 306.019 175.2C305.366 175.2 304.837 175.705 304.837 176.327C304.837 176.949 305.366 177.454 306.019 177.454Z" fill="#DDDDDD"/>
<path d="M305.625 150.678C306.277 150.678 306.806 150.174 306.806 149.552C306.806 148.929 306.277 148.425 305.625 148.425C304.972 148.425 304.443 148.929 304.443 149.552C304.443 150.174 304.972 150.678 305.625 150.678Z" fill="#DDDDDD"/>
<path d="M199.127 324.367L210.257 318.275C211.021 317.862 211.659 317.25 212.103 316.503C212.547 315.756 212.779 314.903 212.776 314.034V288.477H195.774L199.127 324.367Z" fill="#094082"/>
<path d="M197.093 288.477H159.133C156.846 288.477 154.993 290.33 154.993 292.617V321.151C154.993 323.438 156.846 325.292 159.133 325.292H197.093C199.38 325.292 201.234 323.438 201.234 321.151V292.617C201.234 290.33 199.38 288.477 197.093 288.477Z" fill="url(#paint15_linear_406_2092)"/>
<path d="M196.681 322.497C197.334 322.497 197.863 321.968 197.863 321.315C197.863 320.663 197.334 320.134 196.681 320.134C196.029 320.134 195.5 320.663 195.5 321.315C195.5 321.968 196.029 322.497 196.681 322.497Z" fill="#DDDDDD"/>
<path d="M196.287 294.412C196.94 294.412 197.469 293.883 197.469 293.23C197.469 292.578 196.94 292.049 196.287 292.049C195.635 292.049 195.105 292.578 195.105 293.23C195.105 293.883 195.635 294.412 196.287 294.412Z" fill="#DDDDDD"/>
<path d="M159.692 322.232C160.345 322.232 160.874 321.702 160.874 321.05C160.874 320.397 160.345 319.868 159.692 319.868C159.039 319.868 158.51 320.397 158.51 321.05C158.51 321.702 159.039 322.232 159.692 322.232Z" fill="#DDDDDD"/>
<path d="M159.298 294.147C159.951 294.147 160.48 293.618 160.48 292.965C160.48 292.312 159.951 291.783 159.298 291.783C158.646 291.783 158.117 292.312 158.117 292.965C158.117 293.618 158.646 294.147 159.298 294.147Z" fill="#DDDDDD"/>
<path d="M271.695 405.664L261.481 397.136C260.915 396.732 260.453 396.199 260.135 395.58C259.816 394.962 259.649 394.277 259.649 393.582V366.101H278.968L271.695 405.664Z" fill="#1E4380"/>
<path d="M336.935 366.091H275.835C272.228 366.091 269.304 369.015 269.304 372.622V400.506C269.304 404.113 272.228 407.037 275.835 407.037H336.935C340.542 407.037 343.466 404.113 343.466 400.506V372.622C343.466 369.015 340.542 366.091 336.935 366.091Z" fill="url(#paint16_linear_406_2092)"/>
<path d="M337.594 401.542C338.246 401.542 338.775 401.013 338.775 400.36C338.775 399.708 338.246 399.179 337.594 399.179C336.941 399.179 336.412 399.708 336.412 400.36C336.412 401.013 336.941 401.542 337.594 401.542Z" fill="#DDDDDD"/>
<path d="M337.2 373.456C337.853 373.456 338.382 372.927 338.382 372.274C338.382 371.622 337.853 371.093 337.2 371.093C336.548 371.093 336.019 371.622 336.019 372.274C336.019 372.927 336.548 373.456 337.2 373.456Z" fill="#DDDDDD"/>
<path d="M276.568 401.799C277.221 401.799 277.75 401.27 277.75 400.617C277.75 399.965 277.221 399.436 276.568 399.436C275.916 399.436 275.387 399.965 275.387 400.617C275.387 401.27 275.916 401.799 276.568 401.799Z" fill="#DDDDDD"/>
<path d="M276.174 373.713C276.827 373.713 277.356 373.184 277.356 372.531C277.356 371.879 276.827 371.35 276.174 371.35C275.522 371.35 274.993 371.879 274.993 372.531C274.993 373.184 275.522 373.713 276.174 373.713Z" fill="#DDDDDD"/>
<path d="M242.483 405.664L254.657 396.797C255.068 396.501 255.402 396.112 255.631 395.661C255.861 395.21 255.979 394.71 255.976 394.204V366.128H238.782L242.483 405.664Z" fill="#201851"/>
<path d="M239.139 366.101H195.014C192.095 366.101 189.729 368.467 189.729 371.386V401.762C189.729 404.681 192.095 407.047 195.014 407.047H239.139C242.058 407.047 244.425 404.681 244.425 401.762V371.386C244.425 368.467 242.058 366.101 239.139 366.101Z" fill="#413B8A"/>
<path d="M238.205 401.67C238.857 401.67 239.386 401.141 239.386 400.488C239.386 399.836 238.857 399.307 238.205 399.307C237.552 399.307 237.023 399.836 237.023 400.488C237.023 401.141 237.552 401.67 238.205 401.67Z" fill="#DDDDDD"/>
<path d="M237.811 373.585C238.464 373.585 238.993 373.056 238.993 372.403C238.993 371.751 238.464 371.222 237.811 371.222C237.158 371.222 236.629 371.751 236.629 372.403C236.629 373.056 237.158 373.585 237.811 373.585Z" fill="#DDDDDD"/>
<path d="M196.342 401.917C196.995 401.917 197.524 401.388 197.524 400.735C197.524 400.083 196.995 399.554 196.342 399.554C195.69 399.554 195.161 400.083 195.161 400.735C195.161 401.388 195.69 401.917 196.342 401.917Z" fill="#DDDDDD"/>
<path d="M195.948 373.832C196.601 373.832 197.13 373.303 197.13 372.65C197.13 371.998 196.601 371.469 195.948 371.469C195.296 371.469 194.767 371.998 194.767 372.65C194.767 373.303 195.296 373.832 195.948 373.832Z" fill="#DDDDDD"/>
<path d="M290.125 323.991L280.434 318.641C279.462 318.106 278.652 317.319 278.088 316.363C277.524 315.408 277.227 314.319 277.228 313.209V288.477H293.808L290.125 323.991Z" fill="#D17E2C"/>
<path d="M338.263 288.477H291.949C290.193 288.477 288.77 289.9 288.77 291.655V322.113C288.77 323.869 290.193 325.292 291.949 325.292H338.263C340.019 325.292 341.442 323.869 341.442 322.113V291.655C341.442 289.9 340.019 288.477 338.263 288.477Z" fill="url(#paint17_linear_406_2092)"/>
<path d="M336.174 321.984C336.827 321.984 337.356 321.455 337.356 320.803C337.356 320.15 336.827 319.621 336.174 319.621C335.522 319.621 334.993 320.15 334.993 320.803C334.993 321.455 335.522 321.984 336.174 321.984Z" fill="#DDDDDD"/>
<path d="M335.78 293.899C336.433 293.899 336.962 293.37 336.962 292.718C336.962 292.065 336.433 291.536 335.78 291.536C335.128 291.536 334.599 292.065 334.599 292.718C334.599 293.37 335.128 293.899 335.78 293.899Z" fill="#DDDDDD"/>
<path d="M294.312 322.232C294.964 322.232 295.493 321.702 295.493 321.05C295.493 320.397 294.964 319.868 294.312 319.868C293.659 319.868 293.13 320.397 293.13 321.05C293.13 321.702 293.659 322.232 294.312 322.232Z" fill="#DDDDDD"/>
<path d="M293.918 294.147C294.571 294.147 295.1 293.618 295.1 292.965C295.1 292.312 294.571 291.783 293.918 291.783C293.265 291.783 292.736 292.312 292.736 292.965C292.736 293.618 293.265 294.147 293.918 294.147Z" fill="#DDDDDD"/>
<path d="M290.538 250.452L282.523 244.699C281.706 244.126 281.043 243.361 280.593 242.471C280.142 241.581 279.918 240.594 279.939 239.597V216.623H296.3L290.538 250.452Z" fill="#C6583E"/>
<path d="M337.613 216.623H291.536C290.009 216.623 288.77 217.862 288.77 219.389V248.483C288.77 250.01 290.009 251.249 291.536 251.249H337.613C339.141 251.249 340.379 250.01 340.379 248.483V219.389C340.379 217.862 339.141 216.623 337.613 216.623Z" fill="url(#paint18_linear_406_2092)"/>
<path d="M336.22 248.482C336.872 248.482 337.401 247.978 337.401 247.355C337.401 246.733 336.872 246.229 336.22 246.229C335.567 246.229 335.038 246.733 335.038 247.355C335.038 247.978 335.567 248.482 336.22 248.482Z" fill="#DDDDDD"/>
<path d="M335.826 221.707C336.479 221.707 337.008 221.202 337.008 220.58C337.008 219.958 336.479 219.453 335.826 219.453C335.174 219.453 334.645 219.958 334.645 220.58C334.645 221.202 335.174 221.707 335.826 221.707Z" fill="#DDDDDD"/>
<path d="M294.357 248.72C295.01 248.72 295.539 248.216 295.539 247.594C295.539 246.971 295.01 246.467 294.357 246.467C293.705 246.467 293.176 246.971 293.176 247.594C293.176 248.216 293.705 248.72 294.357 248.72Z" fill="#DDDDDD"/>
<path d="M293.963 221.945C294.616 221.945 295.145 221.44 295.145 220.818C295.145 220.196 294.616 219.691 293.963 219.691C293.311 219.691 292.782 220.196 292.782 220.818C292.782 221.44 293.311 221.945 293.963 221.945Z" fill="#DDDDDD"/>
<path d="M264.623 249.692C264.623 249.692 272.135 242.409 272.135 239.405V216.623H257.295L264.623 249.692Z" fill="#D17E2C"/>
<path d="M262.287 216.623H196.36C194.403 216.623 192.815 218.21 192.815 220.168V247.704C192.815 249.662 194.403 251.249 196.36 251.249H262.287C264.245 251.249 265.832 249.662 265.832 247.704V220.168C265.832 218.21 264.245 216.623 262.287 216.623Z" fill="url(#paint19_linear_406_2092)"/>
<path d="M260.602 247.786C261.254 247.786 261.783 247.294 261.783 246.687C261.783 246.08 261.254 245.588 260.602 245.588C259.949 245.588 259.42 246.08 259.42 246.687C259.42 247.294 259.949 247.786 260.602 247.786Z" fill="#DDDDDD"/>
<path d="M260.208 221.579C260.86 221.579 261.389 221.087 261.389 220.48C261.389 219.873 260.86 219.381 260.208 219.381C259.555 219.381 259.026 219.873 259.026 220.48C259.026 221.087 259.555 221.579 260.208 221.579Z" fill="#DDDDDD"/>
<path d="M197.89 248.015C198.543 248.015 199.072 247.523 199.072 246.916C199.072 246.309 198.543 245.816 197.89 245.816C197.238 245.816 196.708 246.309 196.708 246.916C196.708 247.523 197.238 248.015 197.89 248.015Z" fill="#DDDDDD"/>
<path d="M197.496 221.817C198.149 221.817 198.678 221.324 198.678 220.717C198.678 220.11 198.149 219.618 197.496 219.618C196.844 219.618 196.314 220.11 196.314 220.717C196.314 221.324 196.844 221.817 197.496 221.817Z" fill="#DDDDDD"/>
<path d="M263.615 178.168L273.179 172.416C273.839 172.017 274.382 171.451 274.755 170.776C275.128 170.101 275.317 169.34 275.304 168.568V144.733H259.878L263.615 178.168Z" fill="#1E194F"/>
<path d="M260.904 144.77H193.878C191.586 144.77 189.729 146.627 189.729 148.919V175.246C189.729 177.538 191.586 179.395 193.878 179.395H260.904C263.196 179.395 265.054 177.538 265.054 175.246V148.919C265.054 146.627 263.196 144.77 260.904 144.77Z" fill="#373075"/>
<path d="M260.08 176.473C260.732 176.473 261.261 175.969 261.261 175.346C261.261 174.724 260.732 174.22 260.08 174.22C259.427 174.22 258.898 174.724 258.898 175.346C258.898 175.969 259.427 176.473 260.08 176.473Z" fill="#DDDDDD"/>
<path d="M259.686 149.707C260.338 149.707 260.867 149.202 260.867 148.58C260.867 147.958 260.338 147.453 259.686 147.453C259.033 147.453 258.504 147.958 258.504 148.58C258.504 149.202 259.033 149.707 259.686 149.707Z" fill="#DDDDDD"/>
<path d="M194.987 176.72C195.639 176.72 196.169 176.216 196.169 175.594C196.169 174.971 195.639 174.467 194.987 174.467C194.334 174.467 193.805 174.971 193.805 175.594C193.805 176.216 194.334 176.72 194.987 176.72Z" fill="#DDDDDD"/>
<path d="M194.593 149.945C195.245 149.945 195.775 149.44 195.775 148.818C195.775 148.196 195.245 147.691 194.593 147.691C193.94 147.691 193.411 148.196 193.411 148.818C193.411 149.44 193.94 149.945 194.593 149.945Z" fill="#DDDDDD"/>
<path opacity="0.17" d="M140.886 291.563C139.594 297.005 140.185 302.724 142.562 307.786C146.547 316.141 155.029 319.228 155.029 319.228C155.029 319.228 155.67 327.472 153.197 330.284C151.574 328.965 150.146 327.423 148.956 325.704C146.455 322.186 137.964 316.397 137.295 308.941C136.626 301.484 140.886 291.563 140.886 291.563Z" fill="#303030"/>
<path d="M155.103 270.642C155.103 270.642 156.019 275.506 155.442 276.88C155.039 277.924 152.996 279.426 152.034 280.095C154.471 282.495 158.263 286.049 158.227 284.84C158.172 283.072 161.268 277.457 161.268 277.457C161.268 277.457 157.311 275.277 156.449 273.445C155.588 271.613 155.103 270.642 155.103 270.642Z" fill="#CF7961"/>
<path d="M170.712 256.827C170.712 256.827 163.155 257.001 159.884 257.514C156.614 258.027 154.736 264.165 154.736 264.165C154.736 264.165 153.472 261.471 151.356 263.991C149.24 266.51 153.591 268.644 153.591 268.644C154.104 271.392 150.037 278.088 150.037 278.088C150.037 278.088 150.88 278.958 152.034 280.094C152.95 279.426 155.039 277.923 155.442 276.879C155.982 275.505 155.103 270.641 155.103 270.641C155.103 270.641 155.588 271.612 156.449 273.444C157.31 275.276 161.35 277.667 161.35 277.667C161.35 277.667 164.41 279.233 166.938 278.913C169.466 278.592 170.016 277.282 170.016 277.282C173.387 272.235 170.712 256.827 170.712 256.827Z" fill="#F79F81"/>
<path d="M159.884 257.515C163.154 257.002 170.712 256.828 170.712 256.828C150.934 251.56 154.736 264.156 154.736 264.156C154.736 264.156 156.641 258.037 159.884 257.515Z" fill="#CF7961"/>
<path d="M150.23 257.817C151.695 256.745 151.988 256.901 153.894 257.258C155.799 257.615 157.411 255.499 158.831 256.827C160.251 258.156 163.778 259.749 166.526 259.282C169.274 258.815 170.391 260.198 172.297 257.569C172.315 257.322 172.315 257.074 172.297 256.827C172.297 256.827 176.19 254.711 173.9 251.249C173.654 251.384 173.379 251.455 173.098 251.455C172.818 251.455 172.542 251.384 172.297 251.249C171.271 250.818 168.807 246.861 162.843 247.493C156.88 248.125 153.738 250.763 153.738 250.763C153.738 250.763 150.816 249.728 150.074 252.192C149.597 253.768 147.509 254.73 146.41 255.856C146.496 256.352 146.68 256.825 146.95 257.249C147.857 258.595 148.764 258.898 150.23 257.817Z" fill="#403982"/>
<path d="M145.741 258.091C146.886 260.555 146.08 264.109 147.857 264.851C149.634 265.593 148.47 271.547 152.95 272.18C153.479 270.982 153.721 269.677 153.655 268.369C153.655 268.369 150.412 267.123 150.907 265.062C151.402 263.001 153.655 262.314 154.754 264.146L155.011 265.52C155.011 265.52 157.759 262.964 157.154 261.123C157.003 260.596 157.028 260.033 157.225 259.521C157.421 259.009 157.779 258.574 158.244 258.283C158.244 258.283 160.709 261.37 163.741 259.831C163.741 259.831 171.985 262.296 172.296 257.551C170.391 260.18 169.273 258.787 166.525 259.263C163.777 259.74 160.251 258.146 158.831 256.809C157.411 255.471 155.78 257.633 153.893 257.239C152.006 256.845 151.704 256.726 150.229 257.798C148.754 258.87 147.866 258.576 146.877 257.239C146.606 256.815 146.422 256.342 146.336 255.847C145.993 256.094 145.746 256.453 145.637 256.862C145.529 257.272 145.565 257.706 145.741 258.091V258.091Z" fill="#1F1A4E"/>
<path d="M200.144 316.296C201.353 315.215 202.297 315.691 203.02 313.41C203.312 312.494 203.671 311.6 204.092 310.736C203.607 310.561 201.6 311.972 201.234 312.027C200.239 311.952 199.249 311.826 198.266 311.652C199.246 311.249 200.016 309.416 200.3 308.903C200.584 308.39 199.759 306.696 199.503 306.888C199.246 307.081 197.323 309.279 196.581 309.939C195.839 310.598 191.084 310.195 191.084 310.195C190.352 310.195 190.168 311.89 190.086 313.41C191.487 314.059 192.94 314.592 194.428 315.004C196.581 315.517 198.944 317.368 200.144 316.296Z" fill="#F79F81"/>
<path d="M190.132 315.865C190.132 315.865 193.118 316.983 194.547 317.468C196.742 318.053 198.977 318.476 201.234 318.732C201.628 318.668 203.982 315.81 204.514 314.803C205.045 313.795 204.459 311.221 204.175 310.79C204.155 310.762 204.126 310.743 204.092 310.735C203.671 311.6 203.312 312.494 203.02 313.41C202.297 315.691 201.353 315.242 200.144 316.296C198.935 317.349 196.581 315.517 194.428 315.004C192.94 314.592 191.488 314.059 190.086 313.41C190.049 314.693 190.132 315.865 190.132 315.865Z" fill="#CF7961"/>
<path d="M121.521 436.076C121.521 436.076 119.414 443.597 118.645 443.853C117.875 444.11 126.806 447.252 126.806 447.252C126.806 447.252 128.831 440.107 129.555 438.311C130.278 436.516 121.521 436.076 121.521 436.076Z" fill="#F79F81"/>
<path d="M155.03 446.583L154.608 437.065L148.975 438.494C150.385 439.09 151.439 439.63 151.439 439.63L150.394 447.572C152.062 447.701 154.013 447.499 155.03 446.583Z" fill="#F79F81"/>
<path d="M148.974 438.494L146.437 439.154C146.437 439.154 147.188 446.088 146.996 446.674C146.895 446.977 148.516 447.453 150.394 447.59L151.439 439.648C151.439 439.648 150.385 439.108 148.974 438.494Z" fill="#CF7961"/>
<path d="M146.931 452.308C146.931 452.308 144.852 454.241 144.669 455.588C144.486 456.934 143.908 458.675 145.585 459.637C147.261 460.599 151.823 461.377 153.71 460.415C155.597 459.454 155.414 457.328 156.55 458.483C157.686 459.637 156.925 460.992 158.821 460.992C160.718 460.992 172.241 462.339 174.696 460.415C177.151 458.492 176.061 455.185 175.301 454.415C174.54 453.646 161.652 453.279 161.652 453.279L154.095 450.77L146.931 452.308Z" fill="white"/>
<path d="M174.119 453.334C172.571 453.334 168.715 453.912 164.858 451.402C161.002 448.892 158.006 444.779 154.919 444.192L150.77 444.742C150.77 444.742 149.955 445.475 150.77 448.406C151.585 451.337 147.747 453.16 152.73 453.334C157.713 453.508 158.226 455.011 159.6 456.083C160.516 456.751 164.932 457.915 168.064 458.675C170.016 458.748 171.848 458.766 173.148 458.675C177.197 458.537 175.658 453.334 174.119 453.334Z" fill="#373175"/>
<path d="M152.73 453.379C147.747 453.205 151.585 451.428 150.77 448.451C149.955 445.474 150.77 444.787 150.77 444.787L146.996 445.282C146.163 447.381 145.621 449.585 145.384 451.831C145.274 453.695 145.274 455.564 145.384 457.428C145.384 457.428 151.558 458.967 153.481 458.005C155.405 457.044 155.029 455.88 155.991 455.88C156.953 455.88 156.184 457.621 158.117 458.005C161.417 458.426 164.738 458.674 168.065 458.747C164.932 457.987 160.48 456.824 159.6 456.155C158.226 455.056 157.713 453.544 152.73 453.379Z" fill="#1E194F"/>
<path d="M115.054 445.896C115.054 445.896 112.929 448.396 111.774 449.944C110.62 451.492 115.246 454.524 116.977 454.955C117.99 455.183 119.032 455.248 120.065 455.147C120.081 455.696 120.231 456.233 120.5 456.712C120.77 457.191 121.152 457.597 121.613 457.895C123.152 458.811 136.718 463.291 139.219 462.714C141.719 462.137 140.758 458.491 140.758 458.491L131.799 453.608L125.24 448.396L115.054 445.896Z" fill="white"/>
<path d="M131.799 453.609C129.857 451.631 127.219 450.165 124.095 448.626C122.455 447.811 122.758 445.878 123.417 444.321C122.023 443.423 120.854 442.216 120 440.794C120 440.794 115.631 442.086 114.861 444.394C114.092 446.702 112.544 448.25 113.57 449.799C114.07 450.596 114.75 451.267 115.554 451.757C116.359 452.246 117.266 452.542 118.205 452.62C120.037 452.62 120.77 449.542 122.052 451.85C123.335 454.159 121.539 454.937 123.6 456.22C125.661 457.502 131.845 460.076 135.426 460.333C139.008 460.589 140.052 461.112 140.565 460.333C140.676 460.154 140.747 459.955 140.776 459.747C139.897 458.29 133.631 455.487 131.799 453.609Z" fill="#373175"/>
<path d="M139.347 456.732C137.799 456.219 132.66 452.876 131.103 449.285C130.263 447.249 129.137 445.343 127.76 443.624C127.346 444.155 126.774 444.541 126.127 444.725C125.48 444.91 124.791 444.883 124.16 444.65C123.905 444.565 123.659 444.454 123.427 444.32C122.767 445.923 122.511 447.81 124.105 448.626C127.219 450.164 129.866 451.63 131.808 453.609C133.75 455.587 139.879 458.29 140.822 459.746C140.96 458.748 140.593 457.154 139.347 456.732Z" fill="#1E194F"/>
<path d="M158.364 378.321C158.364 371.121 151.164 338.474 149.359 334.351C147.554 330.229 122.373 328.69 122.373 328.69C119.184 335.331 117.767 342.684 118.26 350.034C119.286 361.603 134.446 387.774 134.959 389.313C135.472 390.852 132.037 397.393 131.524 399.454C131.011 401.515 120.312 436.406 121.081 437.698C123.234 439.56 125.951 440.644 128.794 440.776C128.794 440.776 141.921 416.803 143.212 412.379C143.212 412.379 152.263 393.848 151.548 388.013C150.834 382.177 146.364 351.802 145.448 349.054C144.695 346.453 144.084 343.815 143.615 341.148C143.615 341.148 152.327 364.049 153.243 367.274C154.159 370.498 156.806 400.15 155.075 405.536C153.344 410.922 151.411 425.689 152.144 428.913C152.73 431.661 151.493 439.677 151.109 442.049C152.523 441.939 153.886 441.476 155.075 440.703C155.075 440.703 156.101 414.77 157.64 401.661C159.179 388.553 158.364 385.53 158.364 378.321Z" fill="#3258A7"/>
<path d="M152.062 428.977C151.375 425.761 153.207 410.986 154.993 405.6C156.779 400.213 154.077 370.543 153.161 367.337C152.245 364.131 143.579 341.212 143.579 341.212C144.048 343.878 144.659 346.517 145.411 349.117C146.327 351.865 150.788 382.232 151.512 388.076C152.236 393.92 143.176 412.442 143.176 412.442L146.245 441.572C147.776 442.077 149.391 442.276 150.999 442.158C151.448 439.74 152.685 431.697 152.062 428.977Z" fill="#1E4380"/>
<path d="M191.68 309.765C191.68 309.765 176.73 306.467 171.921 304.489C168.074 303.068 164.127 301.932 160.113 301.09C157.924 300.019 161.625 287.011 161.689 285.573C161.753 284.135 157.054 281.185 157.054 281.185L156.651 280.645C152.208 276.907 149.093 277.75 145.558 277.897C142.022 278.043 137.093 283.722 134.886 287.689C132.678 291.655 117.664 330.742 116.638 335.863C116.171 338.217 117.005 339.326 120.495 340.919C121.777 338.638 123.481 336.193 125.35 335.066C129.298 332.657 139.777 322.342 134.455 316.535C129.133 310.727 141.417 287.689 141.417 287.689C141.417 287.689 142.187 291.674 141.756 293.561C141.325 295.448 144.852 305.332 146.739 307.567C148.626 309.802 154.819 312.293 154.819 312.293L158.913 313.842C163.017 315.39 190.48 316.535 190.48 316.535C191.936 315.848 191.68 309.765 191.68 309.765Z" fill="#FFC861"/>
<path d="M146.739 307.503C144.852 305.268 141.326 295.384 141.756 293.497C142.187 291.61 141.417 287.625 141.417 287.625C141.417 287.625 129.124 310.663 134.455 316.471C139.787 322.278 129.298 332.593 125.35 335.002C123.518 336.129 121.778 338.575 120.495 340.856C124.77 342.658 129.274 343.86 133.878 344.428C140.584 345.207 151.622 342.248 154.031 341.533C156.44 340.819 155.918 323.488 154.8 321.051C153.683 318.614 154.8 312.23 154.8 312.23C154.8 312.23 148.636 309.765 146.739 307.503Z" fill="#D17E2C"/>
<path d="M365.386 271.987C366.431 270.733 368.189 270.824 369.655 271.218L370.232 278.391C368.697 278.289 367.168 278.106 365.652 277.841L365.386 271.987Z" fill="#FDA181"/>
<path d="M397.713 271.96L398.236 279.746C397.267 279.707 396.305 279.582 395.359 279.371L394.617 274.232C394.7 272.473 396.138 271.978 397.713 271.96Z" fill="#FDA181"/>
<path d="M372.192 272.254L371.734 278.171C371.579 278.364 370.974 278.419 370.205 278.391L369.627 271.219C370.519 271.464 371.38 271.811 372.192 272.254V272.254Z" fill="#D17A62"/>
<path d="M401.661 272.601V278.94C400.644 279.59 399.435 279.875 398.235 279.746L397.713 271.96C399.052 271.988 400.381 272.204 401.661 272.601V272.601Z" fill="#D17A62"/>
<path d="M395.286 278.849C396.234 279.084 397.214 279.171 398.189 279.105C398.189 279.105 398.757 281.78 400.241 282.623C401.725 283.465 403.988 286.287 403.768 289.099C402.086 290.01 400.18 290.423 398.272 290.29C393.939 290.18 393.692 289.291 393.692 289.291C393.307 286.433 395.286 278.849 395.286 278.849Z" fill="#373075"/>
<path d="M400.241 282.623C398.757 281.78 398.199 279.114 398.189 279.105C399.902 279.105 401.661 278.94 401.661 278.94C403.275 281.722 404.324 284.794 404.748 287.982C404.748 288.247 404.437 288.678 403.768 289.099C403.97 286.314 401.615 283.42 400.241 282.623Z" fill="#232059"/>
<path d="M401.469 283.686C401.469 283.686 397.621 282.724 396.431 283.796" stroke="#E6E7E8" stroke-width="0.48" stroke-miterlimit="10" stroke-linecap="round"/>
<path d="M401.661 284.72C401.661 284.72 398.07 284.18 396.668 285.425" stroke="#E6E7E8" stroke-width="0.48" stroke-miterlimit="10" stroke-linecap="round"/>
<path d="M396.642 286.488C396.642 286.488 400.37 285.142 401.634 286.14" stroke="#E6E7E8" stroke-width="0.48" stroke-miterlimit="10" stroke-linecap="round"/>
<path d="M370.205 282.824C369.069 284.217 367.585 286.315 365.359 287.405C363.133 288.495 354.22 289.74 354.22 289.74C353.963 289.603 354.22 288.147 354.22 288.147C354.394 285.481 361.42 283.429 362.776 282.559C364.131 281.689 365.643 277.878 365.643 277.878C367.156 278.126 368.691 278.215 370.223 278.144C370.223 278.144 371.341 281.423 370.205 282.824Z" fill="#373075"/>
<path d="M372.651 281.221C373.393 282.879 373.127 286.46 372.651 288.036C372.174 289.611 366.358 289.437 364.352 289.676C360.977 289.859 357.595 289.859 354.22 289.676C354.22 289.676 363.124 288.384 365.359 287.34C367.594 286.295 369.023 284.189 370.205 282.76C371.387 281.331 370.205 278.042 370.205 278.042C370.737 278.033 371.266 277.943 371.771 277.776C371.898 278.961 372.194 280.12 372.651 281.221V281.221Z" fill="#232059"/>
<path d="M365.964 283.768C365.606 283.342 365.168 282.991 364.674 282.735C364.181 282.479 363.641 282.322 363.087 282.274" stroke="#E6E7E8" stroke-width="0.48" stroke-miterlimit="10" stroke-linecap="round"/>
<path d="M364.525 284.72C364.525 284.72 363.912 283.52 361.273 283.227" stroke="#E6E7E8" stroke-width="0.48" stroke-miterlimit="10" stroke-linecap="round"/>
<path d="M362.409 285.426C362.409 285.426 362.318 284.382 359.505 283.979" stroke="#E6E7E8" stroke-width="0.48" stroke-miterlimit="10" stroke-linecap="round"/>
<path d="M397.182 162.292C399.225 168.705 398.464 201.16 397.447 208.918C396.431 216.677 400.525 229.676 401.661 236.179C402.797 242.683 401.661 272.601 401.661 272.601C401.167 273.984 399.444 274.433 397.823 274.433C397.823 274.433 396.541 247.547 397.182 233.001C397.823 218.454 392.089 224.876 392.483 216.228C392.876 207.581 389.075 185.834 386.712 179.413C384.348 172.992 372.559 174.567 367.713 173.679C362.867 172.79 358.864 165.892 358.864 165.892C358.864 165.892 373.832 159.361 382.095 155.88C390.357 152.399 395.139 155.899 397.182 162.292Z" fill="#094082"/>
<path d="M367.713 173.707C372.559 174.623 384.358 173.02 386.712 179.441C389.066 185.862 392.868 207.609 392.483 216.256C392.098 224.904 397.823 218.482 397.182 233.029C396.541 247.575 397.823 274.461 397.823 274.461C396.75 274.49 395.676 274.413 394.617 274.232C394.617 274.232 387.17 235.356 386.144 231.417C385.118 227.478 379.127 196.168 379.127 196.168C379.127 196.168 379.567 188.308 377.561 186.293C375.555 184.278 372.981 178.433 372.981 178.433C372.981 178.433 368.877 201.252 371.149 207.966C373.42 214.681 369.582 227.249 368.703 232.058C367.878 236.638 369.5 269.679 369.619 272.931C368.14 272.781 366.681 272.474 365.268 272.015C365.268 272.015 362.382 220.241 360.981 214.305C359.579 208.369 358.773 165.957 358.773 165.957C358.773 165.957 362.868 172.846 367.713 173.707Z" fill="#1251C3"/>
<path d="M368.757 232.058C369.673 227.249 373.475 214.653 371.203 207.966C368.931 201.279 373.035 178.434 373.035 178.434C373.035 178.434 375.564 184.287 377.615 186.293C379.667 188.299 379.127 196.168 379.127 196.168C379.127 196.168 376.516 215.46 375.582 220.901C374.647 226.342 375.701 230.977 376.681 235.008C377.661 239.038 372.101 272.391 372.101 272.391C371.745 272.632 371.345 272.801 370.924 272.887C370.502 272.974 370.068 272.976 369.646 272.895C369.554 269.679 367.933 236.638 368.757 232.058Z" fill="#094082"/>
<path d="M394.516 137.322L391.209 119.212C391.209 119.212 388.333 137.991 387.453 141.197C386.574 144.403 381.866 150.357 381.041 151.273C380.217 152.189 352.424 168.192 352.424 168.192L357.866 165.096L357.737 167.129C357.737 167.129 369.591 171.325 373.914 170.995C378.238 170.665 391.878 166.717 391.878 166.717C391.878 166.717 392.794 159.856 392.794 160.186C392.794 160.516 394.672 165.884 394.672 165.884C394.672 165.884 397.42 165.288 398.235 164.381C398.18 164.372 395.725 146.748 394.516 137.322Z" fill="#1E194F"/>
<path d="M377.295 140.061C378.146 138.421 378.669 124.488 378.669 124.488C378.669 124.488 371.469 130.058 370.553 135.82C369.637 141.581 358.882 155.542 358.882 155.542C358.882 155.542 376.424 141.7 377.295 140.061Z" fill="#1E194F"/>
<path d="M353.148 116.336C353.148 116.336 351.902 134.739 351.985 139.237C351.985 140.418 350.565 142.434 348.412 144.733L347.936 145.383C349.715 146.473 351.022 148.188 351.6 150.192L354.257 146.794C354.417 146.586 354.55 146.358 354.651 146.116L357.399 138.586C357.399 138.586 353.139 119.35 353.148 116.336Z" fill="#1E194F"/>
<path d="M394.003 132.751C393.481 126.806 391.301 107.807 388.15 105.389C384.999 102.97 372.724 100.809 372.724 100.809L361.42 103.035C361.42 103.035 352.461 106.451 352.058 108.622C351.655 110.793 347.332 139.465 346.681 140.775C346.507 141.123 345.298 142.68 343.622 144.76H344.034C345.363 144.74 346.685 144.96 347.936 145.41L348.852 144.247C350.739 142.131 351.985 140.317 351.957 139.227C351.875 134.702 353.121 116.326 353.121 116.326C353.121 119.367 357.335 138.641 357.335 138.641C358.315 142.478 359.037 146.377 359.496 150.311C359.762 154.415 358.837 155.541 358.837 155.541C358.837 155.541 369.582 141.59 370.507 135.819C371.432 130.048 378.623 124.488 378.623 124.488C378.623 124.488 378.101 138.439 377.249 140.06C376.397 141.682 358.837 155.523 358.837 155.523L349.622 163.456C349.622 163.456 350.455 168.393 352.37 168.183C352.37 168.183 380.107 152.143 380.986 151.264C381.866 150.384 386.574 144.448 387.399 141.187C388.223 137.926 391.154 119.202 391.154 119.202L394.461 137.312C394.278 135.37 394.095 133.74 394.003 132.751Z" fill="#403882"/>
<path d="M365.222 86.2341C365.222 86.2341 365.139 83.7883 366.449 83.6967C370.983 83.3945 368.015 88.8906 368.015 88.8906C368.015 88.8906 370.132 98.967 372.724 100.799C372.724 100.799 371.386 105.223 368.144 107.101C368.144 107.101 363.957 105.269 363.957 103.19C363.957 101.11 365.854 96.2464 365.854 96.2464C364.745 98.1792 360.449 99.7822 360.449 99.7822C359.532 100.138 358.529 100.206 357.573 99.9746C354.165 98.8662 349.887 83.1105 349.887 83.1105C362.748 75.1135 365.222 86.2341 365.222 86.2341Z" fill="#FDA181"/>
<path d="M364.241 107.899C361.099 107.505 361.42 103.044 361.42 103.044L360.44 99.8474C360.44 99.8474 364.736 98.2443 365.845 96.3115C365.845 96.3115 363.948 101.157 363.948 103.255C363.948 105.353 368.125 107.166 368.135 107.166C366.954 107.834 365.584 108.092 364.241 107.899Z" fill="#D17A62"/>
<path d="M348.192 74.134C350.895 73.5661 359.185 68.702 361.631 68.5096C362.306 68.4713 362.983 68.4928 363.655 68.5737C365.927 69.7646 368.428 71.6516 367.521 73.96C365.945 77.9539 364.104 79.7859 364.076 81.16C364.049 82.534 365.533 87.2791 365.533 87.2791L364.287 86.7386L363.435 84.6867L359.148 80.9676C359.148 80.9676 354.504 84.2745 349.85 83.1111C345.197 81.9478 343.915 77.1753 343.915 77.1753C344.925 75.6772 346.445 74.5966 348.192 74.134V74.134Z" fill="#403882"/>
<path d="M367.52 73.9595C368.436 71.6511 365.927 69.7641 363.655 68.5732C366.723 68.9305 371.285 70.4694 371.899 74.9855C372.687 80.6648 370.278 91.758 370.195 92.7198C370.113 93.6816 369.811 95.4679 369.811 95.4679C369.811 95.4679 367.832 90.4481 367.978 88.9183C367.978 88.9183 369.985 85.4557 367.456 84.2465C364.928 83.0374 365.185 86.2618 365.185 86.2618L365.496 87.3061C365.496 87.3061 364.003 82.5702 364.04 81.187C364.076 79.8038 365.945 77.9534 367.52 73.9595Z" fill="#1E194F"/>
<path d="M350.189 168.796C348.513 169.84 346.452 170.857 346.058 171.81C345.664 172.762 339.957 175.309 335.606 174.888C335.6 174.079 335.723 173.275 335.973 172.506C335.973 172.103 337.805 171.736 339.307 171.004C340.778 170.059 342.131 168.943 343.338 167.678C343.539 167.477 341.322 167.614 340.663 167.184C340.003 166.753 338.922 165.874 339.444 165.251C339.967 164.628 343.182 165.251 345.994 165.077C348.806 164.903 349.658 163.456 349.658 163.456C351.371 163.327 352.122 166.048 352.406 167.385L350.189 168.796Z" fill="#FDA181"/>
<path d="M349.338 171.353C348.715 172.635 343.842 175.933 342.614 176.482C341.387 177.032 336.852 176.62 335.973 175.676C335.779 175.454 335.652 175.18 335.606 174.889C339.958 175.31 345.683 172.754 346.058 171.811C346.434 170.867 348.513 169.841 350.19 168.797C351.866 167.753 352.379 167.35 352.379 167.35C352.471 167.789 352.507 168.073 352.507 168.073C352.507 168.073 349.924 170.098 349.338 171.353Z" fill="#D17A62"/>
<path d="M215.79 46.9192C218.153 45.6734 220.81 40.8918 221.359 39.078C221.953 37.3967 222.651 35.7538 223.448 34.1589C223.448 34.1589 233.634 29.9452 234.962 28.4337C236.381 26.4965 237.655 24.4574 238.773 22.333C240.578 23.2087 241.966 24.7581 242.639 26.6475C243.995 30.0093 242.85 36.4765 244.966 36.8429C247.082 37.2093 252.468 40.3788 252.468 40.3788C253.915 36.9345 248.749 35.7986 246.477 35.0292C244.205 34.2597 248.016 27.4994 249.83 23.6887C251.643 19.878 245.662 18.1925 245.662 18.1925C247.384 15.0139 241.943 14.5284 235.952 12.6963C229.961 10.8643 220.205 13.9513 220.654 18.4307C221.103 22.9101 219.133 24.2017 217.32 26.675C215.506 29.1483 217.32 33.875 217.32 33.875C216.404 36.8704 217.732 39.4994 213.656 41.5879C209.579 43.6765 212.621 52.104 212.621 52.104C212.621 52.104 213.436 48.165 215.79 46.9192Z" fill="#403882"/>
<path d="M241.915 54.9618C250.535 54.6045 253.164 52.1496 255.656 47.5786C258.147 43.0076 252.422 40.3602 252.422 40.3602C252.422 40.3602 247.036 37.1908 244.92 36.8244C242.804 36.458 244.004 29.9908 242.639 26.629C241.968 24.747 240.592 23.1998 238.801 22.3145C237.681 24.4326 236.408 26.4656 234.99 28.3969C233.662 29.945 223.512 34.1587 223.512 34.1587C222.706 35.7625 221.999 37.4145 221.396 39.1053C220.847 40.9374 218.19 45.7007 215.827 46.9465C213.463 48.1923 212.657 52.1038 212.657 52.1038C212.657 52.1038 233.295 55.3465 241.915 54.9618Z" fill="#1E194F"/>
<path d="M259.695 105.975L269.726 99.7004C270.229 99.3858 270.644 98.9482 270.93 98.4289C271.217 97.9096 271.367 97.3257 271.366 96.7324V72.2744H255.921L259.695 105.975Z" fill="#BF4728"/>
<path d="M253.613 72.2744H214.489C210.189 72.2744 206.703 75.7604 206.703 80.0607V99.1141C206.703 103.414 210.189 106.9 214.489 106.9H253.613C257.913 106.9 261.399 103.414 261.399 99.1141V80.0607C261.399 75.7604 257.913 72.2744 253.613 72.2744Z" fill="url(#paint20_linear_406_2092)"/>
<path d="M274.114 68.1345C272.062 60.5131 252.44 47.1849 250.993 46.9192C249.546 46.6536 234.504 45.2979 234.504 45.2979C225.243 46.1314 219.161 47.2307 213.747 50.904C208.333 54.5772 200.236 65.5055 198.056 75.2154C196.728 80.8613 197.469 86.796 200.144 91.9421C200.025 90.8795 203.68 87.0963 203.68 87.0963C199.778 79.7681 205.512 72.4398 209.854 69.0414C214.196 65.6429 218.831 55.0078 218.831 55.0078C219.921 56.2169 217.851 66.5864 217.851 66.5864L218.034 72.275H229.265C229.265 72.275 231.766 63.8108 239.405 63.8108C247.045 63.8108 250.672 52.8185 250.672 52.8185C250.672 52.8185 250.929 57.7742 252.733 59.2307C254.538 60.6872 265.906 67.9421 267.967 72.0551L250.169 91.9605L254.95 96.5406C254.95 96.5406 276.202 75.7467 274.114 68.1345Z" fill="#1251C3"/>
<path d="M252.715 59.2579C250.883 57.8106 250.654 52.8457 250.654 52.8457C250.654 52.8457 246.99 63.8381 239.387 63.8381C231.784 63.8381 229.247 72.3022 229.247 72.3022H251.497L252.037 66.0732L261.427 71.8808C259.137 73.603 250.15 91.9694 250.15 91.9694L267.921 72.0823C265.86 67.9236 254.492 60.6686 252.715 59.2579Z" fill="#094082"/>
<path d="M218.822 55.0078C218.822 55.0078 214.242 65.6887 209.845 69.0414C205.448 72.3941 199.769 79.7498 203.671 87.0964C202.407 84.4674 206.666 76.104 207.958 75.1239C209.25 74.1437 217.805 66.5864 217.805 66.5864C217.805 66.5864 219.848 56.217 218.822 55.0078Z" fill="#094082"/>
<path d="M227.534 43.2094L227.634 47.469C227.634 47.469 231.399 52.6079 239.671 46.7178L238.92 40.8369L227.534 43.2094Z" fill="#FDA181"/>
<path d="M227.534 42.8705L238.92 40.8369L239.36 44.2537C239.36 44.2537 234.706 47.0934 231.381 46.9102C228.056 46.727 227.589 45.4171 227.589 45.4171L227.534 42.8705Z" fill="#D17A62"/>
<path d="M224.08 26.0794C224.08 26.0794 222.486 35.4412 224.419 40.1038C226.352 44.7664 231.262 46.0672 232.718 45.8107C234.175 45.5542 238.892 44.0336 240.34 40.4061C241.787 36.7786 242.941 28.4977 242.52 24.9893C242.098 21.4809 225.592 15.1328 224.08 26.0794Z" fill="#FDA181"/>
<path d="M238.737 22.3333C238.737 22.3333 238.187 26.5654 239.863 27.6463C241.54 28.7272 241.695 35.1761 241.695 35.1761C241.695 35.1761 245.827 28.7638 244.022 24.0829C242.218 19.402 238.782 16.1043 238.737 22.3333Z" fill="#403882"/>
<path d="M239.36 22.9925C238.393 23.9661 237.189 24.6689 235.866 25.0306C234.543 25.3924 233.148 25.4003 231.821 25.0536C226.975 23.9635 225.528 35.5605 222.019 34.388C218.511 33.2154 222.202 18.8154 228.312 17.6704C234.422 16.5254 241.723 17.1208 239.36 22.9925Z" fill="#403882"/>
<path d="M250.123 91.9424C249.104 92.744 248.03 93.4726 246.908 94.1225C246.312 94.3057 242.007 95.2126 241.549 95.2126C241.091 95.2126 240.963 96.6599 242.19 96.7515C243.173 96.8065 244.157 96.8065 245.14 96.7515C245.14 96.7515 241.329 100.333 240.56 100.516C239.79 100.7 240.651 102.77 241.109 103.045C241.567 103.319 245.149 104.877 248.089 103.045C251.03 101.213 252.743 100.104 254.914 96.4767C257.085 92.8493 250.123 91.9424 250.123 91.9424Z" fill="#FDA181"/>
<path d="M203.634 87.0966C204.793 87.2074 205.962 87.1144 207.088 86.8217C208.077 86.3729 209.03 86.0981 209.305 86.4095C209.579 86.721 207.921 88.2416 207.308 88.4981C206.997 88.6212 206.716 88.8085 206.483 89.0477C206.483 89.0477 206.538 90.3576 207.537 90.6782C209.153 91.2161 210.73 91.8681 212.254 92.6294C212.208 92.7668 212.025 95.5332 211.338 95.982C209.277 96.679 207.091 96.9257 204.926 96.7057C203.661 96.2695 202.529 95.5156 201.639 94.5163C200.748 93.517 200.13 92.3058 199.842 90.9988C199.1 87.5912 201.821 86.1897 203.634 87.0966Z" fill="#FDA181"/>
<path d="M256.892 103.521C257.545 103.521 258.074 103.017 258.074 102.394C258.074 101.772 257.545 101.268 256.892 101.268C256.24 101.268 255.71 101.772 255.71 102.394C255.71 103.017 256.24 103.521 256.892 103.521Z" fill="#DDDDDD"/>
<path d="M256.498 76.7456C257.151 76.7456 257.68 76.2412 257.68 75.6189C257.68 74.9966 257.151 74.4922 256.498 74.4922C255.845 74.4922 255.316 74.9966 255.316 75.6189C255.316 76.2412 255.845 76.7456 256.498 76.7456Z" fill="#DDDDDD"/>
<path d="M211.402 103.758C212.055 103.758 212.584 103.254 212.584 102.632C212.584 102.009 212.055 101.505 211.402 101.505C210.749 101.505 210.22 102.009 210.22 102.632C210.22 103.254 210.749 103.758 211.402 103.758Z" fill="#DDDDDD"/>
<path d="M211.008 76.9839C211.66 76.9839 212.19 76.4795 212.19 75.8572C212.19 75.2349 211.66 74.7305 211.008 74.7305C210.355 74.7305 209.826 75.2349 209.826 75.8572C209.826 76.4795 210.355 76.9839 211.008 76.9839Z" fill="#DDDDDD"/>
<defs>
<linearGradient id="paint0_linear_406_2092" x1="424.049" y1="306.678" x2="447.545" y2="392.465" gradientUnits="userSpaceOnUse">
<stop stop-color="#2272B9"/>
<stop offset="0.41" stop-color="#2851A5"/>
<stop offset="0.77" stop-color="#2C3A97"/>
<stop offset="1" stop-color="#2D3292"/>
</linearGradient>
<linearGradient id="paint1_linear_406_2092" x1="441.087" y1="394.242" x2="480.996" y2="344.897" gradientUnits="userSpaceOnUse">
<stop stop-color="#F79B5E"/>
<stop offset="0.29" stop-color="#FAAD60"/>
<stop offset="0.71" stop-color="#FEC162"/>
<stop offset="1" stop-color="#FFC863"/>
</linearGradient>
<linearGradient id="paint2_linear_406_2092" x1="433.475" y1="388.086" x2="473.386" y2="338.739" gradientUnits="userSpaceOnUse">
<stop stop-color="#F79B5E"/>
<stop offset="0.29" stop-color="#FAAD60"/>
<stop offset="0.71" stop-color="#FEC162"/>
<stop offset="1" stop-color="#FFC863"/>
</linearGradient>
<linearGradient id="paint3_linear_406_2092" x1="116.464" y1="374.922" x2="82.3603" y2="257.368" gradientUnits="userSpaceOnUse">
<stop stop-color="#1252C4"/>
<stop offset="1" stop-color="#3F87FE"/>
</linearGradient>
<linearGradient id="paint4_linear_406_2092" x1="458.272" y1="383.451" x2="391.42" y2="414.203" gradientUnits="userSpaceOnUse">
<stop stop-color="#2272B9"/>
<stop offset="0.41" stop-color="#2851A5"/>
<stop offset="0.77" stop-color="#2C3A97"/>
<stop offset="1" stop-color="#2D3292"/>
</linearGradient>
<linearGradient id="paint5_linear_406_2092" x1="331.64" y1="400.691" x2="411.335" y2="400.691" gradientUnits="userSpaceOnUse">
<stop offset="1" stop-color="#2D3292"/>
</linearGradient>
<linearGradient id="paint6_linear_406_2092" x1="92.6201" y1="402.239" x2="196.938" y2="402.239" gradientUnits="userSpaceOnUse">
<stop stop-color="#F67447"/>
<stop offset="1" stop-color="#F69159"/>
</linearGradient>
<linearGradient id="paint7_linear_406_2092" x1="480.669" y1="384.744" x2="369.454" y2="365.965" gradientUnits="userSpaceOnUse">
<stop offset="0.05" stop-color="#FAD05A"/>
<stop offset="0.33" stop-color="#FAC85A"/>
<stop offset="0.77" stop-color="#F9B159"/>
<stop offset="1" stop-color="#F8A359"/>
</linearGradient>
<linearGradient id="paint8_linear_406_2092" x1="331.64" y1="288.496" x2="433.741" y2="288.496" gradientUnits="userSpaceOnUse">
<stop stop-color="#1252C4"/>
<stop offset="1" stop-color="#3F87FE"/>
</linearGradient>
<linearGradient id="paint9_linear_406_2092" x1="193.255" y1="345.619" x2="340.819" y2="345.619" gradientUnits="userSpaceOnUse">
<stop stop-color="#1252C4"/>
<stop offset="1" stop-color="#3F87FE"/>
</linearGradient>
<linearGradient id="paint10_linear_406_2092" x1="195.408" y1="320.546" x2="334.746" y2="320.546" gradientUnits="userSpaceOnUse">
<stop stop-color="#3159A7"/>
<stop offset="1" stop-color="#557EBE"/>
</linearGradient>
<linearGradient id="paint11_linear_406_2092" x1="195.252" y1="176.024" x2="337.943" y2="176.024" gradientUnits="userSpaceOnUse">
<stop stop-color="#3159A7"/>
<stop offset="1" stop-color="#557EBE"/>
</linearGradient>
<linearGradient id="paint12_linear_406_2092" x1="167.506" y1="171.847" x2="412.663" y2="236.858" gradientUnits="userSpaceOnUse">
<stop stop-color="#2272B9"/>
<stop offset="0.41" stop-color="#2851A5"/>
<stop offset="0.77" stop-color="#2C3A97"/>
<stop offset="1" stop-color="#2D3292"/>
</linearGradient>
<linearGradient id="paint13_linear_406_2092" x1="192.815" y1="427.52" x2="340.379" y2="427.52" gradientUnits="userSpaceOnUse">
<stop stop-color="#F79B5E"/>
<stop offset="0.29" stop-color="#FAAD60"/>
<stop offset="0.71" stop-color="#FEC162"/>
<stop offset="1" stop-color="#FFC863"/>
</linearGradient>
<linearGradient id="paint14_linear_406_2092" x1="299.57" y1="162.083" x2="351.683" y2="162.083" gradientUnits="userSpaceOnUse">
<stop stop-color="#F79B5E"/>
<stop offset="0.29" stop-color="#FAAD60"/>
<stop offset="0.71" stop-color="#FEC162"/>
<stop offset="1" stop-color="#FFC863"/>
</linearGradient>
<linearGradient id="paint15_linear_406_2092" x1="212.098" y1="321.912" x2="146.858" y2="293.066" gradientUnits="userSpaceOnUse">
<stop stop-color="#2272B9"/>
<stop offset="0.41" stop-color="#2851A5"/>
<stop offset="0.77" stop-color="#2C3A97"/>
<stop offset="1" stop-color="#2D3292"/>
</linearGradient>
<linearGradient id="paint16_linear_406_2092" x1="264.66" y1="365.166" x2="360.376" y2="414.246" gradientUnits="userSpaceOnUse">
<stop stop-color="#2272B9"/>
<stop offset="0.41" stop-color="#2851A5"/>
<stop offset="0.77" stop-color="#2C3A97"/>
<stop offset="1" stop-color="#2D3292"/>
</linearGradient>
<linearGradient id="paint17_linear_406_2092" x1="288.77" y1="306.889" x2="341.442" y2="306.889" gradientUnits="userSpaceOnUse">
<stop stop-color="#F79B5E"/>
<stop offset="0.29" stop-color="#FAAD60"/>
<stop offset="0.71" stop-color="#FEC162"/>
<stop offset="1" stop-color="#FFC863"/>
</linearGradient>
<linearGradient id="paint18_linear_406_2092" x1="281.158" y1="225.838" x2="358.553" y2="244.589" gradientUnits="userSpaceOnUse">
<stop stop-color="#F67447"/>
<stop offset="1" stop-color="#F69159"/>
</linearGradient>
<linearGradient id="paint19_linear_406_2092" x1="198.916" y1="211.383" x2="272.18" y2="265.713" gradientUnits="userSpaceOnUse">
<stop stop-color="#F79B5E"/>
<stop offset="0.29" stop-color="#FAAD60"/>
<stop offset="0.71" stop-color="#FEC162"/>
<stop offset="1" stop-color="#FFC863"/>
</linearGradient>
<linearGradient id="paint20_linear_406_2092" x1="272.465" y1="78.879" x2="197.121" y2="99.8927" gradientUnits="userSpaceOnUse">
<stop stop-color="#F67447"/>
<stop offset="1" stop-color="#F69159"/>
</linearGradient>
</defs>
</svg>
