<svg width="571" height="400" viewBox="0 0 571 400" fill="none" xmlns="http://www.w3.org/2000/svg">
<path d="M329.707 370.67C329.707 370.67 331.356 365.789 335.98 364.432C340.603 363.075 349.947 358.908 351.917 356.429C353.888 353.949 353.523 350.434 354.488 350.23C355.454 350.026 357.394 351.535 358.138 351.587C358.882 351.639 358.512 353.588 358.512 353.588C358.512 353.588 365.824 353.823 368.003 353.414C368.003 353.414 369.9 367.229 369.652 370.431C369.652 370.431 364.123 371.153 359.647 371.231C355.171 371.309 334.905 371.714 329.707 370.67Z" fill="#403882"/>
<path d="M369.487 373.871C368.661 374.032 329.973 374.372 329.468 373.871C328.964 373.371 329.138 370.827 329.716 370.67C334.936 371.714 355.219 371.314 359.674 371.231C364.128 371.148 369.678 370.431 369.678 370.431C369.678 370.431 370.314 373.71 369.487 373.871Z" fill="#E0E6EE"/>
<path d="M335.98 364.43C336.632 364.239 337.385 363.995 338.189 363.695C339.138 364.104 341.317 365.679 341.526 371.342C336.471 371.281 331.83 371.094 329.707 370.668C329.707 370.668 331.356 365.788 335.98 364.43Z" fill="#E0E6EE"/>
<path d="M344.066 373.022C344.144 373.022 351.996 372.835 355.985 372.996C359.974 373.156 368.599 372.561 368.7 372.561C368.78 372.556 368.855 372.52 368.908 372.461C368.962 372.401 368.99 372.323 368.987 372.243C368.985 372.203 368.974 372.164 368.956 372.128C368.939 372.092 368.914 372.061 368.883 372.035C368.852 372.009 368.817 371.99 368.779 371.979C368.74 371.967 368.7 371.964 368.66 371.969C368.573 371.969 359.961 372.543 356.011 372.404C352.061 372.265 344.131 372.43 344.053 372.434C343.975 372.434 343.899 372.466 343.844 372.521C343.788 372.576 343.757 372.652 343.757 372.73C343.757 372.809 343.788 372.884 343.844 372.939C343.899 372.995 343.975 373.026 344.053 373.026L344.066 373.022Z" fill="#403882"/>
<path d="M421.616 352.988C421.311 352.949 412.068 353.223 411.341 353.066C410.615 352.91 410.036 352.549 410.162 353.893C410.289 355.237 408.101 363.263 407.4 365.638C406.905 367.494 406.598 369.396 406.482 371.314L427.897 371.236C427.897 371.236 427.523 368.243 426.435 366.29C425.348 364.337 422.29 355.494 421.99 354.567C421.69 353.641 421.92 353.027 421.616 352.988Z" fill="#403882"/>
<path d="M426.435 366.303C426.383 366.212 426.327 366.099 426.266 365.977C425.239 364.702 423.582 363.676 420.881 363.55C413.921 363.276 408.701 363.985 406.574 370.257C406.509 370.905 406.482 371.327 406.482 371.327L427.897 371.249C427.897 371.249 427.518 368.256 426.435 366.303Z" fill="#E0E6EE"/>
<path d="M427.897 371.249C427.897 371.249 428.667 373.681 428.367 373.972C428.066 374.263 407.139 374.12 406.661 373.907C406.182 373.694 406.226 371.653 406.482 371.327C406.739 371.001 425.222 370.775 427.897 371.249Z" fill="#E0E6EE"/>
<g style="mix-blend-mode:multiply" opacity="0.5">
<path d="M427.897 371.248C427.897 371.248 427.897 371.2 427.897 371.113C424.735 370.678 408.992 370.678 406.5 371.305V371.326L427.897 371.248Z" fill="#010117"/>
</g>
<path d="M385.716 56.1281L388.444 50.0079L385.299 49.0596L385.716 56.1281Z" fill="#1E194F"/>
<path d="M378.595 66.1129L377.93 86.2963C377.93 86.2963 377.93 98.6499 370.309 99.1763C362.688 99.7026 358.607 84.3128 358.607 84.3128L362.522 64.3643L378.595 66.1129Z" fill="#F69E80"/>
<path d="M364.597 69.0968C364.597 69.0968 368.764 78.9579 378.143 79.4842L378.578 66.1084L364.597 69.0968Z" fill="#D17A62"/>
<path d="M386.352 49.814C386.352 49.814 384.52 74.8518 379.361 76.5744C374.202 78.2969 363.576 72.2419 362.519 64.373C359.065 66.0259 352.157 52.4761 362.236 54.5553C362.236 54.5466 372.854 30.7224 386.352 49.814Z" fill="#F69E80"/>
<path d="M369.765 46.8779C369.765 46.8779 376.29 54.4728 386.073 52.9156L386.369 49.3835L369.765 46.8779Z" fill="#D17A62"/>
<path d="M362.234 54.5447C362.234 54.5447 363.065 56.898 363.396 56.8763C363.726 56.8545 366.558 53.9879 367.367 50.9648L366.78 54.1141C366.78 54.1141 369.703 50.6646 369.764 46.8759C373.505 51.2823 387.981 55.8584 392.692 45.3491L389.787 44.7358L391.909 44.0833C391.909 44.0833 384.175 36.5145 377.12 34.8616C368.455 33.6523 363.992 37.7629 362.713 40.0814C362.713 40.0814 358.641 42.3216 358.067 42.9915C357.493 43.6614 358.702 54.5186 358.702 54.5186C359.874 54.3484 361.065 54.3572 362.234 54.5447Z" fill="#403882"/>
<path d="M342.283 176.597C342.283 176.597 345.563 253.433 347.725 271.572C349.887 289.711 351.822 352.597 354.167 354.568C356.512 356.538 368.047 356.308 368.356 354.267C368.665 352.227 372.537 292.499 371.836 288.041C371.136 283.582 368.282 265.917 368.004 262.981C367.857 260.993 367.955 258.995 368.295 257.03L371.071 209.343C371.071 209.343 388.035 278.127 390.475 286.057C392.916 293.987 404.064 348.186 407.875 358.208C407.875 358.208 418.154 360.44 424.596 356.168C424.596 356.168 416.409 297.51 413.447 287.114C410.485 276.718 391.846 176.888 391.846 176.888C391.846 176.888 345.476 172.652 342.283 176.597Z" fill="#1150BE"/>
<path d="M371.075 209.36L370.187 205.175L362.605 199.664L368.717 249.927L371.075 209.36Z" fill="#094080"/>
<path d="M342.379 178.838C342.379 178.838 364.724 189.047 393.011 182.992L391.872 176.902C391.872 176.902 346.55 171.726 342.283 176.611L342.379 178.838Z" fill="#094080"/>
<path d="M342.113 92.0029C342.113 92.0029 338.098 98.7757 332.413 112.486C326.728 126.197 324.301 136.654 324.301 136.654C324.301 136.654 300.22 168.26 300.376 167.93C300.533 167.599 308.741 176.038 308.989 175.873C309.237 175.707 340.765 148.947 340.765 148.947L342.113 92.0029Z" fill="#F55662"/>
<path d="M338.394 115.496C338.394 115.496 335.005 139.42 332.33 145.602C329.655 151.783 308.997 175.872 308.997 175.872L340.773 148.947C340.773 148.947 340.608 118.176 338.394 115.496Z" fill="#CE3650"/>
<path d="M301.781 166.155C301.781 166.155 295.161 169.822 294.117 170.365C293.073 170.909 287.636 176.385 287.762 176.803C287.888 177.221 289.18 177.808 290.019 177.638C290.834 177.392 291.619 177.057 292.36 176.638C292.36 176.638 288.566 184.107 287.984 184.903C287.401 185.699 283.912 191.814 283.912 191.984C283.912 192.154 285.391 192.928 286.144 192.454C286.896 191.98 290.741 187.104 290.741 187.104C290.741 187.104 285.835 195.829 285.809 195.995C285.783 196.16 287.427 196.665 288.288 195.995C288.804 195.597 289.281 195.149 289.71 194.659C289.474 195.082 289.288 195.53 289.154 195.995C289.18 196.221 290.659 196.551 291.411 195.747C292.164 194.942 296.318 188.413 296.318 188.413C296.318 188.413 293.543 193.598 293.543 193.933C293.543 194.268 295.47 194.016 296.053 193.376C296.635 192.737 300.124 186.782 301.377 185.155C302.63 183.528 307.858 178.295 308.985 175.872C310.111 173.449 308.332 165.902 301.781 166.155Z" fill="#F69E80"/>
<path d="M292.36 176.626C292.36 176.626 294.535 175.321 295.427 175.321C296.319 175.321 300.36 174.538 301.473 173.172C301.473 173.172 299.942 175.738 298.102 176.217C296.262 176.695 291.238 178.827 291.238 178.827L292.36 176.626Z" fill="#D17A62"/>
<path d="M378.064 81.7686L403.35 96.0405C403.35 96.0405 392.954 139.583 391.949 147.017C390.944 154.451 391.871 176.896 391.871 176.896C391.871 176.896 379.465 184.504 366.62 183.482C353.774 182.459 341.538 178.262 342.291 176.613C343.043 174.964 343.457 171.271 343.457 171.271C343.457 171.271 336.771 129.948 338.776 113.744C340.781 97.5412 341.034 93.5915 342.121 91.9951C343.209 90.3987 358.916 82.6603 358.916 82.6603C359.762 84.319 361.042 85.7169 362.62 86.7052C364.198 87.6934 366.015 88.2348 367.877 88.2716C374.471 88.5326 378.064 81.7686 378.064 81.7686Z" fill="#F55662"/>
<path d="M376.312 143.428C374.976 143.428 344.371 138.913 344.371 138.913L391.575 167.026C391.432 160.031 391.388 151.197 391.949 147.016C392.384 143.667 394.755 133.014 397.204 122.305L394.311 118.168C394.311 118.168 377.651 143.428 376.312 143.428Z" fill="#CE3650"/>
<path d="M357.582 85.6162C357.582 85.6162 360.927 91.7495 366.89 92.0845C372.854 92.4194 378.596 87.0647 378.596 87.0647" stroke="#1E194F" stroke-miterlimit="10" stroke-linecap="round"/>
<path d="M403.351 96.0459C403.351 96.0459 405.247 96.8245 406.583 101.005C407.918 105.185 421.133 145.687 419.128 151.959C417.122 158.232 408.592 161.807 405.495 161.324C402.398 160.842 363.688 147.274 363.688 147.274L366.364 136.069C366.364 136.069 395.46 138.414 398.305 137.409C398.305 137.409 393.707 128.378 394.39 115.164C395.073 101.949 403.351 96.0459 403.351 96.0459Z" fill="#F55662"/>
<path d="M354.128 128.31C354.128 128.31 348.804 125.465 348.038 125.887C347.273 126.309 347.512 127.78 347.734 128.032C347.955 128.284 350.465 129.537 350.465 129.537L354.128 128.31Z" fill="#D17A62"/>
<path d="M366.363 136.068C366.363 136.068 365.776 143.593 363.688 147.273C363.688 147.273 351.508 143.763 350.838 143.541C350.168 143.319 344.983 142.814 344.705 142.236C344.427 141.657 342.417 137.451 342.417 136.046C342.417 134.641 342.643 132.131 343.365 131.587C344.087 131.044 353.009 128.077 354.127 128.299C355.245 128.521 366.363 136.068 366.363 136.068Z" fill="#F69E80"/>
<path d="M354.127 128.312C353.009 128.09 344.092 131.043 343.365 131.6C342.639 132.157 342.417 134.645 342.417 136.059C342.417 137.473 344.427 141.692 344.705 142.249C344.983 142.805 350.09 143.31 350.821 143.536C350.864 142.762 351.06 139.587 351.352 135.524C351.687 130.843 354.127 128.312 354.127 128.312Z" fill="#D17A62"/>
<path d="M160.865 226.612H202.676L223.855 292.639H179.439L160.865 226.612Z" fill="#CE3650"/>
<path d="M208.061 365.899V301.095H204.346V365.899H208.061Z" fill="#C7CCD1"/>
<path d="M208.061 365.899V301.095H206.703V365.899H208.061Z" fill="#A5A7A8"/>
<path d="M204.171 314.81L201.217 301.095H211.187L208.234 314.81H204.171Z" fill="#A5A7A8"/>
<path d="M227.072 374.094H185.331V372.968L202.099 370.21H210.303L227.072 372.968V374.094Z" fill="#C7CCD1"/>
<path d="M211.283 370.523H201.122L203.01 358.83H209.395L211.283 370.523Z" fill="#C7CCD1"/>
<path d="M203.009 358.83H209.395L211.283 370.523L227.073 372.967H199.247L204.171 370.866L205.497 359.865L203.009 358.83Z" fill="#A5A7A8"/>
<path d="M225.312 301.095H187.099V306.771H225.312V301.095Z" fill="#F55662"/>
<path d="M225.312 301.095H187.099V302.535H225.312V301.095Z" fill="#CE3650"/>
<path d="M240.48 292.638H173.731V301.098H240.48V292.638Z" fill="#F55662"/>
<path d="M240.475 292.638H179.438L240.475 295.121V292.638Z" fill="#CE3650"/>
<path d="M173.731 301.095L154.726 231.228L160.864 226.612L179.438 292.639L173.731 301.095Z" fill="#F55662"/>
<path d="M271.637 351.193L273.659 357.64C273.659 357.64 271.737 374.521 272.65 374.991C273.564 375.461 310.385 375.039 314.644 374.991C314.755 374.991 314.862 374.949 314.943 374.873C315.023 374.797 315.072 374.693 315.079 374.582C315.205 373.277 315.409 369.228 313.339 368.253C310.886 367.083 295.913 357.879 295.3 356.161C294.687 354.442 292.964 343.89 292.964 343.89L271.637 351.193Z" fill="#F79F81"/>
<path d="M288.493 357.331C289.476 361.463 300.172 367.335 300.172 367.335C303.796 368.936 307.889 368.249 311.216 367.061C306.318 364.216 295.835 357.583 295.326 356.152C294.709 354.412 292.99 343.881 292.99 343.881L286.4 346.134L286.609 347.256C286.609 347.256 287.51 353.203 288.493 357.331Z" fill="#CF7961"/>
<path d="M272.662 374.989C273.532 375.424 310.397 375.037 314.656 374.989C314.767 374.989 314.874 374.947 314.955 374.871C315.035 374.795 315.084 374.691 315.091 374.58C315.217 373.275 315.421 369.225 313.351 368.251C312.642 367.912 310.871 366.894 308.705 365.58C310.01 368.373 300.158 367.32 300.158 367.32C301.141 369.112 291.81 370.5 282.667 369.147C273.523 367.794 272.788 366.259 272.788 366.259C272.44 370.513 272.197 374.758 272.662 374.989Z" fill="#403882"/>
<path d="M315.087 374.586C315.213 373.281 315.417 369.231 313.347 368.257C312.638 367.917 310.867 366.9 308.701 365.586C310.006 368.379 300.154 367.326 300.154 367.326C300.154 367.326 306.109 369.275 307.148 370.719C307.849 371.684 307.844 373.764 307.766 375.038L314.626 374.973C314.738 374.98 314.848 374.944 314.934 374.872C315.02 374.8 315.075 374.697 315.087 374.586Z" fill="#232059"/>
<path d="M180.358 254.597C180.358 254.597 161.892 292.637 189.327 292.637H247.781C247.781 292.637 251.139 308.327 256.537 319.449C261.935 330.572 270.892 352.008 270.892 352.008C270.892 352.008 280.831 351.317 286.599 347.267C286.599 347.267 292.858 346.345 293.659 344.566C293.659 344.566 277.999 273.132 271.87 269.448C265.741 265.763 220.198 247.807 220.198 247.807C220.198 247.807 197.953 238.89 180.358 254.597Z" fill="#1150BE"/>
<path d="M293.667 344.564C293.667 344.564 278.008 273.131 271.879 269.446C269.673 268.141 262.379 264.957 253.94 261.442C234.557 257.962 209.954 254.596 209.954 254.596C209.954 254.596 266.602 267.854 270.282 273.622C273.962 279.39 286.607 347.265 286.607 347.265C286.607 347.265 292.867 346.343 293.667 344.564Z" fill="#094080"/>
<path d="M230.109 184.4C227.573 179.159 234.024 153.138 234.529 151.011C235.033 148.884 231.092 147.326 231.092 147.326C231.667 141.11 219.717 137.918 208.834 138.492C197.951 139.066 192.626 152.481 190.834 163.364C189.186 173.347 186.58 175.27 186.158 175.518L186.097 175.553C179.259 179.676 172.852 179.346 173.874 185.644C174.896 191.943 163.408 193.152 173.535 202.383C187.724 215.319 230.083 200.408 233.789 194.622C237.495 188.837 230.109 184.4 230.109 184.4Z" fill="#403882"/>
<path d="M230.109 184.399C230.109 184.399 203.361 183.16 186.101 175.552C179.263 179.675 172.856 179.345 173.878 185.643C174.9 191.942 163.412 193.151 173.539 202.382C187.728 215.318 230.087 200.407 233.793 194.622C237.499 188.836 230.109 184.399 230.109 184.399Z" fill="#1E194F"/>
<path d="M228.679 147.207C228.679 147.207 219.227 163.367 215.464 165.911C211.702 168.456 200.448 161.997 200.448 161.997C199.109 168.047 203.398 170.596 203.398 170.596C201.027 169.765 199.483 168.491 198.582 166.942C194.054 175.729 186.103 175.555 186.103 175.555C203.367 183.163 230.114 184.403 230.114 184.403C230.029 184.221 229.958 184.034 229.901 183.842C227.726 177.782 229.832 172.323 231.18 160.352C232.568 147.986 228.679 147.207 228.679 147.207Z" fill="#1E194F"/>
<path d="M228.677 147.204C228.677 147.204 228.986 163.65 222.418 176.374C221.922 177.339 218.338 176.874 218.338 176.874C218.338 176.874 217.711 182.39 217.794 184.395C217.877 186.4 215.097 188.075 207.28 184.556C205.236 183.634 201.391 180.545 201.391 180.545C201.391 180.545 203.231 172.937 203.396 170.541C203.396 170.541 197.258 167.931 199.046 160.436C200.834 152.941 218.451 143.537 228.677 147.204Z" fill="#FDA181"/>
<path d="M205.067 170.657C204.466 171.092 203.396 170.565 203.396 170.565C203.396 170.752 203.357 170.974 203.327 171.218C203.64 171.27 203.962 171.246 204.265 171.149C204.567 171.051 204.842 170.882 205.067 170.657V170.657Z" fill="#CF7961"/>
<path d="M203.397 170.562C203.397 170.562 199.108 168.013 200.448 161.963C200.448 161.963 212.293 164.172 216.038 159.261C219.783 154.35 222.972 145.668 228.679 147.204C228.679 147.204 222.541 139.53 212.171 143.95C201.801 148.369 190.452 166.004 203.397 170.562Z" fill="#403882"/>
<path d="M203.396 170.566C203.396 170.566 199.107 168.016 200.447 161.966C200.008 163.678 199.382 165.336 198.581 166.912C199.477 168.46 201.025 169.735 203.396 170.566Z" fill="#1E194F"/>
<path d="M218.339 176.872C218.339 176.872 213.92 176.259 210.605 174.571C210.605 174.571 214.668 177.916 218.1 179.208L218.339 176.872Z" fill="#CF7961"/>
<path d="M201.39 180.545C201.39 180.545 186.57 184.556 183.221 188.483C179.872 192.411 160.48 235.079 167.831 245.106C170.476 248.707 183.212 245.106 183.212 245.106L180.35 254.597C180.35 254.597 198.237 251.818 204.679 249.377C211.121 246.937 220.199 247.824 220.199 247.824C220.199 247.824 222.083 237.672 223.392 235.301C224.701 232.93 226.119 230.786 226.119 230.786C226.119 230.786 230.273 241.408 233.949 241.843C237.625 242.278 249.252 235.292 249.252 235.292C249.252 235.292 238.617 194.773 232.722 190.054C226.828 185.334 217.789 183.498 217.789 183.498C217.789 183.498 217.62 186.322 213.874 186.221C207.45 186.026 201.39 180.545 201.39 180.545Z" fill="#FFC861"/>
<path d="M183.22 245.107C183.22 245.107 196.152 238.069 198.197 234.715C200.241 231.361 224.379 233.145 224.379 233.145C224.379 233.145 204.004 236.29 202.12 238.799C200.237 241.309 181.833 249.674 181.833 249.674L183.22 245.107Z" fill="#D17E2C"/>
<path d="M233.949 241.471C237.633 241.88 249.252 234.946 249.252 234.946C249.252 234.946 241.97 228.974 239.351 222.031C236.733 215.089 230.76 198.129 230.76 198.129C230.76 198.129 234.28 209.747 232.97 214.737C231.661 219.726 226.119 230.427 226.119 230.427C226.119 230.427 230.273 241.062 233.949 241.471Z" fill="#D17E2C"/>
<path d="M191.122 206.584L184.127 229.638C184.127 229.638 197.198 223.627 200.574 223.257C200.574 223.257 190.508 222.626 190.591 220.456C190.674 218.285 191.122 206.584 191.122 206.584Z" fill="#D17E2C"/>
<path d="M200.573 223.236C200.573 223.236 195.741 229.374 198.198 234.711L216.281 227.16C216.281 227.16 211.496 223.85 209.043 223.789C206.589 223.728 200.573 223.236 200.573 223.236Z" fill="#F79F81"/>
<path d="M338.297 235.468L363.409 367.843C364.009 371.066 361.834 374.081 358.863 374.081C356.893 374.081 355.14 372.697 354.483 370.601L311.746 235.468" stroke="black" stroke-width="2" stroke-miterlimit="10"/>
<path d="M157.104 235.467L131.987 367.842C131.378 371.066 133.584 374.093 136.533 374.093C138.508 374.093 140.261 372.71 140.918 370.613L183.655 235.445" stroke="black" stroke-width="2" stroke-miterlimit="10"/>
<path d="M45.144 226.612H86.9593L108.135 292.639H63.7223L45.144 226.612Z" fill="#CE3650"/>
<path d="M92.3447 365.899V301.095H88.63V365.899H92.3447Z" fill="#C7CCD1"/>
<path d="M92.3447 365.903V301.099H90.9876V365.903H92.3447Z" fill="#A5A7A8"/>
<path d="M88.455 314.81L85.5015 301.095H95.4714L92.5178 314.81H88.455Z" fill="#A5A7A8"/>
<path d="M111.357 374.094H69.6152V372.968L86.384 370.21H94.5878L111.357 372.968V374.094Z" fill="#C7CCD1"/>
<path d="M95.5675 370.523H85.4062L87.2941 358.83H93.6797L95.5675 370.523Z" fill="#C7CCD1"/>
<path d="M87.2934 358.83H93.679L95.5669 370.523L111.357 372.967H83.5308L88.4548 370.866L89.7815 359.865L87.2934 358.83Z" fill="#A5A7A8"/>
<path d="M109.596 301.095H71.3828V306.771H109.596V301.095Z" fill="#F55662"/>
<path d="M109.596 301.095H71.3828V302.535H109.596V301.095Z" fill="#CE3650"/>
<path d="M124.76 292.638H58.0112V301.098H124.76V292.638Z" fill="#F55662"/>
<path d="M124.759 292.638H63.7217L124.759 295.121V292.638Z" fill="#CE3650"/>
<path d="M58.0105 301.095L39.0103 231.228L45.1436 226.612L63.7219 292.639L58.0105 301.095Z" fill="#F55662"/>
<path d="M525.704 227.355H483.889L462.714 293.378H507.13L525.704 227.355Z" fill="#CE3650"/>
<path d="M482.219 366.642V301.838H478.504V366.642H482.219Z" fill="#C7CCD1"/>
<path d="M479.861 366.642V301.838H478.504V366.642H479.861Z" fill="#A5A7A8"/>
<path d="M482.393 315.549L485.346 301.838H475.376L478.33 315.549H482.393Z" fill="#A5A7A8"/>
<path d="M459.49 374.838H501.232V373.711L484.463 370.953H476.259L459.49 373.711V374.838Z" fill="#C7CCD1"/>
<path d="M475.28 371.266H485.442L483.554 359.573H477.168L475.28 371.266Z" fill="#C7CCD1"/>
<path d="M483.554 359.573H477.168L475.28 371.266L459.49 373.71H487.316L482.392 371.609L481.066 360.609L483.554 359.573Z" fill="#A5A7A8"/>
<path d="M461.252 307.515H499.465V301.838H461.252V307.515Z" fill="#F55662"/>
<path d="M461.252 303.278H499.465V301.839H461.252V303.278Z" fill="#CE3650"/>
<path d="M446.084 301.838H512.833V293.377H446.084V301.838Z" fill="#F55662"/>
<path d="M446.089 293.376H507.131L446.089 295.864V293.376Z" fill="#CE3650"/>
<path d="M512.837 301.838L531.841 231.966L525.704 227.355L507.13 293.378L512.837 301.838Z" fill="#F55662"/>
<path d="M174.183 350.405L175.688 357.052C175.688 357.052 191.251 366.321 194.444 355.747L188.963 343.197L174.183 350.405Z" fill="#FDA181"/>
<path d="M175.663 356.914C175.663 356.914 174.514 374.748 174.871 374.909C175.228 375.07 215.394 374.909 219.818 374.909C219.928 374.91 220.035 374.868 220.115 374.793C220.196 374.718 220.245 374.615 220.253 374.505C220.375 372.765 220.623 365.866 216.882 364.361C212.593 362.621 199.483 358.402 197.099 355.9C194.715 353.399 193.445 353.182 193.058 353.391C192.671 353.599 190.278 355.183 190.339 356.971C190.4 358.758 190.487 359.802 189.861 359.685C189.234 359.567 183.127 359.981 182.296 358.728C181.465 357.475 175.663 356.914 175.663 356.914Z" fill="#1E194F"/>
<path d="M174.888 374.909C175.227 375.078 215.411 374.909 219.835 374.909C219.945 374.909 220.052 374.867 220.132 374.792C220.213 374.717 220.262 374.614 220.27 374.504C220.392 372.764 220.64 365.865 216.899 364.36C214.807 363.516 210.613 362.076 206.59 360.532C204.415 364.012 204.567 371.968 204.567 371.968H174.862C174.792 373.695 174.792 374.865 174.888 374.909Z" fill="#E0E6EE"/>
<path d="M144.852 354.453L144.673 357.063C144.673 357.063 157.584 369.399 160.768 358.842L161.847 353.565L144.852 354.453Z" fill="#FDA181"/>
<path d="M144.665 356.914C144.665 356.914 143.516 374.748 143.873 374.909C144.23 375.07 184.396 374.909 188.82 374.909C188.93 374.909 189.037 374.868 189.117 374.793C189.198 374.717 189.247 374.614 189.255 374.504C189.377 372.765 189.625 365.866 185.884 364.361C181.595 362.621 167.088 360.828 164.704 358.323C162.321 355.817 162.551 355.108 161.925 355.108C161.298 355.108 159.28 355.182 159.341 356.97C159.402 358.758 159.489 359.802 158.863 359.684C158.236 359.567 152.129 359.98 151.298 358.727C150.467 357.475 144.665 356.914 144.665 356.914Z" fill="#403882"/>
<path d="M143.824 374.672C143.822 374.642 143.822 374.611 143.824 374.581C143.824 374.529 143.824 374.481 143.824 374.416C143.824 374.35 143.824 374.329 143.824 374.285C143.824 374.242 143.824 374.15 143.824 374.072C143.824 373.994 143.824 373.976 143.824 373.928V373.646C143.824 373.585 143.824 373.515 143.824 373.45C143.824 373.385 143.824 373.259 143.824 373.154C143.824 373.05 143.824 373.006 143.824 372.937C143.824 372.867 143.824 372.719 143.824 372.602C143.824 372.484 143.824 372.428 143.824 372.345C143.824 372.262 143.824 372.106 143.824 371.98H173.525C173.525 371.98 173.408 365.564 174.961 361.731C179.311 362.675 183.778 363.532 185.857 364.372C186.088 364.463 186.308 364.578 186.514 364.715C187.126 365.135 187.628 365.694 187.98 366.347C188.232 366.804 188.439 367.285 188.598 367.782C188.855 368.558 189.038 369.356 189.146 370.166C189.215 370.692 189.259 371.214 189.285 371.706C189.311 372.197 189.315 372.663 189.315 373.076C189.315 373.28 189.315 373.476 189.315 373.654C189.315 374.011 189.285 374.311 189.272 374.524C189.266 374.605 189.237 374.682 189.19 374.748C189.142 374.813 189.077 374.864 189.002 374.894C188.952 374.917 188.897 374.929 188.841 374.929H182.351H176.522H171.794H165.835H151.158H149.023H147.196H145.316L144.177 374.903H143.92H143.872C143.872 374.903 143.851 374.877 143.846 374.838C143.844 374.817 143.844 374.797 143.846 374.777C143.833 374.746 143.829 374.72 143.824 374.672Z" fill="#E0E6EE"/>
<path d="M174.971 289.649L189.834 343.653C189.834 343.653 179.464 349.912 174.175 350.404L163.987 331.195L174.971 289.649Z" fill="#1E194F"/>
<path d="M111.966 261.132C111.966 261.132 160.798 262.555 166.235 263.786C171.673 265.017 177.066 271.485 178.132 280.485C179.198 289.485 161.851 353.563 161.851 353.563C161.851 353.563 146.757 355.772 144.851 354.463C144.851 354.463 144.912 308.968 145.482 307.089C146.052 305.21 148.183 295.14 148.183 295.14L76.2017 293.26C76.2017 293.26 99.2821 260.397 111.966 261.132Z" fill="#403882"/>
<path d="M148.183 295.128L149.819 291.122C149.819 291.122 93.8839 294.719 76.2017 293.249L148.183 295.128Z" fill="#1E194F"/>
<path d="M90.4048 278.133C90.4048 278.133 107.804 279.752 108.9 280.117C112.501 281.468 116.47 281.468 120.071 280.117C125.726 278.033 138.775 278.377 138.775 278.377C138.775 278.377 120.506 276.937 110.732 274.419C100.958 271.9 93.8716 274.719 93.8716 274.719L90.4048 278.133Z" fill="#1E194F"/>
<path d="M101.397 275.881C101.397 275.881 107.052 276.646 107.783 276.894C108.513 277.142 114.377 280.666 116.939 280.557C119.501 280.448 126.483 278.043 127.709 278.073C128.936 278.104 137.866 278.717 138.754 278.378C139.005 278.292 139.236 278.155 139.432 277.976C139.627 277.796 139.783 277.577 139.889 277.334C139.889 277.334 141.05 277.334 141.803 275.872C141.827 275.828 141.841 275.779 141.844 275.728C141.847 275.678 141.839 275.627 141.821 275.58C141.802 275.533 141.773 275.491 141.736 275.457C141.699 275.422 141.655 275.396 141.607 275.381L139.489 274.728C139.658 274.625 139.801 274.485 139.908 274.319C140.015 274.152 140.083 273.963 140.106 273.767C140.113 273.713 140.101 273.658 140.072 273.611C140.044 273.565 140.001 273.529 139.95 273.51C138.519 272.94 128.64 269.012 127.892 268.899C127.144 268.786 116.147 267.546 114.79 267.116C113.433 266.685 106.96 263.893 106.96 263.893L101.397 275.881Z" fill="#FDA181"/>
<path d="M146.988 215.964L117.122 217.917C117.122 217.917 93.5108 191.131 86.9469 188.612C80.3829 186.094 64.0448 184.389 64.0448 184.389C64.0448 184.389 51.1605 191.988 45.1664 197.943C45.1664 197.943 44.5313 198.226 43.9005 200.214L43.8483 200.379C43.1089 202.815 42.4042 207.634 42.7522 217.13C43.4047 234.965 48.8072 261.477 52.0783 263.852C52.696 264.287 54.4577 264.966 56.9893 265.762L65.3498 292.635L76.2244 293.249C76.2244 293.249 84.7502 283.487 93.8849 274.705C96.9907 275.284 99.6137 275.705 101.415 275.879C101.415 275.879 106.539 271.129 107.004 263.604C108.914 262.334 110.614 261.455 111.985 261.129C111.985 261.129 104.62 256.222 103.881 254.013C103.141 251.803 99.8747 226.609 99.8747 226.609C99.8747 226.609 111.985 235.6 115.338 236.009C118.692 236.417 148.193 227.161 148.193 227.161L146.988 215.964Z" fill="#1150BE"/>
<path d="M114.764 231.833C121.724 234.822 148.158 227.157 148.158 227.157C148.158 227.157 118.679 236.418 115.321 236.005C111.963 235.592 99.8573 226.614 99.8573 226.614C99.8573 226.614 96.3513 208.031 94.707 202.385C94.707 202.376 107.804 228.845 114.764 231.833Z" fill="#094080"/>
<path d="M170.668 227.163L172.23 206.584H158.38L159.946 227.163H170.668Z" fill="#F4F1EE"/>
<path d="M158.516 206.302H172.183L171.409 202.983C171.365 202.521 171.155 202.09 170.819 201.77C170.482 201.45 170.041 201.263 169.577 201.243H161.117C160.653 201.263 160.213 201.451 159.877 201.771C159.541 202.09 159.333 202.521 159.29 202.983L158.516 206.302Z" fill="#1150BE"/>
<path d="M165.341 206.302H158.516L159.29 202.983C159.333 202.521 159.541 202.09 159.877 201.771C160.213 201.451 160.653 201.263 161.117 201.243H165.341V206.302Z" fill="#094080"/>
<path d="M171.943 207.589H158.667C158.437 207.589 158.215 207.497 158.052 207.334C157.889 207.171 157.797 206.95 157.797 206.719V205.932C157.797 205.69 157.893 205.459 158.064 205.289C158.234 205.118 158.465 205.022 158.706 205.022H171.913C172.154 205.022 172.385 205.118 172.555 205.289C172.726 205.459 172.822 205.69 172.822 205.932V206.719C172.822 206.95 172.73 207.171 172.567 207.334C172.404 207.497 172.183 207.589 171.952 207.589H171.943Z" fill="#1150BE"/>
<path d="M165.305 207.585H158.65C158.531 207.582 158.414 207.554 158.305 207.505C158.197 207.455 158.099 207.385 158.019 207.297C157.938 207.21 157.875 207.107 157.834 206.995C157.793 206.884 157.774 206.765 157.78 206.646V205.998C157.769 205.749 157.857 205.507 158.024 205.323C158.191 205.139 158.423 205.028 158.671 205.015H165.288L165.305 207.585Z" fill="#094080"/>
<path d="M171.922 210.453H158.689L159.642 222.372H170.987L171.922 210.453Z" fill="#1150BE"/>
<path d="M165.306 222.372H159.642L158.689 210.453H165.306V222.372Z" fill="#094080"/>
<path d="M165.306 220.433C168.193 220.433 170.534 217.853 170.534 214.67C170.534 211.487 168.193 208.906 165.306 208.906C162.418 208.906 160.077 211.487 160.077 214.67C160.077 217.853 162.418 220.433 165.306 220.433Z" fill="#403882"/>
<path d="M165.301 220.433C162.413 220.433 160.082 217.854 160.082 214.67C160.082 211.486 162.422 208.906 165.301 208.906V220.433Z" fill="#1E194F"/>
<path d="M148.176 227.161C148.176 227.161 146.436 224.882 146.988 215.965L153.948 215.699C153.948 215.699 156.832 211.923 158.241 211.741C159.651 211.558 167.511 210.819 167.937 211.341C168.363 211.863 167.415 214.386 165.793 214.99C164.17 215.595 159.377 216.295 159.377 216.295L159.946 227.17L148.176 227.161Z" fill="#FDA181"/>
<path d="M59.3375 273.382C64.6269 274.191 84.297 277.21 90.3868 278.128C91.5265 276.984 92.6923 275.836 93.8667 274.705C87.9161 273.713 56.9668 265.766 56.9668 265.766L59.3375 273.382Z" fill="#094080"/>
<path d="M64.7012 220.436L68.69 248.71L106.969 263.621C108.878 262.351 110.579 261.472 111.949 261.146C111.949 261.146 104.585 256.239 103.846 254.03C103.846 254.03 74.6232 249.384 72.6614 247.583C70.6996 245.782 64.7012 220.436 64.7012 220.436Z" fill="#094080"/>
<path d="M91.0874 148.842C91.0874 148.842 95.098 148.433 95.5069 149.129C95.9158 149.825 92.027 153.836 92.027 153.836L91.0874 148.842Z" fill="#1E194F"/>
<path d="M64.0446 184.399L64.8232 169.261C64.8232 169.261 56.8847 158.387 63.5965 150.196C70.3084 142.005 92.7015 148.86 92.7015 148.86C92.7015 148.86 93.9586 179.871 91.4183 181.702C89.3695 183.172 83.4798 181.946 83.4798 181.946C83.4798 181.946 83.1535 187.918 83.3145 191.028C83.4754 194.138 64.0446 184.399 64.0446 184.399Z" fill="#FDA181"/>
<path d="M83.372 184.4L72.4712 180.916L83.4807 181.947L83.372 184.4Z" fill="#CF7A62"/>
<path d="M68.3379 156.779C68.3379 156.779 71.9831 165.083 72.2528 167.414C72.5225 169.746 72.0092 180.673 72.4572 180.899C72.9052 181.125 91.0355 185.092 93.3018 183.457C95.5681 181.821 93.0147 168.332 93.0147 168.332C91.7272 168.495 90.4786 168.884 89.326 169.48C87.7426 170.259 76.2764 167.349 76.2764 167.349L71.7743 155.774C71.7743 155.774 75.6892 152.907 75.8284 150.332C75.8284 150.332 89.2477 151.637 92.6841 150.289C96.1205 148.94 97.1819 143.499 96.6903 142.681C96.1988 141.863 86.5029 137.853 78.199 137.853C69.8951 137.853 59.0118 142.846 59.0596 144.377C59.1075 145.909 59.0596 147.77 59.0596 147.77C59.0596 147.77 56.3627 151.002 56.0756 152.19C55.7885 153.377 62.309 168.106 64.7753 169.989L67.1808 166.944C67.1808 166.944 63.6618 167.754 61.7 160.855C59.7382 153.956 68.3379 156.779 68.3379 156.779Z" fill="#403882"/>
<path d="M509.297 267.232C509.297 267.232 512.307 293.331 505.443 293.331C498.579 293.331 442.087 294.549 442.087 294.549L429.907 253.839L466.481 253.034C466.481 253.034 501.58 249.084 509.297 267.232Z" fill="#403882"/>
<path d="M466.489 253.022C466.489 253.022 474.197 253.261 483.593 262.335C491.214 269.699 504.812 270.6 509.67 270.696C509.466 268.59 509.288 267.216 509.288 267.216C501.58 249.085 466.489 253.022 466.489 253.022Z" fill="#232059"/>
<path d="M438.393 287.248C438.393 287.248 440.133 294.538 442.064 294.538C443.995 294.538 443.512 287.248 443.512 287.248H438.393Z" fill="#232059"/>
<path d="M429.917 253.827C429.917 253.827 415.745 253.327 413.413 261.466C411.082 269.604 413.731 347.528 411.086 354.205C408.441 360.882 402.821 367.22 402.821 367.22C402.821 367.22 410.125 371.256 415.588 368.159C421.052 365.062 426.589 352.095 426.589 352.095C426.589 352.095 423.775 348.972 424.34 345.688C424.906 342.404 435.763 308.279 436.154 301.946C436.546 295.612 435.019 287.247 435.019 287.247H443.527C443.527 287.247 444.571 269.248 429.917 253.827Z" fill="#F79F81"/>
<path d="M429.916 253.827C429.916 253.827 415.745 253.327 413.413 261.466C412.147 265.885 412.352 290.884 412.378 313.882C413.544 304.882 416.802 283.989 422.187 281.131C429.081 277.473 439.36 279.853 439.36 279.853C439.36 279.853 440.639 282.028 440.739 287.247H443.527C443.527 287.247 444.571 269.248 429.916 253.827Z" fill="#CF7961"/>
<path d="M404.67 364.944C403.433 366.28 401.958 367.373 400.32 368.167C397.923 369.276 395.6 370.468 395.174 373.387C395.162 373.48 395.171 373.574 395.198 373.664C395.226 373.753 395.272 373.836 395.335 373.906C395.397 373.976 395.473 374.032 395.559 374.07C395.645 374.108 395.737 374.127 395.831 374.126H416.602C416.602 374.126 418.716 374.157 420.821 368.15C422.926 362.143 424.675 360.033 424.675 360.033L424.436 374.126H425.28L428.62 359.337C429.031 357.774 428.965 356.125 428.432 354.599C427.899 353.074 426.922 351.743 425.628 350.776C423.746 352.09 422.124 353.74 420.843 355.644C418.977 358.576 415.784 364.109 411.708 365.649C410.566 366.113 409.328 366.291 408.102 366.168C406.875 366.046 405.697 365.625 404.67 364.944V364.944Z" fill="#F55662"/>
<path d="M429.918 253.827C428.783 253.805 427.649 253.85 426.52 253.962L424.132 254.057C420.97 254.183 417.912 255.222 415.328 257.049C412.744 258.877 410.745 261.414 409.573 264.353C401.343 284.967 382.895 331.093 380.655 335.77C377.763 341.812 361.25 348.619 361.25 348.619C362.956 359.259 386.019 350.916 388.059 350.237C390.099 349.559 391.295 345.809 393.335 339.854C395.375 333.899 412.375 312.789 412.379 312.789C412.379 312.789 414.188 286.255 419.517 280.109C423.562 275.459 436.334 276.05 442.258 276.607C440.247 268.05 435.986 260.186 429.918 253.827V253.827Z" fill="#F79F81"/>
<path d="M391.303 345.589C391.037 347.719 390.2 349.737 388.88 351.431C386.753 354.01 381.62 359.626 381.62 359.626L380.75 359.147L382.821 354.236C382.821 354.236 381.999 353.871 378.084 355.572C374.169 357.272 370.933 358.747 365.204 358.181C359.475 357.616 354.999 356.742 354.003 352.892C353.29 350.126 360.737 348.977 363.921 347.446C363.921 347.446 363.673 352.231 370.393 351.261C377.114 350.291 388.476 344.684 391.303 345.589Z" fill="#F55662"/>
<path d="M493.351 186.604C493.351 186.604 514.025 192.746 516.996 198.284C519.967 203.821 531.69 241.648 530.729 249.177C529.768 256.707 519.967 260.661 516.835 260.178C513.704 259.695 509.367 258.169 509.367 258.169L509.288 267.242C509.288 267.242 493.551 268.608 485.364 262.427C477.178 256.246 470.831 252.949 466.494 253.031L463.45 242.352C463.45 242.352 457.103 248.695 451.405 248.877C445.706 249.06 438.155 244.218 437.272 241.482C436.389 238.746 452.849 218.193 457.347 208.158C461.844 198.123 464.894 192.742 466.821 191.859C468.748 190.976 475.212 189.367 475.212 189.367L493.351 186.604Z" fill="#1150BE"/>
<path d="M461.353 207.334C461.353 207.334 457.873 210.592 453.415 215.229C446.925 225.712 436.555 239.279 437.264 241.463C438.134 244.19 445.694 249.01 451.396 248.858C457.099 248.706 463.441 242.333 463.441 242.333C463.441 242.333 457.06 223.777 457.029 220.51C456.999 217.243 461.353 207.334 461.353 207.334Z" fill="#094080"/>
<path d="M479.118 217.394L462.088 230.487" stroke="#232059" stroke-width="2" stroke-miterlimit="10" stroke-linecap="round"/>
<path d="M509.368 258.165L483.634 247.069L471.29 239.674C471.29 239.674 481.225 248.347 483.756 250.983C486.288 253.62 509.32 263.772 509.32 263.772L509.368 258.165Z" fill="#094080"/>
<path d="M483.633 247.068C483.633 247.068 484.599 241.043 487.609 236.71L481.406 234.783C481.406 234.783 473.607 224.753 472.132 224.244C470.658 223.735 458.7 226.293 458.7 226.293L464.846 237.511C464.846 237.511 473.676 242.652 474.481 242.853C475.286 243.053 483.633 247.068 483.633 247.068Z" fill="#F79F81"/>
<path d="M472.132 224.263C470.658 223.75 458.7 226.312 458.7 226.312L464.846 237.53C464.846 237.53 465.921 238.157 467.352 238.979C466.173 233.124 472.132 224.263 472.132 224.263Z" fill="#CF7961"/>
<path d="M468.179 239.256L452.68 208.741L420.722 200.955L419.517 201.799L422.405 204.126L436.22 230.182L464.707 238.273L466.974 240.1L468.179 239.256Z" fill="#232059"/>
<path d="M451.475 209.584L466.974 240.098L435.015 231.025L419.517 201.798L451.475 209.584Z" fill="#F55662"/>
<path d="M445.621 234.018C445.621 234.018 446.238 230.359 446.056 229.059C445.873 227.758 444.69 233.752 444.69 233.752L445.621 234.018Z" fill="#CE3650"/>
<path d="M423.483 206.082C423.825 205.923 423.904 205.37 423.661 204.847C423.417 204.325 422.942 204.03 422.6 204.19C422.259 204.349 422.179 204.902 422.423 205.425C422.667 205.947 423.141 206.241 423.483 206.082Z" fill="#232059"/>
<path d="M439.069 220.969C439.069 220.969 446.055 227.529 446.055 229.099C446.055 230.669 444.689 233.792 444.689 233.792C444.689 233.792 445.559 235.724 445.272 236.75C444.984 237.777 442.087 242.918 437.263 241.487C435.089 240.844 433.166 232.353 433.288 231.609C433.41 230.865 437.142 220.408 439.069 220.969Z" fill="#F79F81"/>
<path d="M445.273 236.726C445.573 235.7 444.69 233.769 444.69 233.769L444.129 235.278C444.129 235.278 445.303 238.832 441.228 241.189C443.65 240.058 445.068 237.427 445.273 236.726Z" fill="#CF7961"/>
<path d="M487.61 236.73L508.807 240.523L504.109 218.782L505.253 237.091L487.61 236.73Z" fill="#094080"/>
<path d="M433.288 231.587C433.288 231.587 432.204 228.642 432.444 226.18C432.683 223.718 434.814 229.782 434.814 229.782L433.288 231.587Z" fill="#CF7961"/>
<path d="M460.308 154.26C460.308 154.26 457.898 160.441 460.308 168.232C462.718 176.023 468.255 185.014 469.621 185.092C470.987 185.17 475.202 182.804 475.202 182.804C475.572 184.963 475.572 187.17 475.202 189.329C474.597 193.187 474.597 198.607 478.573 198.968C482.549 199.329 488.813 193.988 493.363 186.562C493.363 186.562 489.013 172.547 489.709 169.415C490.405 166.283 495.772 162.19 491.836 154.038C487.899 145.887 462.396 144.182 460.308 154.26Z" fill="#F79F81"/>
<path d="M483.993 138.136C483.993 138.136 482.005 131.516 491.279 127.901C500.553 124.286 508.444 137.906 506.999 143.861C505.555 149.816 496.76 149.081 496.76 149.081L483.993 138.136Z" fill="#403882"/>
<path d="M506.96 143.863C507.574 141.322 506.49 137.399 504.35 134.006C505.968 140.592 501.51 144.985 496.494 140.931C491.479 136.877 483.967 138.138 483.967 138.138L496.734 149.104C496.734 149.104 505.512 149.826 506.96 143.863Z" fill="#232059"/>
<path d="M481.184 139.131C481.184 139.131 483.272 136.986 488.631 139.009C493.99 141.032 497.004 146.813 497.065 148.862C497.126 150.91 495.016 154.403 495.016 154.403L481.184 139.131Z" fill="#F55662"/>
<path d="M484.276 160.503C484.276 160.503 485.881 157.153 488.269 157.553C490.657 157.954 492.162 160.203 491.261 164.157C490.361 168.111 487.507 168.976 487.507 168.976L489.682 171.329C489.682 171.329 498.817 162.73 497.908 156.649C496.999 150.568 491.705 141.233 482.553 139.367C473.401 137.501 462.378 143.582 457.441 152.555C457.441 152.555 452.791 155.457 459.303 162.878C459.303 162.878 458.907 157.049 460.873 155.766C460.873 155.766 471.269 164.317 475.663 163.917C480.056 163.517 481.318 162.39 481.318 162.39C481.318 162.39 482.762 165.401 483.493 165.283C484.223 165.166 484.276 160.503 484.276 160.503Z" fill="#403882"/>
<path d="M459.299 162.858C459.299 162.858 458.903 157.029 460.869 155.746C460.869 155.746 452.948 154.715 459.299 162.858Z" fill="#232059"/>
<path d="M491.262 164.135C490.357 168.089 487.508 168.955 487.508 168.955L489.683 171.308C489.683 171.308 498.817 162.708 497.908 156.627C497.628 154.896 497.123 153.209 496.408 151.607C496.408 151.634 499.344 160.742 492.058 161.325L491.497 161.386C491.558 162.309 491.479 163.236 491.262 164.135Z" fill="#232059"/>
<path d="M475.202 182.807C475.202 182.807 480.122 179.897 482.349 177.587C482.349 177.587 478.773 183.272 475.454 185.138C475.415 184.357 475.33 183.579 475.202 182.807Z" fill="#CF7961"/>
<path d="M291.185 196.56L270.95 224.708H233.58L254.172 196.051C254.331 195.825 254.541 195.639 254.785 195.51C255.029 195.38 255.301 195.311 255.577 195.308H290.629C290.768 195.32 290.902 195.369 291.016 195.45C291.13 195.531 291.22 195.642 291.277 195.77C291.334 195.898 291.355 196.038 291.339 196.177C291.323 196.317 291.27 196.449 291.185 196.56V196.56Z" fill="#0B0D09"/>
<path d="M272.163 227.009H200.303V225.969C200.303 225.635 200.436 225.314 200.673 225.077C200.909 224.841 201.23 224.708 201.565 224.708H272.163V227.009Z" fill="#0B0D09"/>
<path d="M234.785 227.009H272.163V224.708H234.785V227.009Z" fill="#094080"/>
<path d="M292.433 196.5L272.163 224.709H234.789L255.533 195.848C255.647 195.679 255.802 195.54 255.982 195.444C256.163 195.349 256.364 195.299 256.568 195.3H291.924C292.057 195.313 292.183 195.362 292.29 195.441C292.398 195.52 292.482 195.627 292.534 195.75C292.586 195.872 292.604 196.007 292.586 196.139C292.568 196.271 292.516 196.396 292.433 196.5V196.5Z" fill="url(#paint0_linear_406_1555)"/>
<path d="M264.398 208.672C264.949 208.395 265.58 208.326 266.177 208.476C265.272 209.08 264.777 209.99 265.046 210.651C265.281 211.247 266.042 211.49 266.917 211.325C266.628 211.708 266.25 212.016 265.816 212.221C264.62 212.795 263.332 212.46 262.941 211.477C262.549 210.494 263.18 209.246 264.398 208.672Z" fill="#0B0D09"/>
<path d="M412.703 235.468L437.82 369.57C438.429 372.832 436.223 375.903 433.27 375.903C431.299 375.903 429.546 374.498 428.889 372.397L386.152 235.468" stroke="black" stroke-width="2" stroke-miterlimit="10"/>
<path d="M231.51 235.468L206.398 369.57C205.785 372.832 207.99 375.903 210.944 375.903C212.914 375.903 214.667 374.498 215.324 372.397L258.062 235.468" stroke="black" stroke-width="2" stroke-miterlimit="10"/>
<path d="M444.61 226.287H199.604V237.414H444.61V226.287Z" fill="url(#paint1_linear_406_1555)"/>
<path d="M127.4 237.414H199.981V226.287H127.4V237.414Z" fill="#201851"/>
<g style="mix-blend-mode:multiply" opacity="0.4">
<path d="M276.779 26.6133H148.318V126.621H276.779V26.6133Z" fill="black"/>
</g>
<path d="M278.857 24.5332H150.397V124.541H278.857V24.5332Z" fill="#094080"/>
<path d="M280.623 24.5332H152.163V124.541H280.623V24.5332Z" fill="url(#paint2_linear_406_1555)"/>
<path d="M278.128 26.6172H154.609V122.462H278.128V26.6172Z" fill="#EAF1F7"/>
<path d="M194.674 77.4103H163.333V38.2746L168.649 33.4854H194.674V77.4103Z" fill="white"/>
<path d="M163.333 38.2746H168.475L168.649 33.4854L163.333 38.2746Z" fill="#1150BE"/>
<path d="M184.022 37.2949H173.987V37.7734H184.022V37.2949Z" fill="#1150BE"/>
<path d="M186.385 38.7256H171.625V39.2041H186.385V38.7256Z" fill="#1150BE"/>
<path d="M191.551 47.9346H167.044V48.5479H191.551V47.9346Z" fill="#1150BE"/>
<path d="M191.551 49.8027H167.044V50.4161H191.551V49.8027Z" fill="#1150BE"/>
<path d="M191.551 51.668H167.044V52.2813H191.551V51.668Z" fill="#1150BE"/>
<path d="M191.551 53.5342H167.044V54.1475H191.551V53.5342Z" fill="#1150BE"/>
<path d="M191.551 73.502H167.044V74.1153H191.551V73.502Z" fill="#1150BE"/>
<path d="M244.307 35.165H229.361V48.3408H244.307V35.165Z" fill="#1150BE"/>
<path d="M236.177 36.732C236.177 36.6021 236.215 36.4751 236.287 36.3671C236.36 36.2591 236.462 36.1749 236.582 36.1252C236.702 36.0755 236.834 36.0625 236.962 36.0878C237.089 36.1132 237.206 36.1757 237.298 36.2676C237.39 36.3594 237.452 36.4765 237.478 36.6039C237.503 36.7313 237.49 36.8634 237.44 36.9834C237.391 37.1034 237.307 37.206 237.199 37.2782C237.091 37.3503 236.964 37.3889 236.834 37.3889C236.659 37.3889 236.492 37.3197 236.369 37.1965C236.246 37.0733 236.177 36.9062 236.177 36.732V36.732Z" fill="#FDA214"/>
<path d="M219.393 69.7441L202.773 70.9033L203.795 85.5529L220.415 84.3936L219.393 69.7441Z" fill="white"/>
<path d="M210.548 73.0127C210.538 72.8685 210.571 72.7245 210.642 72.5991C210.714 72.4736 210.822 72.3723 210.951 72.3079C211.081 72.2435 211.226 72.219 211.37 72.2374C211.513 72.2558 211.648 72.3163 211.757 72.4113C211.866 72.5063 211.944 72.6315 211.982 72.771C212.02 72.9105 212.015 73.0582 211.969 73.1952C211.923 73.3322 211.838 73.4525 211.723 73.5408C211.609 73.6291 211.471 73.6815 211.326 73.6913C211.133 73.7033 210.943 73.6388 210.798 73.5118C210.652 73.3848 210.562 73.2055 210.548 73.0127V73.0127Z" fill="#1150BE"/>
<path d="M219.543 53.3313H201.648V41.3082L206.602 36.7539H219.543V53.3313Z" fill="white"/>
<path d="M201.551 41.3082H206.441L206.601 36.7539L201.551 41.3082Z" fill="#1150BE"/>
<path d="M210.661 38.2688C210.66 38.1514 210.694 38.0364 210.759 37.9385C210.823 37.8405 210.916 37.764 211.024 37.7187C211.132 37.6734 211.251 37.6613 211.367 37.684C211.482 37.7067 211.588 37.7631 211.671 37.8461C211.754 37.9291 211.81 38.0349 211.833 38.1501C211.855 38.2652 211.843 38.3846 211.798 38.4928C211.753 38.6011 211.676 38.6935 211.578 38.7581C211.48 38.8228 211.365 38.8569 211.248 38.856C211.093 38.8549 210.944 38.7926 210.834 38.6827C210.724 38.5729 210.662 38.4242 210.661 38.2688V38.2688Z" fill="#1150BE"/>
<path d="M274.068 112.213H253.141V98.15L258.935 92.8301H274.068V112.213Z" fill="#A6CDF5"/>
<path d="M253.029 98.15H258.745L258.936 92.8301L253.029 98.15Z" fill="#1150BE"/>
<path d="M263.682 94.6218C263.682 94.4859 263.722 94.353 263.797 94.24C263.873 94.127 263.98 94.0389 264.106 93.9869C264.232 93.9349 264.37 93.9213 264.503 93.9478C264.636 93.9743 264.759 94.0397 264.855 94.1359C264.951 94.232 265.016 94.3544 265.043 94.4878C265.069 94.6211 265.056 94.7593 265.004 94.8849C264.952 95.0104 264.864 95.1178 264.751 95.1933C264.638 95.2688 264.505 95.3091 264.369 95.3091C264.279 95.3091 264.189 95.2914 264.106 95.2568C264.023 95.2223 263.947 95.1717 263.883 95.1078C263.819 95.044 263.769 94.9682 263.734 94.8849C263.699 94.8015 263.682 94.7121 263.682 94.6218V94.6218Z" fill="#1150BE"/>
<path d="M246.451 112.213H225.524V98.15L231.318 92.8301H246.451V112.213Z" fill="#F55662"/>
<path d="M225.411 98.15H231.127L231.318 92.8301L225.411 98.15Z" fill="#CE3650"/>
<path d="M236.063 94.6218C236.063 94.4859 236.104 94.353 236.179 94.24C236.255 94.127 236.362 94.0389 236.488 93.9869C236.613 93.9349 236.752 93.9213 236.885 93.9478C237.018 93.9743 237.141 94.0397 237.237 94.1359C237.333 94.232 237.398 94.3544 237.425 94.4878C237.451 94.6211 237.438 94.7593 237.386 94.8849C237.334 95.0104 237.246 95.1178 237.133 95.1933C237.02 95.2688 236.887 95.3091 236.751 95.3091C236.66 95.3091 236.571 95.2914 236.488 95.2568C236.404 95.2223 236.329 95.1717 236.265 95.1078C236.201 95.044 236.15 94.9682 236.116 94.8849C236.081 94.8015 236.063 94.7121 236.063 94.6218V94.6218Z" fill="#201851"/>
<path d="M273.003 45.0414H258.779V35.4804L262.716 31.8613H273.003V45.0414Z" fill="#F55662"/>
<path d="M258.701 35.4804H262.589L262.716 31.8613L258.701 35.4804Z" fill="#CE3650"/>
<path d="M265.942 33.0864C265.942 32.9933 265.968 32.9021 266.019 32.8243C266.071 32.7464 266.144 32.6855 266.229 32.6493C266.315 32.6131 266.41 32.6032 266.501 32.6208C266.593 32.6384 266.677 32.6828 266.743 32.7484C266.809 32.8139 266.854 32.8976 266.873 32.9888C266.891 33.0801 266.882 33.1748 266.847 33.2609C266.811 33.347 266.751 33.4206 266.674 33.4724C266.596 33.5242 266.505 33.5519 266.412 33.5519C266.288 33.5519 266.169 33.503 266.082 33.4158C265.994 33.3287 265.944 33.2103 265.942 33.0864V33.0864Z" fill="#201851"/>
<g style="mix-blend-mode:multiply" opacity="0.4">
<path d="M194.675 87.4756H167.027V104.84H194.675V87.4756Z" fill="#042942"/>
</g>
<path d="M167.275 81.6768C167.275 81.6768 165.139 100.294 173.365 106.397H201.952C201.952 106.397 193.626 96.1227 194.949 81.6768H167.275Z" fill="#FFC861"/>
<path d="M181.478 84.0838C181.824 84.0838 182.104 83.8034 182.104 83.4574C182.104 83.1115 181.824 82.8311 181.478 82.8311C181.132 82.8311 180.852 83.1115 180.852 83.4574C180.852 83.8034 181.132 84.0838 181.478 84.0838Z" fill="#273280"/>
<path d="M172.291 94.6222L190.504 92.8301" stroke="#273280" stroke-width="0.5" stroke-miterlimit="10" stroke-linecap="round"/>
<path d="M174.935 98.1515L192.639 97.5469" stroke="#273280" stroke-width="0.5" stroke-miterlimit="10" stroke-linecap="round"/>
<path d="M174.392 100.024L193.318 99.0713" stroke="#273280" stroke-width="0.5" stroke-miterlimit="10" stroke-linecap="round"/>
<g style="mix-blend-mode:multiply" opacity="0.4">
<path d="M261.689 64.5918H234.041V81.9565H261.689V64.5918Z" fill="#042942"/>
</g>
<path d="M234.289 58.7891C234.289 58.7891 232.153 77.4109 240.378 83.5137H268.97C268.97 83.5137 260.627 73.2393 261.949 58.7891H234.289Z" fill="#FFC861"/>
<path d="M248.492 61.1971C248.838 61.1971 249.118 60.9167 249.118 60.5707C249.118 60.2248 248.838 59.9443 248.492 59.9443C248.146 59.9443 247.865 60.2248 247.865 60.5707C247.865 60.9167 248.146 61.1971 248.492 61.1971Z" fill="#273280"/>
<path d="M239.305 71.7316L257.513 69.9395" stroke="#273280" stroke-width="0.5" stroke-miterlimit="10" stroke-linecap="round"/>
<path d="M241.95 75.2658L259.654 74.6611" stroke="#273280" stroke-width="0.5" stroke-miterlimit="10" stroke-linecap="round"/>
<path d="M241.406 77.1367L260.332 76.1885" stroke="#273280" stroke-width="0.5" stroke-miterlimit="10" stroke-linecap="round"/>
<defs>
<linearGradient id="paint0_linear_406_1555" x1="224.24" y1="246.241" x2="274.316" y2="200.746" gradientUnits="userSpaceOnUse">
<stop stop-color="#1252C4"/>
<stop offset="1" stop-color="#3F87FE"/>
</linearGradient>
<linearGradient id="paint1_linear_406_1555" x1="453.75" y1="192.723" x2="183.188" y2="273.144" gradientUnits="userSpaceOnUse">
<stop offset="0.05" stop-color="#FAD05B"/>
<stop offset="1" stop-color="#F8A35A"/>
</linearGradient>
<linearGradient id="paint2_linear_406_1555" x1="152.163" y1="74.5393" x2="280.623" y2="74.5393" gradientUnits="userSpaceOnUse">
<stop stop-color="#1252C4"/>
<stop offset="1" stop-color="#3F87FE"/>
</linearGradient>
</defs>
</svg>
