<svg width="572" height="400" viewBox="0 0 572 400" fill="none" xmlns="http://www.w3.org/2000/svg">
<path d="M267.431 375.3C367.416 375.3 448.469 372.753 448.469 369.611C448.469 366.47 367.416 363.923 267.431 363.923C167.447 363.923 86.3931 366.47 86.3931 369.611C86.3931 372.753 167.447 375.3 267.431 375.3Z" fill="#C7CCD1"/>
<path d="M487.187 54.3584H409.938V238.964H487.187V54.3584Z" fill="#ECECEC"/>
<path opacity="0.3" d="M465.763 54.3584H441.132L414.196 238.964H438.818L465.763 54.3584Z" fill="#FAFAFA"/>
<g style="mix-blend-mode:multiply" opacity="0.4">
<path d="M487.986 52.0088H409.45V54.5164H487.986V52.0088Z" fill="black"/>
</g>
<g style="mix-blend-mode:multiply" opacity="0.4">
<path d="M487.986 238.795H409.45V242.026H487.986V238.795Z" fill="black"/>
</g>
<path d="M491.041 246.023H405.891V47.4316H491.041V246.023ZM412.387 241.445H484.553V52.0009H412.387V241.445Z" fill="#C8C8C8"/>
<path d="M398.283 54.3584H321.035V238.964H398.283V54.3584Z" fill="#ECECEC"/>
<path opacity="0.3" d="M386.781 54.3584H382.262L355.326 238.964H359.836L386.781 54.3584Z" fill="#FAFAFA"/>
<g style="mix-blend-mode:multiply" opacity="0.4">
<path d="M399.074 52.0088H320.538V54.5164H399.074V52.0088Z" fill="black"/>
</g>
<g style="mix-blend-mode:multiply" opacity="0.4">
<path d="M399.074 238.795H320.538V242.026H399.074V238.795Z" fill="black"/>
</g>
<path d="M402.138 246.023H317.029V47.4316H402.138V246.023ZM323.475 241.445H395.641V52.0009H323.475V241.445Z" fill="#C8C8C8"/>
<path opacity="0.3" d="M324.25 238.794L359.558 54.5166H378.475L348.038 238.794H324.25Z" fill="#FAFAFA"/>
<path d="M308.699 54.3584H231.45V238.964H308.699V54.3584Z" fill="#ECECEC"/>
<path opacity="0.3" d="M297.187 54.3584H292.677L265.732 238.964H270.251L297.187 54.3584Z" fill="#FAFAFA"/>
<g style="mix-blend-mode:multiply" opacity="0.4">
<path d="M309.49 52.0088H230.954V54.5164H309.49V52.0088Z" fill="black"/>
</g>
<g style="mix-blend-mode:multiply" opacity="0.4">
<path d="M309.49 238.795H230.954V242.026H309.49V238.795Z" fill="black"/>
</g>
<path d="M312.544 246.023H227.402V47.4316H312.544V246.023ZM233.89 241.445H306.09V52.0009H233.89V241.445Z" fill="#C8C8C8"/>
<path opacity="0.3" d="M234.665 238.794L269.973 54.5166H288.89L258.453 238.794H234.665Z" fill="#FAFAFA"/>
<g style="mix-blend-mode:multiply" opacity="0.4">
<g style="mix-blend-mode:multiply" opacity="0.4">
<path d="M179.64 92.1973H131.633V155.999H179.64V92.1973Z" fill="black"/>
</g>
</g>
<path d="M180.953 90.8926H132.946V154.694H180.953V90.8926Z" fill="#C8C8C8"/>
<path d="M177.788 93.123H135.781V151.312H177.788V93.123Z" fill="white"/>
<path d="M170.434 103.439L142.556 102.37V142.055H170.434V103.439Z" fill="#C8C8C8"/>
<g style="mix-blend-mode:multiply" opacity="0.4">
<g style="mix-blend-mode:multiply" opacity="0.4">
<path d="M142.556 142.055L170.435 121.665L142.556 102.37V142.055Z" fill="black"/>
</g>
</g>
<path d="M94.0345 255.279C94.0345 255.279 105.302 239.653 106.993 232.02C108.685 224.388 107.355 222.764 107.355 222.764C107.355 222.764 114.171 204.748 113.818 203.595C113.465 202.442 112.068 201.138 110.839 201.424C109.611 201.71 75.6817 221.535 76.338 231.011C76.9944 240.486 84.7277 254.707 94.0345 255.279Z" fill="#413B89"/>
<path d="M107.372 222.823C107.372 222.823 114.188 204.806 113.835 203.653C113.481 202.501 112.084 201.196 110.856 201.482C110.856 201.482 109.905 201.945 106.8 216.629C103.695 231.313 94.0513 255.338 94.0513 255.338C94.0513 255.338 105.319 239.711 107.01 232.079C108.702 224.447 107.372 222.823 107.372 222.823Z" fill="#201851"/>
<path d="M104.974 223.992C104.974 223.992 97.8882 244.971 94.0763 255.279C90.2643 265.587 79.6111 314.907 82.7919 324.643" stroke="black" stroke-width="0.67" stroke-miterlimit="10" stroke-linecap="round"/>
<path d="M92.0149 192.175C92.0149 192.175 87.1847 213.321 85.8972 230.404C84.6098 247.486 80.7642 312.373 80.7642 312.373" stroke="black" stroke-width="0.53" stroke-miterlimit="10" stroke-linecap="round"/>
<path d="M92.3515 193.446C92.3515 193.446 97.2573 204.916 100.32 204.041C103.383 203.166 105.756 197.645 107.768 192.176C109.779 186.706 115.56 154.822 115.829 153.467C116.098 152.112 107.944 135.51 107.944 135.51C107.944 135.51 87.3025 178.821 92.3515 193.446Z" fill="#201851"/>
<path d="M108.23 135.813C108.23 135.813 109.189 141.948 108.752 143.606C108.314 145.263 95.9697 165.602 94.6569 176.626C93.3442 187.649 92.2755 192.437 92.2755 192.437C92.2755 192.437 84.7021 198.168 81.7822 197.486C78.8622 196.805 73.3673 186.337 74.7136 183.273C76.06 180.21 98.3342 141.199 99.0327 141.35C99.7311 141.502 100.606 145.903 100.606 145.903L101.044 139.339L108.23 135.813Z" fill="#413B89"/>
<path d="M71.7938 230.842C72.7176 229.855 73.8778 229.12 75.1646 228.706C76.4515 228.293 77.8226 228.214 79.1484 228.477C83.7934 229.319 89.8016 224.27 89.6418 219.894C89.4819 215.518 83.7934 201.76 77.3139 198.697C70.8345 195.634 54.5432 183.02 54.5432 183.02V185.384L52.0861 181.791L45.127 179.469C45.127 179.469 47.9712 204.385 54.8041 213.675C61.637 222.965 71.7938 230.842 71.7938 230.842Z" fill="#413B89"/>
<path d="M54.5427 213.415C61.3755 222.671 71.5323 230.581 71.5323 230.581C71.5323 230.581 48.2736 198.672 45.1685 181.514C46.0689 187.892 48.9804 205.85 54.5427 213.415Z" fill="#201851"/>
<path d="M65.9204 222.469C65.9204 222.469 69.2022 226.903 71.5332 230.581C73.8641 234.258 80.8737 302.107 79.5946 314.595" stroke="black" stroke-width="0.53" stroke-miterlimit="10" stroke-linecap="round"/>
<path d="M93.9758 273.733H72.0214C72.0214 273.733 54.2407 322.683 57.3121 338.949C60.3836 355.215 63.6822 360.685 63.6822 360.685H102.315C102.315 360.685 105.605 355.198 108.677 338.949C111.748 322.7 93.9758 273.733 93.9758 273.733Z" fill="url(#paint0_linear_406_1782)"/>
<path d="M63.9843 298.557C62.5032 303.673 61.0475 309.1 59.8525 314.36H106.134C104.94 309.1 103.484 303.673 102.003 298.557H63.9843Z" fill="#201851"/>
<path d="M59.4238 348.474C60.0297 350.83 60.6103 352.79 61.1068 354.406H104.814C105.344 352.79 105.933 350.83 106.539 348.474H59.4238Z" fill="#201851"/>
<path d="M420.541 258.291H365.457C360.958 258.291 357.312 261.938 357.312 266.437V266.445C357.312 270.944 360.958 274.591 365.457 274.591H420.541C425.04 274.591 428.687 270.944 428.687 266.445V266.437C428.687 261.938 425.04 258.291 420.541 258.291Z" fill="#F25662"/>
<path d="M420.187 258.291H365.835C365.526 258.294 365.217 258.313 364.909 258.35C362.477 259.191 360.971 260.235 360.702 261.312L359.86 260.959C358.488 262.456 357.728 264.414 357.731 266.445C357.731 268.605 358.59 270.677 360.117 272.205C361.645 273.732 363.717 274.591 365.877 274.591H373.871L371.633 266.74C378.583 267.909 385.622 268.472 392.67 268.423C410.341 268.423 424.647 265.427 424.647 261.733C424.63 260.454 423.006 259.292 420.187 258.291Z" fill="#A43447"/>
<path d="M392.999 370.361C392.517 370.359 392.056 370.168 391.713 369.83C391.37 369.492 391.173 369.033 391.164 368.552L390.028 274.591H395.969L394.825 368.552C394.82 369.033 394.626 369.493 394.284 369.832C393.942 370.171 393.48 370.361 392.999 370.361V370.361Z" fill="black"/>
<path d="M440.088 370.361C439.693 370.36 439.309 370.23 438.993 369.992C438.677 369.754 438.447 369.42 438.338 369.04L410.779 274.591H417.023L441.856 368.064C441.926 368.334 441.934 368.617 441.878 368.891C441.823 369.165 441.705 369.423 441.534 369.645C441.364 369.866 441.145 370.046 440.894 370.17C440.644 370.294 440.368 370.36 440.088 370.361V370.361Z" fill="black"/>
<path d="M345.91 370.361C346.305 370.36 346.689 370.23 347.005 369.992C347.321 369.754 347.551 369.42 347.66 369.04L375.219 274.591H368.966L344.142 368.064C344.07 368.334 344.061 368.618 344.116 368.893C344.171 369.168 344.288 369.426 344.459 369.648C344.63 369.87 344.85 370.05 345.101 370.174C345.353 370.297 345.629 370.361 345.91 370.361Z" fill="black"/>
<path d="M114.92 274.591H170.004C174.502 274.591 178.149 270.944 178.149 266.445V266.437C178.149 261.938 174.502 258.291 170.004 258.291H114.92C110.421 258.291 106.774 261.938 106.774 266.437V266.445C106.774 270.944 110.421 274.591 114.92 274.591Z" fill="#F25662"/>
<path d="M115.274 258.291H169.609C169.918 258.294 170.227 258.313 170.534 258.35C172.966 259.191 174.472 260.235 174.742 261.312L175.583 260.959C176.955 262.456 177.715 264.414 177.712 266.445C177.712 267.515 177.501 268.574 177.092 269.562C176.683 270.55 176.083 271.448 175.326 272.205C174.57 272.961 173.672 273.561 172.684 273.971C171.695 274.38 170.636 274.591 169.567 274.591H161.572L163.811 266.74C158.181 267.766 150.835 267.295 142.773 267.295C125.102 267.295 111.243 267.707 110.797 261.699C110.738 260.454 112.455 259.292 115.274 258.291Z" fill="#A43447"/>
<path d="M142.462 370.361C142.944 370.359 143.405 370.168 143.748 369.83C144.091 369.492 144.288 369.033 144.297 368.552L145.433 274.591H139.475L140.62 368.552C140.622 368.791 140.671 369.028 140.765 369.249C140.859 369.47 140.995 369.67 141.166 369.838C141.337 370.006 141.54 370.138 141.762 370.228C141.985 370.318 142.223 370.363 142.462 370.361V370.361Z" fill="black"/>
<path d="M95.3724 370.361C95.7678 370.36 96.1523 370.23 96.4679 369.992C96.7836 369.754 97.0133 369.42 97.1227 369.04L124.681 274.591H118.438L93.6053 368.064C93.5347 368.334 93.5269 368.617 93.5826 368.891C93.6382 369.165 93.7558 369.423 93.9263 369.645C94.0968 369.866 94.3158 370.046 94.5664 370.17C94.817 370.294 95.0927 370.36 95.3724 370.361V370.361Z" fill="black"/>
<path d="M189.552 370.361C189.156 370.36 188.772 370.23 188.456 369.992C188.141 369.754 187.911 369.42 187.801 369.04L160.243 274.591H166.495L191.319 368.064C191.391 368.334 191.4 368.618 191.345 368.893C191.29 369.168 191.173 369.426 191.002 369.648C190.831 369.87 190.612 370.05 190.36 370.174C190.109 370.297 189.832 370.361 189.552 370.361V370.361Z" fill="black"/>
<path d="M192.387 132.228C190.418 130.872 188.143 130.028 185.766 129.771C183.389 129.514 180.986 129.852 178.772 130.755C170.812 133.767 168.893 149.47 165.157 151.716C161.421 153.963 156.818 154.628 156.321 158.793C155.825 162.959 161.151 168.454 161.151 168.454C161.151 168.454 180.91 173.612 185.134 164.995C189.358 156.378 192.387 132.228 192.387 132.228Z" fill="#403881"/>
<path d="M185.134 164.995C189.341 156.378 192.387 132.227 192.387 132.227C186.312 131.26 180.606 132.951 177.644 141.753C174.682 150.555 169.987 151.851 162.001 156.488C158.744 158.372 157.575 160.83 157.322 163.076C158.349 165.034 159.637 166.843 161.151 168.454C161.151 168.454 180.909 173.612 185.134 164.995Z" fill="#1E194F"/>
<path d="M208.072 143.596C208.072 143.596 205.767 166.585 202.477 168.513C199.186 170.44 193.582 168.016 193.582 168.016C191.64 170.726 189.899 173.576 188.373 176.54C186.286 180.748 186.236 188.666 183.93 189.381C181.624 190.097 170.466 170.271 176.247 164.793C180.194 161.065 184.04 157.279 184.04 157.279C184.04 157.279 182.087 156.437 182.256 153.34C182.424 150.244 187.717 139.296 208.072 143.596Z" fill="#F49C80"/>
<path d="M193.809 132.674C193.809 132.674 190.788 130.991 186.345 133.28C181.902 135.569 179.925 141.51 180.8 143.319C181.675 145.128 193.809 132.674 193.809 132.674Z" fill="#F25662"/>
<path d="M208.073 143.597C208.073 143.597 201.677 142.755 199.498 146.609C197.318 150.463 195.694 154.385 189.4 152.5C189.4 152.5 188.298 154.132 187.986 153.653C187.78 153.047 187.708 152.404 187.776 151.768C187.776 151.768 186.598 148.763 183.821 150.169C181.515 151.347 182.584 156.673 184.065 157.22C184.065 157.22 176.82 155.243 178.351 148.166C179.883 141.089 185.984 134.988 193.835 132.632C201.686 130.276 210.664 137.849 209.091 142.074C209.091 142.074 210.681 143.117 210.353 144.017C209.508 145.522 208.569 146.972 207.543 148.36L208.073 143.597Z" fill="#403881"/>
<path d="M208.072 143.597C208.072 143.597 209.579 143.992 209.234 145.212C208.804 146.339 208.238 147.41 207.551 148.402L208.072 143.597Z" fill="#1E194F"/>
<path d="M185.757 152.348C185.757 152.348 184.553 151.784 184.234 153.433C183.914 155.083 185.159 155.335 185.159 155.335C185.159 155.335 184.116 154.41 184.974 153.652C185.833 152.895 185.757 153.063 185.757 152.348Z" fill="#D07A62"/>
<path d="M193.582 168.017C191.014 166.816 188.722 165.097 186.85 162.968C186.85 162.968 190.814 168.606 192.497 169.531L193.582 168.017Z" fill="#D07A62"/>
<path d="M182.938 262.977C182.938 262.977 180.414 277.568 182.501 289.265C184.587 300.962 193.331 335.581 193.692 338.004C194.054 340.428 193.204 342.826 193.692 343.751C194.18 344.677 194.904 361.036 199.347 363.653C203.79 366.27 210.16 363.299 210.547 360.783C210.934 358.267 202.696 345.695 201.291 334.924C199.886 324.153 191.942 261.05 191.942 261.05L182.938 262.977Z" fill="#D07A62"/>
<path d="M193.044 233.112C193.044 233.112 207.527 233.575 209.092 240.189C210.657 246.803 209.992 326.324 209.992 326.324C209.992 326.324 216.253 344.635 218.971 349.642C221.689 354.649 210.245 355.414 204.665 349.642C199.086 343.869 196.755 334.789 196.755 334.789C197.396 331.806 197.701 328.761 197.664 325.71C197.496 321.393 188.088 271.61 187.869 266.991C187.761 265.649 187.761 264.301 187.869 262.96L180.296 263.01C180.296 263.01 183.611 233.802 193.044 233.112Z" fill="#F59D80"/>
<path d="M122.082 223.419C122.082 223.419 114.256 232.187 112.825 236.807C111.395 241.427 107.734 261.092 115.181 262.994C122.629 264.896 180.245 262.994 180.245 262.994C180.245 262.994 185.858 233.727 193.011 233.113L159.965 228.619C159.965 228.619 136.564 224.504 122.082 223.419Z" fill="#403880"/>
<path d="M193.044 233.113L159.999 228.619C159.999 228.619 136.564 224.471 122.082 223.419C122.082 223.419 161.261 245.861 166.369 245.449C170.459 245.121 178.041 249.404 183.392 250.246C185.757 242.277 189.123 233.45 193.044 233.113Z" fill="#1E194F"/>
<path d="M192.43 233.214C183.468 235.099 180.279 262.994 180.279 262.994H182.938C182.938 262.994 186.91 235.057 192.43 233.214Z" fill="#D07A62"/>
<path d="M179.622 161.552C178.634 161.265 177.631 161.032 176.618 160.854C176.122 160.854 172.865 164.312 172.865 164.312C172.865 164.312 152.669 164.506 149.026 166.921C145.382 169.336 136.184 183.548 136.184 183.548C136.184 183.548 128.99 213.623 126.684 216.829C124.378 220.035 122.081 223.418 122.081 223.418C122.081 223.418 145.954 225.101 159.452 232.06C159.452 232.06 161.757 221.121 163.979 217.814C165.81 215.348 167.907 213.09 170.231 211.082C170.231 211.082 182.853 210.241 184.536 207.716C185.723 205.991 186.842 204.51 186.842 204.51L205.086 199.377C205.086 199.377 198.665 181.209 196.309 178.525C193.953 175.84 192.791 175.336 192.791 175.336C192.918 173.886 192.955 172.43 192.901 170.977C192.734 170.609 192.493 170.28 192.194 170.009C192.194 170.009 188.786 173.745 187.987 175.336C187.187 176.926 184.032 188.454 182.66 187.958C181.288 187.461 178.116 177.481 178.057 171.658C177.998 165.835 178.183 162.974 179.622 161.552Z" fill="#F25662"/>
<path d="M148.588 204.486C148.967 202.533 154.032 198.141 157.483 199.899C160.933 201.658 154.074 196.719 154.899 193.369C155.724 190.02 156.288 187.227 156.288 187.227C156.102 187.227 150.338 193.479 150.338 193.479C150.338 193.479 138.507 204.241 127.988 213.826C127.671 214.875 127.234 215.883 126.684 216.83C124.387 220.045 122.081 223.419 122.081 223.419C122.081 223.419 142.47 224.824 156.212 230.563L157.483 223.478C157.483 223.478 148.201 206.429 148.588 204.486Z" fill="#CD3650"/>
<path d="M136.185 183.549L150.338 193.478L141.158 205.335C141.158 205.335 166.949 234.417 169.036 235.191C171.123 235.965 182.424 236.874 183.342 237.328C184.259 237.783 191.9 242.268 191.933 242.512C191.967 242.756 190.553 243.699 189.484 243.589C188.088 243.213 186.73 242.706 185.428 242.074C185.428 242.074 191.268 248.47 191.268 248.554C190.699 249.058 189.975 249.355 189.215 249.395C188.882 249.364 188.561 249.251 188.281 249.067C187.832 249.274 187.345 249.389 186.851 249.404C186.253 249.362 183.173 247.309 183.173 247.309L185.622 249.412C185.622 249.412 184.41 250.599 183.207 249.993C182.004 249.387 177.384 245.684 177.005 245.634C176.627 245.583 170.66 246.046 167.976 245.053C165.292 244.06 126.743 218.126 124.698 214.431C122.653 210.737 122.317 208.398 123.015 205.874C123.714 203.349 136.185 183.549 136.185 183.549Z" fill="#F59D80"/>
<path d="M199.38 184.449C198.16 188.985 195.652 200.236 194.6 200.37C193.288 200.53 190.241 192.502 190.241 192.502C189.619 195.759 187.305 204.359 186.875 204.485L205.119 199.352C205.119 199.352 202.048 190.693 199.38 184.449Z" fill="#CD3650"/>
<path d="M188.34 204.064C188.34 204.064 194.516 233.213 196.334 234.358C198.152 235.502 203.739 236.495 204.749 235.923C205.759 235.351 210.841 228.013 210.639 222.998C210.437 217.983 207.425 187.655 207.677 184.466C207.93 181.277 208.519 172.492 208.056 171.667C207.593 170.842 202.46 168.503 202.46 168.503C200.83 169.193 199.034 169.389 197.293 169.067C197.293 169.067 196.452 169.513 196.452 169.689C196.452 169.866 195.753 174.343 196.25 174.629C196.547 174.806 196.889 174.894 197.234 174.881C197.498 175.591 198.001 176.186 198.656 176.564C198.656 176.564 198.202 179.972 199.498 181.538C200.794 183.103 200.003 187.024 199.893 188.371C199.784 189.717 197.748 201.414 197.748 201.414L188.34 204.064Z" fill="#F59D80"/>
<path d="M197.748 201.422L196.166 215.727C196.166 215.727 193.49 206.673 192.253 206.134C191.016 205.596 188.845 206.395 188.845 206.395L188.34 204.073L197.748 201.422Z" fill="#D07A62"/>
<path d="M136.185 183.549L149.531 194.522L150.338 193.478L136.185 183.549Z" fill="#D07A62"/>
<path d="M188.508 176.742C188.508 176.742 190.09 176.018 190.898 177.954C191.706 179.889 192.295 181.993 192.295 181.993C192.295 181.993 190.427 177.651 188.508 176.742Z" fill="#CD3650"/>
<path d="M192.817 175.311L192.623 178.054L197.504 180.393C197.504 180.393 196.57 177.65 192.817 175.311Z" fill="#CD3650"/>
<path d="M177.173 177.726L171.115 181.268C171.115 181.268 174.481 182.034 174.599 181.84C174.716 181.647 177.173 177.726 177.173 177.726Z" fill="#CD3650"/>
<path d="M194.028 345.764C194.028 345.764 194.474 352.546 195.181 357.284C195.888 362.021 196.906 368.669 198.429 369.283C199.952 369.898 211.809 370.52 213.248 369.283C214.687 368.046 213.66 364.781 212.92 363.393C212.179 362.004 206.794 351.351 206.794 351.351C206.794 351.351 210.16 361.895 205.161 362.551C200.163 363.208 198.084 360.666 197.218 357.704C196.351 354.742 194.028 345.764 194.028 345.764Z" fill="#403881"/>
<path d="M218.97 349.626C218.97 349.626 222.066 354.574 222.176 356.013C222.285 357.452 221.949 359.253 221.41 359.834C220.871 360.414 211.228 362.055 207.727 359.245C204.227 356.434 201.93 351.082 201.93 351.082C201.958 352.739 201.896 354.397 201.744 356.047C201.559 356.182 200.735 356.375 200.381 355.853C200.028 355.332 198.925 347.119 197.857 344.964C196.788 342.81 195.374 337.45 196.906 333.975C196.906 333.975 204.235 350.199 209.789 351.646C215.343 353.093 218.574 351.082 218.97 349.626Z" fill="#403881"/>
<path d="M200.382 355.853C200.735 356.375 201.56 356.181 201.745 356.046C201.896 354.396 201.958 352.739 201.93 351.082C201.93 351.082 204.236 356.434 207.728 359.244C211.22 362.055 220.872 360.414 221.41 359.833C221.725 359.395 221.93 358.887 222.008 358.352C219.786 358.899 212.937 360.372 209.613 358.63C205.607 356.526 202.586 350.627 202.149 350.265C201.711 349.904 197.521 344.821 196.62 341.169C196.879 342.479 197.294 343.753 197.857 344.964C198.926 347.118 200.062 355.34 200.382 355.853Z" fill="#1E194F"/>
<path d="M198.429 369.283C199.952 369.897 211.809 370.52 213.248 369.283C213.497 369.036 213.69 368.738 213.814 368.41C213.937 368.082 213.988 367.731 213.963 367.381C211.753 367.895 209.499 368.196 207.231 368.281C203.907 368.402 200.58 368.157 197.31 367.549C197.63 368.475 198.008 369.114 198.429 369.283Z" fill="#1E194F"/>
<path d="M351.833 117.878C351.833 117.878 357.345 144.579 357.867 145.21C358.389 145.841 361.763 146.051 363.135 145.757C364.565 145.378 365.97 144.912 367.342 144.36C367.342 144.36 370.287 153.616 371.196 154.147C372.105 154.677 377.289 156.823 381.732 153.65C386.175 150.478 389.137 140.599 389.137 140.599C389.137 140.599 384.037 139.858 383.751 139.488C383.465 139.118 381.227 135.415 381.227 135.415C381.227 135.415 383.036 117.744 377.979 115.219C372.921 112.695 354.425 110.229 351.833 117.878Z" fill="#F59D80"/>
<path d="M367.267 123.971C367.267 123.971 368.731 128.768 369.345 128.642C369.959 128.515 370.851 124.527 370.851 124.527C370.851 124.527 372.534 122.002 374.756 122.928C376.977 123.854 376.944 129.719 374.966 131.402C375.711 132.837 376.755 134.097 378.026 135.097C379.297 136.097 380.767 136.814 382.338 137.2C382.338 137.2 387.807 118.291 387.563 116.398C387.319 114.505 383.28 111.669 383.28 111.669C383.28 111.669 382.169 106.275 381.799 106.191C381.429 106.107 380.848 107.184 380.848 107.184C380.848 107.184 378.997 102.774 375.008 102.202C371.02 101.63 349.242 105.08 346.852 108.867C346.852 108.867 346.524 119.217 352.246 119.865L351.893 118.418C352.3 117.785 352.848 117.257 353.496 116.874C354.143 116.491 354.87 116.265 355.62 116.213C358.069 116.154 360.333 116.255 360.669 117.391C361.006 118.527 361.654 122.179 362.975 122.743C364.379 123.24 365.812 123.65 367.267 123.971V123.971Z" fill="#403881"/>
<path d="M367.359 144.361L371.138 142.72L367.965 146.195L367.359 144.361Z" fill="#D07A62"/>
<path d="M374.967 131.402C374.967 131.402 373.662 132.538 372.594 131.798C372.963 132.136 373.428 132.35 373.924 132.41C374.42 132.47 374.923 132.374 375.362 132.134L374.967 131.402Z" fill="#D07A62"/>
<path d="M372.568 126.049C372.568 126.049 373.132 125.317 373.746 125.418C374.361 125.519 374.84 127.336 373.679 128.557C373.679 128.557 374.268 126.798 373.679 126.47C373.09 126.141 371.861 127.118 372.568 126.049Z" fill="#D07A62"/>
<path d="M374.966 131.402C375.712 132.838 376.755 134.097 378.026 135.097C379.297 136.097 380.767 136.814 382.338 137.2C382.338 137.2 387.808 118.292 387.564 116.398C387.564 116.398 387.353 121.809 383.154 122.819C380.403 123.56 377.509 123.597 374.739 122.928C377.003 123.871 376.944 129.719 374.966 131.402Z" fill="#1E194F"/>
<path d="M343.957 333.057L345.034 342.271C345.034 342.271 332.176 352.243 330.426 340.63L328.81 334.74L343.957 333.057Z" fill="#FCA080"/>
<path d="M345.034 342.245C345.034 342.245 347.079 357.662 346.767 357.813C346.456 357.964 311.214 357.762 307.386 357.746C307.292 357.744 307.203 357.708 307.134 357.644C307.066 357.58 307.024 357.494 307.015 357.401C306.914 355.886 306.696 349.928 309.935 348.624C313.646 347.126 324.981 343.474 327.043 341.303C329.104 339.132 329.567 338.551 329.929 338.728C330.291 338.905 332.942 340.689 332.891 342.237C332.841 343.785 332.765 344.677 333.303 344.576C333.842 344.475 339.127 344.837 339.85 343.735C340.574 342.632 345.034 342.245 345.034 342.245Z" fill="#1E194F"/>
<path d="M346.767 357.814C346.481 357.957 311.214 357.763 307.386 357.746C307.292 357.744 307.203 357.708 307.134 357.645C307.066 357.581 307.024 357.494 307.015 357.401C306.914 355.886 306.696 349.929 309.935 348.624C311.745 347.892 315.371 346.647 318.847 345.317C320.723 348.33 320.597 355.205 320.597 355.205L346.616 355.163C346.778 356.036 346.829 356.927 346.767 357.814V357.814Z" fill="#DFE5ED"/>
<path d="M351.53 341.472L352.102 348.002C352.102 348.002 355.132 353.379 361.081 353.48C367.031 353.581 368.284 350.56 368.284 350.56V344.341L351.53 341.472Z" fill="#FCA080"/>
<path d="M352.035 347.219C352.035 347.219 352.464 346.209 354.425 346.756C356.386 347.303 359.474 349.196 359.541 350.164C359.609 351.132 359.12 352.361 359.541 352.335C359.962 352.31 363.429 352.335 364.212 351.578C364.994 350.821 365.44 350.063 368.284 349.752C368.284 349.752 369.454 359.286 369.454 361.011C369.454 361.011 369.69 363.788 369.454 363.906C369.218 364.024 353.331 369.889 349.494 370.284C345.657 370.68 333.682 369.443 333.447 368.871C333.211 368.298 333.211 360.784 335.407 359.69C337.604 358.596 347.188 354.102 349.342 351.755C350.569 350.464 351.49 348.914 352.035 347.219Z" fill="#403880"/>
<path d="M369.454 363.906C369.218 364.024 353.331 369.889 349.494 370.285C345.657 370.68 333.682 369.443 333.447 368.871C333.211 368.299 333.211 360.785 335.407 359.691C336.114 359.337 337.604 358.622 339.354 357.747C351.833 355.702 354.349 365.977 354.349 365.977C356.874 365.354 369.454 361.012 369.454 361.012C369.454 361.012 369.69 363.789 369.454 363.906Z" fill="#DFE5ED"/>
<path d="M420.734 223.939C420.734 223.939 430.555 256.202 421.778 262.025C413.001 267.848 369.53 264.44 369.53 264.44C369.53 264.44 373.375 285.478 373.157 291.545C372.938 297.612 368.36 344.34 368.36 344.34C368.36 344.34 354.896 348.951 350.689 341.925L341.138 259.391L330.384 259.501C330.384 259.501 337.402 277.61 337.511 281.068C337.621 284.527 344.049 333.417 344.049 333.417C344.049 333.417 335.895 339.181 328.819 334.738C328.819 334.738 302.059 265.425 301.95 258.07C301.84 250.716 301.293 243.142 303.162 241.392C305.03 239.642 316.112 233.819 323.248 232.06C330.384 230.301 376.262 225 376.262 225L420.734 223.939Z" fill="#403880"/>
<path d="M341.601 251.323C342.694 249.564 353.482 242.268 358.582 239.878C363.681 237.489 389.145 232.389 389.145 232.389C389.145 232.389 391.593 249.598 393.352 250.254C394.791 250.801 417.612 247.73 425.278 246.644C424.437 235.957 420.768 223.924 420.768 223.924L376.245 224.984C376.245 224.984 330.383 230.285 323.231 232.044C316.078 233.803 305.013 239.618 303.144 241.376C301.276 243.135 301.823 250.7 301.933 258.055C302.042 265.409 328.81 334.74 328.81 334.74C335.887 339.183 344.041 333.418 344.041 333.418C344.041 333.418 337.612 284.528 337.502 281.069C337.393 277.611 330.375 259.502 330.375 259.502L341.129 259.393C341.129 259.393 340.498 253.115 341.601 251.323Z" fill="#232059"/>
<path d="M377.356 231.85L360.644 231.514L366.315 238.86L377.356 231.85Z" fill="#A43447"/>
<path d="M370.253 152.456C370.253 152.456 374.528 155.115 379.022 153.962C383.515 152.81 389.162 140.6 389.162 140.6L397.408 230.74C397.408 230.74 382.102 231.018 375.841 228.056L370.253 152.456Z" fill="#FFC761"/>
<path d="M397.408 230.74L396.441 220.137L379.299 222.401C379.299 222.401 376.994 197.156 376.337 183.768C375.681 170.38 370.253 152.456 370.253 152.456L375.841 228.055C382.102 231.018 397.408 230.74 397.408 230.74Z" fill="#D07E2C"/>
<path d="M317.753 185.964C317.753 185.964 313.941 184.23 313.47 183.549C312.998 182.867 311.029 175.588 310.785 175.134C310.541 174.68 303.321 167.939 302.993 167.83C302.665 167.72 301.731 169.563 301.891 170.413C302.507 171.982 303.221 173.511 304.028 174.991C304.028 174.991 304.281 175.832 304.087 175.832C303.894 175.832 295.529 172.82 294.974 172.567C291.653 172.279 288.319 172.161 284.985 172.214C284.927 172.695 284.998 173.183 285.192 173.627C285.386 174.071 285.695 174.455 286.088 174.738C287.072 175.176 293.77 176.632 293.77 176.632C293.77 176.632 291.709 178.492 292.34 179.678C292.704 180.37 293.188 180.991 293.77 181.512C293.77 181.512 292.929 183.195 293.19 183.65C293.722 184.251 294.334 184.778 295.007 185.215C294.862 185.558 294.786 185.928 294.786 186.301C294.786 186.674 294.862 187.043 295.007 187.386C295.554 188.228 300.326 190.348 300.898 190.239C300.898 190.239 304.626 192.326 307.512 192.326C309.018 192.326 313.024 196.718 313.024 196.718L317.753 185.964Z" fill="#F59D80"/>
<path d="M386.78 140.221C386.78 140.221 383.81 169.673 383.835 186.856C383.86 204.039 391.409 246.215 393.571 246.88C395.734 247.544 430.942 245.197 433.247 241.275C433.247 241.275 422.459 217.655 422.215 215.433C421.971 213.212 421.147 207.531 421.147 207.531C421.147 207.531 422.502 205.924 422.417 205.428C422.333 204.931 418.69 148.097 411.276 144.462C405.201 141.508 386.78 140.221 386.78 140.221Z" fill="#1150BD"/>
<path d="M368.141 146.725C368.141 146.725 373.72 156.545 375.361 184.314C377.002 212.083 376.06 227.297 375.841 228.071C375.622 228.846 368.049 225.976 368.049 225.976C368.049 225.976 370.253 223.452 370.253 217.915C370.253 212.378 367.636 202.027 367.636 202.027C367.636 202.027 357.597 222.265 355.738 222.509C353.02 222.927 350.246 222.787 347.584 222.097C344.622 221.196 311.45 197.694 311.45 197.694L317.787 186.005L348.08 199.006C348.08 199.006 354.745 155.131 356.638 153.154C358.532 151.176 368.141 146.725 368.141 146.725Z" fill="#1150BD"/>
<path d="M367.636 202.012L360.644 175.421L362.276 212.354L367.636 202.012Z" fill="#094080"/>
<path d="M389.944 143.402C389.944 143.402 394.387 160.771 394.387 161.679C394.387 162.588 386.242 183.659 386.242 183.659C386.242 183.659 395.54 163.918 395.54 163.076C395.54 162.235 389.944 143.402 389.944 143.402Z" fill="#094080"/>
<path d="M367.367 149.906C367.477 150.15 366.862 169.74 367.207 170.733C367.552 171.726 373.939 183.658 373.939 183.658C373.939 183.658 366.206 173.039 366.29 171.474L367.367 149.906Z" fill="#094080"/>
<path d="M422.215 215.433C421.971 213.211 421.147 207.531 421.147 207.531C421.147 207.531 417.032 212.387 416.451 212.959C415.87 213.531 388.556 226.944 388.556 226.953C389.119 230.092 389.692 233.045 390.239 235.662C397.198 233.214 417.545 226.019 425.177 223.175C424.018 220.663 423.028 218.077 422.215 215.433V215.433Z" fill="#094080"/>
<path d="M385.905 210.015L402.457 198.032L406.9 196.66L402.129 195.895L398.654 172.131C398.654 172.131 398.788 196.172 398.654 196.534C398.519 196.896 385.905 210.015 385.905 210.015Z" fill="#094080"/>
<path d="M371.566 220.676L358.582 224.235L364.388 235.932C364.388 235.932 368.427 233.214 370.279 231.851C371.764 230.894 373.396 230.187 375.109 229.755L371.566 220.676Z" fill="#F59D80"/>
<path d="M388.556 226.953L375.572 232.077C375.572 232.077 371.221 221.138 371.297 219.11L385.905 210.03C385.905 210.03 390.761 223.856 388.556 226.953Z" fill="#1150BD"/>
<path d="M304.086 177.727C304.086 177.727 303.346 183.121 305.441 184.972L302.807 183.163C302.61 183.712 302.45 184.274 302.328 184.846C302.328 185.115 302.656 186.108 302.496 186.436C302.496 186.436 303.683 188.388 302.631 189.482C302.631 189.482 303.211 187.564 302 187.151C302 187.151 302 185.468 301.209 184.896C301.441 184.128 301.571 183.333 301.596 182.531C301.427 182.262 296.412 178.56 296.412 178.56C296.412 178.56 301.31 180.949 301.68 180.739C302.545 179.787 303.349 178.781 304.086 177.727V177.727Z" fill="#D07A62"/>
<path d="M311.416 239.963L298.297 203.636L352.961 204.62L366.315 238.86L377.355 231.851L377.557 233.584L366.567 241.217L311.416 239.963Z" fill="#F25662"/>
<path d="M367.299 238.238L353.886 204.007L299.425 202.946L298.297 203.636L352.961 204.621L366.315 238.861L367.299 238.238Z" fill="#201851"/>
<path d="M366.315 238.86L366.567 241.216L311.416 239.962L310.39 237.118L366.315 238.86Z" fill="#A43447"/>
<path d="M332.025 220.054C331.65 219.963 331.265 219.92 330.88 219.928C331.183 220.213 331.408 220.57 331.536 220.966C331.664 221.361 331.69 221.783 331.612 222.191C331.408 222.771 331.019 223.269 330.506 223.608C329.992 223.947 329.382 224.108 328.768 224.068C329.315 224.625 330.01 225.013 330.771 225.187C332.63 225.641 334.414 224.859 334.759 223.437C335.104 222.014 333.859 220.508 332.025 220.054Z" fill="#201851"/>
<path d="M327.699 240.188H192.615V246.988H327.699V240.188Z" fill="url(#paint1_linear_406_1782)"/>
<path d="M262.324 246.988H257.999V370.359H262.324V246.988Z" fill="#201851"/>
<path d="M260.161 365.747L234.917 370.358H260.161H285.397L260.161 365.747Z" fill="#201851"/>
<path d="M225.257 235.359H220.982C219.99 235.357 219.04 234.961 218.339 234.259C217.639 233.557 217.246 232.606 217.246 231.615V225.724C217.246 224.732 217.639 223.781 218.339 223.079C219.04 222.377 219.99 221.982 220.982 221.979H222.32V223.662H220.982C220.713 223.662 220.446 223.716 220.197 223.819C219.949 223.922 219.723 224.074 219.533 224.264C219.343 224.455 219.192 224.682 219.09 224.931C218.988 225.18 218.936 225.446 218.937 225.716V231.606C218.936 231.875 218.988 232.142 219.09 232.391C219.192 232.64 219.343 232.867 219.533 233.057C219.723 233.248 219.949 233.4 220.197 233.503C220.446 233.606 220.713 233.659 220.982 233.659H225.257V235.359Z" fill="url(#paint2_linear_406_1782)"/>
<path d="M220.982 223.662H222.32V221.979H220.982C220.805 221.984 220.627 222.001 220.452 222.03L220.663 223.713C220.768 223.688 220.875 223.671 220.982 223.662V223.662Z" fill="#1351BD"/>
<path d="M225.257 233.669H221.916L222.126 235.36H225.257V233.669Z" fill="#1351BD"/>
<path d="M220.957 219.119L223.599 240.19H233.04L235.691 219.119H220.957Z" fill="url(#paint3_linear_406_1782)"/>
<path d="M221.748 225.405L222.194 228.973H234.454L234.9 225.405H221.748Z" fill="#201851"/>
<path d="M229.7 214.003C230.621 213.144 231.223 211.998 231.408 210.752C231.593 209.506 231.35 208.235 230.718 207.145C230.099 205.929 229.777 204.584 229.777 203.219C229.777 201.855 230.099 200.51 230.718 199.294C230.718 199.294 224.828 205.386 227.352 208.55C229.877 211.714 229.7 214.003 229.7 214.003Z" fill="#C7CCD1"/>
<path d="M225.938 205.419C225.938 205.419 225.307 208.053 226.46 209.668C227.613 211.284 228.294 213.623 227.697 214.936C227.623 214.159 227.384 213.407 226.995 212.731C226.606 212.054 226.076 211.469 225.442 211.015C223.22 209.357 225.938 205.419 225.938 205.419Z" fill="#C7CCD1"/>
<path d="M284.312 235.359H288.587C289.579 235.357 290.529 234.961 291.23 234.259C291.93 233.557 292.324 232.606 292.323 231.615V225.724C292.324 224.732 291.93 223.781 291.23 223.079C290.529 222.377 289.579 221.982 288.587 221.979H287.258V223.662H288.587C288.857 223.662 289.123 223.716 289.372 223.819C289.62 223.922 289.846 224.074 290.036 224.264C290.226 224.455 290.377 224.682 290.479 224.931C290.581 225.18 290.633 225.446 290.632 225.716V231.606C290.633 231.875 290.581 232.142 290.479 232.391C290.377 232.64 290.226 232.867 290.036 233.057C289.846 233.248 289.62 233.4 289.372 233.503C289.123 233.606 288.857 233.659 288.587 233.659H284.312V235.359Z" fill="url(#paint4_linear_406_1782)"/>
<path d="M288.587 223.662H287.257V221.979H288.587C288.765 221.983 288.942 222 289.117 222.03L288.907 223.713C288.802 223.687 288.695 223.67 288.587 223.662V223.662Z" fill="#1351BD"/>
<path d="M284.312 233.669H287.653L287.443 235.36H284.312V233.669Z" fill="#1351BD"/>
<path d="M288.612 219.119L285.97 240.19H276.528L273.886 219.119H288.612Z" fill="url(#paint5_linear_406_1782)"/>
<path d="M287.821 225.405L287.375 228.973H275.123L274.669 225.405H287.821Z" fill="#201851"/>
<path d="M283.243 214.003C284.164 213.144 284.767 211.999 284.954 210.753C285.14 209.508 284.899 208.236 284.27 207.145C283.651 205.929 283.329 204.584 283.329 203.219C283.329 201.855 283.651 200.51 284.27 199.294C284.27 199.294 278.379 205.386 280.904 208.55C283.428 211.714 283.243 214.003 283.243 214.003Z" fill="#C7CCD1"/>
<path d="M279.482 205.419C279.482 205.419 278.851 208.053 280.004 209.668C281.157 211.284 281.847 213.623 281.241 214.936C281.167 214.164 280.928 213.417 280.54 212.744C280.152 212.072 279.625 211.491 278.994 211.04C276.773 209.357 279.482 205.419 279.482 205.419Z" fill="#C7CCD1"/>
<path d="M259.808 80.6109C259.806 81.9125 260.087 83.199 260.631 84.3815C261.175 85.564 261.969 86.6144 262.958 87.4602C263.948 88.3061 265.109 88.9271 266.361 89.2805C267.614 89.6338 268.929 89.7112 270.214 89.5071C271.5 89.303 272.725 88.8224 273.807 88.0984C274.889 87.3744 275.8 86.4244 276.479 85.3137C277.158 84.2031 277.588 82.9584 277.739 81.6656C277.889 80.3728 277.758 79.0626 277.353 77.8256L274.273 67.3574H263.334L260.246 77.8256C259.954 78.7252 259.806 79.6652 259.808 80.6109Z" fill="url(#paint6_linear_406_1782)"/>
<path d="M263.258 67.3486H274.643C274.982 67.3486 275.257 67.0736 275.257 66.7343V66.3557C275.257 66.0164 274.982 65.7414 274.643 65.7414H263.258C262.918 65.7414 262.643 66.0164 262.643 66.3557V66.7343C262.643 67.0736 262.918 67.3486 263.258 67.3486Z" fill="#403882"/>
<path d="M263.553 65.75H274.357V61.4079H263.553V65.75Z" fill="#403882"/>
<path d="M263.553 65.75H274.357V65.0516H263.553V65.75Z" fill="#201851"/>
<path d="M270.689 67.3574C270.689 67.3574 270.756 83.5393 272.002 83.5645C273.247 83.5898 275.797 79.5674 270.394 78.0864C264.992 76.6054 262.644 80.0134 263.932 80.1396C265.219 80.2659 266.456 78.7344 266.616 75.2001C266.776 71.6658 266.784 67.3658 266.784 67.3658" stroke="#F59059" stroke-width="0.98" stroke-miterlimit="10"/>
<path opacity="0.5" d="M282.848 61.4062H254.658L214.107 83.3018H323.391L282.848 61.4062Z" fill="#201851"/>
<path d="M283.631 59.7988H253.875V61.4061H283.631V59.7988Z" fill="#201851"/>
<path d="M269.174 23.54H268.333V60.6077H269.174V23.54Z" fill="#201851"/>
<path d="M512.936 225.591C510.513 216.73 492.867 225.162 483.139 242.547L482.971 242.841C481.288 245.913 478.704 250.642 477.737 254.134C466.183 295.863 479.436 296.032 479.706 296.032C485.764 295.064 489.719 287.137 494.499 271.788C495.198 270.473 495.786 269.103 496.258 267.69L489.189 267.101L486.32 266.857L488.558 266.369L497.141 264.51C497.561 262.584 497.825 260.629 497.932 258.661C498.294 252.333 502.207 246.973 505.977 242.008L500.339 237.851L507.61 239.837C511.27 235.007 514.257 230.438 512.936 225.591Z" fill="#413B89"/>
<path d="M478.662 326.578C478.241 266.925 500.373 227.871 511.606 223.411" stroke="black" stroke-width="0.66" stroke-miterlimit="10"/>
<path d="M479.571 259.527L475.574 263.129L479.663 261.892C479.975 274.405 477.711 286.295 471.636 287.406C463.583 288.87 459.072 267.378 458.794 252.248L464.55 253.746L458.845 249.976C458.845 249.034 458.929 246.307 458.996 245.466C459.796 236.563 462.792 227.492 468.16 221.837C471.591 227.571 474.349 233.681 476.382 240.047C478.246 246.383 479.317 252.927 479.571 259.527V259.527Z" fill="#201851"/>
<g style="mix-blend-mode:multiply" opacity="0.35">
<path d="M458.997 245.466L476.382 240.038C474.348 233.676 471.589 227.569 468.16 221.837C462.792 227.483 459.788 236.571 458.997 245.466Z" fill="#042942"/>
</g>
<path d="M469.145 224.884C471.526 249.994 472.183 308.612 470.744 325.863" stroke="black" stroke-width="0.66" stroke-miterlimit="10"/>
<path d="M458.988 245.466C461.782 240.115 466.309 237.607 471.164 235.865L469.666 227.719L473.175 235.183C480.412 232.911 487.994 231.733 491.688 225.212C492.53 223.672 491.865 221.745 490.594 220.499C489.22 219.207 487.592 218.212 485.815 217.579L477.206 220.18L481.96 216.662C473.041 215.585 461.378 221.341 458.988 245.466Z" fill="#413B89"/>
<path d="M463.726 296.098C459.131 297.975 451.406 287.987 445.474 274.893C445.137 274.127 444.801 273.37 444.464 272.579C443.825 271.07 443.213 269.535 442.63 267.976L446.332 267.37L441.51 264.846C438.91 257.112 437.202 249.093 437.219 242.243L454.983 245.794C459.19 252.728 462.657 262.363 464.702 271.367L462.876 276.626L465.4 274.868C467.462 285.555 467.268 294.651 463.726 296.098Z" fill="url(#paint7_linear_406_1782)"/>
<path d="M463.726 296.098C459.131 297.975 451.406 287.987 445.474 274.893C445.137 274.127 444.801 273.37 444.464 272.579C443.825 271.07 443.213 269.535 442.63 267.976L446.332 267.37L441.51 264.846C438.91 257.112 437.202 249.093 437.219 242.243L454.983 245.794C459.19 252.728 462.657 262.363 464.702 271.367L462.876 276.626L465.4 274.868C467.462 285.555 467.268 294.651 463.726 296.098Z" fill="#201851"/>
<path d="M442.47 246.207C455.513 273.522 468.43 304.884 466.73 326.578" stroke="black" stroke-width="0.66" stroke-miterlimit="10"/>
<path d="M454.983 245.786C452.246 245.461 449.479 246.053 447.115 247.469L440.913 244.103L445.709 248.487C444.45 249.494 443.359 250.695 442.478 252.046L442.133 252.551C440.677 251.449 438.767 250.086 438.582 249.959L440.812 254.377C433.71 263.398 424.487 265.376 426.675 256.599C427.129 254.806 427.516 252.745 428.248 250.414L432.624 247.376L429.031 247.974C429.166 247.506 429.364 247.058 429.62 246.644C430.687 244.921 432.199 243.518 433.997 242.583C435.795 241.649 437.813 241.217 439.836 241.334C444.994 241.578 452.509 242.504 454.983 245.786Z" fill="#413B89"/>
<path d="M487.22 360.658H455.858L447.022 318.398H496.872L487.22 360.658Z" fill="url(#paint8_linear_406_1782)"/>
<path d="M448.73 326.578L450.657 335.801H492.9L495.004 326.578H448.73Z" fill="#201851"/>
<defs>
<linearGradient id="paint0_linear_406_1782" x1="128.199" y1="266.875" x2="58.3892" y2="352.488" gradientUnits="userSpaceOnUse">
<stop offset="0.05" stop-color="#FAD05B"/>
<stop offset="1" stop-color="#F8A35A"/>
</linearGradient>
<linearGradient id="paint1_linear_406_1782" x1="217.809" y1="200.613" x2="307.377" y2="291.494" gradientUnits="userSpaceOnUse">
<stop offset="0.05" stop-color="#FAD05B"/>
<stop offset="1" stop-color="#F8A35A"/>
</linearGradient>
<linearGradient id="paint2_linear_406_1782" x1="200.98" y1="249.858" x2="227.327" y2="223.73" gradientUnits="userSpaceOnUse">
<stop stop-color="#1252C3"/>
<stop offset="1" stop-color="#3F86FD"/>
</linearGradient>
<linearGradient id="paint3_linear_406_1782" x1="203.782" y1="252.678" x2="230.12" y2="226.558" gradientUnits="userSpaceOnUse">
<stop stop-color="#1252C3"/>
<stop offset="1" stop-color="#3F86FD"/>
</linearGradient>
<linearGradient id="paint4_linear_406_1782" x1="308.59" y1="249.858" x2="282.251" y2="223.73" gradientUnits="userSpaceOnUse">
<stop stop-color="#1252C3"/>
<stop offset="1" stop-color="#3F86FD"/>
</linearGradient>
<linearGradient id="paint5_linear_406_1782" x1="305.796" y1="252.678" x2="279.448" y2="226.558" gradientUnits="userSpaceOnUse">
<stop stop-color="#1252C3"/>
<stop offset="1" stop-color="#3F86FD"/>
</linearGradient>
<linearGradient id="paint6_linear_406_1782" x1="281.064" y1="62.4179" x2="262.636" y2="85.5336" gradientUnits="userSpaceOnUse">
<stop stop-color="#F5995E"/>
<stop offset="0.29" stop-color="#F9AB60"/>
<stop offset="0.71" stop-color="#FDBF62"/>
<stop offset="1" stop-color="#FFC663"/>
</linearGradient>
<linearGradient id="paint7_linear_406_1782" x1="437.219" y1="269.28" x2="466.73" y2="269.28" gradientUnits="userSpaceOnUse">
<stop stop-color="#117233"/>
<stop offset="1" stop-color="#17A350"/>
</linearGradient>
<linearGradient id="paint8_linear_406_1782" x1="451.145" y1="300.702" x2="488.381" y2="358.041" gradientUnits="userSpaceOnUse">
<stop offset="0.05" stop-color="#FAD05B"/>
<stop offset="1" stop-color="#F8A35A"/>
</linearGradient>
</defs>
</svg>
