<svg width="572" height="400" fill="none" xmlns="http://www.w3.org/2000/svg"><path d="M140.242 167.029c-21.151-1.347-45.56-25.259-39.126-40.016 6.436-14.757 7.906-24.589 1.397-34.585-5.905-9.065 16.145-47.48 7.782-62.196 3.128-2.965 7.448-4.622 11.434-3.267 5.071 1.732 7.586 7.35 9.187 12.43a117.773 117.773 0 013.985 17.264c.817 5.57 1.454 11.563 5.063 15.9 3.953 4.753 10.617 6.386 15.027 10.73a16.4 16.4 0 014.565 14.144c-.751 4.484-3.34 8.413-5.186 12.569-1.845 4.157-2.907 9.171-.645 13.116 1.993 3.47 6.019 5.185 8.812 8.06 3.568 3.667 4.9 9.138 4.254 14.21-.645 5.071-3.054 9.8-6.1 13.883a47.294 47.294 0 01-5.3 5.994 42.727 42.727 0 01-15.149 1.764z" fill="url(#paint0_linear_406_1950)"/><path d="M119.377 188.491c-4.508-9.751-20.768-16.521-27.056-21.903-6.631-5.659-12.707-13.278-13.981-22.196-1.42-9.955 4.018-15.28 8.6-23.095 7.578-12.944-7.75-25.651-2.557-38.652 2.679-6.697 10.551-9.694 14.79-15.516 3.389-4.672 4.148-10.699 4.614-16.448.465-5.749.817-11.735 3.618-16.79a15.34 15.34 0 012.891-3.7c8.362 14.7-13.688 53.132-7.783 62.197 6.533 9.995 5.039 19.787-1.397 34.585-6.435 14.797 17.967 38.701 39.126 40.016a42.729 42.729 0 0015.157-1.773 48.054 48.054 0 01-10.126 7.424c-8.951 4.949-20.114 7.399-25.896 15.851z" fill="#F48F59"/><path d="M119.376 72.543V372.58m0-269.871l12.234-15.238m-12.234 46.582l12.234-15.239m-12.233 1.528l-12.233-15.238m12.233 43.208l-12.233-15.239m12.232 33.491l12.234-15.239" stroke="#231F20" stroke-width="1.02" stroke-miterlimit="10" stroke-linecap="round"/><path d="M491.908 45.031c3.773 3.087 27.105 29.31 18.971 65.545s-28.117 54.136-54.201 46.402c-26.084-7.734-52.495-31.368-45.733-68.387 6.762-37.018 36.251-80.195 80.963-43.56z" fill="url(#paint1_linear_406_1950)"/><path d="M464.215 80.596V372.58" stroke="#231F20" stroke-width="1.22" stroke-miterlimit="10"/><path d="M464.215 118.529l16.587-16.587m-16.587-3.592l-14.022-14.022" stroke="#231F20" stroke-width="1.2" stroke-miterlimit="10"/><path d="M163.353 267.349h-5.472v100.325h5.472V267.349z" fill="#201851"/><path d="M189.404 262.987c0 4.149-13.262 10.617-29.171 10.617-15.908 0-28.452-6.46-28.452-10.617 0-4.157 12.903-7.521 28.812-7.521 15.908 0 28.811 3.364 28.811 7.521z" fill="#D93357"/><path d="M160.617 269.618c15.912 0 28.812-3.166 28.812-7.072s-12.9-7.072-28.812-7.072-28.811 3.166-28.811 7.072 12.899 7.072 28.811 7.072z" fill="#F35662"/><path d="M160.617 362.765l-21.608 9.816h43.225l-21.617-9.816zm14.831-34.095h-29.661a.774.774 0 01-.767-.768.758.758 0 01.224-.542.774.774 0 01.543-.225h29.661a.778.778 0 01.543.225.76.76 0 01.225.542.76.76 0 01-.225.543.774.774 0 01-.543.225z" fill="#201851"/><path d="M178.331 211.178l35.141 160.276m0-160.276l-35.141 160.276" stroke="#231F20" stroke-width="2.86" stroke-miterlimit="10" stroke-linecap="round"/><path d="M183.231 349.095h25.479" stroke="#231F20" stroke-width="2.86" stroke-miterlimit="10"/><path d="M379.317 211.178l35.149 160.276m0-160.276l-35.149 160.276" stroke="#231F20" stroke-width="2.86" stroke-miterlimit="10" stroke-linecap="round"/><path d="M384.217 349.095h25.479" stroke="#231F20" stroke-width="2.86" stroke-miterlimit="10"/><path d="M427.744 209.431H167.633a4.279 4.279 0 00-4.279 4.279v.58a4.279 4.279 0 004.279 4.279h260.111a4.279 4.279 0 004.279-4.279v-.58a4.279 4.279 0 00-4.279-4.279z" fill="#201851"/><path d="M361.889 367.429s-.735-25.986-9.693-27.905c-8.959-1.919-10.233 16.202 0 34.111l9.693-6.206z" fill="url(#paint2_linear_406_1950)"/><path d="M357.259 370.548a.144.144 0 01-.147-.122c-4.272-17.526-6.109-23.977-6.125-24.042a.163.163 0 01-.004-.058.165.165 0 01.019-.054.134.134 0 01.039-.043.14.14 0 01.052-.025.143.143 0 01.058-.007.143.143 0 01.102.053.146.146 0 01.028.052c0 .065 1.854 6.533 6.125 24.058.004.02.005.04.002.06a.143.143 0 01-.062.097.14.14 0 01-.055.023l-.032.008z" fill="#231F20"/><path d="M364.984 373.635s13.639-13.222 8.526-19.6c-5.112-6.378-17.909 4.696-21.322 19.6h12.796z" fill="url(#paint3_linear_406_1950)"/><path d="M359.66 371.863h-.057a.138.138 0 01-.05-.032.146.146 0 01-.044-.106c0-.02.004-.04.012-.058 3.381-7.832 9.988-14.063 10.053-14.128a.156.156 0 01.212 0 .135.135 0 01.034.051.152.152 0 010 .119.143.143 0 01-.034.051c-.065.057-6.623 6.247-9.979 14.013a.147.147 0 01-.147.09z" fill="#231F20"/><path d="M353.437 373.636s-3.479-15.035-10.502-13.753c-7.023 1.282 0 13.646 0 13.646l10.502.107z" fill="url(#paint4_linear_406_1950)"/><path d="M346.545 371.757a.154.154 0 01-.147-.106l-2.344-8.746a.155.155 0 01.294-.074l2.344 8.738a.157.157 0 01-.107.188h-.04z" fill="#231F20"/><path d="M116.838 278.038c-.474 2.246.22 4.9-.172 7.219-.49 2.883-2.327 3.716-3.568 5.529-1.47 2.164-2.14 6.199-1.634 9.645a51.165 51.165 0 001.634 5.88c.642 2.065.793 4.252.441 6.386-.703 3.071-4.427 5.447-4.427 18.448 0 11.858 8.469 16.472 10.87 19.379v-76.928l-1.086 1.061a6.257 6.257 0 00-2.058 3.381z" fill="url(#paint5_linear_406_1950)"/><path d="M126.727 306.311a47.963 47.963 0 001.633-5.88c.539-3.446-.13-7.481-1.633-9.645-1.241-1.813-3.07-2.646-3.56-5.529-.401-2.302.302-4.973-.18-7.219a6.222 6.222 0 00-2.058-3.381l-1.086-1.061v76.928c2.401-2.907 10.869-7.521 10.869-19.379 0-13.001-3.724-15.377-4.418-18.448a13.746 13.746 0 01.433-6.386z" fill="url(#paint6_linear_406_1950)"/><path d="M131.007 320.904c-.645.817-.36 2.124-.939 3.006-.719 1.11-2.328 1.069-3.561 1.567a3.935 3.935 0 00-2.385 3.716c.133.962.36 1.908.678 2.826a3.261 3.261 0 01-.335 2.793c-.914 1.135-4.263 1.339-5.716 6.819-1.307 5.006 5.202 8.779 6.868 10.518l8.452-32.437-1.012.212a3.357 3.357 0 00-2.05.98z" fill="url(#paint7_linear_406_1950)"/><path d="M135.449 325.314c-.074-1.053.816-2.033.653-3.079a3.27 3.27 0 00-1.339-1.87l-.817-.677-8.444 32.429c2.311-.703 9.8-.817 11.131-5.831 1.429-5.472-1.397-7.285-1.633-8.73a3.274 3.274 0 011.061-2.597 15.235 15.235 0 001.977-2.132 3.938 3.938 0 00-.27-4.41c-.8-1.037-2.221-1.78-2.319-3.103z" fill="url(#paint8_linear_406_1950)"/><path d="M124.514 355.359c-2.523-3.789-18.538-6.778-18.538-6.778s5.276 5.659 5.276 9.465a16.753 16.753 0 01-.899 4.32 8.592 8.592 0 008.167 11.18h.49c1.037-2.189 2.033-4.769 2.033-6.533 0-3.659 5.995-7.84 3.471-11.654z" fill="#373075"/><path d="M140.635 362.366a16.84 16.84 0 01-.907-4.32c0-3.806 5.284-9.465 5.284-9.465h-39.036s16.015 2.989 18.538 6.778c2.523 3.79-3.471 7.995-3.471 11.646 0 1.772-.996 4.352-2.033 6.533h13.458a8.583 8.583 0 006.908-3.521 8.6 8.6 0 001.259-7.651z" fill="#232059"/><path d="M308.799 187.055h-27.162l-6.125 20.244h39.412l-6.125-20.244z" fill="#E1E7EF"/><path d="M308.799 187.055h-27.162l-3.112 10.273h33.385l-3.111-10.273z" fill="#E1E7EF"/><path d="M348.937 117.288h-107.43a7.138 7.138 0 00-7.138 7.138v62.286a7.137 7.137 0 007.138 7.137h107.43a7.137 7.137 0 007.138-7.137v-62.286a7.138 7.138 0 00-7.138-7.138z" fill="#201851"/><path opacity=".7" d="M349.256 119.812H241.188a4.156 4.156 0 00-4.156 4.156v48.958a4.157 4.157 0 004.156 4.157h108.068a4.157 4.157 0 004.157-4.157v-48.958a4.157 4.157 0 00-4.157-4.156z" fill="#3D86FA"/><path d="M238.828 193.848h112.779a4.465 4.465 0 004.467-4.458v-9.122h-121.68v9.122a4.46 4.46 0 004.434 4.458zm78.366 12.088H273.25v3.495h43.944v-3.495z" fill="#E1E7EF"/><path d="M349.174 124.205h-35.549v33.556h35.549v-33.556z" fill="#fff"/><path d="M313.625 161.493h35.549m-35.549 3.724h35.549m-35.549 3.798h35.549" stroke="#201851" stroke-width="1.25" stroke-miterlimit="10"/><path d="M305.434 152.306h-63.715v16.708h63.715v-16.708z" fill="url(#paint9_linear_406_1950)"/><path opacity=".3" d="M353.412 122.408a2.6 2.6 0 00-.763-1.833 2.6 2.6 0 00-1.834-.763h-29.203l-57.125 57.247h46.549l42.385-40.514-.009-14.137zm-93.914 54.683l55.426-57.279H299.44l-57.721 57.279h17.779z" fill="#E1E7EF"/><path d="M277.635 49.344v108.418" stroke="#201851" stroke-miterlimit="10" stroke-linecap="round"/><path d="M356.842 21.65H247.983a6.264 6.264 0 00-6.264 6.264v35.157a6.264 6.264 0 006.264 6.264h108.859a6.264 6.264 0 006.264-6.264V27.914a6.264 6.264 0 00-6.264-6.264z" fill="url(#paint10_linear_406_1950)"/><path d="M290.587 25.456h-39.362a4.63 4.63 0 00-4.631 4.63v30.805a4.63 4.63 0 004.631 4.63h39.362a4.631 4.631 0 004.631-4.63V30.087a4.631 4.631 0 00-4.631-4.63zm66.059.817a1.807 1.807 0 011.805 1.805v7.986a1.814 1.814 0 01-1.805 1.813h-53.392a1.812 1.812 0 01-1.805-1.813v-7.986a1.803 1.803 0 011.805-1.805h53.392zm0-.817h-53.392a2.623 2.623 0 00-2.622 2.622v7.986a2.624 2.624 0 002.622 2.63h53.392a2.633 2.633 0 002.622-2.63v-7.986a2.62 2.62 0 00-2.622-2.622z" fill="#fff"/><path d="M300.632 43.643h58.636m-58.636 5.733h58.636m-58.636 5.732h58.636m-58.636 5.742h58.636" stroke="#fff" stroke-miterlimit="10"/><path d="M303.67 78.865H194.811a6.264 6.264 0 00-6.264 6.264v35.157a6.263 6.263 0 006.264 6.263H303.67a6.264 6.264 0 006.264-6.263V85.129a6.264 6.264 0 00-6.264-6.264z" fill="url(#paint11_linear_406_1950)"/><path d="M237.424 82.679h-39.363a4.63 4.63 0 00-4.63 4.63v30.804a4.631 4.631 0 004.63 4.631h39.363a4.631 4.631 0 004.63-4.631V87.309a4.63 4.63 0 00-4.63-4.63zm66.05.816a1.803 1.803 0 011.805 1.805v7.987a1.8 1.8 0 01-.529 1.276 1.796 1.796 0 01-1.276.529h-53.393a1.802 1.802 0 01-1.804-1.805V85.3a1.806 1.806 0 011.804-1.805h53.393zm0-.816h-53.393a2.62 2.62 0 00-2.621 2.621v7.987a2.62 2.62 0 002.621 2.621h53.393a2.623 2.623 0 002.621-2.621V85.3a2.623 2.623 0 00-2.621-2.621z" fill="#fff"/><path d="M247.46 100.866h58.635m-58.635 5.733h58.635m-58.635 5.732h58.635m-58.635 5.733h58.635" stroke="#fff" stroke-miterlimit="10"/><path d="M198.502 339.327l-2.564 7.734s-5.88 7.905-5.88 8.869c0 .963 9.726 16.471 11.147 16.651 1.421.18 12.005.302 12.299 0 .294-.302 1.519-4.9 0-6.076-1.225-.947-3.373-.4-4.083-2.45-.711-2.049-2.213-10.289-2.213-10.289l5.006-9.898-13.712-4.541z" fill="#403880"/><path d="M198.617 351.953c2.132 1.821 4.655.31 6.166.424a3.412 3.412 0 012.36 1.397l5.006-9.898-13.646-4.549-2.565 7.734a9.548 9.548 0 002.679 4.892z" fill="#FB9F80"/><path d="M201.173 372.581c1.421.18 12.005.302 12.299 0 .294-.302 1.519-4.9 0-6.076-.874-.678-2.23-.596-3.202-1.241-5.716-.523-6.247 5.717-6.247 5.717a6.857 6.857 0 01-2.556-.384c-1.56-.449-8.796-13.124-10.617-16.333a5.558 5.558 0 00-.816 1.633c-.008 1.004 9.718 16.505 11.139 16.684z" fill="#DFE5ED"/><path d="M246.571 349.095l2.164 7.807s6.394 7.668 12.07 9.253c5.675 1.584 6.157 5.136 5.978 8.215a.294.294 0 01-.18.253 30.847 30.847 0 01-13.434 1.846c-7.464-.727-17.542-2.54-17.623-2.826-.082-.286-1.34-13.36-1.193-13.679.147-.318-2.735-7.84-2.735-7.84l14.953-3.029z" fill="#FB9F80"/><path d="M235.57 373.643c.082.286 10.159 2.099 17.623 2.826 4.56.389 9.149-.242 13.434-1.846a.29.29 0 00.126-.101.286.286 0 00.054-.152c.18-3.079-.425-6.672-5.978-8.216-5.553-1.543-12.07-9.252-12.07-9.252-6.027-.147-6.223 3.438-7.562 4.034-1.34.596-6.819-.972-6.819-.972-.147.319 1.102 13.393 1.192 13.679z" fill="#403880"/><path d="M253.193 376.468c4.56.389 9.149-.241 13.434-1.846a.294.294 0 00.18-.253c.05-.729.031-1.462-.057-2.188a40.973 40.973 0 01-11.335 2.074c-5.317.073-16.75-2.279-20.106-2.997.138 1.364.236 2.311.261 2.384.082.286 10.184 2.099 17.623 2.826z" fill="#DFE5ED"/><path d="M266.628 374.623a.311.311 0 00.126-.101.3.3 0 00.053-.153c.18-3.078-.424-6.672-5.978-8.215a12.356 12.356 0 01-2.449-1.029s-6.615 1.209-5.717 8.983a3.898 3.898 0 001.086 2.377 30.857 30.857 0 0012.879-1.862z" fill="#DFE5ED"/><path d="M219.621 330.59l-6.876 15.32s-16.145-1.282-14.953-7.66l10.306-34.446 11.523 26.786z" fill="#232059"/><path d="M140.847 234.886s-3.634 20.694.743 25.586c4.377 4.892 63.143 30.845 63.143 30.845s3.202 14.414 7.636 24.303c4.434 9.89 18.424 36.954 18.424 36.954s11.033 2.14 15.802-3.479l-15.002-46.663s12.617-28.771 12.389-30.927c-.229-2.156-4.998-13.532-8.412-15.01-3.414-1.478-56.349-26.239-56.349-26.239l-11.31-3.381-27.064 8.011z" fill="#403880"/><path d="M235.57 256.495c-1.576-.686-13.72-6.337-26.321-12.25l-26.557 1.413 2.589 1.699-36.235 2.515s4.965 1.502 6.329 1.927c1.233.384 30.926.074 36.676 0 9.391 6.207 22.866 15.214 26.01 17.779 4.9 4.034 13.532 32.813 13.532 32.813s12.617-28.771 12.389-30.927c-.229-2.156-4.998-13.491-8.412-14.969z" fill="#232059"/><path d="M171.961 238.439c.637-.082 10.731 7.252 10.731 7.252l15.9-6.395-19.338-9.04-11.343-3.381-26.076 7.717c3.267 2.213 8.166 5.08 12.348 5.643 6.99.94 17.141-1.706 17.778-1.796z" fill="#232059"/><path d="M215.587 137.297l-9.302 23.029s-42.98 6.142-56.349 7.84c0 0-17.403 8.167-19.787 10.404-2.385 2.238-16.464 30.617-16.121 37.868.343 7.252 8.444 13.222 12.364 15.697 3.92 2.474 15.182 9.04 15.182 9.04l5.03-4.353a31.273 31.273 0 0015.01-.425c7.595-2.303 12.201-7.505 17.656-6.141 0 0 1.201-19.722 4.9-25.585 2.222-3.553 3.414-12.022-.678-19.273 0 0 31.637-7.35 34.022-13.818 2.385-6.468 7.595-28.91 7.595-28.91s-7.987-2.556-9.522-5.373zm-73.997 89.578l-12.25-13.589 7.391-12.168s7.162 12.34 7.048 15.01c-.115 2.671-2.189 10.747-2.189 10.747z" fill="#1150BE"/><path d="M146.588 236.821l2.164-1.935-7.162-8.011 1.29-5.554 11.041 16.219a34.336 34.336 0 01-7.333-.719zm-9.89-35.703l2.899-4.949 1.83 13.752-4.729-8.803zm46.737-15.721l-1.796-4.01 18.023-.506s-12.217 3.748-16.227 4.516z" fill="#094080"/><path d="M141.557 241.174l7.195-6.288 5.431 5.349s16.504 5.88 17.435 5.88c.931 0-.294 1.282-.89 1.453-.596.172-9.596-.171-10.282 0-.686.172-8.101 1.707-9.293 1.152-1.193-.556-9.596-7.546-9.596-7.546zm74.03-103.878l2.899-7.586s.653-5.913 2.246-8.306c1.592-2.393 9.489-13.246 10.69-12.903 1.2.343-.686 3.414-1.307 4.377-.62.964-2.736 5.717-2.736 5.717a3.405 3.405 0 012.222-.139c.906.392.596 1.707.596 1.707.688.031 1.35.267 1.903.678.882.686 0 1.788 0 1.788s1.225-.253 1.633 1.478c.408 1.732-2.858 7.35-3.667 8.232-.808.882-2.05 1.495-3.364 4.737a26.488 26.488 0 00-1.634 5.626s-6.713-1.821-9.481-5.406z" fill="#FB9F80"/><path d="M221.81 121.748s4.948-2.785 5.398-2.613c.449.171.057 2.866-.817 3.495s-2.074 1.478-2.074 1.478 1.266 3.128.261 5.431c0 0 1.356-3.169.817-5.211 0 0 3.127-3.005 2.245-4.965-.596-1.396-5.83 2.385-5.83 2.385z" fill="#CF7A62"/><path d="M225.476 126.378s-.098 1.315.368 1.739c.465.425 1.911.343 1.911.343s.098 1.634 1.576 1.715c0 0-1.691 0-2.246-1.061 0 0-1.813-.131-1.96-1.086a2.453 2.453 0 01.351-1.65z" fill="#CF7A62"/><path d="M176.918 247.316h-27.954a1.21 1.21 0 00-1.209 1.209v.172c0 .667.541 1.208 1.209 1.208h27.954a1.21 1.21 0 001.209-1.208v-.172a1.21 1.21 0 00-1.209-1.209z" fill="#F35662"/><path d="M216.15 249.905h-38.832a1.849 1.849 0 01-1.785-1.398 1.847 1.847 0 01-.02-.807l6.485-32.258a1.841 1.841 0 011.804-1.478h39.673a1.838 1.838 0 011.446.692 1.848 1.848 0 01.359 1.562l-7.35 32.217c-.085.411-.308.78-.632 1.047a1.838 1.838 0 01-1.148.423z" fill="#F35662"/><path d="M200.772 228.443a4.366 4.366 0 00-1.102.147 2.53 2.53 0 01.817 3.217 2.6 2.6 0 01-3.577.735 3.847 3.847 0 003.903 2.94 3.536 3.536 0 100-7.015l-.041-.024z" fill="#201851"/><path d="M175.759 136.358s-1.707 17.15-4.688 23.455c-1.413 2.98-5.374 2.303-5.374 2.303s-.171 4.777 0 6.99c.172 2.213-2.049 8.297-7.594 7.007-5.546-1.29-8.167-7.946-8.167-7.946s1.633-14.92 1.633-16.709c0-1.788-4.344-9.212 1.707-16.545 6.052-7.334 22.564-3.838 22.483 1.445z" fill="#FB9F80"/><path d="M152.28 127.416s1.755-4.647-2.36-6.689c-4.116-2.041-13.884 1.127-16.178 10.004-2.295 8.877 7.578 9.057 10.951 8.281 3.373-.776 7.587-11.596 7.587-11.596z" fill="#403880"/><path d="M144.693 139.011c2.85-.653 6.296-8.477 7.301-10.894a17.58 17.58 0 01-11.94 3.977c-3.454-.09-4.981-1.633-5.578-3.454a13.818 13.818 0 00-.735 2.09c-2.27 8.869 7.579 9.057 10.952 8.281z" fill="#232059"/><path d="M153.072 127.669s-.939-.857-3.381.531c-2.442 1.388-6.19 8.117-5.316 10.208a4.09 4.09 0 003.013 2.385l5.684-13.124z" fill="#F35662"/><path d="M155.84 143.185s.817 2.384 1.323 2.303c.507-.082 1.201-3.267 1.201-3.267s8.656 2.132 10.526-.433c1.871-2.564 3.455-6.778 6.868-5.414l-.457 3.871s2.671-3.267 2.932-4.982a2.194 2.194 0 00-1.192-2.344s1.698-8.166-6.444-9.081c-8.142-.914-16.798 2.222-20.677 6.395-3.879 4.173-5.431 11.367-4.696 14.16.735 2.793 6.288 7.669 6.288 7.669l2.156-1.911s-3.414-1.96-2.344-5.758c1.07-3.797 4.516-1.208 4.516-1.208z" fill="#403880"/><path d="M153.668 150.11s1.462.735 2.507 0a3.135 3.135 0 01-3.511.891l1.004-.891zm12.054 12.006a23.73 23.73 0 01-9.097-4.378s3.781 5.627 8.983 7.587l.114-3.209z" fill="#CF7A62"/><path d="M145.706 138.342a13.54 13.54 0 00-.482 6.035c.727 2.768 6.288 7.668 6.288 7.668l2.156-1.911a5.351 5.351 0 01-2.548-4.393c-1.617-.694-5.283-2.769-5.414-7.399z" fill="#232059"/><path d="M429.875 352.549l.572 7.783s-1.209 11.58-.89 12.976c.269 1.184 12.731 1.323 17.386.539a2.006 2.006 0 001.634-1.984v-2.328c0-.365-.066-.728-.196-1.07l-3.471-9.293v-6.623h-15.035z" fill="#403882"/><path d="M444.91 359.172s-12.992-.572-13.442.604c-.449 1.176-1.02.555-1.02.555l-.572-7.782h15.034v6.623z" fill="#FDA181"/><path d="M448.609 369.536v2.327a2.006 2.006 0 01-1.633 1.984c-4.655.817-17.15.646-17.387-.539a12.129 12.129 0 010-2.156l1.634.311c0-4.328 2.294-5.921 7.586-7.007a11.047 11.047 0 018.983 2.221l.678 1.789c.111.345.158.707.139 1.07z" fill="#E1E7EF"/><path d="M354.123 371.83c.817-2.523 2.295-6.149 4.41-6.802 3.266-1.013 20.253-5.349 20.767-7.13 0 0 5.145 1.217 5.504 2.385.36 1.168 7.628.098 7.628.098v.114l1.013 12.25a1.458 1.458 0 01-.873 1.463 1.458 1.458 0 01-.589.121h-36.031a1.926 1.926 0 01-1.548-.785 1.931 1.931 0 01-.346-.823 1.935 1.935 0 01.065-.891z" fill="#403882"/><path d="M384.805 360.283c-.359-1.168-5.504-2.385-5.504-2.385.506-1.788.612-8.313.612-8.313l13.655 2.172-1.136 8.624s-7.276 1.078-7.627-.098z" fill="#FDA181"/><path d="M391.975 374.338h-36.023a1.914 1.914 0 01-1.552-.788 1.907 1.907 0 01-.277-1.719c.817-2.523 2.295-6.149 4.41-6.803.506-.155 1.331-.383 2.368-.677.4 2.221.654 7.684.654 7.684l31.792-.367.09 1.086a1.458 1.458 0 01-.873 1.462 1.456 1.456 0 01-.589.122z" fill="#E1E7EF"/><path d="M444.199 189.309s3.798 25.855 3.83 46.108c0 18.481 0 37.746-.106 43.871-.286 12.837-2.58 73.269-2.58 73.269h-15.517s-3.626-53.123-3.822-64.776c-.196-11.654 1.152-12.438-1.527-24.091-2.678-11.654-7.456-30.021-7.456-30.021s-12.797 36.929-12.609 41.87c.188 4.941 1.405 20.751-2.05 32.772-3.454 12.021-8.795 43.446-8.795 43.446s-9.636 1.584-13.654-2.172c0 0 2.891-72.894 3.65-82.572.76-9.677 11.76-80.53 11.76-80.53l48.876 2.826z" fill="#403882"/><path d="M417.071 233.661l-2.23-15.655s-10.208 48.476-10.175 55.704l12.405-40.049z" fill="#232059"/><path d="M349.893 74.864l-4.296-7.71s-1.633-6.271-3.699-8.599c-2.066-2.327-12.25-12.789-13.508-12.25-1.257.54 1.266 3.569 2.091 4.516.825.948 3.814 5.717 3.814 5.717a3.666 3.666 0 00-2.409.188c-.915.571-.376 1.927-.376 1.927a3.702 3.702 0 00-1.944 1.029c-.816.874.278 1.927.278 1.927s-1.356-.081-1.552 1.846c-.196 1.927 4.214 7.456 5.227 8.297 1.013.841 2.45 1.29 4.353 4.573a28.572 28.572 0 012.662 5.799s6.933-2.973 9.359-7.26z" fill="#FB9F80"/><path d="M340.787 59.095s-5.757-2.238-6.223-1.985c-.465.254.384 3.104 1.405 3.643 1.021.539 2.45 1.273 2.45 1.273s-.882 3.561.555 5.88c0 0-1.943-3.193-1.682-5.471 0 0-3.83-2.76-3.185-5.006.465-1.6 6.68 1.666 6.68 1.666z" fill="#CF7A62"/><path d="M337.553 64.647s.31 1.389-.123 1.928c-.432.539-2 .661-2 .661s.155 1.821-1.43 2.09c0 0 1.813-.277 2.246-1.494 0 0 1.936-.416 1.944-1.461a2.625 2.625 0 00-.637-1.724z" fill="#CF7A62"/><path d="M428.928 106.917s19.338 1.943 24.287 7.921c4.949 5.978 19.976 53.434 16.938 58.227-3.038 4.794-11.499 5.913-13.581 6.068-2.083.155-11.825-3.83-11.825-3.83l-.204 16.333s-15.46 5.586-30.551 3.03c-15.092-2.556-18.669-8.167-18.669-8.167l-3.618-57.982s-29.244-7.799-34.356-13.646c-5.112-5.847-17.093-33.483-17.093-33.483s6.068-7.489 9.906-6.705l17.411 26.836 44.581 6.533 16.774-1.135z" fill="#1150BE"/><path d="M444.747 175.303s-23.748-14.577-26.304-15.713c-2.557-1.135-12.144-5.218-12.144-5.218l-12.968.212.816 13.197s18.424.654 19.837-.204c1.412-.857 30.689 13.32 30.689 13.32l.074-5.594zm-1.038-37.15l3.675 19.257-5.667-1.764 1.992-17.493z" fill="#094080"/><path d="M408.749 143.577l-2.205-17.967a.963.963 0 00-.915-.816l-26.288-.817a.96.96 0 00-.741.321.96.96 0 00-.23.773l4.989 33.728a.963.963 0 00.312.577.964.964 0 00.611.24l24.965.416a.962.962 0 00.72-.305.937.937 0 00.205-.343.94.94 0 00.047-.397l-1.47-15.41z" fill="#201851"/><path d="M407.932 143.576l-2.188-17.811a1.096 1.096 0 00-1.054-.963l-25.994-.817a1.108 1.108 0 00-.854.366 1.093 1.093 0 00-.265.892l4.941 33.433a1.105 1.105 0 001.07.939l24.687.417a1.102 1.102 0 001.111-1.201l-1.454-15.255z" fill="#F35662"/><path d="M381.479 129.083c.467-.082.765-.599.668-1.154-.098-.555-.555-.939-1.022-.857-.466.082-.765.599-.667 1.154.097.555.555.939 1.021.857z" fill="#201851"/><path d="M418.443 159.591s.473-6.395 3.136-11.025l-4.68-1.437s-3.626-5.064-4.687-5.488c-1.062-.425-3.839-1.438-3.839-1.438l.376 3.357s-4.426-1.119-6.019-1.634c-1.592-.514-5.382-4.083-6.655-3.805a1.258 1.258 0 00-1.013 1.519l3.993 3.511s-5.659-3.691-6.664-3.683c-1.004.008-1.331 1.446-.898 1.634a8.773 8.773 0 011.633 1.494c-.098.3-.127.618-.085.931.043.312.156.611.33.874.613.751 3.7 5.904 8.012 7.938 4.312 2.033 17.06 7.252 17.06 7.252zm-16.914-84.712s2.875 26.606 5.913 27.325a20.47 20.47 0 005.03.637 28.935 28.935 0 01-.318 5.194c-.4 1.756 1.633 7.113 6.394 6.786 4.761-.326 10.38-7.905 10.38-7.905s-1.437-13.818-1.274-17.337c.163-3.52 4.712-18.53-7.35-20.294-12.062-1.764-18.775 5.594-18.775 5.594z" fill="#FB9F80"/><path d="M419.986 82.735s1.168 4.084 1.968 4.084 1.119-4.084 1.119-4.084 1.388-2.605 3.732-2.286c2.344.318 1.486 6.974-.858 6.917l1.707 2.213s4.631-17.15 4.418-18.35a5.362 5.362 0 00-1.633-2.45s.318-5.717-3.994-6.974c-4.311-1.258-23.593-1.92-25.316-2.075-1.723-.155-.482 2.981-.482 2.981s-3.266-.817-3.83.817c-.563 1.633-.163 9.538 3.144 11.882 0 0-.751.474-.481 2.499.269 2.025 2.98 4.369 2.98 4.369l-.743-5.488s9.555.817 12.634-1.544c0 0-1.348 2.981 1.854 3.267 0 .016.53 4.492 3.781 4.222z" fill="#403880"/><path d="M412.473 102.841s7.987-.817 10.281-3.7c0 0-4.254 6.289-10.306 6.068l.025-2.368z" fill="#CF7A62"/><path d="M399.479 77.942c.27 2.025 2.981 4.369 2.981 4.369l-.743-5.488h.098c-.131-.123-.588-.474-1.854-1.388 0 .008-.751.481-.482 2.507z" fill="#232059"/><defs><linearGradient id="paint0_linear_406_1950" x1="88.687" y1="187.486" x2="153.48" y2="59.958" gradientUnits="userSpaceOnUse"><stop stop-color="#F5995E"/><stop offset=".29" stop-color="#F9AB60"/><stop offset=".71" stop-color="#FDBF62"/><stop offset="1" stop-color="#FFC663"/></linearGradient><linearGradient id="paint1_linear_406_1950" x1="409.761" y1="190.175" x2="488.372" y2="49.245" gradientUnits="userSpaceOnUse"><stop offset=".2" stop-color="#F5995E"/><stop offset=".43" stop-color="#F9AB60"/><stop offset=".77" stop-color="#FDBF62"/><stop offset="1" stop-color="#FFC663"/></linearGradient><linearGradient id="paint2_linear_406_1950" x1="358.084" y1="373.235" x2="350.832" y2="347.437" gradientUnits="userSpaceOnUse"><stop stop-color="#F69E34"/><stop offset="1" stop-color="#FFC346"/></linearGradient><linearGradient id="paint3_linear_406_1950" x1="359.341" y1="374.1" x2="368.3" y2="355.554" gradientUnits="userSpaceOnUse"><stop stop-color="#FAB52C"/><stop offset="1" stop-color="#FFCD44"/></linearGradient><linearGradient id="paint4_linear_406_1950" x1="348.178" y1="375.318" x2="344.985" y2="363.378" gradientUnits="userSpaceOnUse"><stop stop-color="#FAB52C"/><stop offset="1" stop-color="#FFCD44"/></linearGradient><linearGradient id="paint5_linear_406_1950" x1="114.551" y1="350.524" x2="114.551" y2="273.596" gradientUnits="userSpaceOnUse"><stop stop-color="#232059"/><stop offset="1" stop-color="#AC69D9"/></linearGradient><linearGradient id="paint6_linear_406_1950" x1="125.282" y1="350.524" x2="125.282" y2="273.596" gradientUnits="userSpaceOnUse"><stop stop-color="#232059"/><stop offset="1" stop-color="#AC69D9"/></linearGradient><linearGradient id="paint7_linear_406_1950" x1="131.693" y1="313.824" x2="123.485" y2="342.447" gradientUnits="userSpaceOnUse"><stop stop-color="#FFF4B6"/><stop offset="1" stop-color="#D07E2C"/></linearGradient><linearGradient id="paint8_linear_406_1950" x1="140.128" y1="316.241" x2="131.921" y2="344.865" gradientUnits="userSpaceOnUse"><stop stop-color="#FFF4B6"/><stop offset="1" stop-color="#D07E2C"/></linearGradient><linearGradient id="paint9_linear_406_1950" x1="232.034" y1="134.356" x2="299.538" y2="177.099" gradientUnits="userSpaceOnUse"><stop stop-color="#F8A034"/><stop offset="1" stop-color="#FFC546"/></linearGradient><linearGradient id="paint10_linear_406_1950" x1="389.68" y1="-.579" x2="179.131" y2="110.567" gradientUnits="userSpaceOnUse"><stop offset=".05" stop-color="#FBD15B"/><stop offset="1" stop-color="#F9A45A"/></linearGradient><linearGradient id="paint11_linear_406_1950" x1="336.508" y1="56.644" x2="125.959" y2="167.782" gradientUnits="userSpaceOnUse"><stop offset=".05" stop-color="#FBD15B"/><stop offset="1" stop-color="#F9A45A"/></linearGradient></defs></svg>