<svg width="550" height="480" fill="none" xmlns="http://www.w3.org/2000/svg"><path d="M294.962 438.495s69.334-1.365 69.554 7.383c.22 8.748-71.698 9.619-87.298 10.214-15.6.596-77.239-1.905-87.499 3.664-10.26 5.57-103.108 5.396-94.827-3.664 8.28-9.059 59.001-1.301 73.163-5.34 14.162-4.04 87.325-12.889 126.907-12.257zm134.656-31.447s40.15 3.023 31.906 9.069c-8.245 6.045-48.165 7.071-65.039 8.619-16.873 1.549-104.912-.513-117.114 0-12.202.513-226.415 3.884-206.556-5.496 19.86-9.38 37.301-10.195 78.678-11.175 41.377-.98 278.125-1.017 278.125-1.017z" fill="#CCCBCB"/><path d="M432.779 405.417c1.172.523 43.566-53.706 29.386-57.261-14.18-3.554-15.032-9.087-7.676-18.952 7.355-9.866-6.202-11.707-12.825-7.063-6.623 4.644 7.099-16.699.303-19.127-6.797-2.427-12.825 6.413-11.588 19.09 1.236 12.678-9.161-2.171-11.277 4.883-2.116 7.053 12.761 22.03 3.115 22.14-9.646.11-16.489 1.53-10.635 15.784 5.853 14.253 21.197 40.506 21.197 40.506z" fill="url(#paint0_linear_406_2092)"/><path d="M450.202 356.409a.257.257 0 00-.348-.082 56.942 56.942 0 00-17.011 18.843c.046-9.16.211-19.237.595-28.608a61.445 61.445 0 0111.753-15.966.244.244 0 00.056-.082.244.244 0 00-.056-.275.263.263 0 00-.302 0 62.444 62.444 0 00-11.405 15.105c.568-12.989 1.576-24.339 3.316-29.313a.243.243 0 00-.006-.191.25.25 0 00-.14-.13.257.257 0 00-.095-.016.245.245 0 00-.169.08.238.238 0 00-.048.083c-1.346 3.875-2.263 11.533-2.867 20.812a28.4 28.4 0 00-9.389-6.412.253.253 0 00-.193.002.252.252 0 00-.139.326c.024.061.07.111.13.139a27.574 27.574 0 019.536 6.678 406.058 406.058 0 00-.467 9.041.508.508 0 000 .165c-.257 6.256-.412 12.824-.504 19.282-1.493-2.216-6.66-9.16-13.74-10.992a.256.256 0 00-.294.211.277.277 0 00.165.284c7.988 2.079 13.493 10.772 13.896 11.413-.045 3.179-.073 6.312-.091 9.326a.307.307 0 000 .128c-.073 16.021.183 28.882.192 29.194a.268.268 0 00.257.247.258.258 0 00.247-.256c0-.312-.266-13.182-.192-29.203a56.465 56.465 0 0117.285-19.466.237.237 0 00.119-.312.23.23 0 00-.091-.055z" fill="#231F20"/><path d="M429.508 409.182l-.567-.568c-.065.449.146.623.567.568z" fill="url(#paint1_linear_406_2092)"/><path d="M487.053 321.042c-4.223-15.142-18.32-6.632-24.192 6.412-1.777 3.939-4.232 11.322-7.118 20.07-6.687 20.254-15.682 47.863-23.954 57.124-1.832 2.006-2.665 3.288-2.812 3.957l.568.568a10.495 10.495 0 003.325-1.502c10.26-6.101 24.66-21.747 36.119-38.62 12.193-17.927 21.087-37.264 18.064-48.009z" fill="url(#paint2_linear_406_2092)"/><path fill-rule="evenodd" clip-rule="evenodd" d="M428.968 408.651c-.137.677.504.705 1.713.192 32.061-27.692 48.55-88.992 48.55-89.185a.637.637 0 00-.22-.667.626.626 0 00-.466-.13.621.621 0 00-.422.238.643.643 0 00-.111.22c-.046.202-16.763 62.382-49.044 89.332z" fill="#231F20"/><path d="M503.459 367.044c-7.722-2.326-21.38 3.17-34.653 11.322-14.519 8.923-28.571 21.023-33.893 29.552-2.043 3.279-1.741 4.396 2.345.916 10.553-9.033 50.482-18.596 60.779-22.993a24.054 24.054 0 003.471-1.832c8.19-5.056 12.321-13.85 1.951-16.965z" fill="#598AC7"/><path fill-rule="evenodd" clip-rule="evenodd" d="M434.089 410.941c-.531.101-.541-.403-.119-1.337 22.149-24.55 70.287-36.403 70.433-36.449a.498.498 0 01.524.189.497.497 0 01.081.178.491.491 0 01-.053.372.49.49 0 01-.304.223c-.147.037-48.935 12.064-70.562 36.824z" fill="#231F20"/><path d="M81.527 338.409c21.068-1.31 45.224-25.127 38.83-39.783-6.394-14.657-7.85-24.431-1.383-34.36 5.872-9.005-16.049-47.176-7.731-61.796-3.106-2.94-7.402-4.58-11.377-3.233-5.03 1.713-7.53 7.264-9.16 12.348a117.97 117.97 0 00-3.921 17.148c-.852 5.542-1.448 11.496-5.03 15.801-3.892 4.718-10.561 6.33-14.885 10.654a16.324 16.324 0 00-4.58 14.052c.751 4.461 3.316 8.354 5.148 12.485 1.832 4.131 2.895 9.115.641 13.026-1.978 3.454-5.981 5.157-8.757 8.015-3.536 3.664-4.855 9.078-4.223 14.126.632 5.047 3.032 9.719 6.064 13.804a47.758 47.758 0 005.258 5.954 42.507 42.507 0 0015.106 1.759z" fill="url(#paint3_linear_406_2092)"/><path d="M102.22 359.715c4.479-9.682 20.629-16.415 26.885-21.755 6.587-5.643 12.623-13.21 13.887-22.04 1.411-9.893-3.993-15.179-8.546-22.947-7.53-12.87 7.704-25.493 2.537-38.409-2.656-6.65-10.479-9.627-14.656-15.426-3.371-4.644-4.122-10.635-4.58-16.351-.458-5.716-.816-11.661-3.591-16.672a15.435 15.435 0 00-2.867-3.664c-8.318 14.657 13.603 52.791 7.731 61.796-6.467 9.929-5.011 19.667 1.383 34.36 6.394 14.693-17.807 38.492-38.876 39.792a42.507 42.507 0 01-15.06-1.759 47.647 47.647 0 0010.077 7.375c8.876 4.882 19.932 7.319 25.676 15.7z" fill="#1251C3"/><path d="M123.572 304.296l-.421-.394-20.647 22.498v-54.596l13.465-17.056-.449-.357-13.016 16.497v-54.98h-.568v28.837l-9.17-13.338-.467.321 9.637 14.024v44.098l-24.34-24.549-.402.403 24.742 24.961v52.691l-31.31-31.191-.403.403 31.713 31.594v57.618h.568v-74.537l21.068-22.947z" fill="#231F20"/><path d="M439.96 383.47h-29.413a3.802 3.802 0 00-3.802 3.801v22.727a3.802 3.802 0 003.802 3.801h29.413c2.1 0 3.802-1.702 3.802-3.801v-22.727a3.802 3.802 0 00-3.802-3.801z" fill="url(#paint4_linear_406_2092)"/><path d="M407.13 383.727h-71.285a4.205 4.205 0 00-4.205 4.204v25.521a4.205 4.205 0 004.205 4.204h71.285a4.205 4.205 0 004.205-4.204v-25.521a4.205 4.205 0 00-4.205-4.204z" fill="url(#paint5_linear_406_2092)"/><path d="M196.947 374.585h-77.221a3.844 3.844 0 00-1.649.385l-22.736 11.203 101.606-.916v-10.672z" fill="#C6583E"/><path d="M190.754 385.274h-91.95a6.184 6.184 0 00-6.184 6.184v21.563a6.183 6.183 0 006.183 6.183h91.951a6.184 6.184 0 006.184-6.183v-21.563a6.184 6.184 0 00-6.184-6.184z" fill="url(#paint6_linear_406_2092)"/><path d="M430.681 352.875h-93.71a5.331 5.331 0 00-5.331 5.331v20.364a5.331 5.331 0 005.331 5.331h93.71a5.332 5.332 0 005.332-5.331v-20.364a5.332 5.332 0 00-5.332-5.331z" fill="url(#paint7_linear_406_2092)"/><path d="M409.787 284.145H331.64v8.4l102.101.302-23.954-8.702z" fill="url(#paint8_linear_406_2092)"/><path d="M432.935 292.545h-98.217a3.078 3.078 0 00-3.078 3.078v25.896c0 1.7 1.378 3.078 3.078 3.078h98.217c1.7 0 3.078-1.378 3.078-3.078v-25.896c0-1.7-1.378-3.078-3.078-3.078z" fill="#2E89FF"/><path d="M422.574 324.523h-88.809a2.126 2.126 0 00-2.125 2.126v24.1c0 1.174.952 2.126 2.125 2.126h88.809a2.126 2.126 0 002.126-2.126v-24.1a2.126 2.126 0 00-2.126-2.126z" fill="#413B8A"/><path d="M321.729 99.206H206.703l-12.999 8.73 142.791.073-11.679-7.859a5.495 5.495 0 00-3.087-.944z" fill="#CB8B3C"/><path d="M333.463 106.892h-136.81a5.377 5.377 0 00-5.377 5.377v27.261a5.378 5.378 0 005.377 5.377h136.81a5.378 5.378 0 005.377-5.377v-27.261a5.377 5.377 0 00-5.377-5.377z" fill="#FFB953"/><path d="M333.774 140.299c.653 0 1.182-.504 1.182-1.126 0-.623-.529-1.127-1.182-1.127-.652 0-1.181.504-1.181 1.127 0 .622.529 1.126 1.181 1.126zm-.394-26.775c.653 0 1.182-.505 1.182-1.127s-.529-1.126-1.182-1.126c-.652 0-1.181.504-1.181 1.126 0 .622.529 1.127 1.181 1.127zm-136.03 27.014c.653 0 1.182-.505 1.182-1.127s-.529-1.127-1.182-1.127c-.652 0-1.182.505-1.182 1.127s.53 1.127 1.182 1.127zm-.394-26.777c.653 0 1.182-.504 1.182-1.126 0-.623-.529-1.127-1.182-1.127-.653 0-1.182.504-1.182 1.127 0 .622.529 1.126 1.182 1.126z" fill="#DDD"/><path d="M332.95 325.146H201.124a7.868 7.868 0 00-7.869 7.868v25.209a7.869 7.869 0 007.869 7.869H332.95a7.869 7.869 0 007.869-7.869v-25.209a7.868 7.868 0 00-7.869-7.868z" fill="url(#paint9_linear_406_2092)"/><path d="M325.393 313.933H208.681l-13.273 13.218 139.338-2.006-9.353-11.212z" fill="url(#paint10_linear_406_2092)"/><path d="M198.815 332.19a1.182 1.182 0 100-2.365 1.182 1.182 0 000 2.365zm0 29.331a1.182 1.182 0 100-2.363 1.182 1.182 0 000 2.363zm135.93-29.386a1.182 1.182 0 100-2.363 1.182 1.182 0 000 2.363zm0 29.33a1.182 1.182 0 100-2.363 1.182 1.182 0 000 2.363z" fill="#DDD"/><path d="M324.953 171.7H208.242l-12.99 8.638h142.691l-12.99-8.638z" fill="url(#paint11_linear_406_2092)"/><path d="M335.313 179.396H197.881a5.065 5.065 0 00-5.066 5.065v27.334a5.066 5.066 0 005.066 5.066h137.432a5.066 5.066 0 005.066-5.066v-27.334a5.065 5.065 0 00-5.066-5.065z" fill="url(#paint12_linear_406_2092)"/><path d="M198.825 185.093c.652 0 1.181-.513 1.181-1.145 0-.633-.529-1.145-1.181-1.145-.653 0-1.182.512-1.182 1.145 0 .632.529 1.145 1.182 1.145zm0 28.397c.652 0 1.181-.512 1.181-1.145 0-.632-.529-1.145-1.181-1.145-.653 0-1.182.513-1.182 1.145 0 .633.529 1.145 1.182 1.145zm135.939-28.443c.652 0 1.181-.513 1.181-1.145 0-.633-.529-1.145-1.181-1.145-.653 0-1.182.512-1.182 1.145 0 .632.529 1.145 1.182 1.145zm0 28.397c.652 0 1.181-.512 1.181-1.145 0-.632-.529-1.145-1.181-1.145-.653 0-1.182.513-1.182 1.145 0 .633.529 1.145 1.182 1.145z" fill="#DDD"/><path d="M332.51 407.047H200.684a7.869 7.869 0 00-7.869 7.869v25.209a7.868 7.868 0 007.869 7.868H332.51a7.868 7.868 0 007.869-7.868v-25.209a7.869 7.869 0 00-7.869-7.869z" fill="url(#paint13_linear_406_2092)"/><path d="M324.953 395.835H208.242l-9.096 11.212h135.16l-9.353-11.212z" fill="#D17E2C"/><path d="M198.376 414.092a1.182 1.182 0 10-.001-2.363 1.182 1.182 0 00.001 2.363zm0 29.331a1.182 1.182 0 10-.001-2.363 1.182 1.182 0 00.001 2.363zm135.93-29.386a1.181 1.181 0 100-2.363 1.181 1.181 0 000 2.363zm0 29.331a1.181 1.181 0 100-2.363 1.181 1.181 0 000 2.363z" fill="#DDD"/><path d="M324.953 243.325H208.241l-13.63 9.39h143.981l-13.639-9.39z" fill="#232059"/><path d="M334.544 251.011H198.651a5.835 5.835 0 00-5.836 5.835v25.887a5.835 5.835 0 005.836 5.835h135.893a5.835 5.835 0 005.835-5.835v-25.887a5.835 5.835 0 00-5.835-5.835z" fill="#373075"/><path d="M199.072 256.846c.653 0 1.182-.513 1.182-1.145 0-.633-.529-1.145-1.182-1.145-.652 0-1.181.512-1.181 1.145 0 .632.529 1.145 1.181 1.145zm0 28.396c.653 0 1.182-.512 1.182-1.145 0-.632-.529-1.145-1.182-1.145-.652 0-1.181.513-1.181 1.145 0 .633.529 1.145 1.181 1.145zm135.93-28.451c.653 0 1.182-.513 1.182-1.145s-.529-1.145-1.182-1.145c-.653 0-1.182.513-1.182 1.145s.529 1.145 1.182 1.145zm0 28.397c.653 0 1.182-.513 1.182-1.145 0-.633-.529-1.146-1.182-1.146-.653 0-1.182.513-1.182 1.146 0 .632.529 1.145 1.182 1.145z" fill="#DDD"/><path d="M302.51 178.288l-9.041-5.616a5.649 5.649 0 01-2.684-4.965v-22.9h16.278l-4.553 33.481z" fill="#D17E2C"/><path d="M345.829 144.77h-40.406a5.853 5.853 0 00-5.853 5.853v22.919a5.853 5.853 0 005.853 5.853h40.406a5.853 5.853 0 005.854-5.853v-22.919a5.853 5.853 0 00-5.854-5.853z" fill="url(#paint14_linear_406_2092)"/><path d="M347.89 177.215c.653 0 1.182-.504 1.182-1.126 0-.623-.529-1.127-1.182-1.127-.652 0-1.182.504-1.182 1.127 0 .622.53 1.126 1.182 1.126zm-.394-26.776c.653 0 1.182-.504 1.182-1.127 0-.622-.529-1.126-1.182-1.126-.652 0-1.182.504-1.182 1.126 0 .623.53 1.127 1.182 1.127zm-41.477 27.015c.652 0 1.181-.505 1.181-1.127s-.529-1.127-1.181-1.127c-.653 0-1.182.505-1.182 1.127s.529 1.127 1.182 1.127zm-.394-26.776c.652 0 1.181-.504 1.181-1.126 0-.623-.529-1.127-1.181-1.127-.653 0-1.182.504-1.182 1.127 0 .622.529 1.126 1.182 1.126z" fill="#DDD"/><path d="M199.127 324.367l11.13-6.092a4.805 4.805 0 002.519-4.241v-25.557h-17.002l3.353 35.89z" fill="#094082"/><path d="M197.093 288.477h-37.96a4.14 4.14 0 00-4.14 4.14v28.534a4.14 4.14 0 004.14 4.141h37.96a4.141 4.141 0 004.141-4.141v-28.534a4.14 4.14 0 00-4.141-4.14z" fill="url(#paint15_linear_406_2092)"/><path d="M196.681 322.497a1.182 1.182 0 100-2.363 1.182 1.182 0 000 2.363zm-.394-28.085a1.182 1.182 0 100-2.363 1.182 1.182 0 000 2.363zm-36.595 27.82a1.182 1.182 0 100-2.365 1.182 1.182 0 000 2.365zm-.394-28.085a1.182 1.182 0 100-2.363 1.182 1.182 0 000 2.363z" fill="#DDD"/><path d="M271.695 405.664l-10.214-8.528a4.36 4.36 0 01-1.346-1.556 4.356 4.356 0 01-.486-1.998v-27.481h19.319l-7.273 39.563z" fill="#1E4380"/><path d="M336.935 366.091h-61.1a6.531 6.531 0 00-6.531 6.531v27.884a6.531 6.531 0 006.531 6.531h61.1a6.531 6.531 0 006.531-6.531v-27.884a6.531 6.531 0 00-6.531-6.531z" fill="url(#paint16_linear_406_2092)"/><path d="M337.594 401.542a1.182 1.182 0 10-.001-2.363 1.182 1.182 0 00.001 2.363zm-.394-28.086a1.182 1.182 0 100-2.363 1.182 1.182 0 000 2.363zm-60.632 28.343a1.182 1.182 0 100-2.363 1.182 1.182 0 000 2.363zm-.394-28.086a1.182 1.182 0 100-2.363 1.182 1.182 0 000 2.363z" fill="#DDD"/><path d="M242.483 405.664l12.174-8.867a3.167 3.167 0 001.319-2.593v-28.076h-17.194l3.701 39.536z" fill="#201851"/><path d="M239.139 366.101h-44.125a5.285 5.285 0 00-5.285 5.285v30.376a5.285 5.285 0 005.285 5.285h44.125a5.286 5.286 0 005.286-5.285v-30.376a5.286 5.286 0 00-5.286-5.285z" fill="#413B8A"/><path d="M238.205 401.67a1.182 1.182 0 10-.001-2.363 1.182 1.182 0 00.001 2.363zm-.394-28.085a1.182 1.182 0 100-2.363 1.182 1.182 0 000 2.363zm-41.469 28.332a1.182 1.182 0 100-2.363 1.182 1.182 0 000 2.363zm-.394-28.085a1.182 1.182 0 100-2.363 1.182 1.182 0 000 2.363z" fill="#DDD"/><path d="M290.125 323.991l-9.691-5.35a6.19 6.19 0 01-3.206-5.432v-24.732h16.58l-3.683 35.514z" fill="#D17E2C"/><path d="M338.263 288.477h-46.314a3.178 3.178 0 00-3.179 3.178v30.458a3.179 3.179 0 003.179 3.179h46.314a3.179 3.179 0 003.179-3.179v-30.458a3.178 3.178 0 00-3.179-3.178z" fill="url(#paint17_linear_406_2092)"/><path d="M336.174 321.984a1.182 1.182 0 100-2.363 1.182 1.182 0 000 2.363zm-.394-28.085a1.182 1.182 0 100-2.363 1.182 1.182 0 000 2.363zm-41.468 28.333a1.182 1.182 0 10-.002-2.364 1.182 1.182 0 00.002 2.364zm-.394-28.085a1.182 1.182 0 100-2.363 1.182 1.182 0 000 2.363z" fill="#DDD"/><path d="M290.538 250.452l-8.015-5.753a6.074 6.074 0 01-2.584-5.102v-22.974H296.3l-5.762 33.829z" fill="#C6583E"/><path d="M337.613 216.623h-46.077a2.767 2.767 0 00-2.766 2.766v29.094a2.767 2.767 0 002.766 2.766h46.077a2.766 2.766 0 002.766-2.766v-29.094a2.766 2.766 0 00-2.766-2.766z" fill="url(#paint18_linear_406_2092)"/><path d="M336.22 248.482c.652 0 1.181-.504 1.181-1.127 0-.622-.529-1.126-1.181-1.126-.653 0-1.182.504-1.182 1.126 0 .623.529 1.127 1.182 1.127zm-.394-26.775c.653 0 1.182-.505 1.182-1.127s-.529-1.127-1.182-1.127c-.652 0-1.181.505-1.181 1.127s.529 1.127 1.181 1.127zm-41.469 27.013c.653 0 1.182-.504 1.182-1.126 0-.623-.529-1.127-1.182-1.127-.652 0-1.181.504-1.181 1.127 0 .622.529 1.126 1.181 1.126zm-.394-26.775c.653 0 1.182-.505 1.182-1.127s-.529-1.127-1.182-1.127c-.652 0-1.181.505-1.181 1.127s.529 1.127 1.181 1.127z" fill="#DDD"/><path d="M264.623 249.692s7.512-7.283 7.512-10.287v-22.782h-14.84l7.328 33.069z" fill="#D17E2C"/><path d="M262.287 216.623H196.36a3.545 3.545 0 00-3.545 3.545v27.536a3.545 3.545 0 003.545 3.545h65.927a3.545 3.545 0 003.545-3.545v-27.536a3.545 3.545 0 00-3.545-3.545z" fill="url(#paint19_linear_406_2092)"/><path d="M260.602 247.786c.652 0 1.181-.492 1.181-1.099s-.529-1.099-1.181-1.099c-.653 0-1.182.492-1.182 1.099s.529 1.099 1.182 1.099zm-.394-26.207c.652 0 1.181-.492 1.181-1.099s-.529-1.099-1.181-1.099c-.653 0-1.182.492-1.182 1.099s.529 1.099 1.182 1.099zm-62.318 26.436c.653 0 1.182-.492 1.182-1.099s-.529-1.1-1.182-1.1c-.652 0-1.182.493-1.182 1.1 0 .607.53 1.099 1.182 1.099zm-.394-26.198c.653 0 1.182-.493 1.182-1.1 0-.607-.529-1.099-1.182-1.099-.652 0-1.182.492-1.182 1.099s.53 1.1 1.182 1.1z" fill="#DDD"/><path d="M263.615 178.168l9.564-5.752a4.406 4.406 0 002.125-3.848v-23.835h-15.426l3.737 33.435z" fill="#1E194F"/><path d="M260.904 144.77h-67.026a4.148 4.148 0 00-4.149 4.149v26.327a4.148 4.148 0 004.149 4.149h67.026a4.15 4.15 0 004.15-4.149v-26.327a4.15 4.15 0 00-4.15-4.149z" fill="#373075"/><path d="M260.08 176.473c.652 0 1.181-.504 1.181-1.127 0-.622-.529-1.126-1.181-1.126-.653 0-1.182.504-1.182 1.126 0 .623.529 1.127 1.182 1.127zm-.394-26.766c.652 0 1.181-.505 1.181-1.127s-.529-1.127-1.181-1.127c-.653 0-1.182.505-1.182 1.127s.529 1.127 1.182 1.127zm-64.699 27.013c.652 0 1.182-.504 1.182-1.126 0-.623-.53-1.127-1.182-1.127-.653 0-1.182.504-1.182 1.127 0 .622.529 1.126 1.182 1.126zm-.394-26.775c.652 0 1.182-.505 1.182-1.127s-.53-1.127-1.182-1.127c-.653 0-1.182.505-1.182 1.127s.529 1.127 1.182 1.127z" fill="#DDD"/><path opacity=".17" d="M140.886 291.563a24.729 24.729 0 001.676 16.223c3.985 8.355 12.467 11.442 12.467 11.442s.641 8.244-1.832 11.056a22.143 22.143 0 01-4.241-4.58c-2.501-3.518-10.992-9.307-11.661-16.763-.669-7.457 3.591-17.378 3.591-17.378z" fill="#303030"/><path d="M155.103 270.642s.916 4.864.339 6.238c-.403 1.044-2.446 2.546-3.408 3.215 2.437 2.4 6.229 5.954 6.193 4.745-.055-1.768 3.041-7.383 3.041-7.383s-3.957-2.18-4.819-4.012a145.415 145.415 0 00-1.346-2.803z" fill="#CF7961"/><path d="M170.712 256.827s-7.557.174-10.828.687c-3.27.513-5.148 6.651-5.148 6.651s-1.264-2.694-3.38-.174c-2.116 2.519 2.235 4.653 2.235 4.653.513 2.748-3.554 9.444-3.554 9.444s.843.87 1.997 2.006c.916-.668 3.005-2.171 3.408-3.215.54-1.374-.339-6.238-.339-6.238s.485.971 1.346 2.803c.861 1.832 4.901 4.223 4.901 4.223s3.06 1.566 5.588 1.246c2.528-.321 3.078-1.631 3.078-1.631 3.371-5.047.696-20.455.696-20.455z" fill="#F79F81"/><path d="M159.884 257.515c3.27-.513 10.828-.687 10.828-.687-19.778-5.268-15.976 7.328-15.976 7.328s1.905-6.119 5.148-6.641z" fill="#CF7961"/><path d="M150.23 257.817c1.465-1.072 1.758-.916 3.664-.559 1.905.357 3.517-1.759 4.937-.431 1.42 1.329 4.947 2.922 7.695 2.455 2.748-.467 3.865.916 5.771-1.713a5.105 5.105 0 000-.742s3.893-2.116 1.603-5.578a1.665 1.665 0 01-1.603 0c-1.026-.431-3.49-4.388-9.454-3.756-5.963.632-9.105 3.27-9.105 3.27s-2.922-1.035-3.664 1.429c-.477 1.576-2.565 2.538-3.664 3.664.086.496.27.969.54 1.393.907 1.346 1.814 1.649 3.28.568z" fill="#403982"/><path d="M145.741 258.091c1.145 2.464.339 6.018 2.116 6.76 1.777.742.613 6.696 5.093 7.329a8.388 8.388 0 00.705-3.811s-3.243-1.246-2.748-3.307c.495-2.061 2.748-2.748 3.847-.916l.257 1.374s2.748-2.556 2.143-4.397a2.526 2.526 0 011.09-2.84s2.465 3.087 5.497 1.548c0 0 8.244 2.465 8.555-2.28-1.905 2.629-3.023 1.236-5.771 1.712-2.748.477-6.274-1.117-7.694-2.454-1.42-1.338-3.051.824-4.938.43-1.887-.394-2.189-.513-3.664.559s-2.363.778-3.352-.559a3.789 3.789 0 01-.541-1.392 1.832 1.832 0 00-.595 2.244z" fill="#1F1A4E"/><path d="M200.144 316.296c1.209-1.081 2.153-.605 2.876-2.886.292-.916.651-1.81 1.072-2.674-.485-.175-2.492 1.236-2.858 1.291a29.934 29.934 0 01-2.968-.375c.98-.403 1.75-2.236 2.034-2.749.284-.513-.541-2.207-.797-2.015-.257.193-2.18 2.391-2.922 3.051-.742.659-5.497.256-5.497.256-.732 0-.916 1.695-.998 3.215a28.294 28.294 0 004.342 1.594c2.153.513 4.516 2.364 5.716 1.292z" fill="#F79F81"/><path d="M190.132 315.865s2.986 1.118 4.415 1.603a46.175 46.175 0 006.687 1.264c.394-.064 2.748-2.922 3.28-3.929.531-1.008-.055-3.582-.339-4.013a.14.14 0 00-.083-.055c-.421.865-.78 1.759-1.072 2.675-.723 2.281-1.667 1.832-2.876 2.886-1.209 1.053-3.563-.779-5.716-1.292a28.333 28.333 0 01-4.342-1.594 27.896 27.896 0 00.046 2.455z" fill="#CF7961"/><path d="M121.521 436.076s-2.107 7.521-2.876 7.777c-.77.257 8.161 3.399 8.161 3.399s2.025-7.145 2.749-8.941c.723-1.795-8.034-2.235-8.034-2.235zm33.509 10.507l-.422-9.518-5.633 1.429a41.054 41.054 0 012.464 1.136l-1.045 7.942c1.668.129 3.619-.073 4.636-.989z" fill="#F79F81"/><path d="M148.974 438.494l-2.537.66s.751 6.934.559 7.52c-.101.303 1.52.779 3.398.916l1.045-7.942s-1.054-.54-2.465-1.154z" fill="#CF7961"/><path d="M146.931 452.308s-2.079 1.933-2.262 3.28c-.183 1.346-.761 3.087.916 4.049 1.676.962 6.238 1.74 8.125.778 1.887-.961 1.704-3.087 2.84-1.932 1.136 1.154.375 2.509 2.271 2.509 1.897 0 13.42 1.347 15.875-.577 2.455-1.923 1.365-5.23.605-6-.761-.769-13.649-1.136-13.649-1.136l-7.557-2.509-7.164 1.538z" fill="#fff"/><path d="M174.119 453.334c-1.548 0-5.404.578-9.261-1.932-3.856-2.51-6.852-6.623-9.939-7.21l-4.149.55s-.815.733 0 3.664-3.023 4.754 1.96 4.928c4.983.174 5.496 1.677 6.87 2.749.916.668 5.332 1.832 8.464 2.592 1.952.073 3.784.091 5.084 0 4.049-.138 2.51-5.341.971-5.341z" fill="#373175"/><path d="M152.73 453.379c-4.983-.174-1.145-1.951-1.96-4.928s0-3.664 0-3.664l-3.774.495a24.816 24.816 0 00-1.612 6.549 47.506 47.506 0 000 5.597s6.174 1.539 8.097.577c1.924-.961 1.548-2.125 2.51-2.125.962 0 .193 1.741 2.126 2.125a95.1 95.1 0 009.948.742c-3.133-.76-7.585-1.923-8.465-2.592-1.374-1.099-1.887-2.611-6.87-2.776z" fill="#1E194F"/><path d="M115.054 445.896s-2.125 2.5-3.28 4.048c-1.154 1.548 3.472 4.58 5.203 5.011a9.743 9.743 0 003.088.192 3.4 3.4 0 001.548 2.748c1.539.916 15.105 5.396 17.606 4.819 2.5-.577 1.539-4.223 1.539-4.223l-8.959-4.883-6.559-5.212-10.186-2.5z" fill="#fff"/><path d="M131.799 453.609c-1.942-1.978-4.58-3.444-7.704-4.983-1.64-.815-1.337-2.748-.678-4.305a10.824 10.824 0 01-3.417-3.527s-4.369 1.292-5.139 3.6c-.769 2.308-2.317 3.856-1.291 5.405.5.797 1.18 1.468 1.984 1.958a6.074 6.074 0 002.651.863c1.832 0 2.565-3.078 3.847-.77 1.283 2.309-.513 3.087 1.548 4.37 2.061 1.282 8.245 3.856 11.826 4.113 3.582.256 4.626.779 5.139 0 .111-.179.182-.378.211-.586-.879-1.457-7.145-4.26-8.977-6.138z" fill="#373175"/><path d="M139.347 456.732c-1.548-.513-6.687-3.856-8.244-7.447a23.221 23.221 0 00-3.343-5.661 3.172 3.172 0 01-3.6 1.026 3.99 3.99 0 01-.733-.33c-.66 1.603-.916 3.49.678 4.306 3.114 1.538 5.761 3.004 7.703 4.983 1.942 1.978 8.071 4.681 9.014 6.137.138-.998-.229-2.592-1.475-3.014z" fill="#1E194F"/><path d="M158.364 378.321c0-7.2-7.2-39.847-9.005-43.97-1.805-4.122-26.986-5.661-26.986-5.661a42.706 42.706 0 00-4.113 21.344c1.026 11.569 16.186 37.74 16.699 39.279.513 1.539-2.922 8.08-3.435 10.141-.513 2.061-11.212 36.952-10.443 38.244a12.692 12.692 0 007.713 3.078s13.127-23.973 14.418-28.397c0 0 9.051-18.531 8.336-24.366-.714-5.836-5.184-36.211-6.1-38.959a75.354 75.354 0 01-1.833-7.906s8.712 22.901 9.628 26.126c.916 3.224 3.563 32.876 1.832 38.262-1.731 5.386-3.664 20.153-2.931 23.377.586 2.748-.651 10.764-1.035 13.136a8.482 8.482 0 003.966-1.346s1.026-25.933 2.565-39.042c1.539-13.108.724-16.131.724-23.34z" fill="#3258A7"/><path d="M152.062 428.977c-.687-3.216 1.145-17.991 2.931-23.377 1.786-5.387-.916-35.057-1.832-38.263-.916-3.206-9.582-26.125-9.582-26.125a75.584 75.584 0 001.832 7.905c.916 2.748 5.377 33.115 6.101 38.959.724 5.844-8.336 24.366-8.336 24.366l3.069 29.13c1.531.505 3.146.704 4.754.586.449-2.418 1.686-10.461 1.063-13.181z" fill="#1E4380"/><path d="M191.68 309.765s-14.95-3.298-19.759-5.276a83.63 83.63 0 00-11.808-3.399c-2.189-1.071 1.512-14.079 1.576-15.517.064-1.438-4.635-4.388-4.635-4.388l-.403-.54c-4.443-3.738-7.558-2.895-11.093-2.748-3.536.146-8.465 5.825-10.672 9.792-2.208 3.966-17.222 43.053-18.248 48.174-.467 2.354.367 3.463 3.857 5.056 1.282-2.281 2.986-4.726 4.855-5.853 3.948-2.409 14.427-12.724 9.105-18.531-5.322-5.808 6.962-28.846 6.962-28.846s.77 3.985.339 5.872 3.096 11.771 4.983 14.006c1.887 2.235 8.08 4.726 8.08 4.726l4.094 1.549c4.104 1.548 31.567 2.693 31.567 2.693 1.456-.687 1.2-6.77 1.2-6.77z" fill="#FFC861"/><path d="M146.739 307.503c-1.887-2.235-5.413-12.119-4.983-14.006.431-1.887-.339-5.872-.339-5.872s-12.293 23.038-6.962 28.846c5.332 5.807-5.157 16.122-9.105 18.531-1.832 1.127-3.572 3.573-4.855 5.854a50.317 50.317 0 0013.383 3.572c6.706.779 17.744-2.18 20.153-2.895 2.409-.714 1.887-18.045.769-20.482-1.117-2.437 0-8.821 0-8.821s-6.164-2.465-8.061-4.727z" fill="#D17E2C"/><path d="M365.386 271.987c1.045-1.254 2.803-1.163 4.269-.769l.577 7.173a43.254 43.254 0 01-4.58-.55l-.266-5.854zm32.327-.027l.523 7.786a16.202 16.202 0 01-2.877-.375l-.742-5.139c.083-1.759 1.521-2.254 3.096-2.272z" fill="#FDA181"/><path d="M372.192 272.254l-.458 5.917c-.155.193-.76.248-1.529.22l-.578-7.172c.892.245 1.753.592 2.565 1.035zm29.469.347v6.339a5.31 5.31 0 01-3.426.806l-.522-7.786a14.34 14.34 0 013.948.641z" fill="#D17A62"/><path d="M395.286 278.849a9.424 9.424 0 002.903.256s.568 2.675 2.052 3.518c1.484.842 3.747 3.664 3.527 6.476a10.069 10.069 0 01-5.496 1.191c-4.333-.11-4.58-.999-4.58-.999-.385-2.858 1.594-10.442 1.594-10.442z" fill="#373075"/><path d="M400.241 282.623c-1.484-.843-2.042-3.509-2.052-3.518 1.713 0 3.472-.165 3.472-.165a24.437 24.437 0 013.087 9.042c0 .265-.311.696-.98 1.117.202-2.785-2.153-5.679-3.527-6.476z" fill="#232059"/><path d="M401.469 283.686s-3.848-.962-5.038.11m5.23.924s-3.591-.54-4.993.705m-.026 1.063s3.728-1.346 4.992-.348" stroke="#E6E7E8" stroke-width=".48" stroke-miterlimit="10" stroke-linecap="round"/><path d="M370.205 282.824c-1.136 1.393-2.62 3.491-4.846 4.581-2.226 1.09-11.139 2.335-11.139 2.335-.257-.137 0-1.593 0-1.593.174-2.666 7.2-4.718 8.556-5.588 1.355-.87 2.867-4.681 2.867-4.681 1.513.248 3.048.337 4.58.266 0 0 1.118 3.279-.018 4.68z" fill="#373075"/><path d="M372.651 281.221c.742 1.658.476 5.239 0 6.815-.477 1.575-6.293 1.401-8.299 1.64a93.564 93.564 0 01-10.132 0s8.904-1.292 11.139-2.336c2.235-1.045 3.664-3.151 4.846-4.58 1.182-1.429 0-4.718 0-4.718a5.277 5.277 0 001.566-.266 12.44 12.44 0 00.88 3.445z" fill="#232059"/><path d="M365.964 283.768a4.223 4.223 0 00-2.877-1.494m1.438 2.446s-.613-1.2-3.252-1.493m1.136 2.199s-.091-1.044-2.904-1.447" stroke="#E6E7E8" stroke-width=".48" stroke-miterlimit="10" stroke-linecap="round"/><path d="M397.182 162.292c2.043 6.413 1.282 38.868.265 46.626-1.016 7.759 3.078 20.758 4.214 27.261 1.136 6.504 0 36.422 0 36.422-.494 1.383-2.217 1.832-3.838 1.832 0 0-1.282-26.886-.641-41.432.641-14.547-5.093-8.125-4.699-16.773.393-8.647-3.408-30.394-5.771-36.815-2.364-6.421-14.153-4.846-18.999-5.734-4.846-.889-8.849-7.787-8.849-7.787s14.968-6.531 23.231-10.012c8.262-3.481 13.044.019 15.087 6.412z" fill="#094082"/><path d="M367.713 173.707c4.846.916 16.645-.687 18.999 5.734 2.354 6.421 6.156 28.168 5.771 36.815-.385 8.648 5.34 2.226 4.699 16.773-.641 14.546.641 41.432.641 41.432a16.402 16.402 0 01-3.206-.229s-7.447-38.876-8.473-42.815c-1.026-3.939-7.017-35.249-7.017-35.249s.44-7.86-1.566-9.875c-2.006-2.015-4.58-7.86-4.58-7.86s-4.104 22.819-1.832 29.533c2.271 6.715-1.567 19.283-2.446 24.092-.825 4.58.797 37.621.916 40.873a20.916 20.916 0 01-4.351-.916s-2.886-51.774-4.287-57.71c-1.402-5.936-2.208-48.348-2.208-48.348s4.095 6.889 8.94 7.75z" fill="#1251C3"/><path d="M368.757 232.058c.916-4.809 4.718-17.405 2.446-24.092-2.272-6.687 1.832-29.532 1.832-29.532s2.529 5.853 4.58 7.859c2.052 2.006 1.512 9.875 1.512 9.875s-2.611 19.292-3.545 24.733c-.935 5.441.119 10.076 1.099 14.107.98 4.03-4.58 37.383-4.58 37.383a3.267 3.267 0 01-2.455.504c-.092-3.216-1.713-36.257-.889-40.837z" fill="#094082"/><path d="M394.516 137.322l-3.307-18.11s-2.876 18.779-3.756 21.985c-.879 3.206-5.587 9.16-6.412 10.076-.824.916-28.617 16.919-28.617 16.919l5.442-3.096-.129 2.033s11.854 4.196 16.177 3.866c4.324-.33 17.964-4.278 17.964-4.278s.916-6.861.916-6.531c0 .33 1.878 5.698 1.878 5.698s2.748-.596 3.563-1.503c-.055-.009-2.51-17.633-3.719-27.059z" fill="#1E194F"/><path d="M377.295 140.061c.851-1.64 1.374-15.573 1.374-15.573s-7.2 5.57-8.116 11.332c-.916 5.761-11.671 19.722-11.671 19.722s17.542-13.842 18.413-15.481zm-24.147-23.725s-1.246 18.403-1.163 22.901c0 1.181-1.42 3.197-3.573 5.496l-.476.65a8.356 8.356 0 013.664 4.809l2.657-3.398c.16-.208.293-.436.394-.678l2.748-7.53s-4.26-19.236-4.251-22.25z" fill="#1E194F"/><path d="M394.003 132.751c-.522-5.945-2.702-24.944-5.853-27.362-3.151-2.419-15.426-4.58-15.426-4.58l-11.304 2.226s-8.959 3.416-9.362 5.587c-.403 2.171-4.726 30.843-5.377 32.153-.174.348-1.383 1.905-3.059 3.985h.412c1.329-.02 2.651.2 3.902.65l.916-1.163c1.887-2.116 3.133-3.93 3.105-5.02-.082-4.525 1.164-22.901 1.164-22.901 0 3.041 4.214 22.315 4.214 22.315a88.698 88.698 0 012.161 11.67c.266 4.104-.659 5.23-.659 5.23s10.745-13.951 11.67-19.722c.925-5.771 8.116-11.331 8.116-11.331s-.522 13.951-1.374 15.572c-.852 1.622-18.412 15.463-18.412 15.463l-9.215 7.933s.833 4.937 2.748 4.727c0 0 27.737-16.04 28.616-16.919.88-.88 5.588-6.816 6.413-10.077.824-3.261 3.755-21.985 3.755-21.985l3.307 18.11c-.183-1.942-.366-3.572-.458-4.561z" fill="#403882"/><path d="M365.222 86.234s-.083-2.446 1.227-2.537c4.534-.303 1.566 5.194 1.566 5.194s2.117 10.076 4.709 11.908c0 0-1.338 4.424-4.58 6.302 0 0-4.187-1.832-4.187-3.911 0-2.08 1.897-6.944 1.897-6.944-1.109 1.933-5.405 3.536-5.405 3.536a4.816 4.816 0 01-2.876.193c-3.408-1.109-7.686-16.864-7.686-16.864 12.861-7.998 15.335 3.123 15.335 3.123z" fill="#FDA181"/><path d="M364.241 107.899c-3.142-.394-2.821-4.855-2.821-4.855l-.98-3.197s4.296-1.603 5.405-3.535c0 0-1.897 4.845-1.897 6.943s4.177 3.911 4.187 3.911a6.138 6.138 0 01-3.894.733z" fill="#D17A62"/><path d="M348.192 74.134c2.703-.568 10.993-5.432 13.439-5.624a11.486 11.486 0 012.024.064c2.272 1.19 4.773 3.078 3.866 5.386-1.576 3.994-3.417 5.826-3.445 7.2-.027 1.374 1.457 6.12 1.457 6.12l-1.246-.541-.852-2.052-4.287-3.72s-4.644 3.308-9.298 2.144c-4.653-1.163-5.935-5.936-5.935-5.936a7.462 7.462 0 014.277-3.041z" fill="#403882"/><path d="M367.52 73.96c.916-2.309-1.593-4.196-3.865-5.387 3.068.358 7.63 1.896 8.244 6.413.788 5.679-1.621 16.772-1.704 17.734-.082.962-.384 2.748-.384 2.748s-1.979-5.02-1.833-6.55c0 0 2.007-3.462-.522-4.672-2.528-1.209-2.271 2.016-2.271 2.016l.311 1.044s-1.493-4.736-1.456-6.119c.036-1.383 1.905-3.234 3.48-7.227z" fill="#1E194F"/><path d="M350.189 168.796c-1.676 1.044-3.737 2.061-4.131 3.014-.394.952-6.101 3.499-10.452 3.078a7.521 7.521 0 01.367-2.382c0-.403 1.832-.77 3.334-1.502a22.023 22.023 0 004.031-3.326c.201-.201-2.016-.064-2.675-.494-.66-.431-1.741-1.31-1.219-1.933.523-.623 3.738 0 6.55-.174s3.664-1.621 3.664-1.621c1.713-.129 2.464 2.592 2.748 3.929l-2.217 1.411z" fill="#FDA181"/><path d="M349.338 171.353c-.623 1.282-5.496 4.58-6.724 5.129-1.227.55-5.762.138-6.641-.806a1.57 1.57 0 01-.367-.787c4.352.421 10.077-2.135 10.452-3.078.376-.944 2.455-1.97 4.132-3.014 1.676-1.044 2.189-1.447 2.189-1.447.092.439.128.723.128.723s-2.583 2.025-3.169 3.28z" fill="#D17A62"/><path d="M215.79 46.92c2.363-1.247 5.02-6.028 5.569-7.842a43.194 43.194 0 012.089-4.92s10.186-4.213 11.514-5.724a48.724 48.724 0 003.811-6.101 7.647 7.647 0 013.866 4.315c1.356 3.361.211 9.829 2.327 10.195 2.116.366 7.502 3.536 7.502 3.536 1.447-3.444-3.719-4.58-5.991-5.35-2.272-.77 1.539-7.53 3.353-11.34 1.813-3.811-4.168-5.497-4.168-5.497 1.722-3.178-3.719-3.664-9.71-5.496-5.991-1.832-15.747 1.255-15.298 5.735.449 4.48-1.521 5.77-3.334 8.244-1.814 2.473 0 7.2 0 7.2-.916 2.995.412 5.624-3.664 7.713-4.077 2.088-1.035 10.516-1.035 10.516s.815-3.939 3.169-5.185z" fill="#403882"/><path d="M241.915 54.962c8.62-.358 11.249-2.812 13.741-7.383 2.491-4.571-3.234-7.219-3.234-7.219s-5.386-3.17-7.502-3.536c-2.116-.366-.916-6.833-2.281-10.195a7.695 7.695 0 00-3.838-4.315 48.894 48.894 0 01-3.811 6.083c-1.328 1.548-11.478 5.762-11.478 5.762a43.73 43.73 0 00-2.116 4.946c-.549 1.832-3.206 6.596-5.569 7.842-2.364 1.245-3.17 5.157-3.17 5.157s20.638 3.242 29.258 2.858z" fill="#1E194F"/><path d="M259.695 105.975l10.031-6.275a3.495 3.495 0 001.64-2.968V72.274h-15.445l3.774 33.701z" fill="#BF4728"/><path d="M253.613 72.274h-39.124a7.786 7.786 0 00-7.786 7.787v19.053c0 4.3 3.486 7.786 7.786 7.786h39.124c4.3 0 7.786-3.486 7.786-7.786V80.061c0-4.3-3.486-7.787-7.786-7.787z" fill="url(#paint20_linear_406_2092)"/><path d="M274.114 68.135c-2.052-7.622-21.674-20.95-23.121-21.216-1.447-.265-16.489-1.621-16.489-1.621-9.261.833-15.343 1.933-20.757 5.606-5.414 3.673-13.511 14.601-15.691 24.311a24.235 24.235 0 002.088 16.727c-.119-1.063 3.536-4.846 3.536-4.846-3.902-7.328 1.832-14.656 6.174-18.055 4.342-3.398 8.977-14.033 8.977-14.033 1.09 1.209-.98 11.578-.98 11.578l.183 5.689h11.231s2.501-8.464 10.14-8.464c7.64 0 11.267-10.992 11.267-10.992s.257 4.955 2.061 6.412c1.805 1.456 13.173 8.711 15.234 12.824L250.169 91.96l4.781 4.58s21.252-20.793 19.164-28.406z" fill="#1251C3"/><path d="M252.715 59.258c-1.832-1.447-2.061-6.412-2.061-6.412s-3.664 10.992-11.267 10.992-10.14 8.464-10.14 8.464h22.25l.54-6.229 9.39 5.808c-2.29 1.722-11.277 20.088-11.277 20.088l17.771-19.887c-2.061-4.158-13.429-11.413-15.206-12.824zm-33.893-4.25s-4.58 10.68-8.977 14.033c-4.397 3.353-10.076 10.709-6.174 18.055-1.264-2.629 2.995-10.992 4.287-11.972 1.292-.98 9.847-8.538 9.847-8.538s2.043-10.369 1.017-11.578z" fill="#094082"/><path d="M227.534 43.21l.1 4.259s3.765 5.139 12.037-.751l-.751-5.881-11.386 2.372z" fill="#FDA181"/><path d="M227.534 42.87l11.386-2.033.44 3.417s-4.654 2.84-7.979 2.656c-3.325-.183-3.792-1.493-3.792-1.493l-.055-2.547z" fill="#D17A62"/><path d="M224.08 26.08s-1.594 9.361.339 14.024c1.933 4.662 6.843 5.963 8.299 5.707 1.457-.257 6.174-1.777 7.622-5.405 1.447-3.627 2.601-11.908 2.18-15.417-.422-3.508-16.928-9.856-18.44 1.09z" fill="#FDA181"/><path d="M238.737 22.333s-.55 4.232 1.126 5.313c1.677 1.081 1.832 7.53 1.832 7.53s4.132-6.412 2.327-11.093c-1.804-4.681-5.24-7.979-5.285-1.75z" fill="#403882"/><path d="M239.36 22.992a7.837 7.837 0 01-7.539 2.062c-4.846-1.09-6.293 10.506-9.802 9.334-3.508-1.173.183-15.573 6.293-16.718 6.11-1.145 13.411-.55 11.048 5.322z" fill="#403882"/><path d="M250.123 91.942a27.465 27.465 0 01-3.215 2.18c-.596.184-4.901 1.09-5.359 1.09-.458 0-.586 1.448.641 1.54.983.055 1.967.055 2.95 0 0 0-3.811 3.581-4.58 3.764-.77.184.091 2.254.549 2.529.458.274 4.04 1.832 6.98 0 2.941-1.832 4.654-2.941 6.825-6.568 2.171-3.628-4.791-4.535-4.791-4.535zm-46.489-4.845a9.96 9.96 0 003.454-.275c.989-.45 1.942-.724 2.217-.413.274.312-1.384 1.833-1.997 2.09-.311.122-.592.31-.825.549 0 0 .055 1.31 1.054 1.63a35.996 35.996 0 014.717 1.951c-.046.138-.229 2.904-.916 3.353a15.212 15.212 0 01-6.412.724 7.812 7.812 0 01-5.084-5.707c-.742-3.408 1.979-4.81 3.792-3.902z" fill="#FDA181"/><path d="M256.892 103.521c.653 0 1.182-.504 1.182-1.127 0-.622-.529-1.126-1.182-1.126-.652 0-1.182.504-1.182 1.126 0 .623.53 1.127 1.182 1.127zm-.394-26.775c.653 0 1.182-.505 1.182-1.127s-.529-1.127-1.182-1.127c-.653 0-1.182.505-1.182 1.127s.529 1.127 1.182 1.127zm-45.096 27.012c.653 0 1.182-.504 1.182-1.126 0-.623-.529-1.127-1.182-1.127-.653 0-1.182.504-1.182 1.127 0 .622.529 1.126 1.182 1.126zm-.394-26.774c.652 0 1.182-.504 1.182-1.127 0-.622-.53-1.126-1.182-1.126-.653 0-1.182.504-1.182 1.126 0 .623.529 1.127 1.182 1.127z" fill="#DDD"/><defs><linearGradient id="paint0_linear_406_2092" x1="424.049" y1="306.678" x2="447.545" y2="392.465" gradientUnits="userSpaceOnUse"><stop stop-color="#2272B9"/><stop offset=".41" stop-color="#2851A5"/><stop offset=".77" stop-color="#2C3A97"/><stop offset="1" stop-color="#2D3292"/></linearGradient><linearGradient id="paint1_linear_406_2092" x1="441.087" y1="394.242" x2="480.996" y2="344.897" gradientUnits="userSpaceOnUse"><stop stop-color="#F79B5E"/><stop offset=".29" stop-color="#FAAD60"/><stop offset=".71" stop-color="#FEC162"/><stop offset="1" stop-color="#FFC863"/></linearGradient><linearGradient id="paint2_linear_406_2092" x1="433.475" y1="388.086" x2="473.386" y2="338.739" gradientUnits="userSpaceOnUse"><stop stop-color="#F79B5E"/><stop offset=".29" stop-color="#FAAD60"/><stop offset=".71" stop-color="#FEC162"/><stop offset="1" stop-color="#FFC863"/></linearGradient><linearGradient id="paint3_linear_406_2092" x1="116.464" y1="374.922" x2="82.36" y2="257.368" gradientUnits="userSpaceOnUse"><stop stop-color="#1252C4"/><stop offset="1" stop-color="#3F87FE"/></linearGradient><linearGradient id="paint4_linear_406_2092" x1="458.272" y1="383.451" x2="391.42" y2="414.203" gradientUnits="userSpaceOnUse"><stop stop-color="#2272B9"/><stop offset=".41" stop-color="#2851A5"/><stop offset=".77" stop-color="#2C3A97"/><stop offset="1" stop-color="#2D3292"/></linearGradient><linearGradient id="paint5_linear_406_2092" x1="331.64" y1="400.691" x2="411.335" y2="400.691" gradientUnits="userSpaceOnUse"><stop offset="1" stop-color="#2D3292"/></linearGradient><linearGradient id="paint6_linear_406_2092" x1="92.62" y1="402.239" x2="196.938" y2="402.239" gradientUnits="userSpaceOnUse"><stop stop-color="#F67447"/><stop offset="1" stop-color="#F69159"/></linearGradient><linearGradient id="paint7_linear_406_2092" x1="480.669" y1="384.744" x2="369.454" y2="365.965" gradientUnits="userSpaceOnUse"><stop offset=".05" stop-color="#FAD05A"/><stop offset=".33" stop-color="#FAC85A"/><stop offset=".77" stop-color="#F9B159"/><stop offset="1" stop-color="#F8A359"/></linearGradient><linearGradient id="paint8_linear_406_2092" x1="331.64" y1="288.496" x2="433.741" y2="288.496" gradientUnits="userSpaceOnUse"><stop stop-color="#1252C4"/><stop offset="1" stop-color="#3F87FE"/></linearGradient><linearGradient id="paint9_linear_406_2092" x1="193.255" y1="345.619" x2="340.819" y2="345.619" gradientUnits="userSpaceOnUse"><stop stop-color="#1252C4"/><stop offset="1" stop-color="#3F87FE"/></linearGradient><linearGradient id="paint10_linear_406_2092" x1="195.408" y1="320.546" x2="334.746" y2="320.546" gradientUnits="userSpaceOnUse"><stop stop-color="#3159A7"/><stop offset="1" stop-color="#557EBE"/></linearGradient><linearGradient id="paint11_linear_406_2092" x1="195.252" y1="176.024" x2="337.943" y2="176.024" gradientUnits="userSpaceOnUse"><stop stop-color="#3159A7"/><stop offset="1" stop-color="#557EBE"/></linearGradient><linearGradient id="paint12_linear_406_2092" x1="167.506" y1="171.847" x2="412.663" y2="236.858" gradientUnits="userSpaceOnUse"><stop stop-color="#2272B9"/><stop offset=".41" stop-color="#2851A5"/><stop offset=".77" stop-color="#2C3A97"/><stop offset="1" stop-color="#2D3292"/></linearGradient><linearGradient id="paint13_linear_406_2092" x1="192.815" y1="427.52" x2="340.379" y2="427.52" gradientUnits="userSpaceOnUse"><stop stop-color="#F79B5E"/><stop offset=".29" stop-color="#FAAD60"/><stop offset=".71" stop-color="#FEC162"/><stop offset="1" stop-color="#FFC863"/></linearGradient><linearGradient id="paint14_linear_406_2092" x1="299.57" y1="162.083" x2="351.683" y2="162.083" gradientUnits="userSpaceOnUse"><stop stop-color="#F79B5E"/><stop offset=".29" stop-color="#FAAD60"/><stop offset=".71" stop-color="#FEC162"/><stop offset="1" stop-color="#FFC863"/></linearGradient><linearGradient id="paint15_linear_406_2092" x1="212.098" y1="321.912" x2="146.858" y2="293.066" gradientUnits="userSpaceOnUse"><stop stop-color="#2272B9"/><stop offset=".41" stop-color="#2851A5"/><stop offset=".77" stop-color="#2C3A97"/><stop offset="1" stop-color="#2D3292"/></linearGradient><linearGradient id="paint16_linear_406_2092" x1="264.66" y1="365.166" x2="360.376" y2="414.246" gradientUnits="userSpaceOnUse"><stop stop-color="#2272B9"/><stop offset=".41" stop-color="#2851A5"/><stop offset=".77" stop-color="#2C3A97"/><stop offset="1" stop-color="#2D3292"/></linearGradient><linearGradient id="paint17_linear_406_2092" x1="288.77" y1="306.889" x2="341.442" y2="306.889" gradientUnits="userSpaceOnUse"><stop stop-color="#F79B5E"/><stop offset=".29" stop-color="#FAAD60"/><stop offset=".71" stop-color="#FEC162"/><stop offset="1" stop-color="#FFC863"/></linearGradient><linearGradient id="paint18_linear_406_2092" x1="281.158" y1="225.838" x2="358.553" y2="244.589" gradientUnits="userSpaceOnUse"><stop stop-color="#F67447"/><stop offset="1" stop-color="#F69159"/></linearGradient><linearGradient id="paint19_linear_406_2092" x1="198.916" y1="211.383" x2="272.18" y2="265.713" gradientUnits="userSpaceOnUse"><stop stop-color="#F79B5E"/><stop offset=".29" stop-color="#FAAD60"/><stop offset=".71" stop-color="#FEC162"/><stop offset="1" stop-color="#FFC863"/></linearGradient><linearGradient id="paint20_linear_406_2092" x1="272.465" y1="78.879" x2="197.121" y2="99.893" gradientUnits="userSpaceOnUse"><stop stop-color="#F67447"/><stop offset="1" stop-color="#F69159"/></linearGradient></defs></svg>